M48
; DRILL file KiCad 10.0.2 date 2026-08-14T12:24:55
; FORMAT={-:-/ absolute / metric / decimal}
; #@! TF.CreationDate,2026-08-14T12:24:55+09:00
; #@! TF.GenerationSoftware,Kicad,Pcbnew,10.0.2
; #@! TF.FileFunction,Plated,1,2,PTH
FMAT,2
METRIC
; #@! TA.AperFunction,Plated,PTH,ViaDrill
T1C0.300
; #@! TA.AperFunction,Plated,PTH,ComponentDrill
T2C0.300
; #@! TA.AperFunction,Plated,PTH,ComponentDrill
T3C0.850
; #@! TA.AperFunction,Plated,PTH,ComponentDrill
T4C0.900
%
G90
G05
T1
X31.6Y-34.4
X31.6Y-55.4
X32.7Y-24.6
X33.4Y-101.0
X34.3Y-65.8
X35.4Y-100.0
X35.6Y-98.8
X36.8Y-98.8
X38.35Y-28.42
X38.98Y-47.88
X43.4Y-73.8
X44.8Y-100.9
X49.9Y-43.47
X49.9Y-61.7
X49.9Y-75.5
X51.0Y-43.6
X51.0Y-61.7
X52.1Y-43.7
X52.1Y-61.7
X52.5Y-77.0
X56.75Y-78.35
X56.8Y-32.6
X56.93Y-26.57
X57.2Y-63.4
X57.4Y-50.8
X60.0Y-29.5
X60.0Y-48.5
X60.075Y-67.5
X63.8Y-100.0
X66.2Y-95.6
X67.5Y-100.9
X77.0Y-62.3
X80.25Y-37.75
X81.5Y-56.8
X82.25Y-78.0
X82.6Y-95.6
X83.69Y-26.53
X89.1Y-70.9
X90.4Y-83.7
X91.4Y-52.3
X91.4Y-54.7
X91.4Y-70.9
X95.0Y-22.1
X95.0Y-40.0
X95.0Y-58.0
X95.0Y-70.0
X95.0Y-76.0
X99.0Y-95.2
X102.2Y-99.6
X105.6Y-89.4
X114.61Y-102.31
T2
X22.11Y-35.11
X22.11Y-54.11
X22.11Y-73.11
X22.962Y-38.5
X22.962Y-57.5
X23.0Y-76.5
X23.06Y-35.11
X23.06Y-54.11
X23.06Y-73.11
X24.01Y-35.11
X24.01Y-54.11
X24.01Y-73.11
X25.037Y-38.5
X25.037Y-57.5
X25.075Y-76.5
X41.1Y-45.11
X41.11Y-26.11
X41.11Y-64.11
X41.962Y-29.5
X41.962Y-48.5
X42.0Y-67.5
X42.05Y-45.11
X42.06Y-26.11
X42.06Y-64.11
X43.0Y-45.11
X43.01Y-26.11
X43.01Y-64.11
X44.038Y-29.5
X44.038Y-48.5
X44.075Y-67.5
X60.11Y-23.11
X60.11Y-42.11
X60.11Y-61.11
X60.962Y-26.5
X60.962Y-45.5
X61.0Y-64.5
X61.06Y-23.11
X61.06Y-42.11
X61.06Y-61.11
X62.01Y-23.11
X62.01Y-42.11
X62.01Y-61.11
X63.037Y-26.5
X63.037Y-45.5
X63.075Y-64.5
X66.22Y-69.38
X66.22Y-70.65
X66.22Y-71.92
X66.22Y-73.19
X66.22Y-74.46
X66.3Y-30.92
X66.3Y-32.19
X66.3Y-33.46
X66.3Y-34.73
X66.3Y-36.0
X66.35Y-49.97
X66.35Y-51.24
X66.35Y-52.51
X66.35Y-53.78
X66.35Y-55.05
X70.11Y-92.11
X70.195Y-77.0
X70.195Y-71.92
X70.195Y-65.693
X70.195Y-67.768
X70.195Y-69.38
X70.195Y-70.65
X70.195Y-75.73
X70.195Y-73.19
X70.195Y-74.46
X70.195Y-78.27
X70.2Y-27.163
X70.2Y-29.238
X70.275Y-38.54
X70.275Y-33.46
X70.275Y-30.92
X70.275Y-32.19
X70.275Y-37.27
X70.275Y-34.73
X70.275Y-36.0
X70.275Y-39.81
X70.325Y-46.252
X70.325Y-48.328
X70.325Y-57.59
X70.325Y-52.51
X70.325Y-49.97
X70.325Y-51.24
X70.325Y-56.32
X70.325Y-53.78
X70.325Y-55.05
X70.325Y-58.86
X71.0Y-95.5
X71.06Y-92.11
X72.01Y-92.11
X73.075Y-95.5
X74.17Y-69.38
X74.17Y-70.65
X74.17Y-71.92
X74.17Y-73.19
X74.17Y-74.46
X74.25Y-30.92
X74.25Y-32.19
X74.25Y-33.46
X74.25Y-34.73
X74.25Y-36.0
X74.3Y-49.97
X74.3Y-51.24
X74.3Y-52.51
X74.3Y-53.78
X74.3Y-55.05
X79.11Y-28.11
X79.11Y-47.11
X79.11Y-66.11
X79.962Y-31.5
X79.962Y-50.5
X80.0Y-69.5
X80.06Y-28.11
X80.06Y-47.11
X80.06Y-66.11
X81.01Y-28.11
X81.01Y-47.11
X81.01Y-66.11
X82.037Y-31.5
X82.037Y-50.5
X82.075Y-69.5
X89.11Y-94.11
X90.0Y-97.5
X90.06Y-94.11
X91.01Y-94.11
X92.075Y-97.5
X98.11Y-30.11
X98.11Y-49.11
X98.11Y-68.11
X98.962Y-33.5
X98.962Y-52.5
X99.0Y-71.5
X99.06Y-30.11
X99.06Y-49.11
X99.06Y-68.11
X100.01Y-30.11
X100.01Y-49.11
X100.01Y-68.11
X101.037Y-33.5
X101.037Y-52.5
X101.075Y-71.5
X108.1Y-97.11
X109.0Y-100.5
X109.05Y-97.11
X110.0Y-97.11
X111.075Y-100.5
T3
X38.35Y-82.24
X38.35Y-97.58
X40.89Y-82.24
X40.89Y-97.58
X43.43Y-82.24
X43.43Y-97.58
X45.97Y-82.24
X45.97Y-97.58
X48.51Y-82.24
X48.51Y-97.58
X51.05Y-82.24
X51.05Y-97.58
X53.59Y-82.24
X53.59Y-97.58
X56.13Y-82.24
X56.13Y-97.58
X58.67Y-82.24
X58.67Y-97.58
X58.72Y-84.83
X58.72Y-87.37
X58.72Y-89.91
X58.72Y-92.45
X58.72Y-94.99
T4
G00X97.66Y-78.61
M15
G01X97.26Y-78.61
M16
G05
G00X97.26Y-83.21
M15
G01X97.66Y-83.21
M16
G05
G00X98.36Y-78.61
M15
G01X98.76Y-78.61
M16
G05
G00X98.76Y-83.21
M15
G01X98.36Y-83.21
M16
G05
G00X102.36Y-78.61
M15
G01X102.76Y-78.61
M16
G05
G00X102.76Y-83.21
M15
G01X102.36Y-83.21
M16
G05
G00X105.36Y-78.61
M15
G01X105.76Y-78.61
M16
G05
G00X105.76Y-83.21
M15
G01X105.36Y-83.21
M16
G05
M30
