%TF.GenerationSoftware,KiCad,Pcbnew,10.0.2*%
%TF.CreationDate,2026-07-29T15:43:31+09:00*%
%TF.ProjectId,boardloaf-he,626f6172-646c-46f6-9166-2d68652e6b69,rev?*%
%TF.SameCoordinates,Original*%
%TF.FileFunction,AssemblyDrawing,Top*%
%FSLAX46Y46*%
G04 Gerber Fmt 4.6, Leading zero omitted, Abs format (unit mm)*
G04 Created by KiCad (PCBNEW 10.0.2) date 2026-07-29 15:43:31*
%MOMM*%
%LPD*%
G01*
G04 APERTURE LIST*
%ADD10C,0.150000*%
%ADD11C,0.080000*%
%ADD12C,0.100000*%
G04 APERTURE END LIST*
D10*
X40926671Y-40217208D02*
X41069528Y-40264827D01*
X41069528Y-40264827D02*
X41307623Y-40264827D01*
X41307623Y-40264827D02*
X41402861Y-40217208D01*
X41402861Y-40217208D02*
X41450480Y-40169588D01*
X41450480Y-40169588D02*
X41498099Y-40074350D01*
X41498099Y-40074350D02*
X41498099Y-39979112D01*
X41498099Y-39979112D02*
X41450480Y-39883874D01*
X41450480Y-39883874D02*
X41402861Y-39836255D01*
X41402861Y-39836255D02*
X41307623Y-39788636D01*
X41307623Y-39788636D02*
X41117147Y-39741017D01*
X41117147Y-39741017D02*
X41021909Y-39693398D01*
X41021909Y-39693398D02*
X40974290Y-39645779D01*
X40974290Y-39645779D02*
X40926671Y-39550541D01*
X40926671Y-39550541D02*
X40926671Y-39455303D01*
X40926671Y-39455303D02*
X40974290Y-39360065D01*
X40974290Y-39360065D02*
X41021909Y-39312446D01*
X41021909Y-39312446D02*
X41117147Y-39264827D01*
X41117147Y-39264827D02*
X41355242Y-39264827D01*
X41355242Y-39264827D02*
X41498099Y-39312446D01*
X41831433Y-39264827D02*
X42069528Y-40264827D01*
X42069528Y-40264827D02*
X42260004Y-39550541D01*
X42260004Y-39550541D02*
X42450480Y-40264827D01*
X42450480Y-40264827D02*
X42688576Y-39264827D01*
X42974290Y-39264827D02*
X43640956Y-39264827D01*
X43640956Y-39264827D02*
X43212385Y-40264827D01*
X78926667Y-23217200D02*
X79069524Y-23264819D01*
X79069524Y-23264819D02*
X79307619Y-23264819D01*
X79307619Y-23264819D02*
X79402857Y-23217200D01*
X79402857Y-23217200D02*
X79450476Y-23169580D01*
X79450476Y-23169580D02*
X79498095Y-23074342D01*
X79498095Y-23074342D02*
X79498095Y-22979104D01*
X79498095Y-22979104D02*
X79450476Y-22883866D01*
X79450476Y-22883866D02*
X79402857Y-22836247D01*
X79402857Y-22836247D02*
X79307619Y-22788628D01*
X79307619Y-22788628D02*
X79117143Y-22741009D01*
X79117143Y-22741009D02*
X79021905Y-22693390D01*
X79021905Y-22693390D02*
X78974286Y-22645771D01*
X78974286Y-22645771D02*
X78926667Y-22550533D01*
X78926667Y-22550533D02*
X78926667Y-22455295D01*
X78926667Y-22455295D02*
X78974286Y-22360057D01*
X78974286Y-22360057D02*
X79021905Y-22312438D01*
X79021905Y-22312438D02*
X79117143Y-22264819D01*
X79117143Y-22264819D02*
X79355238Y-22264819D01*
X79355238Y-22264819D02*
X79498095Y-22312438D01*
X79831429Y-22264819D02*
X80069524Y-23264819D01*
X80069524Y-23264819D02*
X80260000Y-22550533D01*
X80260000Y-22550533D02*
X80450476Y-23264819D01*
X80450476Y-23264819D02*
X80688572Y-22264819D01*
X81498095Y-22598152D02*
X81498095Y-23264819D01*
X81260000Y-22217200D02*
X81021905Y-22931485D01*
X81021905Y-22931485D02*
X81640952Y-22931485D01*
X63149824Y-78093092D02*
X63149824Y-77426426D01*
X63149824Y-77426426D02*
X64149824Y-77854997D01*
X63483157Y-76616902D02*
X64149824Y-76616902D01*
X63102205Y-76854997D02*
X63816490Y-77093092D01*
X63816490Y-77093092D02*
X63816490Y-76474045D01*
X64149824Y-76093092D02*
X63149824Y-76093092D01*
X63626014Y-76093092D02*
X63626014Y-75521664D01*
X64149824Y-75521664D02*
X63149824Y-75521664D01*
X64054585Y-74474045D02*
X64102205Y-74521664D01*
X64102205Y-74521664D02*
X64149824Y-74664521D01*
X64149824Y-74664521D02*
X64149824Y-74759759D01*
X64149824Y-74759759D02*
X64102205Y-74902616D01*
X64102205Y-74902616D02*
X64006966Y-74997854D01*
X64006966Y-74997854D02*
X63911728Y-75045473D01*
X63911728Y-75045473D02*
X63721252Y-75093092D01*
X63721252Y-75093092D02*
X63578395Y-75093092D01*
X63578395Y-75093092D02*
X63387919Y-75045473D01*
X63387919Y-75045473D02*
X63292681Y-74997854D01*
X63292681Y-74997854D02*
X63197443Y-74902616D01*
X63197443Y-74902616D02*
X63149824Y-74759759D01*
X63149824Y-74759759D02*
X63149824Y-74664521D01*
X63149824Y-74664521D02*
X63197443Y-74521664D01*
X63197443Y-74521664D02*
X63245062Y-74474045D01*
X63483157Y-73616902D02*
X64149824Y-73616902D01*
X63102205Y-73854997D02*
X63816490Y-74093092D01*
X63816490Y-74093092D02*
X63816490Y-73474045D01*
X63149824Y-72902616D02*
X63149824Y-72807378D01*
X63149824Y-72807378D02*
X63197443Y-72712140D01*
X63197443Y-72712140D02*
X63245062Y-72664521D01*
X63245062Y-72664521D02*
X63340300Y-72616902D01*
X63340300Y-72616902D02*
X63530776Y-72569283D01*
X63530776Y-72569283D02*
X63768871Y-72569283D01*
X63768871Y-72569283D02*
X63959347Y-72616902D01*
X63959347Y-72616902D02*
X64054585Y-72664521D01*
X64054585Y-72664521D02*
X64102205Y-72712140D01*
X64102205Y-72712140D02*
X64149824Y-72807378D01*
X64149824Y-72807378D02*
X64149824Y-72902616D01*
X64149824Y-72902616D02*
X64102205Y-72997854D01*
X64102205Y-72997854D02*
X64054585Y-73045473D01*
X64054585Y-73045473D02*
X63959347Y-73093092D01*
X63959347Y-73093092D02*
X63768871Y-73140711D01*
X63768871Y-73140711D02*
X63530776Y-73140711D01*
X63530776Y-73140711D02*
X63340300Y-73093092D01*
X63340300Y-73093092D02*
X63245062Y-73045473D01*
X63245062Y-73045473D02*
X63197443Y-72997854D01*
X63197443Y-72997854D02*
X63149824Y-72902616D01*
X63149824Y-71664521D02*
X63149824Y-72140711D01*
X63149824Y-72140711D02*
X63626014Y-72188330D01*
X63626014Y-72188330D02*
X63578395Y-72140711D01*
X63578395Y-72140711D02*
X63530776Y-72045473D01*
X63530776Y-72045473D02*
X63530776Y-71807378D01*
X63530776Y-71807378D02*
X63578395Y-71712140D01*
X63578395Y-71712140D02*
X63626014Y-71664521D01*
X63626014Y-71664521D02*
X63721252Y-71616902D01*
X63721252Y-71616902D02*
X63959347Y-71616902D01*
X63959347Y-71616902D02*
X64054585Y-71664521D01*
X64054585Y-71664521D02*
X64102205Y-71712140D01*
X64102205Y-71712140D02*
X64149824Y-71807378D01*
X64149824Y-71807378D02*
X64149824Y-72045473D01*
X64149824Y-72045473D02*
X64102205Y-72140711D01*
X64102205Y-72140711D02*
X64054585Y-72188330D01*
X64149824Y-70664521D02*
X64149824Y-71235949D01*
X64149824Y-70950235D02*
X63149824Y-70950235D01*
X63149824Y-70950235D02*
X63292681Y-71045473D01*
X63292681Y-71045473D02*
X63387919Y-71140711D01*
X63387919Y-71140711D02*
X63435538Y-71235949D01*
X57260570Y-75101665D02*
X58053904Y-75101665D01*
X58053904Y-75101665D02*
X58147237Y-75054999D01*
X58147237Y-75054999D02*
X58193904Y-75008332D01*
X58193904Y-75008332D02*
X58240570Y-74914999D01*
X58240570Y-74914999D02*
X58240570Y-74728332D01*
X58240570Y-74728332D02*
X58193904Y-74634999D01*
X58193904Y-74634999D02*
X58147237Y-74588332D01*
X58147237Y-74588332D02*
X58053904Y-74541665D01*
X58053904Y-74541665D02*
X57260570Y-74541665D01*
X58240570Y-73561665D02*
X58240570Y-74121665D01*
X58240570Y-73841665D02*
X57260570Y-73841665D01*
X57260570Y-73841665D02*
X57400570Y-73934998D01*
X57400570Y-73934998D02*
X57493904Y-74028332D01*
X57493904Y-74028332D02*
X57540570Y-74121665D01*
X90442261Y-99634819D02*
X89870833Y-99634819D01*
X90156547Y-99634819D02*
X90156547Y-98634819D01*
X90156547Y-98634819D02*
X90061309Y-98777676D01*
X90061309Y-98777676D02*
X89966071Y-98872914D01*
X89966071Y-98872914D02*
X89870833Y-98920533D01*
X91299404Y-98968152D02*
X91299404Y-99634819D01*
X90870833Y-98968152D02*
X90870833Y-99491961D01*
X90870833Y-99491961D02*
X90918452Y-99587200D01*
X90918452Y-99587200D02*
X91013690Y-99634819D01*
X91013690Y-99634819D02*
X91156547Y-99634819D01*
X91156547Y-99634819D02*
X91251785Y-99587200D01*
X91251785Y-99587200D02*
X91299404Y-99539580D01*
X92108928Y-99111009D02*
X91775595Y-99111009D01*
X91775595Y-99634819D02*
X91775595Y-98634819D01*
X91775595Y-98634819D02*
X92251785Y-98634819D01*
D11*
X90716071Y-97679530D02*
X90692262Y-97703340D01*
X90692262Y-97703340D02*
X90620833Y-97727149D01*
X90620833Y-97727149D02*
X90573214Y-97727149D01*
X90573214Y-97727149D02*
X90501786Y-97703340D01*
X90501786Y-97703340D02*
X90454167Y-97655720D01*
X90454167Y-97655720D02*
X90430357Y-97608101D01*
X90430357Y-97608101D02*
X90406548Y-97512863D01*
X90406548Y-97512863D02*
X90406548Y-97441435D01*
X90406548Y-97441435D02*
X90430357Y-97346197D01*
X90430357Y-97346197D02*
X90454167Y-97298578D01*
X90454167Y-97298578D02*
X90501786Y-97250959D01*
X90501786Y-97250959D02*
X90573214Y-97227149D01*
X90573214Y-97227149D02*
X90620833Y-97227149D01*
X90620833Y-97227149D02*
X90692262Y-97250959D01*
X90692262Y-97250959D02*
X90716071Y-97274768D01*
X91192262Y-97727149D02*
X90906548Y-97727149D01*
X91049405Y-97727149D02*
X91049405Y-97227149D01*
X91049405Y-97227149D02*
X91001786Y-97298578D01*
X91001786Y-97298578D02*
X90954167Y-97346197D01*
X90954167Y-97346197D02*
X90906548Y-97370006D01*
X91358928Y-97227149D02*
X91692261Y-97227149D01*
X91692261Y-97227149D02*
X91477976Y-97727149D01*
D10*
X21926665Y-30217199D02*
X22069522Y-30264818D01*
X22069522Y-30264818D02*
X22307617Y-30264818D01*
X22307617Y-30264818D02*
X22402855Y-30217199D01*
X22402855Y-30217199D02*
X22450474Y-30169579D01*
X22450474Y-30169579D02*
X22498093Y-30074341D01*
X22498093Y-30074341D02*
X22498093Y-29979103D01*
X22498093Y-29979103D02*
X22450474Y-29883865D01*
X22450474Y-29883865D02*
X22402855Y-29836246D01*
X22402855Y-29836246D02*
X22307617Y-29788627D01*
X22307617Y-29788627D02*
X22117141Y-29741008D01*
X22117141Y-29741008D02*
X22021903Y-29693389D01*
X22021903Y-29693389D02*
X21974284Y-29645770D01*
X21974284Y-29645770D02*
X21926665Y-29550532D01*
X21926665Y-29550532D02*
X21926665Y-29455294D01*
X21926665Y-29455294D02*
X21974284Y-29360056D01*
X21974284Y-29360056D02*
X22021903Y-29312437D01*
X22021903Y-29312437D02*
X22117141Y-29264818D01*
X22117141Y-29264818D02*
X22355236Y-29264818D01*
X22355236Y-29264818D02*
X22498093Y-29312437D01*
X22831427Y-29264818D02*
X23069522Y-30264818D01*
X23069522Y-30264818D02*
X23259998Y-29550532D01*
X23259998Y-29550532D02*
X23450474Y-30264818D01*
X23450474Y-30264818D02*
X23688570Y-29264818D01*
X24593331Y-30264818D02*
X24021903Y-30264818D01*
X24307617Y-30264818D02*
X24307617Y-29264818D01*
X24307617Y-29264818D02*
X24212379Y-29407675D01*
X24212379Y-29407675D02*
X24117141Y-29502913D01*
X24117141Y-29502913D02*
X24021903Y-29550532D01*
X78926667Y-42217200D02*
X79069524Y-42264819D01*
X79069524Y-42264819D02*
X79307619Y-42264819D01*
X79307619Y-42264819D02*
X79402857Y-42217200D01*
X79402857Y-42217200D02*
X79450476Y-42169580D01*
X79450476Y-42169580D02*
X79498095Y-42074342D01*
X79498095Y-42074342D02*
X79498095Y-41979104D01*
X79498095Y-41979104D02*
X79450476Y-41883866D01*
X79450476Y-41883866D02*
X79402857Y-41836247D01*
X79402857Y-41836247D02*
X79307619Y-41788628D01*
X79307619Y-41788628D02*
X79117143Y-41741009D01*
X79117143Y-41741009D02*
X79021905Y-41693390D01*
X79021905Y-41693390D02*
X78974286Y-41645771D01*
X78974286Y-41645771D02*
X78926667Y-41550533D01*
X78926667Y-41550533D02*
X78926667Y-41455295D01*
X78926667Y-41455295D02*
X78974286Y-41360057D01*
X78974286Y-41360057D02*
X79021905Y-41312438D01*
X79021905Y-41312438D02*
X79117143Y-41264819D01*
X79117143Y-41264819D02*
X79355238Y-41264819D01*
X79355238Y-41264819D02*
X79498095Y-41312438D01*
X79831429Y-41264819D02*
X80069524Y-42264819D01*
X80069524Y-42264819D02*
X80260000Y-41550533D01*
X80260000Y-41550533D02*
X80450476Y-42264819D01*
X80450476Y-42264819D02*
X80688572Y-41264819D01*
X81117143Y-42264819D02*
X81307619Y-42264819D01*
X81307619Y-42264819D02*
X81402857Y-42217200D01*
X81402857Y-42217200D02*
X81450476Y-42169580D01*
X81450476Y-42169580D02*
X81545714Y-42026723D01*
X81545714Y-42026723D02*
X81593333Y-41836247D01*
X81593333Y-41836247D02*
X81593333Y-41455295D01*
X81593333Y-41455295D02*
X81545714Y-41360057D01*
X81545714Y-41360057D02*
X81498095Y-41312438D01*
X81498095Y-41312438D02*
X81402857Y-41264819D01*
X81402857Y-41264819D02*
X81212381Y-41264819D01*
X81212381Y-41264819D02*
X81117143Y-41312438D01*
X81117143Y-41312438D02*
X81069524Y-41360057D01*
X81069524Y-41360057D02*
X81021905Y-41455295D01*
X81021905Y-41455295D02*
X81021905Y-41693390D01*
X81021905Y-41693390D02*
X81069524Y-41788628D01*
X81069524Y-41788628D02*
X81117143Y-41836247D01*
X81117143Y-41836247D02*
X81212381Y-41883866D01*
X81212381Y-41883866D02*
X81402857Y-41883866D01*
X81402857Y-41883866D02*
X81498095Y-41836247D01*
X81498095Y-41836247D02*
X81545714Y-41788628D01*
X81545714Y-41788628D02*
X81593333Y-41693390D01*
X97450476Y-44217200D02*
X97593333Y-44264819D01*
X97593333Y-44264819D02*
X97831428Y-44264819D01*
X97831428Y-44264819D02*
X97926666Y-44217200D01*
X97926666Y-44217200D02*
X97974285Y-44169580D01*
X97974285Y-44169580D02*
X98021904Y-44074342D01*
X98021904Y-44074342D02*
X98021904Y-43979104D01*
X98021904Y-43979104D02*
X97974285Y-43883866D01*
X97974285Y-43883866D02*
X97926666Y-43836247D01*
X97926666Y-43836247D02*
X97831428Y-43788628D01*
X97831428Y-43788628D02*
X97640952Y-43741009D01*
X97640952Y-43741009D02*
X97545714Y-43693390D01*
X97545714Y-43693390D02*
X97498095Y-43645771D01*
X97498095Y-43645771D02*
X97450476Y-43550533D01*
X97450476Y-43550533D02*
X97450476Y-43455295D01*
X97450476Y-43455295D02*
X97498095Y-43360057D01*
X97498095Y-43360057D02*
X97545714Y-43312438D01*
X97545714Y-43312438D02*
X97640952Y-43264819D01*
X97640952Y-43264819D02*
X97879047Y-43264819D01*
X97879047Y-43264819D02*
X98021904Y-43312438D01*
X98355238Y-43264819D02*
X98593333Y-44264819D01*
X98593333Y-44264819D02*
X98783809Y-43550533D01*
X98783809Y-43550533D02*
X98974285Y-44264819D01*
X98974285Y-44264819D02*
X99212381Y-43264819D01*
X100117142Y-44264819D02*
X99545714Y-44264819D01*
X99831428Y-44264819D02*
X99831428Y-43264819D01*
X99831428Y-43264819D02*
X99736190Y-43407676D01*
X99736190Y-43407676D02*
X99640952Y-43502914D01*
X99640952Y-43502914D02*
X99545714Y-43550533D01*
X100736190Y-43264819D02*
X100831428Y-43264819D01*
X100831428Y-43264819D02*
X100926666Y-43312438D01*
X100926666Y-43312438D02*
X100974285Y-43360057D01*
X100974285Y-43360057D02*
X101021904Y-43455295D01*
X101021904Y-43455295D02*
X101069523Y-43645771D01*
X101069523Y-43645771D02*
X101069523Y-43883866D01*
X101069523Y-43883866D02*
X101021904Y-44074342D01*
X101021904Y-44074342D02*
X100974285Y-44169580D01*
X100974285Y-44169580D02*
X100926666Y-44217200D01*
X100926666Y-44217200D02*
X100831428Y-44264819D01*
X100831428Y-44264819D02*
X100736190Y-44264819D01*
X100736190Y-44264819D02*
X100640952Y-44217200D01*
X100640952Y-44217200D02*
X100593333Y-44169580D01*
X100593333Y-44169580D02*
X100545714Y-44074342D01*
X100545714Y-44074342D02*
X100498095Y-43883866D01*
X100498095Y-43883866D02*
X100498095Y-43645771D01*
X100498095Y-43645771D02*
X100545714Y-43455295D01*
X100545714Y-43455295D02*
X100593333Y-43360057D01*
X100593333Y-43360057D02*
X100640952Y-43312438D01*
X100640952Y-43312438D02*
X100736190Y-43264819D01*
X28517200Y-107386191D02*
X28564819Y-107243334D01*
X28564819Y-107243334D02*
X28564819Y-107005239D01*
X28564819Y-107005239D02*
X28517200Y-106910001D01*
X28517200Y-106910001D02*
X28469580Y-106862382D01*
X28469580Y-106862382D02*
X28374342Y-106814763D01*
X28374342Y-106814763D02*
X28279104Y-106814763D01*
X28279104Y-106814763D02*
X28183866Y-106862382D01*
X28183866Y-106862382D02*
X28136247Y-106910001D01*
X28136247Y-106910001D02*
X28088628Y-107005239D01*
X28088628Y-107005239D02*
X28041009Y-107195715D01*
X28041009Y-107195715D02*
X27993390Y-107290953D01*
X27993390Y-107290953D02*
X27945771Y-107338572D01*
X27945771Y-107338572D02*
X27850533Y-107386191D01*
X27850533Y-107386191D02*
X27755295Y-107386191D01*
X27755295Y-107386191D02*
X27660057Y-107338572D01*
X27660057Y-107338572D02*
X27612438Y-107290953D01*
X27612438Y-107290953D02*
X27564819Y-107195715D01*
X27564819Y-107195715D02*
X27564819Y-106957620D01*
X27564819Y-106957620D02*
X27612438Y-106814763D01*
X28564819Y-106243334D02*
X28517200Y-106338572D01*
X28517200Y-106338572D02*
X28469580Y-106386191D01*
X28469580Y-106386191D02*
X28374342Y-106433810D01*
X28374342Y-106433810D02*
X28088628Y-106433810D01*
X28088628Y-106433810D02*
X27993390Y-106386191D01*
X27993390Y-106386191D02*
X27945771Y-106338572D01*
X27945771Y-106338572D02*
X27898152Y-106243334D01*
X27898152Y-106243334D02*
X27898152Y-106100477D01*
X27898152Y-106100477D02*
X27945771Y-106005239D01*
X27945771Y-106005239D02*
X27993390Y-105957620D01*
X27993390Y-105957620D02*
X28088628Y-105910001D01*
X28088628Y-105910001D02*
X28374342Y-105910001D01*
X28374342Y-105910001D02*
X28469580Y-105957620D01*
X28469580Y-105957620D02*
X28517200Y-106005239D01*
X28517200Y-106005239D02*
X28564819Y-106100477D01*
X28564819Y-106100477D02*
X28564819Y-106243334D01*
X28564819Y-105338572D02*
X28517200Y-105433810D01*
X28517200Y-105433810D02*
X28421961Y-105481429D01*
X28421961Y-105481429D02*
X27564819Y-105481429D01*
X28564819Y-104529048D02*
X27564819Y-104529048D01*
X28517200Y-104529048D02*
X28564819Y-104624286D01*
X28564819Y-104624286D02*
X28564819Y-104814762D01*
X28564819Y-104814762D02*
X28517200Y-104910000D01*
X28517200Y-104910000D02*
X28469580Y-104957619D01*
X28469580Y-104957619D02*
X28374342Y-105005238D01*
X28374342Y-105005238D02*
X28088628Y-105005238D01*
X28088628Y-105005238D02*
X27993390Y-104957619D01*
X27993390Y-104957619D02*
X27945771Y-104910000D01*
X27945771Y-104910000D02*
X27898152Y-104814762D01*
X27898152Y-104814762D02*
X27898152Y-104624286D01*
X27898152Y-104624286D02*
X27945771Y-104529048D01*
X28517200Y-103671905D02*
X28564819Y-103767143D01*
X28564819Y-103767143D02*
X28564819Y-103957619D01*
X28564819Y-103957619D02*
X28517200Y-104052857D01*
X28517200Y-104052857D02*
X28421961Y-104100476D01*
X28421961Y-104100476D02*
X28041009Y-104100476D01*
X28041009Y-104100476D02*
X27945771Y-104052857D01*
X27945771Y-104052857D02*
X27898152Y-103957619D01*
X27898152Y-103957619D02*
X27898152Y-103767143D01*
X27898152Y-103767143D02*
X27945771Y-103671905D01*
X27945771Y-103671905D02*
X28041009Y-103624286D01*
X28041009Y-103624286D02*
X28136247Y-103624286D01*
X28136247Y-103624286D02*
X28231485Y-104100476D01*
X28564819Y-103195714D02*
X27898152Y-103195714D01*
X28088628Y-103195714D02*
X27993390Y-103148095D01*
X27993390Y-103148095D02*
X27945771Y-103100476D01*
X27945771Y-103100476D02*
X27898152Y-103005238D01*
X27898152Y-103005238D02*
X27898152Y-102910000D01*
X27564819Y-102290952D02*
X28279104Y-102290952D01*
X28279104Y-102290952D02*
X28421961Y-102338571D01*
X28421961Y-102338571D02*
X28517200Y-102433809D01*
X28517200Y-102433809D02*
X28564819Y-102576666D01*
X28564819Y-102576666D02*
X28564819Y-102671904D01*
X27898152Y-101386190D02*
X28564819Y-101386190D01*
X27898152Y-101814761D02*
X28421961Y-101814761D01*
X28421961Y-101814761D02*
X28517200Y-101767142D01*
X28517200Y-101767142D02*
X28564819Y-101671904D01*
X28564819Y-101671904D02*
X28564819Y-101529047D01*
X28564819Y-101529047D02*
X28517200Y-101433809D01*
X28517200Y-101433809D02*
X28469580Y-101386190D01*
X28564819Y-100909999D02*
X27898152Y-100909999D01*
X27993390Y-100909999D02*
X27945771Y-100862380D01*
X27945771Y-100862380D02*
X27898152Y-100767142D01*
X27898152Y-100767142D02*
X27898152Y-100624285D01*
X27898152Y-100624285D02*
X27945771Y-100529047D01*
X27945771Y-100529047D02*
X28041009Y-100481428D01*
X28041009Y-100481428D02*
X28564819Y-100481428D01*
X28041009Y-100481428D02*
X27945771Y-100433809D01*
X27945771Y-100433809D02*
X27898152Y-100338571D01*
X27898152Y-100338571D02*
X27898152Y-100195714D01*
X27898152Y-100195714D02*
X27945771Y-100100475D01*
X27945771Y-100100475D02*
X28041009Y-100052856D01*
X28041009Y-100052856D02*
X28564819Y-100052856D01*
X27898152Y-99576666D02*
X28898152Y-99576666D01*
X27945771Y-99576666D02*
X27898152Y-99481428D01*
X27898152Y-99481428D02*
X27898152Y-99290952D01*
X27898152Y-99290952D02*
X27945771Y-99195714D01*
X27945771Y-99195714D02*
X27993390Y-99148095D01*
X27993390Y-99148095D02*
X28088628Y-99100476D01*
X28088628Y-99100476D02*
X28374342Y-99100476D01*
X28374342Y-99100476D02*
X28469580Y-99148095D01*
X28469580Y-99148095D02*
X28517200Y-99195714D01*
X28517200Y-99195714D02*
X28564819Y-99290952D01*
X28564819Y-99290952D02*
X28564819Y-99481428D01*
X28564819Y-99481428D02*
X28517200Y-99576666D01*
X28517200Y-98290952D02*
X28564819Y-98386190D01*
X28564819Y-98386190D02*
X28564819Y-98576666D01*
X28564819Y-98576666D02*
X28517200Y-98671904D01*
X28517200Y-98671904D02*
X28421961Y-98719523D01*
X28421961Y-98719523D02*
X28041009Y-98719523D01*
X28041009Y-98719523D02*
X27945771Y-98671904D01*
X27945771Y-98671904D02*
X27898152Y-98576666D01*
X27898152Y-98576666D02*
X27898152Y-98386190D01*
X27898152Y-98386190D02*
X27945771Y-98290952D01*
X27945771Y-98290952D02*
X28041009Y-98243333D01*
X28041009Y-98243333D02*
X28136247Y-98243333D01*
X28136247Y-98243333D02*
X28231485Y-98719523D01*
X28564819Y-97814761D02*
X27898152Y-97814761D01*
X28088628Y-97814761D02*
X27993390Y-97767142D01*
X27993390Y-97767142D02*
X27945771Y-97719523D01*
X27945771Y-97719523D02*
X27898152Y-97624285D01*
X27898152Y-97624285D02*
X27898152Y-97529047D01*
X28660057Y-97433809D02*
X28660057Y-96671904D01*
X27660057Y-96481427D02*
X27612438Y-96433808D01*
X27612438Y-96433808D02*
X27564819Y-96338570D01*
X27564819Y-96338570D02*
X27564819Y-96100475D01*
X27564819Y-96100475D02*
X27612438Y-96005237D01*
X27612438Y-96005237D02*
X27660057Y-95957618D01*
X27660057Y-95957618D02*
X27755295Y-95909999D01*
X27755295Y-95909999D02*
X27850533Y-95909999D01*
X27850533Y-95909999D02*
X27993390Y-95957618D01*
X27993390Y-95957618D02*
X28564819Y-96529046D01*
X28564819Y-96529046D02*
X28564819Y-95909999D01*
X28660057Y-95719523D02*
X28660057Y-94957618D01*
X27564819Y-94529046D02*
X27564819Y-94338570D01*
X27564819Y-94338570D02*
X27612438Y-94243332D01*
X27612438Y-94243332D02*
X27707676Y-94148094D01*
X27707676Y-94148094D02*
X27898152Y-94100475D01*
X27898152Y-94100475D02*
X28231485Y-94100475D01*
X28231485Y-94100475D02*
X28421961Y-94148094D01*
X28421961Y-94148094D02*
X28517200Y-94243332D01*
X28517200Y-94243332D02*
X28564819Y-94338570D01*
X28564819Y-94338570D02*
X28564819Y-94529046D01*
X28564819Y-94529046D02*
X28517200Y-94624284D01*
X28517200Y-94624284D02*
X28421961Y-94719522D01*
X28421961Y-94719522D02*
X28231485Y-94767141D01*
X28231485Y-94767141D02*
X27898152Y-94767141D01*
X27898152Y-94767141D02*
X27707676Y-94719522D01*
X27707676Y-94719522D02*
X27612438Y-94624284D01*
X27612438Y-94624284D02*
X27564819Y-94529046D01*
X27898152Y-93671903D02*
X28898152Y-93671903D01*
X27945771Y-93671903D02*
X27898152Y-93576665D01*
X27898152Y-93576665D02*
X27898152Y-93386189D01*
X27898152Y-93386189D02*
X27945771Y-93290951D01*
X27945771Y-93290951D02*
X27993390Y-93243332D01*
X27993390Y-93243332D02*
X28088628Y-93195713D01*
X28088628Y-93195713D02*
X28374342Y-93195713D01*
X28374342Y-93195713D02*
X28469580Y-93243332D01*
X28469580Y-93243332D02*
X28517200Y-93290951D01*
X28517200Y-93290951D02*
X28564819Y-93386189D01*
X28564819Y-93386189D02*
X28564819Y-93576665D01*
X28564819Y-93576665D02*
X28517200Y-93671903D01*
X28517200Y-92386189D02*
X28564819Y-92481427D01*
X28564819Y-92481427D02*
X28564819Y-92671903D01*
X28564819Y-92671903D02*
X28517200Y-92767141D01*
X28517200Y-92767141D02*
X28421961Y-92814760D01*
X28421961Y-92814760D02*
X28041009Y-92814760D01*
X28041009Y-92814760D02*
X27945771Y-92767141D01*
X27945771Y-92767141D02*
X27898152Y-92671903D01*
X27898152Y-92671903D02*
X27898152Y-92481427D01*
X27898152Y-92481427D02*
X27945771Y-92386189D01*
X27945771Y-92386189D02*
X28041009Y-92338570D01*
X28041009Y-92338570D02*
X28136247Y-92338570D01*
X28136247Y-92338570D02*
X28231485Y-92814760D01*
X27898152Y-91909998D02*
X28564819Y-91909998D01*
X27993390Y-91909998D02*
X27945771Y-91862379D01*
X27945771Y-91862379D02*
X27898152Y-91767141D01*
X27898152Y-91767141D02*
X27898152Y-91624284D01*
X27898152Y-91624284D02*
X27945771Y-91529046D01*
X27945771Y-91529046D02*
X28041009Y-91481427D01*
X28041009Y-91481427D02*
X28564819Y-91481427D01*
X40926671Y-21217208D02*
X41069528Y-21264827D01*
X41069528Y-21264827D02*
X41307623Y-21264827D01*
X41307623Y-21264827D02*
X41402861Y-21217208D01*
X41402861Y-21217208D02*
X41450480Y-21169588D01*
X41450480Y-21169588D02*
X41498099Y-21074350D01*
X41498099Y-21074350D02*
X41498099Y-20979112D01*
X41498099Y-20979112D02*
X41450480Y-20883874D01*
X41450480Y-20883874D02*
X41402861Y-20836255D01*
X41402861Y-20836255D02*
X41307623Y-20788636D01*
X41307623Y-20788636D02*
X41117147Y-20741017D01*
X41117147Y-20741017D02*
X41021909Y-20693398D01*
X41021909Y-20693398D02*
X40974290Y-20645779D01*
X40974290Y-20645779D02*
X40926671Y-20550541D01*
X40926671Y-20550541D02*
X40926671Y-20455303D01*
X40926671Y-20455303D02*
X40974290Y-20360065D01*
X40974290Y-20360065D02*
X41021909Y-20312446D01*
X41021909Y-20312446D02*
X41117147Y-20264827D01*
X41117147Y-20264827D02*
X41355242Y-20264827D01*
X41355242Y-20264827D02*
X41498099Y-20312446D01*
X41831433Y-20264827D02*
X42069528Y-21264827D01*
X42069528Y-21264827D02*
X42260004Y-20550541D01*
X42260004Y-20550541D02*
X42450480Y-21264827D01*
X42450480Y-21264827D02*
X42688576Y-20264827D01*
X43021909Y-20360065D02*
X43069528Y-20312446D01*
X43069528Y-20312446D02*
X43164766Y-20264827D01*
X43164766Y-20264827D02*
X43402861Y-20264827D01*
X43402861Y-20264827D02*
X43498099Y-20312446D01*
X43498099Y-20312446D02*
X43545718Y-20360065D01*
X43545718Y-20360065D02*
X43593337Y-20455303D01*
X43593337Y-20455303D02*
X43593337Y-20550541D01*
X43593337Y-20550541D02*
X43545718Y-20693398D01*
X43545718Y-20693398D02*
X42974290Y-21264827D01*
X42974290Y-21264827D02*
X43593337Y-21264827D01*
X63374819Y-73595238D02*
X63374819Y-74166666D01*
X63374819Y-73880952D02*
X62374819Y-73880952D01*
X62374819Y-73880952D02*
X62517676Y-73976190D01*
X62517676Y-73976190D02*
X62612914Y-74071428D01*
X62612914Y-74071428D02*
X62660533Y-74166666D01*
X62708152Y-72738095D02*
X63374819Y-72738095D01*
X62708152Y-73166666D02*
X63231961Y-73166666D01*
X63231961Y-73166666D02*
X63327200Y-73119047D01*
X63327200Y-73119047D02*
X63374819Y-73023809D01*
X63374819Y-73023809D02*
X63374819Y-72880952D01*
X63374819Y-72880952D02*
X63327200Y-72785714D01*
X63327200Y-72785714D02*
X63279580Y-72738095D01*
X62851009Y-71928571D02*
X62851009Y-72261904D01*
X63374819Y-72261904D02*
X62374819Y-72261904D01*
X62374819Y-72261904D02*
X62374819Y-71785714D01*
D11*
X64779530Y-73321428D02*
X64803340Y-73345237D01*
X64803340Y-73345237D02*
X64827149Y-73416666D01*
X64827149Y-73416666D02*
X64827149Y-73464285D01*
X64827149Y-73464285D02*
X64803340Y-73535713D01*
X64803340Y-73535713D02*
X64755720Y-73583332D01*
X64755720Y-73583332D02*
X64708101Y-73607142D01*
X64708101Y-73607142D02*
X64612863Y-73630951D01*
X64612863Y-73630951D02*
X64541435Y-73630951D01*
X64541435Y-73630951D02*
X64446197Y-73607142D01*
X64446197Y-73607142D02*
X64398578Y-73583332D01*
X64398578Y-73583332D02*
X64350959Y-73535713D01*
X64350959Y-73535713D02*
X64327149Y-73464285D01*
X64327149Y-73464285D02*
X64327149Y-73416666D01*
X64327149Y-73416666D02*
X64350959Y-73345237D01*
X64350959Y-73345237D02*
X64374768Y-73321428D01*
X64374768Y-73130951D02*
X64350959Y-73107142D01*
X64350959Y-73107142D02*
X64327149Y-73059523D01*
X64327149Y-73059523D02*
X64327149Y-72940475D01*
X64327149Y-72940475D02*
X64350959Y-72892856D01*
X64350959Y-72892856D02*
X64374768Y-72869047D01*
X64374768Y-72869047D02*
X64422387Y-72845237D01*
X64422387Y-72845237D02*
X64470006Y-72845237D01*
X64470006Y-72845237D02*
X64541435Y-72869047D01*
X64541435Y-72869047D02*
X64827149Y-73154761D01*
X64827149Y-73154761D02*
X64827149Y-72845237D01*
X64327149Y-72535714D02*
X64327149Y-72488095D01*
X64327149Y-72488095D02*
X64350959Y-72440476D01*
X64350959Y-72440476D02*
X64374768Y-72416666D01*
X64374768Y-72416666D02*
X64422387Y-72392857D01*
X64422387Y-72392857D02*
X64517625Y-72369047D01*
X64517625Y-72369047D02*
X64636673Y-72369047D01*
X64636673Y-72369047D02*
X64731911Y-72392857D01*
X64731911Y-72392857D02*
X64779530Y-72416666D01*
X64779530Y-72416666D02*
X64803340Y-72440476D01*
X64803340Y-72440476D02*
X64827149Y-72488095D01*
X64827149Y-72488095D02*
X64827149Y-72535714D01*
X64827149Y-72535714D02*
X64803340Y-72583333D01*
X64803340Y-72583333D02*
X64779530Y-72607142D01*
X64779530Y-72607142D02*
X64731911Y-72630952D01*
X64731911Y-72630952D02*
X64636673Y-72654761D01*
X64636673Y-72654761D02*
X64517625Y-72654761D01*
X64517625Y-72654761D02*
X64422387Y-72630952D01*
X64422387Y-72630952D02*
X64374768Y-72607142D01*
X64374768Y-72607142D02*
X64350959Y-72583333D01*
X64350959Y-72583333D02*
X64327149Y-72535714D01*
D10*
X61404761Y-47634819D02*
X60833333Y-47634819D01*
X61119047Y-47634819D02*
X61119047Y-46634819D01*
X61119047Y-46634819D02*
X61023809Y-46777676D01*
X61023809Y-46777676D02*
X60928571Y-46872914D01*
X60928571Y-46872914D02*
X60833333Y-46920533D01*
X62261904Y-46968152D02*
X62261904Y-47634819D01*
X61833333Y-46968152D02*
X61833333Y-47491961D01*
X61833333Y-47491961D02*
X61880952Y-47587200D01*
X61880952Y-47587200D02*
X61976190Y-47634819D01*
X61976190Y-47634819D02*
X62119047Y-47634819D01*
X62119047Y-47634819D02*
X62214285Y-47587200D01*
X62214285Y-47587200D02*
X62261904Y-47539580D01*
X63071428Y-47111009D02*
X62738095Y-47111009D01*
X62738095Y-47634819D02*
X62738095Y-46634819D01*
X62738095Y-46634819D02*
X63214285Y-46634819D01*
D11*
X61916666Y-45679530D02*
X61892857Y-45703340D01*
X61892857Y-45703340D02*
X61821428Y-45727149D01*
X61821428Y-45727149D02*
X61773809Y-45727149D01*
X61773809Y-45727149D02*
X61702381Y-45703340D01*
X61702381Y-45703340D02*
X61654762Y-45655720D01*
X61654762Y-45655720D02*
X61630952Y-45608101D01*
X61630952Y-45608101D02*
X61607143Y-45512863D01*
X61607143Y-45512863D02*
X61607143Y-45441435D01*
X61607143Y-45441435D02*
X61630952Y-45346197D01*
X61630952Y-45346197D02*
X61654762Y-45298578D01*
X61654762Y-45298578D02*
X61702381Y-45250959D01*
X61702381Y-45250959D02*
X61773809Y-45227149D01*
X61773809Y-45227149D02*
X61821428Y-45227149D01*
X61821428Y-45227149D02*
X61892857Y-45250959D01*
X61892857Y-45250959D02*
X61916666Y-45274768D01*
X62202381Y-45441435D02*
X62154762Y-45417625D01*
X62154762Y-45417625D02*
X62130952Y-45393816D01*
X62130952Y-45393816D02*
X62107143Y-45346197D01*
X62107143Y-45346197D02*
X62107143Y-45322387D01*
X62107143Y-45322387D02*
X62130952Y-45274768D01*
X62130952Y-45274768D02*
X62154762Y-45250959D01*
X62154762Y-45250959D02*
X62202381Y-45227149D01*
X62202381Y-45227149D02*
X62297619Y-45227149D01*
X62297619Y-45227149D02*
X62345238Y-45250959D01*
X62345238Y-45250959D02*
X62369047Y-45274768D01*
X62369047Y-45274768D02*
X62392857Y-45322387D01*
X62392857Y-45322387D02*
X62392857Y-45346197D01*
X62392857Y-45346197D02*
X62369047Y-45393816D01*
X62369047Y-45393816D02*
X62345238Y-45417625D01*
X62345238Y-45417625D02*
X62297619Y-45441435D01*
X62297619Y-45441435D02*
X62202381Y-45441435D01*
X62202381Y-45441435D02*
X62154762Y-45465244D01*
X62154762Y-45465244D02*
X62130952Y-45489054D01*
X62130952Y-45489054D02*
X62107143Y-45536673D01*
X62107143Y-45536673D02*
X62107143Y-45631911D01*
X62107143Y-45631911D02*
X62130952Y-45679530D01*
X62130952Y-45679530D02*
X62154762Y-45703340D01*
X62154762Y-45703340D02*
X62202381Y-45727149D01*
X62202381Y-45727149D02*
X62297619Y-45727149D01*
X62297619Y-45727149D02*
X62345238Y-45703340D01*
X62345238Y-45703340D02*
X62369047Y-45679530D01*
X62369047Y-45679530D02*
X62392857Y-45631911D01*
X62392857Y-45631911D02*
X62392857Y-45536673D01*
X62392857Y-45536673D02*
X62369047Y-45489054D01*
X62369047Y-45489054D02*
X62345238Y-45465244D01*
X62345238Y-45465244D02*
X62297619Y-45441435D01*
D10*
X92179819Y-82513093D02*
X92179819Y-81846427D01*
X92179819Y-81846427D02*
X93179819Y-82274998D01*
X92513152Y-81036903D02*
X93179819Y-81036903D01*
X92132200Y-81274998D02*
X92846485Y-81513093D01*
X92846485Y-81513093D02*
X92846485Y-80894046D01*
X93179819Y-80513093D02*
X92179819Y-80513093D01*
X92656009Y-80513093D02*
X92656009Y-79941665D01*
X93179819Y-79941665D02*
X92179819Y-79941665D01*
X93084580Y-78894046D02*
X93132200Y-78941665D01*
X93132200Y-78941665D02*
X93179819Y-79084522D01*
X93179819Y-79084522D02*
X93179819Y-79179760D01*
X93179819Y-79179760D02*
X93132200Y-79322617D01*
X93132200Y-79322617D02*
X93036961Y-79417855D01*
X93036961Y-79417855D02*
X92941723Y-79465474D01*
X92941723Y-79465474D02*
X92751247Y-79513093D01*
X92751247Y-79513093D02*
X92608390Y-79513093D01*
X92608390Y-79513093D02*
X92417914Y-79465474D01*
X92417914Y-79465474D02*
X92322676Y-79417855D01*
X92322676Y-79417855D02*
X92227438Y-79322617D01*
X92227438Y-79322617D02*
X92179819Y-79179760D01*
X92179819Y-79179760D02*
X92179819Y-79084522D01*
X92179819Y-79084522D02*
X92227438Y-78941665D01*
X92227438Y-78941665D02*
X92275057Y-78894046D01*
X92513152Y-78036903D02*
X93179819Y-78036903D01*
X92132200Y-78274998D02*
X92846485Y-78513093D01*
X92846485Y-78513093D02*
X92846485Y-77894046D01*
X92179819Y-77322617D02*
X92179819Y-77227379D01*
X92179819Y-77227379D02*
X92227438Y-77132141D01*
X92227438Y-77132141D02*
X92275057Y-77084522D01*
X92275057Y-77084522D02*
X92370295Y-77036903D01*
X92370295Y-77036903D02*
X92560771Y-76989284D01*
X92560771Y-76989284D02*
X92798866Y-76989284D01*
X92798866Y-76989284D02*
X92989342Y-77036903D01*
X92989342Y-77036903D02*
X93084580Y-77084522D01*
X93084580Y-77084522D02*
X93132200Y-77132141D01*
X93132200Y-77132141D02*
X93179819Y-77227379D01*
X93179819Y-77227379D02*
X93179819Y-77322617D01*
X93179819Y-77322617D02*
X93132200Y-77417855D01*
X93132200Y-77417855D02*
X93084580Y-77465474D01*
X93084580Y-77465474D02*
X92989342Y-77513093D01*
X92989342Y-77513093D02*
X92798866Y-77560712D01*
X92798866Y-77560712D02*
X92560771Y-77560712D01*
X92560771Y-77560712D02*
X92370295Y-77513093D01*
X92370295Y-77513093D02*
X92275057Y-77465474D01*
X92275057Y-77465474D02*
X92227438Y-77417855D01*
X92227438Y-77417855D02*
X92179819Y-77322617D01*
X92179819Y-76084522D02*
X92179819Y-76560712D01*
X92179819Y-76560712D02*
X92656009Y-76608331D01*
X92656009Y-76608331D02*
X92608390Y-76560712D01*
X92608390Y-76560712D02*
X92560771Y-76465474D01*
X92560771Y-76465474D02*
X92560771Y-76227379D01*
X92560771Y-76227379D02*
X92608390Y-76132141D01*
X92608390Y-76132141D02*
X92656009Y-76084522D01*
X92656009Y-76084522D02*
X92751247Y-76036903D01*
X92751247Y-76036903D02*
X92989342Y-76036903D01*
X92989342Y-76036903D02*
X93084580Y-76084522D01*
X93084580Y-76084522D02*
X93132200Y-76132141D01*
X93132200Y-76132141D02*
X93179819Y-76227379D01*
X93179819Y-76227379D02*
X93179819Y-76465474D01*
X93179819Y-76465474D02*
X93132200Y-76560712D01*
X93132200Y-76560712D02*
X93084580Y-76608331D01*
X93179819Y-75084522D02*
X93179819Y-75655950D01*
X93179819Y-75370236D02*
X92179819Y-75370236D01*
X92179819Y-75370236D02*
X92322676Y-75465474D01*
X92322676Y-75465474D02*
X92417914Y-75560712D01*
X92417914Y-75560712D02*
X92465533Y-75655950D01*
X86290565Y-79521666D02*
X87083899Y-79521666D01*
X87083899Y-79521666D02*
X87177232Y-79475000D01*
X87177232Y-79475000D02*
X87223899Y-79428333D01*
X87223899Y-79428333D02*
X87270565Y-79335000D01*
X87270565Y-79335000D02*
X87270565Y-79148333D01*
X87270565Y-79148333D02*
X87223899Y-79055000D01*
X87223899Y-79055000D02*
X87177232Y-79008333D01*
X87177232Y-79008333D02*
X87083899Y-78961666D01*
X87083899Y-78961666D02*
X86290565Y-78961666D01*
X86290565Y-78588333D02*
X86290565Y-77981666D01*
X86290565Y-77981666D02*
X86663899Y-78308333D01*
X86663899Y-78308333D02*
X86663899Y-78168333D01*
X86663899Y-78168333D02*
X86710565Y-78074999D01*
X86710565Y-78074999D02*
X86757232Y-78028333D01*
X86757232Y-78028333D02*
X86850565Y-77981666D01*
X86850565Y-77981666D02*
X87083899Y-77981666D01*
X87083899Y-77981666D02*
X87177232Y-78028333D01*
X87177232Y-78028333D02*
X87223899Y-78074999D01*
X87223899Y-78074999D02*
X87270565Y-78168333D01*
X87270565Y-78168333D02*
X87270565Y-78448333D01*
X87270565Y-78448333D02*
X87223899Y-78541666D01*
X87223899Y-78541666D02*
X87177232Y-78588333D01*
X59450480Y-56217208D02*
X59593337Y-56264827D01*
X59593337Y-56264827D02*
X59831432Y-56264827D01*
X59831432Y-56264827D02*
X59926670Y-56217208D01*
X59926670Y-56217208D02*
X59974289Y-56169588D01*
X59974289Y-56169588D02*
X60021908Y-56074350D01*
X60021908Y-56074350D02*
X60021908Y-55979112D01*
X60021908Y-55979112D02*
X59974289Y-55883874D01*
X59974289Y-55883874D02*
X59926670Y-55836255D01*
X59926670Y-55836255D02*
X59831432Y-55788636D01*
X59831432Y-55788636D02*
X59640956Y-55741017D01*
X59640956Y-55741017D02*
X59545718Y-55693398D01*
X59545718Y-55693398D02*
X59498099Y-55645779D01*
X59498099Y-55645779D02*
X59450480Y-55550541D01*
X59450480Y-55550541D02*
X59450480Y-55455303D01*
X59450480Y-55455303D02*
X59498099Y-55360065D01*
X59498099Y-55360065D02*
X59545718Y-55312446D01*
X59545718Y-55312446D02*
X59640956Y-55264827D01*
X59640956Y-55264827D02*
X59879051Y-55264827D01*
X59879051Y-55264827D02*
X60021908Y-55312446D01*
X60355242Y-55264827D02*
X60593337Y-56264827D01*
X60593337Y-56264827D02*
X60783813Y-55550541D01*
X60783813Y-55550541D02*
X60974289Y-56264827D01*
X60974289Y-56264827D02*
X61212385Y-55264827D01*
X62117146Y-56264827D02*
X61545718Y-56264827D01*
X61831432Y-56264827D02*
X61831432Y-55264827D01*
X61831432Y-55264827D02*
X61736194Y-55407684D01*
X61736194Y-55407684D02*
X61640956Y-55502922D01*
X61640956Y-55502922D02*
X61545718Y-55550541D01*
X62450480Y-55264827D02*
X63069527Y-55264827D01*
X63069527Y-55264827D02*
X62736194Y-55645779D01*
X62736194Y-55645779D02*
X62879051Y-55645779D01*
X62879051Y-55645779D02*
X62974289Y-55693398D01*
X62974289Y-55693398D02*
X63021908Y-55741017D01*
X63021908Y-55741017D02*
X63069527Y-55836255D01*
X63069527Y-55836255D02*
X63069527Y-56074350D01*
X63069527Y-56074350D02*
X63021908Y-56169588D01*
X63021908Y-56169588D02*
X62974289Y-56217208D01*
X62974289Y-56217208D02*
X62879051Y-56264827D01*
X62879051Y-56264827D02*
X62593337Y-56264827D01*
X62593337Y-56264827D02*
X62498099Y-56217208D01*
X62498099Y-56217208D02*
X62450480Y-56169588D01*
X97767200Y-97386191D02*
X97814819Y-97243334D01*
X97814819Y-97243334D02*
X97814819Y-97005239D01*
X97814819Y-97005239D02*
X97767200Y-96910001D01*
X97767200Y-96910001D02*
X97719580Y-96862382D01*
X97719580Y-96862382D02*
X97624342Y-96814763D01*
X97624342Y-96814763D02*
X97529104Y-96814763D01*
X97529104Y-96814763D02*
X97433866Y-96862382D01*
X97433866Y-96862382D02*
X97386247Y-96910001D01*
X97386247Y-96910001D02*
X97338628Y-97005239D01*
X97338628Y-97005239D02*
X97291009Y-97195715D01*
X97291009Y-97195715D02*
X97243390Y-97290953D01*
X97243390Y-97290953D02*
X97195771Y-97338572D01*
X97195771Y-97338572D02*
X97100533Y-97386191D01*
X97100533Y-97386191D02*
X97005295Y-97386191D01*
X97005295Y-97386191D02*
X96910057Y-97338572D01*
X96910057Y-97338572D02*
X96862438Y-97290953D01*
X96862438Y-97290953D02*
X96814819Y-97195715D01*
X96814819Y-97195715D02*
X96814819Y-96957620D01*
X96814819Y-96957620D02*
X96862438Y-96814763D01*
X97814819Y-96243334D02*
X97767200Y-96338572D01*
X97767200Y-96338572D02*
X97719580Y-96386191D01*
X97719580Y-96386191D02*
X97624342Y-96433810D01*
X97624342Y-96433810D02*
X97338628Y-96433810D01*
X97338628Y-96433810D02*
X97243390Y-96386191D01*
X97243390Y-96386191D02*
X97195771Y-96338572D01*
X97195771Y-96338572D02*
X97148152Y-96243334D01*
X97148152Y-96243334D02*
X97148152Y-96100477D01*
X97148152Y-96100477D02*
X97195771Y-96005239D01*
X97195771Y-96005239D02*
X97243390Y-95957620D01*
X97243390Y-95957620D02*
X97338628Y-95910001D01*
X97338628Y-95910001D02*
X97624342Y-95910001D01*
X97624342Y-95910001D02*
X97719580Y-95957620D01*
X97719580Y-95957620D02*
X97767200Y-96005239D01*
X97767200Y-96005239D02*
X97814819Y-96100477D01*
X97814819Y-96100477D02*
X97814819Y-96243334D01*
X97814819Y-95338572D02*
X97767200Y-95433810D01*
X97767200Y-95433810D02*
X97671961Y-95481429D01*
X97671961Y-95481429D02*
X96814819Y-95481429D01*
X97814819Y-94529048D02*
X96814819Y-94529048D01*
X97767200Y-94529048D02*
X97814819Y-94624286D01*
X97814819Y-94624286D02*
X97814819Y-94814762D01*
X97814819Y-94814762D02*
X97767200Y-94910000D01*
X97767200Y-94910000D02*
X97719580Y-94957619D01*
X97719580Y-94957619D02*
X97624342Y-95005238D01*
X97624342Y-95005238D02*
X97338628Y-95005238D01*
X97338628Y-95005238D02*
X97243390Y-94957619D01*
X97243390Y-94957619D02*
X97195771Y-94910000D01*
X97195771Y-94910000D02*
X97148152Y-94814762D01*
X97148152Y-94814762D02*
X97148152Y-94624286D01*
X97148152Y-94624286D02*
X97195771Y-94529048D01*
X97767200Y-93671905D02*
X97814819Y-93767143D01*
X97814819Y-93767143D02*
X97814819Y-93957619D01*
X97814819Y-93957619D02*
X97767200Y-94052857D01*
X97767200Y-94052857D02*
X97671961Y-94100476D01*
X97671961Y-94100476D02*
X97291009Y-94100476D01*
X97291009Y-94100476D02*
X97195771Y-94052857D01*
X97195771Y-94052857D02*
X97148152Y-93957619D01*
X97148152Y-93957619D02*
X97148152Y-93767143D01*
X97148152Y-93767143D02*
X97195771Y-93671905D01*
X97195771Y-93671905D02*
X97291009Y-93624286D01*
X97291009Y-93624286D02*
X97386247Y-93624286D01*
X97386247Y-93624286D02*
X97481485Y-94100476D01*
X97814819Y-93195714D02*
X97148152Y-93195714D01*
X97338628Y-93195714D02*
X97243390Y-93148095D01*
X97243390Y-93148095D02*
X97195771Y-93100476D01*
X97195771Y-93100476D02*
X97148152Y-93005238D01*
X97148152Y-93005238D02*
X97148152Y-92910000D01*
X96814819Y-92290952D02*
X97529104Y-92290952D01*
X97529104Y-92290952D02*
X97671961Y-92338571D01*
X97671961Y-92338571D02*
X97767200Y-92433809D01*
X97767200Y-92433809D02*
X97814819Y-92576666D01*
X97814819Y-92576666D02*
X97814819Y-92671904D01*
X97148152Y-91386190D02*
X97814819Y-91386190D01*
X97148152Y-91814761D02*
X97671961Y-91814761D01*
X97671961Y-91814761D02*
X97767200Y-91767142D01*
X97767200Y-91767142D02*
X97814819Y-91671904D01*
X97814819Y-91671904D02*
X97814819Y-91529047D01*
X97814819Y-91529047D02*
X97767200Y-91433809D01*
X97767200Y-91433809D02*
X97719580Y-91386190D01*
X97814819Y-90909999D02*
X97148152Y-90909999D01*
X97243390Y-90909999D02*
X97195771Y-90862380D01*
X97195771Y-90862380D02*
X97148152Y-90767142D01*
X97148152Y-90767142D02*
X97148152Y-90624285D01*
X97148152Y-90624285D02*
X97195771Y-90529047D01*
X97195771Y-90529047D02*
X97291009Y-90481428D01*
X97291009Y-90481428D02*
X97814819Y-90481428D01*
X97291009Y-90481428D02*
X97195771Y-90433809D01*
X97195771Y-90433809D02*
X97148152Y-90338571D01*
X97148152Y-90338571D02*
X97148152Y-90195714D01*
X97148152Y-90195714D02*
X97195771Y-90100475D01*
X97195771Y-90100475D02*
X97291009Y-90052856D01*
X97291009Y-90052856D02*
X97814819Y-90052856D01*
X97148152Y-89576666D02*
X98148152Y-89576666D01*
X97195771Y-89576666D02*
X97148152Y-89481428D01*
X97148152Y-89481428D02*
X97148152Y-89290952D01*
X97148152Y-89290952D02*
X97195771Y-89195714D01*
X97195771Y-89195714D02*
X97243390Y-89148095D01*
X97243390Y-89148095D02*
X97338628Y-89100476D01*
X97338628Y-89100476D02*
X97624342Y-89100476D01*
X97624342Y-89100476D02*
X97719580Y-89148095D01*
X97719580Y-89148095D02*
X97767200Y-89195714D01*
X97767200Y-89195714D02*
X97814819Y-89290952D01*
X97814819Y-89290952D02*
X97814819Y-89481428D01*
X97814819Y-89481428D02*
X97767200Y-89576666D01*
X97767200Y-88290952D02*
X97814819Y-88386190D01*
X97814819Y-88386190D02*
X97814819Y-88576666D01*
X97814819Y-88576666D02*
X97767200Y-88671904D01*
X97767200Y-88671904D02*
X97671961Y-88719523D01*
X97671961Y-88719523D02*
X97291009Y-88719523D01*
X97291009Y-88719523D02*
X97195771Y-88671904D01*
X97195771Y-88671904D02*
X97148152Y-88576666D01*
X97148152Y-88576666D02*
X97148152Y-88386190D01*
X97148152Y-88386190D02*
X97195771Y-88290952D01*
X97195771Y-88290952D02*
X97291009Y-88243333D01*
X97291009Y-88243333D02*
X97386247Y-88243333D01*
X97386247Y-88243333D02*
X97481485Y-88719523D01*
X97814819Y-87814761D02*
X97148152Y-87814761D01*
X97338628Y-87814761D02*
X97243390Y-87767142D01*
X97243390Y-87767142D02*
X97195771Y-87719523D01*
X97195771Y-87719523D02*
X97148152Y-87624285D01*
X97148152Y-87624285D02*
X97148152Y-87529047D01*
X97910057Y-87433809D02*
X97910057Y-86671904D01*
X96910057Y-86481427D02*
X96862438Y-86433808D01*
X96862438Y-86433808D02*
X96814819Y-86338570D01*
X96814819Y-86338570D02*
X96814819Y-86100475D01*
X96814819Y-86100475D02*
X96862438Y-86005237D01*
X96862438Y-86005237D02*
X96910057Y-85957618D01*
X96910057Y-85957618D02*
X97005295Y-85909999D01*
X97005295Y-85909999D02*
X97100533Y-85909999D01*
X97100533Y-85909999D02*
X97243390Y-85957618D01*
X97243390Y-85957618D02*
X97814819Y-86529046D01*
X97814819Y-86529046D02*
X97814819Y-85909999D01*
X97910057Y-85719523D02*
X97910057Y-84957618D01*
X96814819Y-84529046D02*
X96814819Y-84338570D01*
X96814819Y-84338570D02*
X96862438Y-84243332D01*
X96862438Y-84243332D02*
X96957676Y-84148094D01*
X96957676Y-84148094D02*
X97148152Y-84100475D01*
X97148152Y-84100475D02*
X97481485Y-84100475D01*
X97481485Y-84100475D02*
X97671961Y-84148094D01*
X97671961Y-84148094D02*
X97767200Y-84243332D01*
X97767200Y-84243332D02*
X97814819Y-84338570D01*
X97814819Y-84338570D02*
X97814819Y-84529046D01*
X97814819Y-84529046D02*
X97767200Y-84624284D01*
X97767200Y-84624284D02*
X97671961Y-84719522D01*
X97671961Y-84719522D02*
X97481485Y-84767141D01*
X97481485Y-84767141D02*
X97148152Y-84767141D01*
X97148152Y-84767141D02*
X96957676Y-84719522D01*
X96957676Y-84719522D02*
X96862438Y-84624284D01*
X96862438Y-84624284D02*
X96814819Y-84529046D01*
X97148152Y-83671903D02*
X98148152Y-83671903D01*
X97195771Y-83671903D02*
X97148152Y-83576665D01*
X97148152Y-83576665D02*
X97148152Y-83386189D01*
X97148152Y-83386189D02*
X97195771Y-83290951D01*
X97195771Y-83290951D02*
X97243390Y-83243332D01*
X97243390Y-83243332D02*
X97338628Y-83195713D01*
X97338628Y-83195713D02*
X97624342Y-83195713D01*
X97624342Y-83195713D02*
X97719580Y-83243332D01*
X97719580Y-83243332D02*
X97767200Y-83290951D01*
X97767200Y-83290951D02*
X97814819Y-83386189D01*
X97814819Y-83386189D02*
X97814819Y-83576665D01*
X97814819Y-83576665D02*
X97767200Y-83671903D01*
X97767200Y-82386189D02*
X97814819Y-82481427D01*
X97814819Y-82481427D02*
X97814819Y-82671903D01*
X97814819Y-82671903D02*
X97767200Y-82767141D01*
X97767200Y-82767141D02*
X97671961Y-82814760D01*
X97671961Y-82814760D02*
X97291009Y-82814760D01*
X97291009Y-82814760D02*
X97195771Y-82767141D01*
X97195771Y-82767141D02*
X97148152Y-82671903D01*
X97148152Y-82671903D02*
X97148152Y-82481427D01*
X97148152Y-82481427D02*
X97195771Y-82386189D01*
X97195771Y-82386189D02*
X97291009Y-82338570D01*
X97291009Y-82338570D02*
X97386247Y-82338570D01*
X97386247Y-82338570D02*
X97481485Y-82814760D01*
X97148152Y-81909998D02*
X97814819Y-81909998D01*
X97243390Y-81909998D02*
X97195771Y-81862379D01*
X97195771Y-81862379D02*
X97148152Y-81767141D01*
X97148152Y-81767141D02*
X97148152Y-81624284D01*
X97148152Y-81624284D02*
X97195771Y-81529046D01*
X97195771Y-81529046D02*
X97291009Y-81481427D01*
X97291009Y-81481427D02*
X97814819Y-81481427D01*
X99404761Y-35634819D02*
X98833333Y-35634819D01*
X99119047Y-35634819D02*
X99119047Y-34634819D01*
X99119047Y-34634819D02*
X99023809Y-34777676D01*
X99023809Y-34777676D02*
X98928571Y-34872914D01*
X98928571Y-34872914D02*
X98833333Y-34920533D01*
X100261904Y-34968152D02*
X100261904Y-35634819D01*
X99833333Y-34968152D02*
X99833333Y-35491961D01*
X99833333Y-35491961D02*
X99880952Y-35587200D01*
X99880952Y-35587200D02*
X99976190Y-35634819D01*
X99976190Y-35634819D02*
X100119047Y-35634819D01*
X100119047Y-35634819D02*
X100214285Y-35587200D01*
X100214285Y-35587200D02*
X100261904Y-35539580D01*
X101071428Y-35111009D02*
X100738095Y-35111009D01*
X100738095Y-35634819D02*
X100738095Y-34634819D01*
X100738095Y-34634819D02*
X101214285Y-34634819D01*
D11*
X99916666Y-33679530D02*
X99892857Y-33703340D01*
X99892857Y-33703340D02*
X99821428Y-33727149D01*
X99821428Y-33727149D02*
X99773809Y-33727149D01*
X99773809Y-33727149D02*
X99702381Y-33703340D01*
X99702381Y-33703340D02*
X99654762Y-33655720D01*
X99654762Y-33655720D02*
X99630952Y-33608101D01*
X99630952Y-33608101D02*
X99607143Y-33512863D01*
X99607143Y-33512863D02*
X99607143Y-33441435D01*
X99607143Y-33441435D02*
X99630952Y-33346197D01*
X99630952Y-33346197D02*
X99654762Y-33298578D01*
X99654762Y-33298578D02*
X99702381Y-33250959D01*
X99702381Y-33250959D02*
X99773809Y-33227149D01*
X99773809Y-33227149D02*
X99821428Y-33227149D01*
X99821428Y-33227149D02*
X99892857Y-33250959D01*
X99892857Y-33250959D02*
X99916666Y-33274768D01*
X100369047Y-33227149D02*
X100130952Y-33227149D01*
X100130952Y-33227149D02*
X100107143Y-33465244D01*
X100107143Y-33465244D02*
X100130952Y-33441435D01*
X100130952Y-33441435D02*
X100178571Y-33417625D01*
X100178571Y-33417625D02*
X100297619Y-33417625D01*
X100297619Y-33417625D02*
X100345238Y-33441435D01*
X100345238Y-33441435D02*
X100369047Y-33465244D01*
X100369047Y-33465244D02*
X100392857Y-33512863D01*
X100392857Y-33512863D02*
X100392857Y-33631911D01*
X100392857Y-33631911D02*
X100369047Y-33679530D01*
X100369047Y-33679530D02*
X100345238Y-33703340D01*
X100345238Y-33703340D02*
X100297619Y-33727149D01*
X100297619Y-33727149D02*
X100178571Y-33727149D01*
X100178571Y-33727149D02*
X100130952Y-33703340D01*
X100130952Y-33703340D02*
X100107143Y-33679530D01*
D10*
X23404761Y-40634819D02*
X22833333Y-40634819D01*
X23119047Y-40634819D02*
X23119047Y-39634819D01*
X23119047Y-39634819D02*
X23023809Y-39777676D01*
X23023809Y-39777676D02*
X22928571Y-39872914D01*
X22928571Y-39872914D02*
X22833333Y-39920533D01*
X24261904Y-39968152D02*
X24261904Y-40634819D01*
X23833333Y-39968152D02*
X23833333Y-40491961D01*
X23833333Y-40491961D02*
X23880952Y-40587200D01*
X23880952Y-40587200D02*
X23976190Y-40634819D01*
X23976190Y-40634819D02*
X24119047Y-40634819D01*
X24119047Y-40634819D02*
X24214285Y-40587200D01*
X24214285Y-40587200D02*
X24261904Y-40539580D01*
X25071428Y-40111009D02*
X24738095Y-40111009D01*
X24738095Y-40634819D02*
X24738095Y-39634819D01*
X24738095Y-39634819D02*
X25214285Y-39634819D01*
D11*
X23916666Y-38679530D02*
X23892857Y-38703340D01*
X23892857Y-38703340D02*
X23821428Y-38727149D01*
X23821428Y-38727149D02*
X23773809Y-38727149D01*
X23773809Y-38727149D02*
X23702381Y-38703340D01*
X23702381Y-38703340D02*
X23654762Y-38655720D01*
X23654762Y-38655720D02*
X23630952Y-38608101D01*
X23630952Y-38608101D02*
X23607143Y-38512863D01*
X23607143Y-38512863D02*
X23607143Y-38441435D01*
X23607143Y-38441435D02*
X23630952Y-38346197D01*
X23630952Y-38346197D02*
X23654762Y-38298578D01*
X23654762Y-38298578D02*
X23702381Y-38250959D01*
X23702381Y-38250959D02*
X23773809Y-38227149D01*
X23773809Y-38227149D02*
X23821428Y-38227149D01*
X23821428Y-38227149D02*
X23892857Y-38250959D01*
X23892857Y-38250959D02*
X23916666Y-38274768D01*
X24392857Y-38727149D02*
X24107143Y-38727149D01*
X24250000Y-38727149D02*
X24250000Y-38227149D01*
X24250000Y-38227149D02*
X24202381Y-38298578D01*
X24202381Y-38298578D02*
X24154762Y-38346197D01*
X24154762Y-38346197D02*
X24107143Y-38370006D01*
D10*
X23442261Y-78634819D02*
X22870833Y-78634819D01*
X23156547Y-78634819D02*
X23156547Y-77634819D01*
X23156547Y-77634819D02*
X23061309Y-77777676D01*
X23061309Y-77777676D02*
X22966071Y-77872914D01*
X22966071Y-77872914D02*
X22870833Y-77920533D01*
X24299404Y-77968152D02*
X24299404Y-78634819D01*
X23870833Y-77968152D02*
X23870833Y-78491961D01*
X23870833Y-78491961D02*
X23918452Y-78587200D01*
X23918452Y-78587200D02*
X24013690Y-78634819D01*
X24013690Y-78634819D02*
X24156547Y-78634819D01*
X24156547Y-78634819D02*
X24251785Y-78587200D01*
X24251785Y-78587200D02*
X24299404Y-78539580D01*
X25108928Y-78111009D02*
X24775595Y-78111009D01*
X24775595Y-78634819D02*
X24775595Y-77634819D01*
X24775595Y-77634819D02*
X25251785Y-77634819D01*
D11*
X23716071Y-76679530D02*
X23692262Y-76703340D01*
X23692262Y-76703340D02*
X23620833Y-76727149D01*
X23620833Y-76727149D02*
X23573214Y-76727149D01*
X23573214Y-76727149D02*
X23501786Y-76703340D01*
X23501786Y-76703340D02*
X23454167Y-76655720D01*
X23454167Y-76655720D02*
X23430357Y-76608101D01*
X23430357Y-76608101D02*
X23406548Y-76512863D01*
X23406548Y-76512863D02*
X23406548Y-76441435D01*
X23406548Y-76441435D02*
X23430357Y-76346197D01*
X23430357Y-76346197D02*
X23454167Y-76298578D01*
X23454167Y-76298578D02*
X23501786Y-76250959D01*
X23501786Y-76250959D02*
X23573214Y-76227149D01*
X23573214Y-76227149D02*
X23620833Y-76227149D01*
X23620833Y-76227149D02*
X23692262Y-76250959D01*
X23692262Y-76250959D02*
X23716071Y-76274768D01*
X24192262Y-76727149D02*
X23906548Y-76727149D01*
X24049405Y-76727149D02*
X24049405Y-76227149D01*
X24049405Y-76227149D02*
X24001786Y-76298578D01*
X24001786Y-76298578D02*
X23954167Y-76346197D01*
X23954167Y-76346197D02*
X23906548Y-76370006D01*
X24668452Y-76727149D02*
X24382738Y-76727149D01*
X24525595Y-76727149D02*
X24525595Y-76227149D01*
X24525595Y-76227149D02*
X24477976Y-76298578D01*
X24477976Y-76298578D02*
X24430357Y-76346197D01*
X24430357Y-76346197D02*
X24382738Y-76370006D01*
D10*
X59926671Y-37217208D02*
X60069528Y-37264827D01*
X60069528Y-37264827D02*
X60307623Y-37264827D01*
X60307623Y-37264827D02*
X60402861Y-37217208D01*
X60402861Y-37217208D02*
X60450480Y-37169588D01*
X60450480Y-37169588D02*
X60498099Y-37074350D01*
X60498099Y-37074350D02*
X60498099Y-36979112D01*
X60498099Y-36979112D02*
X60450480Y-36883874D01*
X60450480Y-36883874D02*
X60402861Y-36836255D01*
X60402861Y-36836255D02*
X60307623Y-36788636D01*
X60307623Y-36788636D02*
X60117147Y-36741017D01*
X60117147Y-36741017D02*
X60021909Y-36693398D01*
X60021909Y-36693398D02*
X59974290Y-36645779D01*
X59974290Y-36645779D02*
X59926671Y-36550541D01*
X59926671Y-36550541D02*
X59926671Y-36455303D01*
X59926671Y-36455303D02*
X59974290Y-36360065D01*
X59974290Y-36360065D02*
X60021909Y-36312446D01*
X60021909Y-36312446D02*
X60117147Y-36264827D01*
X60117147Y-36264827D02*
X60355242Y-36264827D01*
X60355242Y-36264827D02*
X60498099Y-36312446D01*
X60831433Y-36264827D02*
X61069528Y-37264827D01*
X61069528Y-37264827D02*
X61260004Y-36550541D01*
X61260004Y-36550541D02*
X61450480Y-37264827D01*
X61450480Y-37264827D02*
X61688576Y-36264827D01*
X62212385Y-36693398D02*
X62117147Y-36645779D01*
X62117147Y-36645779D02*
X62069528Y-36598160D01*
X62069528Y-36598160D02*
X62021909Y-36502922D01*
X62021909Y-36502922D02*
X62021909Y-36455303D01*
X62021909Y-36455303D02*
X62069528Y-36360065D01*
X62069528Y-36360065D02*
X62117147Y-36312446D01*
X62117147Y-36312446D02*
X62212385Y-36264827D01*
X62212385Y-36264827D02*
X62402861Y-36264827D01*
X62402861Y-36264827D02*
X62498099Y-36312446D01*
X62498099Y-36312446D02*
X62545718Y-36360065D01*
X62545718Y-36360065D02*
X62593337Y-36455303D01*
X62593337Y-36455303D02*
X62593337Y-36502922D01*
X62593337Y-36502922D02*
X62545718Y-36598160D01*
X62545718Y-36598160D02*
X62498099Y-36645779D01*
X62498099Y-36645779D02*
X62402861Y-36693398D01*
X62402861Y-36693398D02*
X62212385Y-36693398D01*
X62212385Y-36693398D02*
X62117147Y-36741017D01*
X62117147Y-36741017D02*
X62069528Y-36788636D01*
X62069528Y-36788636D02*
X62021909Y-36883874D01*
X62021909Y-36883874D02*
X62021909Y-37074350D01*
X62021909Y-37074350D02*
X62069528Y-37169588D01*
X62069528Y-37169588D02*
X62117147Y-37217208D01*
X62117147Y-37217208D02*
X62212385Y-37264827D01*
X62212385Y-37264827D02*
X62402861Y-37264827D01*
X62402861Y-37264827D02*
X62498099Y-37217208D01*
X62498099Y-37217208D02*
X62545718Y-37169588D01*
X62545718Y-37169588D02*
X62593337Y-37074350D01*
X62593337Y-37074350D02*
X62593337Y-36883874D01*
X62593337Y-36883874D02*
X62545718Y-36788636D01*
X62545718Y-36788636D02*
X62498099Y-36741017D01*
X62498099Y-36741017D02*
X62402861Y-36693398D01*
X21450477Y-68217200D02*
X21593334Y-68264819D01*
X21593334Y-68264819D02*
X21831429Y-68264819D01*
X21831429Y-68264819D02*
X21926667Y-68217200D01*
X21926667Y-68217200D02*
X21974286Y-68169580D01*
X21974286Y-68169580D02*
X22021905Y-68074342D01*
X22021905Y-68074342D02*
X22021905Y-67979104D01*
X22021905Y-67979104D02*
X21974286Y-67883866D01*
X21974286Y-67883866D02*
X21926667Y-67836247D01*
X21926667Y-67836247D02*
X21831429Y-67788628D01*
X21831429Y-67788628D02*
X21640953Y-67741009D01*
X21640953Y-67741009D02*
X21545715Y-67693390D01*
X21545715Y-67693390D02*
X21498096Y-67645771D01*
X21498096Y-67645771D02*
X21450477Y-67550533D01*
X21450477Y-67550533D02*
X21450477Y-67455295D01*
X21450477Y-67455295D02*
X21498096Y-67360057D01*
X21498096Y-67360057D02*
X21545715Y-67312438D01*
X21545715Y-67312438D02*
X21640953Y-67264819D01*
X21640953Y-67264819D02*
X21879048Y-67264819D01*
X21879048Y-67264819D02*
X22021905Y-67312438D01*
X22355239Y-67264819D02*
X22593334Y-68264819D01*
X22593334Y-68264819D02*
X22783810Y-67550533D01*
X22783810Y-67550533D02*
X22974286Y-68264819D01*
X22974286Y-68264819D02*
X23212382Y-67264819D01*
X24117143Y-68264819D02*
X23545715Y-68264819D01*
X23831429Y-68264819D02*
X23831429Y-67264819D01*
X23831429Y-67264819D02*
X23736191Y-67407676D01*
X23736191Y-67407676D02*
X23640953Y-67502914D01*
X23640953Y-67502914D02*
X23545715Y-67550533D01*
X25069524Y-68264819D02*
X24498096Y-68264819D01*
X24783810Y-68264819D02*
X24783810Y-67264819D01*
X24783810Y-67264819D02*
X24688572Y-67407676D01*
X24688572Y-67407676D02*
X24593334Y-67502914D01*
X24593334Y-67502914D02*
X24498096Y-67550533D01*
X78450476Y-61217200D02*
X78593333Y-61264819D01*
X78593333Y-61264819D02*
X78831428Y-61264819D01*
X78831428Y-61264819D02*
X78926666Y-61217200D01*
X78926666Y-61217200D02*
X78974285Y-61169580D01*
X78974285Y-61169580D02*
X79021904Y-61074342D01*
X79021904Y-61074342D02*
X79021904Y-60979104D01*
X79021904Y-60979104D02*
X78974285Y-60883866D01*
X78974285Y-60883866D02*
X78926666Y-60836247D01*
X78926666Y-60836247D02*
X78831428Y-60788628D01*
X78831428Y-60788628D02*
X78640952Y-60741009D01*
X78640952Y-60741009D02*
X78545714Y-60693390D01*
X78545714Y-60693390D02*
X78498095Y-60645771D01*
X78498095Y-60645771D02*
X78450476Y-60550533D01*
X78450476Y-60550533D02*
X78450476Y-60455295D01*
X78450476Y-60455295D02*
X78498095Y-60360057D01*
X78498095Y-60360057D02*
X78545714Y-60312438D01*
X78545714Y-60312438D02*
X78640952Y-60264819D01*
X78640952Y-60264819D02*
X78879047Y-60264819D01*
X78879047Y-60264819D02*
X79021904Y-60312438D01*
X79355238Y-60264819D02*
X79593333Y-61264819D01*
X79593333Y-61264819D02*
X79783809Y-60550533D01*
X79783809Y-60550533D02*
X79974285Y-61264819D01*
X79974285Y-61264819D02*
X80212381Y-60264819D01*
X81117142Y-61264819D02*
X80545714Y-61264819D01*
X80831428Y-61264819D02*
X80831428Y-60264819D01*
X80831428Y-60264819D02*
X80736190Y-60407676D01*
X80736190Y-60407676D02*
X80640952Y-60502914D01*
X80640952Y-60502914D02*
X80545714Y-60550533D01*
X81974285Y-60598152D02*
X81974285Y-61264819D01*
X81736190Y-60217200D02*
X81498095Y-60931485D01*
X81498095Y-60931485D02*
X82117142Y-60931485D01*
X99404761Y-54634819D02*
X98833333Y-54634819D01*
X99119047Y-54634819D02*
X99119047Y-53634819D01*
X99119047Y-53634819D02*
X99023809Y-53777676D01*
X99023809Y-53777676D02*
X98928571Y-53872914D01*
X98928571Y-53872914D02*
X98833333Y-53920533D01*
X100261904Y-53968152D02*
X100261904Y-54634819D01*
X99833333Y-53968152D02*
X99833333Y-54491961D01*
X99833333Y-54491961D02*
X99880952Y-54587200D01*
X99880952Y-54587200D02*
X99976190Y-54634819D01*
X99976190Y-54634819D02*
X100119047Y-54634819D01*
X100119047Y-54634819D02*
X100214285Y-54587200D01*
X100214285Y-54587200D02*
X100261904Y-54539580D01*
X101071428Y-54111009D02*
X100738095Y-54111009D01*
X100738095Y-54634819D02*
X100738095Y-53634819D01*
X100738095Y-53634819D02*
X101214285Y-53634819D01*
D11*
X99678571Y-52679530D02*
X99654762Y-52703340D01*
X99654762Y-52703340D02*
X99583333Y-52727149D01*
X99583333Y-52727149D02*
X99535714Y-52727149D01*
X99535714Y-52727149D02*
X99464286Y-52703340D01*
X99464286Y-52703340D02*
X99416667Y-52655720D01*
X99416667Y-52655720D02*
X99392857Y-52608101D01*
X99392857Y-52608101D02*
X99369048Y-52512863D01*
X99369048Y-52512863D02*
X99369048Y-52441435D01*
X99369048Y-52441435D02*
X99392857Y-52346197D01*
X99392857Y-52346197D02*
X99416667Y-52298578D01*
X99416667Y-52298578D02*
X99464286Y-52250959D01*
X99464286Y-52250959D02*
X99535714Y-52227149D01*
X99535714Y-52227149D02*
X99583333Y-52227149D01*
X99583333Y-52227149D02*
X99654762Y-52250959D01*
X99654762Y-52250959D02*
X99678571Y-52274768D01*
X100154762Y-52727149D02*
X99869048Y-52727149D01*
X100011905Y-52727149D02*
X100011905Y-52227149D01*
X100011905Y-52227149D02*
X99964286Y-52298578D01*
X99964286Y-52298578D02*
X99916667Y-52346197D01*
X99916667Y-52346197D02*
X99869048Y-52370006D01*
X100464285Y-52227149D02*
X100511904Y-52227149D01*
X100511904Y-52227149D02*
X100559523Y-52250959D01*
X100559523Y-52250959D02*
X100583333Y-52274768D01*
X100583333Y-52274768D02*
X100607142Y-52322387D01*
X100607142Y-52322387D02*
X100630952Y-52417625D01*
X100630952Y-52417625D02*
X100630952Y-52536673D01*
X100630952Y-52536673D02*
X100607142Y-52631911D01*
X100607142Y-52631911D02*
X100583333Y-52679530D01*
X100583333Y-52679530D02*
X100559523Y-52703340D01*
X100559523Y-52703340D02*
X100511904Y-52727149D01*
X100511904Y-52727149D02*
X100464285Y-52727149D01*
X100464285Y-52727149D02*
X100416666Y-52703340D01*
X100416666Y-52703340D02*
X100392857Y-52679530D01*
X100392857Y-52679530D02*
X100369047Y-52631911D01*
X100369047Y-52631911D02*
X100345238Y-52536673D01*
X100345238Y-52536673D02*
X100345238Y-52417625D01*
X100345238Y-52417625D02*
X100369047Y-52322387D01*
X100369047Y-52322387D02*
X100392857Y-52274768D01*
X100392857Y-52274768D02*
X100416666Y-52250959D01*
X100416666Y-52250959D02*
X100464285Y-52227149D01*
D10*
X97926667Y-25217200D02*
X98069524Y-25264819D01*
X98069524Y-25264819D02*
X98307619Y-25264819D01*
X98307619Y-25264819D02*
X98402857Y-25217200D01*
X98402857Y-25217200D02*
X98450476Y-25169580D01*
X98450476Y-25169580D02*
X98498095Y-25074342D01*
X98498095Y-25074342D02*
X98498095Y-24979104D01*
X98498095Y-24979104D02*
X98450476Y-24883866D01*
X98450476Y-24883866D02*
X98402857Y-24836247D01*
X98402857Y-24836247D02*
X98307619Y-24788628D01*
X98307619Y-24788628D02*
X98117143Y-24741009D01*
X98117143Y-24741009D02*
X98021905Y-24693390D01*
X98021905Y-24693390D02*
X97974286Y-24645771D01*
X97974286Y-24645771D02*
X97926667Y-24550533D01*
X97926667Y-24550533D02*
X97926667Y-24455295D01*
X97926667Y-24455295D02*
X97974286Y-24360057D01*
X97974286Y-24360057D02*
X98021905Y-24312438D01*
X98021905Y-24312438D02*
X98117143Y-24264819D01*
X98117143Y-24264819D02*
X98355238Y-24264819D01*
X98355238Y-24264819D02*
X98498095Y-24312438D01*
X98831429Y-24264819D02*
X99069524Y-25264819D01*
X99069524Y-25264819D02*
X99260000Y-24550533D01*
X99260000Y-24550533D02*
X99450476Y-25264819D01*
X99450476Y-25264819D02*
X99688572Y-24264819D01*
X100545714Y-24264819D02*
X100069524Y-24264819D01*
X100069524Y-24264819D02*
X100021905Y-24741009D01*
X100021905Y-24741009D02*
X100069524Y-24693390D01*
X100069524Y-24693390D02*
X100164762Y-24645771D01*
X100164762Y-24645771D02*
X100402857Y-24645771D01*
X100402857Y-24645771D02*
X100498095Y-24693390D01*
X100498095Y-24693390D02*
X100545714Y-24741009D01*
X100545714Y-24741009D02*
X100593333Y-24836247D01*
X100593333Y-24836247D02*
X100593333Y-25074342D01*
X100593333Y-25074342D02*
X100545714Y-25169580D01*
X100545714Y-25169580D02*
X100498095Y-25217200D01*
X100498095Y-25217200D02*
X100402857Y-25264819D01*
X100402857Y-25264819D02*
X100164762Y-25264819D01*
X100164762Y-25264819D02*
X100069524Y-25217200D01*
X100069524Y-25217200D02*
X100021905Y-25169580D01*
X23404761Y-59634819D02*
X22833333Y-59634819D01*
X23119047Y-59634819D02*
X23119047Y-58634819D01*
X23119047Y-58634819D02*
X23023809Y-58777676D01*
X23023809Y-58777676D02*
X22928571Y-58872914D01*
X22928571Y-58872914D02*
X22833333Y-58920533D01*
X24261904Y-58968152D02*
X24261904Y-59634819D01*
X23833333Y-58968152D02*
X23833333Y-59491961D01*
X23833333Y-59491961D02*
X23880952Y-59587200D01*
X23880952Y-59587200D02*
X23976190Y-59634819D01*
X23976190Y-59634819D02*
X24119047Y-59634819D01*
X24119047Y-59634819D02*
X24214285Y-59587200D01*
X24214285Y-59587200D02*
X24261904Y-59539580D01*
X25071428Y-59111009D02*
X24738095Y-59111009D01*
X24738095Y-59634819D02*
X24738095Y-58634819D01*
X24738095Y-58634819D02*
X25214285Y-58634819D01*
D11*
X23916666Y-57679530D02*
X23892857Y-57703340D01*
X23892857Y-57703340D02*
X23821428Y-57727149D01*
X23821428Y-57727149D02*
X23773809Y-57727149D01*
X23773809Y-57727149D02*
X23702381Y-57703340D01*
X23702381Y-57703340D02*
X23654762Y-57655720D01*
X23654762Y-57655720D02*
X23630952Y-57608101D01*
X23630952Y-57608101D02*
X23607143Y-57512863D01*
X23607143Y-57512863D02*
X23607143Y-57441435D01*
X23607143Y-57441435D02*
X23630952Y-57346197D01*
X23630952Y-57346197D02*
X23654762Y-57298578D01*
X23654762Y-57298578D02*
X23702381Y-57250959D01*
X23702381Y-57250959D02*
X23773809Y-57227149D01*
X23773809Y-57227149D02*
X23821428Y-57227149D01*
X23821428Y-57227149D02*
X23892857Y-57250959D01*
X23892857Y-57250959D02*
X23916666Y-57274768D01*
X24345238Y-57227149D02*
X24250000Y-57227149D01*
X24250000Y-57227149D02*
X24202381Y-57250959D01*
X24202381Y-57250959D02*
X24178571Y-57274768D01*
X24178571Y-57274768D02*
X24130952Y-57346197D01*
X24130952Y-57346197D02*
X24107143Y-57441435D01*
X24107143Y-57441435D02*
X24107143Y-57631911D01*
X24107143Y-57631911D02*
X24130952Y-57679530D01*
X24130952Y-57679530D02*
X24154762Y-57703340D01*
X24154762Y-57703340D02*
X24202381Y-57727149D01*
X24202381Y-57727149D02*
X24297619Y-57727149D01*
X24297619Y-57727149D02*
X24345238Y-57703340D01*
X24345238Y-57703340D02*
X24369047Y-57679530D01*
X24369047Y-57679530D02*
X24392857Y-57631911D01*
X24392857Y-57631911D02*
X24392857Y-57512863D01*
X24392857Y-57512863D02*
X24369047Y-57465244D01*
X24369047Y-57465244D02*
X24345238Y-57441435D01*
X24345238Y-57441435D02*
X24297619Y-57417625D01*
X24297619Y-57417625D02*
X24202381Y-57417625D01*
X24202381Y-57417625D02*
X24154762Y-57441435D01*
X24154762Y-57441435D02*
X24130952Y-57465244D01*
X24130952Y-57465244D02*
X24107143Y-57512863D01*
D10*
X61404761Y-28634819D02*
X60833333Y-28634819D01*
X61119047Y-28634819D02*
X61119047Y-27634819D01*
X61119047Y-27634819D02*
X61023809Y-27777676D01*
X61023809Y-27777676D02*
X60928571Y-27872914D01*
X60928571Y-27872914D02*
X60833333Y-27920533D01*
X62261904Y-27968152D02*
X62261904Y-28634819D01*
X61833333Y-27968152D02*
X61833333Y-28491961D01*
X61833333Y-28491961D02*
X61880952Y-28587200D01*
X61880952Y-28587200D02*
X61976190Y-28634819D01*
X61976190Y-28634819D02*
X62119047Y-28634819D01*
X62119047Y-28634819D02*
X62214285Y-28587200D01*
X62214285Y-28587200D02*
X62261904Y-28539580D01*
X63071428Y-28111009D02*
X62738095Y-28111009D01*
X62738095Y-28634819D02*
X62738095Y-27634819D01*
X62738095Y-27634819D02*
X63214285Y-27634819D01*
D11*
X61916666Y-26679530D02*
X61892857Y-26703340D01*
X61892857Y-26703340D02*
X61821428Y-26727149D01*
X61821428Y-26727149D02*
X61773809Y-26727149D01*
X61773809Y-26727149D02*
X61702381Y-26703340D01*
X61702381Y-26703340D02*
X61654762Y-26655720D01*
X61654762Y-26655720D02*
X61630952Y-26608101D01*
X61630952Y-26608101D02*
X61607143Y-26512863D01*
X61607143Y-26512863D02*
X61607143Y-26441435D01*
X61607143Y-26441435D02*
X61630952Y-26346197D01*
X61630952Y-26346197D02*
X61654762Y-26298578D01*
X61654762Y-26298578D02*
X61702381Y-26250959D01*
X61702381Y-26250959D02*
X61773809Y-26227149D01*
X61773809Y-26227149D02*
X61821428Y-26227149D01*
X61821428Y-26227149D02*
X61892857Y-26250959D01*
X61892857Y-26250959D02*
X61916666Y-26274768D01*
X62083333Y-26227149D02*
X62392857Y-26227149D01*
X62392857Y-26227149D02*
X62226190Y-26417625D01*
X62226190Y-26417625D02*
X62297619Y-26417625D01*
X62297619Y-26417625D02*
X62345238Y-26441435D01*
X62345238Y-26441435D02*
X62369047Y-26465244D01*
X62369047Y-26465244D02*
X62392857Y-26512863D01*
X62392857Y-26512863D02*
X62392857Y-26631911D01*
X62392857Y-26631911D02*
X62369047Y-26679530D01*
X62369047Y-26679530D02*
X62345238Y-26703340D01*
X62345238Y-26703340D02*
X62297619Y-26727149D01*
X62297619Y-26727149D02*
X62154762Y-26727149D01*
X62154762Y-26727149D02*
X62107143Y-26703340D01*
X62107143Y-26703340D02*
X62083333Y-26679530D01*
D10*
X71442261Y-97634819D02*
X70870833Y-97634819D01*
X71156547Y-97634819D02*
X71156547Y-96634819D01*
X71156547Y-96634819D02*
X71061309Y-96777676D01*
X71061309Y-96777676D02*
X70966071Y-96872914D01*
X70966071Y-96872914D02*
X70870833Y-96920533D01*
X72299404Y-96968152D02*
X72299404Y-97634819D01*
X71870833Y-96968152D02*
X71870833Y-97491961D01*
X71870833Y-97491961D02*
X71918452Y-97587200D01*
X71918452Y-97587200D02*
X72013690Y-97634819D01*
X72013690Y-97634819D02*
X72156547Y-97634819D01*
X72156547Y-97634819D02*
X72251785Y-97587200D01*
X72251785Y-97587200D02*
X72299404Y-97539580D01*
X73108928Y-97111009D02*
X72775595Y-97111009D01*
X72775595Y-97634819D02*
X72775595Y-96634819D01*
X72775595Y-96634819D02*
X73251785Y-96634819D01*
D11*
X71716071Y-95679530D02*
X71692262Y-95703340D01*
X71692262Y-95703340D02*
X71620833Y-95727149D01*
X71620833Y-95727149D02*
X71573214Y-95727149D01*
X71573214Y-95727149D02*
X71501786Y-95703340D01*
X71501786Y-95703340D02*
X71454167Y-95655720D01*
X71454167Y-95655720D02*
X71430357Y-95608101D01*
X71430357Y-95608101D02*
X71406548Y-95512863D01*
X71406548Y-95512863D02*
X71406548Y-95441435D01*
X71406548Y-95441435D02*
X71430357Y-95346197D01*
X71430357Y-95346197D02*
X71454167Y-95298578D01*
X71454167Y-95298578D02*
X71501786Y-95250959D01*
X71501786Y-95250959D02*
X71573214Y-95227149D01*
X71573214Y-95227149D02*
X71620833Y-95227149D01*
X71620833Y-95227149D02*
X71692262Y-95250959D01*
X71692262Y-95250959D02*
X71716071Y-95274768D01*
X72192262Y-95727149D02*
X71906548Y-95727149D01*
X72049405Y-95727149D02*
X72049405Y-95227149D01*
X72049405Y-95227149D02*
X72001786Y-95298578D01*
X72001786Y-95298578D02*
X71954167Y-95346197D01*
X71954167Y-95346197D02*
X71906548Y-95370006D01*
X72620833Y-95227149D02*
X72525595Y-95227149D01*
X72525595Y-95227149D02*
X72477976Y-95250959D01*
X72477976Y-95250959D02*
X72454166Y-95274768D01*
X72454166Y-95274768D02*
X72406547Y-95346197D01*
X72406547Y-95346197D02*
X72382738Y-95441435D01*
X72382738Y-95441435D02*
X72382738Y-95631911D01*
X72382738Y-95631911D02*
X72406547Y-95679530D01*
X72406547Y-95679530D02*
X72430357Y-95703340D01*
X72430357Y-95703340D02*
X72477976Y-95727149D01*
X72477976Y-95727149D02*
X72573214Y-95727149D01*
X72573214Y-95727149D02*
X72620833Y-95703340D01*
X72620833Y-95703340D02*
X72644642Y-95679530D01*
X72644642Y-95679530D02*
X72668452Y-95631911D01*
X72668452Y-95631911D02*
X72668452Y-95512863D01*
X72668452Y-95512863D02*
X72644642Y-95465244D01*
X72644642Y-95465244D02*
X72620833Y-95441435D01*
X72620833Y-95441435D02*
X72573214Y-95417625D01*
X72573214Y-95417625D02*
X72477976Y-95417625D01*
X72477976Y-95417625D02*
X72430357Y-95441435D01*
X72430357Y-95441435D02*
X72406547Y-95465244D01*
X72406547Y-95465244D02*
X72382738Y-95512863D01*
D10*
X97450476Y-63217200D02*
X97593333Y-63264819D01*
X97593333Y-63264819D02*
X97831428Y-63264819D01*
X97831428Y-63264819D02*
X97926666Y-63217200D01*
X97926666Y-63217200D02*
X97974285Y-63169580D01*
X97974285Y-63169580D02*
X98021904Y-63074342D01*
X98021904Y-63074342D02*
X98021904Y-62979104D01*
X98021904Y-62979104D02*
X97974285Y-62883866D01*
X97974285Y-62883866D02*
X97926666Y-62836247D01*
X97926666Y-62836247D02*
X97831428Y-62788628D01*
X97831428Y-62788628D02*
X97640952Y-62741009D01*
X97640952Y-62741009D02*
X97545714Y-62693390D01*
X97545714Y-62693390D02*
X97498095Y-62645771D01*
X97498095Y-62645771D02*
X97450476Y-62550533D01*
X97450476Y-62550533D02*
X97450476Y-62455295D01*
X97450476Y-62455295D02*
X97498095Y-62360057D01*
X97498095Y-62360057D02*
X97545714Y-62312438D01*
X97545714Y-62312438D02*
X97640952Y-62264819D01*
X97640952Y-62264819D02*
X97879047Y-62264819D01*
X97879047Y-62264819D02*
X98021904Y-62312438D01*
X98355238Y-62264819D02*
X98593333Y-63264819D01*
X98593333Y-63264819D02*
X98783809Y-62550533D01*
X98783809Y-62550533D02*
X98974285Y-63264819D01*
X98974285Y-63264819D02*
X99212381Y-62264819D01*
X100117142Y-63264819D02*
X99545714Y-63264819D01*
X99831428Y-63264819D02*
X99831428Y-62264819D01*
X99831428Y-62264819D02*
X99736190Y-62407676D01*
X99736190Y-62407676D02*
X99640952Y-62502914D01*
X99640952Y-62502914D02*
X99545714Y-62550533D01*
X101021904Y-62264819D02*
X100545714Y-62264819D01*
X100545714Y-62264819D02*
X100498095Y-62741009D01*
X100498095Y-62741009D02*
X100545714Y-62693390D01*
X100545714Y-62693390D02*
X100640952Y-62645771D01*
X100640952Y-62645771D02*
X100879047Y-62645771D01*
X100879047Y-62645771D02*
X100974285Y-62693390D01*
X100974285Y-62693390D02*
X101021904Y-62741009D01*
X101021904Y-62741009D02*
X101069523Y-62836247D01*
X101069523Y-62836247D02*
X101069523Y-63074342D01*
X101069523Y-63074342D02*
X101021904Y-63169580D01*
X101021904Y-63169580D02*
X100974285Y-63217200D01*
X100974285Y-63217200D02*
X100879047Y-63264819D01*
X100879047Y-63264819D02*
X100640952Y-63264819D01*
X100640952Y-63264819D02*
X100545714Y-63217200D01*
X100545714Y-63217200D02*
X100498095Y-63169580D01*
X69450476Y-87217200D02*
X69593333Y-87264819D01*
X69593333Y-87264819D02*
X69831428Y-87264819D01*
X69831428Y-87264819D02*
X69926666Y-87217200D01*
X69926666Y-87217200D02*
X69974285Y-87169580D01*
X69974285Y-87169580D02*
X70021904Y-87074342D01*
X70021904Y-87074342D02*
X70021904Y-86979104D01*
X70021904Y-86979104D02*
X69974285Y-86883866D01*
X69974285Y-86883866D02*
X69926666Y-86836247D01*
X69926666Y-86836247D02*
X69831428Y-86788628D01*
X69831428Y-86788628D02*
X69640952Y-86741009D01*
X69640952Y-86741009D02*
X69545714Y-86693390D01*
X69545714Y-86693390D02*
X69498095Y-86645771D01*
X69498095Y-86645771D02*
X69450476Y-86550533D01*
X69450476Y-86550533D02*
X69450476Y-86455295D01*
X69450476Y-86455295D02*
X69498095Y-86360057D01*
X69498095Y-86360057D02*
X69545714Y-86312438D01*
X69545714Y-86312438D02*
X69640952Y-86264819D01*
X69640952Y-86264819D02*
X69879047Y-86264819D01*
X69879047Y-86264819D02*
X70021904Y-86312438D01*
X70355238Y-86264819D02*
X70593333Y-87264819D01*
X70593333Y-87264819D02*
X70783809Y-86550533D01*
X70783809Y-86550533D02*
X70974285Y-87264819D01*
X70974285Y-87264819D02*
X71212381Y-86264819D01*
X72117142Y-87264819D02*
X71545714Y-87264819D01*
X71831428Y-87264819D02*
X71831428Y-86264819D01*
X71831428Y-86264819D02*
X71736190Y-86407676D01*
X71736190Y-86407676D02*
X71640952Y-86502914D01*
X71640952Y-86502914D02*
X71545714Y-86550533D01*
X72974285Y-86264819D02*
X72783809Y-86264819D01*
X72783809Y-86264819D02*
X72688571Y-86312438D01*
X72688571Y-86312438D02*
X72640952Y-86360057D01*
X72640952Y-86360057D02*
X72545714Y-86502914D01*
X72545714Y-86502914D02*
X72498095Y-86693390D01*
X72498095Y-86693390D02*
X72498095Y-87074342D01*
X72498095Y-87074342D02*
X72545714Y-87169580D01*
X72545714Y-87169580D02*
X72593333Y-87217200D01*
X72593333Y-87217200D02*
X72688571Y-87264819D01*
X72688571Y-87264819D02*
X72879047Y-87264819D01*
X72879047Y-87264819D02*
X72974285Y-87217200D01*
X72974285Y-87217200D02*
X73021904Y-87169580D01*
X73021904Y-87169580D02*
X73069523Y-87074342D01*
X73069523Y-87074342D02*
X73069523Y-86836247D01*
X73069523Y-86836247D02*
X73021904Y-86741009D01*
X73021904Y-86741009D02*
X72974285Y-86693390D01*
X72974285Y-86693390D02*
X72879047Y-86645771D01*
X72879047Y-86645771D02*
X72688571Y-86645771D01*
X72688571Y-86645771D02*
X72593333Y-86693390D01*
X72593333Y-86693390D02*
X72545714Y-86741009D01*
X72545714Y-86741009D02*
X72498095Y-86836247D01*
X42404761Y-50634819D02*
X41833333Y-50634819D01*
X42119047Y-50634819D02*
X42119047Y-49634819D01*
X42119047Y-49634819D02*
X42023809Y-49777676D01*
X42023809Y-49777676D02*
X41928571Y-49872914D01*
X41928571Y-49872914D02*
X41833333Y-49920533D01*
X43261904Y-49968152D02*
X43261904Y-50634819D01*
X42833333Y-49968152D02*
X42833333Y-50491961D01*
X42833333Y-50491961D02*
X42880952Y-50587200D01*
X42880952Y-50587200D02*
X42976190Y-50634819D01*
X42976190Y-50634819D02*
X43119047Y-50634819D01*
X43119047Y-50634819D02*
X43214285Y-50587200D01*
X43214285Y-50587200D02*
X43261904Y-50539580D01*
X44071428Y-50111009D02*
X43738095Y-50111009D01*
X43738095Y-50634819D02*
X43738095Y-49634819D01*
X43738095Y-49634819D02*
X44214285Y-49634819D01*
D11*
X42916666Y-48679530D02*
X42892857Y-48703340D01*
X42892857Y-48703340D02*
X42821428Y-48727149D01*
X42821428Y-48727149D02*
X42773809Y-48727149D01*
X42773809Y-48727149D02*
X42702381Y-48703340D01*
X42702381Y-48703340D02*
X42654762Y-48655720D01*
X42654762Y-48655720D02*
X42630952Y-48608101D01*
X42630952Y-48608101D02*
X42607143Y-48512863D01*
X42607143Y-48512863D02*
X42607143Y-48441435D01*
X42607143Y-48441435D02*
X42630952Y-48346197D01*
X42630952Y-48346197D02*
X42654762Y-48298578D01*
X42654762Y-48298578D02*
X42702381Y-48250959D01*
X42702381Y-48250959D02*
X42773809Y-48227149D01*
X42773809Y-48227149D02*
X42821428Y-48227149D01*
X42821428Y-48227149D02*
X42892857Y-48250959D01*
X42892857Y-48250959D02*
X42916666Y-48274768D01*
X43083333Y-48227149D02*
X43416666Y-48227149D01*
X43416666Y-48227149D02*
X43202381Y-48727149D01*
D10*
X75569824Y-82663092D02*
X75569824Y-81996426D01*
X75569824Y-81996426D02*
X76569824Y-82424997D01*
X75903157Y-81186902D02*
X76569824Y-81186902D01*
X75522205Y-81424997D02*
X76236490Y-81663092D01*
X76236490Y-81663092D02*
X76236490Y-81044045D01*
X76569824Y-80663092D02*
X75569824Y-80663092D01*
X76046014Y-80663092D02*
X76046014Y-80091664D01*
X76569824Y-80091664D02*
X75569824Y-80091664D01*
X76474585Y-79044045D02*
X76522205Y-79091664D01*
X76522205Y-79091664D02*
X76569824Y-79234521D01*
X76569824Y-79234521D02*
X76569824Y-79329759D01*
X76569824Y-79329759D02*
X76522205Y-79472616D01*
X76522205Y-79472616D02*
X76426966Y-79567854D01*
X76426966Y-79567854D02*
X76331728Y-79615473D01*
X76331728Y-79615473D02*
X76141252Y-79663092D01*
X76141252Y-79663092D02*
X75998395Y-79663092D01*
X75998395Y-79663092D02*
X75807919Y-79615473D01*
X75807919Y-79615473D02*
X75712681Y-79567854D01*
X75712681Y-79567854D02*
X75617443Y-79472616D01*
X75617443Y-79472616D02*
X75569824Y-79329759D01*
X75569824Y-79329759D02*
X75569824Y-79234521D01*
X75569824Y-79234521D02*
X75617443Y-79091664D01*
X75617443Y-79091664D02*
X75665062Y-79044045D01*
X75903157Y-78186902D02*
X76569824Y-78186902D01*
X75522205Y-78424997D02*
X76236490Y-78663092D01*
X76236490Y-78663092D02*
X76236490Y-78044045D01*
X75569824Y-77472616D02*
X75569824Y-77377378D01*
X75569824Y-77377378D02*
X75617443Y-77282140D01*
X75617443Y-77282140D02*
X75665062Y-77234521D01*
X75665062Y-77234521D02*
X75760300Y-77186902D01*
X75760300Y-77186902D02*
X75950776Y-77139283D01*
X75950776Y-77139283D02*
X76188871Y-77139283D01*
X76188871Y-77139283D02*
X76379347Y-77186902D01*
X76379347Y-77186902D02*
X76474585Y-77234521D01*
X76474585Y-77234521D02*
X76522205Y-77282140D01*
X76522205Y-77282140D02*
X76569824Y-77377378D01*
X76569824Y-77377378D02*
X76569824Y-77472616D01*
X76569824Y-77472616D02*
X76522205Y-77567854D01*
X76522205Y-77567854D02*
X76474585Y-77615473D01*
X76474585Y-77615473D02*
X76379347Y-77663092D01*
X76379347Y-77663092D02*
X76188871Y-77710711D01*
X76188871Y-77710711D02*
X75950776Y-77710711D01*
X75950776Y-77710711D02*
X75760300Y-77663092D01*
X75760300Y-77663092D02*
X75665062Y-77615473D01*
X75665062Y-77615473D02*
X75617443Y-77567854D01*
X75617443Y-77567854D02*
X75569824Y-77472616D01*
X75569824Y-76234521D02*
X75569824Y-76710711D01*
X75569824Y-76710711D02*
X76046014Y-76758330D01*
X76046014Y-76758330D02*
X75998395Y-76710711D01*
X75998395Y-76710711D02*
X75950776Y-76615473D01*
X75950776Y-76615473D02*
X75950776Y-76377378D01*
X75950776Y-76377378D02*
X75998395Y-76282140D01*
X75998395Y-76282140D02*
X76046014Y-76234521D01*
X76046014Y-76234521D02*
X76141252Y-76186902D01*
X76141252Y-76186902D02*
X76379347Y-76186902D01*
X76379347Y-76186902D02*
X76474585Y-76234521D01*
X76474585Y-76234521D02*
X76522205Y-76282140D01*
X76522205Y-76282140D02*
X76569824Y-76377378D01*
X76569824Y-76377378D02*
X76569824Y-76615473D01*
X76569824Y-76615473D02*
X76522205Y-76710711D01*
X76522205Y-76710711D02*
X76474585Y-76758330D01*
X76569824Y-75234521D02*
X76569824Y-75805949D01*
X76569824Y-75520235D02*
X75569824Y-75520235D01*
X75569824Y-75520235D02*
X75712681Y-75615473D01*
X75712681Y-75615473D02*
X75807919Y-75710711D01*
X75807919Y-75710711D02*
X75855538Y-75805949D01*
X69680570Y-79671665D02*
X70473904Y-79671665D01*
X70473904Y-79671665D02*
X70567237Y-79624999D01*
X70567237Y-79624999D02*
X70613904Y-79578332D01*
X70613904Y-79578332D02*
X70660570Y-79484999D01*
X70660570Y-79484999D02*
X70660570Y-79298332D01*
X70660570Y-79298332D02*
X70613904Y-79204999D01*
X70613904Y-79204999D02*
X70567237Y-79158332D01*
X70567237Y-79158332D02*
X70473904Y-79111665D01*
X70473904Y-79111665D02*
X69680570Y-79111665D01*
X69773904Y-78691665D02*
X69727237Y-78644998D01*
X69727237Y-78644998D02*
X69680570Y-78551665D01*
X69680570Y-78551665D02*
X69680570Y-78318332D01*
X69680570Y-78318332D02*
X69727237Y-78224998D01*
X69727237Y-78224998D02*
X69773904Y-78178332D01*
X69773904Y-78178332D02*
X69867237Y-78131665D01*
X69867237Y-78131665D02*
X69960570Y-78131665D01*
X69960570Y-78131665D02*
X70100570Y-78178332D01*
X70100570Y-78178332D02*
X70660570Y-78738332D01*
X70660570Y-78738332D02*
X70660570Y-78131665D01*
X21926667Y-49217200D02*
X22069524Y-49264819D01*
X22069524Y-49264819D02*
X22307619Y-49264819D01*
X22307619Y-49264819D02*
X22402857Y-49217200D01*
X22402857Y-49217200D02*
X22450476Y-49169580D01*
X22450476Y-49169580D02*
X22498095Y-49074342D01*
X22498095Y-49074342D02*
X22498095Y-48979104D01*
X22498095Y-48979104D02*
X22450476Y-48883866D01*
X22450476Y-48883866D02*
X22402857Y-48836247D01*
X22402857Y-48836247D02*
X22307619Y-48788628D01*
X22307619Y-48788628D02*
X22117143Y-48741009D01*
X22117143Y-48741009D02*
X22021905Y-48693390D01*
X22021905Y-48693390D02*
X21974286Y-48645771D01*
X21974286Y-48645771D02*
X21926667Y-48550533D01*
X21926667Y-48550533D02*
X21926667Y-48455295D01*
X21926667Y-48455295D02*
X21974286Y-48360057D01*
X21974286Y-48360057D02*
X22021905Y-48312438D01*
X22021905Y-48312438D02*
X22117143Y-48264819D01*
X22117143Y-48264819D02*
X22355238Y-48264819D01*
X22355238Y-48264819D02*
X22498095Y-48312438D01*
X22831429Y-48264819D02*
X23069524Y-49264819D01*
X23069524Y-49264819D02*
X23260000Y-48550533D01*
X23260000Y-48550533D02*
X23450476Y-49264819D01*
X23450476Y-49264819D02*
X23688572Y-48264819D01*
X24498095Y-48264819D02*
X24307619Y-48264819D01*
X24307619Y-48264819D02*
X24212381Y-48312438D01*
X24212381Y-48312438D02*
X24164762Y-48360057D01*
X24164762Y-48360057D02*
X24069524Y-48502914D01*
X24069524Y-48502914D02*
X24021905Y-48693390D01*
X24021905Y-48693390D02*
X24021905Y-49074342D01*
X24021905Y-49074342D02*
X24069524Y-49169580D01*
X24069524Y-49169580D02*
X24117143Y-49217200D01*
X24117143Y-49217200D02*
X24212381Y-49264819D01*
X24212381Y-49264819D02*
X24402857Y-49264819D01*
X24402857Y-49264819D02*
X24498095Y-49217200D01*
X24498095Y-49217200D02*
X24545714Y-49169580D01*
X24545714Y-49169580D02*
X24593333Y-49074342D01*
X24593333Y-49074342D02*
X24593333Y-48836247D01*
X24593333Y-48836247D02*
X24545714Y-48741009D01*
X24545714Y-48741009D02*
X24498095Y-48693390D01*
X24498095Y-48693390D02*
X24402857Y-48645771D01*
X24402857Y-48645771D02*
X24212381Y-48645771D01*
X24212381Y-48645771D02*
X24117143Y-48693390D01*
X24117143Y-48693390D02*
X24069524Y-48741009D01*
X24069524Y-48741009D02*
X24021905Y-48836247D01*
X40450480Y-59217208D02*
X40593337Y-59264827D01*
X40593337Y-59264827D02*
X40831432Y-59264827D01*
X40831432Y-59264827D02*
X40926670Y-59217208D01*
X40926670Y-59217208D02*
X40974289Y-59169588D01*
X40974289Y-59169588D02*
X41021908Y-59074350D01*
X41021908Y-59074350D02*
X41021908Y-58979112D01*
X41021908Y-58979112D02*
X40974289Y-58883874D01*
X40974289Y-58883874D02*
X40926670Y-58836255D01*
X40926670Y-58836255D02*
X40831432Y-58788636D01*
X40831432Y-58788636D02*
X40640956Y-58741017D01*
X40640956Y-58741017D02*
X40545718Y-58693398D01*
X40545718Y-58693398D02*
X40498099Y-58645779D01*
X40498099Y-58645779D02*
X40450480Y-58550541D01*
X40450480Y-58550541D02*
X40450480Y-58455303D01*
X40450480Y-58455303D02*
X40498099Y-58360065D01*
X40498099Y-58360065D02*
X40545718Y-58312446D01*
X40545718Y-58312446D02*
X40640956Y-58264827D01*
X40640956Y-58264827D02*
X40879051Y-58264827D01*
X40879051Y-58264827D02*
X41021908Y-58312446D01*
X41355242Y-58264827D02*
X41593337Y-59264827D01*
X41593337Y-59264827D02*
X41783813Y-58550541D01*
X41783813Y-58550541D02*
X41974289Y-59264827D01*
X41974289Y-59264827D02*
X42212385Y-58264827D01*
X43117146Y-59264827D02*
X42545718Y-59264827D01*
X42831432Y-59264827D02*
X42831432Y-58264827D01*
X42831432Y-58264827D02*
X42736194Y-58407684D01*
X42736194Y-58407684D02*
X42640956Y-58502922D01*
X42640956Y-58502922D02*
X42545718Y-58550541D01*
X43498099Y-58360065D02*
X43545718Y-58312446D01*
X43545718Y-58312446D02*
X43640956Y-58264827D01*
X43640956Y-58264827D02*
X43879051Y-58264827D01*
X43879051Y-58264827D02*
X43974289Y-58312446D01*
X43974289Y-58312446D02*
X44021908Y-58360065D01*
X44021908Y-58360065D02*
X44069527Y-58455303D01*
X44069527Y-58455303D02*
X44069527Y-58550541D01*
X44069527Y-58550541D02*
X44021908Y-58693398D01*
X44021908Y-58693398D02*
X43450480Y-59264827D01*
X43450480Y-59264827D02*
X44069527Y-59264827D01*
X42404761Y-31634819D02*
X41833333Y-31634819D01*
X42119047Y-31634819D02*
X42119047Y-30634819D01*
X42119047Y-30634819D02*
X42023809Y-30777676D01*
X42023809Y-30777676D02*
X41928571Y-30872914D01*
X41928571Y-30872914D02*
X41833333Y-30920533D01*
X43261904Y-30968152D02*
X43261904Y-31634819D01*
X42833333Y-30968152D02*
X42833333Y-31491961D01*
X42833333Y-31491961D02*
X42880952Y-31587200D01*
X42880952Y-31587200D02*
X42976190Y-31634819D01*
X42976190Y-31634819D02*
X43119047Y-31634819D01*
X43119047Y-31634819D02*
X43214285Y-31587200D01*
X43214285Y-31587200D02*
X43261904Y-31539580D01*
X44071428Y-31111009D02*
X43738095Y-31111009D01*
X43738095Y-31634819D02*
X43738095Y-30634819D01*
X43738095Y-30634819D02*
X44214285Y-30634819D01*
D11*
X42916666Y-29679530D02*
X42892857Y-29703340D01*
X42892857Y-29703340D02*
X42821428Y-29727149D01*
X42821428Y-29727149D02*
X42773809Y-29727149D01*
X42773809Y-29727149D02*
X42702381Y-29703340D01*
X42702381Y-29703340D02*
X42654762Y-29655720D01*
X42654762Y-29655720D02*
X42630952Y-29608101D01*
X42630952Y-29608101D02*
X42607143Y-29512863D01*
X42607143Y-29512863D02*
X42607143Y-29441435D01*
X42607143Y-29441435D02*
X42630952Y-29346197D01*
X42630952Y-29346197D02*
X42654762Y-29298578D01*
X42654762Y-29298578D02*
X42702381Y-29250959D01*
X42702381Y-29250959D02*
X42773809Y-29227149D01*
X42773809Y-29227149D02*
X42821428Y-29227149D01*
X42821428Y-29227149D02*
X42892857Y-29250959D01*
X42892857Y-29250959D02*
X42916666Y-29274768D01*
X43107143Y-29274768D02*
X43130952Y-29250959D01*
X43130952Y-29250959D02*
X43178571Y-29227149D01*
X43178571Y-29227149D02*
X43297619Y-29227149D01*
X43297619Y-29227149D02*
X43345238Y-29250959D01*
X43345238Y-29250959D02*
X43369047Y-29274768D01*
X43369047Y-29274768D02*
X43392857Y-29322387D01*
X43392857Y-29322387D02*
X43392857Y-29370006D01*
X43392857Y-29370006D02*
X43369047Y-29441435D01*
X43369047Y-29441435D02*
X43083333Y-29727149D01*
X43083333Y-29727149D02*
X43392857Y-29727149D01*
D10*
X50274819Y-71832738D02*
X50274819Y-72404166D01*
X50274819Y-72118452D02*
X49274819Y-72118452D01*
X49274819Y-72118452D02*
X49417676Y-72213690D01*
X49417676Y-72213690D02*
X49512914Y-72308928D01*
X49512914Y-72308928D02*
X49560533Y-72404166D01*
X49608152Y-70975595D02*
X50274819Y-70975595D01*
X49608152Y-71404166D02*
X50131961Y-71404166D01*
X50131961Y-71404166D02*
X50227200Y-71356547D01*
X50227200Y-71356547D02*
X50274819Y-71261309D01*
X50274819Y-71261309D02*
X50274819Y-71118452D01*
X50274819Y-71118452D02*
X50227200Y-71023214D01*
X50227200Y-71023214D02*
X50179580Y-70975595D01*
X49751009Y-70166071D02*
X49751009Y-70499404D01*
X50274819Y-70499404D02*
X49274819Y-70499404D01*
X49274819Y-70499404D02*
X49274819Y-70023214D01*
D11*
X51679530Y-71558928D02*
X51703340Y-71582737D01*
X51703340Y-71582737D02*
X51727149Y-71654166D01*
X51727149Y-71654166D02*
X51727149Y-71701785D01*
X51727149Y-71701785D02*
X51703340Y-71773213D01*
X51703340Y-71773213D02*
X51655720Y-71820832D01*
X51655720Y-71820832D02*
X51608101Y-71844642D01*
X51608101Y-71844642D02*
X51512863Y-71868451D01*
X51512863Y-71868451D02*
X51441435Y-71868451D01*
X51441435Y-71868451D02*
X51346197Y-71844642D01*
X51346197Y-71844642D02*
X51298578Y-71820832D01*
X51298578Y-71820832D02*
X51250959Y-71773213D01*
X51250959Y-71773213D02*
X51227149Y-71701785D01*
X51227149Y-71701785D02*
X51227149Y-71654166D01*
X51227149Y-71654166D02*
X51250959Y-71582737D01*
X51250959Y-71582737D02*
X51274768Y-71558928D01*
X51727149Y-71082737D02*
X51727149Y-71368451D01*
X51727149Y-71225594D02*
X51227149Y-71225594D01*
X51227149Y-71225594D02*
X51298578Y-71273213D01*
X51298578Y-71273213D02*
X51346197Y-71320832D01*
X51346197Y-71320832D02*
X51370006Y-71368451D01*
X51727149Y-70844642D02*
X51727149Y-70749404D01*
X51727149Y-70749404D02*
X51703340Y-70701785D01*
X51703340Y-70701785D02*
X51679530Y-70677976D01*
X51679530Y-70677976D02*
X51608101Y-70630357D01*
X51608101Y-70630357D02*
X51512863Y-70606547D01*
X51512863Y-70606547D02*
X51322387Y-70606547D01*
X51322387Y-70606547D02*
X51274768Y-70630357D01*
X51274768Y-70630357D02*
X51250959Y-70654166D01*
X51250959Y-70654166D02*
X51227149Y-70701785D01*
X51227149Y-70701785D02*
X51227149Y-70797023D01*
X51227149Y-70797023D02*
X51250959Y-70844642D01*
X51250959Y-70844642D02*
X51274768Y-70868452D01*
X51274768Y-70868452D02*
X51322387Y-70892261D01*
X51322387Y-70892261D02*
X51441435Y-70892261D01*
X51441435Y-70892261D02*
X51489054Y-70868452D01*
X51489054Y-70868452D02*
X51512863Y-70844642D01*
X51512863Y-70844642D02*
X51536673Y-70797023D01*
X51536673Y-70797023D02*
X51536673Y-70701785D01*
X51536673Y-70701785D02*
X51512863Y-70654166D01*
X51512863Y-70654166D02*
X51489054Y-70630357D01*
X51489054Y-70630357D02*
X51441435Y-70606547D01*
D10*
X42442261Y-69634819D02*
X41870833Y-69634819D01*
X42156547Y-69634819D02*
X42156547Y-68634819D01*
X42156547Y-68634819D02*
X42061309Y-68777676D01*
X42061309Y-68777676D02*
X41966071Y-68872914D01*
X41966071Y-68872914D02*
X41870833Y-68920533D01*
X43299404Y-68968152D02*
X43299404Y-69634819D01*
X42870833Y-68968152D02*
X42870833Y-69491961D01*
X42870833Y-69491961D02*
X42918452Y-69587200D01*
X42918452Y-69587200D02*
X43013690Y-69634819D01*
X43013690Y-69634819D02*
X43156547Y-69634819D01*
X43156547Y-69634819D02*
X43251785Y-69587200D01*
X43251785Y-69587200D02*
X43299404Y-69539580D01*
X44108928Y-69111009D02*
X43775595Y-69111009D01*
X43775595Y-69634819D02*
X43775595Y-68634819D01*
X43775595Y-68634819D02*
X44251785Y-68634819D01*
D11*
X42716071Y-67679530D02*
X42692262Y-67703340D01*
X42692262Y-67703340D02*
X42620833Y-67727149D01*
X42620833Y-67727149D02*
X42573214Y-67727149D01*
X42573214Y-67727149D02*
X42501786Y-67703340D01*
X42501786Y-67703340D02*
X42454167Y-67655720D01*
X42454167Y-67655720D02*
X42430357Y-67608101D01*
X42430357Y-67608101D02*
X42406548Y-67512863D01*
X42406548Y-67512863D02*
X42406548Y-67441435D01*
X42406548Y-67441435D02*
X42430357Y-67346197D01*
X42430357Y-67346197D02*
X42454167Y-67298578D01*
X42454167Y-67298578D02*
X42501786Y-67250959D01*
X42501786Y-67250959D02*
X42573214Y-67227149D01*
X42573214Y-67227149D02*
X42620833Y-67227149D01*
X42620833Y-67227149D02*
X42692262Y-67250959D01*
X42692262Y-67250959D02*
X42716071Y-67274768D01*
X43192262Y-67727149D02*
X42906548Y-67727149D01*
X43049405Y-67727149D02*
X43049405Y-67227149D01*
X43049405Y-67227149D02*
X43001786Y-67298578D01*
X43001786Y-67298578D02*
X42954167Y-67346197D01*
X42954167Y-67346197D02*
X42906548Y-67370006D01*
X43382738Y-67274768D02*
X43406547Y-67250959D01*
X43406547Y-67250959D02*
X43454166Y-67227149D01*
X43454166Y-67227149D02*
X43573214Y-67227149D01*
X43573214Y-67227149D02*
X43620833Y-67250959D01*
X43620833Y-67250959D02*
X43644642Y-67274768D01*
X43644642Y-67274768D02*
X43668452Y-67322387D01*
X43668452Y-67322387D02*
X43668452Y-67370006D01*
X43668452Y-67370006D02*
X43644642Y-67441435D01*
X43644642Y-67441435D02*
X43358928Y-67727149D01*
X43358928Y-67727149D02*
X43668452Y-67727149D01*
D10*
X80442261Y-71634819D02*
X79870833Y-71634819D01*
X80156547Y-71634819D02*
X80156547Y-70634819D01*
X80156547Y-70634819D02*
X80061309Y-70777676D01*
X80061309Y-70777676D02*
X79966071Y-70872914D01*
X79966071Y-70872914D02*
X79870833Y-70920533D01*
X81299404Y-70968152D02*
X81299404Y-71634819D01*
X80870833Y-70968152D02*
X80870833Y-71491961D01*
X80870833Y-71491961D02*
X80918452Y-71587200D01*
X80918452Y-71587200D02*
X81013690Y-71634819D01*
X81013690Y-71634819D02*
X81156547Y-71634819D01*
X81156547Y-71634819D02*
X81251785Y-71587200D01*
X81251785Y-71587200D02*
X81299404Y-71539580D01*
X82108928Y-71111009D02*
X81775595Y-71111009D01*
X81775595Y-71634819D02*
X81775595Y-70634819D01*
X81775595Y-70634819D02*
X82251785Y-70634819D01*
D11*
X80716071Y-69679530D02*
X80692262Y-69703340D01*
X80692262Y-69703340D02*
X80620833Y-69727149D01*
X80620833Y-69727149D02*
X80573214Y-69727149D01*
X80573214Y-69727149D02*
X80501786Y-69703340D01*
X80501786Y-69703340D02*
X80454167Y-69655720D01*
X80454167Y-69655720D02*
X80430357Y-69608101D01*
X80430357Y-69608101D02*
X80406548Y-69512863D01*
X80406548Y-69512863D02*
X80406548Y-69441435D01*
X80406548Y-69441435D02*
X80430357Y-69346197D01*
X80430357Y-69346197D02*
X80454167Y-69298578D01*
X80454167Y-69298578D02*
X80501786Y-69250959D01*
X80501786Y-69250959D02*
X80573214Y-69227149D01*
X80573214Y-69227149D02*
X80620833Y-69227149D01*
X80620833Y-69227149D02*
X80692262Y-69250959D01*
X80692262Y-69250959D02*
X80716071Y-69274768D01*
X81192262Y-69727149D02*
X80906548Y-69727149D01*
X81049405Y-69727149D02*
X81049405Y-69227149D01*
X81049405Y-69227149D02*
X81001786Y-69298578D01*
X81001786Y-69298578D02*
X80954167Y-69346197D01*
X80954167Y-69346197D02*
X80906548Y-69370006D01*
X81620833Y-69393816D02*
X81620833Y-69727149D01*
X81501785Y-69203340D02*
X81382738Y-69560482D01*
X81382738Y-69560482D02*
X81692261Y-69560482D01*
D10*
X88450476Y-89217200D02*
X88593333Y-89264819D01*
X88593333Y-89264819D02*
X88831428Y-89264819D01*
X88831428Y-89264819D02*
X88926666Y-89217200D01*
X88926666Y-89217200D02*
X88974285Y-89169580D01*
X88974285Y-89169580D02*
X89021904Y-89074342D01*
X89021904Y-89074342D02*
X89021904Y-88979104D01*
X89021904Y-88979104D02*
X88974285Y-88883866D01*
X88974285Y-88883866D02*
X88926666Y-88836247D01*
X88926666Y-88836247D02*
X88831428Y-88788628D01*
X88831428Y-88788628D02*
X88640952Y-88741009D01*
X88640952Y-88741009D02*
X88545714Y-88693390D01*
X88545714Y-88693390D02*
X88498095Y-88645771D01*
X88498095Y-88645771D02*
X88450476Y-88550533D01*
X88450476Y-88550533D02*
X88450476Y-88455295D01*
X88450476Y-88455295D02*
X88498095Y-88360057D01*
X88498095Y-88360057D02*
X88545714Y-88312438D01*
X88545714Y-88312438D02*
X88640952Y-88264819D01*
X88640952Y-88264819D02*
X88879047Y-88264819D01*
X88879047Y-88264819D02*
X89021904Y-88312438D01*
X89355238Y-88264819D02*
X89593333Y-89264819D01*
X89593333Y-89264819D02*
X89783809Y-88550533D01*
X89783809Y-88550533D02*
X89974285Y-89264819D01*
X89974285Y-89264819D02*
X90212381Y-88264819D01*
X91117142Y-89264819D02*
X90545714Y-89264819D01*
X90831428Y-89264819D02*
X90831428Y-88264819D01*
X90831428Y-88264819D02*
X90736190Y-88407676D01*
X90736190Y-88407676D02*
X90640952Y-88502914D01*
X90640952Y-88502914D02*
X90545714Y-88550533D01*
X91450476Y-88264819D02*
X92117142Y-88264819D01*
X92117142Y-88264819D02*
X91688571Y-89264819D01*
X99442261Y-73634819D02*
X98870833Y-73634819D01*
X99156547Y-73634819D02*
X99156547Y-72634819D01*
X99156547Y-72634819D02*
X99061309Y-72777676D01*
X99061309Y-72777676D02*
X98966071Y-72872914D01*
X98966071Y-72872914D02*
X98870833Y-72920533D01*
X100299404Y-72968152D02*
X100299404Y-73634819D01*
X99870833Y-72968152D02*
X99870833Y-73491961D01*
X99870833Y-73491961D02*
X99918452Y-73587200D01*
X99918452Y-73587200D02*
X100013690Y-73634819D01*
X100013690Y-73634819D02*
X100156547Y-73634819D01*
X100156547Y-73634819D02*
X100251785Y-73587200D01*
X100251785Y-73587200D02*
X100299404Y-73539580D01*
X101108928Y-73111009D02*
X100775595Y-73111009D01*
X100775595Y-73634819D02*
X100775595Y-72634819D01*
X100775595Y-72634819D02*
X101251785Y-72634819D01*
D11*
X99716071Y-71679530D02*
X99692262Y-71703340D01*
X99692262Y-71703340D02*
X99620833Y-71727149D01*
X99620833Y-71727149D02*
X99573214Y-71727149D01*
X99573214Y-71727149D02*
X99501786Y-71703340D01*
X99501786Y-71703340D02*
X99454167Y-71655720D01*
X99454167Y-71655720D02*
X99430357Y-71608101D01*
X99430357Y-71608101D02*
X99406548Y-71512863D01*
X99406548Y-71512863D02*
X99406548Y-71441435D01*
X99406548Y-71441435D02*
X99430357Y-71346197D01*
X99430357Y-71346197D02*
X99454167Y-71298578D01*
X99454167Y-71298578D02*
X99501786Y-71250959D01*
X99501786Y-71250959D02*
X99573214Y-71227149D01*
X99573214Y-71227149D02*
X99620833Y-71227149D01*
X99620833Y-71227149D02*
X99692262Y-71250959D01*
X99692262Y-71250959D02*
X99716071Y-71274768D01*
X100192262Y-71727149D02*
X99906548Y-71727149D01*
X100049405Y-71727149D02*
X100049405Y-71227149D01*
X100049405Y-71227149D02*
X100001786Y-71298578D01*
X100001786Y-71298578D02*
X99954167Y-71346197D01*
X99954167Y-71346197D02*
X99906548Y-71370006D01*
X100644642Y-71227149D02*
X100406547Y-71227149D01*
X100406547Y-71227149D02*
X100382738Y-71465244D01*
X100382738Y-71465244D02*
X100406547Y-71441435D01*
X100406547Y-71441435D02*
X100454166Y-71417625D01*
X100454166Y-71417625D02*
X100573214Y-71417625D01*
X100573214Y-71417625D02*
X100620833Y-71441435D01*
X100620833Y-71441435D02*
X100644642Y-71465244D01*
X100644642Y-71465244D02*
X100668452Y-71512863D01*
X100668452Y-71512863D02*
X100668452Y-71631911D01*
X100668452Y-71631911D02*
X100644642Y-71679530D01*
X100644642Y-71679530D02*
X100620833Y-71703340D01*
X100620833Y-71703340D02*
X100573214Y-71727149D01*
X100573214Y-71727149D02*
X100454166Y-71727149D01*
X100454166Y-71727149D02*
X100406547Y-71703340D01*
X100406547Y-71703340D02*
X100382738Y-71679530D01*
D10*
X107440476Y-92217200D02*
X107583333Y-92264819D01*
X107583333Y-92264819D02*
X107821428Y-92264819D01*
X107821428Y-92264819D02*
X107916666Y-92217200D01*
X107916666Y-92217200D02*
X107964285Y-92169580D01*
X107964285Y-92169580D02*
X108011904Y-92074342D01*
X108011904Y-92074342D02*
X108011904Y-91979104D01*
X108011904Y-91979104D02*
X107964285Y-91883866D01*
X107964285Y-91883866D02*
X107916666Y-91836247D01*
X107916666Y-91836247D02*
X107821428Y-91788628D01*
X107821428Y-91788628D02*
X107630952Y-91741009D01*
X107630952Y-91741009D02*
X107535714Y-91693390D01*
X107535714Y-91693390D02*
X107488095Y-91645771D01*
X107488095Y-91645771D02*
X107440476Y-91550533D01*
X107440476Y-91550533D02*
X107440476Y-91455295D01*
X107440476Y-91455295D02*
X107488095Y-91360057D01*
X107488095Y-91360057D02*
X107535714Y-91312438D01*
X107535714Y-91312438D02*
X107630952Y-91264819D01*
X107630952Y-91264819D02*
X107869047Y-91264819D01*
X107869047Y-91264819D02*
X108011904Y-91312438D01*
X108345238Y-91264819D02*
X108583333Y-92264819D01*
X108583333Y-92264819D02*
X108773809Y-91550533D01*
X108773809Y-91550533D02*
X108964285Y-92264819D01*
X108964285Y-92264819D02*
X109202381Y-91264819D01*
X110107142Y-92264819D02*
X109535714Y-92264819D01*
X109821428Y-92264819D02*
X109821428Y-91264819D01*
X109821428Y-91264819D02*
X109726190Y-91407676D01*
X109726190Y-91407676D02*
X109630952Y-91502914D01*
X109630952Y-91502914D02*
X109535714Y-91550533D01*
X110678571Y-91693390D02*
X110583333Y-91645771D01*
X110583333Y-91645771D02*
X110535714Y-91598152D01*
X110535714Y-91598152D02*
X110488095Y-91502914D01*
X110488095Y-91502914D02*
X110488095Y-91455295D01*
X110488095Y-91455295D02*
X110535714Y-91360057D01*
X110535714Y-91360057D02*
X110583333Y-91312438D01*
X110583333Y-91312438D02*
X110678571Y-91264819D01*
X110678571Y-91264819D02*
X110869047Y-91264819D01*
X110869047Y-91264819D02*
X110964285Y-91312438D01*
X110964285Y-91312438D02*
X111011904Y-91360057D01*
X111011904Y-91360057D02*
X111059523Y-91455295D01*
X111059523Y-91455295D02*
X111059523Y-91502914D01*
X111059523Y-91502914D02*
X111011904Y-91598152D01*
X111011904Y-91598152D02*
X110964285Y-91645771D01*
X110964285Y-91645771D02*
X110869047Y-91693390D01*
X110869047Y-91693390D02*
X110678571Y-91693390D01*
X110678571Y-91693390D02*
X110583333Y-91741009D01*
X110583333Y-91741009D02*
X110535714Y-91788628D01*
X110535714Y-91788628D02*
X110488095Y-91883866D01*
X110488095Y-91883866D02*
X110488095Y-92074342D01*
X110488095Y-92074342D02*
X110535714Y-92169580D01*
X110535714Y-92169580D02*
X110583333Y-92217200D01*
X110583333Y-92217200D02*
X110678571Y-92264819D01*
X110678571Y-92264819D02*
X110869047Y-92264819D01*
X110869047Y-92264819D02*
X110964285Y-92217200D01*
X110964285Y-92217200D02*
X111011904Y-92169580D01*
X111011904Y-92169580D02*
X111059523Y-92074342D01*
X111059523Y-92074342D02*
X111059523Y-91883866D01*
X111059523Y-91883866D02*
X111011904Y-91788628D01*
X111011904Y-91788628D02*
X110964285Y-91741009D01*
X110964285Y-91741009D02*
X110869047Y-91693390D01*
X61442261Y-66634819D02*
X60870833Y-66634819D01*
X61156547Y-66634819D02*
X61156547Y-65634819D01*
X61156547Y-65634819D02*
X61061309Y-65777676D01*
X61061309Y-65777676D02*
X60966071Y-65872914D01*
X60966071Y-65872914D02*
X60870833Y-65920533D01*
X62299404Y-65968152D02*
X62299404Y-66634819D01*
X61870833Y-65968152D02*
X61870833Y-66491961D01*
X61870833Y-66491961D02*
X61918452Y-66587200D01*
X61918452Y-66587200D02*
X62013690Y-66634819D01*
X62013690Y-66634819D02*
X62156547Y-66634819D01*
X62156547Y-66634819D02*
X62251785Y-66587200D01*
X62251785Y-66587200D02*
X62299404Y-66539580D01*
X63108928Y-66111009D02*
X62775595Y-66111009D01*
X62775595Y-66634819D02*
X62775595Y-65634819D01*
X62775595Y-65634819D02*
X63251785Y-65634819D01*
D11*
X61716071Y-64679530D02*
X61692262Y-64703340D01*
X61692262Y-64703340D02*
X61620833Y-64727149D01*
X61620833Y-64727149D02*
X61573214Y-64727149D01*
X61573214Y-64727149D02*
X61501786Y-64703340D01*
X61501786Y-64703340D02*
X61454167Y-64655720D01*
X61454167Y-64655720D02*
X61430357Y-64608101D01*
X61430357Y-64608101D02*
X61406548Y-64512863D01*
X61406548Y-64512863D02*
X61406548Y-64441435D01*
X61406548Y-64441435D02*
X61430357Y-64346197D01*
X61430357Y-64346197D02*
X61454167Y-64298578D01*
X61454167Y-64298578D02*
X61501786Y-64250959D01*
X61501786Y-64250959D02*
X61573214Y-64227149D01*
X61573214Y-64227149D02*
X61620833Y-64227149D01*
X61620833Y-64227149D02*
X61692262Y-64250959D01*
X61692262Y-64250959D02*
X61716071Y-64274768D01*
X62192262Y-64727149D02*
X61906548Y-64727149D01*
X62049405Y-64727149D02*
X62049405Y-64227149D01*
X62049405Y-64227149D02*
X62001786Y-64298578D01*
X62001786Y-64298578D02*
X61954167Y-64346197D01*
X61954167Y-64346197D02*
X61906548Y-64370006D01*
X62358928Y-64227149D02*
X62668452Y-64227149D01*
X62668452Y-64227149D02*
X62501785Y-64417625D01*
X62501785Y-64417625D02*
X62573214Y-64417625D01*
X62573214Y-64417625D02*
X62620833Y-64441435D01*
X62620833Y-64441435D02*
X62644642Y-64465244D01*
X62644642Y-64465244D02*
X62668452Y-64512863D01*
X62668452Y-64512863D02*
X62668452Y-64631911D01*
X62668452Y-64631911D02*
X62644642Y-64679530D01*
X62644642Y-64679530D02*
X62620833Y-64703340D01*
X62620833Y-64703340D02*
X62573214Y-64727149D01*
X62573214Y-64727149D02*
X62430357Y-64727149D01*
X62430357Y-64727149D02*
X62382738Y-64703340D01*
X62382738Y-64703340D02*
X62358928Y-64679530D01*
D10*
X79274819Y-75895238D02*
X79274819Y-76466666D01*
X79274819Y-76180952D02*
X78274819Y-76180952D01*
X78274819Y-76180952D02*
X78417676Y-76276190D01*
X78417676Y-76276190D02*
X78512914Y-76371428D01*
X78512914Y-76371428D02*
X78560533Y-76466666D01*
X78608152Y-75038095D02*
X79274819Y-75038095D01*
X78608152Y-75466666D02*
X79131961Y-75466666D01*
X79131961Y-75466666D02*
X79227200Y-75419047D01*
X79227200Y-75419047D02*
X79274819Y-75323809D01*
X79274819Y-75323809D02*
X79274819Y-75180952D01*
X79274819Y-75180952D02*
X79227200Y-75085714D01*
X79227200Y-75085714D02*
X79179580Y-75038095D01*
X78751009Y-74228571D02*
X78751009Y-74561904D01*
X79274819Y-74561904D02*
X78274819Y-74561904D01*
X78274819Y-74561904D02*
X78274819Y-74085714D01*
D11*
X80679530Y-75621428D02*
X80703340Y-75645237D01*
X80703340Y-75645237D02*
X80727149Y-75716666D01*
X80727149Y-75716666D02*
X80727149Y-75764285D01*
X80727149Y-75764285D02*
X80703340Y-75835713D01*
X80703340Y-75835713D02*
X80655720Y-75883332D01*
X80655720Y-75883332D02*
X80608101Y-75907142D01*
X80608101Y-75907142D02*
X80512863Y-75930951D01*
X80512863Y-75930951D02*
X80441435Y-75930951D01*
X80441435Y-75930951D02*
X80346197Y-75907142D01*
X80346197Y-75907142D02*
X80298578Y-75883332D01*
X80298578Y-75883332D02*
X80250959Y-75835713D01*
X80250959Y-75835713D02*
X80227149Y-75764285D01*
X80227149Y-75764285D02*
X80227149Y-75716666D01*
X80227149Y-75716666D02*
X80250959Y-75645237D01*
X80250959Y-75645237D02*
X80274768Y-75621428D01*
X80274768Y-75430951D02*
X80250959Y-75407142D01*
X80250959Y-75407142D02*
X80227149Y-75359523D01*
X80227149Y-75359523D02*
X80227149Y-75240475D01*
X80227149Y-75240475D02*
X80250959Y-75192856D01*
X80250959Y-75192856D02*
X80274768Y-75169047D01*
X80274768Y-75169047D02*
X80322387Y-75145237D01*
X80322387Y-75145237D02*
X80370006Y-75145237D01*
X80370006Y-75145237D02*
X80441435Y-75169047D01*
X80441435Y-75169047D02*
X80727149Y-75454761D01*
X80727149Y-75454761D02*
X80727149Y-75145237D01*
X80727149Y-74669047D02*
X80727149Y-74954761D01*
X80727149Y-74811904D02*
X80227149Y-74811904D01*
X80227149Y-74811904D02*
X80298578Y-74859523D01*
X80298578Y-74859523D02*
X80346197Y-74907142D01*
X80346197Y-74907142D02*
X80370006Y-74954761D01*
D10*
X80404761Y-33634819D02*
X79833333Y-33634819D01*
X80119047Y-33634819D02*
X80119047Y-32634819D01*
X80119047Y-32634819D02*
X80023809Y-32777676D01*
X80023809Y-32777676D02*
X79928571Y-32872914D01*
X79928571Y-32872914D02*
X79833333Y-32920533D01*
X81261904Y-32968152D02*
X81261904Y-33634819D01*
X80833333Y-32968152D02*
X80833333Y-33491961D01*
X80833333Y-33491961D02*
X80880952Y-33587200D01*
X80880952Y-33587200D02*
X80976190Y-33634819D01*
X80976190Y-33634819D02*
X81119047Y-33634819D01*
X81119047Y-33634819D02*
X81214285Y-33587200D01*
X81214285Y-33587200D02*
X81261904Y-33539580D01*
X82071428Y-33111009D02*
X81738095Y-33111009D01*
X81738095Y-33634819D02*
X81738095Y-32634819D01*
X81738095Y-32634819D02*
X82214285Y-32634819D01*
D11*
X80916666Y-31679530D02*
X80892857Y-31703340D01*
X80892857Y-31703340D02*
X80821428Y-31727149D01*
X80821428Y-31727149D02*
X80773809Y-31727149D01*
X80773809Y-31727149D02*
X80702381Y-31703340D01*
X80702381Y-31703340D02*
X80654762Y-31655720D01*
X80654762Y-31655720D02*
X80630952Y-31608101D01*
X80630952Y-31608101D02*
X80607143Y-31512863D01*
X80607143Y-31512863D02*
X80607143Y-31441435D01*
X80607143Y-31441435D02*
X80630952Y-31346197D01*
X80630952Y-31346197D02*
X80654762Y-31298578D01*
X80654762Y-31298578D02*
X80702381Y-31250959D01*
X80702381Y-31250959D02*
X80773809Y-31227149D01*
X80773809Y-31227149D02*
X80821428Y-31227149D01*
X80821428Y-31227149D02*
X80892857Y-31250959D01*
X80892857Y-31250959D02*
X80916666Y-31274768D01*
X81345238Y-31393816D02*
X81345238Y-31727149D01*
X81226190Y-31203340D02*
X81107143Y-31560482D01*
X81107143Y-31560482D02*
X81416666Y-31560482D01*
D10*
X80404761Y-52634819D02*
X79833333Y-52634819D01*
X80119047Y-52634819D02*
X80119047Y-51634819D01*
X80119047Y-51634819D02*
X80023809Y-51777676D01*
X80023809Y-51777676D02*
X79928571Y-51872914D01*
X79928571Y-51872914D02*
X79833333Y-51920533D01*
X81261904Y-51968152D02*
X81261904Y-52634819D01*
X80833333Y-51968152D02*
X80833333Y-52491961D01*
X80833333Y-52491961D02*
X80880952Y-52587200D01*
X80880952Y-52587200D02*
X80976190Y-52634819D01*
X80976190Y-52634819D02*
X81119047Y-52634819D01*
X81119047Y-52634819D02*
X81214285Y-52587200D01*
X81214285Y-52587200D02*
X81261904Y-52539580D01*
X82071428Y-52111009D02*
X81738095Y-52111009D01*
X81738095Y-52634819D02*
X81738095Y-51634819D01*
X81738095Y-51634819D02*
X82214285Y-51634819D01*
D11*
X80916666Y-50679530D02*
X80892857Y-50703340D01*
X80892857Y-50703340D02*
X80821428Y-50727149D01*
X80821428Y-50727149D02*
X80773809Y-50727149D01*
X80773809Y-50727149D02*
X80702381Y-50703340D01*
X80702381Y-50703340D02*
X80654762Y-50655720D01*
X80654762Y-50655720D02*
X80630952Y-50608101D01*
X80630952Y-50608101D02*
X80607143Y-50512863D01*
X80607143Y-50512863D02*
X80607143Y-50441435D01*
X80607143Y-50441435D02*
X80630952Y-50346197D01*
X80630952Y-50346197D02*
X80654762Y-50298578D01*
X80654762Y-50298578D02*
X80702381Y-50250959D01*
X80702381Y-50250959D02*
X80773809Y-50227149D01*
X80773809Y-50227149D02*
X80821428Y-50227149D01*
X80821428Y-50227149D02*
X80892857Y-50250959D01*
X80892857Y-50250959D02*
X80916666Y-50274768D01*
X81154762Y-50727149D02*
X81250000Y-50727149D01*
X81250000Y-50727149D02*
X81297619Y-50703340D01*
X81297619Y-50703340D02*
X81321428Y-50679530D01*
X81321428Y-50679530D02*
X81369047Y-50608101D01*
X81369047Y-50608101D02*
X81392857Y-50512863D01*
X81392857Y-50512863D02*
X81392857Y-50322387D01*
X81392857Y-50322387D02*
X81369047Y-50274768D01*
X81369047Y-50274768D02*
X81345238Y-50250959D01*
X81345238Y-50250959D02*
X81297619Y-50227149D01*
X81297619Y-50227149D02*
X81202381Y-50227149D01*
X81202381Y-50227149D02*
X81154762Y-50250959D01*
X81154762Y-50250959D02*
X81130952Y-50274768D01*
X81130952Y-50274768D02*
X81107143Y-50322387D01*
X81107143Y-50322387D02*
X81107143Y-50441435D01*
X81107143Y-50441435D02*
X81130952Y-50489054D01*
X81130952Y-50489054D02*
X81154762Y-50512863D01*
X81154762Y-50512863D02*
X81202381Y-50536673D01*
X81202381Y-50536673D02*
X81297619Y-50536673D01*
X81297619Y-50536673D02*
X81345238Y-50512863D01*
X81345238Y-50512863D02*
X81369047Y-50489054D01*
X81369047Y-50489054D02*
X81392857Y-50441435D01*
D10*
X59926671Y-18217208D02*
X60069528Y-18264827D01*
X60069528Y-18264827D02*
X60307623Y-18264827D01*
X60307623Y-18264827D02*
X60402861Y-18217208D01*
X60402861Y-18217208D02*
X60450480Y-18169588D01*
X60450480Y-18169588D02*
X60498099Y-18074350D01*
X60498099Y-18074350D02*
X60498099Y-17979112D01*
X60498099Y-17979112D02*
X60450480Y-17883874D01*
X60450480Y-17883874D02*
X60402861Y-17836255D01*
X60402861Y-17836255D02*
X60307623Y-17788636D01*
X60307623Y-17788636D02*
X60117147Y-17741017D01*
X60117147Y-17741017D02*
X60021909Y-17693398D01*
X60021909Y-17693398D02*
X59974290Y-17645779D01*
X59974290Y-17645779D02*
X59926671Y-17550541D01*
X59926671Y-17550541D02*
X59926671Y-17455303D01*
X59926671Y-17455303D02*
X59974290Y-17360065D01*
X59974290Y-17360065D02*
X60021909Y-17312446D01*
X60021909Y-17312446D02*
X60117147Y-17264827D01*
X60117147Y-17264827D02*
X60355242Y-17264827D01*
X60355242Y-17264827D02*
X60498099Y-17312446D01*
X60831433Y-17264827D02*
X61069528Y-18264827D01*
X61069528Y-18264827D02*
X61260004Y-17550541D01*
X61260004Y-17550541D02*
X61450480Y-18264827D01*
X61450480Y-18264827D02*
X61688576Y-17264827D01*
X61974290Y-17264827D02*
X62593337Y-17264827D01*
X62593337Y-17264827D02*
X62260004Y-17645779D01*
X62260004Y-17645779D02*
X62402861Y-17645779D01*
X62402861Y-17645779D02*
X62498099Y-17693398D01*
X62498099Y-17693398D02*
X62545718Y-17741017D01*
X62545718Y-17741017D02*
X62593337Y-17836255D01*
X62593337Y-17836255D02*
X62593337Y-18074350D01*
X62593337Y-18074350D02*
X62545718Y-18169588D01*
X62545718Y-18169588D02*
X62498099Y-18217208D01*
X62498099Y-18217208D02*
X62402861Y-18264827D01*
X62402861Y-18264827D02*
X62117147Y-18264827D01*
X62117147Y-18264827D02*
X62021909Y-18217208D01*
X62021909Y-18217208D02*
X61974290Y-18169588D01*
X109442261Y-102634819D02*
X108870833Y-102634819D01*
X109156547Y-102634819D02*
X109156547Y-101634819D01*
X109156547Y-101634819D02*
X109061309Y-101777676D01*
X109061309Y-101777676D02*
X108966071Y-101872914D01*
X108966071Y-101872914D02*
X108870833Y-101920533D01*
X110299404Y-101968152D02*
X110299404Y-102634819D01*
X109870833Y-101968152D02*
X109870833Y-102491961D01*
X109870833Y-102491961D02*
X109918452Y-102587200D01*
X109918452Y-102587200D02*
X110013690Y-102634819D01*
X110013690Y-102634819D02*
X110156547Y-102634819D01*
X110156547Y-102634819D02*
X110251785Y-102587200D01*
X110251785Y-102587200D02*
X110299404Y-102539580D01*
X111108928Y-102111009D02*
X110775595Y-102111009D01*
X110775595Y-102634819D02*
X110775595Y-101634819D01*
X110775595Y-101634819D02*
X111251785Y-101634819D01*
D11*
X109716071Y-100679530D02*
X109692262Y-100703340D01*
X109692262Y-100703340D02*
X109620833Y-100727149D01*
X109620833Y-100727149D02*
X109573214Y-100727149D01*
X109573214Y-100727149D02*
X109501786Y-100703340D01*
X109501786Y-100703340D02*
X109454167Y-100655720D01*
X109454167Y-100655720D02*
X109430357Y-100608101D01*
X109430357Y-100608101D02*
X109406548Y-100512863D01*
X109406548Y-100512863D02*
X109406548Y-100441435D01*
X109406548Y-100441435D02*
X109430357Y-100346197D01*
X109430357Y-100346197D02*
X109454167Y-100298578D01*
X109454167Y-100298578D02*
X109501786Y-100250959D01*
X109501786Y-100250959D02*
X109573214Y-100227149D01*
X109573214Y-100227149D02*
X109620833Y-100227149D01*
X109620833Y-100227149D02*
X109692262Y-100250959D01*
X109692262Y-100250959D02*
X109716071Y-100274768D01*
X110192262Y-100727149D02*
X109906548Y-100727149D01*
X110049405Y-100727149D02*
X110049405Y-100227149D01*
X110049405Y-100227149D02*
X110001786Y-100298578D01*
X110001786Y-100298578D02*
X109954167Y-100346197D01*
X109954167Y-100346197D02*
X109906548Y-100370006D01*
X110477976Y-100441435D02*
X110430357Y-100417625D01*
X110430357Y-100417625D02*
X110406547Y-100393816D01*
X110406547Y-100393816D02*
X110382738Y-100346197D01*
X110382738Y-100346197D02*
X110382738Y-100322387D01*
X110382738Y-100322387D02*
X110406547Y-100274768D01*
X110406547Y-100274768D02*
X110430357Y-100250959D01*
X110430357Y-100250959D02*
X110477976Y-100227149D01*
X110477976Y-100227149D02*
X110573214Y-100227149D01*
X110573214Y-100227149D02*
X110620833Y-100250959D01*
X110620833Y-100250959D02*
X110644642Y-100274768D01*
X110644642Y-100274768D02*
X110668452Y-100322387D01*
X110668452Y-100322387D02*
X110668452Y-100346197D01*
X110668452Y-100346197D02*
X110644642Y-100393816D01*
X110644642Y-100393816D02*
X110620833Y-100417625D01*
X110620833Y-100417625D02*
X110573214Y-100441435D01*
X110573214Y-100441435D02*
X110477976Y-100441435D01*
X110477976Y-100441435D02*
X110430357Y-100465244D01*
X110430357Y-100465244D02*
X110406547Y-100489054D01*
X110406547Y-100489054D02*
X110382738Y-100536673D01*
X110382738Y-100536673D02*
X110382738Y-100631911D01*
X110382738Y-100631911D02*
X110406547Y-100679530D01*
X110406547Y-100679530D02*
X110430357Y-100703340D01*
X110430357Y-100703340D02*
X110477976Y-100727149D01*
X110477976Y-100727149D02*
X110573214Y-100727149D01*
X110573214Y-100727149D02*
X110620833Y-100703340D01*
X110620833Y-100703340D02*
X110644642Y-100679530D01*
X110644642Y-100679530D02*
X110668452Y-100631911D01*
X110668452Y-100631911D02*
X110668452Y-100536673D01*
X110668452Y-100536673D02*
X110644642Y-100489054D01*
X110644642Y-100489054D02*
X110620833Y-100465244D01*
X110620833Y-100465244D02*
X110573214Y-100441435D01*
D10*
X114529104Y-84886190D02*
X114529104Y-84410000D01*
X114814819Y-84981428D02*
X113814819Y-84648095D01*
X113814819Y-84648095D02*
X114814819Y-84314762D01*
X114148152Y-83552857D02*
X114814819Y-83552857D01*
X114148152Y-83981428D02*
X114671961Y-83981428D01*
X114671961Y-83981428D02*
X114767200Y-83933809D01*
X114767200Y-83933809D02*
X114814819Y-83838571D01*
X114814819Y-83838571D02*
X114814819Y-83695714D01*
X114814819Y-83695714D02*
X114767200Y-83600476D01*
X114767200Y-83600476D02*
X114719580Y-83552857D01*
X114814819Y-82648095D02*
X113814819Y-82648095D01*
X114767200Y-82648095D02*
X114814819Y-82743333D01*
X114814819Y-82743333D02*
X114814819Y-82933809D01*
X114814819Y-82933809D02*
X114767200Y-83029047D01*
X114767200Y-83029047D02*
X114719580Y-83076666D01*
X114719580Y-83076666D02*
X114624342Y-83124285D01*
X114624342Y-83124285D02*
X114338628Y-83124285D01*
X114338628Y-83124285D02*
X114243390Y-83076666D01*
X114243390Y-83076666D02*
X114195771Y-83029047D01*
X114195771Y-83029047D02*
X114148152Y-82933809D01*
X114148152Y-82933809D02*
X114148152Y-82743333D01*
X114148152Y-82743333D02*
X114195771Y-82648095D01*
X114814819Y-82171904D02*
X114148152Y-82171904D01*
X113814819Y-82171904D02*
X113862438Y-82219523D01*
X113862438Y-82219523D02*
X113910057Y-82171904D01*
X113910057Y-82171904D02*
X113862438Y-82124285D01*
X113862438Y-82124285D02*
X113814819Y-82171904D01*
X113814819Y-82171904D02*
X113910057Y-82171904D01*
X114814819Y-81552857D02*
X114767200Y-81648095D01*
X114767200Y-81648095D02*
X114719580Y-81695714D01*
X114719580Y-81695714D02*
X114624342Y-81743333D01*
X114624342Y-81743333D02*
X114338628Y-81743333D01*
X114338628Y-81743333D02*
X114243390Y-81695714D01*
X114243390Y-81695714D02*
X114195771Y-81648095D01*
X114195771Y-81648095D02*
X114148152Y-81552857D01*
X114148152Y-81552857D02*
X114148152Y-81410000D01*
X114148152Y-81410000D02*
X114195771Y-81314762D01*
X114195771Y-81314762D02*
X114243390Y-81267143D01*
X114243390Y-81267143D02*
X114338628Y-81219524D01*
X114338628Y-81219524D02*
X114624342Y-81219524D01*
X114624342Y-81219524D02*
X114719580Y-81267143D01*
X114719580Y-81267143D02*
X114767200Y-81314762D01*
X114767200Y-81314762D02*
X114814819Y-81410000D01*
X114814819Y-81410000D02*
X114814819Y-81552857D01*
X113814819Y-80505238D02*
X114529104Y-80505238D01*
X114529104Y-80505238D02*
X114671961Y-80552857D01*
X114671961Y-80552857D02*
X114767200Y-80648095D01*
X114767200Y-80648095D02*
X114814819Y-80790952D01*
X114814819Y-80790952D02*
X114814819Y-80886190D01*
X114814819Y-79600476D02*
X114291009Y-79600476D01*
X114291009Y-79600476D02*
X114195771Y-79648095D01*
X114195771Y-79648095D02*
X114148152Y-79743333D01*
X114148152Y-79743333D02*
X114148152Y-79933809D01*
X114148152Y-79933809D02*
X114195771Y-80029047D01*
X114767200Y-79600476D02*
X114814819Y-79695714D01*
X114814819Y-79695714D02*
X114814819Y-79933809D01*
X114814819Y-79933809D02*
X114767200Y-80029047D01*
X114767200Y-80029047D02*
X114671961Y-80076666D01*
X114671961Y-80076666D02*
X114576723Y-80076666D01*
X114576723Y-80076666D02*
X114481485Y-80029047D01*
X114481485Y-80029047D02*
X114433866Y-79933809D01*
X114433866Y-79933809D02*
X114433866Y-79695714D01*
X114433866Y-79695714D02*
X114386247Y-79600476D01*
X114767200Y-78695714D02*
X114814819Y-78790952D01*
X114814819Y-78790952D02*
X114814819Y-78981428D01*
X114814819Y-78981428D02*
X114767200Y-79076666D01*
X114767200Y-79076666D02*
X114719580Y-79124285D01*
X114719580Y-79124285D02*
X114624342Y-79171904D01*
X114624342Y-79171904D02*
X114338628Y-79171904D01*
X114338628Y-79171904D02*
X114243390Y-79124285D01*
X114243390Y-79124285D02*
X114195771Y-79076666D01*
X114195771Y-79076666D02*
X114148152Y-78981428D01*
X114148152Y-78981428D02*
X114148152Y-78790952D01*
X114148152Y-78790952D02*
X114195771Y-78695714D01*
X114814819Y-78267142D02*
X113814819Y-78267142D01*
X114433866Y-78171904D02*
X114814819Y-77886190D01*
X114148152Y-77886190D02*
X114529104Y-78267142D01*
X114148152Y-77029047D02*
X114814819Y-77029047D01*
X113767200Y-77267142D02*
X114481485Y-77505237D01*
X114481485Y-77505237D02*
X114481485Y-76886190D01*
D12*
X97645300Y-82709999D02*
X97678633Y-82609999D01*
X97678633Y-82609999D02*
X97678633Y-82443333D01*
X97678633Y-82443333D02*
X97645300Y-82376666D01*
X97645300Y-82376666D02*
X97611966Y-82343333D01*
X97611966Y-82343333D02*
X97545300Y-82309999D01*
X97545300Y-82309999D02*
X97478633Y-82309999D01*
X97478633Y-82309999D02*
X97411966Y-82343333D01*
X97411966Y-82343333D02*
X97378633Y-82376666D01*
X97378633Y-82376666D02*
X97345300Y-82443333D01*
X97345300Y-82443333D02*
X97311966Y-82576666D01*
X97311966Y-82576666D02*
X97278633Y-82643333D01*
X97278633Y-82643333D02*
X97245300Y-82676666D01*
X97245300Y-82676666D02*
X97178633Y-82709999D01*
X97178633Y-82709999D02*
X97111966Y-82709999D01*
X97111966Y-82709999D02*
X97045300Y-82676666D01*
X97045300Y-82676666D02*
X97011966Y-82643333D01*
X97011966Y-82643333D02*
X96978633Y-82576666D01*
X96978633Y-82576666D02*
X96978633Y-82409999D01*
X96978633Y-82409999D02*
X97011966Y-82309999D01*
X97678633Y-81909999D02*
X97645300Y-81976666D01*
X97645300Y-81976666D02*
X97578633Y-82009999D01*
X97578633Y-82009999D02*
X96978633Y-82009999D01*
X97645300Y-81376665D02*
X97678633Y-81443332D01*
X97678633Y-81443332D02*
X97678633Y-81576665D01*
X97678633Y-81576665D02*
X97645300Y-81643332D01*
X97645300Y-81643332D02*
X97578633Y-81676665D01*
X97578633Y-81676665D02*
X97311966Y-81676665D01*
X97311966Y-81676665D02*
X97245300Y-81643332D01*
X97245300Y-81643332D02*
X97211966Y-81576665D01*
X97211966Y-81576665D02*
X97211966Y-81443332D01*
X97211966Y-81443332D02*
X97245300Y-81376665D01*
X97245300Y-81376665D02*
X97311966Y-81343332D01*
X97311966Y-81343332D02*
X97378633Y-81343332D01*
X97378633Y-81343332D02*
X97445300Y-81676665D01*
X97645300Y-80776665D02*
X97678633Y-80843332D01*
X97678633Y-80843332D02*
X97678633Y-80976665D01*
X97678633Y-80976665D02*
X97645300Y-81043332D01*
X97645300Y-81043332D02*
X97578633Y-81076665D01*
X97578633Y-81076665D02*
X97311966Y-81076665D01*
X97311966Y-81076665D02*
X97245300Y-81043332D01*
X97245300Y-81043332D02*
X97211966Y-80976665D01*
X97211966Y-80976665D02*
X97211966Y-80843332D01*
X97211966Y-80843332D02*
X97245300Y-80776665D01*
X97245300Y-80776665D02*
X97311966Y-80743332D01*
X97311966Y-80743332D02*
X97378633Y-80743332D01*
X97378633Y-80743332D02*
X97445300Y-81076665D01*
X97211966Y-80509999D02*
X97678633Y-80343332D01*
X97678633Y-80343332D02*
X97211966Y-80176665D01*
X97645300Y-79643332D02*
X97678633Y-79709999D01*
X97678633Y-79709999D02*
X97678633Y-79843332D01*
X97678633Y-79843332D02*
X97645300Y-79909999D01*
X97645300Y-79909999D02*
X97578633Y-79943332D01*
X97578633Y-79943332D02*
X97311966Y-79943332D01*
X97311966Y-79943332D02*
X97245300Y-79909999D01*
X97245300Y-79909999D02*
X97211966Y-79843332D01*
X97211966Y-79843332D02*
X97211966Y-79709999D01*
X97211966Y-79709999D02*
X97245300Y-79643332D01*
X97245300Y-79643332D02*
X97311966Y-79609999D01*
X97311966Y-79609999D02*
X97378633Y-79609999D01*
X97378633Y-79609999D02*
X97445300Y-79943332D01*
X98378633Y-81593332D02*
X98378633Y-81193332D01*
X99078633Y-81393332D02*
X98378633Y-81393332D01*
X99078633Y-80959999D02*
X98611966Y-80959999D01*
X98378633Y-80959999D02*
X98411966Y-80993332D01*
X98411966Y-80993332D02*
X98445300Y-80959999D01*
X98445300Y-80959999D02*
X98411966Y-80926666D01*
X98411966Y-80926666D02*
X98378633Y-80959999D01*
X98378633Y-80959999D02*
X98445300Y-80959999D01*
X98611966Y-80626666D02*
X99311966Y-80626666D01*
X98645300Y-80626666D02*
X98611966Y-80559999D01*
X98611966Y-80559999D02*
X98611966Y-80426666D01*
X98611966Y-80426666D02*
X98645300Y-80359999D01*
X98645300Y-80359999D02*
X98678633Y-80326666D01*
X98678633Y-80326666D02*
X98745300Y-80293333D01*
X98745300Y-80293333D02*
X98945300Y-80293333D01*
X98945300Y-80293333D02*
X99011966Y-80326666D01*
X99011966Y-80326666D02*
X99045300Y-80359999D01*
X99045300Y-80359999D02*
X99078633Y-80426666D01*
X99078633Y-80426666D02*
X99078633Y-80559999D01*
X99078633Y-80559999D02*
X99045300Y-80626666D01*
X102828633Y-81826666D02*
X102495300Y-82059999D01*
X102828633Y-82226666D02*
X102128633Y-82226666D01*
X102128633Y-82226666D02*
X102128633Y-81959999D01*
X102128633Y-81959999D02*
X102161966Y-81893333D01*
X102161966Y-81893333D02*
X102195300Y-81859999D01*
X102195300Y-81859999D02*
X102261966Y-81826666D01*
X102261966Y-81826666D02*
X102361966Y-81826666D01*
X102361966Y-81826666D02*
X102428633Y-81859999D01*
X102428633Y-81859999D02*
X102461966Y-81893333D01*
X102461966Y-81893333D02*
X102495300Y-81959999D01*
X102495300Y-81959999D02*
X102495300Y-82226666D01*
X102828633Y-81526666D02*
X102361966Y-81526666D01*
X102128633Y-81526666D02*
X102161966Y-81559999D01*
X102161966Y-81559999D02*
X102195300Y-81526666D01*
X102195300Y-81526666D02*
X102161966Y-81493333D01*
X102161966Y-81493333D02*
X102128633Y-81526666D01*
X102128633Y-81526666D02*
X102195300Y-81526666D01*
X102361966Y-81193333D02*
X102828633Y-81193333D01*
X102428633Y-81193333D02*
X102395300Y-81160000D01*
X102395300Y-81160000D02*
X102361966Y-81093333D01*
X102361966Y-81093333D02*
X102361966Y-80993333D01*
X102361966Y-80993333D02*
X102395300Y-80926666D01*
X102395300Y-80926666D02*
X102461966Y-80893333D01*
X102461966Y-80893333D02*
X102828633Y-80893333D01*
X102361966Y-80260000D02*
X102928633Y-80260000D01*
X102928633Y-80260000D02*
X102995300Y-80293333D01*
X102995300Y-80293333D02*
X103028633Y-80326667D01*
X103028633Y-80326667D02*
X103061966Y-80393333D01*
X103061966Y-80393333D02*
X103061966Y-80493333D01*
X103061966Y-80493333D02*
X103028633Y-80560000D01*
X102795300Y-80260000D02*
X102828633Y-80326667D01*
X102828633Y-80326667D02*
X102828633Y-80460000D01*
X102828633Y-80460000D02*
X102795300Y-80526667D01*
X102795300Y-80526667D02*
X102761966Y-80560000D01*
X102761966Y-80560000D02*
X102695300Y-80593333D01*
X102695300Y-80593333D02*
X102495300Y-80593333D01*
X102495300Y-80593333D02*
X102428633Y-80560000D01*
X102428633Y-80560000D02*
X102395300Y-80526667D01*
X102395300Y-80526667D02*
X102361966Y-80460000D01*
X102361966Y-80460000D02*
X102361966Y-80326667D01*
X102361966Y-80326667D02*
X102395300Y-80260000D01*
X102828633Y-79560000D02*
X102828633Y-79960000D01*
X102828633Y-79760000D02*
X102128633Y-79760000D01*
X102128633Y-79760000D02*
X102228633Y-79826667D01*
X102228633Y-79826667D02*
X102295300Y-79893334D01*
X102295300Y-79893334D02*
X102328633Y-79960000D01*
X105828633Y-81826666D02*
X105495300Y-82059999D01*
X105828633Y-82226666D02*
X105128633Y-82226666D01*
X105128633Y-82226666D02*
X105128633Y-81959999D01*
X105128633Y-81959999D02*
X105161966Y-81893333D01*
X105161966Y-81893333D02*
X105195300Y-81859999D01*
X105195300Y-81859999D02*
X105261966Y-81826666D01*
X105261966Y-81826666D02*
X105361966Y-81826666D01*
X105361966Y-81826666D02*
X105428633Y-81859999D01*
X105428633Y-81859999D02*
X105461966Y-81893333D01*
X105461966Y-81893333D02*
X105495300Y-81959999D01*
X105495300Y-81959999D02*
X105495300Y-82226666D01*
X105828633Y-81526666D02*
X105361966Y-81526666D01*
X105128633Y-81526666D02*
X105161966Y-81559999D01*
X105161966Y-81559999D02*
X105195300Y-81526666D01*
X105195300Y-81526666D02*
X105161966Y-81493333D01*
X105161966Y-81493333D02*
X105128633Y-81526666D01*
X105128633Y-81526666D02*
X105195300Y-81526666D01*
X105361966Y-81193333D02*
X105828633Y-81193333D01*
X105428633Y-81193333D02*
X105395300Y-81160000D01*
X105395300Y-81160000D02*
X105361966Y-81093333D01*
X105361966Y-81093333D02*
X105361966Y-80993333D01*
X105361966Y-80993333D02*
X105395300Y-80926666D01*
X105395300Y-80926666D02*
X105461966Y-80893333D01*
X105461966Y-80893333D02*
X105828633Y-80893333D01*
X105361966Y-80260000D02*
X105928633Y-80260000D01*
X105928633Y-80260000D02*
X105995300Y-80293333D01*
X105995300Y-80293333D02*
X106028633Y-80326667D01*
X106028633Y-80326667D02*
X106061966Y-80393333D01*
X106061966Y-80393333D02*
X106061966Y-80493333D01*
X106061966Y-80493333D02*
X106028633Y-80560000D01*
X105795300Y-80260000D02*
X105828633Y-80326667D01*
X105828633Y-80326667D02*
X105828633Y-80460000D01*
X105828633Y-80460000D02*
X105795300Y-80526667D01*
X105795300Y-80526667D02*
X105761966Y-80560000D01*
X105761966Y-80560000D02*
X105695300Y-80593333D01*
X105695300Y-80593333D02*
X105495300Y-80593333D01*
X105495300Y-80593333D02*
X105428633Y-80560000D01*
X105428633Y-80560000D02*
X105395300Y-80526667D01*
X105395300Y-80526667D02*
X105361966Y-80460000D01*
X105361966Y-80460000D02*
X105361966Y-80326667D01*
X105361966Y-80326667D02*
X105395300Y-80260000D01*
X105195300Y-79960000D02*
X105161966Y-79926667D01*
X105161966Y-79926667D02*
X105128633Y-79860000D01*
X105128633Y-79860000D02*
X105128633Y-79693334D01*
X105128633Y-79693334D02*
X105161966Y-79626667D01*
X105161966Y-79626667D02*
X105195300Y-79593334D01*
X105195300Y-79593334D02*
X105261966Y-79560000D01*
X105261966Y-79560000D02*
X105328633Y-79560000D01*
X105328633Y-79560000D02*
X105428633Y-79593334D01*
X105428633Y-79593334D02*
X105828633Y-79993334D01*
X105828633Y-79993334D02*
X105828633Y-79560000D01*
%TO.C,U1*%
X52845002Y-75329997D02*
X53820002Y-76305000D01*
X52845008Y-72404995D02*
X52845002Y-75329997D01*
X53820002Y-76305000D02*
X62745000Y-76305003D01*
X62745000Y-76305003D02*
X62745004Y-72404998D01*
X62745004Y-72404998D02*
X52845008Y-72404995D01*
%TO.C,C17*%
X90037500Y-96900000D02*
X92037500Y-96900000D01*
X92037500Y-98150000D01*
X90037500Y-98150000D01*
X90037500Y-96900000D01*
%TO.C,C20*%
X63950000Y-72000000D02*
X65200000Y-72000000D01*
X65200000Y-74000000D01*
X63950000Y-74000000D01*
X63950000Y-72000000D01*
%TO.C,C8*%
X61000000Y-44900000D02*
X63000000Y-44900000D01*
X63000000Y-46150000D01*
X61000000Y-46150000D01*
X61000000Y-44900000D01*
%TO.C,U3*%
X81874997Y-79749998D02*
X82849997Y-80725001D01*
X81875003Y-76824996D02*
X81874997Y-79749998D01*
X82849997Y-80725001D02*
X91774995Y-80725004D01*
X91774995Y-80725004D02*
X91774999Y-76824999D01*
X91774999Y-76824999D02*
X81875003Y-76824996D01*
%TO.C,C5*%
X99000000Y-32900000D02*
X101000000Y-32900000D01*
X101000000Y-34150000D01*
X99000000Y-34150000D01*
X99000000Y-32900000D01*
%TO.C,C1*%
X23000000Y-37900000D02*
X25000000Y-37900000D01*
X25000000Y-39150000D01*
X23000000Y-39150000D01*
X23000000Y-37900000D01*
%TO.C,C11*%
X23037500Y-75900000D02*
X25037500Y-75900000D01*
X25037500Y-77150000D01*
X23037500Y-77150000D01*
X23037500Y-75900000D01*
%TO.C,C10*%
X99000000Y-51900000D02*
X101000000Y-51900000D01*
X101000000Y-53150000D01*
X99000000Y-53150000D01*
X99000000Y-51900000D01*
%TO.C,C6*%
X23000000Y-56900000D02*
X25000000Y-56900000D01*
X25000000Y-58150000D01*
X23000000Y-58150000D01*
X23000000Y-56900000D01*
%TO.C,C3*%
X61000000Y-25900000D02*
X63000000Y-25900000D01*
X63000000Y-27150000D01*
X61000000Y-27150000D01*
X61000000Y-25900000D01*
%TO.C,C16*%
X71037500Y-94900000D02*
X73037500Y-94900000D01*
X73037500Y-96150000D01*
X71037500Y-96150000D01*
X71037500Y-94900000D01*
%TO.C,C7*%
X42000000Y-47900000D02*
X44000000Y-47900000D01*
X44000000Y-49150000D01*
X42000000Y-49150000D01*
X42000000Y-47900000D01*
%TO.C,U2*%
X65265002Y-79899997D02*
X66240002Y-80875000D01*
X65265008Y-76974995D02*
X65265002Y-79899997D01*
X66240002Y-80875000D02*
X75165000Y-80875003D01*
X75165000Y-80875003D02*
X75165004Y-76974998D01*
X75165004Y-76974998D02*
X65265008Y-76974995D01*
%TO.C,C2*%
X42000000Y-28900000D02*
X44000000Y-28900000D01*
X44000000Y-30150000D01*
X42000000Y-30150000D01*
X42000000Y-28900000D01*
%TO.C,C19*%
X50850000Y-70237500D02*
X52100000Y-70237500D01*
X52100000Y-72237500D01*
X50850000Y-72237500D01*
X50850000Y-70237500D01*
%TO.C,C12*%
X42037500Y-66900000D02*
X44037500Y-66900000D01*
X44037500Y-68150000D01*
X42037500Y-68150000D01*
X42037500Y-66900000D01*
%TO.C,C14*%
X80037500Y-68900000D02*
X82037500Y-68900000D01*
X82037500Y-70150000D01*
X80037500Y-70150000D01*
X80037500Y-68900000D01*
%TO.C,C15*%
X99037500Y-70900000D02*
X101037500Y-70900000D01*
X101037500Y-72150000D01*
X99037500Y-72150000D01*
X99037500Y-70900000D01*
%TO.C,C13*%
X61037500Y-63900000D02*
X63037500Y-63900000D01*
X63037500Y-65150000D01*
X61037500Y-65150000D01*
X61037500Y-63900000D01*
%TO.C,C21*%
X79850000Y-74300000D02*
X81100000Y-74300000D01*
X81100000Y-76300000D01*
X79850000Y-76300000D01*
X79850000Y-74300000D01*
%TO.C,C4*%
X80000000Y-30900000D02*
X82000000Y-30900000D01*
X82000000Y-32150000D01*
X80000000Y-32150000D01*
X80000000Y-30900000D01*
%TO.C,C9*%
X80000000Y-49900000D02*
X82000000Y-49900000D01*
X82000000Y-51150000D01*
X80000000Y-51150000D01*
X80000000Y-49900000D01*
%TO.C,C18*%
X109037500Y-99900000D02*
X111037500Y-99900000D01*
X111037500Y-101150000D01*
X109037500Y-101150000D01*
X109037500Y-99900000D01*
%TO.C,MCU1*%
D10*
X36760000Y-98910000D02*
X36760000Y-80910000D01*
X50674898Y-83660000D02*
X54974898Y-83660000D01*
X50674898Y-87060000D02*
X50674898Y-83660000D01*
X50674898Y-92759900D02*
X54974898Y-92759900D01*
X50674898Y-96160000D02*
X50674898Y-92759900D01*
X51324898Y-85260000D02*
X51326198Y-85208500D01*
X51324898Y-85460000D02*
X51324898Y-85260000D01*
X51324898Y-94360000D02*
X51326198Y-94308500D01*
X51324898Y-94560000D02*
X51324898Y-94360000D01*
X51326198Y-85208500D02*
X51330098Y-85157800D01*
X51326198Y-85511400D02*
X51324898Y-85460000D01*
X51326198Y-94308500D02*
X51330098Y-94257800D01*
X51326198Y-94611400D02*
X51324898Y-94560000D01*
X51330098Y-85157800D02*
X51336398Y-85107700D01*
X51330098Y-85562100D02*
X51326198Y-85511400D01*
X51330098Y-94257800D02*
X51336398Y-94207700D01*
X51330098Y-94662100D02*
X51326198Y-94611400D01*
X51336398Y-85107700D02*
X51345198Y-85058500D01*
X51336398Y-85612200D02*
X51330098Y-85562100D01*
X51336398Y-94207700D02*
X51345198Y-94158500D01*
X51336398Y-94712200D02*
X51330098Y-94662100D01*
X51345198Y-85058500D02*
X51356398Y-85010200D01*
X51345198Y-85661400D02*
X51336398Y-85612200D01*
X51345198Y-94158500D02*
X51356398Y-94110200D01*
X51345198Y-94761400D02*
X51336398Y-94712200D01*
X51356398Y-85010200D02*
X51369898Y-84962700D01*
X51356398Y-85709700D02*
X51345198Y-85661400D01*
X51356398Y-94110200D02*
X51369898Y-94062700D01*
X51356398Y-94809700D02*
X51345198Y-94761400D01*
X51369898Y-84962700D02*
X51385598Y-84916300D01*
X51369898Y-85757200D02*
X51356398Y-85709700D01*
X51369898Y-94062700D02*
X51385598Y-94016300D01*
X51369898Y-94857200D02*
X51356398Y-94809700D01*
X51385598Y-84916300D02*
X51403498Y-84870900D01*
X51385598Y-85803600D02*
X51369898Y-85757200D01*
X51385598Y-94016300D02*
X51403498Y-93970900D01*
X51385598Y-94903600D02*
X51369898Y-94857200D01*
X51403498Y-84870900D02*
X51423598Y-84826600D01*
X51403498Y-85849000D02*
X51385598Y-85803600D01*
X51403498Y-93970900D02*
X51423598Y-93926600D01*
X51403498Y-94949000D02*
X51385598Y-94903600D01*
X51423598Y-84826600D02*
X51445698Y-84783500D01*
X51423598Y-85893300D02*
X51403498Y-85849000D01*
X51423598Y-93926600D02*
X51445698Y-93883500D01*
X51423598Y-94993300D02*
X51403498Y-94949000D01*
X51445698Y-84783500D02*
X51469798Y-84741600D01*
X51445698Y-85936400D02*
X51423598Y-85893300D01*
X51445698Y-93883500D02*
X51469798Y-93841600D01*
X51445698Y-95036400D02*
X51423598Y-94993300D01*
X51469798Y-84741600D02*
X51495798Y-84701000D01*
X51469798Y-85978300D02*
X51445698Y-85936400D01*
X51469798Y-93841600D02*
X51495798Y-93801000D01*
X51469798Y-95078300D02*
X51445698Y-95036400D01*
X51495798Y-84701000D02*
X51523698Y-84661800D01*
X51495798Y-86018900D02*
X51469798Y-85978300D01*
X51495798Y-93801000D02*
X51523698Y-93761800D01*
X51495798Y-95118900D02*
X51469798Y-95078300D01*
X51523698Y-84661800D02*
X51553398Y-84624000D01*
X51523698Y-86058100D02*
X51495798Y-86018900D01*
X51523698Y-93761800D02*
X51553398Y-93724000D01*
X51523698Y-95158100D02*
X51495798Y-95118900D01*
X51553398Y-84624000D02*
X51584798Y-84587700D01*
X51553398Y-86095900D02*
X51523698Y-86058100D01*
X51553398Y-93724000D02*
X51584798Y-93687700D01*
X51553398Y-95195900D02*
X51523698Y-95158100D01*
X51584798Y-84587700D02*
X51617898Y-84553000D01*
X51584798Y-86132200D02*
X51553398Y-86095900D01*
X51584798Y-93687700D02*
X51617898Y-93653000D01*
X51584798Y-95232200D02*
X51553398Y-95195900D01*
X51617898Y-84553000D02*
X51652698Y-84519900D01*
X51617898Y-86166900D02*
X51584798Y-86132200D01*
X51617898Y-93653000D02*
X51652698Y-93619900D01*
X51617898Y-95266900D02*
X51584798Y-95232200D01*
X51652698Y-84519900D02*
X51688998Y-84488400D01*
X51652698Y-86200000D02*
X51617898Y-86166900D01*
X51652698Y-93619900D02*
X51688998Y-93588400D01*
X51652698Y-95300000D02*
X51617898Y-95266900D01*
X51688998Y-84488400D02*
X51726698Y-84458700D01*
X51688998Y-86231500D02*
X51652698Y-86200000D01*
X51688998Y-93588400D02*
X51726698Y-93558700D01*
X51688998Y-95331500D02*
X51652698Y-95300000D01*
X51726698Y-84458700D02*
X51765998Y-84430800D01*
X51726698Y-86261200D02*
X51688998Y-86231500D01*
X51726698Y-93558700D02*
X51765998Y-93530800D01*
X51726698Y-95361200D02*
X51688998Y-95331500D01*
X51765998Y-84430800D02*
X51806498Y-84404800D01*
X51765998Y-86289100D02*
X51726698Y-86261200D01*
X51765998Y-93530800D02*
X51806498Y-93504800D01*
X51765998Y-95389100D02*
X51726698Y-95361200D01*
X51806498Y-84404800D02*
X51848398Y-84380700D01*
X51806498Y-86315100D02*
X51765998Y-86289100D01*
X51806498Y-93504800D02*
X51848398Y-93480700D01*
X51806498Y-95415100D02*
X51765998Y-95389100D01*
X51848398Y-84380700D02*
X51891498Y-84358600D01*
X51848398Y-86339200D02*
X51806498Y-86315100D01*
X51848398Y-93480700D02*
X51891498Y-93458600D01*
X51848398Y-95439200D02*
X51806498Y-95415100D01*
X51891498Y-84358600D02*
X51935798Y-84338600D01*
X51891498Y-86361300D02*
X51848398Y-86339200D01*
X51891498Y-93458600D02*
X51935798Y-93438600D01*
X51891498Y-95461300D02*
X51848398Y-95439200D01*
X51935798Y-84338600D02*
X51981198Y-84320700D01*
X51935798Y-86381300D02*
X51891498Y-86361300D01*
X51935798Y-93438600D02*
X51981198Y-93420700D01*
X51935798Y-95481300D02*
X51891498Y-95461300D01*
X51981198Y-84320700D02*
X52027698Y-84304900D01*
X51981198Y-86399200D02*
X51935798Y-86381300D01*
X51981198Y-93420700D02*
X52027698Y-93404900D01*
X51981198Y-95499200D02*
X51935798Y-95481300D01*
X52027698Y-84304900D02*
X52075098Y-84291500D01*
X52027698Y-86415000D02*
X51981198Y-86399200D01*
X52027698Y-93404900D02*
X52075098Y-93391500D01*
X52027698Y-95515000D02*
X51981198Y-95499200D01*
X52075098Y-84291500D02*
X52123498Y-84280300D01*
X52075098Y-86428400D02*
X52027698Y-86415000D01*
X52075098Y-93391500D02*
X52123498Y-93380300D01*
X52075098Y-95528400D02*
X52027698Y-95515000D01*
X52123498Y-84280300D02*
X52172698Y-84271500D01*
X52123498Y-86439600D02*
X52075098Y-86428400D01*
X52123498Y-93380300D02*
X52172698Y-93371500D01*
X52123498Y-95539600D02*
X52075098Y-95528400D01*
X52172698Y-84271500D02*
X52222698Y-84265100D01*
X52172698Y-86448400D02*
X52123498Y-86439600D01*
X52172698Y-93371500D02*
X52222698Y-93365100D01*
X52172698Y-95548400D02*
X52123498Y-95539600D01*
X52222698Y-84265100D02*
X52273498Y-84261300D01*
X52222698Y-86454800D02*
X52172698Y-86448400D01*
X52222698Y-93365100D02*
X52273498Y-93361300D01*
X52222698Y-95554800D02*
X52172698Y-95548400D01*
X52273498Y-84261300D02*
X52324898Y-84259900D01*
X52273498Y-86458600D02*
X52222698Y-86454800D01*
X52273498Y-93361300D02*
X52324898Y-93360000D01*
X52273498Y-95558600D02*
X52222698Y-95554800D01*
X52324898Y-84259900D02*
X53324898Y-84259900D01*
X52324898Y-86460000D02*
X52273498Y-86458600D01*
X52324898Y-93360000D02*
X53324898Y-93360000D01*
X52324898Y-95560000D02*
X52273498Y-95558600D01*
X53324898Y-84259900D02*
X53376298Y-84261300D01*
X53324898Y-86460000D02*
X52324898Y-86460000D01*
X53324898Y-93360000D02*
X53376298Y-93361300D01*
X53324898Y-95560000D02*
X52324898Y-95560000D01*
X53376298Y-84261300D02*
X53427098Y-84265100D01*
X53376298Y-86458600D02*
X53324898Y-86460000D01*
X53376298Y-93361300D02*
X53427098Y-93365100D01*
X53376298Y-95558600D02*
X53324898Y-95560000D01*
X53427098Y-84265100D02*
X53477098Y-84271500D01*
X53427098Y-86454800D02*
X53376298Y-86458600D01*
X53427098Y-93365100D02*
X53477098Y-93371500D01*
X53427098Y-95554800D02*
X53376298Y-95558600D01*
X53477098Y-84271500D02*
X53526298Y-84280300D01*
X53477098Y-86448400D02*
X53427098Y-86454800D01*
X53477098Y-93371500D02*
X53526298Y-93380300D01*
X53477098Y-95548400D02*
X53427098Y-95554800D01*
X53526298Y-84280300D02*
X53574698Y-84291500D01*
X53526298Y-86439600D02*
X53477098Y-86448400D01*
X53526298Y-93380300D02*
X53574698Y-93391500D01*
X53526298Y-95539600D02*
X53477098Y-95548400D01*
X53574698Y-84291500D02*
X53622098Y-84304900D01*
X53574698Y-86428400D02*
X53526298Y-86439600D01*
X53574698Y-93391500D02*
X53622098Y-93404900D01*
X53574698Y-95528400D02*
X53526298Y-95539600D01*
X53622098Y-84304900D02*
X53668598Y-84320700D01*
X53622098Y-86415000D02*
X53574698Y-86428400D01*
X53622098Y-93404900D02*
X53668598Y-93420700D01*
X53622098Y-95515000D02*
X53574698Y-95528400D01*
X53668598Y-84320700D02*
X53713998Y-84338600D01*
X53668598Y-86399200D02*
X53622098Y-86415000D01*
X53668598Y-93420700D02*
X53713998Y-93438600D01*
X53668598Y-95499200D02*
X53622098Y-95515000D01*
X53713998Y-84338600D02*
X53758298Y-84358600D01*
X53713998Y-86381300D02*
X53668598Y-86399200D01*
X53713998Y-93438600D02*
X53758298Y-93458600D01*
X53713998Y-95481300D02*
X53668598Y-95499200D01*
X53758298Y-84358600D02*
X53801398Y-84380700D01*
X53758298Y-86361300D02*
X53713998Y-86381300D01*
X53758298Y-93458600D02*
X53801398Y-93480700D01*
X53758298Y-95461300D02*
X53713998Y-95481300D01*
X53801398Y-84380700D02*
X53843298Y-84404800D01*
X53801398Y-86339200D02*
X53758298Y-86361300D01*
X53801398Y-93480700D02*
X53843298Y-93504800D01*
X53801398Y-95439200D02*
X53758298Y-95461300D01*
X53843298Y-84404800D02*
X53883798Y-84430800D01*
X53843298Y-86315100D02*
X53801398Y-86339200D01*
X53843298Y-93504800D02*
X53883798Y-93530800D01*
X53843298Y-95415100D02*
X53801398Y-95439200D01*
X53883798Y-84430800D02*
X53923098Y-84458700D01*
X53883798Y-86289100D02*
X53843298Y-86315100D01*
X53883798Y-93530800D02*
X53923098Y-93558700D01*
X53883798Y-95389100D02*
X53843298Y-95415100D01*
X53923098Y-84458700D02*
X53960798Y-84488400D01*
X53923098Y-86261200D02*
X53883798Y-86289100D01*
X53923098Y-93558700D02*
X53960798Y-93588400D01*
X53923098Y-95361200D02*
X53883798Y-95389100D01*
X53960798Y-84488400D02*
X53997098Y-84519900D01*
X53960798Y-86231500D02*
X53923098Y-86261200D01*
X53960798Y-93588400D02*
X53997098Y-93619900D01*
X53960798Y-95331500D02*
X53923098Y-95361200D01*
X53997098Y-84519900D02*
X54031898Y-84553000D01*
X53997098Y-86200000D02*
X53960798Y-86231500D01*
X53997098Y-93619900D02*
X54031898Y-93653000D01*
X53997098Y-95300000D02*
X53960798Y-95331500D01*
X54031898Y-84553000D02*
X54064998Y-84587700D01*
X54031898Y-86166900D02*
X53997098Y-86200000D01*
X54031898Y-93653000D02*
X54064998Y-93687700D01*
X54031898Y-95266900D02*
X53997098Y-95300000D01*
X54064998Y-84587700D02*
X54096398Y-84624000D01*
X54064998Y-86132200D02*
X54031898Y-86166900D01*
X54064998Y-93687700D02*
X54096398Y-93724000D01*
X54064998Y-95232200D02*
X54031898Y-95266900D01*
X54096398Y-84624000D02*
X54126098Y-84661800D01*
X54096398Y-86095900D02*
X54064998Y-86132200D01*
X54096398Y-93724000D02*
X54126098Y-93761800D01*
X54096398Y-95195900D02*
X54064998Y-95232200D01*
X54126098Y-84661800D02*
X54153998Y-84701000D01*
X54126098Y-86058100D02*
X54096398Y-86095900D01*
X54126098Y-93761800D02*
X54153998Y-93801000D01*
X54126098Y-95158100D02*
X54096398Y-95195900D01*
X54153998Y-84701000D02*
X54179998Y-84741600D01*
X54153998Y-86018900D02*
X54126098Y-86058100D01*
X54153998Y-93801000D02*
X54179998Y-93841600D01*
X54153998Y-95118900D02*
X54126098Y-95158100D01*
X54179998Y-84741600D02*
X54204098Y-84783500D01*
X54179998Y-85978300D02*
X54153998Y-86018900D01*
X54179998Y-93841600D02*
X54204098Y-93883500D01*
X54179998Y-95078300D02*
X54153998Y-95118900D01*
X54204098Y-84783500D02*
X54226198Y-84826600D01*
X54204098Y-85936400D02*
X54179998Y-85978300D01*
X54204098Y-93883500D02*
X54226198Y-93926600D01*
X54204098Y-95036400D02*
X54179998Y-95078300D01*
X54226198Y-84826600D02*
X54246298Y-84870900D01*
X54226198Y-85893300D02*
X54204098Y-85936400D01*
X54226198Y-93926600D02*
X54246298Y-93970900D01*
X54226198Y-94993300D02*
X54204098Y-95036400D01*
X54246298Y-84870900D02*
X54264198Y-84916300D01*
X54246298Y-85849000D02*
X54226198Y-85893300D01*
X54246298Y-93970900D02*
X54264198Y-94016300D01*
X54246298Y-94949000D02*
X54226198Y-94993300D01*
X54264198Y-84916300D02*
X54279898Y-84962700D01*
X54264198Y-85803600D02*
X54246298Y-85849000D01*
X54264198Y-94016300D02*
X54279898Y-94062700D01*
X54264198Y-94903600D02*
X54246298Y-94949000D01*
X54279898Y-84962700D02*
X54293398Y-85010200D01*
X54279898Y-85757200D02*
X54264198Y-85803600D01*
X54279898Y-94062700D02*
X54293398Y-94110200D01*
X54279898Y-94857200D02*
X54264198Y-94903600D01*
X54293398Y-85010200D02*
X54304598Y-85058500D01*
X54293398Y-85709700D02*
X54279898Y-85757200D01*
X54293398Y-94110200D02*
X54304598Y-94158500D01*
X54293398Y-94809700D02*
X54279898Y-94857200D01*
X54304598Y-85058500D02*
X54313398Y-85107700D01*
X54304598Y-85661400D02*
X54293398Y-85709700D01*
X54304598Y-94158500D02*
X54313398Y-94207700D01*
X54304598Y-94761400D02*
X54293398Y-94809700D01*
X54313398Y-85107700D02*
X54319698Y-85157800D01*
X54313398Y-85612200D02*
X54304598Y-85661400D01*
X54313398Y-94207700D02*
X54319698Y-94257800D01*
X54313398Y-94712200D02*
X54304598Y-94761400D01*
X54319698Y-85157800D02*
X54323598Y-85208500D01*
X54319698Y-85562100D02*
X54313398Y-85612200D01*
X54319698Y-94257800D02*
X54323598Y-94308500D01*
X54319698Y-94662100D02*
X54313398Y-94712200D01*
X54323598Y-85208500D02*
X54324898Y-85260000D01*
X54323598Y-85511400D02*
X54319698Y-85562100D01*
X54323598Y-94308500D02*
X54324898Y-94360000D01*
X54323598Y-94611400D02*
X54319698Y-94662100D01*
X54324898Y-85260000D02*
X54324898Y-85460000D01*
X54324898Y-85460000D02*
X54323598Y-85511400D01*
X54324898Y-94360000D02*
X54324898Y-94560000D01*
X54324898Y-94560000D02*
X54323598Y-94611400D01*
X54974898Y-83660000D02*
X54974898Y-87060000D01*
X54974898Y-87060000D02*
X50674898Y-87060000D01*
X54974898Y-92759900D02*
X54974898Y-96160000D01*
X54974898Y-96160000D02*
X50674898Y-96160000D01*
X60260000Y-80910000D02*
X36760000Y-80910000D01*
X60260000Y-98910000D02*
X36760000Y-98910000D01*
X60260000Y-98910000D02*
X60260000Y-80910000D01*
%TD*%
M02*
