%TF.GenerationSoftware,KiCad,Pcbnew,10.0.2*%
%TF.CreationDate,2026-07-29T14:15:16+09:00*%
%TF.ProjectId,boardloaf-he,626f6172-646c-46f6-9166-2d68652e6b69,rev?*%
%TF.SameCoordinates,Original*%
%TF.FileFunction,Legend,Bot*%
%TF.FilePolarity,Positive*%
%FSLAX46Y46*%
G04 Gerber Fmt 4.6, Leading zero omitted, Abs format (unit mm)*
G04 Created by KiCad (PCBNEW 10.0.2) date 2026-07-29 14:15:16*
%MOMM*%
%LPD*%
G01*
G04 APERTURE LIST*
%ADD10C,0.200000*%
%ADD11C,0.250000*%
%ADD12C,0.100000*%
%ADD13C,0.160000*%
%ADD14C,0.150000*%
%ADD15C,0.120000*%
G04 APERTURE END LIST*
D10*
X27926666Y-98057247D02*
X27926666Y-98771532D01*
X27926666Y-98771532D02*
X27974285Y-98914389D01*
X27974285Y-98914389D02*
X28069523Y-99009628D01*
X28069523Y-99009628D02*
X28212380Y-99057247D01*
X28212380Y-99057247D02*
X28307618Y-99057247D01*
X27021904Y-98390580D02*
X27021904Y-99057247D01*
X27450475Y-98390580D02*
X27450475Y-98914389D01*
X27450475Y-98914389D02*
X27402856Y-99009628D01*
X27402856Y-99009628D02*
X27307618Y-99057247D01*
X27307618Y-99057247D02*
X27164761Y-99057247D01*
X27164761Y-99057247D02*
X27069523Y-99009628D01*
X27069523Y-99009628D02*
X27021904Y-98962008D01*
X26545713Y-99057247D02*
X26545713Y-98390580D01*
X26545713Y-98485818D02*
X26498094Y-98438199D01*
X26498094Y-98438199D02*
X26402856Y-98390580D01*
X26402856Y-98390580D02*
X26259999Y-98390580D01*
X26259999Y-98390580D02*
X26164761Y-98438199D01*
X26164761Y-98438199D02*
X26117142Y-98533437D01*
X26117142Y-98533437D02*
X26117142Y-99057247D01*
X26117142Y-98533437D02*
X26069523Y-98438199D01*
X26069523Y-98438199D02*
X25974285Y-98390580D01*
X25974285Y-98390580D02*
X25831428Y-98390580D01*
X25831428Y-98390580D02*
X25736189Y-98438199D01*
X25736189Y-98438199D02*
X25688570Y-98533437D01*
X25688570Y-98533437D02*
X25688570Y-99057247D01*
X25212380Y-98390580D02*
X25212380Y-99390580D01*
X25212380Y-98438199D02*
X25117142Y-98390580D01*
X25117142Y-98390580D02*
X24926666Y-98390580D01*
X24926666Y-98390580D02*
X24831428Y-98438199D01*
X24831428Y-98438199D02*
X24783809Y-98485818D01*
X24783809Y-98485818D02*
X24736190Y-98581056D01*
X24736190Y-98581056D02*
X24736190Y-98866770D01*
X24736190Y-98866770D02*
X24783809Y-98962008D01*
X24783809Y-98962008D02*
X24831428Y-99009628D01*
X24831428Y-99009628D02*
X24926666Y-99057247D01*
X24926666Y-99057247D02*
X25117142Y-99057247D01*
X25117142Y-99057247D02*
X25212380Y-99009628D01*
X23640951Y-98390580D02*
X23450475Y-99057247D01*
X23450475Y-99057247D02*
X23259999Y-98581056D01*
X23259999Y-98581056D02*
X23069523Y-99057247D01*
X23069523Y-99057247D02*
X22879047Y-98390580D01*
X22498094Y-99057247D02*
X22498094Y-98057247D01*
X22069523Y-99057247D02*
X22069523Y-98533437D01*
X22069523Y-98533437D02*
X22117142Y-98438199D01*
X22117142Y-98438199D02*
X22212380Y-98390580D01*
X22212380Y-98390580D02*
X22355237Y-98390580D01*
X22355237Y-98390580D02*
X22450475Y-98438199D01*
X22450475Y-98438199D02*
X22498094Y-98485818D01*
X21212380Y-99009628D02*
X21307618Y-99057247D01*
X21307618Y-99057247D02*
X21498094Y-99057247D01*
X21498094Y-99057247D02*
X21593332Y-99009628D01*
X21593332Y-99009628D02*
X21640951Y-98914389D01*
X21640951Y-98914389D02*
X21640951Y-98533437D01*
X21640951Y-98533437D02*
X21593332Y-98438199D01*
X21593332Y-98438199D02*
X21498094Y-98390580D01*
X21498094Y-98390580D02*
X21307618Y-98390580D01*
X21307618Y-98390580D02*
X21212380Y-98438199D01*
X21212380Y-98438199D02*
X21164761Y-98533437D01*
X21164761Y-98533437D02*
X21164761Y-98628675D01*
X21164761Y-98628675D02*
X21640951Y-98723913D01*
X20736189Y-98390580D02*
X20736189Y-99057247D01*
X20736189Y-98485818D02*
X20688570Y-98438199D01*
X20688570Y-98438199D02*
X20593332Y-98390580D01*
X20593332Y-98390580D02*
X20450475Y-98390580D01*
X20450475Y-98390580D02*
X20355237Y-98438199D01*
X20355237Y-98438199D02*
X20307618Y-98533437D01*
X20307618Y-98533437D02*
X20307618Y-99057247D01*
X27664761Y-100143381D02*
X27521904Y-100191000D01*
X27521904Y-100191000D02*
X27474285Y-100238619D01*
X27474285Y-100238619D02*
X27426666Y-100333857D01*
X27426666Y-100333857D02*
X27426666Y-100476714D01*
X27426666Y-100476714D02*
X27474285Y-100571952D01*
X27474285Y-100571952D02*
X27521904Y-100619572D01*
X27521904Y-100619572D02*
X27617142Y-100667191D01*
X27617142Y-100667191D02*
X27998094Y-100667191D01*
X27998094Y-100667191D02*
X27998094Y-99667191D01*
X27998094Y-99667191D02*
X27664761Y-99667191D01*
X27664761Y-99667191D02*
X27569523Y-99714810D01*
X27569523Y-99714810D02*
X27521904Y-99762429D01*
X27521904Y-99762429D02*
X27474285Y-99857667D01*
X27474285Y-99857667D02*
X27474285Y-99952905D01*
X27474285Y-99952905D02*
X27521904Y-100048143D01*
X27521904Y-100048143D02*
X27569523Y-100095762D01*
X27569523Y-100095762D02*
X27664761Y-100143381D01*
X27664761Y-100143381D02*
X27998094Y-100143381D01*
X27045713Y-100381476D02*
X26569523Y-100381476D01*
X27140951Y-100667191D02*
X26807618Y-99667191D01*
X26807618Y-99667191D02*
X26474285Y-100667191D01*
X25569523Y-100571952D02*
X25617142Y-100619572D01*
X25617142Y-100619572D02*
X25759999Y-100667191D01*
X25759999Y-100667191D02*
X25855237Y-100667191D01*
X25855237Y-100667191D02*
X25998094Y-100619572D01*
X25998094Y-100619572D02*
X26093332Y-100524333D01*
X26093332Y-100524333D02*
X26140951Y-100429095D01*
X26140951Y-100429095D02*
X26188570Y-100238619D01*
X26188570Y-100238619D02*
X26188570Y-100095762D01*
X26188570Y-100095762D02*
X26140951Y-99905286D01*
X26140951Y-99905286D02*
X26093332Y-99810048D01*
X26093332Y-99810048D02*
X25998094Y-99714810D01*
X25998094Y-99714810D02*
X25855237Y-99667191D01*
X25855237Y-99667191D02*
X25759999Y-99667191D01*
X25759999Y-99667191D02*
X25617142Y-99714810D01*
X25617142Y-99714810D02*
X25569523Y-99762429D01*
X25140951Y-100667191D02*
X25140951Y-99667191D01*
X24569523Y-100667191D02*
X24998094Y-100095762D01*
X24569523Y-99667191D02*
X25140951Y-100238619D01*
X23426665Y-100619572D02*
X23283808Y-100667191D01*
X23283808Y-100667191D02*
X23045713Y-100667191D01*
X23045713Y-100667191D02*
X22950475Y-100619572D01*
X22950475Y-100619572D02*
X22902856Y-100571952D01*
X22902856Y-100571952D02*
X22855237Y-100476714D01*
X22855237Y-100476714D02*
X22855237Y-100381476D01*
X22855237Y-100381476D02*
X22902856Y-100286238D01*
X22902856Y-100286238D02*
X22950475Y-100238619D01*
X22950475Y-100238619D02*
X23045713Y-100191000D01*
X23045713Y-100191000D02*
X23236189Y-100143381D01*
X23236189Y-100143381D02*
X23331427Y-100095762D01*
X23331427Y-100095762D02*
X23379046Y-100048143D01*
X23379046Y-100048143D02*
X23426665Y-99952905D01*
X23426665Y-99952905D02*
X23426665Y-99857667D01*
X23426665Y-99857667D02*
X23379046Y-99762429D01*
X23379046Y-99762429D02*
X23331427Y-99714810D01*
X23331427Y-99714810D02*
X23236189Y-99667191D01*
X23236189Y-99667191D02*
X22998094Y-99667191D01*
X22998094Y-99667191D02*
X22855237Y-99714810D01*
X22426665Y-100667191D02*
X22426665Y-99667191D01*
X21950475Y-100667191D02*
X21950475Y-99667191D01*
X21950475Y-99667191D02*
X21712380Y-99667191D01*
X21712380Y-99667191D02*
X21569523Y-99714810D01*
X21569523Y-99714810D02*
X21474285Y-99810048D01*
X21474285Y-99810048D02*
X21426666Y-99905286D01*
X21426666Y-99905286D02*
X21379047Y-100095762D01*
X21379047Y-100095762D02*
X21379047Y-100238619D01*
X21379047Y-100238619D02*
X21426666Y-100429095D01*
X21426666Y-100429095D02*
X21474285Y-100524333D01*
X21474285Y-100524333D02*
X21569523Y-100619572D01*
X21569523Y-100619572D02*
X21712380Y-100667191D01*
X21712380Y-100667191D02*
X21950475Y-100667191D01*
X20950475Y-100143381D02*
X20617142Y-100143381D01*
X20474285Y-100667191D02*
X20950475Y-100667191D01*
X20950475Y-100667191D02*
X20950475Y-99667191D01*
X20950475Y-99667191D02*
X20474285Y-99667191D01*
X106426666Y-84557247D02*
X106426666Y-85271532D01*
X106426666Y-85271532D02*
X106474285Y-85414389D01*
X106474285Y-85414389D02*
X106569523Y-85509628D01*
X106569523Y-85509628D02*
X106712380Y-85557247D01*
X106712380Y-85557247D02*
X106807618Y-85557247D01*
X105521904Y-84890580D02*
X105521904Y-85557247D01*
X105950475Y-84890580D02*
X105950475Y-85414389D01*
X105950475Y-85414389D02*
X105902856Y-85509628D01*
X105902856Y-85509628D02*
X105807618Y-85557247D01*
X105807618Y-85557247D02*
X105664761Y-85557247D01*
X105664761Y-85557247D02*
X105569523Y-85509628D01*
X105569523Y-85509628D02*
X105521904Y-85462008D01*
X105045713Y-85557247D02*
X105045713Y-84890580D01*
X105045713Y-84985818D02*
X104998094Y-84938199D01*
X104998094Y-84938199D02*
X104902856Y-84890580D01*
X104902856Y-84890580D02*
X104759999Y-84890580D01*
X104759999Y-84890580D02*
X104664761Y-84938199D01*
X104664761Y-84938199D02*
X104617142Y-85033437D01*
X104617142Y-85033437D02*
X104617142Y-85557247D01*
X104617142Y-85033437D02*
X104569523Y-84938199D01*
X104569523Y-84938199D02*
X104474285Y-84890580D01*
X104474285Y-84890580D02*
X104331428Y-84890580D01*
X104331428Y-84890580D02*
X104236189Y-84938199D01*
X104236189Y-84938199D02*
X104188570Y-85033437D01*
X104188570Y-85033437D02*
X104188570Y-85557247D01*
X103712380Y-84890580D02*
X103712380Y-85890580D01*
X103712380Y-84938199D02*
X103617142Y-84890580D01*
X103617142Y-84890580D02*
X103426666Y-84890580D01*
X103426666Y-84890580D02*
X103331428Y-84938199D01*
X103331428Y-84938199D02*
X103283809Y-84985818D01*
X103283809Y-84985818D02*
X103236190Y-85081056D01*
X103236190Y-85081056D02*
X103236190Y-85366770D01*
X103236190Y-85366770D02*
X103283809Y-85462008D01*
X103283809Y-85462008D02*
X103331428Y-85509628D01*
X103331428Y-85509628D02*
X103426666Y-85557247D01*
X103426666Y-85557247D02*
X103617142Y-85557247D01*
X103617142Y-85557247D02*
X103712380Y-85509628D01*
X102140951Y-84890580D02*
X101950475Y-85557247D01*
X101950475Y-85557247D02*
X101759999Y-85081056D01*
X101759999Y-85081056D02*
X101569523Y-85557247D01*
X101569523Y-85557247D02*
X101379047Y-84890580D01*
X100998094Y-85557247D02*
X100998094Y-84557247D01*
X100569523Y-85557247D02*
X100569523Y-85033437D01*
X100569523Y-85033437D02*
X100617142Y-84938199D01*
X100617142Y-84938199D02*
X100712380Y-84890580D01*
X100712380Y-84890580D02*
X100855237Y-84890580D01*
X100855237Y-84890580D02*
X100950475Y-84938199D01*
X100950475Y-84938199D02*
X100998094Y-84985818D01*
X99712380Y-85509628D02*
X99807618Y-85557247D01*
X99807618Y-85557247D02*
X99998094Y-85557247D01*
X99998094Y-85557247D02*
X100093332Y-85509628D01*
X100093332Y-85509628D02*
X100140951Y-85414389D01*
X100140951Y-85414389D02*
X100140951Y-85033437D01*
X100140951Y-85033437D02*
X100093332Y-84938199D01*
X100093332Y-84938199D02*
X99998094Y-84890580D01*
X99998094Y-84890580D02*
X99807618Y-84890580D01*
X99807618Y-84890580D02*
X99712380Y-84938199D01*
X99712380Y-84938199D02*
X99664761Y-85033437D01*
X99664761Y-85033437D02*
X99664761Y-85128675D01*
X99664761Y-85128675D02*
X100140951Y-85223913D01*
X99236189Y-84890580D02*
X99236189Y-85557247D01*
X99236189Y-84985818D02*
X99188570Y-84938199D01*
X99188570Y-84938199D02*
X99093332Y-84890580D01*
X99093332Y-84890580D02*
X98950475Y-84890580D01*
X98950475Y-84890580D02*
X98855237Y-84938199D01*
X98855237Y-84938199D02*
X98807618Y-85033437D01*
X98807618Y-85033437D02*
X98807618Y-85557247D01*
X106164761Y-86643381D02*
X106021904Y-86691000D01*
X106021904Y-86691000D02*
X105974285Y-86738619D01*
X105974285Y-86738619D02*
X105926666Y-86833857D01*
X105926666Y-86833857D02*
X105926666Y-86976714D01*
X105926666Y-86976714D02*
X105974285Y-87071952D01*
X105974285Y-87071952D02*
X106021904Y-87119572D01*
X106021904Y-87119572D02*
X106117142Y-87167191D01*
X106117142Y-87167191D02*
X106498094Y-87167191D01*
X106498094Y-87167191D02*
X106498094Y-86167191D01*
X106498094Y-86167191D02*
X106164761Y-86167191D01*
X106164761Y-86167191D02*
X106069523Y-86214810D01*
X106069523Y-86214810D02*
X106021904Y-86262429D01*
X106021904Y-86262429D02*
X105974285Y-86357667D01*
X105974285Y-86357667D02*
X105974285Y-86452905D01*
X105974285Y-86452905D02*
X106021904Y-86548143D01*
X106021904Y-86548143D02*
X106069523Y-86595762D01*
X106069523Y-86595762D02*
X106164761Y-86643381D01*
X106164761Y-86643381D02*
X106498094Y-86643381D01*
X105545713Y-86881476D02*
X105069523Y-86881476D01*
X105640951Y-87167191D02*
X105307618Y-86167191D01*
X105307618Y-86167191D02*
X104974285Y-87167191D01*
X104069523Y-87071952D02*
X104117142Y-87119572D01*
X104117142Y-87119572D02*
X104259999Y-87167191D01*
X104259999Y-87167191D02*
X104355237Y-87167191D01*
X104355237Y-87167191D02*
X104498094Y-87119572D01*
X104498094Y-87119572D02*
X104593332Y-87024333D01*
X104593332Y-87024333D02*
X104640951Y-86929095D01*
X104640951Y-86929095D02*
X104688570Y-86738619D01*
X104688570Y-86738619D02*
X104688570Y-86595762D01*
X104688570Y-86595762D02*
X104640951Y-86405286D01*
X104640951Y-86405286D02*
X104593332Y-86310048D01*
X104593332Y-86310048D02*
X104498094Y-86214810D01*
X104498094Y-86214810D02*
X104355237Y-86167191D01*
X104355237Y-86167191D02*
X104259999Y-86167191D01*
X104259999Y-86167191D02*
X104117142Y-86214810D01*
X104117142Y-86214810D02*
X104069523Y-86262429D01*
X103640951Y-87167191D02*
X103640951Y-86167191D01*
X103069523Y-87167191D02*
X103498094Y-86595762D01*
X103069523Y-86167191D02*
X103640951Y-86738619D01*
X101926665Y-87119572D02*
X101783808Y-87167191D01*
X101783808Y-87167191D02*
X101545713Y-87167191D01*
X101545713Y-87167191D02*
X101450475Y-87119572D01*
X101450475Y-87119572D02*
X101402856Y-87071952D01*
X101402856Y-87071952D02*
X101355237Y-86976714D01*
X101355237Y-86976714D02*
X101355237Y-86881476D01*
X101355237Y-86881476D02*
X101402856Y-86786238D01*
X101402856Y-86786238D02*
X101450475Y-86738619D01*
X101450475Y-86738619D02*
X101545713Y-86691000D01*
X101545713Y-86691000D02*
X101736189Y-86643381D01*
X101736189Y-86643381D02*
X101831427Y-86595762D01*
X101831427Y-86595762D02*
X101879046Y-86548143D01*
X101879046Y-86548143D02*
X101926665Y-86452905D01*
X101926665Y-86452905D02*
X101926665Y-86357667D01*
X101926665Y-86357667D02*
X101879046Y-86262429D01*
X101879046Y-86262429D02*
X101831427Y-86214810D01*
X101831427Y-86214810D02*
X101736189Y-86167191D01*
X101736189Y-86167191D02*
X101498094Y-86167191D01*
X101498094Y-86167191D02*
X101355237Y-86214810D01*
X100926665Y-87167191D02*
X100926665Y-86167191D01*
X100450475Y-87167191D02*
X100450475Y-86167191D01*
X100450475Y-86167191D02*
X100212380Y-86167191D01*
X100212380Y-86167191D02*
X100069523Y-86214810D01*
X100069523Y-86214810D02*
X99974285Y-86310048D01*
X99974285Y-86310048D02*
X99926666Y-86405286D01*
X99926666Y-86405286D02*
X99879047Y-86595762D01*
X99879047Y-86595762D02*
X99879047Y-86738619D01*
X99879047Y-86738619D02*
X99926666Y-86929095D01*
X99926666Y-86929095D02*
X99974285Y-87024333D01*
X99974285Y-87024333D02*
X100069523Y-87119572D01*
X100069523Y-87119572D02*
X100212380Y-87167191D01*
X100212380Y-87167191D02*
X100450475Y-87167191D01*
X99450475Y-86643381D02*
X99117142Y-86643381D01*
X98974285Y-87167191D02*
X99450475Y-87167191D01*
X99450475Y-87167191D02*
X99450475Y-86167191D01*
X99450475Y-86167191D02*
X98974285Y-86167191D01*
X34634912Y-21352219D02*
X34063484Y-21352219D01*
X34349198Y-22352219D02*
X34349198Y-21352219D01*
X33730150Y-22352219D02*
X33730150Y-21352219D01*
X33301579Y-22352219D02*
X33301579Y-21828409D01*
X33301579Y-21828409D02*
X33349198Y-21733171D01*
X33349198Y-21733171D02*
X33444436Y-21685552D01*
X33444436Y-21685552D02*
X33587293Y-21685552D01*
X33587293Y-21685552D02*
X33682531Y-21733171D01*
X33682531Y-21733171D02*
X33730150Y-21780790D01*
X32825388Y-22352219D02*
X32825388Y-21685552D01*
X32825388Y-21352219D02*
X32873007Y-21399838D01*
X32873007Y-21399838D02*
X32825388Y-21447457D01*
X32825388Y-21447457D02*
X32777769Y-21399838D01*
X32777769Y-21399838D02*
X32825388Y-21352219D01*
X32825388Y-21352219D02*
X32825388Y-21447457D01*
X32396817Y-22304600D02*
X32301579Y-22352219D01*
X32301579Y-22352219D02*
X32111103Y-22352219D01*
X32111103Y-22352219D02*
X32015865Y-22304600D01*
X32015865Y-22304600D02*
X31968246Y-22209361D01*
X31968246Y-22209361D02*
X31968246Y-22161742D01*
X31968246Y-22161742D02*
X32015865Y-22066504D01*
X32015865Y-22066504D02*
X32111103Y-22018885D01*
X32111103Y-22018885D02*
X32253960Y-22018885D01*
X32253960Y-22018885D02*
X32349198Y-21971266D01*
X32349198Y-21971266D02*
X32396817Y-21876028D01*
X32396817Y-21876028D02*
X32396817Y-21828409D01*
X32396817Y-21828409D02*
X32349198Y-21733171D01*
X32349198Y-21733171D02*
X32253960Y-21685552D01*
X32253960Y-21685552D02*
X32111103Y-21685552D01*
X32111103Y-21685552D02*
X32015865Y-21733171D01*
X30777769Y-22352219D02*
X30777769Y-21685552D01*
X30777769Y-21352219D02*
X30825388Y-21399838D01*
X30825388Y-21399838D02*
X30777769Y-21447457D01*
X30777769Y-21447457D02*
X30730150Y-21399838D01*
X30730150Y-21399838D02*
X30777769Y-21352219D01*
X30777769Y-21352219D02*
X30777769Y-21447457D01*
X30349198Y-22304600D02*
X30253960Y-22352219D01*
X30253960Y-22352219D02*
X30063484Y-22352219D01*
X30063484Y-22352219D02*
X29968246Y-22304600D01*
X29968246Y-22304600D02*
X29920627Y-22209361D01*
X29920627Y-22209361D02*
X29920627Y-22161742D01*
X29920627Y-22161742D02*
X29968246Y-22066504D01*
X29968246Y-22066504D02*
X30063484Y-22018885D01*
X30063484Y-22018885D02*
X30206341Y-22018885D01*
X30206341Y-22018885D02*
X30301579Y-21971266D01*
X30301579Y-21971266D02*
X30349198Y-21876028D01*
X30349198Y-21876028D02*
X30349198Y-21828409D01*
X30349198Y-21828409D02*
X30301579Y-21733171D01*
X30301579Y-21733171D02*
X30206341Y-21685552D01*
X30206341Y-21685552D02*
X30063484Y-21685552D01*
X30063484Y-21685552D02*
X29968246Y-21733171D01*
X28730150Y-21685552D02*
X28730150Y-22352219D01*
X28730150Y-21780790D02*
X28682531Y-21733171D01*
X28682531Y-21733171D02*
X28587293Y-21685552D01*
X28587293Y-21685552D02*
X28444436Y-21685552D01*
X28444436Y-21685552D02*
X28349198Y-21733171D01*
X28349198Y-21733171D02*
X28301579Y-21828409D01*
X28301579Y-21828409D02*
X28301579Y-22352219D01*
X27682531Y-22352219D02*
X27777769Y-22304600D01*
X27777769Y-22304600D02*
X27825388Y-22256980D01*
X27825388Y-22256980D02*
X27873007Y-22161742D01*
X27873007Y-22161742D02*
X27873007Y-21876028D01*
X27873007Y-21876028D02*
X27825388Y-21780790D01*
X27825388Y-21780790D02*
X27777769Y-21733171D01*
X27777769Y-21733171D02*
X27682531Y-21685552D01*
X27682531Y-21685552D02*
X27539674Y-21685552D01*
X27539674Y-21685552D02*
X27444436Y-21733171D01*
X27444436Y-21733171D02*
X27396817Y-21780790D01*
X27396817Y-21780790D02*
X27349198Y-21876028D01*
X27349198Y-21876028D02*
X27349198Y-22161742D01*
X27349198Y-22161742D02*
X27396817Y-22256980D01*
X27396817Y-22256980D02*
X27444436Y-22304600D01*
X27444436Y-22304600D02*
X27539674Y-22352219D01*
X27539674Y-22352219D02*
X27682531Y-22352219D01*
X27063483Y-21685552D02*
X26682531Y-21685552D01*
X26920626Y-21352219D02*
X26920626Y-22209361D01*
X26920626Y-22209361D02*
X26873007Y-22304600D01*
X26873007Y-22304600D02*
X26777769Y-22352219D01*
X26777769Y-22352219D02*
X26682531Y-22352219D01*
X25587292Y-22352219D02*
X25587292Y-21685552D01*
X25587292Y-21780790D02*
X25539673Y-21733171D01*
X25539673Y-21733171D02*
X25444435Y-21685552D01*
X25444435Y-21685552D02*
X25301578Y-21685552D01*
X25301578Y-21685552D02*
X25206340Y-21733171D01*
X25206340Y-21733171D02*
X25158721Y-21828409D01*
X25158721Y-21828409D02*
X25158721Y-22352219D01*
X25158721Y-21828409D02*
X25111102Y-21733171D01*
X25111102Y-21733171D02*
X25015864Y-21685552D01*
X25015864Y-21685552D02*
X24873007Y-21685552D01*
X24873007Y-21685552D02*
X24777768Y-21733171D01*
X24777768Y-21733171D02*
X24730149Y-21828409D01*
X24730149Y-21828409D02*
X24730149Y-22352219D01*
X23873007Y-22304600D02*
X23968245Y-22352219D01*
X23968245Y-22352219D02*
X24158721Y-22352219D01*
X24158721Y-22352219D02*
X24253959Y-22304600D01*
X24253959Y-22304600D02*
X24301578Y-22209361D01*
X24301578Y-22209361D02*
X24301578Y-21828409D01*
X24301578Y-21828409D02*
X24253959Y-21733171D01*
X24253959Y-21733171D02*
X24158721Y-21685552D01*
X24158721Y-21685552D02*
X23968245Y-21685552D01*
X23968245Y-21685552D02*
X23873007Y-21733171D01*
X23873007Y-21733171D02*
X23825388Y-21828409D01*
X23825388Y-21828409D02*
X23825388Y-21923647D01*
X23825388Y-21923647D02*
X24301578Y-22018885D01*
X22968245Y-22304600D02*
X23063483Y-22352219D01*
X23063483Y-22352219D02*
X23253959Y-22352219D01*
X23253959Y-22352219D02*
X23349197Y-22304600D01*
X23349197Y-22304600D02*
X23396816Y-22256980D01*
X23396816Y-22256980D02*
X23444435Y-22161742D01*
X23444435Y-22161742D02*
X23444435Y-21876028D01*
X23444435Y-21876028D02*
X23396816Y-21780790D01*
X23396816Y-21780790D02*
X23349197Y-21733171D01*
X23349197Y-21733171D02*
X23253959Y-21685552D01*
X23253959Y-21685552D02*
X23063483Y-21685552D01*
X23063483Y-21685552D02*
X22968245Y-21733171D01*
X22539673Y-22352219D02*
X22539673Y-21352219D01*
X22111102Y-22352219D02*
X22111102Y-21828409D01*
X22111102Y-21828409D02*
X22158721Y-21733171D01*
X22158721Y-21733171D02*
X22253959Y-21685552D01*
X22253959Y-21685552D02*
X22396816Y-21685552D01*
X22396816Y-21685552D02*
X22492054Y-21733171D01*
X22492054Y-21733171D02*
X22539673Y-21780790D01*
X21206340Y-22352219D02*
X21206340Y-21828409D01*
X21206340Y-21828409D02*
X21253959Y-21733171D01*
X21253959Y-21733171D02*
X21349197Y-21685552D01*
X21349197Y-21685552D02*
X21539673Y-21685552D01*
X21539673Y-21685552D02*
X21634911Y-21733171D01*
X21206340Y-22304600D02*
X21301578Y-22352219D01*
X21301578Y-22352219D02*
X21539673Y-22352219D01*
X21539673Y-22352219D02*
X21634911Y-22304600D01*
X21634911Y-22304600D02*
X21682530Y-22209361D01*
X21682530Y-22209361D02*
X21682530Y-22114123D01*
X21682530Y-22114123D02*
X21634911Y-22018885D01*
X21634911Y-22018885D02*
X21539673Y-21971266D01*
X21539673Y-21971266D02*
X21301578Y-21971266D01*
X21301578Y-21971266D02*
X21206340Y-21923647D01*
X20730149Y-21685552D02*
X20730149Y-22352219D01*
X20730149Y-21780790D02*
X20682530Y-21733171D01*
X20682530Y-21733171D02*
X20587292Y-21685552D01*
X20587292Y-21685552D02*
X20444435Y-21685552D01*
X20444435Y-21685552D02*
X20349197Y-21733171D01*
X20349197Y-21733171D02*
X20301578Y-21828409D01*
X20301578Y-21828409D02*
X20301578Y-22352219D01*
X19825387Y-22352219D02*
X19825387Y-21685552D01*
X19825387Y-21352219D02*
X19873006Y-21399838D01*
X19873006Y-21399838D02*
X19825387Y-21447457D01*
X19825387Y-21447457D02*
X19777768Y-21399838D01*
X19777768Y-21399838D02*
X19825387Y-21352219D01*
X19825387Y-21352219D02*
X19825387Y-21447457D01*
X18920626Y-22304600D02*
X19015864Y-22352219D01*
X19015864Y-22352219D02*
X19206340Y-22352219D01*
X19206340Y-22352219D02*
X19301578Y-22304600D01*
X19301578Y-22304600D02*
X19349197Y-22256980D01*
X19349197Y-22256980D02*
X19396816Y-22161742D01*
X19396816Y-22161742D02*
X19396816Y-21876028D01*
X19396816Y-21876028D02*
X19349197Y-21780790D01*
X19349197Y-21780790D02*
X19301578Y-21733171D01*
X19301578Y-21733171D02*
X19206340Y-21685552D01*
X19206340Y-21685552D02*
X19015864Y-21685552D01*
X19015864Y-21685552D02*
X18920626Y-21733171D01*
X18063483Y-22352219D02*
X18063483Y-21828409D01*
X18063483Y-21828409D02*
X18111102Y-21733171D01*
X18111102Y-21733171D02*
X18206340Y-21685552D01*
X18206340Y-21685552D02*
X18396816Y-21685552D01*
X18396816Y-21685552D02*
X18492054Y-21733171D01*
X18063483Y-22304600D02*
X18158721Y-22352219D01*
X18158721Y-22352219D02*
X18396816Y-22352219D01*
X18396816Y-22352219D02*
X18492054Y-22304600D01*
X18492054Y-22304600D02*
X18539673Y-22209361D01*
X18539673Y-22209361D02*
X18539673Y-22114123D01*
X18539673Y-22114123D02*
X18492054Y-22018885D01*
X18492054Y-22018885D02*
X18396816Y-21971266D01*
X18396816Y-21971266D02*
X18158721Y-21971266D01*
X18158721Y-21971266D02*
X18063483Y-21923647D01*
X17444435Y-22352219D02*
X17539673Y-22304600D01*
X17539673Y-22304600D02*
X17587292Y-22209361D01*
X17587292Y-22209361D02*
X17587292Y-21352219D01*
D11*
X48581241Y-76090928D02*
X49081241Y-75376642D01*
X49438384Y-76090928D02*
X49438384Y-74590928D01*
X49438384Y-74590928D02*
X48866955Y-74590928D01*
X48866955Y-74590928D02*
X48724098Y-74662357D01*
X48724098Y-74662357D02*
X48652669Y-74733785D01*
X48652669Y-74733785D02*
X48581241Y-74876642D01*
X48581241Y-74876642D02*
X48581241Y-75090928D01*
X48581241Y-75090928D02*
X48652669Y-75233785D01*
X48652669Y-75233785D02*
X48724098Y-75305214D01*
X48724098Y-75305214D02*
X48866955Y-75376642D01*
X48866955Y-75376642D02*
X49438384Y-75376642D01*
X47938384Y-76090928D02*
X47938384Y-74590928D01*
X46438383Y-74662357D02*
X46581241Y-74590928D01*
X46581241Y-74590928D02*
X46795526Y-74590928D01*
X46795526Y-74590928D02*
X47009812Y-74662357D01*
X47009812Y-74662357D02*
X47152669Y-74805214D01*
X47152669Y-74805214D02*
X47224098Y-74948071D01*
X47224098Y-74948071D02*
X47295526Y-75233785D01*
X47295526Y-75233785D02*
X47295526Y-75448071D01*
X47295526Y-75448071D02*
X47224098Y-75733785D01*
X47224098Y-75733785D02*
X47152669Y-75876642D01*
X47152669Y-75876642D02*
X47009812Y-76019500D01*
X47009812Y-76019500D02*
X46795526Y-76090928D01*
X46795526Y-76090928D02*
X46652669Y-76090928D01*
X46652669Y-76090928D02*
X46438383Y-76019500D01*
X46438383Y-76019500D02*
X46366955Y-75948071D01*
X46366955Y-75948071D02*
X46366955Y-75448071D01*
X46366955Y-75448071D02*
X46652669Y-75448071D01*
X45724098Y-76090928D02*
X45724098Y-74590928D01*
X45724098Y-75305214D02*
X44866955Y-75305214D01*
X44866955Y-76090928D02*
X44866955Y-74590928D01*
X44366954Y-74590928D02*
X43509812Y-74590928D01*
X43938383Y-76090928D02*
X43938383Y-74590928D01*
X41938383Y-76019500D02*
X41724098Y-76090928D01*
X41724098Y-76090928D02*
X41366955Y-76090928D01*
X41366955Y-76090928D02*
X41224098Y-76019500D01*
X41224098Y-76019500D02*
X41152669Y-75948071D01*
X41152669Y-75948071D02*
X41081240Y-75805214D01*
X41081240Y-75805214D02*
X41081240Y-75662357D01*
X41081240Y-75662357D02*
X41152669Y-75519500D01*
X41152669Y-75519500D02*
X41224098Y-75448071D01*
X41224098Y-75448071D02*
X41366955Y-75376642D01*
X41366955Y-75376642D02*
X41652669Y-75305214D01*
X41652669Y-75305214D02*
X41795526Y-75233785D01*
X41795526Y-75233785D02*
X41866955Y-75162357D01*
X41866955Y-75162357D02*
X41938383Y-75019500D01*
X41938383Y-75019500D02*
X41938383Y-74876642D01*
X41938383Y-74876642D02*
X41866955Y-74733785D01*
X41866955Y-74733785D02*
X41795526Y-74662357D01*
X41795526Y-74662357D02*
X41652669Y-74590928D01*
X41652669Y-74590928D02*
X41295526Y-74590928D01*
X41295526Y-74590928D02*
X41081240Y-74662357D01*
X40438384Y-76090928D02*
X40438384Y-74590928D01*
X39724098Y-76090928D02*
X39724098Y-74590928D01*
X39724098Y-74590928D02*
X39366955Y-74590928D01*
X39366955Y-74590928D02*
X39152669Y-74662357D01*
X39152669Y-74662357D02*
X39009812Y-74805214D01*
X39009812Y-74805214D02*
X38938383Y-74948071D01*
X38938383Y-74948071D02*
X38866955Y-75233785D01*
X38866955Y-75233785D02*
X38866955Y-75448071D01*
X38866955Y-75448071D02*
X38938383Y-75733785D01*
X38938383Y-75733785D02*
X39009812Y-75876642D01*
X39009812Y-75876642D02*
X39152669Y-76019500D01*
X39152669Y-76019500D02*
X39366955Y-76090928D01*
X39366955Y-76090928D02*
X39724098Y-76090928D01*
X38224098Y-75305214D02*
X37724098Y-75305214D01*
X37509812Y-76090928D02*
X38224098Y-76090928D01*
X38224098Y-76090928D02*
X38224098Y-74590928D01*
X38224098Y-74590928D02*
X37509812Y-74590928D01*
D12*
G36*
X33806692Y-25240000D02*
G01*
X33085321Y-25240000D01*
X32883066Y-25229480D01*
X32736297Y-25202020D01*
X32604997Y-25151179D01*
X32484239Y-25074159D01*
X32397660Y-24989831D01*
X32329877Y-24883893D01*
X32298605Y-24804906D01*
X32279219Y-24716597D01*
X32273267Y-24628904D01*
X32553970Y-24628904D01*
X32563641Y-24728800D01*
X32589508Y-24801828D01*
X32633873Y-24863678D01*
X32701493Y-24921140D01*
X32780857Y-24960642D01*
X32887362Y-24987452D01*
X33008679Y-25000489D01*
X33178255Y-25005526D01*
X33536193Y-25005526D01*
X33536193Y-24263028D01*
X33111332Y-24263028D01*
X32883942Y-24273164D01*
X32794783Y-24289734D01*
X32724696Y-24316639D01*
X32640110Y-24374006D01*
X32590851Y-24437295D01*
X32564217Y-24515519D01*
X32553970Y-24628904D01*
X32273267Y-24628904D01*
X32272480Y-24617302D01*
X32286486Y-24481284D01*
X32326408Y-24366558D01*
X32391427Y-24268646D01*
X32478344Y-24188750D01*
X32585361Y-24128673D01*
X32716514Y-24088517D01*
X32716514Y-24077648D01*
X32604706Y-24003847D01*
X32519776Y-23912540D01*
X32479466Y-23841260D01*
X32454668Y-23759653D01*
X32449451Y-23702735D01*
X32727383Y-23702735D01*
X32734446Y-23787723D01*
X32754005Y-23856120D01*
X32789551Y-23914331D01*
X32844863Y-23961755D01*
X32911828Y-23995666D01*
X32984326Y-24015610D01*
X33065907Y-24024885D01*
X33186437Y-24028555D01*
X33536193Y-24028555D01*
X33536193Y-23442372D01*
X33213792Y-23442372D01*
X32987013Y-23451287D01*
X32900124Y-23467735D01*
X32831186Y-23496960D01*
X32783541Y-23533605D01*
X32752051Y-23578660D01*
X32733987Y-23632744D01*
X32727383Y-23702735D01*
X32449451Y-23702735D01*
X32446015Y-23665244D01*
X32459301Y-23542809D01*
X32496573Y-23444082D01*
X32535804Y-23387679D01*
X32589219Y-23337339D01*
X32659117Y-23292773D01*
X32762826Y-23249596D01*
X32870875Y-23224385D01*
X32995622Y-23212749D01*
X33204267Y-23207899D01*
X33806692Y-23207899D01*
X33806692Y-25240000D01*
G37*
G36*
X31469996Y-23691255D02*
G01*
X31605934Y-23732389D01*
X31723553Y-23798971D01*
X31825882Y-23892267D01*
X31906288Y-24004518D01*
X31965561Y-24136927D01*
X32003070Y-24293358D01*
X32016392Y-24478695D01*
X32003059Y-24664051D01*
X31965535Y-24820343D01*
X31906263Y-24952491D01*
X31825882Y-25064389D01*
X31723599Y-25157335D01*
X31605997Y-25223697D01*
X31470043Y-25264709D01*
X31311385Y-25279078D01*
X31154246Y-25264766D01*
X31019086Y-25223843D01*
X30901678Y-25157492D01*
X30799085Y-25064389D01*
X30718368Y-24952445D01*
X30658874Y-24820280D01*
X30621220Y-24664004D01*
X30607843Y-24478695D01*
X30872847Y-24478695D01*
X30881557Y-24623729D01*
X30905459Y-24740418D01*
X30941984Y-24833768D01*
X30989717Y-24907951D01*
X31053141Y-24970797D01*
X31126420Y-25015358D01*
X31211514Y-25042804D01*
X31311385Y-25052421D01*
X31412684Y-25042673D01*
X31498536Y-25014913D01*
X31572043Y-24969940D01*
X31635251Y-24906608D01*
X31682795Y-24831800D01*
X31719089Y-24738329D01*
X31742778Y-24622215D01*
X31751388Y-24478695D01*
X31742654Y-24329578D01*
X31718842Y-24211215D01*
X31682752Y-24118011D01*
X31635983Y-24045286D01*
X31573327Y-23983988D01*
X31499939Y-23940216D01*
X31413681Y-23913068D01*
X31311385Y-23903503D01*
X31210610Y-23913009D01*
X31125139Y-23940065D01*
X31051943Y-23983827D01*
X30988984Y-24045286D01*
X30941893Y-24118062D01*
X30905578Y-24211288D01*
X30881629Y-24329634D01*
X30872847Y-24478695D01*
X30607843Y-24478695D01*
X30621209Y-24293405D01*
X30658848Y-24136990D01*
X30718343Y-24004565D01*
X30799085Y-23892267D01*
X30901724Y-23798814D01*
X31019148Y-23732242D01*
X31154291Y-23691198D01*
X31311385Y-23676845D01*
X31469996Y-23691255D01*
G37*
G36*
X29826923Y-23682886D02*
G01*
X29968782Y-23701270D01*
X30185914Y-23745966D01*
X30185914Y-24005108D01*
X30172236Y-24005108D01*
X30040019Y-23960994D01*
X29915415Y-23929637D01*
X29793515Y-23909649D01*
X29689979Y-23903503D01*
X29530244Y-23914494D01*
X29457457Y-23931069D01*
X29398963Y-23956870D01*
X29348164Y-23995948D01*
X29310914Y-24047117D01*
X29288431Y-24109300D01*
X29280139Y-24192076D01*
X29280139Y-24231765D01*
X29699626Y-24264494D01*
X29886450Y-24297511D01*
X30034239Y-24347536D01*
X30121298Y-24394875D01*
X30191395Y-24450908D01*
X30246730Y-24515819D01*
X30286539Y-24590534D01*
X30311952Y-24682419D01*
X30321102Y-24795600D01*
X30311723Y-24898704D01*
X30284646Y-24989481D01*
X30240331Y-25070324D01*
X30177732Y-25142913D01*
X30101982Y-25202537D01*
X30019484Y-25244671D01*
X29928804Y-25270276D01*
X29827976Y-25279078D01*
X29719662Y-25273420D01*
X29632581Y-25257951D01*
X29552288Y-25233660D01*
X29485059Y-25205561D01*
X29372341Y-25139494D01*
X29280139Y-25074769D01*
X29280139Y-25240000D01*
X29024661Y-25240000D01*
X29024661Y-24866186D01*
X29280139Y-24866186D01*
X29379571Y-24934324D01*
X29487868Y-24992215D01*
X29604299Y-25031219D01*
X29735041Y-25044605D01*
X29841740Y-25035976D01*
X29920096Y-25013036D01*
X29976842Y-24978660D01*
X30019647Y-24929432D01*
X30046403Y-24865372D01*
X30056099Y-24781800D01*
X30047885Y-24707479D01*
X30024891Y-24648025D01*
X29987833Y-24600083D01*
X29911014Y-24543884D01*
X29808803Y-24502752D01*
X29707490Y-24481235D01*
X29556866Y-24463307D01*
X29280139Y-24442791D01*
X29280139Y-24866186D01*
X29024661Y-24866186D01*
X29024661Y-24204288D01*
X29036819Y-24063854D01*
X29069724Y-23956992D01*
X29125258Y-23866174D01*
X29200882Y-23794326D01*
X29294804Y-23740176D01*
X29407878Y-23703468D01*
X29532759Y-23683993D01*
X29688635Y-23676845D01*
X29826923Y-23682886D01*
G37*
G36*
X27577889Y-23997292D02*
G01*
X27591566Y-23997292D01*
X27702941Y-23979462D01*
X27830680Y-23973845D01*
X27947042Y-23986847D01*
X28060146Y-24026235D01*
X28167783Y-24085649D01*
X28273248Y-24161545D01*
X28273248Y-25240000D01*
X28530069Y-25240000D01*
X28530069Y-23715924D01*
X28273248Y-23715924D01*
X28273248Y-23941116D01*
X28121637Y-23831281D01*
X28003482Y-23767093D01*
X27884744Y-23728565D01*
X27765101Y-23715924D01*
X27668014Y-23719344D01*
X27577889Y-23732411D01*
X27577889Y-23997292D01*
G37*
G36*
X26355331Y-23780160D02*
G01*
X26457696Y-23733209D01*
X26550725Y-23702002D01*
X26647410Y-23683501D01*
X26763827Y-23676845D01*
X26893826Y-23690367D01*
X27020038Y-23731189D01*
X27135581Y-23797499D01*
X27236559Y-23888848D01*
X27319947Y-24004086D01*
X27386158Y-24145669D01*
X27416156Y-24247651D01*
X27434931Y-24361719D01*
X27441479Y-24489563D01*
X27429921Y-24677057D01*
X27397708Y-24832992D01*
X27347603Y-24962508D01*
X27281011Y-25069884D01*
X27193069Y-25161907D01*
X27093271Y-25226282D01*
X26979230Y-25265463D01*
X26847114Y-25279078D01*
X26710465Y-25265605D01*
X26586263Y-25226078D01*
X26469867Y-25163493D01*
X26355331Y-25077944D01*
X26355331Y-25240000D01*
X26098387Y-25240000D01*
X26098387Y-23992896D01*
X26355331Y-23992896D01*
X26355331Y-24864110D01*
X26456212Y-24933400D01*
X26564403Y-24988551D01*
X26677205Y-25025052D01*
X26785687Y-25036789D01*
X26886013Y-25026998D01*
X26966542Y-24999727D01*
X27031489Y-24956413D01*
X27083541Y-24896106D01*
X27131735Y-24797617D01*
X27164171Y-24663884D01*
X27176353Y-24484923D01*
X27167630Y-24346070D01*
X27143419Y-24231756D01*
X27105909Y-24137845D01*
X27056186Y-24060917D01*
X26990812Y-23996045D01*
X26914621Y-23949887D01*
X26825464Y-23921350D01*
X26720108Y-23911318D01*
X26625242Y-23915911D01*
X26541200Y-23929026D01*
X26457422Y-23952515D01*
X26355331Y-23992896D01*
X26098387Y-23992896D01*
X26098387Y-23114110D01*
X26355331Y-23114110D01*
X26355331Y-23780160D01*
G37*
G36*
X25333785Y-25240000D02*
G01*
X25590607Y-25240000D01*
X25590607Y-23114110D01*
X25333785Y-23114110D01*
X25333785Y-25240000D01*
G37*
G36*
X24386954Y-23691255D02*
G01*
X24522891Y-23732389D01*
X24640510Y-23798971D01*
X24742840Y-23892267D01*
X24823246Y-24004518D01*
X24882518Y-24136927D01*
X24920027Y-24293358D01*
X24933349Y-24478695D01*
X24920016Y-24664051D01*
X24882492Y-24820343D01*
X24823221Y-24952491D01*
X24742840Y-25064389D01*
X24640557Y-25157335D01*
X24522954Y-25223697D01*
X24387000Y-25264709D01*
X24228342Y-25279078D01*
X24071203Y-25264766D01*
X23936043Y-25223843D01*
X23818635Y-25157492D01*
X23716043Y-25064389D01*
X23635326Y-24952445D01*
X23575832Y-24820280D01*
X23538177Y-24664004D01*
X23524801Y-24478695D01*
X23789804Y-24478695D01*
X23798514Y-24623729D01*
X23822417Y-24740418D01*
X23858942Y-24833768D01*
X23906674Y-24907951D01*
X23970099Y-24970797D01*
X24043378Y-25015358D01*
X24128471Y-25042804D01*
X24228342Y-25052421D01*
X24329641Y-25042673D01*
X24415493Y-25014913D01*
X24489001Y-24969940D01*
X24552208Y-24906608D01*
X24599752Y-24831800D01*
X24636047Y-24738329D01*
X24659735Y-24622215D01*
X24668346Y-24478695D01*
X24659611Y-24329578D01*
X24635800Y-24211215D01*
X24599709Y-24118011D01*
X24552941Y-24045286D01*
X24490284Y-23983988D01*
X24416896Y-23940216D01*
X24330638Y-23913068D01*
X24228342Y-23903503D01*
X24127567Y-23913009D01*
X24042097Y-23940065D01*
X23968900Y-23983827D01*
X23905942Y-24045286D01*
X23858850Y-24118062D01*
X23822536Y-24211288D01*
X23798587Y-24329634D01*
X23789804Y-24478695D01*
X23524801Y-24478695D01*
X23538167Y-24293405D01*
X23575806Y-24136990D01*
X23635301Y-24004565D01*
X23716043Y-23892267D01*
X23818681Y-23798814D01*
X23936106Y-23732242D01*
X24071249Y-23691198D01*
X24228342Y-23676845D01*
X24386954Y-23691255D01*
G37*
G36*
X22743881Y-23682886D02*
G01*
X22885739Y-23701270D01*
X23102871Y-23745966D01*
X23102871Y-24005108D01*
X23089193Y-24005108D01*
X22956977Y-23960994D01*
X22832372Y-23929637D01*
X22710472Y-23909649D01*
X22606936Y-23903503D01*
X22447201Y-23914494D01*
X22374414Y-23931069D01*
X22315921Y-23956870D01*
X22265121Y-23995948D01*
X22227871Y-24047117D01*
X22205389Y-24109300D01*
X22197096Y-24192076D01*
X22197096Y-24231765D01*
X22616584Y-24264494D01*
X22803408Y-24297511D01*
X22951196Y-24347536D01*
X23038255Y-24394875D01*
X23108353Y-24450908D01*
X23163688Y-24515819D01*
X23203496Y-24590534D01*
X23228909Y-24682419D01*
X23238060Y-24795600D01*
X23228681Y-24898704D01*
X23201603Y-24989481D01*
X23157289Y-25070324D01*
X23094689Y-25142913D01*
X23018939Y-25202537D01*
X22936442Y-25244671D01*
X22845761Y-25270276D01*
X22744933Y-25279078D01*
X22636619Y-25273420D01*
X22549539Y-25257951D01*
X22469246Y-25233660D01*
X22402016Y-25205561D01*
X22289298Y-25139494D01*
X22197096Y-25074769D01*
X22197096Y-25240000D01*
X21941618Y-25240000D01*
X21941618Y-24866186D01*
X22197096Y-24866186D01*
X22296528Y-24934324D01*
X22404825Y-24992215D01*
X22521257Y-25031219D01*
X22651999Y-25044605D01*
X22758697Y-25035976D01*
X22837054Y-25013036D01*
X22893799Y-24978660D01*
X22936604Y-24929432D01*
X22963361Y-24865372D01*
X22973056Y-24781800D01*
X22964842Y-24707479D01*
X22941848Y-24648025D01*
X22904790Y-24600083D01*
X22827971Y-24543884D01*
X22725760Y-24502752D01*
X22624447Y-24481235D01*
X22473824Y-24463307D01*
X22197096Y-24442791D01*
X22197096Y-24866186D01*
X21941618Y-24866186D01*
X21941618Y-24204288D01*
X21953777Y-24063854D01*
X21986681Y-23956992D01*
X22042216Y-23866174D01*
X22117840Y-23794326D01*
X22211761Y-23740176D01*
X22324836Y-23703468D01*
X22449717Y-23683993D01*
X22605593Y-23676845D01*
X22743881Y-23682886D01*
G37*
G36*
X20626004Y-23364214D02*
G01*
X20639682Y-23364214D01*
X20750324Y-23338447D01*
X20870491Y-23325136D01*
X20978433Y-23334780D01*
X21055801Y-23360267D01*
X21110338Y-23398531D01*
X21148144Y-23452920D01*
X21174418Y-23537377D01*
X21184710Y-23663778D01*
X21184710Y-23715924D01*
X20721625Y-23715924D01*
X20721625Y-23934766D01*
X21176528Y-23934766D01*
X21176528Y-25240000D01*
X21433349Y-25240000D01*
X21433349Y-23934766D01*
X21606884Y-23934766D01*
X21606884Y-23715924D01*
X21433349Y-23715924D01*
X21433349Y-23665000D01*
X21423657Y-23527625D01*
X21396683Y-23414552D01*
X21354599Y-23321488D01*
X21298161Y-23245024D01*
X21226093Y-23182989D01*
X21139155Y-23137546D01*
X21034287Y-23108761D01*
X20907372Y-23098478D01*
X20752400Y-23106782D01*
X20626004Y-23126200D01*
X20626004Y-23364214D01*
G37*
G36*
X19188147Y-25240000D02*
G01*
X19444968Y-25240000D01*
X19444968Y-24373060D01*
X19457302Y-24176078D01*
X19475916Y-24090249D01*
X19502365Y-24032219D01*
X19543758Y-23982632D01*
X19600795Y-23947100D01*
X19670334Y-23926846D01*
X19767369Y-23919134D01*
X19872548Y-23931504D01*
X19987431Y-23970914D01*
X20099148Y-24029468D01*
X20207372Y-24103171D01*
X20207372Y-25240000D01*
X20464193Y-25240000D01*
X20464193Y-23114110D01*
X20207372Y-23114110D01*
X20207372Y-23887871D01*
X20083399Y-23798324D01*
X19958733Y-23732655D01*
X19828014Y-23690678D01*
X19695073Y-23676845D01*
X19572666Y-23687199D01*
X19471532Y-23716225D01*
X19387609Y-23762213D01*
X19317962Y-23825345D01*
X19264097Y-23902335D01*
X19223631Y-23996701D01*
X19197549Y-24112034D01*
X19188147Y-24252770D01*
X19188147Y-25240000D01*
G37*
G36*
X18223360Y-23691392D02*
G01*
X18364883Y-23733073D01*
X18488685Y-23800721D01*
X18597690Y-23895565D01*
X18684463Y-24010199D01*
X18747895Y-24144198D01*
X18787773Y-24301280D01*
X18801877Y-24486266D01*
X18792231Y-24638584D01*
X18764892Y-24769942D01*
X18721560Y-24883486D01*
X18662956Y-24981834D01*
X18588775Y-25066953D01*
X18476778Y-25153287D01*
X18343606Y-25216773D01*
X18185070Y-25256960D01*
X17995753Y-25271263D01*
X17849259Y-25261968D01*
X17711699Y-25234626D01*
X17577820Y-25193491D01*
X17446573Y-25143524D01*
X17446573Y-24864842D01*
X17460251Y-24864842D01*
X17540576Y-24918928D01*
X17684954Y-24984033D01*
X17843800Y-25029761D01*
X17998562Y-25044605D01*
X18112867Y-25036278D01*
X18213740Y-25012365D01*
X18305481Y-24971554D01*
X18382390Y-24915523D01*
X18447464Y-24841574D01*
X18498527Y-24746751D01*
X18529713Y-24638259D01*
X18540903Y-24505317D01*
X17416531Y-24505317D01*
X17416531Y-24366587D01*
X17420608Y-24309923D01*
X17666514Y-24309923D01*
X18540903Y-24309923D01*
X18517795Y-24195255D01*
X18471821Y-24095960D01*
X18402295Y-24009016D01*
X18337677Y-23957168D01*
X18262800Y-23919596D01*
X18175680Y-23896134D01*
X18073667Y-23887871D01*
X17971146Y-23895824D01*
X17888476Y-23917820D01*
X17821843Y-23952053D01*
X17768363Y-23998147D01*
X17714519Y-24077406D01*
X17679781Y-24179209D01*
X17666514Y-24309923D01*
X17420608Y-24309923D01*
X17428451Y-24200932D01*
X17461718Y-24063878D01*
X17513811Y-23950387D01*
X17583960Y-23856486D01*
X17673012Y-23780200D01*
X17779476Y-23724505D01*
X17906879Y-23689359D01*
X18059989Y-23676845D01*
X18223360Y-23691392D01*
G37*
D13*
X48414264Y-51031688D02*
X48271407Y-51079307D01*
X48271407Y-51079307D02*
X48033312Y-51079307D01*
X48033312Y-51079307D02*
X47938074Y-51031688D01*
X47938074Y-51031688D02*
X47890455Y-50984068D01*
X47890455Y-50984068D02*
X47842836Y-50888830D01*
X47842836Y-50888830D02*
X47842836Y-50793592D01*
X47842836Y-50793592D02*
X47890455Y-50698354D01*
X47890455Y-50698354D02*
X47938074Y-50650735D01*
X47938074Y-50650735D02*
X48033312Y-50603116D01*
X48033312Y-50603116D02*
X48223788Y-50555497D01*
X48223788Y-50555497D02*
X48319026Y-50507878D01*
X48319026Y-50507878D02*
X48366645Y-50460259D01*
X48366645Y-50460259D02*
X48414264Y-50365021D01*
X48414264Y-50365021D02*
X48414264Y-50269783D01*
X48414264Y-50269783D02*
X48366645Y-50174545D01*
X48366645Y-50174545D02*
X48319026Y-50126926D01*
X48319026Y-50126926D02*
X48223788Y-50079307D01*
X48223788Y-50079307D02*
X47985693Y-50079307D01*
X47985693Y-50079307D02*
X47842836Y-50126926D01*
X47509502Y-50079307D02*
X47271407Y-51079307D01*
X47271407Y-51079307D02*
X47080931Y-50365021D01*
X47080931Y-50365021D02*
X46890455Y-51079307D01*
X46890455Y-51079307D02*
X46652360Y-50079307D01*
X46366645Y-50079307D02*
X45699979Y-50079307D01*
X45699979Y-50079307D02*
X46128550Y-51079307D01*
X86414260Y-34031680D02*
X86271403Y-34079299D01*
X86271403Y-34079299D02*
X86033308Y-34079299D01*
X86033308Y-34079299D02*
X85938070Y-34031680D01*
X85938070Y-34031680D02*
X85890451Y-33984060D01*
X85890451Y-33984060D02*
X85842832Y-33888822D01*
X85842832Y-33888822D02*
X85842832Y-33793584D01*
X85842832Y-33793584D02*
X85890451Y-33698346D01*
X85890451Y-33698346D02*
X85938070Y-33650727D01*
X85938070Y-33650727D02*
X86033308Y-33603108D01*
X86033308Y-33603108D02*
X86223784Y-33555489D01*
X86223784Y-33555489D02*
X86319022Y-33507870D01*
X86319022Y-33507870D02*
X86366641Y-33460251D01*
X86366641Y-33460251D02*
X86414260Y-33365013D01*
X86414260Y-33365013D02*
X86414260Y-33269775D01*
X86414260Y-33269775D02*
X86366641Y-33174537D01*
X86366641Y-33174537D02*
X86319022Y-33126918D01*
X86319022Y-33126918D02*
X86223784Y-33079299D01*
X86223784Y-33079299D02*
X85985689Y-33079299D01*
X85985689Y-33079299D02*
X85842832Y-33126918D01*
X85509498Y-33079299D02*
X85271403Y-34079299D01*
X85271403Y-34079299D02*
X85080927Y-33365013D01*
X85080927Y-33365013D02*
X84890451Y-34079299D01*
X84890451Y-34079299D02*
X84652356Y-33079299D01*
X83842832Y-33412632D02*
X83842832Y-34079299D01*
X84080927Y-33031680D02*
X84319022Y-33745965D01*
X84319022Y-33745965D02*
X83699975Y-33745965D01*
D14*
X95180357Y-97859580D02*
X95227976Y-97907200D01*
X95227976Y-97907200D02*
X95370833Y-97954819D01*
X95370833Y-97954819D02*
X95466071Y-97954819D01*
X95466071Y-97954819D02*
X95608928Y-97907200D01*
X95608928Y-97907200D02*
X95704166Y-97811961D01*
X95704166Y-97811961D02*
X95751785Y-97716723D01*
X95751785Y-97716723D02*
X95799404Y-97526247D01*
X95799404Y-97526247D02*
X95799404Y-97383390D01*
X95799404Y-97383390D02*
X95751785Y-97192914D01*
X95751785Y-97192914D02*
X95704166Y-97097676D01*
X95704166Y-97097676D02*
X95608928Y-97002438D01*
X95608928Y-97002438D02*
X95466071Y-96954819D01*
X95466071Y-96954819D02*
X95370833Y-96954819D01*
X95370833Y-96954819D02*
X95227976Y-97002438D01*
X95227976Y-97002438D02*
X95180357Y-97050057D01*
X94227976Y-97954819D02*
X94799404Y-97954819D01*
X94513690Y-97954819D02*
X94513690Y-96954819D01*
X94513690Y-96954819D02*
X94608928Y-97097676D01*
X94608928Y-97097676D02*
X94704166Y-97192914D01*
X94704166Y-97192914D02*
X94799404Y-97240533D01*
X93275595Y-97954819D02*
X93847023Y-97954819D01*
X93561309Y-97954819D02*
X93561309Y-96954819D01*
X93561309Y-96954819D02*
X93656547Y-97097676D01*
X93656547Y-97097676D02*
X93751785Y-97192914D01*
X93751785Y-97192914D02*
X93847023Y-97240533D01*
D13*
X29414258Y-41031679D02*
X29271401Y-41079298D01*
X29271401Y-41079298D02*
X29033306Y-41079298D01*
X29033306Y-41079298D02*
X28938068Y-41031679D01*
X28938068Y-41031679D02*
X28890449Y-40984059D01*
X28890449Y-40984059D02*
X28842830Y-40888821D01*
X28842830Y-40888821D02*
X28842830Y-40793583D01*
X28842830Y-40793583D02*
X28890449Y-40698345D01*
X28890449Y-40698345D02*
X28938068Y-40650726D01*
X28938068Y-40650726D02*
X29033306Y-40603107D01*
X29033306Y-40603107D02*
X29223782Y-40555488D01*
X29223782Y-40555488D02*
X29319020Y-40507869D01*
X29319020Y-40507869D02*
X29366639Y-40460250D01*
X29366639Y-40460250D02*
X29414258Y-40365012D01*
X29414258Y-40365012D02*
X29414258Y-40269774D01*
X29414258Y-40269774D02*
X29366639Y-40174536D01*
X29366639Y-40174536D02*
X29319020Y-40126917D01*
X29319020Y-40126917D02*
X29223782Y-40079298D01*
X29223782Y-40079298D02*
X28985687Y-40079298D01*
X28985687Y-40079298D02*
X28842830Y-40126917D01*
X28509496Y-40079298D02*
X28271401Y-41079298D01*
X28271401Y-41079298D02*
X28080925Y-40365012D01*
X28080925Y-40365012D02*
X27890449Y-41079298D01*
X27890449Y-41079298D02*
X27652354Y-40079298D01*
X26747592Y-41079298D02*
X27319020Y-41079298D01*
X27033306Y-41079298D02*
X27033306Y-40079298D01*
X27033306Y-40079298D02*
X27128544Y-40222155D01*
X27128544Y-40222155D02*
X27223782Y-40317393D01*
X27223782Y-40317393D02*
X27319020Y-40365012D01*
X86414260Y-53031680D02*
X86271403Y-53079299D01*
X86271403Y-53079299D02*
X86033308Y-53079299D01*
X86033308Y-53079299D02*
X85938070Y-53031680D01*
X85938070Y-53031680D02*
X85890451Y-52984060D01*
X85890451Y-52984060D02*
X85842832Y-52888822D01*
X85842832Y-52888822D02*
X85842832Y-52793584D01*
X85842832Y-52793584D02*
X85890451Y-52698346D01*
X85890451Y-52698346D02*
X85938070Y-52650727D01*
X85938070Y-52650727D02*
X86033308Y-52603108D01*
X86033308Y-52603108D02*
X86223784Y-52555489D01*
X86223784Y-52555489D02*
X86319022Y-52507870D01*
X86319022Y-52507870D02*
X86366641Y-52460251D01*
X86366641Y-52460251D02*
X86414260Y-52365013D01*
X86414260Y-52365013D02*
X86414260Y-52269775D01*
X86414260Y-52269775D02*
X86366641Y-52174537D01*
X86366641Y-52174537D02*
X86319022Y-52126918D01*
X86319022Y-52126918D02*
X86223784Y-52079299D01*
X86223784Y-52079299D02*
X85985689Y-52079299D01*
X85985689Y-52079299D02*
X85842832Y-52126918D01*
X85509498Y-52079299D02*
X85271403Y-53079299D01*
X85271403Y-53079299D02*
X85080927Y-52365013D01*
X85080927Y-52365013D02*
X84890451Y-53079299D01*
X84890451Y-53079299D02*
X84652356Y-52079299D01*
X84223784Y-53079299D02*
X84033308Y-53079299D01*
X84033308Y-53079299D02*
X83938070Y-53031680D01*
X83938070Y-53031680D02*
X83890451Y-52984060D01*
X83890451Y-52984060D02*
X83795213Y-52841203D01*
X83795213Y-52841203D02*
X83747594Y-52650727D01*
X83747594Y-52650727D02*
X83747594Y-52269775D01*
X83747594Y-52269775D02*
X83795213Y-52174537D01*
X83795213Y-52174537D02*
X83842832Y-52126918D01*
X83842832Y-52126918D02*
X83938070Y-52079299D01*
X83938070Y-52079299D02*
X84128546Y-52079299D01*
X84128546Y-52079299D02*
X84223784Y-52126918D01*
X84223784Y-52126918D02*
X84271403Y-52174537D01*
X84271403Y-52174537D02*
X84319022Y-52269775D01*
X84319022Y-52269775D02*
X84319022Y-52507870D01*
X84319022Y-52507870D02*
X84271403Y-52603108D01*
X84271403Y-52603108D02*
X84223784Y-52650727D01*
X84223784Y-52650727D02*
X84128546Y-52698346D01*
X84128546Y-52698346D02*
X83938070Y-52698346D01*
X83938070Y-52698346D02*
X83842832Y-52650727D01*
X83842832Y-52650727D02*
X83795213Y-52603108D01*
X83795213Y-52603108D02*
X83747594Y-52507870D01*
X105414260Y-55031680D02*
X105271403Y-55079299D01*
X105271403Y-55079299D02*
X105033308Y-55079299D01*
X105033308Y-55079299D02*
X104938070Y-55031680D01*
X104938070Y-55031680D02*
X104890451Y-54984060D01*
X104890451Y-54984060D02*
X104842832Y-54888822D01*
X104842832Y-54888822D02*
X104842832Y-54793584D01*
X104842832Y-54793584D02*
X104890451Y-54698346D01*
X104890451Y-54698346D02*
X104938070Y-54650727D01*
X104938070Y-54650727D02*
X105033308Y-54603108D01*
X105033308Y-54603108D02*
X105223784Y-54555489D01*
X105223784Y-54555489D02*
X105319022Y-54507870D01*
X105319022Y-54507870D02*
X105366641Y-54460251D01*
X105366641Y-54460251D02*
X105414260Y-54365013D01*
X105414260Y-54365013D02*
X105414260Y-54269775D01*
X105414260Y-54269775D02*
X105366641Y-54174537D01*
X105366641Y-54174537D02*
X105319022Y-54126918D01*
X105319022Y-54126918D02*
X105223784Y-54079299D01*
X105223784Y-54079299D02*
X104985689Y-54079299D01*
X104985689Y-54079299D02*
X104842832Y-54126918D01*
X104509498Y-54079299D02*
X104271403Y-55079299D01*
X104271403Y-55079299D02*
X104080927Y-54365013D01*
X104080927Y-54365013D02*
X103890451Y-55079299D01*
X103890451Y-55079299D02*
X103652356Y-54079299D01*
X102747594Y-55079299D02*
X103319022Y-55079299D01*
X103033308Y-55079299D02*
X103033308Y-54079299D01*
X103033308Y-54079299D02*
X103128546Y-54222156D01*
X103128546Y-54222156D02*
X103223784Y-54317394D01*
X103223784Y-54317394D02*
X103319022Y-54365013D01*
X102128546Y-54079299D02*
X102033308Y-54079299D01*
X102033308Y-54079299D02*
X101938070Y-54126918D01*
X101938070Y-54126918D02*
X101890451Y-54174537D01*
X101890451Y-54174537D02*
X101842832Y-54269775D01*
X101842832Y-54269775D02*
X101795213Y-54460251D01*
X101795213Y-54460251D02*
X101795213Y-54698346D01*
X101795213Y-54698346D02*
X101842832Y-54888822D01*
X101842832Y-54888822D02*
X101890451Y-54984060D01*
X101890451Y-54984060D02*
X101938070Y-55031680D01*
X101938070Y-55031680D02*
X102033308Y-55079299D01*
X102033308Y-55079299D02*
X102128546Y-55079299D01*
X102128546Y-55079299D02*
X102223784Y-55031680D01*
X102223784Y-55031680D02*
X102271403Y-54984060D01*
X102271403Y-54984060D02*
X102319022Y-54888822D01*
X102319022Y-54888822D02*
X102366641Y-54698346D01*
X102366641Y-54698346D02*
X102366641Y-54460251D01*
X102366641Y-54460251D02*
X102319022Y-54269775D01*
X102319022Y-54269775D02*
X102271403Y-54174537D01*
X102271403Y-54174537D02*
X102223784Y-54126918D01*
X102223784Y-54126918D02*
X102128546Y-54079299D01*
X48414264Y-32031688D02*
X48271407Y-32079307D01*
X48271407Y-32079307D02*
X48033312Y-32079307D01*
X48033312Y-32079307D02*
X47938074Y-32031688D01*
X47938074Y-32031688D02*
X47890455Y-31984068D01*
X47890455Y-31984068D02*
X47842836Y-31888830D01*
X47842836Y-31888830D02*
X47842836Y-31793592D01*
X47842836Y-31793592D02*
X47890455Y-31698354D01*
X47890455Y-31698354D02*
X47938074Y-31650735D01*
X47938074Y-31650735D02*
X48033312Y-31603116D01*
X48033312Y-31603116D02*
X48223788Y-31555497D01*
X48223788Y-31555497D02*
X48319026Y-31507878D01*
X48319026Y-31507878D02*
X48366645Y-31460259D01*
X48366645Y-31460259D02*
X48414264Y-31365021D01*
X48414264Y-31365021D02*
X48414264Y-31269783D01*
X48414264Y-31269783D02*
X48366645Y-31174545D01*
X48366645Y-31174545D02*
X48319026Y-31126926D01*
X48319026Y-31126926D02*
X48223788Y-31079307D01*
X48223788Y-31079307D02*
X47985693Y-31079307D01*
X47985693Y-31079307D02*
X47842836Y-31126926D01*
X47509502Y-31079307D02*
X47271407Y-32079307D01*
X47271407Y-32079307D02*
X47080931Y-31365021D01*
X47080931Y-31365021D02*
X46890455Y-32079307D01*
X46890455Y-32079307D02*
X46652360Y-31079307D01*
X46319026Y-31174545D02*
X46271407Y-31126926D01*
X46271407Y-31126926D02*
X46176169Y-31079307D01*
X46176169Y-31079307D02*
X45938074Y-31079307D01*
X45938074Y-31079307D02*
X45842836Y-31126926D01*
X45842836Y-31126926D02*
X45795217Y-31174545D01*
X45795217Y-31174545D02*
X45747598Y-31269783D01*
X45747598Y-31269783D02*
X45747598Y-31365021D01*
X45747598Y-31365021D02*
X45795217Y-31507878D01*
X45795217Y-31507878D02*
X46366645Y-32079307D01*
X46366645Y-32079307D02*
X45747598Y-32079307D01*
D14*
X64959580Y-68857142D02*
X65007200Y-68809523D01*
X65007200Y-68809523D02*
X65054819Y-68666666D01*
X65054819Y-68666666D02*
X65054819Y-68571428D01*
X65054819Y-68571428D02*
X65007200Y-68428571D01*
X65007200Y-68428571D02*
X64911961Y-68333333D01*
X64911961Y-68333333D02*
X64816723Y-68285714D01*
X64816723Y-68285714D02*
X64626247Y-68238095D01*
X64626247Y-68238095D02*
X64483390Y-68238095D01*
X64483390Y-68238095D02*
X64292914Y-68285714D01*
X64292914Y-68285714D02*
X64197676Y-68333333D01*
X64197676Y-68333333D02*
X64102438Y-68428571D01*
X64102438Y-68428571D02*
X64054819Y-68571428D01*
X64054819Y-68571428D02*
X64054819Y-68666666D01*
X64054819Y-68666666D02*
X64102438Y-68809523D01*
X64102438Y-68809523D02*
X64150057Y-68857142D01*
X65054819Y-69809523D02*
X65054819Y-69238095D01*
X65054819Y-69523809D02*
X64054819Y-69523809D01*
X64054819Y-69523809D02*
X64197676Y-69428571D01*
X64197676Y-69428571D02*
X64292914Y-69333333D01*
X64292914Y-69333333D02*
X64340533Y-69238095D01*
X65054819Y-70761904D02*
X65054819Y-70190476D01*
X65054819Y-70476190D02*
X64054819Y-70476190D01*
X64054819Y-70476190D02*
X64197676Y-70380952D01*
X64197676Y-70380952D02*
X64292914Y-70285714D01*
X64292914Y-70285714D02*
X64340533Y-70190476D01*
X66142857Y-45859580D02*
X66190476Y-45907200D01*
X66190476Y-45907200D02*
X66333333Y-45954819D01*
X66333333Y-45954819D02*
X66428571Y-45954819D01*
X66428571Y-45954819D02*
X66571428Y-45907200D01*
X66571428Y-45907200D02*
X66666666Y-45811961D01*
X66666666Y-45811961D02*
X66714285Y-45716723D01*
X66714285Y-45716723D02*
X66761904Y-45526247D01*
X66761904Y-45526247D02*
X66761904Y-45383390D01*
X66761904Y-45383390D02*
X66714285Y-45192914D01*
X66714285Y-45192914D02*
X66666666Y-45097676D01*
X66666666Y-45097676D02*
X66571428Y-45002438D01*
X66571428Y-45002438D02*
X66428571Y-44954819D01*
X66428571Y-44954819D02*
X66333333Y-44954819D01*
X66333333Y-44954819D02*
X66190476Y-45002438D01*
X66190476Y-45002438D02*
X66142857Y-45050057D01*
X65190476Y-45954819D02*
X65761904Y-45954819D01*
X65476190Y-45954819D02*
X65476190Y-44954819D01*
X65476190Y-44954819D02*
X65571428Y-45097676D01*
X65571428Y-45097676D02*
X65666666Y-45192914D01*
X65666666Y-45192914D02*
X65761904Y-45240533D01*
X64238095Y-45954819D02*
X64809523Y-45954819D01*
X64523809Y-45954819D02*
X64523809Y-44954819D01*
X64523809Y-44954819D02*
X64619047Y-45097676D01*
X64619047Y-45097676D02*
X64714285Y-45192914D01*
X64714285Y-45192914D02*
X64809523Y-45240533D01*
D13*
X67414264Y-67031688D02*
X67271407Y-67079307D01*
X67271407Y-67079307D02*
X67033312Y-67079307D01*
X67033312Y-67079307D02*
X66938074Y-67031688D01*
X66938074Y-67031688D02*
X66890455Y-66984068D01*
X66890455Y-66984068D02*
X66842836Y-66888830D01*
X66842836Y-66888830D02*
X66842836Y-66793592D01*
X66842836Y-66793592D02*
X66890455Y-66698354D01*
X66890455Y-66698354D02*
X66938074Y-66650735D01*
X66938074Y-66650735D02*
X67033312Y-66603116D01*
X67033312Y-66603116D02*
X67223788Y-66555497D01*
X67223788Y-66555497D02*
X67319026Y-66507878D01*
X67319026Y-66507878D02*
X67366645Y-66460259D01*
X67366645Y-66460259D02*
X67414264Y-66365021D01*
X67414264Y-66365021D02*
X67414264Y-66269783D01*
X67414264Y-66269783D02*
X67366645Y-66174545D01*
X67366645Y-66174545D02*
X67319026Y-66126926D01*
X67319026Y-66126926D02*
X67223788Y-66079307D01*
X67223788Y-66079307D02*
X66985693Y-66079307D01*
X66985693Y-66079307D02*
X66842836Y-66126926D01*
X66509502Y-66079307D02*
X66271407Y-67079307D01*
X66271407Y-67079307D02*
X66080931Y-66365021D01*
X66080931Y-66365021D02*
X65890455Y-67079307D01*
X65890455Y-67079307D02*
X65652360Y-66079307D01*
X64747598Y-67079307D02*
X65319026Y-67079307D01*
X65033312Y-67079307D02*
X65033312Y-66079307D01*
X65033312Y-66079307D02*
X65128550Y-66222164D01*
X65128550Y-66222164D02*
X65223788Y-66317402D01*
X65223788Y-66317402D02*
X65319026Y-66365021D01*
X64414264Y-66079307D02*
X63795217Y-66079307D01*
X63795217Y-66079307D02*
X64128550Y-66460259D01*
X64128550Y-66460259D02*
X63985693Y-66460259D01*
X63985693Y-66460259D02*
X63890455Y-66507878D01*
X63890455Y-66507878D02*
X63842836Y-66555497D01*
X63842836Y-66555497D02*
X63795217Y-66650735D01*
X63795217Y-66650735D02*
X63795217Y-66888830D01*
X63795217Y-66888830D02*
X63842836Y-66984068D01*
X63842836Y-66984068D02*
X63890455Y-67031688D01*
X63890455Y-67031688D02*
X63985693Y-67079307D01*
X63985693Y-67079307D02*
X64271407Y-67079307D01*
X64271407Y-67079307D02*
X64366645Y-67031688D01*
X64366645Y-67031688D02*
X64414264Y-66984068D01*
D14*
X104142857Y-33859580D02*
X104190476Y-33907200D01*
X104190476Y-33907200D02*
X104333333Y-33954819D01*
X104333333Y-33954819D02*
X104428571Y-33954819D01*
X104428571Y-33954819D02*
X104571428Y-33907200D01*
X104571428Y-33907200D02*
X104666666Y-33811961D01*
X104666666Y-33811961D02*
X104714285Y-33716723D01*
X104714285Y-33716723D02*
X104761904Y-33526247D01*
X104761904Y-33526247D02*
X104761904Y-33383390D01*
X104761904Y-33383390D02*
X104714285Y-33192914D01*
X104714285Y-33192914D02*
X104666666Y-33097676D01*
X104666666Y-33097676D02*
X104571428Y-33002438D01*
X104571428Y-33002438D02*
X104428571Y-32954819D01*
X104428571Y-32954819D02*
X104333333Y-32954819D01*
X104333333Y-32954819D02*
X104190476Y-33002438D01*
X104190476Y-33002438D02*
X104142857Y-33050057D01*
X103190476Y-33954819D02*
X103761904Y-33954819D01*
X103476190Y-33954819D02*
X103476190Y-32954819D01*
X103476190Y-32954819D02*
X103571428Y-33097676D01*
X103571428Y-33097676D02*
X103666666Y-33192914D01*
X103666666Y-33192914D02*
X103761904Y-33240533D01*
X102238095Y-33954819D02*
X102809523Y-33954819D01*
X102523809Y-33954819D02*
X102523809Y-32954819D01*
X102523809Y-32954819D02*
X102619047Y-33097676D01*
X102619047Y-33097676D02*
X102714285Y-33192914D01*
X102714285Y-33192914D02*
X102809523Y-33240533D01*
X28142857Y-38859580D02*
X28190476Y-38907200D01*
X28190476Y-38907200D02*
X28333333Y-38954819D01*
X28333333Y-38954819D02*
X28428571Y-38954819D01*
X28428571Y-38954819D02*
X28571428Y-38907200D01*
X28571428Y-38907200D02*
X28666666Y-38811961D01*
X28666666Y-38811961D02*
X28714285Y-38716723D01*
X28714285Y-38716723D02*
X28761904Y-38526247D01*
X28761904Y-38526247D02*
X28761904Y-38383390D01*
X28761904Y-38383390D02*
X28714285Y-38192914D01*
X28714285Y-38192914D02*
X28666666Y-38097676D01*
X28666666Y-38097676D02*
X28571428Y-38002438D01*
X28571428Y-38002438D02*
X28428571Y-37954819D01*
X28428571Y-37954819D02*
X28333333Y-37954819D01*
X28333333Y-37954819D02*
X28190476Y-38002438D01*
X28190476Y-38002438D02*
X28142857Y-38050057D01*
X27190476Y-38954819D02*
X27761904Y-38954819D01*
X27476190Y-38954819D02*
X27476190Y-37954819D01*
X27476190Y-37954819D02*
X27571428Y-38097676D01*
X27571428Y-38097676D02*
X27666666Y-38192914D01*
X27666666Y-38192914D02*
X27761904Y-38240533D01*
X26238095Y-38954819D02*
X26809523Y-38954819D01*
X26523809Y-38954819D02*
X26523809Y-37954819D01*
X26523809Y-37954819D02*
X26619047Y-38097676D01*
X26619047Y-38097676D02*
X26714285Y-38192914D01*
X26714285Y-38192914D02*
X26809523Y-38240533D01*
X28180357Y-76859580D02*
X28227976Y-76907200D01*
X28227976Y-76907200D02*
X28370833Y-76954819D01*
X28370833Y-76954819D02*
X28466071Y-76954819D01*
X28466071Y-76954819D02*
X28608928Y-76907200D01*
X28608928Y-76907200D02*
X28704166Y-76811961D01*
X28704166Y-76811961D02*
X28751785Y-76716723D01*
X28751785Y-76716723D02*
X28799404Y-76526247D01*
X28799404Y-76526247D02*
X28799404Y-76383390D01*
X28799404Y-76383390D02*
X28751785Y-76192914D01*
X28751785Y-76192914D02*
X28704166Y-76097676D01*
X28704166Y-76097676D02*
X28608928Y-76002438D01*
X28608928Y-76002438D02*
X28466071Y-75954819D01*
X28466071Y-75954819D02*
X28370833Y-75954819D01*
X28370833Y-75954819D02*
X28227976Y-76002438D01*
X28227976Y-76002438D02*
X28180357Y-76050057D01*
X27227976Y-76954819D02*
X27799404Y-76954819D01*
X27513690Y-76954819D02*
X27513690Y-75954819D01*
X27513690Y-75954819D02*
X27608928Y-76097676D01*
X27608928Y-76097676D02*
X27704166Y-76192914D01*
X27704166Y-76192914D02*
X27799404Y-76240533D01*
X26275595Y-76954819D02*
X26847023Y-76954819D01*
X26561309Y-76954819D02*
X26561309Y-75954819D01*
X26561309Y-75954819D02*
X26656547Y-76097676D01*
X26656547Y-76097676D02*
X26751785Y-76192914D01*
X26751785Y-76192914D02*
X26847023Y-76240533D01*
D13*
X67414264Y-48031688D02*
X67271407Y-48079307D01*
X67271407Y-48079307D02*
X67033312Y-48079307D01*
X67033312Y-48079307D02*
X66938074Y-48031688D01*
X66938074Y-48031688D02*
X66890455Y-47984068D01*
X66890455Y-47984068D02*
X66842836Y-47888830D01*
X66842836Y-47888830D02*
X66842836Y-47793592D01*
X66842836Y-47793592D02*
X66890455Y-47698354D01*
X66890455Y-47698354D02*
X66938074Y-47650735D01*
X66938074Y-47650735D02*
X67033312Y-47603116D01*
X67033312Y-47603116D02*
X67223788Y-47555497D01*
X67223788Y-47555497D02*
X67319026Y-47507878D01*
X67319026Y-47507878D02*
X67366645Y-47460259D01*
X67366645Y-47460259D02*
X67414264Y-47365021D01*
X67414264Y-47365021D02*
X67414264Y-47269783D01*
X67414264Y-47269783D02*
X67366645Y-47174545D01*
X67366645Y-47174545D02*
X67319026Y-47126926D01*
X67319026Y-47126926D02*
X67223788Y-47079307D01*
X67223788Y-47079307D02*
X66985693Y-47079307D01*
X66985693Y-47079307D02*
X66842836Y-47126926D01*
X66509502Y-47079307D02*
X66271407Y-48079307D01*
X66271407Y-48079307D02*
X66080931Y-47365021D01*
X66080931Y-47365021D02*
X65890455Y-48079307D01*
X65890455Y-48079307D02*
X65652360Y-47079307D01*
X65128550Y-47507878D02*
X65223788Y-47460259D01*
X65223788Y-47460259D02*
X65271407Y-47412640D01*
X65271407Y-47412640D02*
X65319026Y-47317402D01*
X65319026Y-47317402D02*
X65319026Y-47269783D01*
X65319026Y-47269783D02*
X65271407Y-47174545D01*
X65271407Y-47174545D02*
X65223788Y-47126926D01*
X65223788Y-47126926D02*
X65128550Y-47079307D01*
X65128550Y-47079307D02*
X64938074Y-47079307D01*
X64938074Y-47079307D02*
X64842836Y-47126926D01*
X64842836Y-47126926D02*
X64795217Y-47174545D01*
X64795217Y-47174545D02*
X64747598Y-47269783D01*
X64747598Y-47269783D02*
X64747598Y-47317402D01*
X64747598Y-47317402D02*
X64795217Y-47412640D01*
X64795217Y-47412640D02*
X64842836Y-47460259D01*
X64842836Y-47460259D02*
X64938074Y-47507878D01*
X64938074Y-47507878D02*
X65128550Y-47507878D01*
X65128550Y-47507878D02*
X65223788Y-47555497D01*
X65223788Y-47555497D02*
X65271407Y-47603116D01*
X65271407Y-47603116D02*
X65319026Y-47698354D01*
X65319026Y-47698354D02*
X65319026Y-47888830D01*
X65319026Y-47888830D02*
X65271407Y-47984068D01*
X65271407Y-47984068D02*
X65223788Y-48031688D01*
X65223788Y-48031688D02*
X65128550Y-48079307D01*
X65128550Y-48079307D02*
X64938074Y-48079307D01*
X64938074Y-48079307D02*
X64842836Y-48031688D01*
X64842836Y-48031688D02*
X64795217Y-47984068D01*
X64795217Y-47984068D02*
X64747598Y-47888830D01*
X64747598Y-47888830D02*
X64747598Y-47698354D01*
X64747598Y-47698354D02*
X64795217Y-47603116D01*
X64795217Y-47603116D02*
X64842836Y-47555497D01*
X64842836Y-47555497D02*
X64938074Y-47507878D01*
X29414261Y-79031680D02*
X29271404Y-79079299D01*
X29271404Y-79079299D02*
X29033309Y-79079299D01*
X29033309Y-79079299D02*
X28938071Y-79031680D01*
X28938071Y-79031680D02*
X28890452Y-78984060D01*
X28890452Y-78984060D02*
X28842833Y-78888822D01*
X28842833Y-78888822D02*
X28842833Y-78793584D01*
X28842833Y-78793584D02*
X28890452Y-78698346D01*
X28890452Y-78698346D02*
X28938071Y-78650727D01*
X28938071Y-78650727D02*
X29033309Y-78603108D01*
X29033309Y-78603108D02*
X29223785Y-78555489D01*
X29223785Y-78555489D02*
X29319023Y-78507870D01*
X29319023Y-78507870D02*
X29366642Y-78460251D01*
X29366642Y-78460251D02*
X29414261Y-78365013D01*
X29414261Y-78365013D02*
X29414261Y-78269775D01*
X29414261Y-78269775D02*
X29366642Y-78174537D01*
X29366642Y-78174537D02*
X29319023Y-78126918D01*
X29319023Y-78126918D02*
X29223785Y-78079299D01*
X29223785Y-78079299D02*
X28985690Y-78079299D01*
X28985690Y-78079299D02*
X28842833Y-78126918D01*
X28509499Y-78079299D02*
X28271404Y-79079299D01*
X28271404Y-79079299D02*
X28080928Y-78365013D01*
X28080928Y-78365013D02*
X27890452Y-79079299D01*
X27890452Y-79079299D02*
X27652357Y-78079299D01*
X26747595Y-79079299D02*
X27319023Y-79079299D01*
X27033309Y-79079299D02*
X27033309Y-78079299D01*
X27033309Y-78079299D02*
X27128547Y-78222156D01*
X27128547Y-78222156D02*
X27223785Y-78317394D01*
X27223785Y-78317394D02*
X27319023Y-78365013D01*
X25795214Y-79079299D02*
X26366642Y-79079299D01*
X26080928Y-79079299D02*
X26080928Y-78079299D01*
X26080928Y-78079299D02*
X26176166Y-78222156D01*
X26176166Y-78222156D02*
X26271404Y-78317394D01*
X26271404Y-78317394D02*
X26366642Y-78365013D01*
X86414260Y-72031680D02*
X86271403Y-72079299D01*
X86271403Y-72079299D02*
X86033308Y-72079299D01*
X86033308Y-72079299D02*
X85938070Y-72031680D01*
X85938070Y-72031680D02*
X85890451Y-71984060D01*
X85890451Y-71984060D02*
X85842832Y-71888822D01*
X85842832Y-71888822D02*
X85842832Y-71793584D01*
X85842832Y-71793584D02*
X85890451Y-71698346D01*
X85890451Y-71698346D02*
X85938070Y-71650727D01*
X85938070Y-71650727D02*
X86033308Y-71603108D01*
X86033308Y-71603108D02*
X86223784Y-71555489D01*
X86223784Y-71555489D02*
X86319022Y-71507870D01*
X86319022Y-71507870D02*
X86366641Y-71460251D01*
X86366641Y-71460251D02*
X86414260Y-71365013D01*
X86414260Y-71365013D02*
X86414260Y-71269775D01*
X86414260Y-71269775D02*
X86366641Y-71174537D01*
X86366641Y-71174537D02*
X86319022Y-71126918D01*
X86319022Y-71126918D02*
X86223784Y-71079299D01*
X86223784Y-71079299D02*
X85985689Y-71079299D01*
X85985689Y-71079299D02*
X85842832Y-71126918D01*
X85509498Y-71079299D02*
X85271403Y-72079299D01*
X85271403Y-72079299D02*
X85080927Y-71365013D01*
X85080927Y-71365013D02*
X84890451Y-72079299D01*
X84890451Y-72079299D02*
X84652356Y-71079299D01*
X83747594Y-72079299D02*
X84319022Y-72079299D01*
X84033308Y-72079299D02*
X84033308Y-71079299D01*
X84033308Y-71079299D02*
X84128546Y-71222156D01*
X84128546Y-71222156D02*
X84223784Y-71317394D01*
X84223784Y-71317394D02*
X84319022Y-71365013D01*
X82890451Y-71412632D02*
X82890451Y-72079299D01*
X83128546Y-71031680D02*
X83366641Y-71745965D01*
X83366641Y-71745965D02*
X82747594Y-71745965D01*
D14*
X104142857Y-52859580D02*
X104190476Y-52907200D01*
X104190476Y-52907200D02*
X104333333Y-52954819D01*
X104333333Y-52954819D02*
X104428571Y-52954819D01*
X104428571Y-52954819D02*
X104571428Y-52907200D01*
X104571428Y-52907200D02*
X104666666Y-52811961D01*
X104666666Y-52811961D02*
X104714285Y-52716723D01*
X104714285Y-52716723D02*
X104761904Y-52526247D01*
X104761904Y-52526247D02*
X104761904Y-52383390D01*
X104761904Y-52383390D02*
X104714285Y-52192914D01*
X104714285Y-52192914D02*
X104666666Y-52097676D01*
X104666666Y-52097676D02*
X104571428Y-52002438D01*
X104571428Y-52002438D02*
X104428571Y-51954819D01*
X104428571Y-51954819D02*
X104333333Y-51954819D01*
X104333333Y-51954819D02*
X104190476Y-52002438D01*
X104190476Y-52002438D02*
X104142857Y-52050057D01*
X103190476Y-52954819D02*
X103761904Y-52954819D01*
X103476190Y-52954819D02*
X103476190Y-51954819D01*
X103476190Y-51954819D02*
X103571428Y-52097676D01*
X103571428Y-52097676D02*
X103666666Y-52192914D01*
X103666666Y-52192914D02*
X103761904Y-52240533D01*
X102238095Y-52954819D02*
X102809523Y-52954819D01*
X102523809Y-52954819D02*
X102523809Y-51954819D01*
X102523809Y-51954819D02*
X102619047Y-52097676D01*
X102619047Y-52097676D02*
X102714285Y-52192914D01*
X102714285Y-52192914D02*
X102809523Y-52240533D01*
D13*
X105414260Y-36031680D02*
X105271403Y-36079299D01*
X105271403Y-36079299D02*
X105033308Y-36079299D01*
X105033308Y-36079299D02*
X104938070Y-36031680D01*
X104938070Y-36031680D02*
X104890451Y-35984060D01*
X104890451Y-35984060D02*
X104842832Y-35888822D01*
X104842832Y-35888822D02*
X104842832Y-35793584D01*
X104842832Y-35793584D02*
X104890451Y-35698346D01*
X104890451Y-35698346D02*
X104938070Y-35650727D01*
X104938070Y-35650727D02*
X105033308Y-35603108D01*
X105033308Y-35603108D02*
X105223784Y-35555489D01*
X105223784Y-35555489D02*
X105319022Y-35507870D01*
X105319022Y-35507870D02*
X105366641Y-35460251D01*
X105366641Y-35460251D02*
X105414260Y-35365013D01*
X105414260Y-35365013D02*
X105414260Y-35269775D01*
X105414260Y-35269775D02*
X105366641Y-35174537D01*
X105366641Y-35174537D02*
X105319022Y-35126918D01*
X105319022Y-35126918D02*
X105223784Y-35079299D01*
X105223784Y-35079299D02*
X104985689Y-35079299D01*
X104985689Y-35079299D02*
X104842832Y-35126918D01*
X104509498Y-35079299D02*
X104271403Y-36079299D01*
X104271403Y-36079299D02*
X104080927Y-35365013D01*
X104080927Y-35365013D02*
X103890451Y-36079299D01*
X103890451Y-36079299D02*
X103652356Y-35079299D01*
X102795213Y-35079299D02*
X103271403Y-35079299D01*
X103271403Y-35079299D02*
X103319022Y-35555489D01*
X103319022Y-35555489D02*
X103271403Y-35507870D01*
X103271403Y-35507870D02*
X103176165Y-35460251D01*
X103176165Y-35460251D02*
X102938070Y-35460251D01*
X102938070Y-35460251D02*
X102842832Y-35507870D01*
X102842832Y-35507870D02*
X102795213Y-35555489D01*
X102795213Y-35555489D02*
X102747594Y-35650727D01*
X102747594Y-35650727D02*
X102747594Y-35888822D01*
X102747594Y-35888822D02*
X102795213Y-35984060D01*
X102795213Y-35984060D02*
X102842832Y-36031680D01*
X102842832Y-36031680D02*
X102938070Y-36079299D01*
X102938070Y-36079299D02*
X103176165Y-36079299D01*
X103176165Y-36079299D02*
X103271403Y-36031680D01*
X103271403Y-36031680D02*
X103319022Y-35984060D01*
D14*
X28142857Y-57859580D02*
X28190476Y-57907200D01*
X28190476Y-57907200D02*
X28333333Y-57954819D01*
X28333333Y-57954819D02*
X28428571Y-57954819D01*
X28428571Y-57954819D02*
X28571428Y-57907200D01*
X28571428Y-57907200D02*
X28666666Y-57811961D01*
X28666666Y-57811961D02*
X28714285Y-57716723D01*
X28714285Y-57716723D02*
X28761904Y-57526247D01*
X28761904Y-57526247D02*
X28761904Y-57383390D01*
X28761904Y-57383390D02*
X28714285Y-57192914D01*
X28714285Y-57192914D02*
X28666666Y-57097676D01*
X28666666Y-57097676D02*
X28571428Y-57002438D01*
X28571428Y-57002438D02*
X28428571Y-56954819D01*
X28428571Y-56954819D02*
X28333333Y-56954819D01*
X28333333Y-56954819D02*
X28190476Y-57002438D01*
X28190476Y-57002438D02*
X28142857Y-57050057D01*
X27190476Y-57954819D02*
X27761904Y-57954819D01*
X27476190Y-57954819D02*
X27476190Y-56954819D01*
X27476190Y-56954819D02*
X27571428Y-57097676D01*
X27571428Y-57097676D02*
X27666666Y-57192914D01*
X27666666Y-57192914D02*
X27761904Y-57240533D01*
X26238095Y-57954819D02*
X26809523Y-57954819D01*
X26523809Y-57954819D02*
X26523809Y-56954819D01*
X26523809Y-56954819D02*
X26619047Y-57097676D01*
X26619047Y-57097676D02*
X26714285Y-57192914D01*
X26714285Y-57192914D02*
X26809523Y-57240533D01*
X66142857Y-26859580D02*
X66190476Y-26907200D01*
X66190476Y-26907200D02*
X66333333Y-26954819D01*
X66333333Y-26954819D02*
X66428571Y-26954819D01*
X66428571Y-26954819D02*
X66571428Y-26907200D01*
X66571428Y-26907200D02*
X66666666Y-26811961D01*
X66666666Y-26811961D02*
X66714285Y-26716723D01*
X66714285Y-26716723D02*
X66761904Y-26526247D01*
X66761904Y-26526247D02*
X66761904Y-26383390D01*
X66761904Y-26383390D02*
X66714285Y-26192914D01*
X66714285Y-26192914D02*
X66666666Y-26097676D01*
X66666666Y-26097676D02*
X66571428Y-26002438D01*
X66571428Y-26002438D02*
X66428571Y-25954819D01*
X66428571Y-25954819D02*
X66333333Y-25954819D01*
X66333333Y-25954819D02*
X66190476Y-26002438D01*
X66190476Y-26002438D02*
X66142857Y-26050057D01*
X65190476Y-26954819D02*
X65761904Y-26954819D01*
X65476190Y-26954819D02*
X65476190Y-25954819D01*
X65476190Y-25954819D02*
X65571428Y-26097676D01*
X65571428Y-26097676D02*
X65666666Y-26192914D01*
X65666666Y-26192914D02*
X65761904Y-26240533D01*
X64238095Y-26954819D02*
X64809523Y-26954819D01*
X64523809Y-26954819D02*
X64523809Y-25954819D01*
X64523809Y-25954819D02*
X64619047Y-26097676D01*
X64619047Y-26097676D02*
X64714285Y-26192914D01*
X64714285Y-26192914D02*
X64809523Y-26240533D01*
X76180357Y-95859580D02*
X76227976Y-95907200D01*
X76227976Y-95907200D02*
X76370833Y-95954819D01*
X76370833Y-95954819D02*
X76466071Y-95954819D01*
X76466071Y-95954819D02*
X76608928Y-95907200D01*
X76608928Y-95907200D02*
X76704166Y-95811961D01*
X76704166Y-95811961D02*
X76751785Y-95716723D01*
X76751785Y-95716723D02*
X76799404Y-95526247D01*
X76799404Y-95526247D02*
X76799404Y-95383390D01*
X76799404Y-95383390D02*
X76751785Y-95192914D01*
X76751785Y-95192914D02*
X76704166Y-95097676D01*
X76704166Y-95097676D02*
X76608928Y-95002438D01*
X76608928Y-95002438D02*
X76466071Y-94954819D01*
X76466071Y-94954819D02*
X76370833Y-94954819D01*
X76370833Y-94954819D02*
X76227976Y-95002438D01*
X76227976Y-95002438D02*
X76180357Y-95050057D01*
X75227976Y-95954819D02*
X75799404Y-95954819D01*
X75513690Y-95954819D02*
X75513690Y-94954819D01*
X75513690Y-94954819D02*
X75608928Y-95097676D01*
X75608928Y-95097676D02*
X75704166Y-95192914D01*
X75704166Y-95192914D02*
X75799404Y-95240533D01*
X74275595Y-95954819D02*
X74847023Y-95954819D01*
X74561309Y-95954819D02*
X74561309Y-94954819D01*
X74561309Y-94954819D02*
X74656547Y-95097676D01*
X74656547Y-95097676D02*
X74751785Y-95192914D01*
X74751785Y-95192914D02*
X74847023Y-95240533D01*
D13*
X105414260Y-74031680D02*
X105271403Y-74079299D01*
X105271403Y-74079299D02*
X105033308Y-74079299D01*
X105033308Y-74079299D02*
X104938070Y-74031680D01*
X104938070Y-74031680D02*
X104890451Y-73984060D01*
X104890451Y-73984060D02*
X104842832Y-73888822D01*
X104842832Y-73888822D02*
X104842832Y-73793584D01*
X104842832Y-73793584D02*
X104890451Y-73698346D01*
X104890451Y-73698346D02*
X104938070Y-73650727D01*
X104938070Y-73650727D02*
X105033308Y-73603108D01*
X105033308Y-73603108D02*
X105223784Y-73555489D01*
X105223784Y-73555489D02*
X105319022Y-73507870D01*
X105319022Y-73507870D02*
X105366641Y-73460251D01*
X105366641Y-73460251D02*
X105414260Y-73365013D01*
X105414260Y-73365013D02*
X105414260Y-73269775D01*
X105414260Y-73269775D02*
X105366641Y-73174537D01*
X105366641Y-73174537D02*
X105319022Y-73126918D01*
X105319022Y-73126918D02*
X105223784Y-73079299D01*
X105223784Y-73079299D02*
X104985689Y-73079299D01*
X104985689Y-73079299D02*
X104842832Y-73126918D01*
X104509498Y-73079299D02*
X104271403Y-74079299D01*
X104271403Y-74079299D02*
X104080927Y-73365013D01*
X104080927Y-73365013D02*
X103890451Y-74079299D01*
X103890451Y-74079299D02*
X103652356Y-73079299D01*
X102747594Y-74079299D02*
X103319022Y-74079299D01*
X103033308Y-74079299D02*
X103033308Y-73079299D01*
X103033308Y-73079299D02*
X103128546Y-73222156D01*
X103128546Y-73222156D02*
X103223784Y-73317394D01*
X103223784Y-73317394D02*
X103319022Y-73365013D01*
X101842832Y-73079299D02*
X102319022Y-73079299D01*
X102319022Y-73079299D02*
X102366641Y-73555489D01*
X102366641Y-73555489D02*
X102319022Y-73507870D01*
X102319022Y-73507870D02*
X102223784Y-73460251D01*
X102223784Y-73460251D02*
X101985689Y-73460251D01*
X101985689Y-73460251D02*
X101890451Y-73507870D01*
X101890451Y-73507870D02*
X101842832Y-73555489D01*
X101842832Y-73555489D02*
X101795213Y-73650727D01*
X101795213Y-73650727D02*
X101795213Y-73888822D01*
X101795213Y-73888822D02*
X101842832Y-73984060D01*
X101842832Y-73984060D02*
X101890451Y-74031680D01*
X101890451Y-74031680D02*
X101985689Y-74079299D01*
X101985689Y-74079299D02*
X102223784Y-74079299D01*
X102223784Y-74079299D02*
X102319022Y-74031680D01*
X102319022Y-74031680D02*
X102366641Y-73984060D01*
X77414260Y-98031680D02*
X77271403Y-98079299D01*
X77271403Y-98079299D02*
X77033308Y-98079299D01*
X77033308Y-98079299D02*
X76938070Y-98031680D01*
X76938070Y-98031680D02*
X76890451Y-97984060D01*
X76890451Y-97984060D02*
X76842832Y-97888822D01*
X76842832Y-97888822D02*
X76842832Y-97793584D01*
X76842832Y-97793584D02*
X76890451Y-97698346D01*
X76890451Y-97698346D02*
X76938070Y-97650727D01*
X76938070Y-97650727D02*
X77033308Y-97603108D01*
X77033308Y-97603108D02*
X77223784Y-97555489D01*
X77223784Y-97555489D02*
X77319022Y-97507870D01*
X77319022Y-97507870D02*
X77366641Y-97460251D01*
X77366641Y-97460251D02*
X77414260Y-97365013D01*
X77414260Y-97365013D02*
X77414260Y-97269775D01*
X77414260Y-97269775D02*
X77366641Y-97174537D01*
X77366641Y-97174537D02*
X77319022Y-97126918D01*
X77319022Y-97126918D02*
X77223784Y-97079299D01*
X77223784Y-97079299D02*
X76985689Y-97079299D01*
X76985689Y-97079299D02*
X76842832Y-97126918D01*
X76509498Y-97079299D02*
X76271403Y-98079299D01*
X76271403Y-98079299D02*
X76080927Y-97365013D01*
X76080927Y-97365013D02*
X75890451Y-98079299D01*
X75890451Y-98079299D02*
X75652356Y-97079299D01*
X74747594Y-98079299D02*
X75319022Y-98079299D01*
X75033308Y-98079299D02*
X75033308Y-97079299D01*
X75033308Y-97079299D02*
X75128546Y-97222156D01*
X75128546Y-97222156D02*
X75223784Y-97317394D01*
X75223784Y-97317394D02*
X75319022Y-97365013D01*
X73890451Y-97079299D02*
X74080927Y-97079299D01*
X74080927Y-97079299D02*
X74176165Y-97126918D01*
X74176165Y-97126918D02*
X74223784Y-97174537D01*
X74223784Y-97174537D02*
X74319022Y-97317394D01*
X74319022Y-97317394D02*
X74366641Y-97507870D01*
X74366641Y-97507870D02*
X74366641Y-97888822D01*
X74366641Y-97888822D02*
X74319022Y-97984060D01*
X74319022Y-97984060D02*
X74271403Y-98031680D01*
X74271403Y-98031680D02*
X74176165Y-98079299D01*
X74176165Y-98079299D02*
X73985689Y-98079299D01*
X73985689Y-98079299D02*
X73890451Y-98031680D01*
X73890451Y-98031680D02*
X73842832Y-97984060D01*
X73842832Y-97984060D02*
X73795213Y-97888822D01*
X73795213Y-97888822D02*
X73795213Y-97650727D01*
X73795213Y-97650727D02*
X73842832Y-97555489D01*
X73842832Y-97555489D02*
X73890451Y-97507870D01*
X73890451Y-97507870D02*
X73985689Y-97460251D01*
X73985689Y-97460251D02*
X74176165Y-97460251D01*
X74176165Y-97460251D02*
X74271403Y-97507870D01*
X74271403Y-97507870D02*
X74319022Y-97555489D01*
X74319022Y-97555489D02*
X74366641Y-97650727D01*
D14*
X47142857Y-48859580D02*
X47190476Y-48907200D01*
X47190476Y-48907200D02*
X47333333Y-48954819D01*
X47333333Y-48954819D02*
X47428571Y-48954819D01*
X47428571Y-48954819D02*
X47571428Y-48907200D01*
X47571428Y-48907200D02*
X47666666Y-48811961D01*
X47666666Y-48811961D02*
X47714285Y-48716723D01*
X47714285Y-48716723D02*
X47761904Y-48526247D01*
X47761904Y-48526247D02*
X47761904Y-48383390D01*
X47761904Y-48383390D02*
X47714285Y-48192914D01*
X47714285Y-48192914D02*
X47666666Y-48097676D01*
X47666666Y-48097676D02*
X47571428Y-48002438D01*
X47571428Y-48002438D02*
X47428571Y-47954819D01*
X47428571Y-47954819D02*
X47333333Y-47954819D01*
X47333333Y-47954819D02*
X47190476Y-48002438D01*
X47190476Y-48002438D02*
X47142857Y-48050057D01*
X46190476Y-48954819D02*
X46761904Y-48954819D01*
X46476190Y-48954819D02*
X46476190Y-47954819D01*
X46476190Y-47954819D02*
X46571428Y-48097676D01*
X46571428Y-48097676D02*
X46666666Y-48192914D01*
X46666666Y-48192914D02*
X46761904Y-48240533D01*
X45238095Y-48954819D02*
X45809523Y-48954819D01*
X45523809Y-48954819D02*
X45523809Y-47954819D01*
X45523809Y-47954819D02*
X45619047Y-48097676D01*
X45619047Y-48097676D02*
X45714285Y-48192914D01*
X45714285Y-48192914D02*
X45809523Y-48240533D01*
D13*
X29414260Y-60031680D02*
X29271403Y-60079299D01*
X29271403Y-60079299D02*
X29033308Y-60079299D01*
X29033308Y-60079299D02*
X28938070Y-60031680D01*
X28938070Y-60031680D02*
X28890451Y-59984060D01*
X28890451Y-59984060D02*
X28842832Y-59888822D01*
X28842832Y-59888822D02*
X28842832Y-59793584D01*
X28842832Y-59793584D02*
X28890451Y-59698346D01*
X28890451Y-59698346D02*
X28938070Y-59650727D01*
X28938070Y-59650727D02*
X29033308Y-59603108D01*
X29033308Y-59603108D02*
X29223784Y-59555489D01*
X29223784Y-59555489D02*
X29319022Y-59507870D01*
X29319022Y-59507870D02*
X29366641Y-59460251D01*
X29366641Y-59460251D02*
X29414260Y-59365013D01*
X29414260Y-59365013D02*
X29414260Y-59269775D01*
X29414260Y-59269775D02*
X29366641Y-59174537D01*
X29366641Y-59174537D02*
X29319022Y-59126918D01*
X29319022Y-59126918D02*
X29223784Y-59079299D01*
X29223784Y-59079299D02*
X28985689Y-59079299D01*
X28985689Y-59079299D02*
X28842832Y-59126918D01*
X28509498Y-59079299D02*
X28271403Y-60079299D01*
X28271403Y-60079299D02*
X28080927Y-59365013D01*
X28080927Y-59365013D02*
X27890451Y-60079299D01*
X27890451Y-60079299D02*
X27652356Y-59079299D01*
X26842832Y-59079299D02*
X27033308Y-59079299D01*
X27033308Y-59079299D02*
X27128546Y-59126918D01*
X27128546Y-59126918D02*
X27176165Y-59174537D01*
X27176165Y-59174537D02*
X27271403Y-59317394D01*
X27271403Y-59317394D02*
X27319022Y-59507870D01*
X27319022Y-59507870D02*
X27319022Y-59888822D01*
X27319022Y-59888822D02*
X27271403Y-59984060D01*
X27271403Y-59984060D02*
X27223784Y-60031680D01*
X27223784Y-60031680D02*
X27128546Y-60079299D01*
X27128546Y-60079299D02*
X26938070Y-60079299D01*
X26938070Y-60079299D02*
X26842832Y-60031680D01*
X26842832Y-60031680D02*
X26795213Y-59984060D01*
X26795213Y-59984060D02*
X26747594Y-59888822D01*
X26747594Y-59888822D02*
X26747594Y-59650727D01*
X26747594Y-59650727D02*
X26795213Y-59555489D01*
X26795213Y-59555489D02*
X26842832Y-59507870D01*
X26842832Y-59507870D02*
X26938070Y-59460251D01*
X26938070Y-59460251D02*
X27128546Y-59460251D01*
X27128546Y-59460251D02*
X27223784Y-59507870D01*
X27223784Y-59507870D02*
X27271403Y-59555489D01*
X27271403Y-59555489D02*
X27319022Y-59650727D01*
X48414264Y-70031688D02*
X48271407Y-70079307D01*
X48271407Y-70079307D02*
X48033312Y-70079307D01*
X48033312Y-70079307D02*
X47938074Y-70031688D01*
X47938074Y-70031688D02*
X47890455Y-69984068D01*
X47890455Y-69984068D02*
X47842836Y-69888830D01*
X47842836Y-69888830D02*
X47842836Y-69793592D01*
X47842836Y-69793592D02*
X47890455Y-69698354D01*
X47890455Y-69698354D02*
X47938074Y-69650735D01*
X47938074Y-69650735D02*
X48033312Y-69603116D01*
X48033312Y-69603116D02*
X48223788Y-69555497D01*
X48223788Y-69555497D02*
X48319026Y-69507878D01*
X48319026Y-69507878D02*
X48366645Y-69460259D01*
X48366645Y-69460259D02*
X48414264Y-69365021D01*
X48414264Y-69365021D02*
X48414264Y-69269783D01*
X48414264Y-69269783D02*
X48366645Y-69174545D01*
X48366645Y-69174545D02*
X48319026Y-69126926D01*
X48319026Y-69126926D02*
X48223788Y-69079307D01*
X48223788Y-69079307D02*
X47985693Y-69079307D01*
X47985693Y-69079307D02*
X47842836Y-69126926D01*
X47509502Y-69079307D02*
X47271407Y-70079307D01*
X47271407Y-70079307D02*
X47080931Y-69365021D01*
X47080931Y-69365021D02*
X46890455Y-70079307D01*
X46890455Y-70079307D02*
X46652360Y-69079307D01*
X45747598Y-70079307D02*
X46319026Y-70079307D01*
X46033312Y-70079307D02*
X46033312Y-69079307D01*
X46033312Y-69079307D02*
X46128550Y-69222164D01*
X46128550Y-69222164D02*
X46223788Y-69317402D01*
X46223788Y-69317402D02*
X46319026Y-69365021D01*
X45366645Y-69174545D02*
X45319026Y-69126926D01*
X45319026Y-69126926D02*
X45223788Y-69079307D01*
X45223788Y-69079307D02*
X44985693Y-69079307D01*
X44985693Y-69079307D02*
X44890455Y-69126926D01*
X44890455Y-69126926D02*
X44842836Y-69174545D01*
X44842836Y-69174545D02*
X44795217Y-69269783D01*
X44795217Y-69269783D02*
X44795217Y-69365021D01*
X44795217Y-69365021D02*
X44842836Y-69507878D01*
X44842836Y-69507878D02*
X45414264Y-70079307D01*
X45414264Y-70079307D02*
X44795217Y-70079307D01*
D14*
X47142857Y-29859580D02*
X47190476Y-29907200D01*
X47190476Y-29907200D02*
X47333333Y-29954819D01*
X47333333Y-29954819D02*
X47428571Y-29954819D01*
X47428571Y-29954819D02*
X47571428Y-29907200D01*
X47571428Y-29907200D02*
X47666666Y-29811961D01*
X47666666Y-29811961D02*
X47714285Y-29716723D01*
X47714285Y-29716723D02*
X47761904Y-29526247D01*
X47761904Y-29526247D02*
X47761904Y-29383390D01*
X47761904Y-29383390D02*
X47714285Y-29192914D01*
X47714285Y-29192914D02*
X47666666Y-29097676D01*
X47666666Y-29097676D02*
X47571428Y-29002438D01*
X47571428Y-29002438D02*
X47428571Y-28954819D01*
X47428571Y-28954819D02*
X47333333Y-28954819D01*
X47333333Y-28954819D02*
X47190476Y-29002438D01*
X47190476Y-29002438D02*
X47142857Y-29050057D01*
X46190476Y-29954819D02*
X46761904Y-29954819D01*
X46476190Y-29954819D02*
X46476190Y-28954819D01*
X46476190Y-28954819D02*
X46571428Y-29097676D01*
X46571428Y-29097676D02*
X46666666Y-29192914D01*
X46666666Y-29192914D02*
X46761904Y-29240533D01*
X45238095Y-29954819D02*
X45809523Y-29954819D01*
X45523809Y-29954819D02*
X45523809Y-28954819D01*
X45523809Y-28954819D02*
X45619047Y-29097676D01*
X45619047Y-29097676D02*
X45714285Y-29192914D01*
X45714285Y-29192914D02*
X45809523Y-29240533D01*
X51859580Y-67094642D02*
X51907200Y-67047023D01*
X51907200Y-67047023D02*
X51954819Y-66904166D01*
X51954819Y-66904166D02*
X51954819Y-66808928D01*
X51954819Y-66808928D02*
X51907200Y-66666071D01*
X51907200Y-66666071D02*
X51811961Y-66570833D01*
X51811961Y-66570833D02*
X51716723Y-66523214D01*
X51716723Y-66523214D02*
X51526247Y-66475595D01*
X51526247Y-66475595D02*
X51383390Y-66475595D01*
X51383390Y-66475595D02*
X51192914Y-66523214D01*
X51192914Y-66523214D02*
X51097676Y-66570833D01*
X51097676Y-66570833D02*
X51002438Y-66666071D01*
X51002438Y-66666071D02*
X50954819Y-66808928D01*
X50954819Y-66808928D02*
X50954819Y-66904166D01*
X50954819Y-66904166D02*
X51002438Y-67047023D01*
X51002438Y-67047023D02*
X51050057Y-67094642D01*
X51954819Y-68047023D02*
X51954819Y-67475595D01*
X51954819Y-67761309D02*
X50954819Y-67761309D01*
X50954819Y-67761309D02*
X51097676Y-67666071D01*
X51097676Y-67666071D02*
X51192914Y-67570833D01*
X51192914Y-67570833D02*
X51240533Y-67475595D01*
X51954819Y-68999404D02*
X51954819Y-68427976D01*
X51954819Y-68713690D02*
X50954819Y-68713690D01*
X50954819Y-68713690D02*
X51097676Y-68618452D01*
X51097676Y-68618452D02*
X51192914Y-68523214D01*
X51192914Y-68523214D02*
X51240533Y-68427976D01*
X47180357Y-67859580D02*
X47227976Y-67907200D01*
X47227976Y-67907200D02*
X47370833Y-67954819D01*
X47370833Y-67954819D02*
X47466071Y-67954819D01*
X47466071Y-67954819D02*
X47608928Y-67907200D01*
X47608928Y-67907200D02*
X47704166Y-67811961D01*
X47704166Y-67811961D02*
X47751785Y-67716723D01*
X47751785Y-67716723D02*
X47799404Y-67526247D01*
X47799404Y-67526247D02*
X47799404Y-67383390D01*
X47799404Y-67383390D02*
X47751785Y-67192914D01*
X47751785Y-67192914D02*
X47704166Y-67097676D01*
X47704166Y-67097676D02*
X47608928Y-67002438D01*
X47608928Y-67002438D02*
X47466071Y-66954819D01*
X47466071Y-66954819D02*
X47370833Y-66954819D01*
X47370833Y-66954819D02*
X47227976Y-67002438D01*
X47227976Y-67002438D02*
X47180357Y-67050057D01*
X46227976Y-67954819D02*
X46799404Y-67954819D01*
X46513690Y-67954819D02*
X46513690Y-66954819D01*
X46513690Y-66954819D02*
X46608928Y-67097676D01*
X46608928Y-67097676D02*
X46704166Y-67192914D01*
X46704166Y-67192914D02*
X46799404Y-67240533D01*
X45275595Y-67954819D02*
X45847023Y-67954819D01*
X45561309Y-67954819D02*
X45561309Y-66954819D01*
X45561309Y-66954819D02*
X45656547Y-67097676D01*
X45656547Y-67097676D02*
X45751785Y-67192914D01*
X45751785Y-67192914D02*
X45847023Y-67240533D01*
X85180357Y-69859580D02*
X85227976Y-69907200D01*
X85227976Y-69907200D02*
X85370833Y-69954819D01*
X85370833Y-69954819D02*
X85466071Y-69954819D01*
X85466071Y-69954819D02*
X85608928Y-69907200D01*
X85608928Y-69907200D02*
X85704166Y-69811961D01*
X85704166Y-69811961D02*
X85751785Y-69716723D01*
X85751785Y-69716723D02*
X85799404Y-69526247D01*
X85799404Y-69526247D02*
X85799404Y-69383390D01*
X85799404Y-69383390D02*
X85751785Y-69192914D01*
X85751785Y-69192914D02*
X85704166Y-69097676D01*
X85704166Y-69097676D02*
X85608928Y-69002438D01*
X85608928Y-69002438D02*
X85466071Y-68954819D01*
X85466071Y-68954819D02*
X85370833Y-68954819D01*
X85370833Y-68954819D02*
X85227976Y-69002438D01*
X85227976Y-69002438D02*
X85180357Y-69050057D01*
X84227976Y-69954819D02*
X84799404Y-69954819D01*
X84513690Y-69954819D02*
X84513690Y-68954819D01*
X84513690Y-68954819D02*
X84608928Y-69097676D01*
X84608928Y-69097676D02*
X84704166Y-69192914D01*
X84704166Y-69192914D02*
X84799404Y-69240533D01*
X83275595Y-69954819D02*
X83847023Y-69954819D01*
X83561309Y-69954819D02*
X83561309Y-68954819D01*
X83561309Y-68954819D02*
X83656547Y-69097676D01*
X83656547Y-69097676D02*
X83751785Y-69192914D01*
X83751785Y-69192914D02*
X83847023Y-69240533D01*
D13*
X96414260Y-100031680D02*
X96271403Y-100079299D01*
X96271403Y-100079299D02*
X96033308Y-100079299D01*
X96033308Y-100079299D02*
X95938070Y-100031680D01*
X95938070Y-100031680D02*
X95890451Y-99984060D01*
X95890451Y-99984060D02*
X95842832Y-99888822D01*
X95842832Y-99888822D02*
X95842832Y-99793584D01*
X95842832Y-99793584D02*
X95890451Y-99698346D01*
X95890451Y-99698346D02*
X95938070Y-99650727D01*
X95938070Y-99650727D02*
X96033308Y-99603108D01*
X96033308Y-99603108D02*
X96223784Y-99555489D01*
X96223784Y-99555489D02*
X96319022Y-99507870D01*
X96319022Y-99507870D02*
X96366641Y-99460251D01*
X96366641Y-99460251D02*
X96414260Y-99365013D01*
X96414260Y-99365013D02*
X96414260Y-99269775D01*
X96414260Y-99269775D02*
X96366641Y-99174537D01*
X96366641Y-99174537D02*
X96319022Y-99126918D01*
X96319022Y-99126918D02*
X96223784Y-99079299D01*
X96223784Y-99079299D02*
X95985689Y-99079299D01*
X95985689Y-99079299D02*
X95842832Y-99126918D01*
X95509498Y-99079299D02*
X95271403Y-100079299D01*
X95271403Y-100079299D02*
X95080927Y-99365013D01*
X95080927Y-99365013D02*
X94890451Y-100079299D01*
X94890451Y-100079299D02*
X94652356Y-99079299D01*
X93747594Y-100079299D02*
X94319022Y-100079299D01*
X94033308Y-100079299D02*
X94033308Y-99079299D01*
X94033308Y-99079299D02*
X94128546Y-99222156D01*
X94128546Y-99222156D02*
X94223784Y-99317394D01*
X94223784Y-99317394D02*
X94319022Y-99365013D01*
X93414260Y-99079299D02*
X92747594Y-99079299D01*
X92747594Y-99079299D02*
X93176165Y-100079299D01*
D14*
X104180357Y-71859580D02*
X104227976Y-71907200D01*
X104227976Y-71907200D02*
X104370833Y-71954819D01*
X104370833Y-71954819D02*
X104466071Y-71954819D01*
X104466071Y-71954819D02*
X104608928Y-71907200D01*
X104608928Y-71907200D02*
X104704166Y-71811961D01*
X104704166Y-71811961D02*
X104751785Y-71716723D01*
X104751785Y-71716723D02*
X104799404Y-71526247D01*
X104799404Y-71526247D02*
X104799404Y-71383390D01*
X104799404Y-71383390D02*
X104751785Y-71192914D01*
X104751785Y-71192914D02*
X104704166Y-71097676D01*
X104704166Y-71097676D02*
X104608928Y-71002438D01*
X104608928Y-71002438D02*
X104466071Y-70954819D01*
X104466071Y-70954819D02*
X104370833Y-70954819D01*
X104370833Y-70954819D02*
X104227976Y-71002438D01*
X104227976Y-71002438D02*
X104180357Y-71050057D01*
X103227976Y-71954819D02*
X103799404Y-71954819D01*
X103513690Y-71954819D02*
X103513690Y-70954819D01*
X103513690Y-70954819D02*
X103608928Y-71097676D01*
X103608928Y-71097676D02*
X103704166Y-71192914D01*
X103704166Y-71192914D02*
X103799404Y-71240533D01*
X102275595Y-71954819D02*
X102847023Y-71954819D01*
X102561309Y-71954819D02*
X102561309Y-70954819D01*
X102561309Y-70954819D02*
X102656547Y-71097676D01*
X102656547Y-71097676D02*
X102751785Y-71192914D01*
X102751785Y-71192914D02*
X102847023Y-71240533D01*
D13*
X115404260Y-103031680D02*
X115261403Y-103079299D01*
X115261403Y-103079299D02*
X115023308Y-103079299D01*
X115023308Y-103079299D02*
X114928070Y-103031680D01*
X114928070Y-103031680D02*
X114880451Y-102984060D01*
X114880451Y-102984060D02*
X114832832Y-102888822D01*
X114832832Y-102888822D02*
X114832832Y-102793584D01*
X114832832Y-102793584D02*
X114880451Y-102698346D01*
X114880451Y-102698346D02*
X114928070Y-102650727D01*
X114928070Y-102650727D02*
X115023308Y-102603108D01*
X115023308Y-102603108D02*
X115213784Y-102555489D01*
X115213784Y-102555489D02*
X115309022Y-102507870D01*
X115309022Y-102507870D02*
X115356641Y-102460251D01*
X115356641Y-102460251D02*
X115404260Y-102365013D01*
X115404260Y-102365013D02*
X115404260Y-102269775D01*
X115404260Y-102269775D02*
X115356641Y-102174537D01*
X115356641Y-102174537D02*
X115309022Y-102126918D01*
X115309022Y-102126918D02*
X115213784Y-102079299D01*
X115213784Y-102079299D02*
X114975689Y-102079299D01*
X114975689Y-102079299D02*
X114832832Y-102126918D01*
X114499498Y-102079299D02*
X114261403Y-103079299D01*
X114261403Y-103079299D02*
X114070927Y-102365013D01*
X114070927Y-102365013D02*
X113880451Y-103079299D01*
X113880451Y-103079299D02*
X113642356Y-102079299D01*
X112737594Y-103079299D02*
X113309022Y-103079299D01*
X113023308Y-103079299D02*
X113023308Y-102079299D01*
X113023308Y-102079299D02*
X113118546Y-102222156D01*
X113118546Y-102222156D02*
X113213784Y-102317394D01*
X113213784Y-102317394D02*
X113309022Y-102365013D01*
X112166165Y-102507870D02*
X112261403Y-102460251D01*
X112261403Y-102460251D02*
X112309022Y-102412632D01*
X112309022Y-102412632D02*
X112356641Y-102317394D01*
X112356641Y-102317394D02*
X112356641Y-102269775D01*
X112356641Y-102269775D02*
X112309022Y-102174537D01*
X112309022Y-102174537D02*
X112261403Y-102126918D01*
X112261403Y-102126918D02*
X112166165Y-102079299D01*
X112166165Y-102079299D02*
X111975689Y-102079299D01*
X111975689Y-102079299D02*
X111880451Y-102126918D01*
X111880451Y-102126918D02*
X111832832Y-102174537D01*
X111832832Y-102174537D02*
X111785213Y-102269775D01*
X111785213Y-102269775D02*
X111785213Y-102317394D01*
X111785213Y-102317394D02*
X111832832Y-102412632D01*
X111832832Y-102412632D02*
X111880451Y-102460251D01*
X111880451Y-102460251D02*
X111975689Y-102507870D01*
X111975689Y-102507870D02*
X112166165Y-102507870D01*
X112166165Y-102507870D02*
X112261403Y-102555489D01*
X112261403Y-102555489D02*
X112309022Y-102603108D01*
X112309022Y-102603108D02*
X112356641Y-102698346D01*
X112356641Y-102698346D02*
X112356641Y-102888822D01*
X112356641Y-102888822D02*
X112309022Y-102984060D01*
X112309022Y-102984060D02*
X112261403Y-103031680D01*
X112261403Y-103031680D02*
X112166165Y-103079299D01*
X112166165Y-103079299D02*
X111975689Y-103079299D01*
X111975689Y-103079299D02*
X111880451Y-103031680D01*
X111880451Y-103031680D02*
X111832832Y-102984060D01*
X111832832Y-102984060D02*
X111785213Y-102888822D01*
X111785213Y-102888822D02*
X111785213Y-102698346D01*
X111785213Y-102698346D02*
X111832832Y-102603108D01*
X111832832Y-102603108D02*
X111880451Y-102555489D01*
X111880451Y-102555489D02*
X111975689Y-102507870D01*
D14*
X66180357Y-64859580D02*
X66227976Y-64907200D01*
X66227976Y-64907200D02*
X66370833Y-64954819D01*
X66370833Y-64954819D02*
X66466071Y-64954819D01*
X66466071Y-64954819D02*
X66608928Y-64907200D01*
X66608928Y-64907200D02*
X66704166Y-64811961D01*
X66704166Y-64811961D02*
X66751785Y-64716723D01*
X66751785Y-64716723D02*
X66799404Y-64526247D01*
X66799404Y-64526247D02*
X66799404Y-64383390D01*
X66799404Y-64383390D02*
X66751785Y-64192914D01*
X66751785Y-64192914D02*
X66704166Y-64097676D01*
X66704166Y-64097676D02*
X66608928Y-64002438D01*
X66608928Y-64002438D02*
X66466071Y-63954819D01*
X66466071Y-63954819D02*
X66370833Y-63954819D01*
X66370833Y-63954819D02*
X66227976Y-64002438D01*
X66227976Y-64002438D02*
X66180357Y-64050057D01*
X65227976Y-64954819D02*
X65799404Y-64954819D01*
X65513690Y-64954819D02*
X65513690Y-63954819D01*
X65513690Y-63954819D02*
X65608928Y-64097676D01*
X65608928Y-64097676D02*
X65704166Y-64192914D01*
X65704166Y-64192914D02*
X65799404Y-64240533D01*
X64275595Y-64954819D02*
X64847023Y-64954819D01*
X64561309Y-64954819D02*
X64561309Y-63954819D01*
X64561309Y-63954819D02*
X64656547Y-64097676D01*
X64656547Y-64097676D02*
X64751785Y-64192914D01*
X64751785Y-64192914D02*
X64847023Y-64240533D01*
X80859580Y-71157142D02*
X80907200Y-71109523D01*
X80907200Y-71109523D02*
X80954819Y-70966666D01*
X80954819Y-70966666D02*
X80954819Y-70871428D01*
X80954819Y-70871428D02*
X80907200Y-70728571D01*
X80907200Y-70728571D02*
X80811961Y-70633333D01*
X80811961Y-70633333D02*
X80716723Y-70585714D01*
X80716723Y-70585714D02*
X80526247Y-70538095D01*
X80526247Y-70538095D02*
X80383390Y-70538095D01*
X80383390Y-70538095D02*
X80192914Y-70585714D01*
X80192914Y-70585714D02*
X80097676Y-70633333D01*
X80097676Y-70633333D02*
X80002438Y-70728571D01*
X80002438Y-70728571D02*
X79954819Y-70871428D01*
X79954819Y-70871428D02*
X79954819Y-70966666D01*
X79954819Y-70966666D02*
X80002438Y-71109523D01*
X80002438Y-71109523D02*
X80050057Y-71157142D01*
X80954819Y-72109523D02*
X80954819Y-71538095D01*
X80954819Y-71823809D02*
X79954819Y-71823809D01*
X79954819Y-71823809D02*
X80097676Y-71728571D01*
X80097676Y-71728571D02*
X80192914Y-71633333D01*
X80192914Y-71633333D02*
X80240533Y-71538095D01*
X80954819Y-73061904D02*
X80954819Y-72490476D01*
X80954819Y-72776190D02*
X79954819Y-72776190D01*
X79954819Y-72776190D02*
X80097676Y-72680952D01*
X80097676Y-72680952D02*
X80192914Y-72585714D01*
X80192914Y-72585714D02*
X80240533Y-72490476D01*
X85142857Y-31859580D02*
X85190476Y-31907200D01*
X85190476Y-31907200D02*
X85333333Y-31954819D01*
X85333333Y-31954819D02*
X85428571Y-31954819D01*
X85428571Y-31954819D02*
X85571428Y-31907200D01*
X85571428Y-31907200D02*
X85666666Y-31811961D01*
X85666666Y-31811961D02*
X85714285Y-31716723D01*
X85714285Y-31716723D02*
X85761904Y-31526247D01*
X85761904Y-31526247D02*
X85761904Y-31383390D01*
X85761904Y-31383390D02*
X85714285Y-31192914D01*
X85714285Y-31192914D02*
X85666666Y-31097676D01*
X85666666Y-31097676D02*
X85571428Y-31002438D01*
X85571428Y-31002438D02*
X85428571Y-30954819D01*
X85428571Y-30954819D02*
X85333333Y-30954819D01*
X85333333Y-30954819D02*
X85190476Y-31002438D01*
X85190476Y-31002438D02*
X85142857Y-31050057D01*
X84190476Y-31954819D02*
X84761904Y-31954819D01*
X84476190Y-31954819D02*
X84476190Y-30954819D01*
X84476190Y-30954819D02*
X84571428Y-31097676D01*
X84571428Y-31097676D02*
X84666666Y-31192914D01*
X84666666Y-31192914D02*
X84761904Y-31240533D01*
X83238095Y-31954819D02*
X83809523Y-31954819D01*
X83523809Y-31954819D02*
X83523809Y-30954819D01*
X83523809Y-30954819D02*
X83619047Y-31097676D01*
X83619047Y-31097676D02*
X83714285Y-31192914D01*
X83714285Y-31192914D02*
X83809523Y-31240533D01*
X85142857Y-50859580D02*
X85190476Y-50907200D01*
X85190476Y-50907200D02*
X85333333Y-50954819D01*
X85333333Y-50954819D02*
X85428571Y-50954819D01*
X85428571Y-50954819D02*
X85571428Y-50907200D01*
X85571428Y-50907200D02*
X85666666Y-50811961D01*
X85666666Y-50811961D02*
X85714285Y-50716723D01*
X85714285Y-50716723D02*
X85761904Y-50526247D01*
X85761904Y-50526247D02*
X85761904Y-50383390D01*
X85761904Y-50383390D02*
X85714285Y-50192914D01*
X85714285Y-50192914D02*
X85666666Y-50097676D01*
X85666666Y-50097676D02*
X85571428Y-50002438D01*
X85571428Y-50002438D02*
X85428571Y-49954819D01*
X85428571Y-49954819D02*
X85333333Y-49954819D01*
X85333333Y-49954819D02*
X85190476Y-50002438D01*
X85190476Y-50002438D02*
X85142857Y-50050057D01*
X84190476Y-50954819D02*
X84761904Y-50954819D01*
X84476190Y-50954819D02*
X84476190Y-49954819D01*
X84476190Y-49954819D02*
X84571428Y-50097676D01*
X84571428Y-50097676D02*
X84666666Y-50192914D01*
X84666666Y-50192914D02*
X84761904Y-50240533D01*
X83238095Y-50954819D02*
X83809523Y-50954819D01*
X83523809Y-50954819D02*
X83523809Y-49954819D01*
X83523809Y-49954819D02*
X83619047Y-50097676D01*
X83619047Y-50097676D02*
X83714285Y-50192914D01*
X83714285Y-50192914D02*
X83809523Y-50240533D01*
D13*
X67414264Y-29031688D02*
X67271407Y-29079307D01*
X67271407Y-29079307D02*
X67033312Y-29079307D01*
X67033312Y-29079307D02*
X66938074Y-29031688D01*
X66938074Y-29031688D02*
X66890455Y-28984068D01*
X66890455Y-28984068D02*
X66842836Y-28888830D01*
X66842836Y-28888830D02*
X66842836Y-28793592D01*
X66842836Y-28793592D02*
X66890455Y-28698354D01*
X66890455Y-28698354D02*
X66938074Y-28650735D01*
X66938074Y-28650735D02*
X67033312Y-28603116D01*
X67033312Y-28603116D02*
X67223788Y-28555497D01*
X67223788Y-28555497D02*
X67319026Y-28507878D01*
X67319026Y-28507878D02*
X67366645Y-28460259D01*
X67366645Y-28460259D02*
X67414264Y-28365021D01*
X67414264Y-28365021D02*
X67414264Y-28269783D01*
X67414264Y-28269783D02*
X67366645Y-28174545D01*
X67366645Y-28174545D02*
X67319026Y-28126926D01*
X67319026Y-28126926D02*
X67223788Y-28079307D01*
X67223788Y-28079307D02*
X66985693Y-28079307D01*
X66985693Y-28079307D02*
X66842836Y-28126926D01*
X66509502Y-28079307D02*
X66271407Y-29079307D01*
X66271407Y-29079307D02*
X66080931Y-28365021D01*
X66080931Y-28365021D02*
X65890455Y-29079307D01*
X65890455Y-29079307D02*
X65652360Y-28079307D01*
X65366645Y-28079307D02*
X64747598Y-28079307D01*
X64747598Y-28079307D02*
X65080931Y-28460259D01*
X65080931Y-28460259D02*
X64938074Y-28460259D01*
X64938074Y-28460259D02*
X64842836Y-28507878D01*
X64842836Y-28507878D02*
X64795217Y-28555497D01*
X64795217Y-28555497D02*
X64747598Y-28650735D01*
X64747598Y-28650735D02*
X64747598Y-28888830D01*
X64747598Y-28888830D02*
X64795217Y-28984068D01*
X64795217Y-28984068D02*
X64842836Y-29031688D01*
X64842836Y-29031688D02*
X64938074Y-29079307D01*
X64938074Y-29079307D02*
X65223788Y-29079307D01*
X65223788Y-29079307D02*
X65319026Y-29031688D01*
X65319026Y-29031688D02*
X65366645Y-28984068D01*
D14*
X114180357Y-100859580D02*
X114227976Y-100907200D01*
X114227976Y-100907200D02*
X114370833Y-100954819D01*
X114370833Y-100954819D02*
X114466071Y-100954819D01*
X114466071Y-100954819D02*
X114608928Y-100907200D01*
X114608928Y-100907200D02*
X114704166Y-100811961D01*
X114704166Y-100811961D02*
X114751785Y-100716723D01*
X114751785Y-100716723D02*
X114799404Y-100526247D01*
X114799404Y-100526247D02*
X114799404Y-100383390D01*
X114799404Y-100383390D02*
X114751785Y-100192914D01*
X114751785Y-100192914D02*
X114704166Y-100097676D01*
X114704166Y-100097676D02*
X114608928Y-100002438D01*
X114608928Y-100002438D02*
X114466071Y-99954819D01*
X114466071Y-99954819D02*
X114370833Y-99954819D01*
X114370833Y-99954819D02*
X114227976Y-100002438D01*
X114227976Y-100002438D02*
X114180357Y-100050057D01*
X113227976Y-100954819D02*
X113799404Y-100954819D01*
X113513690Y-100954819D02*
X113513690Y-99954819D01*
X113513690Y-99954819D02*
X113608928Y-100097676D01*
X113608928Y-100097676D02*
X113704166Y-100192914D01*
X113704166Y-100192914D02*
X113799404Y-100240533D01*
X112275595Y-100954819D02*
X112847023Y-100954819D01*
X112561309Y-100954819D02*
X112561309Y-99954819D01*
X112561309Y-99954819D02*
X112656547Y-100097676D01*
X112656547Y-100097676D02*
X112751785Y-100192914D01*
X112751785Y-100192914D02*
X112847023Y-100240533D01*
X62095819Y-84631302D02*
X62095819Y-84783683D01*
X62095819Y-84783683D02*
X62048200Y-84859873D01*
X62048200Y-84859873D02*
X62000580Y-84897969D01*
X62000580Y-84897969D02*
X61857723Y-84974159D01*
X61857723Y-84974159D02*
X61667247Y-85012254D01*
X61667247Y-85012254D02*
X61286295Y-85012254D01*
X61286295Y-85012254D02*
X61191057Y-84974159D01*
X61191057Y-84974159D02*
X61143438Y-84936064D01*
X61143438Y-84936064D02*
X61095819Y-84859873D01*
X61095819Y-84859873D02*
X61095819Y-84707492D01*
X61095819Y-84707492D02*
X61143438Y-84631302D01*
X61143438Y-84631302D02*
X61191057Y-84593207D01*
X61191057Y-84593207D02*
X61286295Y-84555111D01*
X61286295Y-84555111D02*
X61524390Y-84555111D01*
X61524390Y-84555111D02*
X61619628Y-84593207D01*
X61619628Y-84593207D02*
X61667247Y-84631302D01*
X61667247Y-84631302D02*
X61714866Y-84707492D01*
X61714866Y-84707492D02*
X61714866Y-84859873D01*
X61714866Y-84859873D02*
X61667247Y-84936064D01*
X61667247Y-84936064D02*
X61619628Y-84974159D01*
X61619628Y-84974159D02*
X61524390Y-85012254D01*
X58570140Y-79253445D02*
X58522521Y-79177255D01*
X58522521Y-79177255D02*
X58474902Y-79139160D01*
X58474902Y-79139160D02*
X58379664Y-79101064D01*
X58379664Y-79101064D02*
X58332045Y-79101064D01*
X58332045Y-79101064D02*
X58236807Y-79139160D01*
X58236807Y-79139160D02*
X58189188Y-79177255D01*
X58189188Y-79177255D02*
X58141569Y-79253445D01*
X58141569Y-79253445D02*
X58141569Y-79405826D01*
X58141569Y-79405826D02*
X58189188Y-79482017D01*
X58189188Y-79482017D02*
X58236807Y-79520112D01*
X58236807Y-79520112D02*
X58332045Y-79558207D01*
X58332045Y-79558207D02*
X58379664Y-79558207D01*
X58379664Y-79558207D02*
X58474902Y-79520112D01*
X58474902Y-79520112D02*
X58522521Y-79482017D01*
X58522521Y-79482017D02*
X58570140Y-79405826D01*
X58570140Y-79405826D02*
X58570140Y-79253445D01*
X58570140Y-79253445D02*
X58617759Y-79177255D01*
X58617759Y-79177255D02*
X58665378Y-79139160D01*
X58665378Y-79139160D02*
X58760616Y-79101064D01*
X58760616Y-79101064D02*
X58951092Y-79101064D01*
X58951092Y-79101064D02*
X59046330Y-79139160D01*
X59046330Y-79139160D02*
X59093950Y-79177255D01*
X59093950Y-79177255D02*
X59141569Y-79253445D01*
X59141569Y-79253445D02*
X59141569Y-79405826D01*
X59141569Y-79405826D02*
X59093950Y-79482017D01*
X59093950Y-79482017D02*
X59046330Y-79520112D01*
X59046330Y-79520112D02*
X58951092Y-79558207D01*
X58951092Y-79558207D02*
X58760616Y-79558207D01*
X58760616Y-79558207D02*
X58665378Y-79520112D01*
X58665378Y-79520112D02*
X58617759Y-79482017D01*
X58617759Y-79482017D02*
X58570140Y-79405826D01*
X37821569Y-100512017D02*
X37821569Y-100131065D01*
X37821569Y-100131065D02*
X38297759Y-100092969D01*
X38297759Y-100092969D02*
X38250140Y-100131065D01*
X38250140Y-100131065D02*
X38202521Y-100207255D01*
X38202521Y-100207255D02*
X38202521Y-100397731D01*
X38202521Y-100397731D02*
X38250140Y-100473922D01*
X38250140Y-100473922D02*
X38297759Y-100512017D01*
X38297759Y-100512017D02*
X38392997Y-100550112D01*
X38392997Y-100550112D02*
X38631092Y-100550112D01*
X38631092Y-100550112D02*
X38726330Y-100512017D01*
X38726330Y-100512017D02*
X38773950Y-100473922D01*
X38773950Y-100473922D02*
X38821569Y-100397731D01*
X38821569Y-100397731D02*
X38821569Y-100207255D01*
X38821569Y-100207255D02*
X38773950Y-100131065D01*
X38773950Y-100131065D02*
X38726330Y-100092969D01*
X37821569Y-100778684D02*
X38821569Y-101045351D01*
X38821569Y-101045351D02*
X37821569Y-101312017D01*
X62095819Y-92238207D02*
X62095819Y-91781064D01*
X62095819Y-92009636D02*
X61095819Y-92009636D01*
X61095819Y-92009636D02*
X61238676Y-91933445D01*
X61238676Y-91933445D02*
X61333914Y-91857255D01*
X61333914Y-91857255D02*
X61381533Y-91781064D01*
X61191057Y-92542969D02*
X61143438Y-92581065D01*
X61143438Y-92581065D02*
X61095819Y-92657255D01*
X61095819Y-92657255D02*
X61095819Y-92847731D01*
X61095819Y-92847731D02*
X61143438Y-92923922D01*
X61143438Y-92923922D02*
X61191057Y-92962017D01*
X61191057Y-92962017D02*
X61286295Y-93000112D01*
X61286295Y-93000112D02*
X61381533Y-93000112D01*
X61381533Y-93000112D02*
X61524390Y-92962017D01*
X61524390Y-92962017D02*
X62095819Y-92504874D01*
X62095819Y-92504874D02*
X62095819Y-93000112D01*
X40409188Y-100550112D02*
X40361569Y-100473922D01*
X40361569Y-100473922D02*
X40361569Y-100359636D01*
X40361569Y-100359636D02*
X40409188Y-100245350D01*
X40409188Y-100245350D02*
X40504426Y-100169160D01*
X40504426Y-100169160D02*
X40599664Y-100131065D01*
X40599664Y-100131065D02*
X40790140Y-100092969D01*
X40790140Y-100092969D02*
X40932997Y-100092969D01*
X40932997Y-100092969D02*
X41123473Y-100131065D01*
X41123473Y-100131065D02*
X41218711Y-100169160D01*
X41218711Y-100169160D02*
X41313950Y-100245350D01*
X41313950Y-100245350D02*
X41361569Y-100359636D01*
X41361569Y-100359636D02*
X41361569Y-100435827D01*
X41361569Y-100435827D02*
X41313950Y-100550112D01*
X41313950Y-100550112D02*
X41266330Y-100588208D01*
X41266330Y-100588208D02*
X40932997Y-100588208D01*
X40932997Y-100588208D02*
X40932997Y-100435827D01*
X41361569Y-100931065D02*
X40361569Y-100931065D01*
X40361569Y-100931065D02*
X41361569Y-101388208D01*
X41361569Y-101388208D02*
X40361569Y-101388208D01*
X41361569Y-101769160D02*
X40361569Y-101769160D01*
X40361569Y-101769160D02*
X40361569Y-101959636D01*
X40361569Y-101959636D02*
X40409188Y-102073922D01*
X40409188Y-102073922D02*
X40504426Y-102150112D01*
X40504426Y-102150112D02*
X40599664Y-102188207D01*
X40599664Y-102188207D02*
X40790140Y-102226303D01*
X40790140Y-102226303D02*
X40932997Y-102226303D01*
X40932997Y-102226303D02*
X41123473Y-102188207D01*
X41123473Y-102188207D02*
X41218711Y-102150112D01*
X41218711Y-102150112D02*
X41313950Y-102073922D01*
X41313950Y-102073922D02*
X41361569Y-101959636D01*
X41361569Y-101959636D02*
X41361569Y-101769160D01*
X45536807Y-100092969D02*
X45489188Y-100131065D01*
X45489188Y-100131065D02*
X45441569Y-100207255D01*
X45441569Y-100207255D02*
X45441569Y-100397731D01*
X45441569Y-100397731D02*
X45489188Y-100473922D01*
X45489188Y-100473922D02*
X45536807Y-100512017D01*
X45536807Y-100512017D02*
X45632045Y-100550112D01*
X45632045Y-100550112D02*
X45727283Y-100550112D01*
X45727283Y-100550112D02*
X45870140Y-100512017D01*
X45870140Y-100512017D02*
X46441569Y-100054874D01*
X46441569Y-100054874D02*
X46441569Y-100550112D01*
X46441569Y-100931065D02*
X46441569Y-101083446D01*
X46441569Y-101083446D02*
X46393950Y-101159636D01*
X46393950Y-101159636D02*
X46346330Y-101197732D01*
X46346330Y-101197732D02*
X46203473Y-101273922D01*
X46203473Y-101273922D02*
X46012997Y-101312017D01*
X46012997Y-101312017D02*
X45632045Y-101312017D01*
X45632045Y-101312017D02*
X45536807Y-101273922D01*
X45536807Y-101273922D02*
X45489188Y-101235827D01*
X45489188Y-101235827D02*
X45441569Y-101159636D01*
X45441569Y-101159636D02*
X45441569Y-101007255D01*
X45441569Y-101007255D02*
X45489188Y-100931065D01*
X45489188Y-100931065D02*
X45536807Y-100892970D01*
X45536807Y-100892970D02*
X45632045Y-100854874D01*
X45632045Y-100854874D02*
X45870140Y-100854874D01*
X45870140Y-100854874D02*
X45965378Y-100892970D01*
X45965378Y-100892970D02*
X46012997Y-100931065D01*
X46012997Y-100931065D02*
X46060616Y-101007255D01*
X46060616Y-101007255D02*
X46060616Y-101159636D01*
X46060616Y-101159636D02*
X46012997Y-101235827D01*
X46012997Y-101235827D02*
X45965378Y-101273922D01*
X45965378Y-101273922D02*
X45870140Y-101312017D01*
X53156807Y-100092969D02*
X53109188Y-100131065D01*
X53109188Y-100131065D02*
X53061569Y-100207255D01*
X53061569Y-100207255D02*
X53061569Y-100397731D01*
X53061569Y-100397731D02*
X53109188Y-100473922D01*
X53109188Y-100473922D02*
X53156807Y-100512017D01*
X53156807Y-100512017D02*
X53252045Y-100550112D01*
X53252045Y-100550112D02*
X53347283Y-100550112D01*
X53347283Y-100550112D02*
X53490140Y-100512017D01*
X53490140Y-100512017D02*
X54061569Y-100054874D01*
X54061569Y-100054874D02*
X54061569Y-100550112D01*
X53061569Y-101235827D02*
X53061569Y-101083446D01*
X53061569Y-101083446D02*
X53109188Y-101007255D01*
X53109188Y-101007255D02*
X53156807Y-100969160D01*
X53156807Y-100969160D02*
X53299664Y-100892970D01*
X53299664Y-100892970D02*
X53490140Y-100854874D01*
X53490140Y-100854874D02*
X53871092Y-100854874D01*
X53871092Y-100854874D02*
X53966330Y-100892970D01*
X53966330Y-100892970D02*
X54013950Y-100931065D01*
X54013950Y-100931065D02*
X54061569Y-101007255D01*
X54061569Y-101007255D02*
X54061569Y-101159636D01*
X54061569Y-101159636D02*
X54013950Y-101235827D01*
X54013950Y-101235827D02*
X53966330Y-101273922D01*
X53966330Y-101273922D02*
X53871092Y-101312017D01*
X53871092Y-101312017D02*
X53632997Y-101312017D01*
X53632997Y-101312017D02*
X53537759Y-101273922D01*
X53537759Y-101273922D02*
X53490140Y-101235827D01*
X53490140Y-101235827D02*
X53442521Y-101159636D01*
X53442521Y-101159636D02*
X53442521Y-101007255D01*
X53442521Y-101007255D02*
X53490140Y-100931065D01*
X53490140Y-100931065D02*
X53537759Y-100892970D01*
X53537759Y-100892970D02*
X53632997Y-100854874D01*
X59141569Y-100550112D02*
X59141569Y-100092969D01*
X59141569Y-100321541D02*
X58141569Y-100321541D01*
X58141569Y-100321541D02*
X58284426Y-100245350D01*
X58284426Y-100245350D02*
X58379664Y-100169160D01*
X58379664Y-100169160D02*
X58427283Y-100092969D01*
X58474902Y-101235827D02*
X59141569Y-101235827D01*
X58093950Y-101045351D02*
X58808235Y-100854874D01*
X58808235Y-100854874D02*
X58808235Y-101350113D01*
X62095819Y-94791302D02*
X62095819Y-94334159D01*
X62095819Y-94562731D02*
X61095819Y-94562731D01*
X61095819Y-94562731D02*
X61238676Y-94486540D01*
X61238676Y-94486540D02*
X61333914Y-94410350D01*
X61333914Y-94410350D02*
X61381533Y-94334159D01*
X61095819Y-95057969D02*
X61095819Y-95553207D01*
X61095819Y-95553207D02*
X61476771Y-95286541D01*
X61476771Y-95286541D02*
X61476771Y-95400826D01*
X61476771Y-95400826D02*
X61524390Y-95477017D01*
X61524390Y-95477017D02*
X61572009Y-95515112D01*
X61572009Y-95515112D02*
X61667247Y-95553207D01*
X61667247Y-95553207D02*
X61905342Y-95553207D01*
X61905342Y-95553207D02*
X62000580Y-95515112D01*
X62000580Y-95515112D02*
X62048200Y-95477017D01*
X62048200Y-95477017D02*
X62095819Y-95400826D01*
X62095819Y-95400826D02*
X62095819Y-95172255D01*
X62095819Y-95172255D02*
X62048200Y-95096064D01*
X62048200Y-95096064D02*
X62000580Y-95057969D01*
X50616807Y-100092969D02*
X50569188Y-100131065D01*
X50569188Y-100131065D02*
X50521569Y-100207255D01*
X50521569Y-100207255D02*
X50521569Y-100397731D01*
X50521569Y-100397731D02*
X50569188Y-100473922D01*
X50569188Y-100473922D02*
X50616807Y-100512017D01*
X50616807Y-100512017D02*
X50712045Y-100550112D01*
X50712045Y-100550112D02*
X50807283Y-100550112D01*
X50807283Y-100550112D02*
X50950140Y-100512017D01*
X50950140Y-100512017D02*
X51521569Y-100054874D01*
X51521569Y-100054874D02*
X51521569Y-100550112D01*
X50521569Y-100816779D02*
X50521569Y-101350113D01*
X50521569Y-101350113D02*
X51521569Y-101007255D01*
X41361569Y-79558207D02*
X41361569Y-79101064D01*
X41361569Y-79329636D02*
X40361569Y-79329636D01*
X40361569Y-79329636D02*
X40504426Y-79253445D01*
X40504426Y-79253445D02*
X40599664Y-79177255D01*
X40599664Y-79177255D02*
X40647283Y-79101064D01*
X42901569Y-100054874D02*
X42901569Y-100550112D01*
X42901569Y-100550112D02*
X43282521Y-100283446D01*
X43282521Y-100283446D02*
X43282521Y-100397731D01*
X43282521Y-100397731D02*
X43330140Y-100473922D01*
X43330140Y-100473922D02*
X43377759Y-100512017D01*
X43377759Y-100512017D02*
X43472997Y-100550112D01*
X43472997Y-100550112D02*
X43711092Y-100550112D01*
X43711092Y-100550112D02*
X43806330Y-100512017D01*
X43806330Y-100512017D02*
X43853950Y-100473922D01*
X43853950Y-100473922D02*
X43901569Y-100397731D01*
X43901569Y-100397731D02*
X43901569Y-100169160D01*
X43901569Y-100169160D02*
X43853950Y-100092969D01*
X43853950Y-100092969D02*
X43806330Y-100054874D01*
X42901569Y-100778684D02*
X43901569Y-101045351D01*
X43901569Y-101045351D02*
X42901569Y-101312017D01*
X42901569Y-101502493D02*
X42901569Y-101997731D01*
X42901569Y-101997731D02*
X43282521Y-101731065D01*
X43282521Y-101731065D02*
X43282521Y-101845350D01*
X43282521Y-101845350D02*
X43330140Y-101921541D01*
X43330140Y-101921541D02*
X43377759Y-101959636D01*
X43377759Y-101959636D02*
X43472997Y-101997731D01*
X43472997Y-101997731D02*
X43711092Y-101997731D01*
X43711092Y-101997731D02*
X43806330Y-101959636D01*
X43806330Y-101959636D02*
X43853950Y-101921541D01*
X43853950Y-101921541D02*
X43901569Y-101845350D01*
X43901569Y-101845350D02*
X43901569Y-101616779D01*
X43901569Y-101616779D02*
X43853950Y-101540588D01*
X43853950Y-101540588D02*
X43806330Y-101502493D01*
X50521569Y-79520112D02*
X50521569Y-79139160D01*
X50521569Y-79139160D02*
X50997759Y-79101064D01*
X50997759Y-79101064D02*
X50950140Y-79139160D01*
X50950140Y-79139160D02*
X50902521Y-79215350D01*
X50902521Y-79215350D02*
X50902521Y-79405826D01*
X50902521Y-79405826D02*
X50950140Y-79482017D01*
X50950140Y-79482017D02*
X50997759Y-79520112D01*
X50997759Y-79520112D02*
X51092997Y-79558207D01*
X51092997Y-79558207D02*
X51331092Y-79558207D01*
X51331092Y-79558207D02*
X51426330Y-79520112D01*
X51426330Y-79520112D02*
X51473950Y-79482017D01*
X51473950Y-79482017D02*
X51521569Y-79405826D01*
X51521569Y-79405826D02*
X51521569Y-79215350D01*
X51521569Y-79215350D02*
X51473950Y-79139160D01*
X51473950Y-79139160D02*
X51426330Y-79101064D01*
X62095819Y-89698207D02*
X62095819Y-89241064D01*
X62095819Y-89469636D02*
X61095819Y-89469636D01*
X61095819Y-89469636D02*
X61238676Y-89393445D01*
X61238676Y-89393445D02*
X61333914Y-89317255D01*
X61333914Y-89317255D02*
X61381533Y-89241064D01*
X62095819Y-90460112D02*
X62095819Y-90002969D01*
X62095819Y-90231541D02*
X61095819Y-90231541D01*
X61095819Y-90231541D02*
X61238676Y-90155350D01*
X61238676Y-90155350D02*
X61333914Y-90079160D01*
X61333914Y-90079160D02*
X61381533Y-90002969D01*
X48076807Y-100092969D02*
X48029188Y-100131065D01*
X48029188Y-100131065D02*
X47981569Y-100207255D01*
X47981569Y-100207255D02*
X47981569Y-100397731D01*
X47981569Y-100397731D02*
X48029188Y-100473922D01*
X48029188Y-100473922D02*
X48076807Y-100512017D01*
X48076807Y-100512017D02*
X48172045Y-100550112D01*
X48172045Y-100550112D02*
X48267283Y-100550112D01*
X48267283Y-100550112D02*
X48410140Y-100512017D01*
X48410140Y-100512017D02*
X48981569Y-100054874D01*
X48981569Y-100054874D02*
X48981569Y-100550112D01*
X48410140Y-101007255D02*
X48362521Y-100931065D01*
X48362521Y-100931065D02*
X48314902Y-100892970D01*
X48314902Y-100892970D02*
X48219664Y-100854874D01*
X48219664Y-100854874D02*
X48172045Y-100854874D01*
X48172045Y-100854874D02*
X48076807Y-100892970D01*
X48076807Y-100892970D02*
X48029188Y-100931065D01*
X48029188Y-100931065D02*
X47981569Y-101007255D01*
X47981569Y-101007255D02*
X47981569Y-101159636D01*
X47981569Y-101159636D02*
X48029188Y-101235827D01*
X48029188Y-101235827D02*
X48076807Y-101273922D01*
X48076807Y-101273922D02*
X48172045Y-101312017D01*
X48172045Y-101312017D02*
X48219664Y-101312017D01*
X48219664Y-101312017D02*
X48314902Y-101273922D01*
X48314902Y-101273922D02*
X48362521Y-101235827D01*
X48362521Y-101235827D02*
X48410140Y-101159636D01*
X48410140Y-101159636D02*
X48410140Y-101007255D01*
X48410140Y-101007255D02*
X48457759Y-100931065D01*
X48457759Y-100931065D02*
X48505378Y-100892970D01*
X48505378Y-100892970D02*
X48600616Y-100854874D01*
X48600616Y-100854874D02*
X48791092Y-100854874D01*
X48791092Y-100854874D02*
X48886330Y-100892970D01*
X48886330Y-100892970D02*
X48933950Y-100931065D01*
X48933950Y-100931065D02*
X48981569Y-101007255D01*
X48981569Y-101007255D02*
X48981569Y-101159636D01*
X48981569Y-101159636D02*
X48933950Y-101235827D01*
X48933950Y-101235827D02*
X48886330Y-101273922D01*
X48886330Y-101273922D02*
X48791092Y-101312017D01*
X48791092Y-101312017D02*
X48600616Y-101312017D01*
X48600616Y-101312017D02*
X48505378Y-101273922D01*
X48505378Y-101273922D02*
X48457759Y-101235827D01*
X48457759Y-101235827D02*
X48410140Y-101159636D01*
X48314902Y-79482017D02*
X48981569Y-79482017D01*
X47933950Y-79291541D02*
X48648235Y-79101064D01*
X48648235Y-79101064D02*
X48648235Y-79596303D01*
X56601569Y-100550112D02*
X56601569Y-100092969D01*
X56601569Y-100321541D02*
X55601569Y-100321541D01*
X55601569Y-100321541D02*
X55744426Y-100245350D01*
X55744426Y-100245350D02*
X55839664Y-100169160D01*
X55839664Y-100169160D02*
X55887283Y-100092969D01*
X55601569Y-101273922D02*
X55601569Y-100892970D01*
X55601569Y-100892970D02*
X56077759Y-100854874D01*
X56077759Y-100854874D02*
X56030140Y-100892970D01*
X56030140Y-100892970D02*
X55982521Y-100969160D01*
X55982521Y-100969160D02*
X55982521Y-101159636D01*
X55982521Y-101159636D02*
X56030140Y-101235827D01*
X56030140Y-101235827D02*
X56077759Y-101273922D01*
X56077759Y-101273922D02*
X56172997Y-101312017D01*
X56172997Y-101312017D02*
X56411092Y-101312017D01*
X56411092Y-101312017D02*
X56506330Y-101273922D01*
X56506330Y-101273922D02*
X56553950Y-101235827D01*
X56553950Y-101235827D02*
X56601569Y-101159636D01*
X56601569Y-101159636D02*
X56601569Y-100969160D01*
X56601569Y-100969160D02*
X56553950Y-100892970D01*
X56553950Y-100892970D02*
X56506330Y-100854874D01*
X55601569Y-79062969D02*
X55601569Y-79596303D01*
X55601569Y-79596303D02*
X56601569Y-79253445D01*
X62095819Y-87158207D02*
X62095819Y-86701064D01*
X62095819Y-86929636D02*
X61095819Y-86929636D01*
X61095819Y-86929636D02*
X61238676Y-86853445D01*
X61238676Y-86853445D02*
X61333914Y-86777255D01*
X61333914Y-86777255D02*
X61381533Y-86701064D01*
X61095819Y-87653446D02*
X61095819Y-87729636D01*
X61095819Y-87729636D02*
X61143438Y-87805827D01*
X61143438Y-87805827D02*
X61191057Y-87843922D01*
X61191057Y-87843922D02*
X61286295Y-87882017D01*
X61286295Y-87882017D02*
X61476771Y-87920112D01*
X61476771Y-87920112D02*
X61714866Y-87920112D01*
X61714866Y-87920112D02*
X61905342Y-87882017D01*
X61905342Y-87882017D02*
X62000580Y-87843922D01*
X62000580Y-87843922D02*
X62048200Y-87805827D01*
X62048200Y-87805827D02*
X62095819Y-87729636D01*
X62095819Y-87729636D02*
X62095819Y-87653446D01*
X62095819Y-87653446D02*
X62048200Y-87577255D01*
X62048200Y-87577255D02*
X62000580Y-87539160D01*
X62000580Y-87539160D02*
X61905342Y-87501065D01*
X61905342Y-87501065D02*
X61714866Y-87462969D01*
X61714866Y-87462969D02*
X61476771Y-87462969D01*
X61476771Y-87462969D02*
X61286295Y-87501065D01*
X61286295Y-87501065D02*
X61191057Y-87539160D01*
X61191057Y-87539160D02*
X61143438Y-87577255D01*
X61143438Y-87577255D02*
X61095819Y-87653446D01*
X45441569Y-79062969D02*
X45441569Y-79558207D01*
X45441569Y-79558207D02*
X45822521Y-79291541D01*
X45822521Y-79291541D02*
X45822521Y-79405826D01*
X45822521Y-79405826D02*
X45870140Y-79482017D01*
X45870140Y-79482017D02*
X45917759Y-79520112D01*
X45917759Y-79520112D02*
X46012997Y-79558207D01*
X46012997Y-79558207D02*
X46251092Y-79558207D01*
X46251092Y-79558207D02*
X46346330Y-79520112D01*
X46346330Y-79520112D02*
X46393950Y-79482017D01*
X46393950Y-79482017D02*
X46441569Y-79405826D01*
X46441569Y-79405826D02*
X46441569Y-79177255D01*
X46441569Y-79177255D02*
X46393950Y-79101064D01*
X46393950Y-79101064D02*
X46346330Y-79062969D01*
X53061569Y-79482017D02*
X53061569Y-79329636D01*
X53061569Y-79329636D02*
X53109188Y-79253445D01*
X53109188Y-79253445D02*
X53156807Y-79215350D01*
X53156807Y-79215350D02*
X53299664Y-79139160D01*
X53299664Y-79139160D02*
X53490140Y-79101064D01*
X53490140Y-79101064D02*
X53871092Y-79101064D01*
X53871092Y-79101064D02*
X53966330Y-79139160D01*
X53966330Y-79139160D02*
X54013950Y-79177255D01*
X54013950Y-79177255D02*
X54061569Y-79253445D01*
X54061569Y-79253445D02*
X54061569Y-79405826D01*
X54061569Y-79405826D02*
X54013950Y-79482017D01*
X54013950Y-79482017D02*
X53966330Y-79520112D01*
X53966330Y-79520112D02*
X53871092Y-79558207D01*
X53871092Y-79558207D02*
X53632997Y-79558207D01*
X53632997Y-79558207D02*
X53537759Y-79520112D01*
X53537759Y-79520112D02*
X53490140Y-79482017D01*
X53490140Y-79482017D02*
X53442521Y-79405826D01*
X53442521Y-79405826D02*
X53442521Y-79253445D01*
X53442521Y-79253445D02*
X53490140Y-79177255D01*
X53490140Y-79177255D02*
X53537759Y-79139160D01*
X53537759Y-79139160D02*
X53632997Y-79101064D01*
X42996807Y-79101064D02*
X42949188Y-79139160D01*
X42949188Y-79139160D02*
X42901569Y-79215350D01*
X42901569Y-79215350D02*
X42901569Y-79405826D01*
X42901569Y-79405826D02*
X42949188Y-79482017D01*
X42949188Y-79482017D02*
X42996807Y-79520112D01*
X42996807Y-79520112D02*
X43092045Y-79558207D01*
X43092045Y-79558207D02*
X43187283Y-79558207D01*
X43187283Y-79558207D02*
X43330140Y-79520112D01*
X43330140Y-79520112D02*
X43901569Y-79062969D01*
X43901569Y-79062969D02*
X43901569Y-79558207D01*
X37821569Y-79291541D02*
X37821569Y-79367731D01*
X37821569Y-79367731D02*
X37869188Y-79443922D01*
X37869188Y-79443922D02*
X37916807Y-79482017D01*
X37916807Y-79482017D02*
X38012045Y-79520112D01*
X38012045Y-79520112D02*
X38202521Y-79558207D01*
X38202521Y-79558207D02*
X38440616Y-79558207D01*
X38440616Y-79558207D02*
X38631092Y-79520112D01*
X38631092Y-79520112D02*
X38726330Y-79482017D01*
X38726330Y-79482017D02*
X38773950Y-79443922D01*
X38773950Y-79443922D02*
X38821569Y-79367731D01*
X38821569Y-79367731D02*
X38821569Y-79291541D01*
X38821569Y-79291541D02*
X38773950Y-79215350D01*
X38773950Y-79215350D02*
X38726330Y-79177255D01*
X38726330Y-79177255D02*
X38631092Y-79139160D01*
X38631092Y-79139160D02*
X38440616Y-79101064D01*
X38440616Y-79101064D02*
X38202521Y-79101064D01*
X38202521Y-79101064D02*
X38012045Y-79139160D01*
X38012045Y-79139160D02*
X37916807Y-79177255D01*
X37916807Y-79177255D02*
X37869188Y-79215350D01*
X37869188Y-79215350D02*
X37821569Y-79291541D01*
X96914819Y-88576666D02*
X97629104Y-88576666D01*
X97629104Y-88576666D02*
X97771961Y-88529047D01*
X97771961Y-88529047D02*
X97867200Y-88433809D01*
X97867200Y-88433809D02*
X97914819Y-88290952D01*
X97914819Y-88290952D02*
X97914819Y-88195714D01*
X97914819Y-89052857D02*
X96914819Y-89052857D01*
X96914819Y-89052857D02*
X96914819Y-89433809D01*
X96914819Y-89433809D02*
X96962438Y-89529047D01*
X96962438Y-89529047D02*
X97010057Y-89576666D01*
X97010057Y-89576666D02*
X97105295Y-89624285D01*
X97105295Y-89624285D02*
X97248152Y-89624285D01*
X97248152Y-89624285D02*
X97343390Y-89576666D01*
X97343390Y-89576666D02*
X97391009Y-89529047D01*
X97391009Y-89529047D02*
X97438628Y-89433809D01*
X97438628Y-89433809D02*
X97438628Y-89052857D01*
X97914819Y-90576666D02*
X97914819Y-90005238D01*
X97914819Y-90290952D02*
X96914819Y-90290952D01*
X96914819Y-90290952D02*
X97057676Y-90195714D01*
X97057676Y-90195714D02*
X97152914Y-90100476D01*
X97152914Y-90100476D02*
X97200533Y-90005238D01*
X27664819Y-98576666D02*
X28379104Y-98576666D01*
X28379104Y-98576666D02*
X28521961Y-98529047D01*
X28521961Y-98529047D02*
X28617200Y-98433809D01*
X28617200Y-98433809D02*
X28664819Y-98290952D01*
X28664819Y-98290952D02*
X28664819Y-98195714D01*
X28664819Y-99052857D02*
X27664819Y-99052857D01*
X27664819Y-99052857D02*
X27664819Y-99433809D01*
X27664819Y-99433809D02*
X27712438Y-99529047D01*
X27712438Y-99529047D02*
X27760057Y-99576666D01*
X27760057Y-99576666D02*
X27855295Y-99624285D01*
X27855295Y-99624285D02*
X27998152Y-99624285D01*
X27998152Y-99624285D02*
X28093390Y-99576666D01*
X28093390Y-99576666D02*
X28141009Y-99529047D01*
X28141009Y-99529047D02*
X28188628Y-99433809D01*
X28188628Y-99433809D02*
X28188628Y-99052857D01*
X27664819Y-99957619D02*
X27664819Y-100576666D01*
X27664819Y-100576666D02*
X28045771Y-100243333D01*
X28045771Y-100243333D02*
X28045771Y-100386190D01*
X28045771Y-100386190D02*
X28093390Y-100481428D01*
X28093390Y-100481428D02*
X28141009Y-100529047D01*
X28141009Y-100529047D02*
X28236247Y-100576666D01*
X28236247Y-100576666D02*
X28474342Y-100576666D01*
X28474342Y-100576666D02*
X28569580Y-100529047D01*
X28569580Y-100529047D02*
X28617200Y-100481428D01*
X28617200Y-100481428D02*
X28664819Y-100386190D01*
X28664819Y-100386190D02*
X28664819Y-100100476D01*
X28664819Y-100100476D02*
X28617200Y-100005238D01*
X28617200Y-100005238D02*
X28569580Y-99957619D01*
%TO.C,SW7*%
X35260004Y-37910008D02*
X35260004Y-39910008D01*
X35260004Y-49910008D02*
X35260004Y-51910008D01*
X35260004Y-51910008D02*
X37260004Y-51910008D01*
X37260004Y-37910008D02*
X35260004Y-37910008D01*
D15*
X40500004Y-44460008D02*
X40500004Y-45110008D01*
X40500004Y-45760008D02*
X40500004Y-45110008D01*
X43620004Y-44460008D02*
X43620004Y-45110008D01*
X43620004Y-45760008D02*
X43620004Y-45110008D01*
D14*
X47260004Y-37910008D02*
X49260004Y-37910008D01*
X47260004Y-51910008D02*
X49260004Y-51910008D01*
X49260004Y-37910008D02*
X49260004Y-39910008D01*
X49260004Y-51910008D02*
X49260004Y-49910008D01*
D15*
X43570004Y-46272508D02*
X43900004Y-46512508D01*
X43900004Y-46032508D01*
X43570004Y-46272508D01*
G36*
X43900004Y-46512508D02*
G01*
X43570004Y-46272508D01*
X43900004Y-46032508D01*
X43900004Y-46512508D01*
G37*
%TO.C,SW4*%
D14*
X73260000Y-20910000D02*
X73260000Y-22910000D01*
X73260000Y-32910000D02*
X73260000Y-34910000D01*
X73260000Y-34910000D02*
X75260000Y-34910000D01*
X75260000Y-20910000D02*
X73260000Y-20910000D01*
D15*
X78500000Y-27460000D02*
X78500000Y-28110000D01*
X78500000Y-28760000D02*
X78500000Y-28110000D01*
X81620000Y-27460000D02*
X81620000Y-28110000D01*
X81620000Y-28760000D02*
X81620000Y-28110000D01*
D14*
X85260000Y-20910000D02*
X87260000Y-20910000D01*
X85260000Y-34910000D02*
X87260000Y-34910000D01*
X87260000Y-20910000D02*
X87260000Y-22910000D01*
X87260000Y-34910000D02*
X87260000Y-32910000D01*
D15*
X81570000Y-29272500D02*
X81900000Y-29512500D01*
X81900000Y-29032500D01*
X81570000Y-29272500D01*
G36*
X81900000Y-29512500D02*
G01*
X81570000Y-29272500D01*
X81900000Y-29032500D01*
X81900000Y-29512500D01*
G37*
%TO.C,C17*%
X90776248Y-96765000D02*
X91298752Y-96765000D01*
X90776248Y-98235000D02*
X91298752Y-98235000D01*
%TO.C,SW1*%
D14*
X16259998Y-27909999D02*
X16259998Y-29909999D01*
X16259998Y-39909999D02*
X16259998Y-41909999D01*
X16259998Y-41909999D02*
X18259998Y-41909999D01*
X18259998Y-27909999D02*
X16259998Y-27909999D01*
D15*
X21499998Y-34459999D02*
X21499998Y-35109999D01*
X21499998Y-35759999D02*
X21499998Y-35109999D01*
X24619998Y-34459999D02*
X24619998Y-35109999D01*
X24619998Y-35759999D02*
X24619998Y-35109999D01*
D14*
X28259998Y-27909999D02*
X30259998Y-27909999D01*
X28259998Y-41909999D02*
X30259998Y-41909999D01*
X30259998Y-27909999D02*
X30259998Y-29909999D01*
X30259998Y-41909999D02*
X30259998Y-39909999D01*
D15*
X24569998Y-36272499D02*
X24899998Y-36512499D01*
X24899998Y-36032499D01*
X24569998Y-36272499D01*
G36*
X24899998Y-36512499D02*
G01*
X24569998Y-36272499D01*
X24899998Y-36032499D01*
X24899998Y-36512499D01*
G37*
%TO.C,SW9*%
D14*
X73260000Y-39910000D02*
X73260000Y-41910000D01*
X73260000Y-51910000D02*
X73260000Y-53910000D01*
X73260000Y-53910000D02*
X75260000Y-53910000D01*
X75260000Y-39910000D02*
X73260000Y-39910000D01*
D15*
X78500000Y-46460000D02*
X78500000Y-47110000D01*
X78500000Y-47760000D02*
X78500000Y-47110000D01*
X81620000Y-46460000D02*
X81620000Y-47110000D01*
X81620000Y-47760000D02*
X81620000Y-47110000D01*
D14*
X85260000Y-39910000D02*
X87260000Y-39910000D01*
X85260000Y-53910000D02*
X87260000Y-53910000D01*
X87260000Y-39910000D02*
X87260000Y-41910000D01*
X87260000Y-53910000D02*
X87260000Y-51910000D01*
D15*
X81570000Y-48272500D02*
X81900000Y-48512500D01*
X81900000Y-48032500D01*
X81570000Y-48272500D01*
G36*
X81900000Y-48512500D02*
G01*
X81570000Y-48272500D01*
X81900000Y-48032500D01*
X81900000Y-48512500D01*
G37*
%TO.C,SW10*%
D14*
X92260000Y-41910000D02*
X92260000Y-43910000D01*
X92260000Y-53910000D02*
X92260000Y-55910000D01*
X92260000Y-55910000D02*
X94260000Y-55910000D01*
X94260000Y-41910000D02*
X92260000Y-41910000D01*
D15*
X97500000Y-48460000D02*
X97500000Y-49110000D01*
X97500000Y-49760000D02*
X97500000Y-49110000D01*
X100620000Y-48460000D02*
X100620000Y-49110000D01*
X100620000Y-49760000D02*
X100620000Y-49110000D01*
D14*
X104260000Y-41910000D02*
X106260000Y-41910000D01*
X104260000Y-55910000D02*
X106260000Y-55910000D01*
X106260000Y-41910000D02*
X106260000Y-43910000D01*
X106260000Y-55910000D02*
X106260000Y-53910000D01*
D15*
X100570000Y-50272500D02*
X100900000Y-50512500D01*
X100900000Y-50032500D01*
X100570000Y-50272500D01*
G36*
X100900000Y-50512500D02*
G01*
X100570000Y-50272500D01*
X100900000Y-50032500D01*
X100900000Y-50512500D01*
G37*
%TO.C,SW2*%
D14*
X35260004Y-18910008D02*
X35260004Y-20910008D01*
X35260004Y-30910008D02*
X35260004Y-32910008D01*
X35260004Y-32910008D02*
X37260004Y-32910008D01*
X37260004Y-18910008D02*
X35260004Y-18910008D01*
D15*
X40500004Y-25460008D02*
X40500004Y-26110008D01*
X40500004Y-26760008D02*
X40500004Y-26110008D01*
X43620004Y-25460008D02*
X43620004Y-26110008D01*
X43620004Y-26760008D02*
X43620004Y-26110008D01*
D14*
X47260004Y-18910008D02*
X49260004Y-18910008D01*
X47260004Y-32910008D02*
X49260004Y-32910008D01*
X49260004Y-18910008D02*
X49260004Y-20910008D01*
X49260004Y-32910008D02*
X49260004Y-30910008D01*
D15*
X43570004Y-27272508D02*
X43900004Y-27512508D01*
X43900004Y-27032508D01*
X43570004Y-27272508D01*
G36*
X43900004Y-27512508D02*
G01*
X43570004Y-27272508D01*
X43900004Y-27032508D01*
X43900004Y-27512508D01*
G37*
%TO.C,C20*%
X63865000Y-73261252D02*
X63865000Y-72738748D01*
X65335000Y-73261252D02*
X65335000Y-72738748D01*
%TO.C,C8*%
X61738748Y-44765000D02*
X62261252Y-44765000D01*
X61738748Y-46235000D02*
X62261252Y-46235000D01*
%TO.C,SW13*%
D14*
X54260004Y-53910008D02*
X54260004Y-55910008D01*
X54260004Y-65910008D02*
X54260004Y-67910008D01*
X54260004Y-67910008D02*
X56260004Y-67910008D01*
X56260004Y-53910008D02*
X54260004Y-53910008D01*
D15*
X59500004Y-60460008D02*
X59500004Y-61110008D01*
X59500004Y-61760008D02*
X59500004Y-61110008D01*
X62620004Y-60460008D02*
X62620004Y-61110008D01*
X62620004Y-61760008D02*
X62620004Y-61110008D01*
D14*
X66260004Y-53910008D02*
X68260004Y-53910008D01*
X66260004Y-67910008D02*
X68260004Y-67910008D01*
X68260004Y-53910008D02*
X68260004Y-55910008D01*
X68260004Y-67910008D02*
X68260004Y-65910008D01*
D15*
X62570004Y-62272508D02*
X62900004Y-62512508D01*
X62900004Y-62032508D01*
X62570004Y-62272508D01*
G36*
X62900004Y-62512508D02*
G01*
X62570004Y-62272508D01*
X62900004Y-62032508D01*
X62900004Y-62512508D01*
G37*
%TO.C,C5*%
X99738748Y-32765000D02*
X100261252Y-32765000D01*
X99738748Y-34235000D02*
X100261252Y-34235000D01*
%TO.C,C1*%
X23738748Y-37765000D02*
X24261252Y-37765000D01*
X23738748Y-39235000D02*
X24261252Y-39235000D01*
%TO.C,C11*%
X23776248Y-75765000D02*
X24298752Y-75765000D01*
X23776248Y-77235000D02*
X24298752Y-77235000D01*
%TO.C,SW8*%
D14*
X54260004Y-34910008D02*
X54260004Y-36910008D01*
X54260004Y-46910008D02*
X54260004Y-48910008D01*
X54260004Y-48910008D02*
X56260004Y-48910008D01*
X56260004Y-34910008D02*
X54260004Y-34910008D01*
D15*
X59500004Y-41460008D02*
X59500004Y-42110008D01*
X59500004Y-42760008D02*
X59500004Y-42110008D01*
X62620004Y-41460008D02*
X62620004Y-42110008D01*
X62620004Y-42760008D02*
X62620004Y-42110008D01*
D14*
X66260004Y-34910008D02*
X68260004Y-34910008D01*
X66260004Y-48910008D02*
X68260004Y-48910008D01*
X68260004Y-34910008D02*
X68260004Y-36910008D01*
X68260004Y-48910008D02*
X68260004Y-46910008D01*
D15*
X62570004Y-43272508D02*
X62900004Y-43512508D01*
X62900004Y-43032508D01*
X62570004Y-43272508D01*
G36*
X62900004Y-43512508D02*
G01*
X62570004Y-43272508D01*
X62900004Y-43032508D01*
X62900004Y-43512508D01*
G37*
%TO.C,SW11*%
D14*
X16260001Y-65910000D02*
X16260001Y-67910000D01*
X16260001Y-77910000D02*
X16260001Y-79910000D01*
X16260001Y-79910000D02*
X18260001Y-79910000D01*
X18260001Y-65910000D02*
X16260001Y-65910000D01*
D15*
X21500001Y-72460000D02*
X21500001Y-73110000D01*
X21500001Y-73760000D02*
X21500001Y-73110000D01*
X24620001Y-72460000D02*
X24620001Y-73110000D01*
X24620001Y-73760000D02*
X24620001Y-73110000D01*
D14*
X28260001Y-65910000D02*
X30260001Y-65910000D01*
X28260001Y-79910000D02*
X30260001Y-79910000D01*
X30260001Y-65910000D02*
X30260001Y-67910000D01*
X30260001Y-79910000D02*
X30260001Y-77910000D01*
D15*
X24570001Y-74272500D02*
X24900001Y-74512500D01*
X24900001Y-74032500D01*
X24570001Y-74272500D01*
G36*
X24900001Y-74512500D02*
G01*
X24570001Y-74272500D01*
X24900001Y-74032500D01*
X24900001Y-74512500D01*
G37*
%TO.C,SW14*%
D14*
X73260000Y-58910000D02*
X73260000Y-60910000D01*
X73260000Y-70910000D02*
X73260000Y-72910000D01*
X73260000Y-72910000D02*
X75260000Y-72910000D01*
X75260000Y-58910000D02*
X73260000Y-58910000D01*
D15*
X78500000Y-65460000D02*
X78500000Y-66110000D01*
X78500000Y-66760000D02*
X78500000Y-66110000D01*
X81620000Y-65460000D02*
X81620000Y-66110000D01*
X81620000Y-66760000D02*
X81620000Y-66110000D01*
D14*
X85260000Y-58910000D02*
X87260000Y-58910000D01*
X85260000Y-72910000D02*
X87260000Y-72910000D01*
X87260000Y-58910000D02*
X87260000Y-60910000D01*
X87260000Y-72910000D02*
X87260000Y-70910000D01*
D15*
X81570000Y-67272500D02*
X81900000Y-67512500D01*
X81900000Y-67032500D01*
X81570000Y-67272500D01*
G36*
X81900000Y-67512500D02*
G01*
X81570000Y-67272500D01*
X81900000Y-67032500D01*
X81900000Y-67512500D01*
G37*
%TO.C,C10*%
X99738748Y-51765000D02*
X100261252Y-51765000D01*
X99738748Y-53235000D02*
X100261252Y-53235000D01*
%TO.C,SW5*%
D14*
X92260000Y-22910000D02*
X92260000Y-24910000D01*
X92260000Y-34910000D02*
X92260000Y-36910000D01*
X92260000Y-36910000D02*
X94260000Y-36910000D01*
X94260000Y-22910000D02*
X92260000Y-22910000D01*
D15*
X97500000Y-29460000D02*
X97500000Y-30110000D01*
X97500000Y-30760000D02*
X97500000Y-30110000D01*
X100620000Y-29460000D02*
X100620000Y-30110000D01*
X100620000Y-30760000D02*
X100620000Y-30110000D01*
D14*
X104260000Y-22910000D02*
X106260000Y-22910000D01*
X104260000Y-36910000D02*
X106260000Y-36910000D01*
X106260000Y-22910000D02*
X106260000Y-24910000D01*
X106260000Y-36910000D02*
X106260000Y-34910000D01*
D15*
X100570000Y-31272500D02*
X100900000Y-31512500D01*
X100900000Y-31032500D01*
X100570000Y-31272500D01*
G36*
X100900000Y-31512500D02*
G01*
X100570000Y-31272500D01*
X100900000Y-31032500D01*
X100900000Y-31512500D01*
G37*
%TO.C,C6*%
X23738748Y-56765000D02*
X24261252Y-56765000D01*
X23738748Y-58235000D02*
X24261252Y-58235000D01*
%TO.C,C3*%
X61738748Y-25765000D02*
X62261252Y-25765000D01*
X61738748Y-27235000D02*
X62261252Y-27235000D01*
%TO.C,C16*%
X71776248Y-94765000D02*
X72298752Y-94765000D01*
X71776248Y-96235000D02*
X72298752Y-96235000D01*
%TO.C,SW15*%
D14*
X92260000Y-60910000D02*
X92260000Y-62910000D01*
X92260000Y-72910000D02*
X92260000Y-74910000D01*
X92260000Y-74910000D02*
X94260000Y-74910000D01*
X94260000Y-60910000D02*
X92260000Y-60910000D01*
D15*
X97500000Y-67460000D02*
X97500000Y-68110000D01*
X97500000Y-68760000D02*
X97500000Y-68110000D01*
X100620000Y-67460000D02*
X100620000Y-68110000D01*
X100620000Y-68760000D02*
X100620000Y-68110000D01*
D14*
X104260000Y-60910000D02*
X106260000Y-60910000D01*
X104260000Y-74910000D02*
X106260000Y-74910000D01*
X106260000Y-60910000D02*
X106260000Y-62910000D01*
X106260000Y-74910000D02*
X106260000Y-72910000D01*
D15*
X100570000Y-69272500D02*
X100900000Y-69512500D01*
X100900000Y-69032500D01*
X100570000Y-69272500D01*
G36*
X100900000Y-69512500D02*
G01*
X100570000Y-69272500D01*
X100900000Y-69032500D01*
X100900000Y-69512500D01*
G37*
%TO.C,SW16*%
D14*
X64260000Y-84910000D02*
X64260000Y-86910000D01*
X64260000Y-96910000D02*
X64260000Y-98910000D01*
X64260000Y-98910000D02*
X66260000Y-98910000D01*
X66260000Y-84910000D02*
X64260000Y-84910000D01*
D15*
X69500000Y-91460000D02*
X69500000Y-92110000D01*
X69500000Y-92760000D02*
X69500000Y-92110000D01*
X72620000Y-91460000D02*
X72620000Y-92110000D01*
X72620000Y-92760000D02*
X72620000Y-92110000D01*
D14*
X76260000Y-84910000D02*
X78260000Y-84910000D01*
X76260000Y-98910000D02*
X78260000Y-98910000D01*
X78260000Y-84910000D02*
X78260000Y-86910000D01*
X78260000Y-98910000D02*
X78260000Y-96910000D01*
D15*
X72570000Y-93272500D02*
X72900000Y-93512500D01*
X72900000Y-93032500D01*
X72570000Y-93272500D01*
G36*
X72900000Y-93512500D02*
G01*
X72570000Y-93272500D01*
X72900000Y-93032500D01*
X72900000Y-93512500D01*
G37*
%TO.C,C7*%
X42738748Y-47765000D02*
X43261252Y-47765000D01*
X42738748Y-49235000D02*
X43261252Y-49235000D01*
%TO.C,SW6*%
D14*
X16260000Y-46910000D02*
X16260000Y-48910000D01*
X16260000Y-58910000D02*
X16260000Y-60910000D01*
X16260000Y-60910000D02*
X18260000Y-60910000D01*
X18260000Y-46910000D02*
X16260000Y-46910000D01*
D15*
X21500000Y-53460000D02*
X21500000Y-54110000D01*
X21500000Y-54760000D02*
X21500000Y-54110000D01*
X24620000Y-53460000D02*
X24620000Y-54110000D01*
X24620000Y-54760000D02*
X24620000Y-54110000D01*
D14*
X28260000Y-46910000D02*
X30260000Y-46910000D01*
X28260000Y-60910000D02*
X30260000Y-60910000D01*
X30260000Y-46910000D02*
X30260000Y-48910000D01*
X30260000Y-60910000D02*
X30260000Y-58910000D01*
D15*
X24570000Y-55272500D02*
X24900000Y-55512500D01*
X24900000Y-55032500D01*
X24570000Y-55272500D01*
G36*
X24900000Y-55512500D02*
G01*
X24570000Y-55272500D01*
X24900000Y-55032500D01*
X24900000Y-55512500D01*
G37*
%TO.C,SW12*%
D14*
X35260004Y-56910008D02*
X35260004Y-58910008D01*
X35260004Y-68910008D02*
X35260004Y-70910008D01*
X35260004Y-70910008D02*
X37260004Y-70910008D01*
X37260004Y-56910008D02*
X35260004Y-56910008D01*
D15*
X40500004Y-63460008D02*
X40500004Y-64110008D01*
X40500004Y-64760008D02*
X40500004Y-64110008D01*
X43620004Y-63460008D02*
X43620004Y-64110008D01*
X43620004Y-64760008D02*
X43620004Y-64110008D01*
D14*
X47260004Y-56910008D02*
X49260004Y-56910008D01*
X47260004Y-70910008D02*
X49260004Y-70910008D01*
X49260004Y-56910008D02*
X49260004Y-58910008D01*
X49260004Y-70910008D02*
X49260004Y-68910008D01*
D15*
X43570004Y-65272508D02*
X43900004Y-65512508D01*
X43900004Y-65032508D01*
X43570004Y-65272508D01*
G36*
X43900004Y-65512508D02*
G01*
X43570004Y-65272508D01*
X43900004Y-65032508D01*
X43900004Y-65512508D01*
G37*
%TO.C,C2*%
X42738748Y-28765000D02*
X43261252Y-28765000D01*
X42738748Y-30235000D02*
X43261252Y-30235000D01*
%TO.C,C19*%
X50765000Y-71498752D02*
X50765000Y-70976248D01*
X52235000Y-71498752D02*
X52235000Y-70976248D01*
%TO.C,C12*%
X42776248Y-66765000D02*
X43298752Y-66765000D01*
X42776248Y-68235000D02*
X43298752Y-68235000D01*
%TO.C,C14*%
X80776248Y-68765000D02*
X81298752Y-68765000D01*
X80776248Y-70235000D02*
X81298752Y-70235000D01*
%TO.C,SW17*%
D14*
X83260000Y-86910000D02*
X83260000Y-88910000D01*
X83260000Y-98910000D02*
X83260000Y-100910000D01*
X83260000Y-100910000D02*
X85260000Y-100910000D01*
X85260000Y-86910000D02*
X83260000Y-86910000D01*
D15*
X88500000Y-93460000D02*
X88500000Y-94110000D01*
X88500000Y-94760000D02*
X88500000Y-94110000D01*
X91620000Y-93460000D02*
X91620000Y-94110000D01*
X91620000Y-94760000D02*
X91620000Y-94110000D01*
D14*
X95260000Y-86910000D02*
X97260000Y-86910000D01*
X95260000Y-100910000D02*
X97260000Y-100910000D01*
X97260000Y-86910000D02*
X97260000Y-88910000D01*
X97260000Y-100910000D02*
X97260000Y-98910000D01*
D15*
X91570000Y-95272500D02*
X91900000Y-95512500D01*
X91900000Y-95032500D01*
X91570000Y-95272500D01*
G36*
X91900000Y-95512500D02*
G01*
X91570000Y-95272500D01*
X91900000Y-95032500D01*
X91900000Y-95512500D01*
G37*
%TO.C,C15*%
X99776248Y-70765000D02*
X100298752Y-70765000D01*
X99776248Y-72235000D02*
X100298752Y-72235000D01*
%TO.C,SW18*%
D14*
X102250000Y-89910000D02*
X102250000Y-91910000D01*
X102250000Y-101910000D02*
X102250000Y-103910000D01*
X102250000Y-103910000D02*
X104250000Y-103910000D01*
X104250000Y-89910000D02*
X102250000Y-89910000D01*
D15*
X107490000Y-96460000D02*
X107490000Y-97110000D01*
X107490000Y-97760000D02*
X107490000Y-97110000D01*
X110610000Y-96460000D02*
X110610000Y-97110000D01*
X110610000Y-97760000D02*
X110610000Y-97110000D01*
D14*
X114250000Y-89910000D02*
X116250000Y-89910000D01*
X114250000Y-103910000D02*
X116250000Y-103910000D01*
X116250000Y-89910000D02*
X116250000Y-91910000D01*
X116250000Y-103910000D02*
X116250000Y-101910000D01*
D15*
X110560000Y-98272500D02*
X110890000Y-98512500D01*
X110890000Y-98032500D01*
X110560000Y-98272500D01*
G36*
X110890000Y-98512500D02*
G01*
X110560000Y-98272500D01*
X110890000Y-98032500D01*
X110890000Y-98512500D01*
G37*
%TO.C,C13*%
X61776248Y-63765000D02*
X62298752Y-63765000D01*
X61776248Y-65235000D02*
X62298752Y-65235000D01*
%TO.C,C21*%
X79765000Y-75561252D02*
X79765000Y-75038748D01*
X81235000Y-75561252D02*
X81235000Y-75038748D01*
%TO.C,C4*%
X80738748Y-30765000D02*
X81261252Y-30765000D01*
X80738748Y-32235000D02*
X81261252Y-32235000D01*
%TO.C,C9*%
X80738748Y-49765000D02*
X81261252Y-49765000D01*
X80738748Y-51235000D02*
X81261252Y-51235000D01*
%TO.C,SW3*%
D14*
X54260004Y-15910008D02*
X54260004Y-17910008D01*
X54260004Y-27910008D02*
X54260004Y-29910008D01*
X54260004Y-29910008D02*
X56260004Y-29910008D01*
X56260004Y-15910008D02*
X54260004Y-15910008D01*
D15*
X59500004Y-22460008D02*
X59500004Y-23110008D01*
X59500004Y-23760008D02*
X59500004Y-23110008D01*
X62620004Y-22460008D02*
X62620004Y-23110008D01*
X62620004Y-23760008D02*
X62620004Y-23110008D01*
D14*
X66260004Y-15910008D02*
X68260004Y-15910008D01*
X66260004Y-29910008D02*
X68260004Y-29910008D01*
X68260004Y-15910008D02*
X68260004Y-17910008D01*
X68260004Y-29910008D02*
X68260004Y-27910008D01*
D15*
X62570004Y-24272508D02*
X62900004Y-24512508D01*
X62900004Y-24032508D01*
X62570004Y-24272508D01*
G36*
X62900004Y-24512508D02*
G01*
X62570004Y-24272508D01*
X62900004Y-24032508D01*
X62900004Y-24512508D01*
G37*
%TO.C,C18*%
X109776248Y-99765000D02*
X110298752Y-99765000D01*
X109776248Y-101235000D02*
X110298752Y-101235000D01*
%TO.C,JP1*%
X98260000Y-88010000D02*
X98260000Y-90810000D01*
X100260000Y-88010000D02*
X98260000Y-88010000D01*
X98260000Y-90810000D02*
X100260000Y-90810000D01*
X100260000Y-90810000D02*
X100260000Y-88010000D01*
%TO.C,J2*%
D14*
X108760000Y-83960000D02*
X96660000Y-83960000D01*
X108760000Y-83710000D02*
X110760000Y-83710000D01*
X110760000Y-78110000D02*
X110760000Y-83710000D01*
X108760000Y-78110000D02*
X110760000Y-78110000D01*
X108760000Y-77860000D02*
X108760000Y-83960000D01*
X108760000Y-77860000D02*
X96660000Y-77860000D01*
X96660000Y-77860000D02*
X96660000Y-83960000D01*
%TO.C,JP3*%
D15*
X29010000Y-98010000D02*
X29010000Y-100810000D01*
X31010000Y-98010000D02*
X29010000Y-98010000D01*
X29010000Y-100810000D02*
X31010000Y-100810000D01*
X31010000Y-100810000D02*
X31010000Y-98010000D01*
%TD*%
M02*
