%TF.GenerationSoftware,KiCad,Pcbnew,10.0.2*%
%TF.CreationDate,2026-07-29T15:43:31+09:00*%
%TF.ProjectId,boardloaf-he,626f6172-646c-46f6-9166-2d68652e6b69,rev?*%
%TF.SameCoordinates,Original*%
%TF.FileFunction,Paste,Bot*%
%TF.FilePolarity,Positive*%
%FSLAX46Y46*%
G04 Gerber Fmt 4.6, Leading zero omitted, Abs format (unit mm)*
G04 Created by KiCad (PCBNEW 10.0.2) date 2026-07-29 15:43:31*
%MOMM*%
%LPD*%
G01*
G04 APERTURE LIST*
G04 Aperture macros list*
%AMRoundRect*
0 Rectangle with rounded corners*
0 $1 Rounding radius*
0 $2 $3 $4 $5 $6 $7 $8 $9 X,Y pos of 4 corners*
0 Add a 4 corners polygon primitive as box body*
4,1,4,$2,$3,$4,$5,$6,$7,$8,$9,$2,$3,0*
0 Add four circle primitives for the rounded corners*
1,1,$1+$1,$2,$3*
1,1,$1+$1,$4,$5*
1,1,$1+$1,$6,$7*
1,1,$1+$1,$8,$9*
0 Add four rect primitives between the rounded corners*
20,1,$1+$1,$2,$3,$4,$5,0*
20,1,$1+$1,$4,$5,$6,$7,0*
20,1,$1+$1,$6,$7,$8,$9,0*
20,1,$1+$1,$8,$9,$2,$3,0*%
G04 Aperture macros list end*
%ADD10RoundRect,0.150000X-0.150000X0.700000X-0.150000X-0.700000X0.150000X-0.700000X0.150000X0.700000X0*%
%ADD11RoundRect,0.149998X-0.149998X0.700002X-0.149998X-0.700002X0.149998X-0.700002X0.149998X0.700002X0*%
%ADD12RoundRect,0.149999X-0.149999X0.700001X-0.149999X-0.700001X0.149999X-0.700001X0.149999X0.700001X0*%
%ADD13RoundRect,0.250000X-0.337500X-0.475000X0.337500X-0.475000X0.337500X0.475000X-0.337500X0.475000X0*%
%ADD14RoundRect,0.250000X-0.475000X0.337500X-0.475000X-0.337500X0.475000X-0.337500X0.475000X0.337500X0*%
G04 APERTURE END LIST*
D10*
%TO.C,SW7*%
X43010004Y-46160008D03*
D11*
X41110008Y-46160008D03*
D12*
X42060006Y-44060008D03*
%TD*%
D10*
%TO.C,SW4*%
X81010000Y-29160000D03*
D11*
X79110004Y-29160000D03*
D12*
X80060002Y-27060000D03*
%TD*%
D13*
%TO.C,C17*%
X90000000Y-97500000D03*
X92075000Y-97500000D03*
%TD*%
D10*
%TO.C,SW1*%
X24009998Y-36159999D03*
D11*
X22110002Y-36159999D03*
D12*
X23060000Y-34059999D03*
%TD*%
D10*
%TO.C,SW9*%
X81010000Y-48160000D03*
D11*
X79110004Y-48160000D03*
D12*
X80060002Y-46060000D03*
%TD*%
D10*
%TO.C,SW10*%
X100010000Y-50160000D03*
D11*
X98110004Y-50160000D03*
D12*
X99060002Y-48060000D03*
%TD*%
D10*
%TO.C,SW2*%
X43010004Y-27160008D03*
D11*
X41110008Y-27160008D03*
D12*
X42060006Y-25060008D03*
%TD*%
D14*
%TO.C,C20*%
X64600000Y-71962500D03*
X64600000Y-74037500D03*
%TD*%
D13*
%TO.C,C8*%
X60962500Y-45500000D03*
X63037500Y-45500000D03*
%TD*%
D10*
%TO.C,SW13*%
X62010004Y-62160008D03*
D11*
X60110008Y-62160008D03*
D12*
X61060006Y-60060008D03*
%TD*%
D13*
%TO.C,C5*%
X98962500Y-33500000D03*
X101037500Y-33500000D03*
%TD*%
%TO.C,C1*%
X22962500Y-38500000D03*
X25037500Y-38500000D03*
%TD*%
%TO.C,C11*%
X23000000Y-76500000D03*
X25075000Y-76500000D03*
%TD*%
D10*
%TO.C,SW8*%
X62010004Y-43160008D03*
D11*
X60110008Y-43160008D03*
D12*
X61060006Y-41060008D03*
%TD*%
D10*
%TO.C,SW11*%
X24010001Y-74160000D03*
D11*
X22110005Y-74160000D03*
D12*
X23060003Y-72060000D03*
%TD*%
D10*
%TO.C,SW14*%
X81010000Y-67160000D03*
D11*
X79110004Y-67160000D03*
D12*
X80060002Y-65060000D03*
%TD*%
D13*
%TO.C,C10*%
X98962500Y-52500000D03*
X101037500Y-52500000D03*
%TD*%
D10*
%TO.C,SW5*%
X100010000Y-31160000D03*
D11*
X98110004Y-31160000D03*
D12*
X99060002Y-29060000D03*
%TD*%
D13*
%TO.C,C6*%
X22962500Y-57500000D03*
X25037500Y-57500000D03*
%TD*%
%TO.C,C3*%
X60962500Y-26500000D03*
X63037500Y-26500000D03*
%TD*%
%TO.C,C16*%
X71000000Y-95500000D03*
X73075000Y-95500000D03*
%TD*%
D10*
%TO.C,SW15*%
X100010000Y-69160000D03*
D11*
X98110004Y-69160000D03*
D12*
X99060002Y-67060000D03*
%TD*%
D10*
%TO.C,SW16*%
X72010000Y-93160000D03*
D11*
X70110004Y-93160000D03*
D12*
X71060002Y-91060000D03*
%TD*%
D13*
%TO.C,C7*%
X41962500Y-48500000D03*
X44037500Y-48500000D03*
%TD*%
D10*
%TO.C,SW6*%
X24010000Y-55160000D03*
D11*
X22110004Y-55160000D03*
D12*
X23060002Y-53060000D03*
%TD*%
D10*
%TO.C,SW12*%
X43010004Y-65160008D03*
D11*
X41110008Y-65160008D03*
D12*
X42060006Y-63060008D03*
%TD*%
D13*
%TO.C,C2*%
X41962500Y-29500000D03*
X44037500Y-29500000D03*
%TD*%
D14*
%TO.C,C19*%
X51500000Y-70200000D03*
X51500000Y-72275000D03*
%TD*%
D13*
%TO.C,C12*%
X42000000Y-67500000D03*
X44075000Y-67500000D03*
%TD*%
%TO.C,C14*%
X80000000Y-69500000D03*
X82075000Y-69500000D03*
%TD*%
D10*
%TO.C,SW17*%
X91010000Y-95160000D03*
D11*
X89110004Y-95160000D03*
D12*
X90060002Y-93060000D03*
%TD*%
D13*
%TO.C,C15*%
X99000000Y-71500000D03*
X101075000Y-71500000D03*
%TD*%
D10*
%TO.C,SW18*%
X110000000Y-98160000D03*
D11*
X108100004Y-98160000D03*
D12*
X109050002Y-96060000D03*
%TD*%
D13*
%TO.C,C13*%
X61000000Y-64500000D03*
X63075000Y-64500000D03*
%TD*%
D14*
%TO.C,C21*%
X80500000Y-74262500D03*
X80500000Y-76337500D03*
%TD*%
D13*
%TO.C,C4*%
X79962500Y-31500000D03*
X82037500Y-31500000D03*
%TD*%
%TO.C,C9*%
X79962500Y-50500000D03*
X82037500Y-50500000D03*
%TD*%
D10*
%TO.C,SW3*%
X62010004Y-24160008D03*
D11*
X60110008Y-24160008D03*
D12*
X61060006Y-22060008D03*
%TD*%
D13*
%TO.C,C18*%
X109000000Y-100500000D03*
X111075000Y-100500000D03*
%TD*%
M02*
