%TF.GenerationSoftware,KiCad,Pcbnew,10.0.2*%
%TF.CreationDate,2026-07-29T14:15:16+09:00*%
%TF.ProjectId,boardloaf-he,626f6172-646c-46f6-9166-2d68652e6b69,rev?*%
%TF.SameCoordinates,Original*%
%TF.FileFunction,Paste,Top*%
%TF.FilePolarity,Positive*%
%FSLAX46Y46*%
G04 Gerber Fmt 4.6, Leading zero omitted, Abs format (unit mm)*
G04 Created by KiCad (PCBNEW 10.0.2) date 2026-07-29 14:15:16*
%MOMM*%
%LPD*%
G01*
G04 APERTURE LIST*
G04 Aperture macros list*
%AMRoundRect*
0 Rectangle with rounded corners*
0 $1 Rounding radius*
0 $2 $3 $4 $5 $6 $7 $8 $9 X,Y pos of 4 corners*
0 Add a 4 corners polygon primitive as box body*
4,1,4,$2,$3,$4,$5,$6,$7,$8,$9,$2,$3,0*
0 Add four circle primitives for the rounded corners*
1,1,$1+$1,$2,$3*
1,1,$1+$1,$4,$5*
1,1,$1+$1,$6,$7*
1,1,$1+$1,$8,$9*
0 Add four rect primitives between the rounded corners*
20,1,$1+$1,$2,$3,$4,$5,0*
20,1,$1+$1,$4,$5,$6,$7,0*
20,1,$1+$1,$6,$7,$8,$9,0*
20,1,$1+$1,$8,$9,$2,$3,0*%
G04 Aperture macros list end*
%ADD10RoundRect,0.150000X-0.150000X0.693750X-0.150000X-0.693750X0.150000X-0.693750X0.150000X0.693750X0*%
%ADD11RoundRect,0.150553X-0.150553X0.692800X-0.150553X-0.692800X0.150553X-0.692800X0.150553X0.692800X0*%
%ADD12RoundRect,0.150000X-0.149999X0.693750X-0.149999X-0.693750X0.149999X-0.693750X0.149999X0.693750X0*%
%ADD13RoundRect,0.150000X0.150000X-0.825000X0.150000X0.825000X-0.150000X0.825000X-0.150000X-0.825000X0*%
%ADD14RoundRect,0.250000X-0.337500X-0.475000X0.337500X-0.475000X0.337500X0.475000X-0.337500X0.475000X0*%
%ADD15RoundRect,0.250000X0.475000X-0.337500X0.475000X0.337500X-0.475000X0.337500X-0.475000X-0.337500X0*%
G04 APERTURE END LIST*
D10*
%TO.C,SW7*%
X43010004Y-44053758D03*
D11*
X41111119Y-44054155D03*
D12*
X42060005Y-46166258D03*
%TD*%
D10*
%TO.C,SW4*%
X81010000Y-27053750D03*
D11*
X79111115Y-27054147D03*
D12*
X80060001Y-29166250D03*
%TD*%
D13*
%TO.C,U1*%
X53350005Y-76830000D03*
X54620007Y-76829997D03*
X55890004Y-76829999D03*
X57160004Y-76830000D03*
X58430003Y-76830000D03*
X59700008Y-76829998D03*
X60970005Y-76829999D03*
X62240004Y-76829999D03*
X62240003Y-71879998D03*
X60970001Y-71880001D03*
X59700004Y-71879999D03*
X58430004Y-71879998D03*
X57160005Y-71879998D03*
X55890000Y-71880000D03*
X54620003Y-71879999D03*
X53350004Y-71879999D03*
%TD*%
D14*
%TO.C,C17*%
X90000000Y-97500000D03*
X92075000Y-97500000D03*
%TD*%
D10*
%TO.C,SW1*%
X24009998Y-34053749D03*
D11*
X22111113Y-34054146D03*
D12*
X23059999Y-36166249D03*
%TD*%
D10*
%TO.C,SW9*%
X81010000Y-46053750D03*
D11*
X79111115Y-46054147D03*
D12*
X80060001Y-48166250D03*
%TD*%
D10*
%TO.C,SW10*%
X100010000Y-48053750D03*
D11*
X98111115Y-48054147D03*
D12*
X99060001Y-50166250D03*
%TD*%
D10*
%TO.C,SW2*%
X43010004Y-25053758D03*
D11*
X41111119Y-25054155D03*
D12*
X42060005Y-27166258D03*
%TD*%
D15*
%TO.C,C20*%
X64600000Y-74037500D03*
X64600000Y-71962500D03*
%TD*%
D14*
%TO.C,C8*%
X60962500Y-45500000D03*
X63037500Y-45500000D03*
%TD*%
D13*
%TO.C,U3*%
X82380000Y-81250001D03*
X83650002Y-81249998D03*
X84919999Y-81250000D03*
X86189999Y-81250001D03*
X87459998Y-81250001D03*
X88730003Y-81249999D03*
X90000000Y-81250000D03*
X91269999Y-81250000D03*
X91269998Y-76299999D03*
X89999996Y-76300002D03*
X88729999Y-76300000D03*
X87459999Y-76299999D03*
X86190000Y-76299999D03*
X84919995Y-76300001D03*
X83649998Y-76300000D03*
X82379999Y-76300000D03*
%TD*%
D10*
%TO.C,SW13*%
X62010004Y-60053758D03*
D11*
X60111119Y-60054155D03*
D12*
X61060005Y-62166258D03*
%TD*%
D14*
%TO.C,C5*%
X98962500Y-33500000D03*
X101037500Y-33500000D03*
%TD*%
%TO.C,C1*%
X22962500Y-38500000D03*
X25037500Y-38500000D03*
%TD*%
%TO.C,C11*%
X23000000Y-76500000D03*
X25075000Y-76500000D03*
%TD*%
D10*
%TO.C,SW8*%
X62010004Y-41053758D03*
D11*
X60111119Y-41054155D03*
D12*
X61060005Y-43166258D03*
%TD*%
D10*
%TO.C,SW11*%
X24010001Y-72053750D03*
D11*
X22111116Y-72054147D03*
D12*
X23060002Y-74166250D03*
%TD*%
D10*
%TO.C,SW14*%
X81010000Y-65053750D03*
D11*
X79111115Y-65054147D03*
D12*
X80060001Y-67166250D03*
%TD*%
D14*
%TO.C,C10*%
X98962500Y-52500000D03*
X101037500Y-52500000D03*
%TD*%
D10*
%TO.C,SW5*%
X100010000Y-29053750D03*
D11*
X98111115Y-29054147D03*
D12*
X99060001Y-31166250D03*
%TD*%
D14*
%TO.C,C6*%
X22962500Y-57500000D03*
X25037500Y-57500000D03*
%TD*%
%TO.C,C3*%
X60962500Y-26500000D03*
X63037500Y-26500000D03*
%TD*%
%TO.C,C16*%
X71000000Y-95500000D03*
X73075000Y-95500000D03*
%TD*%
D10*
%TO.C,SW15*%
X100010000Y-67053750D03*
D11*
X98111115Y-67054147D03*
D12*
X99060001Y-69166250D03*
%TD*%
D10*
%TO.C,SW16*%
X72010000Y-91053750D03*
D11*
X70111115Y-91054147D03*
D12*
X71060001Y-93166250D03*
%TD*%
D14*
%TO.C,C7*%
X41962500Y-48500000D03*
X44037500Y-48500000D03*
%TD*%
D13*
%TO.C,U2*%
X65770005Y-81400000D03*
X67040007Y-81399997D03*
X68310004Y-81399999D03*
X69580004Y-81400000D03*
X70850003Y-81400000D03*
X72120008Y-81399998D03*
X73390005Y-81399999D03*
X74660004Y-81399999D03*
X74660003Y-76449998D03*
X73390001Y-76450001D03*
X72120004Y-76449999D03*
X70850004Y-76449998D03*
X69580005Y-76449998D03*
X68310000Y-76450000D03*
X67040003Y-76449999D03*
X65770004Y-76449999D03*
%TD*%
D10*
%TO.C,SW6*%
X24010000Y-53053750D03*
D11*
X22111115Y-53054147D03*
D12*
X23060001Y-55166250D03*
%TD*%
D10*
%TO.C,SW12*%
X43010004Y-63053758D03*
D11*
X41111119Y-63054155D03*
D12*
X42060005Y-65166258D03*
%TD*%
D14*
%TO.C,C2*%
X41962500Y-29500000D03*
X44037500Y-29500000D03*
%TD*%
D15*
%TO.C,C19*%
X51500000Y-72275000D03*
X51500000Y-70200000D03*
%TD*%
D14*
%TO.C,C12*%
X42000000Y-67500000D03*
X44075000Y-67500000D03*
%TD*%
%TO.C,C14*%
X80000000Y-69500000D03*
X82075000Y-69500000D03*
%TD*%
D10*
%TO.C,SW17*%
X91010000Y-93053750D03*
D11*
X89111115Y-93054147D03*
D12*
X90060001Y-95166250D03*
%TD*%
D14*
%TO.C,C15*%
X99000000Y-71500000D03*
X101075000Y-71500000D03*
%TD*%
D10*
%TO.C,SW18*%
X110000000Y-96053750D03*
D11*
X108101115Y-96054147D03*
D12*
X109050001Y-98166250D03*
%TD*%
D14*
%TO.C,C13*%
X61000000Y-64500000D03*
X63075000Y-64500000D03*
%TD*%
D15*
%TO.C,C21*%
X80500000Y-76337500D03*
X80500000Y-74262500D03*
%TD*%
D14*
%TO.C,C4*%
X79962500Y-31500000D03*
X82037500Y-31500000D03*
%TD*%
%TO.C,C9*%
X79962500Y-50500000D03*
X82037500Y-50500000D03*
%TD*%
D10*
%TO.C,SW3*%
X62010004Y-22053758D03*
D11*
X60111119Y-22054155D03*
D12*
X61060005Y-24166258D03*
%TD*%
D14*
%TO.C,C18*%
X109000000Y-100500000D03*
X111075000Y-100500000D03*
%TD*%
M02*
