%TF.GenerationSoftware,KiCad,Pcbnew,10.0.2*%
%TF.CreationDate,2026-08-14T13:34:51+09:00*%
%TF.ProjectId,boardloaf-he,626f6172-646c-46f6-9166-2d68652e6b69,rev?*%
%TF.SameCoordinates,Original*%
%TF.FileFunction,Paste,Top*%
%TF.FilePolarity,Positive*%
%FSLAX46Y46*%
G04 Gerber Fmt 4.6, Leading zero omitted, Abs format (unit mm)*
G04 Created by KiCad (PCBNEW 10.0.2) date 2026-08-14 13:34:51*
%MOMM*%
%LPD*%
G01*
G04 APERTURE LIST*
G04 Aperture macros list*
%AMRoundRect*
0 Rectangle with rounded corners*
0 $1 Rounding radius*
0 $2 $3 $4 $5 $6 $7 $8 $9 X,Y pos of 4 corners*
0 Add a 4 corners polygon primitive as box body*
4,1,4,$2,$3,$4,$5,$6,$7,$8,$9,$2,$3,0*
0 Add four circle primitives for the rounded corners*
1,1,$1+$1,$2,$3*
1,1,$1+$1,$4,$5*
1,1,$1+$1,$6,$7*
1,1,$1+$1,$8,$9*
0 Add four rect primitives between the rounded corners*
20,1,$1+$1,$2,$3,$4,$5,0*
20,1,$1+$1,$4,$5,$6,$7,0*
20,1,$1+$1,$6,$7,$8,$9,0*
20,1,$1+$1,$8,$9,$2,$3,0*%
G04 Aperture macros list end*
%ADD10RoundRect,0.150000X-0.150000X0.693750X-0.150000X-0.693750X0.150000X-0.693750X0.150000X0.693750X0*%
%ADD11RoundRect,0.150553X-0.150553X0.692800X-0.150553X-0.692800X0.150553X-0.692800X0.150553X0.692800X0*%
%ADD12RoundRect,0.150000X-0.149999X0.693750X-0.149999X-0.693750X0.149999X-0.693750X0.149999X0.693750X0*%
%ADD13RoundRect,0.150000X-0.825000X-0.150000X0.825000X-0.150000X0.825000X0.150000X-0.825000X0.150000X0*%
%ADD14C,0.600000*%
%ADD15RoundRect,0.250000X-0.337500X-0.475000X0.337500X-0.475000X0.337500X0.475000X-0.337500X0.475000X0*%
%ADD16RoundRect,0.250000X0.475000X-0.337500X0.475000X0.337500X-0.475000X0.337500X-0.475000X-0.337500X0*%
G04 APERTURE END LIST*
D10*
%TO.C,SW7*%
X42999996Y-44053750D03*
D11*
X41101111Y-44054147D03*
D12*
X42049997Y-46166250D03*
%TD*%
D10*
%TO.C,SW4*%
X81010000Y-27053750D03*
D11*
X79111115Y-27054147D03*
D12*
X80060001Y-29166250D03*
%TD*%
D13*
%TO.C,U1*%
X65324998Y-30920008D03*
D14*
X66299998Y-30920008D03*
X74250000Y-30920002D03*
D13*
X65325001Y-32190010D03*
D14*
X66299998Y-32190010D03*
X74250000Y-32190004D03*
D13*
X65324999Y-33460007D03*
D14*
X66299998Y-33460007D03*
X74250000Y-33460001D03*
D13*
X65324998Y-34730007D03*
D14*
X66299998Y-34730007D03*
X74250000Y-34730001D03*
D13*
X65324998Y-36000006D03*
D14*
X66299998Y-36000006D03*
X74250000Y-36000000D03*
D13*
X65325000Y-37270011D03*
X65324999Y-38540008D03*
X65324999Y-39810007D03*
X70275000Y-39810006D03*
X70274997Y-38540004D03*
X70274999Y-37270007D03*
X70275000Y-36000007D03*
X70275000Y-34730008D03*
X70274998Y-33460003D03*
X70274999Y-32190006D03*
X70274999Y-30920007D03*
%TD*%
D15*
%TO.C,C17*%
X90000000Y-97500000D03*
X92075000Y-97500000D03*
%TD*%
D10*
%TO.C,SW1*%
X24009998Y-34053749D03*
D11*
X22111113Y-34054146D03*
D12*
X23059999Y-36166249D03*
%TD*%
D10*
%TO.C,SW9*%
X81010000Y-46053750D03*
D11*
X79111115Y-46054147D03*
D12*
X80060001Y-48166250D03*
%TD*%
D10*
%TO.C,SW10*%
X100010000Y-48053750D03*
D11*
X98111115Y-48054147D03*
D12*
X99060001Y-50166250D03*
%TD*%
D10*
%TO.C,SW2*%
X43010004Y-25053758D03*
D11*
X41111119Y-25054155D03*
D12*
X42060005Y-27166258D03*
%TD*%
D16*
%TO.C,C20*%
X70324993Y-48327500D03*
X70324993Y-46252500D03*
%TD*%
D15*
%TO.C,C8*%
X60962500Y-45500000D03*
X63037500Y-45500000D03*
%TD*%
D13*
%TO.C,U3*%
X65244993Y-69380002D03*
D14*
X66219993Y-69380002D03*
X74169995Y-69379996D03*
D13*
X65244996Y-70650004D03*
D14*
X66219993Y-70650004D03*
X74169995Y-70649998D03*
D13*
X65244994Y-71920001D03*
D14*
X66219993Y-71920001D03*
X74169995Y-71919995D03*
D13*
X65244993Y-73190001D03*
D14*
X66219993Y-73190001D03*
X74169995Y-73189995D03*
D13*
X65244993Y-74460000D03*
D14*
X66219993Y-74460000D03*
X74169995Y-74459994D03*
D13*
X65244995Y-75730005D03*
X65244994Y-77000002D03*
X65244994Y-78270001D03*
X70194995Y-78270000D03*
X70194992Y-76999998D03*
X70194994Y-75730001D03*
X70194995Y-74460001D03*
X70194995Y-73190002D03*
X70194993Y-71919997D03*
X70194994Y-70650000D03*
X70194994Y-69380001D03*
%TD*%
D10*
%TO.C,SW13*%
X62010004Y-60053758D03*
D11*
X60111119Y-60054155D03*
D12*
X61060005Y-62166258D03*
%TD*%
D15*
%TO.C,C5*%
X98962500Y-33500000D03*
X101037500Y-33500000D03*
%TD*%
%TO.C,C1*%
X22962500Y-38500000D03*
X25037500Y-38500000D03*
%TD*%
%TO.C,C11*%
X23000000Y-76500000D03*
X25075000Y-76500000D03*
%TD*%
D10*
%TO.C,SW8*%
X62010004Y-41053758D03*
D11*
X60111119Y-41054155D03*
D12*
X61060005Y-43166258D03*
%TD*%
D10*
%TO.C,SW11*%
X24010001Y-72053750D03*
D11*
X22111116Y-72054147D03*
D12*
X23060002Y-74166250D03*
%TD*%
D10*
%TO.C,SW14*%
X81010000Y-65053750D03*
D11*
X79111115Y-65054147D03*
D12*
X80060001Y-67166250D03*
%TD*%
D15*
%TO.C,C10*%
X98962500Y-52500000D03*
X101037500Y-52500000D03*
%TD*%
D10*
%TO.C,SW5*%
X100010000Y-29053750D03*
D11*
X98111115Y-29054147D03*
D12*
X99060001Y-31166250D03*
%TD*%
D15*
%TO.C,C6*%
X22962500Y-57500000D03*
X25037500Y-57500000D03*
%TD*%
%TO.C,C3*%
X60962500Y-26500000D03*
X63037500Y-26500000D03*
%TD*%
%TO.C,C16*%
X71000000Y-95500000D03*
X73075000Y-95500000D03*
%TD*%
D10*
%TO.C,SW15*%
X100010000Y-67053750D03*
D11*
X98111115Y-67054147D03*
D12*
X99060001Y-69166250D03*
%TD*%
D10*
%TO.C,SW16*%
X72010000Y-91053750D03*
D11*
X70111115Y-91054147D03*
D12*
X71060001Y-93166250D03*
%TD*%
D15*
%TO.C,C7*%
X41962500Y-48500000D03*
X44037500Y-48500000D03*
%TD*%
D13*
%TO.C,U2*%
X65374994Y-49970004D03*
D14*
X66349994Y-49970004D03*
X74299996Y-49969998D03*
D13*
X65374997Y-51240006D03*
D14*
X66349994Y-51240006D03*
X74299996Y-51240000D03*
D13*
X65374995Y-52510003D03*
D14*
X66349994Y-52510003D03*
X74299996Y-52509997D03*
D13*
X65374994Y-53780003D03*
D14*
X66349994Y-53780003D03*
X74299996Y-53779997D03*
D13*
X65374994Y-55050002D03*
D14*
X66349994Y-55050002D03*
X74299996Y-55049996D03*
D13*
X65374996Y-56320007D03*
X65374995Y-57590004D03*
X65374995Y-58860003D03*
X70324996Y-58860002D03*
X70324993Y-57590000D03*
X70324995Y-56320003D03*
X70324996Y-55050003D03*
X70324996Y-53780004D03*
X70324994Y-52509999D03*
X70324995Y-51240002D03*
X70324995Y-49970003D03*
%TD*%
D10*
%TO.C,SW6*%
X24010000Y-53053750D03*
D11*
X22111115Y-53054147D03*
D12*
X23060001Y-55166250D03*
%TD*%
D10*
%TO.C,SW12*%
X43010004Y-63053758D03*
D11*
X41111119Y-63054155D03*
D12*
X42060005Y-65166258D03*
%TD*%
D15*
%TO.C,C2*%
X41962500Y-29500000D03*
X44037500Y-29500000D03*
%TD*%
D16*
%TO.C,C19*%
X70199998Y-29237506D03*
X70199998Y-27162506D03*
%TD*%
D15*
%TO.C,C12*%
X42000000Y-67500000D03*
X44075000Y-67500000D03*
%TD*%
%TO.C,C14*%
X80000000Y-69500000D03*
X82075000Y-69500000D03*
%TD*%
D10*
%TO.C,SW17*%
X91010000Y-93053750D03*
D11*
X89111115Y-93054147D03*
D12*
X90060001Y-95166250D03*
%TD*%
D15*
%TO.C,C15*%
X99000000Y-71500000D03*
X101075000Y-71500000D03*
%TD*%
D10*
%TO.C,SW18*%
X110000000Y-96053750D03*
D11*
X108101115Y-96054147D03*
D12*
X109050001Y-98166250D03*
%TD*%
D15*
%TO.C,C13*%
X61000000Y-64500000D03*
X63075000Y-64500000D03*
%TD*%
D16*
%TO.C,C21*%
X70194994Y-67767501D03*
X70194994Y-65692501D03*
%TD*%
D15*
%TO.C,C4*%
X79962500Y-31500000D03*
X82037500Y-31500000D03*
%TD*%
%TO.C,C9*%
X79962500Y-50500000D03*
X82037500Y-50500000D03*
%TD*%
D10*
%TO.C,SW3*%
X62010004Y-22053758D03*
D11*
X60111119Y-22054155D03*
D12*
X61060005Y-24166258D03*
%TD*%
D15*
%TO.C,C18*%
X109000000Y-100500000D03*
X111075000Y-100500000D03*
%TD*%
M02*
