  0
SECTION
  2
HEADER
  9
$ANGBASE
  50
0.0
  9
$ANGDIR
  70
1
  9
$MEASUREMENT
  70
1
  9
$INSUNITS
  70
4
  0
ENDSEC
  0
SECTION
  2
TABLES
  0
TABLE
  2
LTYPE
  70
4
  0
LTYPE
  5
40F
  2
CONTINUOUS
  70
0
  3
Solid line
  72
65
  73
0
  40
0.0
  0
LTYPE
  5
410
  2
DASHDOT
 70
0
  3
Dash Dot ____ _ ____ _
 72
65
 73
4
 40
2.0
 49
1.25
 49
-0.25
 49
0.25
 49
-0.25
  0
LTYPE
  5
411
  2
DASHED
 70
0
  3
Dashed __ __ __ __ __
 72
65
 73
2
 40
0.75
 49
0.5
 49
-0.25
  0
LTYPE
  5
43B
  2
DOTTED
 70
0
  3
Dotted .  .  .  .
 72
65
 73
2
 40
0.2
 49
0.0
 49
-0.2
  0
ENDTAB
  0
TABLE
  2
STYLE
  70
4
  0
STYLE
  2
KICAD
  70
0
  40
0
  41
1
  42
1
  50
0
  71
0
  3
isocp.shx
  0
STYLE
  2
KICADB
  70
0
  40
0
  41
1
  42
1
  50
0
  71
0
  3
isocp.shx
  0
STYLE
  2
KICADI
  70
0
  40
0
  41
1
  42
1
  50
15
  71
0
  3
isocp.shx
  0
STYLE
  2
KICADBI
  70
0
  40
0
  41
1
  42
1
  50
15
  71
0
  3
isocp.shx
  0
ENDTAB
  0
TABLE
  2
LAYER
  70
1
  0
LAYER
  2
Edge.Cuts
  70
0
  62
254
  420
13685453
  6
CONTINUOUS
  0
ENDTAB
  0
ENDSEC
  0
SECTION
  2
ENTITIES
0
LINE
8
Edge.Cuts
6
CONTINUOUS
10
160.8560039999999844
20
-143.0171359999999936
11
161.0835919999999817
21
-143.0910839999999951
0
LINE
8
Edge.Cuts
6
CONTINUOUS
10
161.0835919999999817
20
-143.0910839999999951
11
161.2968099999999936
21
-143.1997240000000033
0
LINE
8
Edge.Cuts
6
CONTINUOUS
10
161.2968099999999936
20
-143.1997240000000033
11
161.4904080000000022
21
-143.3403809999999794
0
LINE
8
Edge.Cuts
6
CONTINUOUS
10
161.4904080000000022
20
-143.3403809999999794
11
161.6596189999999922
21
-143.5095919999999978
0
LINE
8
Edge.Cuts
6
CONTINUOUS
10
161.6596189999999922
20
-143.5095919999999978
11
161.8002759999999967
21
-143.7031900000000064
0
LINE
8
Edge.Cuts
6
CONTINUOUS
10
161.8002759999999967
20
-143.7031900000000064
11
161.9089160000000049
21
-143.9164079999999899
0
LINE
8
Edge.Cuts
6
CONTINUOUS
10
161.9089160000000049
20
-143.9164079999999899
11
161.9828640000000064
21
-144.1439959999999871
0
LINE
8
Edge.Cuts
6
CONTINUOUS
10
161.9828640000000064
20
-144.1439959999999871
11
162.0202989999999943
21
-144.3803499999999929
0
LINE
8
Edge.Cuts
6
CONTINUOUS
10
162.0202989999999943
20
-144.3803499999999929
11
162.0202989999999943
21
-144.6196500000000071
0
LINE
8
Edge.Cuts
6
CONTINUOUS
10
162.0202989999999943
20
-144.6196500000000071
11
161.9828640000000064
21
-144.8560039999999844
0
LINE
8
Edge.Cuts
6
CONTINUOUS
10
161.9828640000000064
20
-144.8560039999999844
11
161.9089160000000049
21
-145.0835919999999817
0
LINE
8
Edge.Cuts
6
CONTINUOUS
10
161.9089160000000049
20
-145.0835919999999817
11
161.8002759999999967
21
-145.2968099999999936
0
LINE
8
Edge.Cuts
6
CONTINUOUS
10
161.8002759999999967
20
-145.2968099999999936
11
161.6596189999999922
21
-145.4904080000000022
0
LINE
8
Edge.Cuts
6
CONTINUOUS
10
161.6596189999999922
20
-145.4904080000000022
11
161.4904080000000022
21
-145.6596189999999922
0
LINE
8
Edge.Cuts
6
CONTINUOUS
10
161.4904080000000022
20
-145.6596189999999922
11
161.2968099999999936
21
-145.8002759999999967
0
LINE
8
Edge.Cuts
6
CONTINUOUS
10
161.2968099999999936
20
-145.8002759999999967
11
161.0835919999999817
21
-145.9089160000000049
0
LINE
8
Edge.Cuts
6
CONTINUOUS
10
161.0835919999999817
20
-145.9089160000000049
11
160.8560039999999844
21
-145.9828640000000064
0
LINE
8
Edge.Cuts
6
CONTINUOUS
10
160.8560039999999844
20
-145.9828640000000064
11
160.6196499999999787
21
-146.0202989999999943
0
LINE
8
Edge.Cuts
6
CONTINUOUS
10
160.6196499999999787
20
-146.0202989999999943
11
160.3803499999999929
21
-146.0202989999999943
0
LINE
8
Edge.Cuts
6
CONTINUOUS
10
160.3803499999999929
20
-146.0202989999999943
11
160.1439959999999871
21
-145.9828640000000064
0
LINE
8
Edge.Cuts
6
CONTINUOUS
10
160.1439959999999871
20
-145.9828640000000064
11
159.9164079999999899
21
-145.9089160000000049
0
LINE
8
Edge.Cuts
6
CONTINUOUS
10
159.9164079999999899
20
-145.9089160000000049
11
159.7031900000000064
21
-145.8002759999999967
0
LINE
8
Edge.Cuts
6
CONTINUOUS
10
159.7031900000000064
20
-145.8002759999999967
11
159.5095919999999978
21
-145.6596189999999922
0
LINE
8
Edge.Cuts
6
CONTINUOUS
10
159.5095919999999978
20
-145.6596189999999922
11
159.3403809999999794
21
-145.4904080000000022
0
LINE
8
Edge.Cuts
6
CONTINUOUS
10
159.3403809999999794
20
-145.4904080000000022
11
159.1997240000000033
21
-145.2968099999999936
0
LINE
8
Edge.Cuts
6
CONTINUOUS
10
159.1997240000000033
20
-145.2968099999999936
11
159.0910839999999951
21
-145.0835919999999817
0
LINE
8
Edge.Cuts
6
CONTINUOUS
10
159.0910839999999951
20
-145.0835919999999817
11
159.0171359999999936
21
-144.8560039999999844
0
LINE
8
Edge.Cuts
6
CONTINUOUS
10
159.0171359999999936
20
-144.8560039999999844
11
158.9797010000000057
21
-144.6196500000000071
0
LINE
8
Edge.Cuts
6
CONTINUOUS
10
158.9797010000000057
20
-144.6196500000000071
11
158.9797010000000057
21
-144.3839150000000018
0
LINE
8
Edge.Cuts
6
CONTINUOUS
10
158.9797010000000057
20
-144.3839150000000018
11
158.9797010000000057
21
-144.3803499999999929
0
LINE
8
Edge.Cuts
6
CONTINUOUS
10
158.9797010000000057
20
-144.3803499999999929
11
159.0171359999999936
21
-144.1439959999999871
0
LINE
8
Edge.Cuts
6
CONTINUOUS
10
159.0171359999999936
20
-144.1439959999999871
11
159.0910839999999951
21
-143.9164079999999899
0
LINE
8
Edge.Cuts
6
CONTINUOUS
10
159.0910839999999951
20
-143.9164079999999899
11
159.1997240000000033
21
-143.7031900000000064
0
LINE
8
Edge.Cuts
6
CONTINUOUS
10
159.1997240000000033
20
-143.7031900000000064
11
159.3403809999999794
21
-143.5095919999999978
0
LINE
8
Edge.Cuts
6
CONTINUOUS
10
159.3403809999999794
20
-143.5095919999999978
11
159.5095919999999978
21
-143.3403809999999794
0
LINE
8
Edge.Cuts
6
CONTINUOUS
10
159.5095919999999978
20
-143.3403809999999794
11
159.7031900000000064
21
-143.1997240000000033
0
LINE
8
Edge.Cuts
6
CONTINUOUS
10
159.7031900000000064
20
-143.1997240000000033
11
159.9164079999999899
21
-143.0910839999999951
0
LINE
8
Edge.Cuts
6
CONTINUOUS
10
159.9164079999999899
20
-143.0910839999999951
11
160.1439959999999871
21
-143.0171359999999936
0
LINE
8
Edge.Cuts
6
CONTINUOUS
10
160.1439959999999871
20
-143.0171359999999936
11
160.3803499999999929
21
-142.9797010000000057
0
LINE
8
Edge.Cuts
6
CONTINUOUS
10
160.3803499999999929
20
-142.9797010000000057
11
160.6196499999999787
21
-142.9797010000000057
0
LINE
8
Edge.Cuts
6
CONTINUOUS
10
160.6196499999999787
20
-142.9797010000000057
11
160.8560039999999844
21
-143.0171359999999936
0
LINE
8
Edge.Cuts
6
CONTINUOUS
10
159.0250000000000057
20
-144.6160849999999982
11
159.0613189999999975
21
-144.8453969999999913
0
LINE
8
Edge.Cuts
6
CONTINUOUS
10
159.0613189999999975
20
-144.8453969999999913
11
159.1330639999999903
21
-145.0662030000000016
0
LINE
8
Edge.Cuts
6
CONTINUOUS
10
159.1330639999999903
20
-145.0662030000000016
11
159.2384669999999858
21
-145.273067999999995
0
LINE
8
Edge.Cuts
6
CONTINUOUS
10
159.2384669999999858
20
-145.273067999999995
11
159.3749329999999986
21
-145.460897999999986
0
LINE
8
Edge.Cuts
6
CONTINUOUS
10
159.3749329999999986
20
-145.460897999999986
11
159.5391019999999855
21
-145.6250670000000014
0
LINE
8
Edge.Cuts
6
CONTINUOUS
10
159.5391019999999855
20
-145.6250670000000014
11
159.726932000000005
21
-145.7615329999999858
0
LINE
8
Edge.Cuts
6
CONTINUOUS
10
159.726932000000005
20
-145.7615329999999858
11
159.9337969999999984
21
-145.8669359999999813
0
LINE
8
Edge.Cuts
6
CONTINUOUS
10
159.9337969999999984
20
-145.8669359999999813
11
160.1546029999999803
21
-145.9386810000000025
0
LINE
8
Edge.Cuts
6
CONTINUOUS
10
160.1546029999999803
20
-145.9386810000000025
11
160.3839150000000018
21
-145.9749999999999943
0
LINE
8
Edge.Cuts
6
CONTINUOUS
10
160.3839150000000018
20
-145.9749999999999943
11
160.6160849999999982
21
-145.9749999999999943
0
LINE
8
Edge.Cuts
6
CONTINUOUS
10
160.6160849999999982
20
-145.9749999999999943
11
160.8453969999999913
21
-145.9386810000000025
0
LINE
8
Edge.Cuts
6
CONTINUOUS
10
160.8453969999999913
20
-145.9386810000000025
11
161.0662030000000016
21
-145.8669359999999813
0
LINE
8
Edge.Cuts
6
CONTINUOUS
10
161.0662030000000016
20
-145.8669359999999813
11
161.273067999999995
21
-145.7615329999999858
0
LINE
8
Edge.Cuts
6
CONTINUOUS
10
161.273067999999995
20
-145.7615329999999858
11
161.460897999999986
21
-145.6250670000000014
0
LINE
8
Edge.Cuts
6
CONTINUOUS
10
161.460897999999986
20
-145.6250670000000014
11
161.6250670000000014
21
-145.460897999999986
0
LINE
8
Edge.Cuts
6
CONTINUOUS
10
161.6250670000000014
20
-145.460897999999986
11
161.7615329999999858
21
-145.273067999999995
0
LINE
8
Edge.Cuts
6
CONTINUOUS
10
161.7615329999999858
20
-145.273067999999995
11
161.8669359999999813
21
-145.0662030000000016
0
LINE
8
Edge.Cuts
6
CONTINUOUS
10
161.8669359999999813
20
-145.0662030000000016
11
161.9386810000000025
21
-144.8453969999999913
0
LINE
8
Edge.Cuts
6
CONTINUOUS
10
161.9386810000000025
20
-144.8453969999999913
11
161.9749999999999943
21
-144.6160849999999982
0
LINE
8
Edge.Cuts
6
CONTINUOUS
10
161.9749999999999943
20
-144.6160849999999982
11
161.9749999999999943
21
-144.3839150000000018
0
LINE
8
Edge.Cuts
6
CONTINUOUS
10
161.9749999999999943
20
-144.3839150000000018
11
161.9386810000000025
21
-144.1546029999999803
0
LINE
8
Edge.Cuts
6
CONTINUOUS
10
161.9386810000000025
20
-144.1546029999999803
11
161.8669359999999813
21
-143.9337969999999984
0
LINE
8
Edge.Cuts
6
CONTINUOUS
10
161.8669359999999813
20
-143.9337969999999984
11
161.7615329999999858
21
-143.726932000000005
0
LINE
8
Edge.Cuts
6
CONTINUOUS
10
161.7615329999999858
20
-143.726932000000005
11
161.6250670000000014
21
-143.5391019999999855
0
LINE
8
Edge.Cuts
6
CONTINUOUS
10
161.6250670000000014
20
-143.5391019999999855
11
161.460897999999986
21
-143.3749329999999986
0
LINE
8
Edge.Cuts
6
CONTINUOUS
10
161.460897999999986
20
-143.3749329999999986
11
161.273067999999995
21
-143.2384669999999858
0
LINE
8
Edge.Cuts
6
CONTINUOUS
10
161.273067999999995
20
-143.2384669999999858
11
161.0662030000000016
21
-143.1330639999999903
0
LINE
8
Edge.Cuts
6
CONTINUOUS
10
161.0662030000000016
20
-143.1330639999999903
11
160.8453969999999913
21
-143.0613189999999975
0
LINE
8
Edge.Cuts
6
CONTINUOUS
10
160.8453969999999913
20
-143.0613189999999975
11
160.6160849999999982
21
-143.0250000000000057
0
LINE
8
Edge.Cuts
6
CONTINUOUS
10
160.6160849999999982
20
-143.0250000000000057
11
160.3839150000000018
21
-143.0250000000000057
0
LINE
8
Edge.Cuts
6
CONTINUOUS
10
160.3839150000000018
20
-143.0250000000000057
11
160.1546029999999803
21
-143.0613189999999975
0
LINE
8
Edge.Cuts
6
CONTINUOUS
10
160.1546029999999803
20
-143.0613189999999975
11
159.9337969999999984
21
-143.1330639999999903
0
LINE
8
Edge.Cuts
6
CONTINUOUS
10
159.9337969999999984
20
-143.1330639999999903
11
159.726932000000005
21
-143.2384669999999858
0
LINE
8
Edge.Cuts
6
CONTINUOUS
10
159.726932000000005
20
-143.2384669999999858
11
159.5391019999999855
21
-143.3749329999999986
0
LINE
8
Edge.Cuts
6
CONTINUOUS
10
159.5391019999999855
20
-143.3749329999999986
11
159.3749329999999986
21
-143.5391019999999855
0
LINE
8
Edge.Cuts
6
CONTINUOUS
10
159.3749329999999986
20
-143.5391019999999855
11
159.2384669999999858
21
-143.726932000000005
0
LINE
8
Edge.Cuts
6
CONTINUOUS
10
159.2384669999999858
20
-143.726932000000005
11
159.1330639999999903
21
-143.9337969999999984
0
LINE
8
Edge.Cuts
6
CONTINUOUS
10
159.1330639999999903
20
-143.9337969999999984
11
159.0613189999999975
21
-144.1546029999999803
0
LINE
8
Edge.Cuts
6
CONTINUOUS
10
159.0613189999999975
20
-144.1546029999999803
11
159.0250000000000057
21
-144.3839150000000018
0
LINE
8
Edge.Cuts
6
CONTINUOUS
10
159.0250000000000057
20
-144.3839150000000018
11
159.0250000000000057
21
-144.6160849999999982
0
LINE
8
Edge.Cuts
6
CONTINUOUS
10
74.8560069999999911
20
-138.0171359999999936
11
75.0835950000000025
21
-138.0910839999999951
0
LINE
8
Edge.Cuts
6
CONTINUOUS
10
75.0835950000000025
20
-138.0910839999999951
11
75.2968130000000002
21
-138.1997240000000033
0
LINE
8
Edge.Cuts
6
CONTINUOUS
10
75.2968130000000002
20
-138.1997240000000033
11
75.4904109999999946
21
-138.3403810000000078
0
LINE
8
Edge.Cuts
6
CONTINUOUS
10
75.4904109999999946
20
-138.3403810000000078
11
75.6596219999999988
21
-138.5095919999999978
0
LINE
8
Edge.Cuts
6
CONTINUOUS
10
75.6596219999999988
20
-138.5095919999999978
11
75.8002790000000033
21
-138.7031900000000064
0
LINE
8
Edge.Cuts
6
CONTINUOUS
10
75.8002790000000033
20
-138.7031900000000064
11
75.9089189999999974
21
-138.9164079999999899
0
LINE
8
Edge.Cuts
6
CONTINUOUS
10
75.9089189999999974
20
-138.9164079999999899
11
75.9828669999999988
21
-139.1439959999999871
0
LINE
8
Edge.Cuts
6
CONTINUOUS
10
75.9828669999999988
20
-139.1439959999999871
11
76.0203020000000009
21
-139.3803499999999929
0
LINE
8
Edge.Cuts
6
CONTINUOUS
10
76.0203020000000009
20
-139.3803499999999929
11
76.0203020000000009
21
-139.6196500000000071
0
LINE
8
Edge.Cuts
6
CONTINUOUS
10
76.0203020000000009
20
-139.6196500000000071
11
75.9828669999999988
21
-139.8560039999999844
0
LINE
8
Edge.Cuts
6
CONTINUOUS
10
75.9828669999999988
20
-139.8560039999999844
11
75.9089189999999974
21
-140.0835919999999817
0
LINE
8
Edge.Cuts
6
CONTINUOUS
10
75.9089189999999974
20
-140.0835919999999817
11
75.8002790000000033
21
-140.2968099999999936
0
LINE
8
Edge.Cuts
6
CONTINUOUS
10
75.8002790000000033
20
-140.2968099999999936
11
75.6596219999999988
21
-140.4904080000000022
0
LINE
8
Edge.Cuts
6
CONTINUOUS
10
75.6596219999999988
20
-140.4904080000000022
11
75.4904109999999946
21
-140.6596189999999922
0
LINE
8
Edge.Cuts
6
CONTINUOUS
10
75.4904109999999946
20
-140.6596189999999922
11
75.2968130000000002
21
-140.8002759999999967
0
LINE
8
Edge.Cuts
6
CONTINUOUS
10
75.2968130000000002
20
-140.8002759999999967
11
75.0835950000000025
21
-140.9089160000000049
0
LINE
8
Edge.Cuts
6
CONTINUOUS
10
75.0835950000000025
20
-140.9089160000000049
11
74.8560069999999911
21
-140.9828640000000064
0
LINE
8
Edge.Cuts
6
CONTINUOUS
10
74.8560069999999911
20
-140.9828640000000064
11
74.6196529999999996
21
-141.0202989999999943
0
LINE
8
Edge.Cuts
6
CONTINUOUS
10
74.6196529999999996
20
-141.0202989999999943
11
74.3803529999999995
21
-141.0202989999999943
0
LINE
8
Edge.Cuts
6
CONTINUOUS
10
74.3803529999999995
20
-141.0202989999999943
11
74.1439989999999938
21
-140.9828640000000064
0
LINE
8
Edge.Cuts
6
CONTINUOUS
10
74.1439989999999938
20
-140.9828640000000064
11
73.9164109999999965
21
-140.9089160000000049
0
LINE
8
Edge.Cuts
6
CONTINUOUS
10
73.9164109999999965
20
-140.9089160000000049
11
73.7031929999999988
21
-140.8002759999999967
0
LINE
8
Edge.Cuts
6
CONTINUOUS
10
73.7031929999999988
20
-140.8002759999999967
11
73.5095949999999903
21
-140.6596189999999922
0
LINE
8
Edge.Cuts
6
CONTINUOUS
10
73.5095949999999903
20
-140.6596189999999922
11
73.3403840000000002
21
-140.4904080000000022
0
LINE
8
Edge.Cuts
6
CONTINUOUS
10
73.3403840000000002
20
-140.4904080000000022
11
73.1997269999999958
21
-140.2968099999999936
0
LINE
8
Edge.Cuts
6
CONTINUOUS
10
73.1997269999999958
20
-140.2968099999999936
11
73.0910870000000017
21
-140.0835919999999817
0
LINE
8
Edge.Cuts
6
CONTINUOUS
10
73.0910870000000017
20
-140.0835919999999817
11
73.0171390000000002
21
-139.8560039999999844
0
LINE
8
Edge.Cuts
6
CONTINUOUS
10
73.0171390000000002
20
-139.8560039999999844
11
72.9797039999999981
21
-139.6196500000000071
0
LINE
8
Edge.Cuts
6
CONTINUOUS
10
72.9797039999999981
20
-139.6196500000000071
11
72.9797039999999981
21
-139.3839150000000018
0
LINE
8
Edge.Cuts
6
CONTINUOUS
10
72.9797039999999981
20
-139.3839150000000018
11
72.9797039999999981
21
-139.3803499999999929
0
LINE
8
Edge.Cuts
6
CONTINUOUS
10
72.9797039999999981
20
-139.3803499999999929
11
73.0171390000000002
21
-139.1439959999999871
0
LINE
8
Edge.Cuts
6
CONTINUOUS
10
73.0171390000000002
20
-139.1439959999999871
11
73.0910870000000017
21
-138.9164079999999899
0
LINE
8
Edge.Cuts
6
CONTINUOUS
10
73.0910870000000017
20
-138.9164079999999899
11
73.1997269999999958
21
-138.7031900000000064
0
LINE
8
Edge.Cuts
6
CONTINUOUS
10
73.1997269999999958
20
-138.7031900000000064
11
73.3403840000000002
21
-138.5095919999999978
0
LINE
8
Edge.Cuts
6
CONTINUOUS
10
73.3403840000000002
20
-138.5095919999999978
11
73.5095949999999903
21
-138.3403810000000078
0
LINE
8
Edge.Cuts
6
CONTINUOUS
10
73.5095949999999903
20
-138.3403810000000078
11
73.7031929999999988
21
-138.1997240000000033
0
LINE
8
Edge.Cuts
6
CONTINUOUS
10
73.7031929999999988
20
-138.1997240000000033
11
73.9164109999999965
21
-138.0910839999999951
0
LINE
8
Edge.Cuts
6
CONTINUOUS
10
73.9164109999999965
20
-138.0910839999999951
11
74.1439989999999938
21
-138.0171359999999936
0
LINE
8
Edge.Cuts
6
CONTINUOUS
10
74.1439989999999938
20
-138.0171359999999936
11
74.3803529999999995
21
-137.9797010000000057
0
LINE
8
Edge.Cuts
6
CONTINUOUS
10
74.3803529999999995
20
-137.9797010000000057
11
74.6196529999999996
21
-137.9797010000000057
0
LINE
8
Edge.Cuts
6
CONTINUOUS
10
74.6196529999999996
20
-137.9797010000000057
11
74.8560069999999911
21
-138.0171359999999936
0
LINE
8
Edge.Cuts
6
CONTINUOUS
10
73.0250029999999981
20
-139.6160849999999982
11
73.0613219999999899
21
-139.8453969999999913
0
LINE
8
Edge.Cuts
6
CONTINUOUS
10
73.0613219999999899
20
-139.8453969999999913
11
73.1330669999999969
21
-140.0662030000000016
0
LINE
8
Edge.Cuts
6
CONTINUOUS
10
73.1330669999999969
20
-140.0662030000000016
11
73.2384699999999924
21
-140.273067999999995
0
LINE
8
Edge.Cuts
6
CONTINUOUS
10
73.2384699999999924
20
-140.273067999999995
11
73.3749359999999911
21
-140.460897999999986
0
LINE
8
Edge.Cuts
6
CONTINUOUS
10
73.3749359999999911
20
-140.460897999999986
11
73.5391049999999922
21
-140.6250670000000014
0
LINE
8
Edge.Cuts
6
CONTINUOUS
10
73.5391049999999922
20
-140.6250670000000014
11
73.7269349999999974
21
-140.7615329999999858
0
LINE
8
Edge.Cuts
6
CONTINUOUS
10
73.7269349999999974
20
-140.7615329999999858
11
73.9337999999999909
21
-140.8669359999999813
0
LINE
8
Edge.Cuts
6
CONTINUOUS
10
73.9337999999999909
20
-140.8669359999999813
11
74.1546060000000011
21
-140.9386810000000025
0
LINE
8
Edge.Cuts
6
CONTINUOUS
10
74.1546060000000011
20
-140.9386810000000025
11
74.3839179999999942
21
-140.9749999999999943
0
LINE
8
Edge.Cuts
6
CONTINUOUS
10
74.3839179999999942
20
-140.9749999999999943
11
74.6160879999999906
21
-140.9749999999999943
0
LINE
8
Edge.Cuts
6
CONTINUOUS
10
74.6160879999999906
20
-140.9749999999999943
11
74.8453999999999979
21
-140.9386810000000025
0
LINE
8
Edge.Cuts
6
CONTINUOUS
10
74.8453999999999979
20
-140.9386810000000025
11
75.066205999999994
21
-140.8669359999999813
0
LINE
8
Edge.Cuts
6
CONTINUOUS
10
75.066205999999994
20
-140.8669359999999813
11
75.2730710000000016
21
-140.7615329999999858
0
LINE
8
Edge.Cuts
6
CONTINUOUS
10
75.2730710000000016
20
-140.7615329999999858
11
75.4609009999999927
21
-140.6250670000000014
0
LINE
8
Edge.Cuts
6
CONTINUOUS
10
75.4609009999999927
20
-140.6250670000000014
11
75.6250699999999938
21
-140.460897999999986
0
LINE
8
Edge.Cuts
6
CONTINUOUS
10
75.6250699999999938
20
-140.460897999999986
11
75.7615359999999924
21
-140.273067999999995
0
LINE
8
Edge.Cuts
6
CONTINUOUS
10
75.7615359999999924
20
-140.273067999999995
11
75.8669390000000021
21
-140.0662030000000016
0
LINE
8
Edge.Cuts
6
CONTINUOUS
10
75.8669390000000021
20
-140.0662030000000016
11
75.938683999999995
21
-139.8453969999999913
0
LINE
8
Edge.Cuts
6
CONTINUOUS
10
75.938683999999995
20
-139.8453969999999913
11
75.975003000000001
21
-139.6160849999999982
0
LINE
8
Edge.Cuts
6
CONTINUOUS
10
75.975003000000001
20
-139.6160849999999982
11
75.975003000000001
21
-139.3839150000000018
0
LINE
8
Edge.Cuts
6
CONTINUOUS
10
75.975003000000001
20
-139.3839150000000018
11
75.938683999999995
21
-139.1546029999999803
0
LINE
8
Edge.Cuts
6
CONTINUOUS
10
75.938683999999995
20
-139.1546029999999803
11
75.8669390000000021
21
-138.9337969999999984
0
LINE
8
Edge.Cuts
6
CONTINUOUS
10
75.8669390000000021
20
-138.9337969999999984
11
75.7615359999999924
21
-138.726932000000005
0
LINE
8
Edge.Cuts
6
CONTINUOUS
10
75.7615359999999924
20
-138.726932000000005
11
75.6250699999999938
21
-138.5391019999999855
0
LINE
8
Edge.Cuts
6
CONTINUOUS
10
75.6250699999999938
20
-138.5391019999999855
11
75.4609009999999927
21
-138.3749329999999986
0
LINE
8
Edge.Cuts
6
CONTINUOUS
10
75.4609009999999927
20
-138.3749329999999986
11
75.2730710000000016
21
-138.2384669999999858
0
LINE
8
Edge.Cuts
6
CONTINUOUS
10
75.2730710000000016
20
-138.2384669999999858
11
75.066205999999994
21
-138.1330639999999903
0
LINE
8
Edge.Cuts
6
CONTINUOUS
10
75.066205999999994
20
-138.1330639999999903
11
74.8453999999999979
21
-138.0613189999999975
0
LINE
8
Edge.Cuts
6
CONTINUOUS
10
74.8453999999999979
20
-138.0613189999999975
11
74.6160879999999906
21
-138.0250000000000057
0
LINE
8
Edge.Cuts
6
CONTINUOUS
10
74.6160879999999906
20
-138.0250000000000057
11
74.3839179999999942
21
-138.0250000000000057
0
LINE
8
Edge.Cuts
6
CONTINUOUS
10
74.3839179999999942
20
-138.0250000000000057
11
74.1546060000000011
21
-138.0613189999999975
0
LINE
8
Edge.Cuts
6
CONTINUOUS
10
74.1546060000000011
20
-138.0613189999999975
11
73.9337999999999909
21
-138.1330639999999903
0
LINE
8
Edge.Cuts
6
CONTINUOUS
10
73.9337999999999909
20
-138.1330639999999903
11
73.7269349999999974
21
-138.2384669999999858
0
LINE
8
Edge.Cuts
6
CONTINUOUS
10
73.7269349999999974
20
-138.2384669999999858
11
73.5391049999999922
21
-138.3749329999999986
0
LINE
8
Edge.Cuts
6
CONTINUOUS
10
73.5391049999999922
20
-138.3749329999999986
11
73.3749359999999911
21
-138.5391019999999855
0
LINE
8
Edge.Cuts
6
CONTINUOUS
10
73.3749359999999911
20
-138.5391019999999855
11
73.2384699999999924
21
-138.726932000000005
0
LINE
8
Edge.Cuts
6
CONTINUOUS
10
73.2384699999999924
20
-138.726932000000005
11
73.1330669999999969
21
-138.9337969999999984
0
LINE
8
Edge.Cuts
6
CONTINUOUS
10
73.1330669999999969
20
-138.9337969999999984
11
73.0613219999999899
21
-139.1546029999999803
0
LINE
8
Edge.Cuts
6
CONTINUOUS
10
73.0613219999999899
20
-139.1546029999999803
11
73.0250029999999981
21
-139.3839150000000018
0
LINE
8
Edge.Cuts
6
CONTINUOUS
10
73.0250029999999981
20
-139.3839150000000018
11
73.0250029999999981
21
-139.6160849999999982
0
LINE
8
Edge.Cuts
6
CONTINUOUS
10
132.3560039999999844
20
-121.5171359999999936
11
132.5835919999999817
21
-121.5910839999999951
0
LINE
8
Edge.Cuts
6
CONTINUOUS
10
132.5835919999999817
20
-121.5910839999999951
11
132.7968099999999936
21
-121.6997239999999891
0
LINE
8
Edge.Cuts
6
CONTINUOUS
10
132.7968099999999936
20
-121.6997239999999891
11
132.9904080000000022
21
-121.8403809999999936
0
LINE
8
Edge.Cuts
6
CONTINUOUS
10
132.9904080000000022
20
-121.8403809999999936
11
133.1596189999999922
21
-122.0095919999999978
0
LINE
8
Edge.Cuts
6
CONTINUOUS
10
133.1596189999999922
20
-122.0095919999999978
11
133.3002759999999967
21
-122.2031899999999922
0
LINE
8
Edge.Cuts
6
CONTINUOUS
10
133.3002759999999967
20
-122.2031899999999922
11
133.4089160000000049
21
-122.4164079999999899
0
LINE
8
Edge.Cuts
6
CONTINUOUS
10
133.4089160000000049
20
-122.4164079999999899
11
133.4828640000000064
21
-122.6439960000000013
0
LINE
8
Edge.Cuts
6
CONTINUOUS
10
133.4828640000000064
20
-122.6439960000000013
11
133.5202989999999943
21
-122.8803499999999929
0
LINE
8
Edge.Cuts
6
CONTINUOUS
10
133.5202989999999943
20
-122.8803499999999929
11
133.5202989999999943
21
-123.1196499999999929
0
LINE
8
Edge.Cuts
6
CONTINUOUS
10
133.5202989999999943
20
-123.1196499999999929
11
133.4828640000000064
21
-123.3560039999999987
0
LINE
8
Edge.Cuts
6
CONTINUOUS
10
133.4828640000000064
20
-123.3560039999999987
11
133.4089160000000049
21
-123.5835919999999959
0
LINE
8
Edge.Cuts
6
CONTINUOUS
10
133.4089160000000049
20
-123.5835919999999959
11
133.3002759999999967
21
-123.7968099999999936
0
LINE
8
Edge.Cuts
6
CONTINUOUS
10
133.3002759999999967
20
-123.7968099999999936
11
133.1596189999999922
21
-123.990407999999988
0
LINE
8
Edge.Cuts
6
CONTINUOUS
10
133.1596189999999922
20
-123.990407999999988
11
132.9904080000000022
21
-124.1596189999999922
0
LINE
8
Edge.Cuts
6
CONTINUOUS
10
132.9904080000000022
20
-124.1596189999999922
11
132.7968099999999936
21
-124.3002759999999967
0
LINE
8
Edge.Cuts
6
CONTINUOUS
10
132.7968099999999936
20
-124.3002759999999967
11
132.5835919999999817
21
-124.4089159999999907
0
LINE
8
Edge.Cuts
6
CONTINUOUS
10
132.5835919999999817
20
-124.4089159999999907
11
132.3560039999999844
21
-124.4828639999999922
0
LINE
8
Edge.Cuts
6
CONTINUOUS
10
132.3560039999999844
20
-124.4828639999999922
11
132.1196500000000071
21
-124.5202989999999943
0
LINE
8
Edge.Cuts
6
CONTINUOUS
10
132.1196500000000071
20
-124.5202989999999943
11
131.8803499999999929
21
-124.5202989999999943
0
LINE
8
Edge.Cuts
6
CONTINUOUS
10
131.8803499999999929
20
-124.5202989999999943
11
131.6439959999999871
21
-124.4828639999999922
0
LINE
8
Edge.Cuts
6
CONTINUOUS
10
131.6439959999999871
20
-124.4828639999999922
11
131.4164079999999899
21
-124.4089159999999907
0
LINE
8
Edge.Cuts
6
CONTINUOUS
10
131.4164079999999899
20
-124.4089159999999907
11
131.2031900000000064
21
-124.3002759999999967
0
LINE
8
Edge.Cuts
6
CONTINUOUS
10
131.2031900000000064
20
-124.3002759999999967
11
131.0095919999999978
21
-124.1596189999999922
0
LINE
8
Edge.Cuts
6
CONTINUOUS
10
131.0095919999999978
20
-124.1596189999999922
11
130.8403810000000078
21
-123.990407999999988
0
LINE
8
Edge.Cuts
6
CONTINUOUS
10
130.8403810000000078
20
-123.990407999999988
11
130.6997240000000033
21
-123.7968099999999936
0
LINE
8
Edge.Cuts
6
CONTINUOUS
10
130.6997240000000033
20
-123.7968099999999936
11
130.5910839999999951
21
-123.5835919999999959
0
LINE
8
Edge.Cuts
6
CONTINUOUS
10
130.5910839999999951
20
-123.5835919999999959
11
130.5171359999999936
21
-123.3560039999999987
0
LINE
8
Edge.Cuts
6
CONTINUOUS
10
130.5171359999999936
20
-123.3560039999999987
11
130.4797010000000057
21
-123.1196499999999929
0
LINE
8
Edge.Cuts
6
CONTINUOUS
10
130.4797010000000057
20
-123.1196499999999929
11
130.4797010000000057
21
-122.8839149999999876
0
LINE
8
Edge.Cuts
6
CONTINUOUS
10
130.4797010000000057
20
-122.8839149999999876
11
130.4797010000000057
21
-122.8803499999999929
0
LINE
8
Edge.Cuts
6
CONTINUOUS
10
130.4797010000000057
20
-122.8803499999999929
11
130.5171359999999936
21
-122.6439960000000013
0
LINE
8
Edge.Cuts
6
CONTINUOUS
10
130.5171359999999936
20
-122.6439960000000013
11
130.5910839999999951
21
-122.4164079999999899
0
LINE
8
Edge.Cuts
6
CONTINUOUS
10
130.5910839999999951
20
-122.4164079999999899
11
130.6997240000000033
21
-122.2031899999999922
0
LINE
8
Edge.Cuts
6
CONTINUOUS
10
130.6997240000000033
20
-122.2031899999999922
11
130.8403810000000078
21
-122.0095919999999978
0
LINE
8
Edge.Cuts
6
CONTINUOUS
10
130.8403810000000078
20
-122.0095919999999978
11
131.0095919999999978
21
-121.8403809999999936
0
LINE
8
Edge.Cuts
6
CONTINUOUS
10
131.0095919999999978
20
-121.8403809999999936
11
131.2031900000000064
21
-121.6997239999999891
0
LINE
8
Edge.Cuts
6
CONTINUOUS
10
131.2031900000000064
20
-121.6997239999999891
11
131.4164079999999899
21
-121.5910839999999951
0
LINE
8
Edge.Cuts
6
CONTINUOUS
10
131.4164079999999899
20
-121.5910839999999951
11
131.6439959999999871
21
-121.5171359999999936
0
LINE
8
Edge.Cuts
6
CONTINUOUS
10
131.6439959999999871
20
-121.5171359999999936
11
131.8803499999999929
21
-121.4797009999999915
0
LINE
8
Edge.Cuts
6
CONTINUOUS
10
131.8803499999999929
20
-121.4797009999999915
11
132.1196500000000071
21
-121.4797009999999915
0
LINE
8
Edge.Cuts
6
CONTINUOUS
10
132.1196500000000071
20
-121.4797009999999915
11
132.3560039999999844
21
-121.5171359999999936
0
LINE
8
Edge.Cuts
6
CONTINUOUS
10
130.5250000000000057
20
-123.1160849999999982
11
130.5613189999999975
21
-123.3453969999999913
0
LINE
8
Edge.Cuts
6
CONTINUOUS
10
130.5613189999999975
20
-123.3453969999999913
11
130.6330639999999903
21
-123.5662029999999874
0
LINE
8
Edge.Cuts
6
CONTINUOUS
10
130.6330639999999903
20
-123.5662029999999874
11
130.7384669999999858
21
-123.773067999999995
0
LINE
8
Edge.Cuts
6
CONTINUOUS
10
130.7384669999999858
20
-123.773067999999995
11
130.8749329999999986
21
-123.9608980000000003
0
LINE
8
Edge.Cuts
6
CONTINUOUS
10
130.8749329999999986
20
-123.9608980000000003
11
131.0391019999999855
21
-124.1250670000000014
0
LINE
8
Edge.Cuts
6
CONTINUOUS
10
131.0391019999999855
20
-124.1250670000000014
11
131.226932000000005
21
-124.261533
0
LINE
8
Edge.Cuts
6
CONTINUOUS
10
131.226932000000005
20
-124.261533
11
131.4337969999999984
21
-124.3669359999999955
0
LINE
8
Edge.Cuts
6
CONTINUOUS
10
131.4337969999999984
20
-124.3669359999999955
11
131.6546029999999803
21
-124.4386809999999883
0
LINE
8
Edge.Cuts
6
CONTINUOUS
10
131.6546029999999803
20
-124.4386809999999883
11
131.8839150000000018
21
-124.4749999999999943
0
LINE
8
Edge.Cuts
6
CONTINUOUS
10
131.8839150000000018
20
-124.4749999999999943
11
132.1160849999999982
21
-124.4749999999999943
0
LINE
8
Edge.Cuts
6
CONTINUOUS
10
132.1160849999999982
20
-124.4749999999999943
11
132.3453969999999913
21
-124.4386809999999883
0
LINE
8
Edge.Cuts
6
CONTINUOUS
10
132.3453969999999913
20
-124.4386809999999883
11
132.5662030000000016
21
-124.3669359999999955
0
LINE
8
Edge.Cuts
6
CONTINUOUS
10
132.5662030000000016
20
-124.3669359999999955
11
132.773067999999995
21
-124.261533
0
LINE
8
Edge.Cuts
6
CONTINUOUS
10
132.773067999999995
20
-124.261533
11
132.960897999999986
21
-124.1250670000000014
0
LINE
8
Edge.Cuts
6
CONTINUOUS
10
132.960897999999986
20
-124.1250670000000014
11
133.1250670000000014
21
-123.9608980000000003
0
LINE
8
Edge.Cuts
6
CONTINUOUS
10
133.1250670000000014
20
-123.9608980000000003
11
133.2615329999999858
21
-123.773067999999995
0
LINE
8
Edge.Cuts
6
CONTINUOUS
10
133.2615329999999858
20
-123.773067999999995
11
133.3669359999999813
21
-123.5662029999999874
0
LINE
8
Edge.Cuts
6
CONTINUOUS
10
133.3669359999999813
20
-123.5662029999999874
11
133.4386810000000025
21
-123.3453969999999913
0
LINE
8
Edge.Cuts
6
CONTINUOUS
10
133.4386810000000025
20
-123.3453969999999913
11
133.4749999999999943
21
-123.1160849999999982
0
LINE
8
Edge.Cuts
6
CONTINUOUS
10
133.4749999999999943
20
-123.1160849999999982
11
133.4749999999999943
21
-122.8839149999999876
0
LINE
8
Edge.Cuts
6
CONTINUOUS
10
133.4749999999999943
20
-122.8839149999999876
11
133.4386810000000025
21
-122.6546029999999945
0
LINE
8
Edge.Cuts
6
CONTINUOUS
10
133.4386810000000025
20
-122.6546029999999945
11
133.3669359999999813
21
-122.4337969999999984
0
LINE
8
Edge.Cuts
6
CONTINUOUS
10
133.3669359999999813
20
-122.4337969999999984
11
133.2615329999999858
21
-122.2269319999999908
0
LINE
8
Edge.Cuts
6
CONTINUOUS
10
133.2615329999999858
20
-122.2269319999999908
11
133.1250670000000014
21
-122.0391019999999997
0
LINE
8
Edge.Cuts
6
CONTINUOUS
10
133.1250670000000014
20
-122.0391019999999997
11
132.960897999999986
21
-121.8749329999999986
0
LINE
8
Edge.Cuts
6
CONTINUOUS
10
132.960897999999986
20
-121.8749329999999986
11
132.773067999999995
21
-121.738467
0
LINE
8
Edge.Cuts
6
CONTINUOUS
10
132.773067999999995
20
-121.738467
11
132.5662030000000016
21
-121.6330639999999903
0
LINE
8
Edge.Cuts
6
CONTINUOUS
10
132.5662030000000016
20
-121.6330639999999903
11
132.3453969999999913
21
-121.5613189999999975
0
LINE
8
Edge.Cuts
6
CONTINUOUS
10
132.3453969999999913
20
-121.5613189999999975
11
132.1160849999999982
21
-121.5249999999999915
0
LINE
8
Edge.Cuts
6
CONTINUOUS
10
132.1160849999999982
20
-121.5249999999999915
11
131.8839150000000018
21
-121.5249999999999915
0
LINE
8
Edge.Cuts
6
CONTINUOUS
10
131.8839150000000018
20
-121.5249999999999915
11
131.6546029999999803
21
-121.5613189999999975
0
LINE
8
Edge.Cuts
6
CONTINUOUS
10
131.6546029999999803
20
-121.5613189999999975
11
131.4337969999999984
21
-121.6330639999999903
0
LINE
8
Edge.Cuts
6
CONTINUOUS
10
131.4337969999999984
20
-121.6330639999999903
11
131.226932000000005
21
-121.738467
0
LINE
8
Edge.Cuts
6
CONTINUOUS
10
131.226932000000005
20
-121.738467
11
131.0391019999999855
21
-121.8749329999999986
0
LINE
8
Edge.Cuts
6
CONTINUOUS
10
131.0391019999999855
20
-121.8749329999999986
11
130.8749329999999986
21
-122.0391019999999997
0
LINE
8
Edge.Cuts
6
CONTINUOUS
10
130.8749329999999986
20
-122.0391019999999997
11
130.7384669999999858
21
-122.2269319999999908
0
LINE
8
Edge.Cuts
6
CONTINUOUS
10
130.7384669999999858
20
-122.2269319999999908
11
130.6330639999999903
21
-122.4337969999999984
0
LINE
8
Edge.Cuts
6
CONTINUOUS
10
130.6330639999999903
20
-122.4337969999999984
11
130.5613189999999975
21
-122.6546029999999945
0
LINE
8
Edge.Cuts
6
CONTINUOUS
10
130.5613189999999975
20
-122.6546029999999945
11
130.5250000000000057
21
-122.8839149999999876
0
LINE
8
Edge.Cuts
6
CONTINUOUS
10
130.5250000000000057
20
-122.8839149999999876
11
130.5250000000000057
21
-123.1160849999999982
0
LINE
8
Edge.Cuts
6
CONTINUOUS
10
85.8560039999999987
20
-111.0171359999999936
11
86.0835919999999959
21
-111.0910839999999951
0
LINE
8
Edge.Cuts
6
CONTINUOUS
10
86.0835919999999959
20
-111.0910839999999951
11
86.2968099999999936
21
-111.1997239999999891
0
LINE
8
Edge.Cuts
6
CONTINUOUS
10
86.2968099999999936
20
-111.1997239999999891
11
86.4904080000000022
21
-111.3403809999999936
0
LINE
8
Edge.Cuts
6
CONTINUOUS
10
86.4904080000000022
20
-111.3403809999999936
11
86.6596189999999922
21
-111.5095919999999978
0
LINE
8
Edge.Cuts
6
CONTINUOUS
10
86.6596189999999922
20
-111.5095919999999978
11
86.8002759999999967
21
-111.7031899999999922
0
LINE
8
Edge.Cuts
6
CONTINUOUS
10
86.8002759999999967
20
-111.7031899999999922
11
86.9089159999999907
21
-111.9164079999999899
0
LINE
8
Edge.Cuts
6
CONTINUOUS
10
86.9089159999999907
20
-111.9164079999999899
11
86.9828639999999922
21
-112.1439960000000013
0
LINE
8
Edge.Cuts
6
CONTINUOUS
10
86.9828639999999922
20
-112.1439960000000013
11
87.0202989999999943
21
-112.3803499999999929
0
LINE
8
Edge.Cuts
6
CONTINUOUS
10
87.0202989999999943
20
-112.3803499999999929
11
87.0202989999999943
21
-112.6196499999999929
0
LINE
8
Edge.Cuts
6
CONTINUOUS
10
87.0202989999999943
20
-112.6196499999999929
11
86.9828639999999922
21
-112.8560039999999987
0
LINE
8
Edge.Cuts
6
CONTINUOUS
10
86.9828639999999922
20
-112.8560039999999987
11
86.9089159999999907
21
-113.0835919999999959
0
LINE
8
Edge.Cuts
6
CONTINUOUS
10
86.9089159999999907
20
-113.0835919999999959
11
86.8002759999999967
21
-113.2968099999999936
0
LINE
8
Edge.Cuts
6
CONTINUOUS
10
86.8002759999999967
20
-113.2968099999999936
11
86.6596189999999922
21
-113.490407999999988
0
LINE
8
Edge.Cuts
6
CONTINUOUS
10
86.6596189999999922
20
-113.490407999999988
11
86.4904080000000022
21
-113.6596189999999922
0
LINE
8
Edge.Cuts
6
CONTINUOUS
10
86.4904080000000022
20
-113.6596189999999922
11
86.2968099999999936
21
-113.8002759999999967
0
LINE
8
Edge.Cuts
6
CONTINUOUS
10
86.2968099999999936
20
-113.8002759999999967
11
86.0835919999999959
21
-113.9089159999999907
0
LINE
8
Edge.Cuts
6
CONTINUOUS
10
86.0835919999999959
20
-113.9089159999999907
11
85.8560039999999987
21
-113.9828639999999922
0
LINE
8
Edge.Cuts
6
CONTINUOUS
10
85.8560039999999987
20
-113.9828639999999922
11
85.6196499999999929
21
-114.0202989999999943
0
LINE
8
Edge.Cuts
6
CONTINUOUS
10
85.6196499999999929
20
-114.0202989999999943
11
85.3803499999999929
21
-114.0202989999999943
0
LINE
8
Edge.Cuts
6
CONTINUOUS
10
85.3803499999999929
20
-114.0202989999999943
11
85.1439960000000013
21
-113.9828639999999922
0
LINE
8
Edge.Cuts
6
CONTINUOUS
10
85.1439960000000013
20
-113.9828639999999922
11
84.9164079999999899
21
-113.9089159999999907
0
LINE
8
Edge.Cuts
6
CONTINUOUS
10
84.9164079999999899
20
-113.9089159999999907
11
84.7031899999999922
21
-113.8002759999999967
0
LINE
8
Edge.Cuts
6
CONTINUOUS
10
84.7031899999999922
20
-113.8002759999999967
11
84.5095919999999978
21
-113.6596189999999922
0
LINE
8
Edge.Cuts
6
CONTINUOUS
10
84.5095919999999978
20
-113.6596189999999922
11
84.3403809999999936
21
-113.490407999999988
0
LINE
8
Edge.Cuts
6
CONTINUOUS
10
84.3403809999999936
20
-113.490407999999988
11
84.1997239999999891
21
-113.2968099999999936
0
LINE
8
Edge.Cuts
6
CONTINUOUS
10
84.1997239999999891
20
-113.2968099999999936
11
84.0910839999999951
21
-113.0835919999999959
0
LINE
8
Edge.Cuts
6
CONTINUOUS
10
84.0910839999999951
20
-113.0835919999999959
11
84.0171359999999936
21
-112.8560039999999987
0
LINE
8
Edge.Cuts
6
CONTINUOUS
10
84.0171359999999936
20
-112.8560039999999987
11
83.9797009999999915
21
-112.6196499999999929
0
LINE
8
Edge.Cuts
6
CONTINUOUS
10
83.9797009999999915
20
-112.6196499999999929
11
83.9797009999999915
21
-112.3839150000000018
0
LINE
8
Edge.Cuts
6
CONTINUOUS
10
83.9797009999999915
20
-112.3839150000000018
11
83.9797009999999915
21
-112.3803499999999929
0
LINE
8
Edge.Cuts
6
CONTINUOUS
10
83.9797009999999915
20
-112.3803499999999929
11
84.0171359999999936
21
-112.1439960000000013
0
LINE
8
Edge.Cuts
6
CONTINUOUS
10
84.0171359999999936
20
-112.1439960000000013
11
84.0910839999999951
21
-111.9164079999999899
0
LINE
8
Edge.Cuts
6
CONTINUOUS
10
84.0910839999999951
20
-111.9164079999999899
11
84.1997239999999891
21
-111.7031899999999922
0
LINE
8
Edge.Cuts
6
CONTINUOUS
10
84.1997239999999891
20
-111.7031899999999922
11
84.3403809999999936
21
-111.5095919999999978
0
LINE
8
Edge.Cuts
6
CONTINUOUS
10
84.3403809999999936
20
-111.5095919999999978
11
84.5095919999999978
21
-111.3403809999999936
0
LINE
8
Edge.Cuts
6
CONTINUOUS
10
84.5095919999999978
20
-111.3403809999999936
11
84.7031899999999922
21
-111.1997239999999891
0
LINE
8
Edge.Cuts
6
CONTINUOUS
10
84.7031899999999922
20
-111.1997239999999891
11
84.9164079999999899
21
-111.0910839999999951
0
LINE
8
Edge.Cuts
6
CONTINUOUS
10
84.9164079999999899
20
-111.0910839999999951
11
85.1439960000000013
21
-111.0171359999999936
0
LINE
8
Edge.Cuts
6
CONTINUOUS
10
85.1439960000000013
20
-111.0171359999999936
11
85.3803499999999929
21
-110.9797009999999915
0
LINE
8
Edge.Cuts
6
CONTINUOUS
10
85.3803499999999929
20
-110.9797009999999915
11
85.6196499999999929
21
-110.9797009999999915
0
LINE
8
Edge.Cuts
6
CONTINUOUS
10
85.6196499999999929
20
-110.9797009999999915
11
85.8560039999999987
21
-111.0171359999999936
0
LINE
8
Edge.Cuts
6
CONTINUOUS
10
84.0249999999999915
20
-112.6160849999999982
11
84.0613189999999975
21
-112.8453969999999913
0
LINE
8
Edge.Cuts
6
CONTINUOUS
10
84.0613189999999975
20
-112.8453969999999913
11
84.1330639999999903
21
-113.0662030000000016
0
LINE
8
Edge.Cuts
6
CONTINUOUS
10
84.1330639999999903
20
-113.0662030000000016
11
84.238467
21
-113.273067999999995
0
LINE
8
Edge.Cuts
6
CONTINUOUS
10
84.238467
20
-113.273067999999995
11
84.3749329999999986
21
-113.4608980000000003
0
LINE
8
Edge.Cuts
6
CONTINUOUS
10
84.3749329999999986
20
-113.4608980000000003
11
84.5391019999999997
21
-113.6250670000000014
0
LINE
8
Edge.Cuts
6
CONTINUOUS
10
84.5391019999999997
20
-113.6250670000000014
11
84.7269319999999908
21
-113.761533
0
LINE
8
Edge.Cuts
6
CONTINUOUS
10
84.7269319999999908
20
-113.761533
11
84.9337969999999984
21
-113.8669359999999955
0
LINE
8
Edge.Cuts
6
CONTINUOUS
10
84.9337969999999984
20
-113.8669359999999955
11
85.1546029999999945
21
-113.9386809999999883
0
LINE
8
Edge.Cuts
6
CONTINUOUS
10
85.1546029999999945
20
-113.9386809999999883
11
85.3839150000000018
21
-113.9749999999999943
0
LINE
8
Edge.Cuts
6
CONTINUOUS
10
85.3839150000000018
20
-113.9749999999999943
11
85.6160849999999982
21
-113.9749999999999943
0
LINE
8
Edge.Cuts
6
CONTINUOUS
10
85.6160849999999982
20
-113.9749999999999943
11
85.8453969999999913
21
-113.9386809999999883
0
LINE
8
Edge.Cuts
6
CONTINUOUS
10
85.8453969999999913
20
-113.9386809999999883
11
86.0662030000000016
21
-113.8669359999999955
0
LINE
8
Edge.Cuts
6
CONTINUOUS
10
86.0662030000000016
20
-113.8669359999999955
11
86.273067999999995
21
-113.761533
0
LINE
8
Edge.Cuts
6
CONTINUOUS
10
86.273067999999995
20
-113.761533
11
86.4608980000000003
21
-113.6250670000000014
0
LINE
8
Edge.Cuts
6
CONTINUOUS
10
86.4608980000000003
20
-113.6250670000000014
11
86.6250670000000014
21
-113.4608980000000003
0
LINE
8
Edge.Cuts
6
CONTINUOUS
10
86.6250670000000014
20
-113.4608980000000003
11
86.761533
21
-113.273067999999995
0
LINE
8
Edge.Cuts
6
CONTINUOUS
10
86.761533
20
-113.273067999999995
11
86.8669359999999955
21
-113.0662030000000016
0
LINE
8
Edge.Cuts
6
CONTINUOUS
10
86.8669359999999955
20
-113.0662030000000016
11
86.9386810000000025
21
-112.8453969999999913
0
LINE
8
Edge.Cuts
6
CONTINUOUS
10
86.9386810000000025
20
-112.8453969999999913
11
86.9749999999999943
21
-112.6160849999999982
0
LINE
8
Edge.Cuts
6
CONTINUOUS
10
86.9749999999999943
20
-112.6160849999999982
11
86.9749999999999943
21
-112.3839150000000018
0
LINE
8
Edge.Cuts
6
CONTINUOUS
10
86.9749999999999943
20
-112.3839150000000018
11
86.9386810000000025
21
-112.1546029999999945
0
LINE
8
Edge.Cuts
6
CONTINUOUS
10
86.9386810000000025
20
-112.1546029999999945
11
86.8669359999999955
21
-111.9337969999999984
0
LINE
8
Edge.Cuts
6
CONTINUOUS
10
86.8669359999999955
20
-111.9337969999999984
11
86.761533
21
-111.7269319999999908
0
LINE
8
Edge.Cuts
6
CONTINUOUS
10
86.761533
20
-111.7269319999999908
11
86.6250670000000014
21
-111.5391019999999997
0
LINE
8
Edge.Cuts
6
CONTINUOUS
10
86.6250670000000014
20
-111.5391019999999997
11
86.4608980000000003
21
-111.3749329999999986
0
LINE
8
Edge.Cuts
6
CONTINUOUS
10
86.4608980000000003
20
-111.3749329999999986
11
86.273067999999995
21
-111.238467
0
LINE
8
Edge.Cuts
6
CONTINUOUS
10
86.273067999999995
20
-111.238467
11
86.0662030000000016
21
-111.1330639999999903
0
LINE
8
Edge.Cuts
6
CONTINUOUS
10
86.0662030000000016
20
-111.1330639999999903
11
85.8453969999999913
21
-111.0613189999999975
0
LINE
8
Edge.Cuts
6
CONTINUOUS
10
85.8453969999999913
20
-111.0613189999999975
11
85.6160849999999982
21
-111.0249999999999915
0
LINE
8
Edge.Cuts
6
CONTINUOUS
10
85.6160849999999982
20
-111.0249999999999915
11
85.3839150000000018
21
-111.0249999999999915
0
LINE
8
Edge.Cuts
6
CONTINUOUS
10
85.3839150000000018
20
-111.0249999999999915
11
85.1546029999999945
21
-111.0613189999999975
0
LINE
8
Edge.Cuts
6
CONTINUOUS
10
85.1546029999999945
20
-111.0613189999999975
11
84.9337969999999984
21
-111.1330639999999903
0
LINE
8
Edge.Cuts
6
CONTINUOUS
10
84.9337969999999984
20
-111.1330639999999903
11
84.7269319999999908
21
-111.238467
0
LINE
8
Edge.Cuts
6
CONTINUOUS
10
84.7269319999999908
20
-111.238467
11
84.5391019999999997
21
-111.3749329999999986
0
LINE
8
Edge.Cuts
6
CONTINUOUS
10
84.5391019999999997
20
-111.3749329999999986
11
84.3749329999999986
21
-111.5391019999999997
0
LINE
8
Edge.Cuts
6
CONTINUOUS
10
84.3749329999999986
20
-111.5391019999999997
11
84.238467
21
-111.7269319999999908
0
LINE
8
Edge.Cuts
6
CONTINUOUS
10
84.238467
20
-111.7269319999999908
11
84.1330639999999903
21
-111.9337969999999984
0
LINE
8
Edge.Cuts
6
CONTINUOUS
10
84.1330639999999903
20
-111.9337969999999984
11
84.0613189999999975
21
-112.1546029999999945
0
LINE
8
Edge.Cuts
6
CONTINUOUS
10
84.0613189999999975
20
-112.1546029999999945
11
84.0249999999999915
21
-112.3839150000000018
0
LINE
8
Edge.Cuts
6
CONTINUOUS
10
84.0249999999999915
20
-112.3839150000000018
11
84.0249999999999915
21
-112.6160849999999982
0
LINE
8
Edge.Cuts
6
CONTINUOUS
10
83.8560039999999987
20
-78.0171359999999936
11
84.0835919999999959
21
-78.0910839999999951
0
LINE
8
Edge.Cuts
6
CONTINUOUS
10
84.0835919999999959
20
-78.0910839999999951
11
84.2968099999999936
21
-78.1997240000000033
0
LINE
8
Edge.Cuts
6
CONTINUOUS
10
84.2968099999999936
20
-78.1997240000000033
11
84.4904080000000022
21
-78.3403809999999936
0
LINE
8
Edge.Cuts
6
CONTINUOUS
10
84.4904080000000022
20
-78.3403809999999936
11
84.6596189999999922
21
-78.5095919999999978
0
LINE
8
Edge.Cuts
6
CONTINUOUS
10
84.6596189999999922
20
-78.5095919999999978
11
84.8002759999999967
21
-78.7031899999999922
0
LINE
8
Edge.Cuts
6
CONTINUOUS
10
84.8002759999999967
20
-78.7031899999999922
11
84.9089159999999907
21
-78.9164079999999899
0
LINE
8
Edge.Cuts
6
CONTINUOUS
10
84.9089159999999907
20
-78.9164079999999899
11
84.9828639999999922
21
-79.1439960000000013
0
LINE
8
Edge.Cuts
6
CONTINUOUS
10
84.9828639999999922
20
-79.1439960000000013
11
85.0202989999999943
21
-79.3803499999999929
0
LINE
8
Edge.Cuts
6
CONTINUOUS
10
85.0202989999999943
20
-79.3803499999999929
11
85.0202989999999943
21
-79.6196499999999929
0
LINE
8
Edge.Cuts
6
CONTINUOUS
10
85.0202989999999943
20
-79.6196499999999929
11
84.9828639999999922
21
-79.8560039999999987
0
LINE
8
Edge.Cuts
6
CONTINUOUS
10
84.9828639999999922
20
-79.8560039999999987
11
84.9089159999999907
21
-80.0835919999999959
0
LINE
8
Edge.Cuts
6
CONTINUOUS
10
84.9089159999999907
20
-80.0835919999999959
11
84.8002759999999967
21
-80.2968099999999936
0
LINE
8
Edge.Cuts
6
CONTINUOUS
10
84.8002759999999967
20
-80.2968099999999936
11
84.6596189999999922
21
-80.4904080000000022
0
LINE
8
Edge.Cuts
6
CONTINUOUS
10
84.6596189999999922
20
-80.4904080000000022
11
84.4904080000000022
21
-80.6596189999999922
0
LINE
8
Edge.Cuts
6
CONTINUOUS
10
84.4904080000000022
20
-80.6596189999999922
11
84.2968099999999936
21
-80.8002759999999967
0
LINE
8
Edge.Cuts
6
CONTINUOUS
10
84.2968099999999936
20
-80.8002759999999967
11
84.0835919999999959
21
-80.9089159999999907
0
LINE
8
Edge.Cuts
6
CONTINUOUS
10
84.0835919999999959
20
-80.9089159999999907
11
83.8560039999999987
21
-80.9828639999999922
0
LINE
8
Edge.Cuts
6
CONTINUOUS
10
83.8560039999999987
20
-80.9828639999999922
11
83.6196499999999929
21
-81.0202989999999943
0
LINE
8
Edge.Cuts
6
CONTINUOUS
10
83.6196499999999929
20
-81.0202989999999943
11
83.3803499999999929
21
-81.0202989999999943
0
LINE
8
Edge.Cuts
6
CONTINUOUS
10
83.3803499999999929
20
-81.0202989999999943
11
83.1439960000000013
21
-80.9828639999999922
0
LINE
8
Edge.Cuts
6
CONTINUOUS
10
83.1439960000000013
20
-80.9828639999999922
11
82.9164079999999899
21
-80.9089159999999907
0
LINE
8
Edge.Cuts
6
CONTINUOUS
10
82.9164079999999899
20
-80.9089159999999907
11
82.7031899999999922
21
-80.8002759999999967
0
LINE
8
Edge.Cuts
6
CONTINUOUS
10
82.7031899999999922
20
-80.8002759999999967
11
82.5095919999999978
21
-80.6596189999999922
0
LINE
8
Edge.Cuts
6
CONTINUOUS
10
82.5095919999999978
20
-80.6596189999999922
11
82.3403809999999936
21
-80.4904080000000022
0
LINE
8
Edge.Cuts
6
CONTINUOUS
10
82.3403809999999936
20
-80.4904080000000022
11
82.1997240000000033
21
-80.2968099999999936
0
LINE
8
Edge.Cuts
6
CONTINUOUS
10
82.1997240000000033
20
-80.2968099999999936
11
82.0910839999999951
21
-80.0835919999999959
0
LINE
8
Edge.Cuts
6
CONTINUOUS
10
82.0910839999999951
20
-80.0835919999999959
11
82.0171359999999936
21
-79.8560039999999987
0
LINE
8
Edge.Cuts
6
CONTINUOUS
10
82.0171359999999936
20
-79.8560039999999987
11
81.9797009999999915
21
-79.6196499999999929
0
LINE
8
Edge.Cuts
6
CONTINUOUS
10
81.9797009999999915
20
-79.6196499999999929
11
81.9797009999999915
21
-79.3839150000000018
0
LINE
8
Edge.Cuts
6
CONTINUOUS
10
81.9797009999999915
20
-79.3839150000000018
11
81.9797009999999915
21
-79.3803499999999929
0
LINE
8
Edge.Cuts
6
CONTINUOUS
10
81.9797009999999915
20
-79.3803499999999929
11
82.0171359999999936
21
-79.1439960000000013
0
LINE
8
Edge.Cuts
6
CONTINUOUS
10
82.0171359999999936
20
-79.1439960000000013
11
82.0910839999999951
21
-78.9164079999999899
0
LINE
8
Edge.Cuts
6
CONTINUOUS
10
82.0910839999999951
20
-78.9164079999999899
11
82.1997240000000033
21
-78.7031899999999922
0
LINE
8
Edge.Cuts
6
CONTINUOUS
10
82.1997240000000033
20
-78.7031899999999922
11
82.3403809999999936
21
-78.5095919999999978
0
LINE
8
Edge.Cuts
6
CONTINUOUS
10
82.3403809999999936
20
-78.5095919999999978
11
82.5095919999999978
21
-78.3403809999999936
0
LINE
8
Edge.Cuts
6
CONTINUOUS
10
82.5095919999999978
20
-78.3403809999999936
11
82.7031899999999922
21
-78.1997240000000033
0
LINE
8
Edge.Cuts
6
CONTINUOUS
10
82.7031899999999922
20
-78.1997240000000033
11
82.9164079999999899
21
-78.0910839999999951
0
LINE
8
Edge.Cuts
6
CONTINUOUS
10
82.9164079999999899
20
-78.0910839999999951
11
83.1439960000000013
21
-78.0171359999999936
0
LINE
8
Edge.Cuts
6
CONTINUOUS
10
83.1439960000000013
20
-78.0171359999999936
11
83.3803499999999929
21
-77.9797009999999915
0
LINE
8
Edge.Cuts
6
CONTINUOUS
10
83.3803499999999929
20
-77.9797009999999915
11
83.6196499999999929
21
-77.9797009999999915
0
LINE
8
Edge.Cuts
6
CONTINUOUS
10
83.6196499999999929
20
-77.9797009999999915
11
83.8560039999999987
21
-78.0171359999999936
0
LINE
8
Edge.Cuts
6
CONTINUOUS
10
82.0249999999999915
20
-79.6160849999999982
11
82.0613189999999975
21
-79.8453969999999913
0
LINE
8
Edge.Cuts
6
CONTINUOUS
10
82.0613189999999975
20
-79.8453969999999913
11
82.1330639999999903
21
-80.0662030000000016
0
LINE
8
Edge.Cuts
6
CONTINUOUS
10
82.1330639999999903
20
-80.0662030000000016
11
82.238467
21
-80.273067999999995
0
LINE
8
Edge.Cuts
6
CONTINUOUS
10
82.238467
20
-80.273067999999995
11
82.3749329999999986
21
-80.4608980000000003
0
LINE
8
Edge.Cuts
6
CONTINUOUS
10
82.3749329999999986
20
-80.4608980000000003
11
82.5391019999999997
21
-80.6250670000000014
0
LINE
8
Edge.Cuts
6
CONTINUOUS
10
82.5391019999999997
20
-80.6250670000000014
11
82.7269319999999908
21
-80.761533
0
LINE
8
Edge.Cuts
6
CONTINUOUS
10
82.7269319999999908
20
-80.761533
11
82.9337969999999984
21
-80.8669359999999955
0
LINE
8
Edge.Cuts
6
CONTINUOUS
10
82.9337969999999984
20
-80.8669359999999955
11
83.1546029999999945
21
-80.9386810000000025
0
LINE
8
Edge.Cuts
6
CONTINUOUS
10
83.1546029999999945
20
-80.9386810000000025
11
83.3839150000000018
21
-80.9749999999999943
0
LINE
8
Edge.Cuts
6
CONTINUOUS
10
83.3839150000000018
20
-80.9749999999999943
11
83.6160849999999982
21
-80.9749999999999943
0
LINE
8
Edge.Cuts
6
CONTINUOUS
10
83.6160849999999982
20
-80.9749999999999943
11
83.8453969999999913
21
-80.9386810000000025
0
LINE
8
Edge.Cuts
6
CONTINUOUS
10
83.8453969999999913
20
-80.9386810000000025
11
84.0662030000000016
21
-80.8669359999999955
0
LINE
8
Edge.Cuts
6
CONTINUOUS
10
84.0662030000000016
20
-80.8669359999999955
11
84.273067999999995
21
-80.761533
0
LINE
8
Edge.Cuts
6
CONTINUOUS
10
84.273067999999995
20
-80.761533
11
84.4608980000000003
21
-80.6250670000000014
0
LINE
8
Edge.Cuts
6
CONTINUOUS
10
84.4608980000000003
20
-80.6250670000000014
11
84.6250670000000014
21
-80.4608980000000003
0
LINE
8
Edge.Cuts
6
CONTINUOUS
10
84.6250670000000014
20
-80.4608980000000003
11
84.761533
21
-80.273067999999995
0
LINE
8
Edge.Cuts
6
CONTINUOUS
10
84.761533
20
-80.273067999999995
11
84.8669359999999955
21
-80.0662030000000016
0
LINE
8
Edge.Cuts
6
CONTINUOUS
10
84.8669359999999955
20
-80.0662030000000016
11
84.9386810000000025
21
-79.8453969999999913
0
LINE
8
Edge.Cuts
6
CONTINUOUS
10
84.9386810000000025
20
-79.8453969999999913
11
84.9749999999999943
21
-79.6160849999999982
0
LINE
8
Edge.Cuts
6
CONTINUOUS
10
84.9749999999999943
20
-79.6160849999999982
11
84.9749999999999943
21
-79.3839150000000018
0
LINE
8
Edge.Cuts
6
CONTINUOUS
10
84.9749999999999943
20
-79.3839150000000018
11
84.9386810000000025
21
-79.1546029999999945
0
LINE
8
Edge.Cuts
6
CONTINUOUS
10
84.9386810000000025
20
-79.1546029999999945
11
84.8669359999999955
21
-78.9337969999999984
0
LINE
8
Edge.Cuts
6
CONTINUOUS
10
84.8669359999999955
20
-78.9337969999999984
11
84.761533
21
-78.7269319999999908
0
LINE
8
Edge.Cuts
6
CONTINUOUS
10
84.761533
20
-78.7269319999999908
11
84.6250670000000014
21
-78.5391019999999997
0
LINE
8
Edge.Cuts
6
CONTINUOUS
10
84.6250670000000014
20
-78.5391019999999997
11
84.4608980000000003
21
-78.3749329999999986
0
LINE
8
Edge.Cuts
6
CONTINUOUS
10
84.4608980000000003
20
-78.3749329999999986
11
84.273067999999995
21
-78.238467
0
LINE
8
Edge.Cuts
6
CONTINUOUS
10
84.273067999999995
20
-78.238467
11
84.0662030000000016
21
-78.1330639999999903
0
LINE
8
Edge.Cuts
6
CONTINUOUS
10
84.0662030000000016
20
-78.1330639999999903
11
83.8453969999999913
21
-78.0613189999999975
0
LINE
8
Edge.Cuts
6
CONTINUOUS
10
83.8453969999999913
20
-78.0613189999999975
11
83.6160849999999982
21
-78.0249999999999915
0
LINE
8
Edge.Cuts
6
CONTINUOUS
10
83.6160849999999982
20
-78.0249999999999915
11
83.3839150000000018
21
-78.0249999999999915
0
LINE
8
Edge.Cuts
6
CONTINUOUS
10
83.3839150000000018
20
-78.0249999999999915
11
83.1546029999999945
21
-78.0613189999999975
0
LINE
8
Edge.Cuts
6
CONTINUOUS
10
83.1546029999999945
20
-78.0613189999999975
11
82.9337969999999984
21
-78.1330639999999903
0
LINE
8
Edge.Cuts
6
CONTINUOUS
10
82.9337969999999984
20
-78.1330639999999903
11
82.7269319999999908
21
-78.238467
0
LINE
8
Edge.Cuts
6
CONTINUOUS
10
82.7269319999999908
20
-78.238467
11
82.5391019999999997
21
-78.3749329999999986
0
LINE
8
Edge.Cuts
6
CONTINUOUS
10
82.5391019999999997
20
-78.3749329999999986
11
82.3749329999999986
21
-78.5391019999999997
0
LINE
8
Edge.Cuts
6
CONTINUOUS
10
82.3749329999999986
20
-78.5391019999999997
11
82.238467
21
-78.7269319999999908
0
LINE
8
Edge.Cuts
6
CONTINUOUS
10
82.238467
20
-78.7269319999999908
11
82.1330639999999903
21
-78.9337969999999984
0
LINE
8
Edge.Cuts
6
CONTINUOUS
10
82.1330639999999903
20
-78.9337969999999984
11
82.0613189999999975
21
-79.1546029999999945
0
LINE
8
Edge.Cuts
6
CONTINUOUS
10
82.0613189999999975
20
-79.1546029999999945
11
82.0249999999999915
21
-79.3839150000000018
0
LINE
8
Edge.Cuts
6
CONTINUOUS
10
82.0249999999999915
20
-79.3839150000000018
11
82.0249999999999915
21
-79.6160849999999982
0
LINE
8
Edge.Cuts
6
CONTINUOUS
10
141.8560039999999844
20
-73.0171359999999936
11
142.0835919999999817
21
-73.0910839999999951
0
LINE
8
Edge.Cuts
6
CONTINUOUS
10
142.0835919999999817
20
-73.0910839999999951
11
142.2968099999999936
21
-73.1997240000000033
0
LINE
8
Edge.Cuts
6
CONTINUOUS
10
142.2968099999999936
20
-73.1997240000000033
11
142.4904080000000022
21
-73.3403809999999936
0
LINE
8
Edge.Cuts
6
CONTINUOUS
10
142.4904080000000022
20
-73.3403809999999936
11
142.6596189999999922
21
-73.5095919999999978
0
LINE
8
Edge.Cuts
6
CONTINUOUS
10
142.6596189999999922
20
-73.5095919999999978
11
142.8002759999999967
21
-73.7031899999999922
0
LINE
8
Edge.Cuts
6
CONTINUOUS
10
142.8002759999999967
20
-73.7031899999999922
11
142.9089160000000049
21
-73.9164079999999899
0
LINE
8
Edge.Cuts
6
CONTINUOUS
10
142.9089160000000049
20
-73.9164079999999899
11
142.9828640000000064
21
-74.1439960000000013
0
LINE
8
Edge.Cuts
6
CONTINUOUS
10
142.9828640000000064
20
-74.1439960000000013
11
143.0202989999999943
21
-74.3803499999999929
0
LINE
8
Edge.Cuts
6
CONTINUOUS
10
143.0202989999999943
20
-74.3803499999999929
11
143.0202989999999943
21
-74.6196499999999929
0
LINE
8
Edge.Cuts
6
CONTINUOUS
10
143.0202989999999943
20
-74.6196499999999929
11
142.9828640000000064
21
-74.8560039999999987
0
LINE
8
Edge.Cuts
6
CONTINUOUS
10
142.9828640000000064
20
-74.8560039999999987
11
142.9089160000000049
21
-75.0835919999999959
0
LINE
8
Edge.Cuts
6
CONTINUOUS
10
142.9089160000000049
20
-75.0835919999999959
11
142.8002759999999967
21
-75.2968099999999936
0
LINE
8
Edge.Cuts
6
CONTINUOUS
10
142.8002759999999967
20
-75.2968099999999936
11
142.6596189999999922
21
-75.4904080000000022
0
LINE
8
Edge.Cuts
6
CONTINUOUS
10
142.6596189999999922
20
-75.4904080000000022
11
142.4904080000000022
21
-75.6596189999999922
0
LINE
8
Edge.Cuts
6
CONTINUOUS
10
142.4904080000000022
20
-75.6596189999999922
11
142.2968099999999936
21
-75.8002759999999967
0
LINE
8
Edge.Cuts
6
CONTINUOUS
10
142.2968099999999936
20
-75.8002759999999967
11
142.0835919999999817
21
-75.9089159999999907
0
LINE
8
Edge.Cuts
6
CONTINUOUS
10
142.0835919999999817
20
-75.9089159999999907
11
141.8560039999999844
21
-75.9828639999999922
0
LINE
8
Edge.Cuts
6
CONTINUOUS
10
141.8560039999999844
20
-75.9828639999999922
11
141.6196500000000071
21
-76.0202989999999943
0
LINE
8
Edge.Cuts
6
CONTINUOUS
10
141.6196500000000071
20
-76.0202989999999943
11
141.3803499999999929
21
-76.0202989999999943
0
LINE
8
Edge.Cuts
6
CONTINUOUS
10
141.3803499999999929
20
-76.0202989999999943
11
141.1439959999999871
21
-75.9828639999999922
0
LINE
8
Edge.Cuts
6
CONTINUOUS
10
141.1439959999999871
20
-75.9828639999999922
11
140.9164079999999899
21
-75.9089159999999907
0
LINE
8
Edge.Cuts
6
CONTINUOUS
10
140.9164079999999899
20
-75.9089159999999907
11
140.7031900000000064
21
-75.8002759999999967
0
LINE
8
Edge.Cuts
6
CONTINUOUS
10
140.7031900000000064
20
-75.8002759999999967
11
140.5095919999999978
21
-75.6596189999999922
0
LINE
8
Edge.Cuts
6
CONTINUOUS
10
140.5095919999999978
20
-75.6596189999999922
11
140.3403810000000078
21
-75.4904080000000022
0
LINE
8
Edge.Cuts
6
CONTINUOUS
10
140.3403810000000078
20
-75.4904080000000022
11
140.1997240000000033
21
-75.2968099999999936
0
LINE
8
Edge.Cuts
6
CONTINUOUS
10
140.1997240000000033
20
-75.2968099999999936
11
140.0910839999999951
21
-75.0835919999999959
0
LINE
8
Edge.Cuts
6
CONTINUOUS
10
140.0910839999999951
20
-75.0835919999999959
11
140.0171359999999936
21
-74.8560039999999987
0
LINE
8
Edge.Cuts
6
CONTINUOUS
10
140.0171359999999936
20
-74.8560039999999987
11
139.9797010000000057
21
-74.6196499999999929
0
LINE
8
Edge.Cuts
6
CONTINUOUS
10
139.9797010000000057
20
-74.6196499999999929
11
139.9797010000000057
21
-74.3839150000000018
0
LINE
8
Edge.Cuts
6
CONTINUOUS
10
139.9797010000000057
20
-74.3839150000000018
11
139.9797010000000057
21
-74.3803499999999929
0
LINE
8
Edge.Cuts
6
CONTINUOUS
10
139.9797010000000057
20
-74.3803499999999929
11
140.0171359999999936
21
-74.1439960000000013
0
LINE
8
Edge.Cuts
6
CONTINUOUS
10
140.0171359999999936
20
-74.1439960000000013
11
140.0910839999999951
21
-73.9164079999999899
0
LINE
8
Edge.Cuts
6
CONTINUOUS
10
140.0910839999999951
20
-73.9164079999999899
11
140.1997240000000033
21
-73.7031899999999922
0
LINE
8
Edge.Cuts
6
CONTINUOUS
10
140.1997240000000033
20
-73.7031899999999922
11
140.3403810000000078
21
-73.5095919999999978
0
LINE
8
Edge.Cuts
6
CONTINUOUS
10
140.3403810000000078
20
-73.5095919999999978
11
140.5095919999999978
21
-73.3403809999999936
0
LINE
8
Edge.Cuts
6
CONTINUOUS
10
140.5095919999999978
20
-73.3403809999999936
11
140.7031900000000064
21
-73.1997240000000033
0
LINE
8
Edge.Cuts
6
CONTINUOUS
10
140.7031900000000064
20
-73.1997240000000033
11
140.9164079999999899
21
-73.0910839999999951
0
LINE
8
Edge.Cuts
6
CONTINUOUS
10
140.9164079999999899
20
-73.0910839999999951
11
141.1439959999999871
21
-73.0171359999999936
0
LINE
8
Edge.Cuts
6
CONTINUOUS
10
141.1439959999999871
20
-73.0171359999999936
11
141.3803499999999929
21
-72.9797009999999915
0
LINE
8
Edge.Cuts
6
CONTINUOUS
10
141.3803499999999929
20
-72.9797009999999915
11
141.6196500000000071
21
-72.9797009999999915
0
LINE
8
Edge.Cuts
6
CONTINUOUS
10
141.6196500000000071
20
-72.9797009999999915
11
141.8560039999999844
21
-73.0171359999999936
0
LINE
8
Edge.Cuts
6
CONTINUOUS
10
140.0250000000000057
20
-74.6160849999999982
11
140.0613189999999975
21
-74.8453969999999913
0
LINE
8
Edge.Cuts
6
CONTINUOUS
10
140.0613189999999975
20
-74.8453969999999913
11
140.1330639999999903
21
-75.0662030000000016
0
LINE
8
Edge.Cuts
6
CONTINUOUS
10
140.1330639999999903
20
-75.0662030000000016
11
140.2384669999999858
21
-75.273067999999995
0
LINE
8
Edge.Cuts
6
CONTINUOUS
10
140.2384669999999858
20
-75.273067999999995
11
140.3749329999999986
21
-75.4608980000000003
0
LINE
8
Edge.Cuts
6
CONTINUOUS
10
140.3749329999999986
20
-75.4608980000000003
11
140.5391019999999855
21
-75.6250670000000014
0
LINE
8
Edge.Cuts
6
CONTINUOUS
10
140.5391019999999855
20
-75.6250670000000014
11
140.726932000000005
21
-75.761533
0
LINE
8
Edge.Cuts
6
CONTINUOUS
10
140.726932000000005
20
-75.761533
11
140.9337969999999984
21
-75.8669359999999955
0
LINE
8
Edge.Cuts
6
CONTINUOUS
10
140.9337969999999984
20
-75.8669359999999955
11
141.1546029999999803
21
-75.9386810000000025
0
LINE
8
Edge.Cuts
6
CONTINUOUS
10
141.1546029999999803
20
-75.9386810000000025
11
141.3839150000000018
21
-75.9749999999999943
0
LINE
8
Edge.Cuts
6
CONTINUOUS
10
141.3839150000000018
20
-75.9749999999999943
11
141.6160849999999982
21
-75.9749999999999943
0
LINE
8
Edge.Cuts
6
CONTINUOUS
10
141.6160849999999982
20
-75.9749999999999943
11
141.8453969999999913
21
-75.9386810000000025
0
LINE
8
Edge.Cuts
6
CONTINUOUS
10
141.8453969999999913
20
-75.9386810000000025
11
142.0662030000000016
21
-75.8669359999999955
0
LINE
8
Edge.Cuts
6
CONTINUOUS
10
142.0662030000000016
20
-75.8669359999999955
11
142.273067999999995
21
-75.761533
0
LINE
8
Edge.Cuts
6
CONTINUOUS
10
142.273067999999995
20
-75.761533
11
142.460897999999986
21
-75.6250670000000014
0
LINE
8
Edge.Cuts
6
CONTINUOUS
10
142.460897999999986
20
-75.6250670000000014
11
142.6250670000000014
21
-75.4608980000000003
0
LINE
8
Edge.Cuts
6
CONTINUOUS
10
142.6250670000000014
20
-75.4608980000000003
11
142.7615329999999858
21
-75.273067999999995
0
LINE
8
Edge.Cuts
6
CONTINUOUS
10
142.7615329999999858
20
-75.273067999999995
11
142.8669359999999813
21
-75.0662030000000016
0
LINE
8
Edge.Cuts
6
CONTINUOUS
10
142.8669359999999813
20
-75.0662030000000016
11
142.9386810000000025
21
-74.8453969999999913
0
LINE
8
Edge.Cuts
6
CONTINUOUS
10
142.9386810000000025
20
-74.8453969999999913
11
142.9749999999999943
21
-74.6160849999999982
0
LINE
8
Edge.Cuts
6
CONTINUOUS
10
142.9749999999999943
20
-74.6160849999999982
11
142.9749999999999943
21
-74.3839150000000018
0
LINE
8
Edge.Cuts
6
CONTINUOUS
10
142.9749999999999943
20
-74.3839150000000018
11
142.9386810000000025
21
-74.1546029999999945
0
LINE
8
Edge.Cuts
6
CONTINUOUS
10
142.9386810000000025
20
-74.1546029999999945
11
142.8669359999999813
21
-73.9337969999999984
0
LINE
8
Edge.Cuts
6
CONTINUOUS
10
142.8669359999999813
20
-73.9337969999999984
11
142.7615329999999858
21
-73.7269319999999908
0
LINE
8
Edge.Cuts
6
CONTINUOUS
10
142.7615329999999858
20
-73.7269319999999908
11
142.6250670000000014
21
-73.5391019999999997
0
LINE
8
Edge.Cuts
6
CONTINUOUS
10
142.6250670000000014
20
-73.5391019999999997
11
142.460897999999986
21
-73.3749329999999986
0
LINE
8
Edge.Cuts
6
CONTINUOUS
10
142.460897999999986
20
-73.3749329999999986
11
142.273067999999995
21
-73.238467
0
LINE
8
Edge.Cuts
6
CONTINUOUS
10
142.273067999999995
20
-73.238467
11
142.0662030000000016
21
-73.1330639999999903
0
LINE
8
Edge.Cuts
6
CONTINUOUS
10
142.0662030000000016
20
-73.1330639999999903
11
141.8453969999999913
21
-73.0613189999999975
0
LINE
8
Edge.Cuts
6
CONTINUOUS
10
141.8453969999999913
20
-73.0613189999999975
11
141.6160849999999982
21
-73.0249999999999915
0
LINE
8
Edge.Cuts
6
CONTINUOUS
10
141.6160849999999982
20
-73.0249999999999915
11
141.3839150000000018
21
-73.0249999999999915
0
LINE
8
Edge.Cuts
6
CONTINUOUS
10
141.3839150000000018
20
-73.0249999999999915
11
141.1546029999999803
21
-73.0613189999999975
0
LINE
8
Edge.Cuts
6
CONTINUOUS
10
141.1546029999999803
20
-73.0613189999999975
11
140.9337969999999984
21
-73.1330639999999903
0
LINE
8
Edge.Cuts
6
CONTINUOUS
10
140.9337969999999984
20
-73.1330639999999903
11
140.726932000000005
21
-73.238467
0
LINE
8
Edge.Cuts
6
CONTINUOUS
10
140.726932000000005
20
-73.238467
11
140.5391019999999855
21
-73.3749329999999986
0
LINE
8
Edge.Cuts
6
CONTINUOUS
10
140.5391019999999855
20
-73.3749329999999986
11
140.3749329999999986
21
-73.5391019999999997
0
LINE
8
Edge.Cuts
6
CONTINUOUS
10
140.3749329999999986
20
-73.5391019999999997
11
140.2384669999999858
21
-73.7269319999999908
0
LINE
8
Edge.Cuts
6
CONTINUOUS
10
140.2384669999999858
20
-73.7269319999999908
11
140.1330639999999903
21
-73.9337969999999984
0
LINE
8
Edge.Cuts
6
CONTINUOUS
10
140.1330639999999903
20
-73.9337969999999984
11
140.0613189999999975
21
-74.1546029999999945
0
LINE
8
Edge.Cuts
6
CONTINUOUS
10
140.0613189999999975
20
-74.1546029999999945
11
140.0250000000000057
21
-74.3839150000000018
0
LINE
8
Edge.Cuts
6
CONTINUOUS
10
140.0250000000000057
20
-74.3839150000000018
11
140.0250000000000057
21
-74.6160849999999982
0
LINE
8
Edge.Cuts
6
CONTINUOUS
10
74.8560039999999987
20
-51.0171360000000007
11
75.0835919999999959
21
-51.0910839999999951
0
LINE
8
Edge.Cuts
6
CONTINUOUS
10
75.0835919999999959
20
-51.0910839999999951
11
75.2968099999999936
21
-51.1997239999999962
0
LINE
8
Edge.Cuts
6
CONTINUOUS
10
75.2968099999999936
20
-51.1997239999999962
11
75.4904080000000022
21
-51.3403810000000007
0
LINE
8
Edge.Cuts
6
CONTINUOUS
10
75.4904080000000022
20
-51.3403810000000007
11
75.6596189999999922
21
-51.5095919999999978
0
LINE
8
Edge.Cuts
6
CONTINUOUS
10
75.6596189999999922
20
-51.5095919999999978
11
75.8002759999999967
21
-51.7031899999999993
0
LINE
8
Edge.Cuts
6
CONTINUOUS
10
75.8002759999999967
20
-51.7031899999999993
11
75.9089159999999907
21
-51.916407999999997
0
LINE
8
Edge.Cuts
6
CONTINUOUS
10
75.9089159999999907
20
-51.916407999999997
11
75.9828639999999922
21
-52.1439959999999942
0
LINE
8
Edge.Cuts
6
CONTINUOUS
10
75.9828639999999922
20
-52.1439959999999942
11
76.0202989999999943
21
-52.38035
0
LINE
8
Edge.Cuts
6
CONTINUOUS
10
76.0202989999999943
20
-52.38035
11
76.0202989999999943
21
-52.61965
0
LINE
8
Edge.Cuts
6
CONTINUOUS
10
76.0202989999999943
20
-52.61965
11
75.9828639999999922
21
-52.8560039999999987
0
LINE
8
Edge.Cuts
6
CONTINUOUS
10
75.9828639999999922
20
-52.8560039999999987
11
75.9089159999999907
21
-53.0835919999999959
0
LINE
8
Edge.Cuts
6
CONTINUOUS
10
75.9089159999999907
20
-53.0835919999999959
11
75.8002759999999967
21
-53.2968100000000007
0
LINE
8
Edge.Cuts
6
CONTINUOUS
10
75.8002759999999967
20
-53.2968100000000007
11
75.6596189999999922
21
-53.4904079999999951
0
LINE
8
Edge.Cuts
6
CONTINUOUS
10
75.6596189999999922
20
-53.4904079999999951
11
75.4904080000000022
21
-53.6596189999999993
0
LINE
8
Edge.Cuts
6
CONTINUOUS
10
75.4904080000000022
20
-53.6596189999999993
11
75.2968099999999936
21
-53.8002759999999967
0
LINE
8
Edge.Cuts
6
CONTINUOUS
10
75.2968099999999936
20
-53.8002759999999967
11
75.0835919999999959
21
-53.9089159999999978
0
LINE
8
Edge.Cuts
6
CONTINUOUS
10
75.0835919999999959
20
-53.9089159999999978
11
74.8560039999999987
21
-53.9828639999999993
0
LINE
8
Edge.Cuts
6
CONTINUOUS
10
74.8560039999999987
20
-53.9828639999999993
11
74.6196499999999929
21
-54.0202989999999943
0
LINE
8
Edge.Cuts
6
CONTINUOUS
10
74.6196499999999929
20
-54.0202989999999943
11
74.3803499999999929
21
-54.0202989999999943
0
LINE
8
Edge.Cuts
6
CONTINUOUS
10
74.3803499999999929
20
-54.0202989999999943
11
74.1439960000000013
21
-53.9828639999999993
0
LINE
8
Edge.Cuts
6
CONTINUOUS
10
74.1439960000000013
20
-53.9828639999999993
11
73.9164079999999899
21
-53.9089159999999978
0
LINE
8
Edge.Cuts
6
CONTINUOUS
10
73.9164079999999899
20
-53.9089159999999978
11
73.7031899999999922
21
-53.8002759999999967
0
LINE
8
Edge.Cuts
6
CONTINUOUS
10
73.7031899999999922
20
-53.8002759999999967
11
73.5095919999999978
21
-53.6596189999999993
0
LINE
8
Edge.Cuts
6
CONTINUOUS
10
73.5095919999999978
20
-53.6596189999999993
11
73.3403809999999936
21
-53.4904079999999951
0
LINE
8
Edge.Cuts
6
CONTINUOUS
10
73.3403809999999936
20
-53.4904079999999951
11
73.1997240000000033
21
-53.2968100000000007
0
LINE
8
Edge.Cuts
6
CONTINUOUS
10
73.1997240000000033
20
-53.2968100000000007
11
73.0910839999999951
21
-53.0835919999999959
0
LINE
8
Edge.Cuts
6
CONTINUOUS
10
73.0910839999999951
20
-53.0835919999999959
11
73.0171359999999936
21
-52.8560039999999987
0
LINE
8
Edge.Cuts
6
CONTINUOUS
10
73.0171359999999936
20
-52.8560039999999987
11
72.9797009999999915
21
-52.61965
0
LINE
8
Edge.Cuts
6
CONTINUOUS
10
72.9797009999999915
20
-52.61965
11
72.9797009999999915
21
-52.3839149999999947
0
LINE
8
Edge.Cuts
6
CONTINUOUS
10
72.9797009999999915
20
-52.3839149999999947
11
72.9797009999999915
21
-52.38035
0
LINE
8
Edge.Cuts
6
CONTINUOUS
10
72.9797009999999915
20
-52.38035
11
73.0171359999999936
21
-52.1439959999999942
0
LINE
8
Edge.Cuts
6
CONTINUOUS
10
73.0171359999999936
20
-52.1439959999999942
11
73.0910839999999951
21
-51.916407999999997
0
LINE
8
Edge.Cuts
6
CONTINUOUS
10
73.0910839999999951
20
-51.916407999999997
11
73.1997240000000033
21
-51.7031899999999993
0
LINE
8
Edge.Cuts
6
CONTINUOUS
10
73.1997240000000033
20
-51.7031899999999993
11
73.3403809999999936
21
-51.5095919999999978
0
LINE
8
Edge.Cuts
6
CONTINUOUS
10
73.3403809999999936
20
-51.5095919999999978
11
73.5095919999999978
21
-51.3403810000000007
0
LINE
8
Edge.Cuts
6
CONTINUOUS
10
73.5095919999999978
20
-51.3403810000000007
11
73.7031899999999922
21
-51.1997239999999962
0
LINE
8
Edge.Cuts
6
CONTINUOUS
10
73.7031899999999922
20
-51.1997239999999962
11
73.9164079999999899
21
-51.0910839999999951
0
LINE
8
Edge.Cuts
6
CONTINUOUS
10
73.9164079999999899
20
-51.0910839999999951
11
74.1439960000000013
21
-51.0171360000000007
0
LINE
8
Edge.Cuts
6
CONTINUOUS
10
74.1439960000000013
20
-51.0171360000000007
11
74.3803499999999929
21
-50.9797009999999986
0
LINE
8
Edge.Cuts
6
CONTINUOUS
10
74.3803499999999929
20
-50.9797009999999986
11
74.6196499999999929
21
-50.9797009999999986
0
LINE
8
Edge.Cuts
6
CONTINUOUS
10
74.6196499999999929
20
-50.9797009999999986
11
74.8560039999999987
21
-51.0171360000000007
0
LINE
8
Edge.Cuts
6
CONTINUOUS
10
73.0249999999999915
20
-52.6160849999999982
11
73.0613189999999975
21
-52.8453969999999984
0
LINE
8
Edge.Cuts
6
CONTINUOUS
10
73.0613189999999975
20
-52.8453969999999984
11
73.1330639999999903
21
-53.0662029999999945
0
LINE
8
Edge.Cuts
6
CONTINUOUS
10
73.1330639999999903
20
-53.0662029999999945
11
73.238467
21
-53.273067999999995
0
LINE
8
Edge.Cuts
6
CONTINUOUS
10
73.238467
20
-53.273067999999995
11
73.3749329999999986
21
-53.4608980000000003
0
LINE
8
Edge.Cuts
6
CONTINUOUS
10
73.3749329999999986
20
-53.4608980000000003
11
73.5391019999999997
21
-53.6250669999999943
0
LINE
8
Edge.Cuts
6
CONTINUOUS
10
73.5391019999999997
20
-53.6250669999999943
11
73.7269319999999908
21
-53.761533
0
LINE
8
Edge.Cuts
6
CONTINUOUS
10
73.7269319999999908
20
-53.761533
11
73.9337969999999984
21
-53.8669359999999955
0
LINE
8
Edge.Cuts
6
CONTINUOUS
10
73.9337969999999984
20
-53.8669359999999955
11
74.1546029999999945
21
-53.9386809999999954
0
LINE
8
Edge.Cuts
6
CONTINUOUS
10
74.1546029999999945
20
-53.9386809999999954
11
74.3839150000000018
21
-53.9749999999999943
0
LINE
8
Edge.Cuts
6
CONTINUOUS
10
74.3839150000000018
20
-53.9749999999999943
11
74.6160849999999982
21
-53.9749999999999943
0
LINE
8
Edge.Cuts
6
CONTINUOUS
10
74.6160849999999982
20
-53.9749999999999943
11
74.8453969999999913
21
-53.9386809999999954
0
LINE
8
Edge.Cuts
6
CONTINUOUS
10
74.8453969999999913
20
-53.9386809999999954
11
75.0662030000000016
21
-53.8669359999999955
0
LINE
8
Edge.Cuts
6
CONTINUOUS
10
75.0662030000000016
20
-53.8669359999999955
11
75.273067999999995
21
-53.761533
0
LINE
8
Edge.Cuts
6
CONTINUOUS
10
75.273067999999995
20
-53.761533
11
75.4608980000000003
21
-53.6250669999999943
0
LINE
8
Edge.Cuts
6
CONTINUOUS
10
75.4608980000000003
20
-53.6250669999999943
11
75.6250670000000014
21
-53.4608980000000003
0
LINE
8
Edge.Cuts
6
CONTINUOUS
10
75.6250670000000014
20
-53.4608980000000003
11
75.761533
21
-53.273067999999995
0
LINE
8
Edge.Cuts
6
CONTINUOUS
10
75.761533
20
-53.273067999999995
11
75.8669359999999955
21
-53.0662029999999945
0
LINE
8
Edge.Cuts
6
CONTINUOUS
10
75.8669359999999955
20
-53.0662029999999945
11
75.9386810000000025
21
-52.8453969999999984
0
LINE
8
Edge.Cuts
6
CONTINUOUS
10
75.9386810000000025
20
-52.8453969999999984
11
75.9749999999999943
21
-52.6160849999999982
0
LINE
8
Edge.Cuts
6
CONTINUOUS
10
75.9749999999999943
20
-52.6160849999999982
11
75.9749999999999943
21
-52.3839149999999947
0
LINE
8
Edge.Cuts
6
CONTINUOUS
10
75.9749999999999943
20
-52.3839149999999947
11
75.9386810000000025
21
-52.1546029999999945
0
LINE
8
Edge.Cuts
6
CONTINUOUS
10
75.9386810000000025
20
-52.1546029999999945
11
75.8669359999999955
21
-51.9337969999999984
0
LINE
8
Edge.Cuts
6
CONTINUOUS
10
75.8669359999999955
20
-51.9337969999999984
11
75.761533
21
-51.7269319999999979
0
LINE
8
Edge.Cuts
6
CONTINUOUS
10
75.761533
20
-51.7269319999999979
11
75.6250670000000014
21
-51.5391019999999997
0
LINE
8
Edge.Cuts
6
CONTINUOUS
10
75.6250670000000014
20
-51.5391019999999997
11
75.4608980000000003
21
-51.3749329999999986
0
LINE
8
Edge.Cuts
6
CONTINUOUS
10
75.4608980000000003
20
-51.3749329999999986
11
75.273067999999995
21
-51.238467
0
LINE
8
Edge.Cuts
6
CONTINUOUS
10
75.273067999999995
20
-51.238467
11
75.0662030000000016
21
-51.1330639999999974
0
LINE
8
Edge.Cuts
6
CONTINUOUS
10
75.0662030000000016
20
-51.1330639999999974
11
74.8453969999999913
21
-51.0613189999999975
0
LINE
8
Edge.Cuts
6
CONTINUOUS
10
74.8453969999999913
20
-51.0613189999999975
11
74.6160849999999982
21
-51.0249999999999986
0
LINE
8
Edge.Cuts
6
CONTINUOUS
10
74.6160849999999982
20
-51.0249999999999986
11
74.3839150000000018
21
-51.0249999999999986
0
LINE
8
Edge.Cuts
6
CONTINUOUS
10
74.3839150000000018
20
-51.0249999999999986
11
74.1546029999999945
21
-51.0613189999999975
0
LINE
8
Edge.Cuts
6
CONTINUOUS
10
74.1546029999999945
20
-51.0613189999999975
11
73.9337969999999984
21
-51.1330639999999974
0
LINE
8
Edge.Cuts
6
CONTINUOUS
10
73.9337969999999984
20
-51.1330639999999974
11
73.7269319999999908
21
-51.238467
0
LINE
8
Edge.Cuts
6
CONTINUOUS
10
73.7269319999999908
20
-51.238467
11
73.5391019999999997
21
-51.3749329999999986
0
LINE
8
Edge.Cuts
6
CONTINUOUS
10
73.5391019999999997
20
-51.3749329999999986
11
73.3749329999999986
21
-51.5391019999999997
0
LINE
8
Edge.Cuts
6
CONTINUOUS
10
73.3749329999999986
20
-51.5391019999999997
11
73.238467
21
-51.7269319999999979
0
LINE
8
Edge.Cuts
6
CONTINUOUS
10
73.238467
20
-51.7269319999999979
11
73.1330639999999903
21
-51.9337969999999984
0
LINE
8
Edge.Cuts
6
CONTINUOUS
10
73.1330639999999903
20
-51.9337969999999984
11
73.0613189999999975
21
-52.1546029999999945
0
LINE
8
Edge.Cuts
6
CONTINUOUS
10
73.0613189999999975
20
-52.1546029999999945
11
73.0249999999999915
21
-52.3839149999999947
0
LINE
8
Edge.Cuts
6
CONTINUOUS
10
73.0249999999999915
20
-52.3839149999999947
11
73.0249999999999915
21
-52.6160849999999982
0
LINE
8
Edge.Cuts
6
CONTINUOUS
10
150.8560039999999844
20
-51.0171360000000007
11
151.0835919999999817
21
-51.0910839999999951
0
LINE
8
Edge.Cuts
6
CONTINUOUS
10
151.0835919999999817
20
-51.0910839999999951
11
151.2968099999999936
21
-51.1997239999999962
0
LINE
8
Edge.Cuts
6
CONTINUOUS
10
151.2968099999999936
20
-51.1997239999999962
11
151.4904080000000022
21
-51.3403810000000007
0
LINE
8
Edge.Cuts
6
CONTINUOUS
10
151.4904080000000022
20
-51.3403810000000007
11
151.6596189999999922
21
-51.5095919999999978
0
LINE
8
Edge.Cuts
6
CONTINUOUS
10
151.6596189999999922
20
-51.5095919999999978
11
151.8002759999999967
21
-51.7031899999999993
0
LINE
8
Edge.Cuts
6
CONTINUOUS
10
151.8002759999999967
20
-51.7031899999999993
11
151.9089160000000049
21
-51.916407999999997
0
LINE
8
Edge.Cuts
6
CONTINUOUS
10
151.9089160000000049
20
-51.916407999999997
11
151.9828640000000064
21
-52.1439959999999942
0
LINE
8
Edge.Cuts
6
CONTINUOUS
10
151.9828640000000064
20
-52.1439959999999942
11
152.0202989999999943
21
-52.38035
0
LINE
8
Edge.Cuts
6
CONTINUOUS
10
152.0202989999999943
20
-52.38035
11
152.0202989999999943
21
-52.61965
0
LINE
8
Edge.Cuts
6
CONTINUOUS
10
152.0202989999999943
20
-52.61965
11
151.9828640000000064
21
-52.8560039999999987
0
LINE
8
Edge.Cuts
6
CONTINUOUS
10
151.9828640000000064
20
-52.8560039999999987
11
151.9089160000000049
21
-53.0835919999999959
0
LINE
8
Edge.Cuts
6
CONTINUOUS
10
151.9089160000000049
20
-53.0835919999999959
11
151.8002759999999967
21
-53.2968100000000007
0
LINE
8
Edge.Cuts
6
CONTINUOUS
10
151.8002759999999967
20
-53.2968100000000007
11
151.6596189999999922
21
-53.4904079999999951
0
LINE
8
Edge.Cuts
6
CONTINUOUS
10
151.6596189999999922
20
-53.4904079999999951
11
151.4904080000000022
21
-53.6596189999999993
0
LINE
8
Edge.Cuts
6
CONTINUOUS
10
151.4904080000000022
20
-53.6596189999999993
11
151.2968099999999936
21
-53.8002759999999967
0
LINE
8
Edge.Cuts
6
CONTINUOUS
10
151.2968099999999936
20
-53.8002759999999967
11
151.0835919999999817
21
-53.9089159999999978
0
LINE
8
Edge.Cuts
6
CONTINUOUS
10
151.0835919999999817
20
-53.9089159999999978
11
150.8560039999999844
21
-53.9828639999999993
0
LINE
8
Edge.Cuts
6
CONTINUOUS
10
150.8560039999999844
20
-53.9828639999999993
11
150.6196500000000071
21
-54.0202989999999943
0
LINE
8
Edge.Cuts
6
CONTINUOUS
10
150.6196500000000071
20
-54.0202989999999943
11
150.3803499999999929
21
-54.0202989999999943
0
LINE
8
Edge.Cuts
6
CONTINUOUS
10
150.3803499999999929
20
-54.0202989999999943
11
150.1439959999999871
21
-53.9828639999999993
0
LINE
8
Edge.Cuts
6
CONTINUOUS
10
150.1439959999999871
20
-53.9828639999999993
11
149.9164079999999899
21
-53.9089159999999978
0
LINE
8
Edge.Cuts
6
CONTINUOUS
10
149.9164079999999899
20
-53.9089159999999978
11
149.7031900000000064
21
-53.8002759999999967
0
LINE
8
Edge.Cuts
6
CONTINUOUS
10
149.7031900000000064
20
-53.8002759999999967
11
149.5095919999999978
21
-53.6596189999999993
0
LINE
8
Edge.Cuts
6
CONTINUOUS
10
149.5095919999999978
20
-53.6596189999999993
11
149.3403809999999794
21
-53.4904079999999951
0
LINE
8
Edge.Cuts
6
CONTINUOUS
10
149.3403809999999794
20
-53.4904079999999951
11
149.1997240000000033
21
-53.2968100000000007
0
LINE
8
Edge.Cuts
6
CONTINUOUS
10
149.1997240000000033
20
-53.2968100000000007
11
149.0910839999999951
21
-53.0835919999999959
0
LINE
8
Edge.Cuts
6
CONTINUOUS
10
149.0910839999999951
20
-53.0835919999999959
11
149.0171359999999936
21
-52.8560039999999987
0
LINE
8
Edge.Cuts
6
CONTINUOUS
10
149.0171359999999936
20
-52.8560039999999987
11
148.9797010000000057
21
-52.61965
0
LINE
8
Edge.Cuts
6
CONTINUOUS
10
148.9797010000000057
20
-52.61965
11
148.9797010000000057
21
-52.3839149999999947
0
LINE
8
Edge.Cuts
6
CONTINUOUS
10
148.9797010000000057
20
-52.3839149999999947
11
148.9797010000000057
21
-52.38035
0
LINE
8
Edge.Cuts
6
CONTINUOUS
10
148.9797010000000057
20
-52.38035
11
149.0171359999999936
21
-52.1439959999999942
0
LINE
8
Edge.Cuts
6
CONTINUOUS
10
149.0171359999999936
20
-52.1439959999999942
11
149.0910839999999951
21
-51.916407999999997
0
LINE
8
Edge.Cuts
6
CONTINUOUS
10
149.0910839999999951
20
-51.916407999999997
11
149.1997240000000033
21
-51.7031899999999993
0
LINE
8
Edge.Cuts
6
CONTINUOUS
10
149.1997240000000033
20
-51.7031899999999993
11
149.3403809999999794
21
-51.5095919999999978
0
LINE
8
Edge.Cuts
6
CONTINUOUS
10
149.3403809999999794
20
-51.5095919999999978
11
149.5095919999999978
21
-51.3403810000000007
0
LINE
8
Edge.Cuts
6
CONTINUOUS
10
149.5095919999999978
20
-51.3403810000000007
11
149.7031900000000064
21
-51.1997239999999962
0
LINE
8
Edge.Cuts
6
CONTINUOUS
10
149.7031900000000064
20
-51.1997239999999962
11
149.9164079999999899
21
-51.0910839999999951
0
LINE
8
Edge.Cuts
6
CONTINUOUS
10
149.9164079999999899
20
-51.0910839999999951
11
150.1439959999999871
21
-51.0171360000000007
0
LINE
8
Edge.Cuts
6
CONTINUOUS
10
150.1439959999999871
20
-51.0171360000000007
11
150.3803499999999929
21
-50.9797009999999986
0
LINE
8
Edge.Cuts
6
CONTINUOUS
10
150.3803499999999929
20
-50.9797009999999986
11
150.6196500000000071
21
-50.9797009999999986
0
LINE
8
Edge.Cuts
6
CONTINUOUS
10
150.6196500000000071
20
-50.9797009999999986
11
150.8560039999999844
21
-51.0171360000000007
0
LINE
8
Edge.Cuts
6
CONTINUOUS
10
149.0250000000000057
20
-52.6160849999999982
11
149.0613189999999975
21
-52.8453969999999984
0
LINE
8
Edge.Cuts
6
CONTINUOUS
10
149.0613189999999975
20
-52.8453969999999984
11
149.1330639999999903
21
-53.0662029999999945
0
LINE
8
Edge.Cuts
6
CONTINUOUS
10
149.1330639999999903
20
-53.0662029999999945
11
149.2384669999999858
21
-53.273067999999995
0
LINE
8
Edge.Cuts
6
CONTINUOUS
10
149.2384669999999858
20
-53.273067999999995
11
149.3749329999999986
21
-53.4608980000000003
0
LINE
8
Edge.Cuts
6
CONTINUOUS
10
149.3749329999999986
20
-53.4608980000000003
11
149.5391019999999855
21
-53.6250669999999943
0
LINE
8
Edge.Cuts
6
CONTINUOUS
10
149.5391019999999855
20
-53.6250669999999943
11
149.726932000000005
21
-53.761533
0
LINE
8
Edge.Cuts
6
CONTINUOUS
10
149.726932000000005
20
-53.761533
11
149.9337969999999984
21
-53.8669359999999955
0
LINE
8
Edge.Cuts
6
CONTINUOUS
10
149.9337969999999984
20
-53.8669359999999955
11
150.1546029999999803
21
-53.9386809999999954
0
LINE
8
Edge.Cuts
6
CONTINUOUS
10
150.1546029999999803
20
-53.9386809999999954
11
150.3839150000000018
21
-53.9749999999999943
0
LINE
8
Edge.Cuts
6
CONTINUOUS
10
150.3839150000000018
20
-53.9749999999999943
11
150.6160849999999982
21
-53.9749999999999943
0
LINE
8
Edge.Cuts
6
CONTINUOUS
10
150.6160849999999982
20
-53.9749999999999943
11
150.8453969999999913
21
-53.9386809999999954
0
LINE
8
Edge.Cuts
6
CONTINUOUS
10
150.8453969999999913
20
-53.9386809999999954
11
151.0662030000000016
21
-53.8669359999999955
0
LINE
8
Edge.Cuts
6
CONTINUOUS
10
151.0662030000000016
20
-53.8669359999999955
11
151.273067999999995
21
-53.761533
0
LINE
8
Edge.Cuts
6
CONTINUOUS
10
151.273067999999995
20
-53.761533
11
151.460897999999986
21
-53.6250669999999943
0
LINE
8
Edge.Cuts
6
CONTINUOUS
10
151.460897999999986
20
-53.6250669999999943
11
151.6250670000000014
21
-53.4608980000000003
0
LINE
8
Edge.Cuts
6
CONTINUOUS
10
151.6250670000000014
20
-53.4608980000000003
11
151.7615329999999858
21
-53.273067999999995
0
LINE
8
Edge.Cuts
6
CONTINUOUS
10
151.7615329999999858
20
-53.273067999999995
11
151.8669359999999813
21
-53.0662029999999945
0
LINE
8
Edge.Cuts
6
CONTINUOUS
10
151.8669359999999813
20
-53.0662029999999945
11
151.9386810000000025
21
-52.8453969999999984
0
LINE
8
Edge.Cuts
6
CONTINUOUS
10
151.9386810000000025
20
-52.8453969999999984
11
151.9749999999999943
21
-52.6160849999999982
0
LINE
8
Edge.Cuts
6
CONTINUOUS
10
151.9749999999999943
20
-52.6160849999999982
11
151.9749999999999943
21
-52.3839149999999947
0
LINE
8
Edge.Cuts
6
CONTINUOUS
10
151.9749999999999943
20
-52.3839149999999947
11
151.9386810000000025
21
-52.1546029999999945
0
LINE
8
Edge.Cuts
6
CONTINUOUS
10
151.9386810000000025
20
-52.1546029999999945
11
151.8669359999999813
21
-51.9337969999999984
0
LINE
8
Edge.Cuts
6
CONTINUOUS
10
151.8669359999999813
20
-51.9337969999999984
11
151.7615329999999858
21
-51.7269319999999979
0
LINE
8
Edge.Cuts
6
CONTINUOUS
10
151.7615329999999858
20
-51.7269319999999979
11
151.6250670000000014
21
-51.5391019999999997
0
LINE
8
Edge.Cuts
6
CONTINUOUS
10
151.6250670000000014
20
-51.5391019999999997
11
151.460897999999986
21
-51.3749329999999986
0
LINE
8
Edge.Cuts
6
CONTINUOUS
10
151.460897999999986
20
-51.3749329999999986
11
151.273067999999995
21
-51.238467
0
LINE
8
Edge.Cuts
6
CONTINUOUS
10
151.273067999999995
20
-51.238467
11
151.0662030000000016
21
-51.1330639999999974
0
LINE
8
Edge.Cuts
6
CONTINUOUS
10
151.0662030000000016
20
-51.1330639999999974
11
150.8453969999999913
21
-51.0613189999999975
0
LINE
8
Edge.Cuts
6
CONTINUOUS
10
150.8453969999999913
20
-51.0613189999999975
11
150.6160849999999982
21
-51.0249999999999986
0
LINE
8
Edge.Cuts
6
CONTINUOUS
10
150.6160849999999982
20
-51.0249999999999986
11
150.3839150000000018
21
-51.0249999999999986
0
LINE
8
Edge.Cuts
6
CONTINUOUS
10
150.3839150000000018
20
-51.0249999999999986
11
150.1546029999999803
21
-51.0613189999999975
0
LINE
8
Edge.Cuts
6
CONTINUOUS
10
150.1546029999999803
20
-51.0613189999999975
11
149.9337969999999984
21
-51.1330639999999974
0
LINE
8
Edge.Cuts
6
CONTINUOUS
10
149.9337969999999984
20
-51.1330639999999974
11
149.726932000000005
21
-51.238467
0
LINE
8
Edge.Cuts
6
CONTINUOUS
10
149.726932000000005
20
-51.238467
11
149.5391019999999855
21
-51.3749329999999986
0
LINE
8
Edge.Cuts
6
CONTINUOUS
10
149.5391019999999855
20
-51.3749329999999986
11
149.3749329999999986
21
-51.5391019999999997
0
LINE
8
Edge.Cuts
6
CONTINUOUS
10
149.3749329999999986
20
-51.5391019999999997
11
149.2384669999999858
21
-51.7269319999999979
0
LINE
8
Edge.Cuts
6
CONTINUOUS
10
149.2384669999999858
20
-51.7269319999999979
11
149.1330639999999903
21
-51.9337969999999984
0
LINE
8
Edge.Cuts
6
CONTINUOUS
10
149.1330639999999903
20
-51.9337969999999984
11
149.0613189999999975
21
-52.1546029999999945
0
LINE
8
Edge.Cuts
6
CONTINUOUS
10
149.0613189999999975
20
-52.1546029999999945
11
149.0250000000000057
21
-52.3839149999999947
0
LINE
8
Edge.Cuts
6
CONTINUOUS
10
149.0250000000000057
20
-52.3839149999999947
11
149.0250000000000057
21
-52.6160849999999982
0
LINE
8
Edge.Cuts
6
CONTINUOUS
10
103.0230969999999928
20
-48.4604329999999948
11
103.0249999999999915
21
-48.4699999999999989
0
LINE
8
Edge.Cuts
6
CONTINUOUS
10
103.0249999999999915
20
-48.4699999999999989
11
103.0249999999999915
21
-48.4749999999999943
0
LINE
8
Edge.Cuts
6
CONTINUOUS
10
103.0249999999999915
20
-48.4749999999999943
11
122.022324999999995
21
-48.4749999999999943
0
LINE
8
Edge.Cuts
6
CONTINUOUS
10
122.022324999999995
20
-48.4749999999999943
11
122.0305249999999972
21
-48.4668649999999985
0
LINE
8
Edge.Cuts
6
CONTINUOUS
10
122.0305249999999972
20
-48.4668649999999985
11
122.0496589999999912
21
-48.4669409999999985
0
LINE
8
Edge.Cuts
6
CONTINUOUS
10
122.0496589999999912
20
-48.4669409999999985
11
122.0631349999999884
21
-48.4805250000000001
0
LINE
8
Edge.Cuts
6
CONTINUOUS
10
122.0631349999999884
20
-48.4805250000000001
11
122.0649999999999977
21
-48.4900999999999982
0
LINE
8
Edge.Cuts
6
CONTINUOUS
10
122.0649999999999977
20
-48.4900999999999982
11
122.0450999999999908
21
-53.4749859999999941
0
LINE
8
Edge.Cuts
6
CONTINUOUS
10
122.0450999999999908
20
-53.4749859999999941
11
141.0099869999999953
21
-53.4649999999999963
0
LINE
8
Edge.Cuts
6
CONTINUOUS
10
141.0099869999999953
20
-53.4649999999999963
11
141.0195549999999969
21
-53.4668980000000005
0
LINE
8
Edge.Cuts
6
CONTINUOUS
10
141.0195549999999969
20
-53.4668980000000005
11
141.0195599999999843
21
-53.466902999999995
0
LINE
8
Edge.Cuts
6
CONTINUOUS
10
141.0195599999999843
20
-53.466902999999995
11
141.019566999999995
21
-53.466902999999995
0
LINE
8
Edge.Cuts
6
CONTINUOUS
10
141.019566999999995
20
-53.466902999999995
11
141.0263229999999908
21
-53.4736589999999978
0
LINE
8
Edge.Cuts
6
CONTINUOUS
10
141.0263229999999908
20
-53.4736589999999978
11
141.0330919999999821
21
-53.4804209999999998
0
LINE
8
Edge.Cuts
6
CONTINUOUS
10
141.0330919999999821
20
-53.4804209999999998
11
141.0330919999999821
21
-53.4804279999999963
0
LINE
8
Edge.Cuts
6
CONTINUOUS
10
141.0330919999999821
20
-53.4804279999999963
11
141.0330969999999979
21
-53.4804329999999979
0
LINE
8
Edge.Cuts
6
CONTINUOUS
10
141.0330969999999979
20
-53.4804329999999979
11
141.0349999999999966
21
-53.4899999999999949
0
LINE
8
Edge.Cuts
6
CONTINUOUS
10
141.0349999999999966
20
-53.4899999999999949
11
141.0349999999999966
21
-55.4749999999999943
0
LINE
8
Edge.Cuts
6
CONTINUOUS
10
141.0349999999999966
20
-55.4749999999999943
11
143.5
21
-55.4749999999999943
0
LINE
8
Edge.Cuts
6
CONTINUOUS
10
143.5
20
-55.4749999999999943
11
143.6559129999999982
21
-55.4749999999999943
0
LINE
8
Edge.Cuts
6
CONTINUOUS
10
143.6559129999999982
20
-55.4749999999999943
11
143.9660309999999868
21
-55.4424050000000008
0
LINE
8
Edge.Cuts
6
CONTINUOUS
10
143.9660309999999868
20
-55.4424050000000008
11
144.2710429999999917
21
-55.3775729999999982
0
LINE
8
Edge.Cuts
6
CONTINUOUS
10
144.2710429999999917
20
-55.3775729999999982
11
144.567608000000007
21
-55.281213000000001
0
LINE
8
Edge.Cuts
6
CONTINUOUS
10
144.567608000000007
20
-55.281213000000001
11
144.8524749999999983
21
-55.1543819999999982
0
LINE
8
Edge.Cuts
6
CONTINUOUS
10
144.8524749999999983
20
-55.1543819999999982
11
145.122524999999996
21
-54.9984690000000001
0
LINE
8
Edge.Cuts
6
CONTINUOUS
10
145.122524999999996
20
-54.9984690000000001
11
145.3747970000000009
21
-54.8151820000000001
0
LINE
8
Edge.Cuts
6
CONTINUOUS
10
145.3747970000000009
20
-54.8151820000000001
11
145.6065289999999948
21
-54.6065289999999948
0
LINE
8
Edge.Cuts
6
CONTINUOUS
10
145.6065289999999948
20
-54.6065289999999948
11
145.815181999999993
21
-54.3747970000000009
0
LINE
8
Edge.Cuts
6
CONTINUOUS
10
145.815181999999993
20
-54.3747970000000009
11
145.9984690000000001
21
-54.122524999999996
0
LINE
8
Edge.Cuts
6
CONTINUOUS
10
145.9984690000000001
20
-54.122524999999996
11
146.1543819999999982
21
-53.8524749999999983
0
LINE
8
Edge.Cuts
6
CONTINUOUS
10
146.1543819999999982
20
-53.8524749999999983
11
146.2812129999999797
21
-53.5676079999999999
0
LINE
8
Edge.Cuts
6
CONTINUOUS
10
146.2812129999999797
20
-53.5676079999999999
11
146.3775729999999839
21
-53.2710429999999988
0
LINE
8
Edge.Cuts
6
CONTINUOUS
10
146.3775729999999839
20
-53.2710429999999988
11
146.4424049999999795
21
-52.966031000000001
0
LINE
8
Edge.Cuts
6
CONTINUOUS
10
146.4424049999999795
20
-52.966031000000001
11
146.4749999999999943
21
-52.6559129999999982
0
LINE
8
Edge.Cuts
6
CONTINUOUS
10
146.4749999999999943
20
-52.6559129999999982
11
146.4749999999999943
21
-52.5
0
LINE
8
Edge.Cuts
6
CONTINUOUS
10
146.4749999999999943
20
-52.5
11
146.4932259999999928
21
-52.1173989999999989
0
LINE
8
Edge.Cuts
6
CONTINUOUS
10
146.4932259999999928
20
-52.1173989999999989
11
146.5477369999999837
21
-51.7382640000000009
0
LINE
8
Edge.Cuts
6
CONTINUOUS
10
146.5477369999999837
20
-51.7382640000000009
11
146.638040999999987
21
-51.366025999999998
0
LINE
8
Edge.Cuts
6
CONTINUOUS
10
146.638040999999987
20
-51.366025999999998
11
146.7633189999999956
21
-51.004058999999998
0
LINE
8
Edge.Cuts
6
CONTINUOUS
10
146.7633189999999956
20
-51.004058999999998
11
146.9224370000000022
21
-50.6556379999999962
0
LINE
8
Edge.Cuts
6
CONTINUOUS
10
146.9224370000000022
20
-50.6556379999999962
11
147.1139550000000042
21
-50.3239209999999986
0
LINE
8
Edge.Cuts
6
CONTINUOUS
10
147.1139550000000042
20
-50.3239209999999986
11
147.336135999999982
21
-50.0119100000000003
0
LINE
8
Edge.Cuts
6
CONTINUOUS
10
147.336135999999982
20
-50.0119100000000003
11
147.5869699999999796
21
-49.7224319999999977
0
LINE
8
Edge.Cuts
6
CONTINUOUS
10
147.5869699999999796
20
-49.7224319999999977
11
147.8641859999999895
21
-49.4581079999999957
0
LINE
8
Edge.Cuts
6
CONTINUOUS
10
147.8641859999999895
20
-49.4581079999999957
11
148.16527099999999
21
-49.2213319999999968
0
LINE
8
Edge.Cuts
6
CONTINUOUS
10
148.16527099999999
20
-49.2213319999999968
11
148.4874999999999829
21
-49.0142479999999949
0
LINE
8
Edge.Cuts
6
CONTINUOUS
10
148.4874999999999829
20
-49.0142479999999949
11
148.8279550000000029
21
-48.8387309999999957
0
LINE
8
Edge.Cuts
6
CONTINUOUS
10
148.8279550000000029
20
-48.8387309999999957
11
149.1835509999999942
21
-48.6963719999999967
0
LINE
8
Edge.Cuts
6
CONTINUOUS
10
149.1835509999999942
20
-48.6963719999999967
11
149.5510699999999815
21
-48.5884579999999957
0
LINE
8
Edge.Cuts
6
CONTINUOUS
10
149.5510699999999815
20
-48.5884579999999957
11
149.9271829999999852
21
-48.5159689999999983
0
LINE
8
Edge.Cuts
6
CONTINUOUS
10
149.9271829999999852
20
-48.5159689999999983
11
150.3084829999999954
21
-48.4795589999999947
0
LINE
8
Edge.Cuts
6
CONTINUOUS
10
150.3084829999999954
20
-48.4795589999999947
11
150.6915170000000046
21
-48.4795589999999947
0
LINE
8
Edge.Cuts
6
CONTINUOUS
10
150.6915170000000046
20
-48.4795589999999947
11
151.0728169999999864
21
-48.5159689999999983
0
LINE
8
Edge.Cuts
6
CONTINUOUS
10
151.0728169999999864
20
-48.5159689999999983
11
151.4489299999999901
21
-48.5884579999999957
0
LINE
8
Edge.Cuts
6
CONTINUOUS
10
151.4489299999999901
20
-48.5884579999999957
11
151.8164490000000058
21
-48.6963719999999967
0
LINE
8
Edge.Cuts
6
CONTINUOUS
10
151.8164490000000058
20
-48.6963719999999967
11
152.1720449999999971
21
-48.8387309999999957
0
LINE
8
Edge.Cuts
6
CONTINUOUS
10
152.1720449999999971
20
-48.8387309999999957
11
152.5124999999999886
21
-49.0142479999999949
0
LINE
8
Edge.Cuts
6
CONTINUOUS
10
152.5124999999999886
20
-49.0142479999999949
11
152.8347289999999816
21
-49.2213319999999968
0
LINE
8
Edge.Cuts
6
CONTINUOUS
10
152.8347289999999816
20
-49.2213319999999968
11
153.1358139999999821
21
-49.4581079999999957
0
LINE
8
Edge.Cuts
6
CONTINUOUS
10
153.1358139999999821
20
-49.4581079999999957
11
153.413029999999992
21
-49.7224319999999977
0
LINE
8
Edge.Cuts
6
CONTINUOUS
10
153.413029999999992
20
-49.7224319999999977
11
153.6638639999999896
21
-50.0119100000000003
0
LINE
8
Edge.Cuts
6
CONTINUOUS
10
153.6638639999999896
20
-50.0119100000000003
11
153.8860449999999958
21
-50.3239209999999986
0
LINE
8
Edge.Cuts
6
CONTINUOUS
10
153.8860449999999958
20
-50.3239209999999986
11
154.0775629999999978
21
-50.6556379999999962
0
LINE
8
Edge.Cuts
6
CONTINUOUS
10
154.0775629999999978
20
-50.6556379999999962
11
154.2366810000000044
21
-51.004058999999998
0
LINE
8
Edge.Cuts
6
CONTINUOUS
10
154.2366810000000044
20
-51.004058999999998
11
154.3619589999999846
21
-51.366025999999998
0
LINE
8
Edge.Cuts
6
CONTINUOUS
10
154.3619589999999846
20
-51.366025999999998
11
154.4522629999999879
21
-51.7382640000000009
0
LINE
8
Edge.Cuts
6
CONTINUOUS
10
154.4522629999999879
20
-51.7382640000000009
11
154.5067740000000072
21
-52.1173989999999989
0
LINE
8
Edge.Cuts
6
CONTINUOUS
10
154.5067740000000072
20
-52.1173989999999989
11
154.5250000000000057
21
-52.5
0
LINE
8
Edge.Cuts
6
CONTINUOUS
10
154.5250000000000057
20
-52.5
11
154.5250000000000057
21
-52.6559129999999982
0
LINE
8
Edge.Cuts
6
CONTINUOUS
10
154.5250000000000057
20
-52.6559129999999982
11
154.5575949999999921
21
-52.966031000000001
0
LINE
8
Edge.Cuts
6
CONTINUOUS
10
154.5575949999999921
20
-52.966031000000001
11
154.6224269999999876
21
-53.2710429999999988
0
LINE
8
Edge.Cuts
6
CONTINUOUS
10
154.6224269999999876
20
-53.2710429999999988
11
154.7187869999999918
21
-53.5676079999999999
0
LINE
8
Edge.Cuts
6
CONTINUOUS
10
154.7187869999999918
20
-53.5676079999999999
11
154.8456180000000018
21
-53.8524749999999983
0
LINE
8
Edge.Cuts
6
CONTINUOUS
10
154.8456180000000018
20
-53.8524749999999983
11
155.0015309999999999
21
-54.122524999999996
0
LINE
8
Edge.Cuts
6
CONTINUOUS
10
155.0015309999999999
20
-54.122524999999996
11
155.184818000000007
21
-54.3747970000000009
0
LINE
8
Edge.Cuts
6
CONTINUOUS
10
155.184818000000007
20
-54.3747970000000009
11
155.3934710000000052
21
-54.6065289999999948
0
LINE
8
Edge.Cuts
6
CONTINUOUS
10
155.3934710000000052
20
-54.6065289999999948
11
155.6252029999999991
21
-54.8151820000000001
0
LINE
8
Edge.Cuts
6
CONTINUOUS
10
155.6252029999999991
20
-54.8151820000000001
11
155.877475000000004
21
-54.9984690000000001
0
LINE
8
Edge.Cuts
6
CONTINUOUS
10
155.877475000000004
20
-54.9984690000000001
11
156.1475250000000017
21
-55.1543819999999982
0
LINE
8
Edge.Cuts
6
CONTINUOUS
10
156.1475250000000017
20
-55.1543819999999982
11
156.432391999999993
21
-55.281213000000001
0
LINE
8
Edge.Cuts
6
CONTINUOUS
10
156.432391999999993
20
-55.281213000000001
11
156.7289569999999799
21
-55.3775729999999982
0
LINE
8
Edge.Cuts
6
CONTINUOUS
10
156.7289569999999799
20
-55.3775729999999982
11
157.0339689999999848
21
-55.4424050000000008
0
LINE
8
Edge.Cuts
6
CONTINUOUS
10
157.0339689999999848
20
-55.4424050000000008
11
157.3440870000000018
21
-55.4749999999999943
0
LINE
8
Edge.Cuts
6
CONTINUOUS
10
157.3440870000000018
20
-55.4749999999999943
11
157.5
21
-55.4749999999999943
0
LINE
8
Edge.Cuts
6
CONTINUOUS
10
157.5
20
-55.4749999999999943
11
157.5000749999999812
21
-55.4750239999999977
0
LINE
8
Edge.Cuts
6
CONTINUOUS
10
157.5000749999999812
20
-55.4750239999999977
11
157.5002000000000066
21
-55.4750009999999989
0
LINE
8
Edge.Cuts
6
CONTINUOUS
10
157.5002000000000066
20
-55.4750009999999989
11
160.0002000000000066
21
-55.4950009999999949
0
LINE
8
Edge.Cuts
6
CONTINUOUS
10
160.0002000000000066
20
-55.4950009999999949
11
160.0093789999999956
21
-55.4969029999999961
0
LINE
8
Edge.Cuts
6
CONTINUOUS
10
160.0093789999999956
20
-55.4969029999999961
11
160.0095670000000041
21
-55.4969029999999961
0
LINE
8
Edge.Cuts
6
CONTINUOUS
10
160.0095670000000041
20
-55.4969029999999961
11
160.0096159999999941
21
-55.4969520000000003
0
LINE
8
Edge.Cuts
6
CONTINUOUS
10
160.0096159999999941
20
-55.4969520000000003
11
160.0097509999999943
21
-55.4969800000000006
0
LINE
8
Edge.Cuts
6
CONTINUOUS
10
160.0097509999999943
20
-55.4969800000000006
11
160.0163990000000069
21
-55.5037349999999989
0
LINE
8
Edge.Cuts
6
CONTINUOUS
10
160.0163990000000069
20
-55.5037349999999989
11
160.0230969999999786
21
-55.510432999999999
0
LINE
8
Edge.Cuts
6
CONTINUOUS
10
160.0230969999999786
20
-55.510432999999999
11
160.0231229999999982
21
-55.5105679999999992
0
LINE
8
Edge.Cuts
6
CONTINUOUS
10
160.0231229999999982
20
-55.5105679999999992
11
160.0231729999999857
21
-55.5106180000000009
0
LINE
8
Edge.Cuts
6
CONTINUOUS
10
160.0231729999999857
20
-55.5106180000000009
11
160.0231709999999907
21
-55.5108069999999998
0
LINE
8
Edge.Cuts
6
CONTINUOUS
10
160.0231709999999907
20
-55.5108069999999998
11
160.0250000000000057
21
-55.519999999999996
0
LINE
8
Edge.Cuts
6
CONTINUOUS
10
160.0250000000000057
20
-55.519999999999996
11
160.0250000000000057
21
-119.5
0
LINE
8
Edge.Cuts
6
CONTINUOUS
10
160.0250000000000057
20
-119.5
11
160.0250000000000057
21
-122.
0
LINE
8
Edge.Cuts
6
CONTINUOUS
10
160.0250000000000057
20
-122.
11
160.0250000000000057
21
-122.0625349999999969
0
LINE
8
Edge.Cuts
6
CONTINUOUS
10
160.0250000000000057
20
-122.0625349999999969
11
160.0573709999999892
21
-122.1833429999999936
0
LINE
8
Edge.Cuts
6
CONTINUOUS
10
160.0573709999999892
20
-122.1833429999999936
11
160.1199059999999861
21
-122.2916570000000007
0
LINE
8
Edge.Cuts
6
CONTINUOUS
10
160.1199059999999861
20
-122.2916570000000007
11
160.2083429999999851
21
-122.3800939999999997
0
LINE
8
Edge.Cuts
6
CONTINUOUS
10
160.2083429999999851
20
-122.3800939999999997
11
160.3166569999999922
21
-122.4426289999999966
0
LINE
8
Edge.Cuts
6
CONTINUOUS
10
160.3166569999999922
20
-122.4426289999999966
11
160.4374650000000031
21
-122.4749999999999943
0
LINE
8
Edge.Cuts
6
CONTINUOUS
10
160.4374650000000031
20
-122.4749999999999943
11
160.5
21
-122.4749999999999943
0
LINE
8
Edge.Cuts
6
CONTINUOUS
10
160.5
20
-122.4749999999999943
11
170.0600000000000023
21
-122.4749999999999943
0
LINE
8
Edge.Cuts
6
CONTINUOUS
10
170.0600000000000023
20
-122.4749999999999943
11
170.0695670000000064
21
-122.476902999999993
0
LINE
8
Edge.Cuts
6
CONTINUOUS
10
170.0695670000000064
20
-122.476902999999993
11
170.0830969999999809
21
-122.4904329999999959
0
LINE
8
Edge.Cuts
6
CONTINUOUS
10
170.0830969999999809
20
-122.4904329999999959
11
170.0849999999999795
21
-122.5
0
LINE
8
Edge.Cuts
6
CONTINUOUS
10
170.0849999999999795
20
-122.5
11
170.0849999999999795
21
-141.5
0
LINE
8
Edge.Cuts
6
CONTINUOUS
10
170.0849999999999795
20
-141.5
11
170.0830969999999809
21
-141.5095670000000041
0
LINE
8
Edge.Cuts
6
CONTINUOUS
10
170.0830969999999809
20
-141.5095670000000041
11
170.0695670000000064
21
-141.523097000000007
0
LINE
8
Edge.Cuts
6
CONTINUOUS
10
170.0695670000000064
20
-141.523097000000007
11
170.0600000000000023
21
-141.5250000000000057
0
LINE
8
Edge.Cuts
6
CONTINUOUS
10
170.0600000000000023
20
-141.5250000000000057
11
167.5000009999999975
21
-141.5250000000000057
0
LINE
8
Edge.Cuts
6
CONTINUOUS
10
167.5000009999999975
20
-141.5250000000000057
11
167.3440879999999993
21
-141.5250000000000057
0
LINE
8
Edge.Cuts
6
CONTINUOUS
10
167.3440879999999993
20
-141.5250000000000057
11
167.0339699999999823
21
-141.5575939999999946
0
LINE
8
Edge.Cuts
6
CONTINUOUS
10
167.0339699999999823
20
-141.5575939999999946
11
166.7289580000000058
21
-141.6224269999999876
0
LINE
8
Edge.Cuts
6
CONTINUOUS
10
166.7289580000000058
20
-141.6224269999999876
11
166.4323929999999905
21
-141.7187859999999944
0
LINE
8
Edge.Cuts
6
CONTINUOUS
10
166.4323929999999905
20
-141.7187859999999944
11
166.1475259999999992
21
-141.8456170000000043
0
LINE
8
Edge.Cuts
6
CONTINUOUS
10
166.1475259999999992
20
-141.8456170000000043
11
165.877476999999999
21
-142.0015300000000025
0
LINE
8
Edge.Cuts
6
CONTINUOUS
10
165.877476999999999
20
-142.0015300000000025
11
165.6252039999999965
21
-142.1848169999999811
0
LINE
8
Edge.Cuts
6
CONTINUOUS
10
165.6252039999999965
20
-142.1848169999999811
11
165.3934720000000027
21
-142.3934689999999819
0
LINE
8
Edge.Cuts
6
CONTINUOUS
10
165.3934720000000027
20
-142.3934689999999819
11
165.1848190000000045
21
-142.6252010000000041
0
LINE
8
Edge.Cuts
6
CONTINUOUS
10
165.1848190000000045
20
-142.6252010000000041
11
165.0015319999999974
21
-142.8774740000000065
0
LINE
8
Edge.Cuts
6
CONTINUOUS
10
165.0015319999999974
20
-142.8774740000000065
11
164.8456189999999992
21
-143.1475230000000067
0
LINE
8
Edge.Cuts
6
CONTINUOUS
10
164.8456189999999992
20
-143.1475230000000067
11
164.7187869999999918
21
-143.4323909999999955
0
LINE
8
Edge.Cuts
6
CONTINUOUS
10
164.7187869999999918
20
-143.4323909999999955
11
164.6224279999999851
21
-143.7289549999999849
0
LINE
8
Edge.Cuts
6
CONTINUOUS
10
164.6224279999999851
20
-143.7289549999999849
11
164.5575949999999921
21
-144.0339669999999899
0
LINE
8
Edge.Cuts
6
CONTINUOUS
10
164.5575949999999921
20
-144.0339669999999899
11
164.5250000000000057
21
-144.3440850000000069
0
LINE
8
Edge.Cuts
6
CONTINUOUS
10
164.5250000000000057
20
-144.3440850000000069
11
164.5250000000000057
21
-144.499998000000005
0
LINE
8
Edge.Cuts
6
CONTINUOUS
10
164.5250000000000057
20
-144.499998000000005
11
164.5067750000000046
21
-144.882598999999999
0
LINE
8
Edge.Cuts
6
CONTINUOUS
10
164.5067750000000046
20
-144.882598999999999
11
164.4522639999999853
21
-145.2617349999999874
0
LINE
8
Edge.Cuts
6
CONTINUOUS
10
164.4522639999999853
20
-145.2617349999999874
11
164.3619599999999821
21
-145.633972
0
LINE
8
Edge.Cuts
6
CONTINUOUS
10
164.3619599999999821
20
-145.633972
11
164.2366820000000018
21
-145.9959399999999903
0
LINE
8
Edge.Cuts
6
CONTINUOUS
10
164.2366820000000018
20
-145.9959399999999903
11
164.0775639999999953
21
-146.3443609999999921
0
LINE
8
Edge.Cuts
6
CONTINUOUS
10
164.0775639999999953
20
-146.3443609999999921
11
163.8860469999999907
21
-146.6760789999999872
0
LINE
8
Edge.Cuts
6
CONTINUOUS
10
163.8860469999999907
20
-146.6760789999999872
11
163.663864999999987
21
-146.9880899999999997
0
LINE
8
Edge.Cuts
6
CONTINUOUS
10
163.663864999999987
20
-146.9880899999999997
11
163.4130309999999895
21
-147.2775680000000023
0
LINE
8
Edge.Cuts
6
CONTINUOUS
10
163.4130309999999895
20
-147.2775680000000023
11
163.1358149999999796
21
-147.54189199999999
0
LINE
8
Edge.Cuts
6
CONTINUOUS
10
163.1358149999999796
20
-147.54189199999999
11
162.8347299999999791
21
-147.7786689999999794
0
LINE
8
Edge.Cuts
6
CONTINUOUS
10
162.8347299999999791
20
-147.7786689999999794
11
162.5125009999999861
21
-147.9857529999999883
0
LINE
8
Edge.Cuts
6
CONTINUOUS
10
162.5125009999999861
20
-147.9857529999999883
11
162.1720459999999946
21
-148.1612690000000043
0
LINE
8
Edge.Cuts
6
CONTINUOUS
10
162.1720459999999946
20
-148.1612690000000043
11
161.8164490000000058
21
-148.3036290000000008
0
LINE
8
Edge.Cuts
6
CONTINUOUS
10
161.8164490000000058
20
-148.3036290000000008
11
161.4489299999999901
21
-148.4115419999999972
0
LINE
8
Edge.Cuts
6
CONTINUOUS
10
161.4489299999999901
20
-148.4115419999999972
11
161.0728169999999864
21
-148.4840319999999849
0
LINE
8
Edge.Cuts
6
CONTINUOUS
10
161.0728169999999864
20
-148.4840319999999849
11
160.6915170000000046
21
-148.5204420000000027
0
LINE
8
Edge.Cuts
6
CONTINUOUS
10
160.6915170000000046
20
-148.5204420000000027
11
160.3084829999999954
21
-148.5204420000000027
0
LINE
8
Edge.Cuts
6
CONTINUOUS
10
160.3084829999999954
20
-148.5204420000000027
11
159.9271829999999852
21
-148.4840319999999849
0
LINE
8
Edge.Cuts
6
CONTINUOUS
10
159.9271829999999852
20
-148.4840319999999849
11
159.5510699999999815
21
-148.4115419999999972
0
LINE
8
Edge.Cuts
6
CONTINUOUS
10
159.5510699999999815
20
-148.4115419999999972
11
159.1835509999999942
21
-148.3036290000000008
0
LINE
8
Edge.Cuts
6
CONTINUOUS
10
159.1835509999999942
20
-148.3036290000000008
11
158.8279540000000054
21
-148.1612690000000043
0
LINE
8
Edge.Cuts
6
CONTINUOUS
10
158.8279540000000054
20
-148.1612690000000043
11
158.4874989999999855
21
-147.9857529999999883
0
LINE
8
Edge.Cuts
6
CONTINUOUS
10
158.4874989999999855
20
-147.9857529999999883
11
158.1652699999999925
21
-147.7786689999999794
0
LINE
8
Edge.Cuts
6
CONTINUOUS
10
158.1652699999999925
20
-147.7786689999999794
11
157.864184999999992
21
-147.54189199999999
0
LINE
8
Edge.Cuts
6
CONTINUOUS
10
157.864184999999992
20
-147.54189199999999
11
157.5869689999999821
21
-147.2775680000000023
0
LINE
8
Edge.Cuts
6
CONTINUOUS
10
157.5869689999999821
20
-147.2775680000000023
11
157.3361349999999845
21
-146.9880899999999997
0
LINE
8
Edge.Cuts
6
CONTINUOUS
10
157.3361349999999845
20
-146.9880899999999997
11
157.1139529999999809
21
-146.6760789999999872
0
LINE
8
Edge.Cuts
6
CONTINUOUS
10
157.1139529999999809
20
-146.6760789999999872
11
156.9224360000000047
21
-146.3443609999999921
0
LINE
8
Edge.Cuts
6
CONTINUOUS
10
156.9224360000000047
20
-146.3443609999999921
11
156.7633179999999982
21
-145.9959399999999903
0
LINE
8
Edge.Cuts
6
CONTINUOUS
10
156.7633179999999982
20
-145.9959399999999903
11
156.6380399999999895
21
-145.633972
0
LINE
8
Edge.Cuts
6
CONTINUOUS
10
156.6380399999999895
20
-145.633972
11
156.5477359999999862
21
-145.2617349999999874
0
LINE
8
Edge.Cuts
6
CONTINUOUS
10
156.5477359999999862
20
-145.2617349999999874
11
156.4932249999999954
21
-144.882598999999999
0
LINE
8
Edge.Cuts
6
CONTINUOUS
10
156.4932249999999954
20
-144.882598999999999
11
156.4749999999999943
21
-144.499998000000005
0
LINE
8
Edge.Cuts
6
CONTINUOUS
10
156.4749999999999943
20
-144.499998000000005
11
156.4749999999999943
21
-144.3440850000000069
0
LINE
8
Edge.Cuts
6
CONTINUOUS
10
156.4749999999999943
20
-144.3440850000000069
11
156.4424049999999795
21
-144.0339669999999899
0
LINE
8
Edge.Cuts
6
CONTINUOUS
10
156.4424049999999795
20
-144.0339669999999899
11
156.3775729999999839
21
-143.7289549999999849
0
LINE
8
Edge.Cuts
6
CONTINUOUS
10
156.3775729999999839
20
-143.7289549999999849
11
156.2812129999999797
21
-143.4323909999999955
0
LINE
8
Edge.Cuts
6
CONTINUOUS
10
156.2812129999999797
20
-143.4323909999999955
11
156.1543810000000008
21
-143.1475240000000042
0
LINE
8
Edge.Cuts
6
CONTINUOUS
10
156.1543810000000008
20
-143.1475240000000042
11
155.9984680000000026
21
-142.8774740000000065
0
LINE
8
Edge.Cuts
6
CONTINUOUS
10
155.9984680000000026
20
-142.8774740000000065
11
155.8151809999999955
21
-142.6252020000000016
0
LINE
8
Edge.Cuts
6
CONTINUOUS
10
155.8151809999999955
20
-142.6252020000000016
11
155.6065289999999948
21
-142.3934700000000078
0
LINE
8
Edge.Cuts
6
CONTINUOUS
10
155.6065289999999948
20
-142.3934700000000078
11
155.3747970000000009
21
-142.1848169999999811
0
LINE
8
Edge.Cuts
6
CONTINUOUS
10
155.3747970000000009
20
-142.1848169999999811
11
155.1225239999999985
21
-142.0015309999999999
0
LINE
8
Edge.Cuts
6
CONTINUOUS
10
155.1225239999999985
20
-142.0015309999999999
11
154.8524749999999983
21
-141.8456180000000018
0
LINE
8
Edge.Cuts
6
CONTINUOUS
10
154.8524749999999983
20
-141.8456180000000018
11
154.5676069999999811
21
-141.7187869999999918
0
LINE
8
Edge.Cuts
6
CONTINUOUS
10
154.5676069999999811
20
-141.7187869999999918
11
154.2710429999999917
21
-141.6224269999999876
0
LINE
8
Edge.Cuts
6
CONTINUOUS
10
154.2710429999999917
20
-141.6224269999999876
11
153.9660309999999868
21
-141.5575949999999921
0
LINE
8
Edge.Cuts
6
CONTINUOUS
10
153.9660309999999868
20
-141.5575949999999921
11
153.6559129999999982
21
-141.5250000000000057
0
LINE
8
Edge.Cuts
6
CONTINUOUS
10
153.6559129999999982
20
-141.5250000000000057
11
153.5
21
-141.5250000000000057
0
LINE
8
Edge.Cuts
6
CONTINUOUS
10
153.5
20
-141.5250000000000057
11
153.4999619999999823
21
-141.5249869999999817
0
LINE
8
Edge.Cuts
6
CONTINUOUS
10
153.4999619999999823
20
-141.5249869999999817
11
153.4998989999999992
21
-141.5250000000000057
0
LINE
8
Edge.Cuts
6
CONTINUOUS
10
153.4998989999999992
20
-141.5250000000000057
11
151.019898999999981
21
-141.5149999999999864
0
LINE
8
Edge.Cuts
6
CONTINUOUS
10
151.019898999999981
20
-141.5149999999999864
11
151.0105319999999836
21
-141.5130969999999877
0
LINE
8
Edge.Cuts
6
CONTINUOUS
10
151.0105319999999836
20
-141.5130969999999877
11
151.0104330000000061
21
-141.5130969999999877
0
LINE
8
Edge.Cuts
6
CONTINUOUS
10
151.0104330000000061
20
-141.5130969999999877
11
151.0104069999999865
21
-141.5130709999999965
0
LINE
8
Edge.Cuts
6
CONTINUOUS
10
151.0104069999999865
20
-141.5130709999999965
11
151.0103399999999851
21
-141.5130580000000009
0
LINE
8
Edge.Cuts
6
CONTINUOUS
10
151.0103399999999851
20
-141.5130580000000009
11
151.0036639999999863
21
-141.5063279999999963
0
LINE
8
Edge.Cuts
6
CONTINUOUS
10
151.0036639999999863
20
-141.5063279999999963
11
150.9969030000000032
21
-141.4995669999999848
0
LINE
8
Edge.Cuts
6
CONTINUOUS
10
150.9969030000000032
20
-141.4995669999999848
11
150.9968889999999817
21
-141.4994979999999885
0
LINE
8
Edge.Cuts
6
CONTINUOUS
10
150.9968889999999817
20
-141.4994979999999885
11
150.9968649999999855
21
-141.4994739999999922
0
LINE
8
Edge.Cuts
6
CONTINUOUS
10
150.9968649999999855
20
-141.4994739999999922
11
150.9968649999999855
21
-141.4993769999999813
0
LINE
8
Edge.Cuts
6
CONTINUOUS
10
150.9968649999999855
20
-141.4993769999999813
11
150.9950000000000045
21
-141.4899999999999807
0
LINE
8
Edge.Cuts
6
CONTINUOUS
10
150.9950000000000045
20
-141.4899999999999807
11
150.9950000000000045
21
-138.5250000000000057
0
LINE
8
Edge.Cuts
6
CONTINUOUS
10
150.9950000000000045
20
-138.5250000000000057
11
131.9799999999999898
21
-138.5250000000000057
0
LINE
8
Edge.Cuts
6
CONTINUOUS
10
131.9799999999999898
20
-138.5250000000000057
11
131.9704329999999857
21
-138.523097000000007
0
LINE
8
Edge.Cuts
6
CONTINUOUS
10
131.9704329999999857
20
-138.523097000000007
11
131.9569029999999827
21
-138.5095670000000041
0
LINE
8
Edge.Cuts
6
CONTINUOUS
10
131.9569029999999827
20
-138.5095670000000041
11
131.9549999999999841
21
-138.5
0
LINE
8
Edge.Cuts
6
CONTINUOUS
10
131.9549999999999841
20
-138.5
11
131.9549999999999841
21
-136.5250000000000057
0
LINE
8
Edge.Cuts
6
CONTINUOUS
10
131.9549999999999841
20
-136.5250000000000057
11
81.5000039999999899
21
-136.5250000000000057
0
LINE
8
Edge.Cuts
6
CONTINUOUS
10
81.5000039999999899
20
-136.5250000000000057
11
81.3440909999999917
21
-136.5250000000000057
0
LINE
8
Edge.Cuts
6
CONTINUOUS
10
81.3440909999999917
20
-136.5250000000000057
11
81.0339730000000031
21
-136.5575939999999946
0
LINE
8
Edge.Cuts
6
CONTINUOUS
10
81.0339730000000031
20
-136.5575939999999946
11
80.7289609999999982
21
-136.6224269999999876
0
LINE
8
Edge.Cuts
6
CONTINUOUS
10
80.7289609999999982
20
-136.6224269999999876
11
80.4323959999999971
21
-136.7187859999999944
0
LINE
8
Edge.Cuts
6
CONTINUOUS
10
80.4323959999999971
20
-136.7187859999999944
11
80.1475289999999916
21
-136.8456170000000043
0
LINE
8
Edge.Cuts
6
CONTINUOUS
10
80.1475289999999916
20
-136.8456170000000043
11
79.8774799999999914
21
-137.0015300000000025
0
LINE
8
Edge.Cuts
6
CONTINUOUS
10
79.8774799999999914
20
-137.0015300000000025
11
79.6252070000000032
21
-137.1848169999999811
0
LINE
8
Edge.Cuts
6
CONTINUOUS
10
79.6252070000000032
20
-137.1848169999999811
11
79.3934749999999951
21
-137.3934689999999819
0
LINE
8
Edge.Cuts
6
CONTINUOUS
10
79.3934749999999951
20
-137.3934689999999819
11
79.1848219999999969
21
-137.6252010000000041
0
LINE
8
Edge.Cuts
6
CONTINUOUS
10
79.1848219999999969
20
-137.6252010000000041
11
79.0015349999999899
21
-137.8774740000000065
0
LINE
8
Edge.Cuts
6
CONTINUOUS
10
79.0015349999999899
20
-137.8774740000000065
11
78.8456219999999917
21
-138.1475230000000067
0
LINE
8
Edge.Cuts
6
CONTINUOUS
10
78.8456219999999917
20
-138.1475230000000067
11
78.7187899999999985
21
-138.4323909999999955
0
LINE
8
Edge.Cuts
6
CONTINUOUS
10
78.7187899999999985
20
-138.4323909999999955
11
78.6224309999999917
21
-138.7289549999999849
0
LINE
8
Edge.Cuts
6
CONTINUOUS
10
78.6224309999999917
20
-138.7289549999999849
11
78.5575979999999987
21
-139.0339669999999899
0
LINE
8
Edge.Cuts
6
CONTINUOUS
10
78.5575979999999987
20
-139.0339669999999899
11
78.5250029999999981
21
-139.3440850000000069
0
LINE
8
Edge.Cuts
6
CONTINUOUS
10
78.5250029999999981
20
-139.3440850000000069
11
78.5250029999999981
21
-139.499998000000005
0
LINE
8
Edge.Cuts
6
CONTINUOUS
10
78.5250029999999981
20
-139.499998000000005
11
78.5067779999999971
21
-139.882598999999999
0
LINE
8
Edge.Cuts
6
CONTINUOUS
10
78.5067779999999971
20
-139.882598999999999
11
78.452266999999992
21
-140.2617349999999874
0
LINE
8
Edge.Cuts
6
CONTINUOUS
10
78.452266999999992
20
-140.2617349999999874
11
78.3619630000000029
21
-140.633972
0
LINE
8
Edge.Cuts
6
CONTINUOUS
10
78.3619630000000029
20
-140.633972
11
78.2366849999999943
21
-140.9959399999999903
0
LINE
8
Edge.Cuts
6
CONTINUOUS
10
78.2366849999999943
20
-140.9959399999999903
11
78.0775670000000019
21
-141.3443609999999921
0
LINE
8
Edge.Cuts
6
CONTINUOUS
10
78.0775670000000019
20
-141.3443609999999921
11
77.8860499999999973
21
-141.6760789999999872
0
LINE
8
Edge.Cuts
6
CONTINUOUS
10
77.8860499999999973
20
-141.6760789999999872
11
77.6638679999999937
21
-141.9880899999999997
0
LINE
8
Edge.Cuts
6
CONTINUOUS
10
77.6638679999999937
20
-141.9880899999999997
11
77.4130339999999961
21
-142.2775680000000023
0
LINE
8
Edge.Cuts
6
CONTINUOUS
10
77.4130339999999961
20
-142.2775680000000023
11
77.1358180000000004
21
-142.54189199999999
0
LINE
8
Edge.Cuts
6
CONTINUOUS
10
77.1358180000000004
20
-142.54189199999999
11
76.8347329999999999
21
-142.7786689999999794
0
LINE
8
Edge.Cuts
6
CONTINUOUS
10
76.8347329999999999
20
-142.7786689999999794
11
76.5125039999999927
21
-142.9857529999999883
0
LINE
8
Edge.Cuts
6
CONTINUOUS
10
76.5125039999999927
20
-142.9857529999999883
11
76.1720490000000012
21
-143.1612690000000043
0
LINE
8
Edge.Cuts
6
CONTINUOUS
10
76.1720490000000012
20
-143.1612690000000043
11
75.8164519999999982
21
-143.3036290000000008
0
LINE
8
Edge.Cuts
6
CONTINUOUS
10
75.8164519999999982
20
-143.3036290000000008
11
75.4489329999999967
21
-143.4115419999999972
0
LINE
8
Edge.Cuts
6
CONTINUOUS
10
75.4489329999999967
20
-143.4115419999999972
11
75.072819999999993
21
-143.4840319999999849
0
LINE
8
Edge.Cuts
6
CONTINUOUS
10
75.072819999999993
20
-143.4840319999999849
11
74.691519999999997
21
-143.5204420000000027
0
LINE
8
Edge.Cuts
6
CONTINUOUS
10
74.691519999999997
20
-143.5204420000000027
11
74.308486000000002
21
-143.5204420000000027
0
LINE
8
Edge.Cuts
6
CONTINUOUS
10
74.308486000000002
20
-143.5204420000000027
11
73.9271859999999919
21
-143.4840319999999849
0
LINE
8
Edge.Cuts
6
CONTINUOUS
10
73.9271859999999919
20
-143.4840319999999849
11
73.5510730000000024
21
-143.4115419999999972
0
LINE
8
Edge.Cuts
6
CONTINUOUS
10
73.5510730000000024
20
-143.4115419999999972
11
73.1835540000000009
21
-143.3036290000000008
0
LINE
8
Edge.Cuts
6
CONTINUOUS
10
73.1835540000000009
20
-143.3036290000000008
11
72.8279569999999978
21
-143.1612690000000043
0
LINE
8
Edge.Cuts
6
CONTINUOUS
10
72.8279569999999978
20
-143.1612690000000043
11
72.4875019999999921
21
-142.9857529999999883
0
LINE
8
Edge.Cuts
6
CONTINUOUS
10
72.4875019999999921
20
-142.9857529999999883
11
72.1652729999999991
21
-142.7786689999999794
0
LINE
8
Edge.Cuts
6
CONTINUOUS
10
72.1652729999999991
20
-142.7786689999999794
11
71.8641879999999986
21
-142.54189199999999
0
LINE
8
Edge.Cuts
6
CONTINUOUS
10
71.8641879999999986
20
-142.54189199999999
11
71.5869720000000029
21
-142.2775680000000023
0
LINE
8
Edge.Cuts
6
CONTINUOUS
10
71.5869720000000029
20
-142.2775680000000023
11
71.3361379999999912
21
-141.9880899999999997
0
LINE
8
Edge.Cuts
6
CONTINUOUS
10
71.3361379999999912
20
-141.9880899999999997
11
71.1139560000000017
21
-141.6760789999999872
0
LINE
8
Edge.Cuts
6
CONTINUOUS
10
71.1139560000000017
20
-141.6760789999999872
11
70.9224389999999971
21
-141.3443609999999921
0
LINE
8
Edge.Cuts
6
CONTINUOUS
10
70.9224389999999971
20
-141.3443609999999921
11
70.7633209999999906
21
-140.9959399999999903
0
LINE
8
Edge.Cuts
6
CONTINUOUS
10
70.7633209999999906
20
-140.9959399999999903
11
70.6380429999999961
21
-140.633972
0
LINE
8
Edge.Cuts
6
CONTINUOUS
10
70.6380429999999961
20
-140.633972
11
70.5477389999999929
21
-140.2617349999999874
0
LINE
8
Edge.Cuts
6
CONTINUOUS
10
70.5477389999999929
20
-140.2617349999999874
11
70.493228000000002
21
-139.882598999999999
0
LINE
8
Edge.Cuts
6
CONTINUOUS
10
70.493228000000002
20
-139.882598999999999
11
70.475003000000001
21
-139.499998000000005
0
LINE
8
Edge.Cuts
6
CONTINUOUS
10
70.475003000000001
20
-139.499998000000005
11
70.475003000000001
21
-139.3440850000000069
0
LINE
8
Edge.Cuts
6
CONTINUOUS
10
70.475003000000001
20
-139.3440850000000069
11
70.4424080000000004
21
-139.0339669999999899
0
LINE
8
Edge.Cuts
6
CONTINUOUS
10
70.4424080000000004
20
-139.0339669999999899
11
70.3775759999999906
21
-138.7289549999999849
0
LINE
8
Edge.Cuts
6
CONTINUOUS
10
70.3775759999999906
20
-138.7289549999999849
11
70.2812160000000006
21
-138.4323909999999955
0
LINE
8
Edge.Cuts
6
CONTINUOUS
10
70.2812160000000006
20
-138.4323909999999955
11
70.1543839999999932
21
-138.1475240000000042
0
LINE
8
Edge.Cuts
6
CONTINUOUS
10
70.1543839999999932
20
-138.1475240000000042
11
69.998470999999995
21
-137.8774740000000065
0
LINE
8
Edge.Cuts
6
CONTINUOUS
10
69.998470999999995
20
-137.8774740000000065
11
69.8151840000000021
21
-137.6252020000000016
0
LINE
8
Edge.Cuts
6
CONTINUOUS
10
69.8151840000000021
20
-137.6252020000000016
11
69.6065320000000014
21
-137.3934700000000078
0
LINE
8
Edge.Cuts
6
CONTINUOUS
10
69.6065320000000014
20
-137.3934700000000078
11
69.3747999999999934
21
-137.1848169999999811
0
LINE
8
Edge.Cuts
6
CONTINUOUS
10
69.3747999999999934
20
-137.1848169999999811
11
69.1225269999999909
21
-137.0015309999999999
0
LINE
8
Edge.Cuts
6
CONTINUOUS
10
69.1225269999999909
20
-137.0015309999999999
11
68.8524779999999907
21
-136.8456180000000018
0
LINE
8
Edge.Cuts
6
CONTINUOUS
10
68.8524779999999907
20
-136.8456180000000018
11
68.5676100000000019
21
-136.7187869999999918
0
LINE
8
Edge.Cuts
6
CONTINUOUS
10
68.5676100000000019
20
-136.7187869999999918
11
68.2710459999999983
21
-136.6224269999999876
0
LINE
8
Edge.Cuts
6
CONTINUOUS
10
68.2710459999999983
20
-136.6224269999999876
11
67.9660339999999934
21
-136.5575949999999921
0
LINE
8
Edge.Cuts
6
CONTINUOUS
10
67.9660339999999934
20
-136.5575949999999921
11
67.6559159999999906
21
-136.5250000000000057
0
LINE
8
Edge.Cuts
6
CONTINUOUS
10
67.6559159999999906
20
-136.5250000000000057
11
67.5000029999999924
21
-136.5250000000000057
0
LINE
8
Edge.Cuts
6
CONTINUOUS
10
67.5000029999999924
20
-136.5250000000000057
11
65.019999999999996
21
-136.5250000000000057
0
LINE
8
Edge.Cuts
6
CONTINUOUS
10
65.019999999999996
20
-136.5250000000000057
11
65.0104429999999951
21
-136.5230980000000045
0
LINE
8
Edge.Cuts
6
CONTINUOUS
10
65.0104429999999951
20
-136.5230980000000045
11
65.010438999999991
21
-136.523099000000002
0
LINE
8
Edge.Cuts
6
CONTINUOUS
10
65.010438999999991
20
-136.523099000000002
11
65.010436999999996
21
-136.523097000000007
0
LINE
8
Edge.Cuts
6
CONTINUOUS
10
65.010436999999996
20
-136.523097000000007
11
65.0104329999999919
21
-136.523097000000007
0
LINE
8
Edge.Cuts
6
CONTINUOUS
10
65.0104329999999919
20
-136.523097000000007
11
65.0027049999999917
21
-136.5153689999999926
0
LINE
8
Edge.Cuts
6
CONTINUOUS
10
65.0027049999999917
20
-136.5153689999999926
11
64.9969049999999982
21
-136.5095719999999915
0
LINE
8
Edge.Cuts
6
CONTINUOUS
10
64.9969049999999982
20
-136.5095719999999915
11
64.9969040000000007
21
-136.5095680000000016
0
LINE
8
Edge.Cuts
6
CONTINUOUS
10
64.9969040000000007
20
-136.5095680000000016
11
64.9969030000000032
21
-136.5095670000000041
0
LINE
8
Edge.Cuts
6
CONTINUOUS
10
64.9969030000000032
20
-136.5095670000000041
11
64.9969030000000032
21
-136.5095609999999908
0
LINE
8
Edge.Cuts
6
CONTINUOUS
10
64.9969030000000032
20
-136.5095609999999908
11
64.9949999999999903
21
-136.5000059999999849
0
LINE
8
Edge.Cuts
6
CONTINUOUS
10
64.9949999999999903
20
-136.5000059999999849
11
64.9749999999999943
21
-55.4900059999999939
0
LINE
8
Edge.Cuts
6
CONTINUOUS
10
64.9749999999999943
20
-55.4900059999999939
11
64.976900999999998
21
-55.480438999999997
0
LINE
8
Edge.Cuts
6
CONTINUOUS
10
64.976900999999998
20
-55.480438999999997
11
64.976939999999999
21
-55.4803989999999985
0
LINE
8
Edge.Cuts
6
CONTINUOUS
10
64.976939999999999
20
-55.4803989999999985
11
64.9769409999999965
21
-55.4803409999999957
0
LINE
8
Edge.Cuts
6
CONTINUOUS
10
64.9769409999999965
20
-55.4803409999999957
11
64.9837279999999993
21
-55.4736069999999941
0
LINE
8
Edge.Cuts
6
CONTINUOUS
10
64.9837279999999993
20
-55.4736069999999941
11
64.9904269999999968
21
-55.466904999999997
0
LINE
8
Edge.Cuts
6
CONTINUOUS
10
64.9904269999999968
20
-55.466904999999997
11
64.990483999999995
21
-55.4669039999999995
0
LINE
8
Edge.Cuts
6
CONTINUOUS
10
64.990483999999995
20
-55.4669039999999995
11
64.990524999999991
21
-55.4668649999999985
0
LINE
8
Edge.Cuts
6
CONTINUOUS
10
64.990524999999991
20
-55.4668649999999985
11
65.0001000000000033
21
-55.4649999999999963
0
LINE
8
Edge.Cuts
6
CONTINUOUS
10
65.0001000000000033
20
-55.4649999999999963
11
67.5001000000000033
21
-55.4749999999999943
0
LINE
8
Edge.Cuts
6
CONTINUOUS
10
67.5001000000000033
20
-55.4749999999999943
11
67.6559129999999982
21
-55.4749999999999943
0
LINE
8
Edge.Cuts
6
CONTINUOUS
10
67.6559129999999982
20
-55.4749999999999943
11
67.966031000000001
21
-55.4424050000000008
0
LINE
8
Edge.Cuts
6
CONTINUOUS
10
67.966031000000001
20
-55.4424050000000008
11
68.2710429999999917
21
-55.3775729999999982
0
LINE
8
Edge.Cuts
6
CONTINUOUS
10
68.2710429999999917
20
-55.3775729999999982
11
68.5676079999999928
21
-55.281213000000001
0
LINE
8
Edge.Cuts
6
CONTINUOUS
10
68.5676079999999928
20
-55.281213000000001
11
68.8524749999999983
21
-55.1543819999999982
0
LINE
8
Edge.Cuts
6
CONTINUOUS
10
68.8524749999999983
20
-55.1543819999999982
11
69.122524999999996
21
-54.9984690000000001
0
LINE
8
Edge.Cuts
6
CONTINUOUS
10
69.122524999999996
20
-54.9984690000000001
11
69.3747970000000009
21
-54.8151820000000001
0
LINE
8
Edge.Cuts
6
CONTINUOUS
10
69.3747970000000009
20
-54.8151820000000001
11
69.6065289999999948
21
-54.6065289999999948
0
LINE
8
Edge.Cuts
6
CONTINUOUS
10
69.6065289999999948
20
-54.6065289999999948
11
69.815181999999993
21
-54.3747970000000009
0
LINE
8
Edge.Cuts
6
CONTINUOUS
10
69.815181999999993
20
-54.3747970000000009
11
69.9984690000000001
21
-54.122524999999996
0
LINE
8
Edge.Cuts
6
CONTINUOUS
10
69.9984690000000001
20
-54.122524999999996
11
70.1543819999999982
21
-53.8524749999999983
0
LINE
8
Edge.Cuts
6
CONTINUOUS
10
70.1543819999999982
20
-53.8524749999999983
11
70.2812129999999939
21
-53.5676079999999999
0
LINE
8
Edge.Cuts
6
CONTINUOUS
10
70.2812129999999939
20
-53.5676079999999999
11
70.3775729999999982
21
-53.2710429999999988
0
LINE
8
Edge.Cuts
6
CONTINUOUS
10
70.3775729999999982
20
-53.2710429999999988
11
70.4424049999999937
21
-52.966031000000001
0
LINE
8
Edge.Cuts
6
CONTINUOUS
10
70.4424049999999937
20
-52.966031000000001
11
70.4749999999999943
21
-52.6559129999999982
0
LINE
8
Edge.Cuts
6
CONTINUOUS
10
70.4749999999999943
20
-52.6559129999999982
11
70.4749999999999943
21
-52.5
0
LINE
8
Edge.Cuts
6
CONTINUOUS
10
70.4749999999999943
20
-52.5
11
70.4932259999999928
21
-52.1173989999999989
0
LINE
8
Edge.Cuts
6
CONTINUOUS
10
70.4932259999999928
20
-52.1173989999999989
11
70.5477369999999979
21
-51.7382640000000009
0
LINE
8
Edge.Cuts
6
CONTINUOUS
10
70.5477369999999979
20
-51.7382640000000009
11
70.6380410000000012
21
-51.366025999999998
0
LINE
8
Edge.Cuts
6
CONTINUOUS
10
70.6380410000000012
20
-51.366025999999998
11
70.7633189999999956
21
-51.004058999999998
0
LINE
8
Edge.Cuts
6
CONTINUOUS
10
70.7633189999999956
20
-51.004058999999998
11
70.9224370000000022
21
-50.6556379999999962
0
LINE
8
Edge.Cuts
6
CONTINUOUS
10
70.9224370000000022
20
-50.6556379999999962
11
71.11395499999999
21
-50.3239209999999986
0
LINE
8
Edge.Cuts
6
CONTINUOUS
10
71.11395499999999
20
-50.3239209999999986
11
71.3361359999999962
21
-50.0119100000000003
0
LINE
8
Edge.Cuts
6
CONTINUOUS
10
71.3361359999999962
20
-50.0119100000000003
11
71.5869699999999938
21
-49.7224319999999977
0
LINE
8
Edge.Cuts
6
CONTINUOUS
10
71.5869699999999938
20
-49.7224319999999977
11
71.8641860000000037
21
-49.4581079999999957
0
LINE
8
Edge.Cuts
6
CONTINUOUS
10
71.8641860000000037
20
-49.4581079999999957
11
72.16527099999999
21
-49.2213319999999968
0
LINE
8
Edge.Cuts
6
CONTINUOUS
10
72.16527099999999
20
-49.2213319999999968
11
72.4874999999999972
21
-49.0142479999999949
0
LINE
8
Edge.Cuts
6
CONTINUOUS
10
72.4874999999999972
20
-49.0142479999999949
11
72.8279550000000029
21
-48.8387309999999957
0
LINE
8
Edge.Cuts
6
CONTINUOUS
10
72.8279550000000029
20
-48.8387309999999957
11
73.1835509999999942
21
-48.6963719999999967
0
LINE
8
Edge.Cuts
6
CONTINUOUS
10
73.1835509999999942
20
-48.6963719999999967
11
73.5510699999999957
21
-48.5884579999999957
0
LINE
8
Edge.Cuts
6
CONTINUOUS
10
73.5510699999999957
20
-48.5884579999999957
11
73.9271829999999994
21
-48.5159689999999983
0
LINE
8
Edge.Cuts
6
CONTINUOUS
10
73.9271829999999994
20
-48.5159689999999983
11
74.3084829999999954
21
-48.4795589999999947
0
LINE
8
Edge.Cuts
6
CONTINUOUS
10
74.3084829999999954
20
-48.4795589999999947
11
74.6915169999999904
21
-48.4795589999999947
0
LINE
8
Edge.Cuts
6
CONTINUOUS
10
74.6915169999999904
20
-48.4795589999999947
11
75.0728170000000006
21
-48.5159689999999983
0
LINE
8
Edge.Cuts
6
CONTINUOUS
10
75.0728170000000006
20
-48.5159689999999983
11
75.4489299999999901
21
-48.5884579999999957
0
LINE
8
Edge.Cuts
6
CONTINUOUS
10
75.4489299999999901
20
-48.5884579999999957
11
75.8164489999999915
21
-48.6963719999999967
0
LINE
8
Edge.Cuts
6
CONTINUOUS
10
75.8164489999999915
20
-48.6963719999999967
11
76.1720449999999971
21
-48.8387309999999957
0
LINE
8
Edge.Cuts
6
CONTINUOUS
10
76.1720449999999971
20
-48.8387309999999957
11
76.5125000000000028
21
-49.0142479999999949
0
LINE
8
Edge.Cuts
6
CONTINUOUS
10
76.5125000000000028
20
-49.0142479999999949
11
76.8347289999999958
21
-49.2213319999999968
0
LINE
8
Edge.Cuts
6
CONTINUOUS
10
76.8347289999999958
20
-49.2213319999999968
11
77.1358139999999963
21
-49.4581079999999957
0
LINE
8
Edge.Cuts
6
CONTINUOUS
10
77.1358139999999963
20
-49.4581079999999957
11
77.413029999999992
21
-49.7224319999999977
0
LINE
8
Edge.Cuts
6
CONTINUOUS
10
77.413029999999992
20
-49.7224319999999977
11
77.6638639999999896
21
-50.0119100000000003
0
LINE
8
Edge.Cuts
6
CONTINUOUS
10
77.6638639999999896
20
-50.0119100000000003
11
77.8860449999999958
21
-50.3239209999999986
0
LINE
8
Edge.Cuts
6
CONTINUOUS
10
77.8860449999999958
20
-50.3239209999999986
11
78.0775629999999978
21
-50.6556379999999962
0
LINE
8
Edge.Cuts
6
CONTINUOUS
10
78.0775629999999978
20
-50.6556379999999962
11
78.2366809999999901
21
-51.004058999999998
0
LINE
8
Edge.Cuts
6
CONTINUOUS
10
78.2366809999999901
20
-51.004058999999998
11
78.3619589999999988
21
-51.366025999999998
0
LINE
8
Edge.Cuts
6
CONTINUOUS
10
78.3619589999999988
20
-51.366025999999998
11
78.4522630000000021
21
-51.7382640000000009
0
LINE
8
Edge.Cuts
6
CONTINUOUS
10
78.4522630000000021
20
-51.7382640000000009
11
78.506773999999993
21
-52.1173989999999989
0
LINE
8
Edge.Cuts
6
CONTINUOUS
10
78.506773999999993
20
-52.1173989999999989
11
78.5249999999999915
21
-52.5
0
LINE
8
Edge.Cuts
6
CONTINUOUS
10
78.5249999999999915
20
-52.5
11
78.5249999999999915
21
-52.6559129999999982
0
LINE
8
Edge.Cuts
6
CONTINUOUS
10
78.5249999999999915
20
-52.6559129999999982
11
78.5575949999999921
21
-52.966031000000001
0
LINE
8
Edge.Cuts
6
CONTINUOUS
10
78.5575949999999921
20
-52.966031000000001
11
78.6224270000000018
21
-53.2710429999999988
0
LINE
8
Edge.Cuts
6
CONTINUOUS
10
78.6224270000000018
20
-53.2710429999999988
11
78.7187869999999918
21
-53.5676079999999999
0
LINE
8
Edge.Cuts
6
CONTINUOUS
10
78.7187869999999918
20
-53.5676079999999999
11
78.8456180000000018
21
-53.8524749999999983
0
LINE
8
Edge.Cuts
6
CONTINUOUS
10
78.8456180000000018
20
-53.8524749999999983
11
79.0015309999999999
21
-54.122524999999996
0
LINE
8
Edge.Cuts
6
CONTINUOUS
10
79.0015309999999999
20
-54.122524999999996
11
79.1848179999999928
21
-54.3747970000000009
0
LINE
8
Edge.Cuts
6
CONTINUOUS
10
79.1848179999999928
20
-54.3747970000000009
11
79.393470999999991
21
-54.6065289999999948
0
LINE
8
Edge.Cuts
6
CONTINUOUS
10
79.393470999999991
20
-54.6065289999999948
11
79.6252029999999991
21
-54.8151820000000001
0
LINE
8
Edge.Cuts
6
CONTINUOUS
10
79.6252029999999991
20
-54.8151820000000001
11
79.8774749999999898
21
-54.9984690000000001
0
LINE
8
Edge.Cuts
6
CONTINUOUS
10
79.8774749999999898
20
-54.9984690000000001
11
80.1475250000000017
21
-55.1543819999999982
0
LINE
8
Edge.Cuts
6
CONTINUOUS
10
80.1475250000000017
20
-55.1543819999999982
11
80.432391999999993
21
-55.281213000000001
0
LINE
8
Edge.Cuts
6
CONTINUOUS
10
80.432391999999993
20
-55.281213000000001
11
80.7289569999999941
21
-55.3775729999999982
0
LINE
8
Edge.Cuts
6
CONTINUOUS
10
80.7289569999999941
20
-55.3775729999999982
11
81.033968999999999
21
-55.4424050000000008
0
LINE
8
Edge.Cuts
6
CONTINUOUS
10
81.033968999999999
20
-55.4424050000000008
11
81.3440870000000018
21
-55.4749999999999943
0
LINE
8
Edge.Cuts
6
CONTINUOUS
10
81.3440870000000018
20
-55.4749999999999943
11
81.5
21
-55.4749999999999943
0
LINE
8
Edge.Cuts
6
CONTINUOUS
10
81.5
20
-55.4749999999999943
11
83.9449999999999932
21
-55.4749999999999943
0
LINE
8
Edge.Cuts
6
CONTINUOUS
10
83.9449999999999932
20
-55.4749999999999943
11
83.9449999999999932
21
-51.5
0
LINE
8
Edge.Cuts
6
CONTINUOUS
10
83.9449999999999932
20
-51.5
11
83.9469029999999918
21
-51.4904329999999959
0
LINE
8
Edge.Cuts
6
CONTINUOUS
10
83.9469029999999918
20
-51.4904329999999959
11
83.9604329999999948
21
-51.4769030000000001
0
LINE
8
Edge.Cuts
6
CONTINUOUS
10
83.9604329999999948
20
-51.4769030000000001
11
83.9699999999999989
21
-51.4749999999999943
0
LINE
8
Edge.Cuts
6
CONTINUOUS
10
83.9699999999999989
20
-51.4749999999999943
11
102.9749999999999943
21
-51.4749999999999943
0
LINE
8
Edge.Cuts
6
CONTINUOUS
10
102.9749999999999943
20
-51.4749999999999943
11
102.9749999999999943
21
-48.4699999999999989
0
LINE
8
Edge.Cuts
6
CONTINUOUS
10
102.9749999999999943
20
-48.4699999999999989
11
102.976902999999993
21
-48.4604329999999948
0
LINE
8
Edge.Cuts
6
CONTINUOUS
10
102.976902999999993
20
-48.4604329999999948
11
102.9904329999999959
21
-48.4469029999999989
0
LINE
8
Edge.Cuts
6
CONTINUOUS
10
102.9904329999999959
20
-48.4469029999999989
11
103.0095669999999899
21
-48.4469029999999989
0
LINE
8
Edge.Cuts
6
CONTINUOUS
10
103.0095669999999899
20
-48.4469029999999989
11
103.0230969999999928
21
-48.4604329999999948
0
LINE
8
Edge.Cuts
6
CONTINUOUS
10
103.0249999999999915
20
-48.5249999999999986
11
103.0249999999999915
21
-51.5
0
LINE
8
Edge.Cuts
6
CONTINUOUS
10
103.0249999999999915
20
-51.5
11
103.0230969999999928
21
-51.509566999999997
0
LINE
8
Edge.Cuts
6
CONTINUOUS
10
103.0230969999999928
20
-51.509566999999997
11
103.0095669999999899
21
-51.5230969999999999
0
LINE
8
Edge.Cuts
6
CONTINUOUS
10
103.0095669999999899
20
-51.5230969999999999
11
103.
21
-51.5249999999999986
0
LINE
8
Edge.Cuts
6
CONTINUOUS
10
103.
20
-51.5249999999999986
11
83.9949999999999903
21
-51.5249999999999986
0
LINE
8
Edge.Cuts
6
CONTINUOUS
10
83.9949999999999903
20
-51.5249999999999986
11
83.9949999999999903
21
-55.5
0
LINE
8
Edge.Cuts
6
CONTINUOUS
10
83.9949999999999903
20
-55.5
11
83.9930969999999917
21
-55.509566999999997
0
LINE
8
Edge.Cuts
6
CONTINUOUS
10
83.9930969999999917
20
-55.509566999999997
11
83.979567000000003
21
-55.5230969999999999
0
LINE
8
Edge.Cuts
6
CONTINUOUS
10
83.979567000000003
20
-55.5230969999999999
11
83.9699999999999989
21
-55.5249999999999986
0
LINE
8
Edge.Cuts
6
CONTINUOUS
10
83.9699999999999989
20
-55.5249999999999986
11
81.5
21
-55.5249999999999986
0
LINE
8
Edge.Cuts
6
CONTINUOUS
10
81.5
20
-55.5249999999999986
11
81.1838010000000025
21
-55.5084289999999996
0
LINE
8
Edge.Cuts
6
CONTINUOUS
10
81.1838010000000025
20
-55.5084289999999996
11
80.8710669999999965
21
-55.4588959999999958
0
LINE
8
Edge.Cuts
6
CONTINUOUS
10
80.8710669999999965
20
-55.4588959999999958
11
80.5652240000000006
21
-55.3769459999999967
0
LINE
8
Edge.Cuts
6
CONTINUOUS
10
80.5652240000000006
20
-55.3769459999999967
11
80.2696219999999983
21
-55.2634749999999997
0
LINE
8
Edge.Cuts
6
CONTINUOUS
10
80.2696219999999983
20
-55.2634749999999997
11
79.9874999999999972
21
-55.119726
0
LINE
8
Edge.Cuts
6
CONTINUOUS
10
79.9874999999999972
20
-55.119726
11
79.7219499999999925
21
-54.9472759999999951
0
LINE
8
Edge.Cuts
6
CONTINUOUS
10
79.7219499999999925
20
-54.9472759999999951
11
79.4758799999999894
21
-54.7480130000000003
0
LINE
8
Edge.Cuts
6
CONTINUOUS
10
79.4758799999999894
20
-54.7480130000000003
11
79.2519869999999997
21
-54.5241199999999964
0
LINE
8
Edge.Cuts
6
CONTINUOUS
10
79.2519869999999997
20
-54.5241199999999964
11
79.0527239999999978
21
-54.2780500000000004
0
LINE
8
Edge.Cuts
6
CONTINUOUS
10
79.0527239999999978
20
-54.2780500000000004
11
78.880274
21
-54.0124999999999957
0
LINE
8
Edge.Cuts
6
CONTINUOUS
10
78.880274
20
-54.0124999999999957
11
78.7365250000000003
21
-53.7303779999999946
0
LINE
8
Edge.Cuts
6
CONTINUOUS
10
78.7365250000000003
20
-53.7303779999999946
11
78.6230539999999962
21
-53.4347759999999994
0
LINE
8
Edge.Cuts
6
CONTINUOUS
10
78.6230539999999962
20
-53.4347759999999994
11
78.54110399999999
21
-53.1289329999999964
0
LINE
8
Edge.Cuts
6
CONTINUOUS
10
78.54110399999999
20
-53.1289329999999964
11
78.4915709999999933
21
-52.8161989999999975
0
LINE
8
Edge.Cuts
6
CONTINUOUS
10
78.4915709999999933
20
-52.8161989999999975
11
78.4749999999999943
21
-52.5
0
LINE
8
Edge.Cuts
6
CONTINUOUS
10
78.4749999999999943
20
-52.5
11
78.4749999999999943
21
-52.3047210000000007
0
LINE
8
Edge.Cuts
6
CONTINUOUS
10
78.4749999999999943
20
-52.3047210000000007
11
78.4367189999999965
21
-51.9160429999999948
0
LINE
8
Edge.Cuts
6
CONTINUOUS
10
78.4367189999999965
20
-51.9160429999999948
11
78.3605249999999955
21
-51.5329890000000006
0
LINE
8
Edge.Cuts
6
CONTINUOUS
10
78.3605249999999955
20
-51.5329890000000006
11
78.2471510000000023
21
-51.1592479999999981
0
LINE
8
Edge.Cuts
6
CONTINUOUS
10
78.2471510000000023
20
-51.1592479999999981
11
78.0976909999999975
21
-50.7984189999999955
0
LINE
8
Edge.Cuts
6
CONTINUOUS
10
78.0976909999999975
20
-50.7984189999999955
11
77.9135830000000027
21
-50.4539769999999947
0
LINE
8
Edge.Cuts
6
CONTINUOUS
10
77.9135830000000027
20
-50.4539769999999947
11
77.6966010000000011
21
-50.1292389999999983
0
LINE
8
Edge.Cuts
6
CONTINUOUS
10
77.6966010000000011
20
-50.1292389999999983
11
77.4488329999999934
21
-49.8273340000000005
0
LINE
8
Edge.Cuts
6
CONTINUOUS
10
77.4488329999999934
20
-49.8273340000000005
11
77.1726659999999924
21
-49.5511669999999995
0
LINE
8
Edge.Cuts
6
CONTINUOUS
10
77.1726659999999924
20
-49.5511669999999995
11
76.8707610000000017
21
-49.3033989999999989
0
LINE
8
Edge.Cuts
6
CONTINUOUS
10
76.8707610000000017
20
-49.3033989999999989
11
76.546022999999991
21
-49.0864169999999973
0
LINE
8
Edge.Cuts
6
CONTINUOUS
10
76.546022999999991
20
-49.0864169999999973
11
76.2015809999999902
21
-48.9023089999999954
0
LINE
8
Edge.Cuts
6
CONTINUOUS
10
76.2015809999999902
20
-48.9023089999999954
11
75.8407519999999948
21
-48.7528489999999977
0
LINE
8
Edge.Cuts
6
CONTINUOUS
10
75.8407519999999948
20
-48.7528489999999977
11
75.4670109999999994
21
-48.6394749999999974
0
LINE
8
Edge.Cuts
6
CONTINUOUS
10
75.4670109999999994
20
-48.6394749999999974
11
75.0839569999999981
21
-48.5632809999999964
0
LINE
8
Edge.Cuts
6
CONTINUOUS
10
75.0839569999999981
20
-48.5632809999999964
11
74.6952789999999993
21
-48.5249999999999986
0
LINE
8
Edge.Cuts
6
CONTINUOUS
10
74.6952789999999993
20
-48.5249999999999986
11
74.3047210000000007
21
-48.5249999999999986
0
LINE
8
Edge.Cuts
6
CONTINUOUS
10
74.3047210000000007
20
-48.5249999999999986
11
73.9160430000000019
21
-48.5632809999999964
0
LINE
8
Edge.Cuts
6
CONTINUOUS
10
73.9160430000000019
20
-48.5632809999999964
11
73.5329890000000006
21
-48.6394749999999974
0
LINE
8
Edge.Cuts
6
CONTINUOUS
10
73.5329890000000006
20
-48.6394749999999974
11
73.159247999999991
21
-48.7528489999999977
0
LINE
8
Edge.Cuts
6
CONTINUOUS
10
73.159247999999991
20
-48.7528489999999977
11
72.7984189999999955
21
-48.9023089999999954
0
LINE
8
Edge.Cuts
6
CONTINUOUS
10
72.7984189999999955
20
-48.9023089999999954
11
72.4539769999999947
21
-49.0864169999999973
0
LINE
8
Edge.Cuts
6
CONTINUOUS
10
72.4539769999999947
20
-49.0864169999999973
11
72.1292389999999983
21
-49.3033989999999989
0
LINE
8
Edge.Cuts
6
CONTINUOUS
10
72.1292389999999983
20
-49.3033989999999989
11
71.8273339999999934
21
-49.5511669999999995
0
LINE
8
Edge.Cuts
6
CONTINUOUS
10
71.8273339999999934
20
-49.5511669999999995
11
71.5511669999999924
21
-49.8273340000000005
0
LINE
8
Edge.Cuts
6
CONTINUOUS
10
71.5511669999999924
20
-49.8273340000000005
11
71.3033989999999989
21
-50.1292389999999983
0
LINE
8
Edge.Cuts
6
CONTINUOUS
10
71.3033989999999989
20
-50.1292389999999983
11
71.0864169999999973
21
-50.4539769999999947
0
LINE
8
Edge.Cuts
6
CONTINUOUS
10
71.0864169999999973
20
-50.4539769999999947
11
70.9023090000000025
21
-50.7984189999999955
0
LINE
8
Edge.Cuts
6
CONTINUOUS
10
70.9023090000000025
20
-50.7984189999999955
11
70.7528489999999977
21
-51.1592479999999981
0
LINE
8
Edge.Cuts
6
CONTINUOUS
10
70.7528489999999977
20
-51.1592479999999981
11
70.6394749999999902
21
-51.5329890000000006
0
LINE
8
Edge.Cuts
6
CONTINUOUS
10
70.6394749999999902
20
-51.5329890000000006
11
70.5632810000000035
21
-51.9160429999999948
0
LINE
8
Edge.Cuts
6
CONTINUOUS
10
70.5632810000000035
20
-51.9160429999999948
11
70.5249999999999915
21
-52.3047210000000007
0
LINE
8
Edge.Cuts
6
CONTINUOUS
10
70.5249999999999915
20
-52.3047210000000007
11
70.5249999999999915
21
-52.5
0
LINE
8
Edge.Cuts
6
CONTINUOUS
10
70.5249999999999915
20
-52.5
11
70.5084289999999925
21
-52.8161989999999975
0
LINE
8
Edge.Cuts
6
CONTINUOUS
10
70.5084289999999925
20
-52.8161989999999975
11
70.4588959999999958
21
-53.1289329999999964
0
LINE
8
Edge.Cuts
6
CONTINUOUS
10
70.4588959999999958
20
-53.1289329999999964
11
70.3769460000000038
21
-53.4347759999999994
0
LINE
8
Edge.Cuts
6
CONTINUOUS
10
70.3769460000000038
20
-53.4347759999999994
11
70.2634749999999997
21
-53.7303779999999946
0
LINE
8
Edge.Cuts
6
CONTINUOUS
10
70.2634749999999997
20
-53.7303779999999946
11
70.119726
21
-54.0124999999999957
0
LINE
8
Edge.Cuts
6
CONTINUOUS
10
70.119726
20
-54.0124999999999957
11
69.9472760000000022
21
-54.2780500000000004
0
LINE
8
Edge.Cuts
6
CONTINUOUS
10
69.9472760000000022
20
-54.2780500000000004
11
69.7480130000000003
21
-54.5241199999999964
0
LINE
8
Edge.Cuts
6
CONTINUOUS
10
69.7480130000000003
20
-54.5241199999999964
11
69.5241199999999964
21
-54.7480130000000003
0
LINE
8
Edge.Cuts
6
CONTINUOUS
10
69.5241199999999964
20
-54.7480130000000003
11
69.2780499999999932
21
-54.9472759999999951
0
LINE
8
Edge.Cuts
6
CONTINUOUS
10
69.2780499999999932
20
-54.9472759999999951
11
69.0125000000000028
21
-55.119726
0
LINE
8
Edge.Cuts
6
CONTINUOUS
10
69.0125000000000028
20
-55.119726
11
68.7303780000000017
21
-55.2634749999999997
0
LINE
8
Edge.Cuts
6
CONTINUOUS
10
68.7303780000000017
20
-55.2634749999999997
11
68.4347759999999994
21
-55.3769459999999967
0
LINE
8
Edge.Cuts
6
CONTINUOUS
10
68.4347759999999994
20
-55.3769459999999967
11
68.1289330000000035
21
-55.4588959999999958
0
LINE
8
Edge.Cuts
6
CONTINUOUS
10
68.1289330000000035
20
-55.4588959999999958
11
67.8161989999999975
21
-55.5084289999999996
0
LINE
8
Edge.Cuts
6
CONTINUOUS
10
67.8161989999999975
20
-55.5084289999999996
11
67.5
21
-55.5249999999999986
0
LINE
8
Edge.Cuts
6
CONTINUOUS
10
67.5
20
-55.5249999999999986
11
67.4999619999999965
21
-55.5249869999999959
0
LINE
8
Edge.Cuts
6
CONTINUOUS
10
67.4999619999999965
20
-55.5249869999999959
11
67.4998999999999967
21
-55.5249999999999986
0
LINE
8
Edge.Cuts
6
CONTINUOUS
10
67.4998999999999967
20
-55.5249999999999986
11
65.0250059999999905
21
-55.5150999999999968
0
LINE
8
Edge.Cuts
6
CONTINUOUS
10
65.0250059999999905
20
-55.5150999999999968
11
65.0449940000000026
21
-136.4749999999999943
0
LINE
8
Edge.Cuts
6
CONTINUOUS
10
65.0449940000000026
20
-136.4749999999999943
11
67.5000029999999924
21
-136.4749999999999943
0
LINE
8
Edge.Cuts
6
CONTINUOUS
10
67.5000029999999924
20
-136.4749999999999943
11
67.8162009999999924
21
-136.4915709999999933
0
LINE
8
Edge.Cuts
6
CONTINUOUS
10
67.8162009999999924
20
-136.4915709999999933
11
68.1289359999999959
21
-136.54110399999999
0
LINE
8
Edge.Cuts
6
CONTINUOUS
10
68.1289359999999959
20
-136.54110399999999
11
68.4347789999999918
21
-136.6230539999999962
0
LINE
8
Edge.Cuts
6
CONTINUOUS
10
68.4347789999999918
20
-136.6230539999999962
11
68.7303809999999942
21
-136.7365250000000003
0
LINE
8
Edge.Cuts
6
CONTINUOUS
10
68.7303809999999942
20
-136.7365250000000003
11
69.0125019999999978
21
-136.8802729999999883
0
LINE
8
Edge.Cuts
6
CONTINUOUS
10
69.0125019999999978
20
-136.8802729999999883
11
69.2780520000000024
21
-137.0527229999999861
0
LINE
8
Edge.Cuts
6
CONTINUOUS
10
69.2780520000000024
20
-137.0527229999999861
11
69.5241219999999913
21
-137.2519869999999855
0
LINE
8
Edge.Cuts
6
CONTINUOUS
10
69.5241219999999913
20
-137.2519869999999855
11
69.7480149999999952
21
-137.4758789999999919
0
LINE
8
Edge.Cuts
6
CONTINUOUS
10
69.7480149999999952
20
-137.4758789999999919
11
69.9472779999999972
21
-137.7219489999999951
0
LINE
8
Edge.Cuts
6
CONTINUOUS
10
69.9472779999999972
20
-137.7219489999999951
11
70.1197289999999924
21
-137.9874989999999855
0
LINE
8
Edge.Cuts
6
CONTINUOUS
10
70.1197289999999924
20
-137.9874989999999855
11
70.2634769999999946
21
-138.2696200000000033
0
LINE
8
Edge.Cuts
6
CONTINUOUS
10
70.2634769999999946
20
-138.2696200000000033
11
70.3769479999999987
21
-138.5652220000000057
0
LINE
8
Edge.Cuts
6
CONTINUOUS
10
70.3769479999999987
20
-138.5652220000000057
11
70.4588990000000024
21
-138.8710659999999848
0
LINE
8
Edge.Cuts
6
CONTINUOUS
10
70.4588990000000024
20
-138.8710659999999848
11
70.5084310000000016
21
-139.1837999999999909
0
LINE
8
Edge.Cuts
6
CONTINUOUS
10
70.5084310000000016
20
-139.1837999999999909
11
70.5250029999999981
21
-139.499998000000005
0
LINE
8
Edge.Cuts
6
CONTINUOUS
10
70.5250029999999981
20
-139.499998000000005
11
70.5250029999999981
21
-139.6952770000000044
0
LINE
8
Edge.Cuts
6
CONTINUOUS
10
70.5250029999999981
20
-139.6952770000000044
11
70.5632839999999959
21
-140.0839550000000031
0
LINE
8
Edge.Cuts
6
CONTINUOUS
10
70.5632839999999959
20
-140.0839550000000031
11
70.6394779999999969
21
-140.4670099999999877
0
LINE
8
Edge.Cuts
6
CONTINUOUS
10
70.6394779999999969
20
-140.4670099999999877
11
70.7528509999999926
21
-140.8407509999999832
0
LINE
8
Edge.Cuts
6
CONTINUOUS
10
70.7528509999999926
20
-140.8407509999999832
11
70.9023109999999974
21
-141.201580000000007
0
LINE
8
Edge.Cuts
6
CONTINUOUS
10
70.9023109999999974
20
-141.201580000000007
11
71.0864189999999923
21
-141.5460219999999936
0
LINE
8
Edge.Cuts
6
CONTINUOUS
10
71.0864189999999923
20
-141.5460219999999936
11
71.3034009999999938
21
-141.87075999999999
0
LINE
8
Edge.Cuts
6
CONTINUOUS
10
71.3034009999999938
20
-141.87075999999999
11
71.5511690000000016
21
-142.1726659999999924
0
LINE
8
Edge.Cuts
6
CONTINUOUS
10
71.5511690000000016
20
-142.1726659999999924
11
71.8273360000000025
21
-142.4488330000000076
0
LINE
8
Edge.Cuts
6
CONTINUOUS
10
71.8273360000000025
20
-142.4488330000000076
11
72.1292419999999908
21
-142.6966009999999869
0
LINE
8
Edge.Cuts
6
CONTINUOUS
10
72.1292419999999908
20
-142.6966009999999869
11
72.4539789999999897
21
-142.913583999999986
0
LINE
8
Edge.Cuts
6
CONTINUOUS
10
72.4539789999999897
20
-142.913583999999986
11
72.7984209999999905
21
-143.097691999999995
0
LINE
8
Edge.Cuts
6
CONTINUOUS
10
72.7984209999999905
20
-143.097691999999995
11
73.1592500000000001
21
-143.2471519999999998
0
LINE
8
Edge.Cuts
6
CONTINUOUS
10
73.1592500000000001
20
-143.2471519999999998
11
73.5329909999999956
21
-143.3605249999999955
0
LINE
8
Edge.Cuts
6
CONTINUOUS
10
73.5329909999999956
20
-143.3605249999999955
11
73.9160459999999944
21
-143.4367199999999798
0
LINE
8
Edge.Cuts
6
CONTINUOUS
10
73.9160459999999944
20
-143.4367199999999798
11
74.3047239999999931
21
-143.4750009999999918
0
LINE
8
Edge.Cuts
6
CONTINUOUS
10
74.3047239999999931
20
-143.4750009999999918
11
74.6952819999999917
21
-143.4750009999999918
0
LINE
8
Edge.Cuts
6
CONTINUOUS
10
74.6952819999999917
20
-143.4750009999999918
11
75.0839599999999905
21
-143.4367199999999798
0
LINE
8
Edge.Cuts
6
CONTINUOUS
10
75.0839599999999905
20
-143.4367199999999798
11
75.4670150000000035
21
-143.3605249999999955
0
LINE
8
Edge.Cuts
6
CONTINUOUS
10
75.4670150000000035
20
-143.3605249999999955
11
75.8407559999999989
21
-143.2471519999999998
0
LINE
8
Edge.Cuts
6
CONTINUOUS
10
75.8407559999999989
20
-143.2471519999999998
11
76.2015849999999944
21
-143.097691999999995
0
LINE
8
Edge.Cuts
6
CONTINUOUS
10
76.2015849999999944
20
-143.097691999999995
11
76.5460269999999952
21
-142.913583999999986
0
LINE
8
Edge.Cuts
6
CONTINUOUS
10
76.5460269999999952
20
-142.913583999999986
11
76.8707639999999941
21
-142.6966009999999869
0
LINE
8
Edge.Cuts
6
CONTINUOUS
10
76.8707639999999941
20
-142.6966009999999869
11
77.1726699999999965
21
-142.4488330000000076
0
LINE
8
Edge.Cuts
6
CONTINUOUS
10
77.1726699999999965
20
-142.4488330000000076
11
77.4488369999999975
21
-142.1726659999999924
0
LINE
8
Edge.Cuts
6
CONTINUOUS
10
77.4488369999999975
20
-142.1726659999999924
11
77.696604999999991
21
-141.87075999999999
0
LINE
8
Edge.Cuts
6
CONTINUOUS
10
77.696604999999991
20
-141.87075999999999
11
77.9135869999999926
21
-141.5460219999999936
0
LINE
8
Edge.Cuts
6
CONTINUOUS
10
77.9135869999999926
20
-141.5460219999999936
11
78.0976950000000016
21
-141.201580000000007
0
LINE
8
Edge.Cuts
6
CONTINUOUS
10
78.0976950000000016
20
-141.201580000000007
11
78.2471549999999922
21
-140.8407509999999832
0
LINE
8
Edge.Cuts
6
CONTINUOUS
10
78.2471549999999922
20
-140.8407509999999832
11
78.3605280000000022
21
-140.4670099999999877
0
LINE
8
Edge.Cuts
6
CONTINUOUS
10
78.3605280000000022
20
-140.4670099999999877
11
78.4367220000000032
21
-140.0839550000000031
0
LINE
8
Edge.Cuts
6
CONTINUOUS
10
78.4367220000000032
20
-140.0839550000000031
11
78.475003000000001
21
-139.6952770000000044
0
LINE
8
Edge.Cuts
6
CONTINUOUS
10
78.475003000000001
20
-139.6952770000000044
11
78.475003000000001
21
-139.499998000000005
0
LINE
8
Edge.Cuts
6
CONTINUOUS
10
78.475003000000001
20
-139.499998000000005
11
78.4915749999999974
21
-139.1837989999999934
0
LINE
8
Edge.Cuts
6
CONTINUOUS
10
78.4915749999999974
20
-139.1837989999999934
11
78.5411069999999967
21
-138.8710649999999873
0
LINE
8
Edge.Cuts
6
CONTINUOUS
10
78.5411069999999967
20
-138.8710649999999873
11
78.6230580000000003
21
-138.5652220000000057
0
LINE
8
Edge.Cuts
6
CONTINUOUS
10
78.6230580000000003
20
-138.5652220000000057
11
78.7365289999999902
21
-138.2696200000000033
0
LINE
8
Edge.Cuts
6
CONTINUOUS
10
78.7365289999999902
20
-138.2696200000000033
11
78.8802769999999924
21
-137.9874989999999855
0
LINE
8
Edge.Cuts
6
CONTINUOUS
10
78.8802769999999924
20
-137.9874989999999855
11
79.0527280000000019
21
-137.7219489999999951
0
LINE
8
Edge.Cuts
6
CONTINUOUS
10
79.0527280000000019
20
-137.7219489999999951
11
79.2519909999999896
21
-137.4758789999999919
0
LINE
8
Edge.Cuts
6
CONTINUOUS
10
79.2519909999999896
20
-137.4758789999999919
11
79.4758839999999935
21
-137.2519859999999881
0
LINE
8
Edge.Cuts
6
CONTINUOUS
10
79.4758839999999935
20
-137.2519859999999881
11
79.7219539999999967
21
-137.0527229999999861
0
LINE
8
Edge.Cuts
6
CONTINUOUS
10
79.7219539999999967
20
-137.0527229999999861
11
79.9875040000000013
21
-136.8802729999999883
0
LINE
8
Edge.Cuts
6
CONTINUOUS
10
79.9875040000000013
20
-136.8802729999999883
11
80.2696260000000024
21
-136.7365250000000003
0
LINE
8
Edge.Cuts
6
CONTINUOUS
10
80.2696260000000024
20
-136.7365250000000003
11
80.5652279999999905
21
-136.6230539999999962
0
LINE
8
Edge.Cuts
6
CONTINUOUS
10
80.5652279999999905
20
-136.6230539999999962
11
80.8710710000000006
21
-136.5411029999999926
0
LINE
8
Edge.Cuts
6
CONTINUOUS
10
80.8710710000000006
20
-136.5411029999999926
11
81.1838049999999924
21
-136.4915709999999933
0
LINE
8
Edge.Cuts
6
CONTINUOUS
10
81.1838049999999924
20
-136.4915709999999933
11
81.5000039999999899
21
-136.4749999999999943
0
LINE
8
Edge.Cuts
6
CONTINUOUS
10
81.5000039999999899
20
-136.4749999999999943
11
131.9799999999999898
21
-136.4749999999999943
0
LINE
8
Edge.Cuts
6
CONTINUOUS
10
131.9799999999999898
20
-136.4749999999999943
11
131.9895669999999939
21
-136.476902999999993
0
LINE
8
Edge.Cuts
6
CONTINUOUS
10
131.9895669999999939
20
-136.476902999999993
11
132.0030969999999968
21
-136.4904329999999959
0
LINE
8
Edge.Cuts
6
CONTINUOUS
10
132.0030969999999968
20
-136.4904329999999959
11
132.0049999999999955
21
-136.5
0
LINE
8
Edge.Cuts
6
CONTINUOUS
10
132.0049999999999955
20
-136.5
11
132.0049999999999955
21
-138.4749999999999943
0
LINE
8
Edge.Cuts
6
CONTINUOUS
10
132.0049999999999955
20
-138.4749999999999943
11
151.0199999999999818
21
-138.4749999999999943
0
LINE
8
Edge.Cuts
6
CONTINUOUS
10
151.0199999999999818
20
-138.4749999999999943
11
151.0295669999999859
21
-138.476902999999993
0
LINE
8
Edge.Cuts
6
CONTINUOUS
10
151.0295669999999859
20
-138.476902999999993
11
151.0430969999999888
21
-138.4904329999999959
0
LINE
8
Edge.Cuts
6
CONTINUOUS
10
151.0430969999999888
20
-138.4904329999999959
11
151.0449999999999875
21
-138.5
0
LINE
8
Edge.Cuts
6
CONTINUOUS
10
151.0449999999999875
20
-138.5
11
151.0449999999999875
21
-141.4651000000000067
0
LINE
8
Edge.Cuts
6
CONTINUOUS
10
151.0449999999999875
20
-141.4651000000000067
11
153.5001010000000008
21
-141.4749999999999943
0
LINE
8
Edge.Cuts
6
CONTINUOUS
10
153.5001010000000008
20
-141.4749999999999943
11
153.5001359999999977
21
-141.4750070000000051
0
LINE
8
Edge.Cuts
6
CONTINUOUS
10
153.5001359999999977
20
-141.4750070000000051
11
153.8161979999999858
21
-141.4915709999999933
0
LINE
8
Edge.Cuts
6
CONTINUOUS
10
153.8161979999999858
20
-141.4915709999999933
11
154.1289329999999893
21
-141.54110399999999
0
LINE
8
Edge.Cuts
6
CONTINUOUS
10
154.1289329999999893
20
-141.54110399999999
11
154.4347759999999994
21
-141.6230539999999962
0
LINE
8
Edge.Cuts
6
CONTINUOUS
10
154.4347759999999994
20
-141.6230539999999962
11
154.7303780000000017
21
-141.7365250000000003
0
LINE
8
Edge.Cuts
6
CONTINUOUS
10
154.7303780000000017
20
-141.7365250000000003
11
155.0124989999999912
21
-141.8802729999999883
0
LINE
8
Edge.Cuts
6
CONTINUOUS
10
155.0124989999999912
20
-141.8802729999999883
11
155.2780489999999816
21
-142.0527229999999861
0
LINE
8
Edge.Cuts
6
CONTINUOUS
10
155.2780489999999816
20
-142.0527229999999861
11
155.5241189999999847
21
-142.2519869999999855
0
LINE
8
Edge.Cuts
6
CONTINUOUS
10
155.5241189999999847
20
-142.2519869999999855
11
155.7480119999999886
21
-142.4758789999999919
0
LINE
8
Edge.Cuts
6
CONTINUOUS
10
155.7480119999999886
20
-142.4758789999999919
11
155.9472749999999905
21
-142.7219489999999951
0
LINE
8
Edge.Cuts
6
CONTINUOUS
10
155.9472749999999905
20
-142.7219489999999951
11
156.1197259999999858
21
-142.9874989999999855
0
LINE
8
Edge.Cuts
6
CONTINUOUS
10
156.1197259999999858
20
-142.9874989999999855
11
156.2634740000000022
21
-143.2696200000000033
0
LINE
8
Edge.Cuts
6
CONTINUOUS
10
156.2634740000000022
20
-143.2696200000000033
11
156.3769450000000063
21
-143.5652220000000057
0
LINE
8
Edge.Cuts
6
CONTINUOUS
10
156.3769450000000063
20
-143.5652220000000057
11
156.4588959999999815
21
-143.8710659999999848
0
LINE
8
Edge.Cuts
6
CONTINUOUS
10
156.4588959999999815
20
-143.8710659999999848
11
156.5084279999999808
21
-144.1837999999999909
0
LINE
8
Edge.Cuts
6
CONTINUOUS
10
156.5084279999999808
20
-144.1837999999999909
11
156.5250000000000057
21
-144.499998000000005
0
LINE
8
Edge.Cuts
6
CONTINUOUS
10
156.5250000000000057
20
-144.499998000000005
11
156.5250000000000057
21
-144.6952770000000044
0
LINE
8
Edge.Cuts
6
CONTINUOUS
10
156.5250000000000057
20
-144.6952770000000044
11
156.5632809999999893
21
-145.0839550000000031
0
LINE
8
Edge.Cuts
6
CONTINUOUS
10
156.5632809999999893
20
-145.0839550000000031
11
156.6394750000000045
21
-145.4670099999999877
0
LINE
8
Edge.Cuts
6
CONTINUOUS
10
156.6394750000000045
20
-145.4670099999999877
11
156.7528480000000002
21
-145.8407509999999832
0
LINE
8
Edge.Cuts
6
CONTINUOUS
10
156.7528480000000002
20
-145.8407509999999832
11
156.902308000000005
21
-146.201580000000007
0
LINE
8
Edge.Cuts
6
CONTINUOUS
10
156.902308000000005
20
-146.201580000000007
11
157.0864159999999856
21
-146.5460219999999936
0
LINE
8
Edge.Cuts
6
CONTINUOUS
10
157.0864159999999856
20
-146.5460219999999936
11
157.3033979999999872
21
-146.87075999999999
0
LINE
8
Edge.Cuts
6
CONTINUOUS
10
157.3033979999999872
20
-146.87075999999999
11
157.5511659999999949
21
-147.1726659999999924
0
LINE
8
Edge.Cuts
6
CONTINUOUS
10
157.5511659999999949
20
-147.1726659999999924
11
157.8273329999999817
21
-147.4488329999999792
0
LINE
8
Edge.Cuts
6
CONTINUOUS
10
157.8273329999999817
20
-147.4488329999999792
11
158.1292389999999841
21
-147.6966009999999869
0
LINE
8
Edge.Cuts
6
CONTINUOUS
10
158.1292389999999841
20
-147.6966009999999869
11
158.4539759999999831
21
-147.913583999999986
0
LINE
8
Edge.Cuts
6
CONTINUOUS
10
158.4539759999999831
20
-147.913583999999986
11
158.7984179999999981
21
-148.097691999999995
0
LINE
8
Edge.Cuts
6
CONTINUOUS
10
158.7984179999999981
20
-148.097691999999995
11
159.1592469999999935
21
-148.2471519999999998
0
LINE
8
Edge.Cuts
6
CONTINUOUS
10
159.1592469999999935
20
-148.2471519999999998
11
159.5329879999999889
21
-148.3605249999999955
0
LINE
8
Edge.Cuts
6
CONTINUOUS
10
159.5329879999999889
20
-148.3605249999999955
11
159.9160430000000019
21
-148.4367199999999798
0
LINE
8
Edge.Cuts
6
CONTINUOUS
10
159.9160430000000019
20
-148.4367199999999798
11
160.3047210000000007
21
-148.4750009999999918
0
LINE
8
Edge.Cuts
6
CONTINUOUS
10
160.3047210000000007
20
-148.4750009999999918
11
160.6952789999999993
21
-148.4750009999999918
0
LINE
8
Edge.Cuts
6
CONTINUOUS
10
160.6952789999999993
20
-148.4750009999999918
11
161.0839569999999981
21
-148.4367199999999798
0
LINE
8
Edge.Cuts
6
CONTINUOUS
10
161.0839569999999981
20
-148.4367199999999798
11
161.4670119999999827
21
-148.3605249999999955
0
LINE
8
Edge.Cuts
6
CONTINUOUS
10
161.4670119999999827
20
-148.3605249999999955
11
161.8407530000000065
21
-148.2471519999999998
0
LINE
8
Edge.Cuts
6
CONTINUOUS
10
161.8407530000000065
20
-148.2471519999999998
11
162.2015820000000019
21
-148.097691999999995
0
LINE
8
Edge.Cuts
6
CONTINUOUS
10
162.2015820000000019
20
-148.097691999999995
11
162.5460239999999885
21
-147.913583999999986
0
LINE
8
Edge.Cuts
6
CONTINUOUS
10
162.5460239999999885
20
-147.913583999999986
11
162.8707609999999875
21
-147.6966009999999869
0
LINE
8
Edge.Cuts
6
CONTINUOUS
10
162.8707609999999875
20
-147.6966009999999869
11
163.1726669999999899
21
-147.4488329999999792
0
LINE
8
Edge.Cuts
6
CONTINUOUS
10
163.1726669999999899
20
-147.4488329999999792
11
163.4488340000000051
21
-147.1726659999999924
0
LINE
8
Edge.Cuts
6
CONTINUOUS
10
163.4488340000000051
20
-147.1726659999999924
11
163.6966019999999844
21
-146.87075999999999
0
LINE
8
Edge.Cuts
6
CONTINUOUS
10
163.6966019999999844
20
-146.87075999999999
11
163.913583999999986
21
-146.5460219999999936
0
LINE
8
Edge.Cuts
6
CONTINUOUS
10
163.913583999999986
20
-146.5460219999999936
11
164.097691999999995
21
-146.201580000000007
0
LINE
8
Edge.Cuts
6
CONTINUOUS
10
164.097691999999995
20
-146.201580000000007
11
164.2471519999999998
21
-145.8407509999999832
0
LINE
8
Edge.Cuts
6
CONTINUOUS
10
164.2471519999999998
20
-145.8407509999999832
11
164.3605249999999955
21
-145.4670099999999877
0
LINE
8
Edge.Cuts
6
CONTINUOUS
10
164.3605249999999955
20
-145.4670099999999877
11
164.4367189999999823
21
-145.0839550000000031
0
LINE
8
Edge.Cuts
6
CONTINUOUS
10
164.4367189999999823
20
-145.0839550000000031
11
164.4749999999999943
21
-144.6952770000000044
0
LINE
8
Edge.Cuts
6
CONTINUOUS
10
164.4749999999999943
20
-144.6952770000000044
11
164.4749999999999943
21
-144.499998000000005
0
LINE
8
Edge.Cuts
6
CONTINUOUS
10
164.4749999999999943
20
-144.499998000000005
11
164.4915719999999908
21
-144.1837989999999934
0
LINE
8
Edge.Cuts
6
CONTINUOUS
10
164.4915719999999908
20
-144.1837989999999934
11
164.54110399999999
21
-143.8710649999999873
0
LINE
8
Edge.Cuts
6
CONTINUOUS
10
164.54110399999999
20
-143.8710649999999873
11
164.6230549999999937
21
-143.5652220000000057
0
LINE
8
Edge.Cuts
6
CONTINUOUS
10
164.6230549999999937
20
-143.5652220000000057
11
164.7365259999999978
21
-143.2696200000000033
0
LINE
8
Edge.Cuts
6
CONTINUOUS
10
164.7365259999999978
20
-143.2696200000000033
11
164.8802739999999858
21
-142.9874989999999855
0
LINE
8
Edge.Cuts
6
CONTINUOUS
10
164.8802739999999858
20
-142.9874989999999855
11
165.052724999999981
21
-142.7219489999999951
0
LINE
8
Edge.Cuts
6
CONTINUOUS
10
165.052724999999981
20
-142.7219489999999951
11
165.251987999999983
21
-142.4758789999999919
0
LINE
8
Edge.Cuts
6
CONTINUOUS
10
165.251987999999983
20
-142.4758789999999919
11
165.4758809999999869
21
-142.2519859999999881
0
LINE
8
Edge.Cuts
6
CONTINUOUS
10
165.4758809999999869
20
-142.2519859999999881
11
165.72195099999999
21
-142.0527229999999861
0
LINE
8
Edge.Cuts
6
CONTINUOUS
10
165.72195099999999
20
-142.0527229999999861
11
165.9875009999999804
21
-141.8802729999999883
0
LINE
8
Edge.Cuts
6
CONTINUOUS
10
165.9875009999999804
20
-141.8802729999999883
11
166.2696229999999957
21
-141.7365250000000003
0
LINE
8
Edge.Cuts
6
CONTINUOUS
10
166.2696229999999957
20
-141.7365250000000003
11
166.5652249999999981
21
-141.6230539999999962
0
LINE
8
Edge.Cuts
6
CONTINUOUS
10
166.5652249999999981
20
-141.6230539999999962
11
166.8710679999999797
21
-141.5411029999999926
0
LINE
8
Edge.Cuts
6
CONTINUOUS
10
166.8710679999999797
20
-141.5411029999999926
11
167.1838019999999858
21
-141.4915709999999933
0
LINE
8
Edge.Cuts
6
CONTINUOUS
10
167.1838019999999858
20
-141.4915709999999933
11
167.5000009999999975
21
-141.4749999999999943
0
LINE
8
Edge.Cuts
6
CONTINUOUS
10
167.5000009999999975
20
-141.4749999999999943
11
170.0349999999999966
21
-141.4749999999999943
0
LINE
8
Edge.Cuts
6
CONTINUOUS
10
170.0349999999999966
20
-141.4749999999999943
11
170.0349999999999966
21
-122.5249999999999915
0
LINE
8
Edge.Cuts
6
CONTINUOUS
10
170.0349999999999966
20
-122.5249999999999915
11
160.5
21
-122.5249999999999915
0
LINE
8
Edge.Cuts
6
CONTINUOUS
10
160.5
20
-122.5249999999999915
11
160.3831769999999892
21
-122.5118369999999999
0
LINE
8
Edge.Cuts
6
CONTINUOUS
10
160.3831769999999892
20
-122.5118369999999999
11
160.2722109999999986
21
-122.473007999999993
0
LINE
8
Edge.Cuts
6
CONTINUOUS
10
160.2722109999999986
20
-122.473007999999993
11
160.1726679999999874
21
-122.410460999999998
0
LINE
8
Edge.Cuts
6
CONTINUOUS
10
160.1726679999999874
20
-122.410460999999998
11
160.089539000000002
21
-122.3273319999999984
0
LINE
8
Edge.Cuts
6
CONTINUOUS
10
160.089539000000002
20
-122.3273319999999984
11
160.0269919999999786
21
-122.2277890000000014
0
LINE
8
Edge.Cuts
6
CONTINUOUS
10
160.0269919999999786
20
-122.2277890000000014
11
159.9881629999999859
21
-122.1168229999999966
0
LINE
8
Edge.Cuts
6
CONTINUOUS
10
159.9881629999999859
20
-122.1168229999999966
11
159.9749999999999943
21
-122.
0
LINE
8
Edge.Cuts
6
CONTINUOUS
10
159.9749999999999943
20
-122.
11
159.9749999999999943
21
-119.5
0
LINE
8
Edge.Cuts
6
CONTINUOUS
10
159.9749999999999943
20
-119.5
11
159.9749999999999943
21
-55.5447999999999951
0
LINE
8
Edge.Cuts
6
CONTINUOUS
10
159.9749999999999943
20
-55.5447999999999951
11
157.4997999999999934
21
-55.524998999999994
0
LINE
8
Edge.Cuts
6
CONTINUOUS
10
157.4997999999999934
20
-55.524998999999994
11
157.4997379999999794
21
-55.5249859999999984
0
LINE
8
Edge.Cuts
6
CONTINUOUS
10
157.4997379999999794
20
-55.5249859999999984
11
157.1838009999999883
21
-55.5084289999999996
0
LINE
8
Edge.Cuts
6
CONTINUOUS
10
157.1838009999999883
20
-55.5084289999999996
11
156.8710669999999823
21
-55.4588959999999958
0
LINE
8
Edge.Cuts
6
CONTINUOUS
10
156.8710669999999823
20
-55.4588959999999958
11
156.5652240000000006
21
-55.3769459999999967
0
LINE
8
Edge.Cuts
6
CONTINUOUS
10
156.5652240000000006
20
-55.3769459999999967
11
156.2696219999999983
21
-55.2634749999999997
0
LINE
8
Edge.Cuts
6
CONTINUOUS
10
156.2696219999999983
20
-55.2634749999999997
11
155.9874999999999829
21
-55.119726
0
LINE
8
Edge.Cuts
6
CONTINUOUS
10
155.9874999999999829
20
-55.119726
11
155.7219499999999925
21
-54.9472759999999951
0
LINE
8
Edge.Cuts
6
CONTINUOUS
10
155.7219499999999925
20
-54.9472759999999951
11
155.4758799999999894
21
-54.7480130000000003
0
LINE
8
Edge.Cuts
6
CONTINUOUS
10
155.4758799999999894
20
-54.7480130000000003
11
155.2519869999999855
21
-54.5241199999999964
0
LINE
8
Edge.Cuts
6
CONTINUOUS
10
155.2519869999999855
20
-54.5241199999999964
11
155.0527239999999836
21
-54.2780500000000004
0
LINE
8
Edge.Cuts
6
CONTINUOUS
10
155.0527239999999836
20
-54.2780500000000004
11
154.8802739999999858
21
-54.0124999999999957
0
LINE
8
Edge.Cuts
6
CONTINUOUS
10
154.8802739999999858
20
-54.0124999999999957
11
154.7365250000000003
21
-53.7303779999999946
0
LINE
8
Edge.Cuts
6
CONTINUOUS
10
154.7365250000000003
20
-53.7303779999999946
11
154.6230539999999962
21
-53.4347759999999994
0
LINE
8
Edge.Cuts
6
CONTINUOUS
10
154.6230539999999962
20
-53.4347759999999994
11
154.54110399999999
21
-53.1289329999999964
0
LINE
8
Edge.Cuts
6
CONTINUOUS
10
154.54110399999999
20
-53.1289329999999964
11
154.4915709999999933
21
-52.8161989999999975
0
LINE
8
Edge.Cuts
6
CONTINUOUS
10
154.4915709999999933
20
-52.8161989999999975
11
154.4749999999999943
21
-52.5
0
LINE
8
Edge.Cuts
6
CONTINUOUS
10
154.4749999999999943
20
-52.5
11
154.4749999999999943
21
-52.3047210000000007
0
LINE
8
Edge.Cuts
6
CONTINUOUS
10
154.4749999999999943
20
-52.3047210000000007
11
154.4367189999999823
21
-51.9160429999999948
0
LINE
8
Edge.Cuts
6
CONTINUOUS
10
154.4367189999999823
20
-51.9160429999999948
11
154.3605249999999955
21
-51.5329890000000006
0
LINE
8
Edge.Cuts
6
CONTINUOUS
10
154.3605249999999955
20
-51.5329890000000006
11
154.2471510000000023
21
-51.1592479999999981
0
LINE
8
Edge.Cuts
6
CONTINUOUS
10
154.2471510000000023
20
-51.1592479999999981
11
154.0976909999999975
21
-50.7984189999999955
0
LINE
8
Edge.Cuts
6
CONTINUOUS
10
154.0976909999999975
20
-50.7984189999999955
11
153.9135829999999885
21
-50.4539769999999947
0
LINE
8
Edge.Cuts
6
CONTINUOUS
10
153.9135829999999885
20
-50.4539769999999947
11
153.6966009999999869
21
-50.1292389999999983
0
LINE
8
Edge.Cuts
6
CONTINUOUS
10
153.6966009999999869
20
-50.1292389999999983
11
153.4488329999999792
21
-49.8273340000000005
0
LINE
8
Edge.Cuts
6
CONTINUOUS
10
153.4488329999999792
20
-49.8273340000000005
11
153.1726659999999924
21
-49.5511669999999995
0
LINE
8
Edge.Cuts
6
CONTINUOUS
10
153.1726659999999924
20
-49.5511669999999995
11
152.8707609999999875
21
-49.3033989999999989
0
LINE
8
Edge.Cuts
6
CONTINUOUS
10
152.8707609999999875
20
-49.3033989999999989
11
152.546022999999991
21
-49.0864169999999973
0
LINE
8
Edge.Cuts
6
CONTINUOUS
10
152.546022999999991
20
-49.0864169999999973
11
152.2015810000000045
21
-48.9023089999999954
0
LINE
8
Edge.Cuts
6
CONTINUOUS
10
152.2015810000000045
20
-48.9023089999999954
11
151.8407519999999806
21
-48.7528489999999977
0
LINE
8
Edge.Cuts
6
CONTINUOUS
10
151.8407519999999806
20
-48.7528489999999977
11
151.4670109999999852
21
-48.6394749999999974
0
LINE
8
Edge.Cuts
6
CONTINUOUS
10
151.4670109999999852
20
-48.6394749999999974
11
151.0839569999999981
21
-48.5632809999999964
0
LINE
8
Edge.Cuts
6
CONTINUOUS
10
151.0839569999999981
20
-48.5632809999999964
11
150.6952789999999993
21
-48.5249999999999986
0
LINE
8
Edge.Cuts
6
CONTINUOUS
10
150.6952789999999993
20
-48.5249999999999986
11
150.3047210000000007
21
-48.5249999999999986
0
LINE
8
Edge.Cuts
6
CONTINUOUS
10
150.3047210000000007
20
-48.5249999999999986
11
149.9160430000000019
21
-48.5632809999999964
0
LINE
8
Edge.Cuts
6
CONTINUOUS
10
149.9160430000000019
20
-48.5632809999999964
11
149.5329889999999864
21
-48.6394749999999974
0
LINE
8
Edge.Cuts
6
CONTINUOUS
10
149.5329889999999864
20
-48.6394749999999974
11
149.159247999999991
21
-48.7528489999999977
0
LINE
8
Edge.Cuts
6
CONTINUOUS
10
149.159247999999991
20
-48.7528489999999977
11
148.7984189999999955
21
-48.9023089999999954
0
LINE
8
Edge.Cuts
6
CONTINUOUS
10
148.7984189999999955
20
-48.9023089999999954
11
148.4539769999999805
21
-49.0864169999999973
0
LINE
8
Edge.Cuts
6
CONTINUOUS
10
148.4539769999999805
20
-49.0864169999999973
11
148.1292389999999841
21
-49.3033989999999989
0
LINE
8
Edge.Cuts
6
CONTINUOUS
10
148.1292389999999841
20
-49.3033989999999989
11
147.8273339999999791
21
-49.5511669999999995
0
LINE
8
Edge.Cuts
6
CONTINUOUS
10
147.8273339999999791
20
-49.5511669999999995
11
147.5511669999999924
21
-49.8273340000000005
0
LINE
8
Edge.Cuts
6
CONTINUOUS
10
147.5511669999999924
20
-49.8273340000000005
11
147.3033989999999847
21
-50.1292389999999983
0
LINE
8
Edge.Cuts
6
CONTINUOUS
10
147.3033989999999847
20
-50.1292389999999983
11
147.0864169999999831
21
-50.4539769999999947
0
LINE
8
Edge.Cuts
6
CONTINUOUS
10
147.0864169999999831
20
-50.4539769999999947
11
146.9023090000000025
21
-50.7984189999999955
0
LINE
8
Edge.Cuts
6
CONTINUOUS
10
146.9023090000000025
20
-50.7984189999999955
11
146.7528489999999977
21
-51.1592479999999981
0
LINE
8
Edge.Cuts
6
CONTINUOUS
10
146.7528489999999977
20
-51.1592479999999981
11
146.6394750000000045
21
-51.5329890000000006
0
LINE
8
Edge.Cuts
6
CONTINUOUS
10
146.6394750000000045
20
-51.5329890000000006
11
146.5632809999999893
21
-51.9160429999999948
0
LINE
8
Edge.Cuts
6
CONTINUOUS
10
146.5632809999999893
20
-51.9160429999999948
11
146.5250000000000057
21
-52.3047210000000007
0
LINE
8
Edge.Cuts
6
CONTINUOUS
10
146.5250000000000057
20
-52.3047210000000007
11
146.5250000000000057
21
-52.5
0
LINE
8
Edge.Cuts
6
CONTINUOUS
10
146.5250000000000057
20
-52.5
11
146.5084290000000067
21
-52.8161989999999975
0
LINE
8
Edge.Cuts
6
CONTINUOUS
10
146.5084290000000067
20
-52.8161989999999975
11
146.4588959999999815
21
-53.1289329999999964
0
LINE
8
Edge.Cuts
6
CONTINUOUS
10
146.4588959999999815
20
-53.1289329999999964
11
146.3769460000000038
21
-53.4347759999999994
0
LINE
8
Edge.Cuts
6
CONTINUOUS
10
146.3769460000000038
20
-53.4347759999999994
11
146.2634749999999997
21
-53.7303779999999946
0
LINE
8
Edge.Cuts
6
CONTINUOUS
10
146.2634749999999997
20
-53.7303779999999946
11
146.1197259999999858
21
-54.0124999999999957
0
LINE
8
Edge.Cuts
6
CONTINUOUS
10
146.1197259999999858
20
-54.0124999999999957
11
145.947275999999988
21
-54.2780500000000004
0
LINE
8
Edge.Cuts
6
CONTINUOUS
10
145.947275999999988
20
-54.2780500000000004
11
145.7480129999999861
21
-54.5241199999999964
0
LINE
8
Edge.Cuts
6
CONTINUOUS
10
145.7480129999999861
20
-54.5241199999999964
11
145.5241199999999822
21
-54.7480130000000003
0
LINE
8
Edge.Cuts
6
CONTINUOUS
10
145.5241199999999822
20
-54.7480130000000003
11
145.2780500000000075
21
-54.9472759999999951
0
LINE
8
Edge.Cuts
6
CONTINUOUS
10
145.2780500000000075
20
-54.9472759999999951
11
145.0124999999999886
21
-55.119726
0
LINE
8
Edge.Cuts
6
CONTINUOUS
10
145.0124999999999886
20
-55.119726
11
144.7303780000000017
21
-55.2634749999999997
0
LINE
8
Edge.Cuts
6
CONTINUOUS
10
144.7303780000000017
20
-55.2634749999999997
11
144.4347759999999994
21
-55.3769459999999967
0
LINE
8
Edge.Cuts
6
CONTINUOUS
10
144.4347759999999994
20
-55.3769459999999967
11
144.1289329999999893
21
-55.4588959999999958
0
LINE
8
Edge.Cuts
6
CONTINUOUS
10
144.1289329999999893
20
-55.4588959999999958
11
143.8161989999999832
21
-55.5084289999999996
0
LINE
8
Edge.Cuts
6
CONTINUOUS
10
143.8161989999999832
20
-55.5084289999999996
11
143.5
21
-55.5249999999999986
0
LINE
8
Edge.Cuts
6
CONTINUOUS
10
143.5
20
-55.5249999999999986
11
141.0099999999999909
21
-55.5249999999999986
0
LINE
8
Edge.Cuts
6
CONTINUOUS
10
141.0099999999999909
20
-55.5249999999999986
11
141.0004329999999868
21
-55.5230969999999999
0
LINE
8
Edge.Cuts
6
CONTINUOUS
10
141.0004329999999868
20
-55.5230969999999999
11
140.9869029999999839
21
-55.509566999999997
0
LINE
8
Edge.Cuts
6
CONTINUOUS
10
140.9869029999999839
20
-55.509566999999997
11
140.9849999999999852
21
-55.5
0
LINE
8
Edge.Cuts
6
CONTINUOUS
10
140.9849999999999852
20
-55.5
11
140.9849999999999852
21
-53.5150129999999962
0
LINE
8
Edge.Cuts
6
CONTINUOUS
10
140.9849999999999852
20
-53.5150129999999962
11
122.0200129999999916
21
-53.5249999999999986
0
LINE
8
Edge.Cuts
6
CONTINUOUS
10
122.0200129999999916
20
-53.5249999999999986
11
122.01044499999999
21
-53.5231019999999944
0
LINE
8
Edge.Cuts
6
CONTINUOUS
10
122.01044499999999
20
-53.5231019999999944
11
122.0104019999999991
21
-53.5230589999999964
0
LINE
8
Edge.Cuts
6
CONTINUOUS
10
122.0104019999999991
20
-53.5230589999999964
11
122.0103409999999968
21
-53.5230589999999964
0
LINE
8
Edge.Cuts
6
CONTINUOUS
10
122.0103409999999968
20
-53.5230589999999964
11
122.0036109999999923
21
-53.5162750000000003
0
LINE
8
Edge.Cuts
6
CONTINUOUS
10
122.0036109999999923
20
-53.5162750000000003
11
121.9969079999999906
21
-53.5095789999999951
0
LINE
8
Edge.Cuts
6
CONTINUOUS
10
121.9969079999999906
20
-53.5095789999999951
11
121.9969069999999931
21
-53.5095179999999999
0
LINE
8
Edge.Cuts
6
CONTINUOUS
10
121.9969069999999931
20
-53.5095179999999999
11
121.9968649999999997
21
-53.5094749999999948
0
LINE
8
Edge.Cuts
6
CONTINUOUS
10
121.9968649999999997
20
-53.5094749999999948
11
121.9949999999999903
21
-53.4998999999999967
0
LINE
8
Edge.Cuts
6
CONTINUOUS
10
121.9949999999999903
20
-53.4998999999999967
11
122.0148599999999988
21
-48.5249999999999986
0
LINE
8
Edge.Cuts
6
CONTINUOUS
10
122.0148599999999988
20
-48.5249999999999986
11
103.0249999999999915
21
-48.5249999999999986
  0
ENDSEC
  0
EOF
