%TF.GenerationSoftware,KiCad,Pcbnew,10.0.2-rc1*%
%TF.CreationDate,2026-07-14T05:59:07+09:00*%
%TF.ProjectId,boardloaf-he,626f6172-646c-46f6-9166-2d68652e6b69,rev?*%
%TF.SameCoordinates,Original*%
%TF.FileFunction,Profile,NP*%
%FSLAX46Y46*%
G04 Gerber Fmt 4.6, Leading zero omitted, Abs format (unit mm)*
G04 Created by KiCad (PCBNEW 10.0.2-rc1) date 2026-07-14 05:59:07*
%MOMM*%
%LPD*%
G01*
G04 APERTURE LIST*
%TA.AperFunction,Profile*%
%ADD10C,0.050000*%
%TD*%
%TA.AperFunction,Profile*%
%ADD11C,0.100000*%
%TD*%
G04 APERTURE END LIST*
D10*
X16260000Y-20410000D02*
X16260000Y-82410000D01*
X16260000Y-97410000D02*
X16260000Y-101410000D01*
X16260003Y-101410000D02*
G75*
G02*
X19260000Y-104409998I-3J-3000000D01*
G01*
X19260000Y-17410000D02*
G75*
G02*
X16260000Y-20410000I-3000000J0D01*
G01*
X19260000Y-17410000D02*
G75*
G02*
X27260000Y-17410000I4000000J0D01*
G01*
X25260000Y-17410000D02*
G75*
G02*
X21260000Y-17410000I-2000000J0D01*
G01*
X21260000Y-17410000D02*
G75*
G02*
X25260000Y-17410000I2000000J0D01*
G01*
X25260003Y-104410000D02*
G75*
G02*
X21260003Y-104410000I-2000000J0D01*
G01*
X21260003Y-104410000D02*
G75*
G02*
X25260003Y-104410000I2000000J0D01*
G01*
X27260003Y-104409998D02*
G75*
G02*
X19260003Y-104409998I-4000000J-3D01*
G01*
X27260003Y-104409998D02*
G75*
G02*
X30260004Y-101410003I2999997J-2D01*
G01*
X30260000Y-20410000D02*
G75*
G02*
X27260000Y-17410000I0J3000000D01*
G01*
X30260004Y-101410000D02*
X82760000Y-101410000D01*
X34260000Y-44410000D02*
G75*
G02*
X30260000Y-44410000I-2000000J0D01*
G01*
X30260000Y-44410000D02*
G75*
G02*
X34260000Y-44410000I2000000J0D01*
G01*
X36260000Y-77410000D02*
G75*
G02*
X32260000Y-77410000I-2000000J0D01*
G01*
X32260000Y-77410000D02*
G75*
G02*
X36260000Y-77410000I2000000J0D01*
G01*
X34760000Y-20410000D02*
X30260000Y-20410000D01*
X35260000Y-16410000D02*
X35260000Y-19910000D01*
X35260000Y-19910000D02*
G75*
G02*
X34760000Y-20410000I-500000J0D01*
G01*
X35760000Y-82410000D02*
X16260000Y-82410000D01*
X35760000Y-82410000D02*
G75*
G02*
X36260000Y-82910000I0J-500000D01*
G01*
X35760000Y-97410000D02*
X16260000Y-97410000D01*
X36260000Y-83160000D02*
X36260000Y-82910000D01*
X36260000Y-83160000D02*
X36760000Y-83160000D01*
X36260000Y-96659999D02*
X36260000Y-96910000D01*
X36260000Y-96659999D02*
X36760000Y-96660000D01*
X36260000Y-96910000D02*
G75*
G02*
X35760000Y-97410000I-500000J0D01*
G01*
X53760000Y-16410000D02*
X35260000Y-16410000D01*
X54260000Y-13410000D02*
X54260000Y-15910000D01*
X54260000Y-15910000D02*
G75*
G02*
X53760000Y-16410000I-500000J0D01*
G01*
X68260000Y-13410000D02*
X54260000Y-13410000D01*
X68260000Y-17910000D02*
X68260000Y-13410000D01*
X68760000Y-18410000D02*
G75*
G02*
X68260000Y-17910000I0J500000D01*
G01*
X82760000Y-87910000D02*
G75*
G02*
X78760000Y-87910000I-2000000J0D01*
G01*
X78760000Y-87910000D02*
G75*
G02*
X82760000Y-87910000I2000000J0D01*
G01*
X82760000Y-101410000D02*
G75*
G02*
X83260000Y-101910000I0J-500000D01*
G01*
X83260000Y-101910000D02*
X83260000Y-103410000D01*
X83260000Y-103410000D02*
X101760000Y-103410000D01*
X87260000Y-18410000D02*
X68760000Y-18410000D01*
X87260000Y-19910000D02*
X87260000Y-18410000D01*
X87760000Y-20410000D02*
G75*
G02*
X87260000Y-19910000I0J500000D01*
G01*
X92260000Y-39410000D02*
G75*
G02*
X88260000Y-39410000I-2000000J0D01*
G01*
X88260000Y-39410000D02*
G75*
G02*
X92260000Y-39410000I2000000J0D01*
G01*
X92260000Y-20410000D02*
X87760000Y-20410000D01*
X95260000Y-17410000D02*
G75*
G02*
X92260000Y-20410000I-3000000J0D01*
G01*
X95260000Y-17410000D02*
G75*
G02*
X103260000Y-17410000I4000000J0D01*
G01*
X101260000Y-17410000D02*
G75*
G02*
X97260000Y-17410000I-2000000J0D01*
G01*
X97260000Y-17410000D02*
G75*
G02*
X101260000Y-17410000I2000000J0D01*
G01*
X101760000Y-103410000D02*
G75*
G02*
X102260000Y-103910000I0J-500000D01*
G01*
X102260000Y-103910000D02*
X102260000Y-106410000D01*
X102260000Y-106410000D02*
G75*
G02*
X105260000Y-109409998I0J-3000000D01*
G01*
X106260000Y-20410000D02*
G75*
G02*
X103260000Y-17410000I0J3000000D01*
G01*
X106260000Y-74410000D02*
X106260000Y-20410000D01*
X106760000Y-74910000D02*
G75*
G02*
X106260000Y-74410000I0J500000D01*
G01*
X108760000Y-74910000D02*
X106760000Y-74910000D01*
X108760000Y-86910000D02*
X108760000Y-74910000D01*
X109260000Y-87410000D02*
G75*
G02*
X108760000Y-86910000I0J500000D01*
G01*
X111260000Y-109410000D02*
G75*
G02*
X107260000Y-109410000I-2000000J0D01*
G01*
X107260000Y-109410000D02*
G75*
G02*
X111260000Y-109410000I2000000J0D01*
G01*
X113260000Y-109409998D02*
G75*
G02*
X105260000Y-109409998I-4000000J-3D01*
G01*
X113260000Y-109409998D02*
G75*
G02*
X116260001Y-106410000I3000000J-2D01*
G01*
X116260000Y-87410000D02*
X109260000Y-87410000D01*
X116260000Y-106410000D02*
X116260000Y-87410000D01*
%TO.C,MCU*%
D11*
X36760000Y-96660000D02*
X57260000Y-96660000D01*
X57760000Y-96160000D02*
X57760000Y-83660000D01*
X57260000Y-83160000D02*
X36760000Y-83160000D01*
X57760000Y-96160000D02*
G75*
G02*
X57260000Y-96660000I-500001J1D01*
G01*
X57260000Y-83160000D02*
G75*
G02*
X57760000Y-83660000I0J-500000D01*
G01*
%TD*%
M02*
