%TF.GenerationSoftware,KiCad,Pcbnew,10.0.2-rc1*%
%TF.CreationDate,2026-07-14T05:59:07+09:00*%
%TF.ProjectId,boardloaf-he,626f6172-646c-46f6-9166-2d68652e6b69,rev?*%
%TF.SameCoordinates,Original*%
%TF.FileFunction,Paste,Bot*%
%TF.FilePolarity,Positive*%
%FSLAX46Y46*%
G04 Gerber Fmt 4.6, Leading zero omitted, Abs format (unit mm)*
G04 Created by KiCad (PCBNEW 10.0.2-rc1) date 2026-07-14 05:59:07*
%MOMM*%
%LPD*%
G01*
G04 APERTURE LIST*
G04 Aperture macros list*
%AMRoundRect*
0 Rectangle with rounded corners*
0 $1 Rounding radius*
0 $2 $3 $4 $5 $6 $7 $8 $9 X,Y pos of 4 corners*
0 Add a 4 corners polygon primitive as box body*
4,1,4,$2,$3,$4,$5,$6,$7,$8,$9,$2,$3,0*
0 Add four circle primitives for the rounded corners*
1,1,$1+$1,$2,$3*
1,1,$1+$1,$4,$5*
1,1,$1+$1,$6,$7*
1,1,$1+$1,$8,$9*
0 Add four rect primitives between the rounded corners*
20,1,$1+$1,$2,$3,$4,$5,0*
20,1,$1+$1,$4,$5,$6,$7,0*
20,1,$1+$1,$6,$7,$8,$9,0*
20,1,$1+$1,$8,$9,$2,$3,0*%
G04 Aperture macros list end*
%ADD10RoundRect,0.150000X-0.150000X0.587500X-0.150000X-0.587500X0.150000X-0.587500X0.150000X0.587500X0*%
G04 APERTURE END LIST*
D10*
%TO.C,SW7*%
X43010004Y-46047508D03*
X41110004Y-46047508D03*
X42060004Y-44172508D03*
%TD*%
%TO.C,SW4*%
X81010000Y-29047500D03*
X79110000Y-29047500D03*
X80060000Y-27172500D03*
%TD*%
%TO.C,SW1*%
X24009998Y-36047499D03*
X22109998Y-36047499D03*
X23059998Y-34172499D03*
%TD*%
%TO.C,SW9*%
X81010000Y-48047500D03*
X79110000Y-48047500D03*
X80060000Y-46172500D03*
%TD*%
%TO.C,SW10*%
X100010000Y-50047500D03*
X98110000Y-50047500D03*
X99060000Y-48172500D03*
%TD*%
%TO.C,SW2*%
X43010004Y-27047508D03*
X41110004Y-27047508D03*
X42060004Y-25172508D03*
%TD*%
%TO.C,SW13*%
X62010004Y-62047508D03*
X60110004Y-62047508D03*
X61060004Y-60172508D03*
%TD*%
%TO.C,SW8*%
X62010004Y-43047508D03*
X60110004Y-43047508D03*
X61060004Y-41172508D03*
%TD*%
%TO.C,SW11*%
X24010001Y-74047500D03*
X22110001Y-74047500D03*
X23060001Y-72172500D03*
%TD*%
%TO.C,SW14*%
X81010000Y-67047500D03*
X79110000Y-67047500D03*
X80060000Y-65172500D03*
%TD*%
%TO.C,SW5*%
X100010000Y-31047500D03*
X98110000Y-31047500D03*
X99060000Y-29172500D03*
%TD*%
%TO.C,SW15*%
X100010000Y-69047500D03*
X98110000Y-69047500D03*
X99060000Y-67172500D03*
%TD*%
%TO.C,SW16*%
X72010000Y-93047500D03*
X70110000Y-93047500D03*
X71060000Y-91172500D03*
%TD*%
%TO.C,SW6*%
X24010000Y-55047500D03*
X22110000Y-55047500D03*
X23060000Y-53172500D03*
%TD*%
%TO.C,SW12*%
X43010004Y-65047508D03*
X41110004Y-65047508D03*
X42060004Y-63172508D03*
%TD*%
%TO.C,SW17*%
X91010000Y-95047500D03*
X89110000Y-95047500D03*
X90060000Y-93172500D03*
%TD*%
%TO.C,SW18*%
X110000000Y-98047500D03*
X108100000Y-98047500D03*
X109050000Y-96172500D03*
%TD*%
%TO.C,SW3*%
X62010004Y-24047508D03*
X60110004Y-24047508D03*
X61060004Y-22172508D03*
%TD*%
M02*
