%TF.GenerationSoftware,KiCad,Pcbnew,10.0.2-rc1*%
%TF.CreationDate,2026-07-14T05:59:07+09:00*%
%TF.ProjectId,boardloaf-he,626f6172-646c-46f6-9166-2d68652e6b69,rev?*%
%TF.SameCoordinates,Original*%
%TF.FileFunction,Other,User*%
%FSLAX46Y46*%
G04 Gerber Fmt 4.6, Leading zero omitted, Abs format (unit mm)*
G04 Created by KiCad (PCBNEW 10.0.2-rc1) date 2026-07-14 05:59:07*
%MOMM*%
%LPD*%
G01*
G04 APERTURE LIST*
%ADD10C,0.050000*%
G04 APERTURE END LIST*
%TO.C,SW7*%
D10*
X40360004Y-43190008D02*
X40360004Y-47030008D01*
X40360004Y-47030008D02*
X43760004Y-47030008D01*
X43760004Y-43190008D02*
X40360004Y-43190008D01*
X43760004Y-47030008D02*
X43760004Y-43190008D01*
%TO.C,SW4*%
X78360000Y-26190000D02*
X78360000Y-30030000D01*
X78360000Y-30030000D02*
X81760000Y-30030000D01*
X81760000Y-26190000D02*
X78360000Y-26190000D01*
X81760000Y-30030000D02*
X81760000Y-26190000D01*
%TO.C,SW1*%
X21359998Y-33189999D02*
X21359998Y-37029999D01*
X21359998Y-37029999D02*
X24759998Y-37029999D01*
X24759998Y-33189999D02*
X21359998Y-33189999D01*
X24759998Y-37029999D02*
X24759998Y-33189999D01*
%TO.C,SW9*%
X78360000Y-45190000D02*
X78360000Y-49030000D01*
X78360000Y-49030000D02*
X81760000Y-49030000D01*
X81760000Y-45190000D02*
X78360000Y-45190000D01*
X81760000Y-49030000D02*
X81760000Y-45190000D01*
%TO.C,SW10*%
X97360000Y-47190000D02*
X97360000Y-51030000D01*
X97360000Y-51030000D02*
X100760000Y-51030000D01*
X100760000Y-47190000D02*
X97360000Y-47190000D01*
X100760000Y-51030000D02*
X100760000Y-47190000D01*
%TO.C,SW2*%
X40360004Y-24190008D02*
X40360004Y-28030008D01*
X40360004Y-28030008D02*
X43760004Y-28030008D01*
X43760004Y-24190008D02*
X40360004Y-24190008D01*
X43760004Y-28030008D02*
X43760004Y-24190008D01*
%TO.C,SW13*%
X59360004Y-59190008D02*
X59360004Y-63030008D01*
X59360004Y-63030008D02*
X62760004Y-63030008D01*
X62760004Y-59190008D02*
X59360004Y-59190008D01*
X62760004Y-63030008D02*
X62760004Y-59190008D01*
%TO.C,SW8*%
X59360004Y-40190008D02*
X59360004Y-44030008D01*
X59360004Y-44030008D02*
X62760004Y-44030008D01*
X62760004Y-40190008D02*
X59360004Y-40190008D01*
X62760004Y-44030008D02*
X62760004Y-40190008D01*
%TO.C,SW11*%
X21360001Y-71190000D02*
X21360001Y-75030000D01*
X21360001Y-75030000D02*
X24760001Y-75030000D01*
X24760001Y-71190000D02*
X21360001Y-71190000D01*
X24760001Y-75030000D02*
X24760001Y-71190000D01*
%TO.C,SW14*%
X78360000Y-64190000D02*
X78360000Y-68030000D01*
X78360000Y-68030000D02*
X81760000Y-68030000D01*
X81760000Y-64190000D02*
X78360000Y-64190000D01*
X81760000Y-68030000D02*
X81760000Y-64190000D01*
%TO.C,SW5*%
X97360000Y-28190000D02*
X97360000Y-32030000D01*
X97360000Y-32030000D02*
X100760000Y-32030000D01*
X100760000Y-28190000D02*
X97360000Y-28190000D01*
X100760000Y-32030000D02*
X100760000Y-28190000D01*
%TO.C,SW15*%
X97360000Y-66190000D02*
X97360000Y-70030000D01*
X97360000Y-70030000D02*
X100760000Y-70030000D01*
X100760000Y-66190000D02*
X97360000Y-66190000D01*
X100760000Y-70030000D02*
X100760000Y-66190000D01*
%TO.C,SW16*%
X69360000Y-90190000D02*
X69360000Y-94030000D01*
X69360000Y-94030000D02*
X72760000Y-94030000D01*
X72760000Y-90190000D02*
X69360000Y-90190000D01*
X72760000Y-94030000D02*
X72760000Y-90190000D01*
%TO.C,SW6*%
X21360000Y-52190000D02*
X21360000Y-56030000D01*
X21360000Y-56030000D02*
X24760000Y-56030000D01*
X24760000Y-52190000D02*
X21360000Y-52190000D01*
X24760000Y-56030000D02*
X24760000Y-52190000D01*
%TO.C,SW12*%
X40360004Y-62190008D02*
X40360004Y-66030008D01*
X40360004Y-66030008D02*
X43760004Y-66030008D01*
X43760004Y-62190008D02*
X40360004Y-62190008D01*
X43760004Y-66030008D02*
X43760004Y-62190008D01*
%TO.C,SW17*%
X88360000Y-92190000D02*
X88360000Y-96030000D01*
X88360000Y-96030000D02*
X91760000Y-96030000D01*
X91760000Y-92190000D02*
X88360000Y-92190000D01*
X91760000Y-96030000D02*
X91760000Y-92190000D01*
%TO.C,SW18*%
X107350000Y-95190000D02*
X107350000Y-99030000D01*
X107350000Y-99030000D02*
X110750000Y-99030000D01*
X110750000Y-95190000D02*
X107350000Y-95190000D01*
X110750000Y-99030000D02*
X110750000Y-95190000D01*
%TO.C,SW3*%
X59360004Y-21190008D02*
X59360004Y-25030008D01*
X59360004Y-25030008D02*
X62760004Y-25030008D01*
X62760004Y-21190008D02*
X59360004Y-21190008D01*
X62760004Y-25030008D02*
X62760004Y-21190008D01*
%TO.C,JP1*%
X98010000Y-87760000D02*
X98010000Y-91060000D01*
X98010000Y-87760000D02*
X100510000Y-87760000D01*
X100510000Y-91060000D02*
X98010000Y-91060000D01*
X100510000Y-91060000D02*
X100510000Y-87760000D01*
%TO.C,JP3*%
X28760000Y-97760000D02*
X28760000Y-101060000D01*
X28760000Y-97760000D02*
X31260000Y-97760000D01*
X31260000Y-101060000D02*
X28760000Y-101060000D01*
X31260000Y-101060000D02*
X31260000Y-97760000D01*
%TD*%
M02*
