M48
; DRILL file KiCad 10.0.2-rc1 date 2026-07-14T05:59:01
; FORMAT={-:-/ absolute / metric / decimal}
; #@! TF.CreationDate,2026-07-14T05:59:01+09:00
; #@! TF.GenerationSoftware,Kicad,Pcbnew,10.0.2-rc1
; #@! TF.FileFunction,Plated,1,2,PTH
FMAT,2
METRIC
; #@! TA.AperFunction,Plated,PTH,ViaDrill
T1C0.300
; #@! TA.AperFunction,Plated,PTH,ComponentDrill
T2C0.300
; #@! TA.AperFunction,Plated,PTH,ComponentDrill
T3C0.850
; #@! TA.AperFunction,Plated,PTH,ComponentDrill
T4C0.900
%
G90
G05
T1
X31.6Y-34.4
X31.6Y-55.4
X33.4Y-101.0
X34.3Y-65.8
X35.4Y-100.0
X35.6Y-98.8
X36.8Y-98.8
X38.35Y-28.42
X38.98Y-47.88
X43.4Y-73.8
X44.8Y-100.9
X45.8Y-21.8
X47.5Y-22.5
X50.0Y-65.0
X50.6Y-19.8
X51.3Y-65.0
X51.7Y-61.5
X51.7Y-64.125
X51.8Y-59.9
X52.5Y-76.25
X52.9Y-57.9
X54.5Y-70.25
X55.5Y-20.0
X55.75Y-70.25
X56.8Y-32.6
X56.93Y-26.57
X57.2Y-19.3
X57.2Y-63.4
X57.25Y-70.25
X57.4Y-50.8
X58.5Y-70.25
X59.0Y-18.5
X59.75Y-70.25
X60.118Y-78.25
X60.549Y-79.201
X61.0Y-70.25
X61.85Y-79.65
X62.25Y-70.25
X62.5Y-82.0
X63.8Y-100.0
X64.4Y-68.8
X64.75Y-80.0
X65.2Y-37.6
X66.2Y-95.6
X67.4Y-38.3
X67.5Y-100.9
X69.2Y-38.9
X69.5Y-74.5
X70.11Y-89.71
X70.2Y-67.0
X70.7Y-74.4
X71.0Y-65.0
X71.0Y-83.25
X72.0Y-63.5
X72.5Y-44.0
X72.5Y-79.0
X73.0Y-79.75
X73.5Y-74.5
X74.1Y-43.4
X74.5Y-69.4
X74.75Y-74.5
X75.25Y-62.75
X77.0Y-70.0
X77.2Y-38.2
X77.4Y-55.0
X77.8Y-81.8
X81.0Y-80.5
X81.8Y-71.0
X82.6Y-95.6
X83.69Y-26.53
X83.75Y-84.75
X83.98Y-64.72
X84.2Y-60.7
X85.8Y-61.3
X86.25Y-74.75
X87.4Y-61.9
X87.5Y-74.75
X89.0Y-62.5
X89.3Y-71.8
X89.9Y-70.8
X90.9Y-68.8
X91.5Y-65.0
X95.0Y-22.1
X95.0Y-40.0
X95.0Y-58.0
X95.0Y-70.0
X95.0Y-76.0
X99.0Y-95.2
X102.2Y-99.6
X105.6Y-89.4
X114.61Y-102.31
T2
X22.11Y-35.11
X22.11Y-54.11
X22.11Y-73.11
X22.962Y-38.5
X22.962Y-57.5
X23.0Y-76.5
X23.06Y-35.11
X23.06Y-54.11
X23.06Y-73.11
X24.01Y-35.11
X24.01Y-54.11
X24.01Y-73.11
X25.037Y-38.5
X25.037Y-57.5
X25.075Y-76.5
X41.11Y-26.11
X41.11Y-45.11
X41.11Y-64.11
X41.962Y-29.5
X41.962Y-48.5
X42.0Y-67.5
X42.06Y-26.11
X42.06Y-45.11
X42.06Y-64.11
X43.01Y-26.11
X43.01Y-45.11
X43.01Y-64.11
X44.038Y-29.5
X44.038Y-48.5
X44.075Y-67.5
X51.5Y-70.2
X51.5Y-72.275
X60.11Y-23.11
X60.11Y-42.11
X60.11Y-61.11
X60.962Y-26.5
X60.962Y-45.5
X61.0Y-64.5
X61.06Y-23.11
X61.06Y-42.11
X61.06Y-61.11
X62.01Y-23.11
X62.01Y-42.11
X62.01Y-61.11
X63.037Y-26.5
X63.037Y-45.5
X63.075Y-64.5
X64.6Y-71.962
X64.6Y-74.037
X70.11Y-92.11
X71.0Y-95.5
X71.06Y-92.11
X72.01Y-92.11
X73.075Y-95.5
X79.11Y-28.11
X79.11Y-47.11
X79.11Y-66.11
X79.962Y-31.5
X79.962Y-50.5
X80.0Y-69.5
X80.06Y-28.11
X80.06Y-47.11
X80.06Y-66.11
X80.5Y-74.263
X80.5Y-76.337
X81.01Y-28.11
X81.01Y-47.11
X81.01Y-66.11
X82.037Y-31.5
X82.037Y-50.5
X82.075Y-69.5
X89.11Y-94.11
X90.0Y-97.5
X90.06Y-94.11
X91.01Y-94.11
X92.075Y-97.5
X98.11Y-30.11
X98.11Y-49.11
X98.11Y-68.11
X98.962Y-33.5
X98.962Y-52.5
X99.0Y-71.5
X99.06Y-30.11
X99.06Y-49.11
X99.06Y-68.11
X100.01Y-30.11
X100.01Y-49.11
X100.01Y-68.11
X101.037Y-33.5
X101.037Y-52.5
X101.075Y-71.5
X108.1Y-97.11
X109.0Y-100.5
X109.05Y-97.11
X110.0Y-97.11
X111.075Y-100.5
T3
X38.35Y-82.24
X38.35Y-97.58
X40.89Y-82.24
X40.89Y-97.58
X43.43Y-82.24
X43.43Y-97.58
X45.97Y-82.24
X45.97Y-97.58
X48.51Y-82.24
X48.51Y-97.58
X51.05Y-82.24
X51.05Y-97.58
X53.59Y-82.24
X53.59Y-97.58
X56.13Y-82.24
X56.13Y-97.58
X58.67Y-82.24
X58.67Y-97.58
X58.72Y-84.83
X58.72Y-87.37
X58.72Y-89.91
X58.72Y-92.45
X58.72Y-94.99
T4
G00X97.66Y-78.61
M15
G01X97.26Y-78.61
M16
G05
G00X97.26Y-83.21
M15
G01X97.66Y-83.21
M16
G05
G00X98.36Y-78.61
M15
G01X98.76Y-78.61
M16
G05
G00X98.76Y-83.21
M15
G01X98.36Y-83.21
M16
G05
G00X102.36Y-78.61
M15
G01X102.76Y-78.61
M16
G05
G00X102.76Y-83.21
M15
G01X102.36Y-83.21
M16
G05
G00X105.36Y-78.61
M15
G01X105.76Y-78.61
M16
G05
G00X105.76Y-83.21
M15
G01X105.36Y-83.21
M16
G05
M30
