%TF.GenerationSoftware,KiCad,Pcbnew,10.0.2-rc1*%
%TF.CreationDate,2026-07-14T05:59:07+09:00*%
%TF.ProjectId,boardloaf-he,626f6172-646c-46f6-9166-2d68652e6b69,rev?*%
%TF.SameCoordinates,Original*%
%TF.FileFunction,AssemblyDrawing,Bot*%
%FSLAX46Y46*%
G04 Gerber Fmt 4.6, Leading zero omitted, Abs format (unit mm)*
G04 Created by KiCad (PCBNEW 10.0.2-rc1) date 2026-07-14 05:59:07*
%MOMM*%
%LPD*%
G01*
G04 APERTURE LIST*
%ADD10C,0.150000*%
%ADD11C,0.100000*%
%ADD12C,0.050000*%
G04 APERTURE END LIST*
D10*
X114529104Y-76933809D02*
X114529104Y-77409999D01*
X114814819Y-76838571D02*
X113814819Y-77171904D01*
X113814819Y-77171904D02*
X114814819Y-77505237D01*
X114148152Y-78267142D02*
X114814819Y-78267142D01*
X114148152Y-77838571D02*
X114671961Y-77838571D01*
X114671961Y-77838571D02*
X114767200Y-77886190D01*
X114767200Y-77886190D02*
X114814819Y-77981428D01*
X114814819Y-77981428D02*
X114814819Y-78124285D01*
X114814819Y-78124285D02*
X114767200Y-78219523D01*
X114767200Y-78219523D02*
X114719580Y-78267142D01*
X114814819Y-79171904D02*
X113814819Y-79171904D01*
X114767200Y-79171904D02*
X114814819Y-79076666D01*
X114814819Y-79076666D02*
X114814819Y-78886190D01*
X114814819Y-78886190D02*
X114767200Y-78790952D01*
X114767200Y-78790952D02*
X114719580Y-78743333D01*
X114719580Y-78743333D02*
X114624342Y-78695714D01*
X114624342Y-78695714D02*
X114338628Y-78695714D01*
X114338628Y-78695714D02*
X114243390Y-78743333D01*
X114243390Y-78743333D02*
X114195771Y-78790952D01*
X114195771Y-78790952D02*
X114148152Y-78886190D01*
X114148152Y-78886190D02*
X114148152Y-79076666D01*
X114148152Y-79076666D02*
X114195771Y-79171904D01*
X114814819Y-79648095D02*
X114148152Y-79648095D01*
X113814819Y-79648095D02*
X113862438Y-79600476D01*
X113862438Y-79600476D02*
X113910057Y-79648095D01*
X113910057Y-79648095D02*
X113862438Y-79695714D01*
X113862438Y-79695714D02*
X113814819Y-79648095D01*
X113814819Y-79648095D02*
X113910057Y-79648095D01*
X114814819Y-80267142D02*
X114767200Y-80171904D01*
X114767200Y-80171904D02*
X114719580Y-80124285D01*
X114719580Y-80124285D02*
X114624342Y-80076666D01*
X114624342Y-80076666D02*
X114338628Y-80076666D01*
X114338628Y-80076666D02*
X114243390Y-80124285D01*
X114243390Y-80124285D02*
X114195771Y-80171904D01*
X114195771Y-80171904D02*
X114148152Y-80267142D01*
X114148152Y-80267142D02*
X114148152Y-80409999D01*
X114148152Y-80409999D02*
X114195771Y-80505237D01*
X114195771Y-80505237D02*
X114243390Y-80552856D01*
X114243390Y-80552856D02*
X114338628Y-80600475D01*
X114338628Y-80600475D02*
X114624342Y-80600475D01*
X114624342Y-80600475D02*
X114719580Y-80552856D01*
X114719580Y-80552856D02*
X114767200Y-80505237D01*
X114767200Y-80505237D02*
X114814819Y-80409999D01*
X114814819Y-80409999D02*
X114814819Y-80267142D01*
X113814819Y-81314761D02*
X114529104Y-81314761D01*
X114529104Y-81314761D02*
X114671961Y-81267142D01*
X114671961Y-81267142D02*
X114767200Y-81171904D01*
X114767200Y-81171904D02*
X114814819Y-81029047D01*
X114814819Y-81029047D02*
X114814819Y-80933809D01*
X114814819Y-82219523D02*
X114291009Y-82219523D01*
X114291009Y-82219523D02*
X114195771Y-82171904D01*
X114195771Y-82171904D02*
X114148152Y-82076666D01*
X114148152Y-82076666D02*
X114148152Y-81886190D01*
X114148152Y-81886190D02*
X114195771Y-81790952D01*
X114767200Y-82219523D02*
X114814819Y-82124285D01*
X114814819Y-82124285D02*
X114814819Y-81886190D01*
X114814819Y-81886190D02*
X114767200Y-81790952D01*
X114767200Y-81790952D02*
X114671961Y-81743333D01*
X114671961Y-81743333D02*
X114576723Y-81743333D01*
X114576723Y-81743333D02*
X114481485Y-81790952D01*
X114481485Y-81790952D02*
X114433866Y-81886190D01*
X114433866Y-81886190D02*
X114433866Y-82124285D01*
X114433866Y-82124285D02*
X114386247Y-82219523D01*
X114767200Y-83124285D02*
X114814819Y-83029047D01*
X114814819Y-83029047D02*
X114814819Y-82838571D01*
X114814819Y-82838571D02*
X114767200Y-82743333D01*
X114767200Y-82743333D02*
X114719580Y-82695714D01*
X114719580Y-82695714D02*
X114624342Y-82648095D01*
X114624342Y-82648095D02*
X114338628Y-82648095D01*
X114338628Y-82648095D02*
X114243390Y-82695714D01*
X114243390Y-82695714D02*
X114195771Y-82743333D01*
X114195771Y-82743333D02*
X114148152Y-82838571D01*
X114148152Y-82838571D02*
X114148152Y-83029047D01*
X114148152Y-83029047D02*
X114195771Y-83124285D01*
X114814819Y-83552857D02*
X113814819Y-83552857D01*
X114433866Y-83648095D02*
X114814819Y-83933809D01*
X114148152Y-83933809D02*
X114529104Y-83552857D01*
X114148152Y-84790952D02*
X114814819Y-84790952D01*
X113767200Y-84552857D02*
X114481485Y-84314762D01*
X114481485Y-84314762D02*
X114481485Y-84933809D01*
D11*
X105828633Y-79993333D02*
X105495300Y-79760000D01*
X105828633Y-79593333D02*
X105128633Y-79593333D01*
X105128633Y-79593333D02*
X105128633Y-79860000D01*
X105128633Y-79860000D02*
X105161966Y-79926667D01*
X105161966Y-79926667D02*
X105195300Y-79960000D01*
X105195300Y-79960000D02*
X105261966Y-79993333D01*
X105261966Y-79993333D02*
X105361966Y-79993333D01*
X105361966Y-79993333D02*
X105428633Y-79960000D01*
X105428633Y-79960000D02*
X105461966Y-79926667D01*
X105461966Y-79926667D02*
X105495300Y-79860000D01*
X105495300Y-79860000D02*
X105495300Y-79593333D01*
X105828633Y-80293333D02*
X105361966Y-80293333D01*
X105128633Y-80293333D02*
X105161966Y-80260000D01*
X105161966Y-80260000D02*
X105195300Y-80293333D01*
X105195300Y-80293333D02*
X105161966Y-80326667D01*
X105161966Y-80326667D02*
X105128633Y-80293333D01*
X105128633Y-80293333D02*
X105195300Y-80293333D01*
X105361966Y-80626666D02*
X105828633Y-80626666D01*
X105428633Y-80626666D02*
X105395300Y-80660000D01*
X105395300Y-80660000D02*
X105361966Y-80726666D01*
X105361966Y-80726666D02*
X105361966Y-80826666D01*
X105361966Y-80826666D02*
X105395300Y-80893333D01*
X105395300Y-80893333D02*
X105461966Y-80926666D01*
X105461966Y-80926666D02*
X105828633Y-80926666D01*
X105361966Y-81559999D02*
X105928633Y-81559999D01*
X105928633Y-81559999D02*
X105995300Y-81526666D01*
X105995300Y-81526666D02*
X106028633Y-81493333D01*
X106028633Y-81493333D02*
X106061966Y-81426666D01*
X106061966Y-81426666D02*
X106061966Y-81326666D01*
X106061966Y-81326666D02*
X106028633Y-81259999D01*
X105795300Y-81559999D02*
X105828633Y-81493333D01*
X105828633Y-81493333D02*
X105828633Y-81359999D01*
X105828633Y-81359999D02*
X105795300Y-81293333D01*
X105795300Y-81293333D02*
X105761966Y-81259999D01*
X105761966Y-81259999D02*
X105695300Y-81226666D01*
X105695300Y-81226666D02*
X105495300Y-81226666D01*
X105495300Y-81226666D02*
X105428633Y-81259999D01*
X105428633Y-81259999D02*
X105395300Y-81293333D01*
X105395300Y-81293333D02*
X105361966Y-81359999D01*
X105361966Y-81359999D02*
X105361966Y-81493333D01*
X105361966Y-81493333D02*
X105395300Y-81559999D01*
X105195300Y-81859999D02*
X105161966Y-81893332D01*
X105161966Y-81893332D02*
X105128633Y-81959999D01*
X105128633Y-81959999D02*
X105128633Y-82126666D01*
X105128633Y-82126666D02*
X105161966Y-82193332D01*
X105161966Y-82193332D02*
X105195300Y-82226666D01*
X105195300Y-82226666D02*
X105261966Y-82259999D01*
X105261966Y-82259999D02*
X105328633Y-82259999D01*
X105328633Y-82259999D02*
X105428633Y-82226666D01*
X105428633Y-82226666D02*
X105828633Y-81826666D01*
X105828633Y-81826666D02*
X105828633Y-82259999D01*
X102828633Y-79993333D02*
X102495300Y-79760000D01*
X102828633Y-79593333D02*
X102128633Y-79593333D01*
X102128633Y-79593333D02*
X102128633Y-79860000D01*
X102128633Y-79860000D02*
X102161966Y-79926667D01*
X102161966Y-79926667D02*
X102195300Y-79960000D01*
X102195300Y-79960000D02*
X102261966Y-79993333D01*
X102261966Y-79993333D02*
X102361966Y-79993333D01*
X102361966Y-79993333D02*
X102428633Y-79960000D01*
X102428633Y-79960000D02*
X102461966Y-79926667D01*
X102461966Y-79926667D02*
X102495300Y-79860000D01*
X102495300Y-79860000D02*
X102495300Y-79593333D01*
X102828633Y-80293333D02*
X102361966Y-80293333D01*
X102128633Y-80293333D02*
X102161966Y-80260000D01*
X102161966Y-80260000D02*
X102195300Y-80293333D01*
X102195300Y-80293333D02*
X102161966Y-80326667D01*
X102161966Y-80326667D02*
X102128633Y-80293333D01*
X102128633Y-80293333D02*
X102195300Y-80293333D01*
X102361966Y-80626666D02*
X102828633Y-80626666D01*
X102428633Y-80626666D02*
X102395300Y-80660000D01*
X102395300Y-80660000D02*
X102361966Y-80726666D01*
X102361966Y-80726666D02*
X102361966Y-80826666D01*
X102361966Y-80826666D02*
X102395300Y-80893333D01*
X102395300Y-80893333D02*
X102461966Y-80926666D01*
X102461966Y-80926666D02*
X102828633Y-80926666D01*
X102361966Y-81559999D02*
X102928633Y-81559999D01*
X102928633Y-81559999D02*
X102995300Y-81526666D01*
X102995300Y-81526666D02*
X103028633Y-81493333D01*
X103028633Y-81493333D02*
X103061966Y-81426666D01*
X103061966Y-81426666D02*
X103061966Y-81326666D01*
X103061966Y-81326666D02*
X103028633Y-81259999D01*
X102795300Y-81559999D02*
X102828633Y-81493333D01*
X102828633Y-81493333D02*
X102828633Y-81359999D01*
X102828633Y-81359999D02*
X102795300Y-81293333D01*
X102795300Y-81293333D02*
X102761966Y-81259999D01*
X102761966Y-81259999D02*
X102695300Y-81226666D01*
X102695300Y-81226666D02*
X102495300Y-81226666D01*
X102495300Y-81226666D02*
X102428633Y-81259999D01*
X102428633Y-81259999D02*
X102395300Y-81293333D01*
X102395300Y-81293333D02*
X102361966Y-81359999D01*
X102361966Y-81359999D02*
X102361966Y-81493333D01*
X102361966Y-81493333D02*
X102395300Y-81559999D01*
X102828633Y-82259999D02*
X102828633Y-81859999D01*
X102828633Y-82059999D02*
X102128633Y-82059999D01*
X102128633Y-82059999D02*
X102228633Y-81993332D01*
X102228633Y-81993332D02*
X102295300Y-81926666D01*
X102295300Y-81926666D02*
X102328633Y-81859999D01*
X98378633Y-80226667D02*
X98378633Y-80626667D01*
X99078633Y-80426667D02*
X98378633Y-80426667D01*
X99078633Y-80860000D02*
X98611966Y-80860000D01*
X98378633Y-80860000D02*
X98411966Y-80826667D01*
X98411966Y-80826667D02*
X98445300Y-80860000D01*
X98445300Y-80860000D02*
X98411966Y-80893334D01*
X98411966Y-80893334D02*
X98378633Y-80860000D01*
X98378633Y-80860000D02*
X98445300Y-80860000D01*
X98611966Y-81193333D02*
X99311966Y-81193333D01*
X98645300Y-81193333D02*
X98611966Y-81260000D01*
X98611966Y-81260000D02*
X98611966Y-81393333D01*
X98611966Y-81393333D02*
X98645300Y-81460000D01*
X98645300Y-81460000D02*
X98678633Y-81493333D01*
X98678633Y-81493333D02*
X98745300Y-81526667D01*
X98745300Y-81526667D02*
X98945300Y-81526667D01*
X98945300Y-81526667D02*
X99011966Y-81493333D01*
X99011966Y-81493333D02*
X99045300Y-81460000D01*
X99045300Y-81460000D02*
X99078633Y-81393333D01*
X99078633Y-81393333D02*
X99078633Y-81260000D01*
X99078633Y-81260000D02*
X99045300Y-81193333D01*
X97645300Y-79110000D02*
X97678633Y-79210000D01*
X97678633Y-79210000D02*
X97678633Y-79376667D01*
X97678633Y-79376667D02*
X97645300Y-79443333D01*
X97645300Y-79443333D02*
X97611966Y-79476667D01*
X97611966Y-79476667D02*
X97545300Y-79510000D01*
X97545300Y-79510000D02*
X97478633Y-79510000D01*
X97478633Y-79510000D02*
X97411966Y-79476667D01*
X97411966Y-79476667D02*
X97378633Y-79443333D01*
X97378633Y-79443333D02*
X97345300Y-79376667D01*
X97345300Y-79376667D02*
X97311966Y-79243333D01*
X97311966Y-79243333D02*
X97278633Y-79176667D01*
X97278633Y-79176667D02*
X97245300Y-79143333D01*
X97245300Y-79143333D02*
X97178633Y-79110000D01*
X97178633Y-79110000D02*
X97111966Y-79110000D01*
X97111966Y-79110000D02*
X97045300Y-79143333D01*
X97045300Y-79143333D02*
X97011966Y-79176667D01*
X97011966Y-79176667D02*
X96978633Y-79243333D01*
X96978633Y-79243333D02*
X96978633Y-79410000D01*
X96978633Y-79410000D02*
X97011966Y-79510000D01*
X97678633Y-79910000D02*
X97645300Y-79843334D01*
X97645300Y-79843334D02*
X97578633Y-79810000D01*
X97578633Y-79810000D02*
X96978633Y-79810000D01*
X97645300Y-80443334D02*
X97678633Y-80376667D01*
X97678633Y-80376667D02*
X97678633Y-80243334D01*
X97678633Y-80243334D02*
X97645300Y-80176667D01*
X97645300Y-80176667D02*
X97578633Y-80143334D01*
X97578633Y-80143334D02*
X97311966Y-80143334D01*
X97311966Y-80143334D02*
X97245300Y-80176667D01*
X97245300Y-80176667D02*
X97211966Y-80243334D01*
X97211966Y-80243334D02*
X97211966Y-80376667D01*
X97211966Y-80376667D02*
X97245300Y-80443334D01*
X97245300Y-80443334D02*
X97311966Y-80476667D01*
X97311966Y-80476667D02*
X97378633Y-80476667D01*
X97378633Y-80476667D02*
X97445300Y-80143334D01*
X97645300Y-81043334D02*
X97678633Y-80976667D01*
X97678633Y-80976667D02*
X97678633Y-80843334D01*
X97678633Y-80843334D02*
X97645300Y-80776667D01*
X97645300Y-80776667D02*
X97578633Y-80743334D01*
X97578633Y-80743334D02*
X97311966Y-80743334D01*
X97311966Y-80743334D02*
X97245300Y-80776667D01*
X97245300Y-80776667D02*
X97211966Y-80843334D01*
X97211966Y-80843334D02*
X97211966Y-80976667D01*
X97211966Y-80976667D02*
X97245300Y-81043334D01*
X97245300Y-81043334D02*
X97311966Y-81076667D01*
X97311966Y-81076667D02*
X97378633Y-81076667D01*
X97378633Y-81076667D02*
X97445300Y-80743334D01*
X97211966Y-81310001D02*
X97678633Y-81476667D01*
X97678633Y-81476667D02*
X97211966Y-81643334D01*
X97645300Y-82176667D02*
X97678633Y-82110000D01*
X97678633Y-82110000D02*
X97678633Y-81976667D01*
X97678633Y-81976667D02*
X97645300Y-81910000D01*
X97645300Y-81910000D02*
X97578633Y-81876667D01*
X97578633Y-81876667D02*
X97311966Y-81876667D01*
X97311966Y-81876667D02*
X97245300Y-81910000D01*
X97245300Y-81910000D02*
X97211966Y-81976667D01*
X97211966Y-81976667D02*
X97211966Y-82110000D01*
X97211966Y-82110000D02*
X97245300Y-82176667D01*
X97245300Y-82176667D02*
X97311966Y-82210000D01*
X97311966Y-82210000D02*
X97378633Y-82210000D01*
X97378633Y-82210000D02*
X97445300Y-81876667D01*
D10*
X43593336Y-40237208D02*
X43450479Y-40284827D01*
X43450479Y-40284827D02*
X43212384Y-40284827D01*
X43212384Y-40284827D02*
X43117146Y-40237208D01*
X43117146Y-40237208D02*
X43069527Y-40189588D01*
X43069527Y-40189588D02*
X43021908Y-40094350D01*
X43021908Y-40094350D02*
X43021908Y-39999112D01*
X43021908Y-39999112D02*
X43069527Y-39903874D01*
X43069527Y-39903874D02*
X43117146Y-39856255D01*
X43117146Y-39856255D02*
X43212384Y-39808636D01*
X43212384Y-39808636D02*
X43402860Y-39761017D01*
X43402860Y-39761017D02*
X43498098Y-39713398D01*
X43498098Y-39713398D02*
X43545717Y-39665779D01*
X43545717Y-39665779D02*
X43593336Y-39570541D01*
X43593336Y-39570541D02*
X43593336Y-39475303D01*
X43593336Y-39475303D02*
X43545717Y-39380065D01*
X43545717Y-39380065D02*
X43498098Y-39332446D01*
X43498098Y-39332446D02*
X43402860Y-39284827D01*
X43402860Y-39284827D02*
X43164765Y-39284827D01*
X43164765Y-39284827D02*
X43021908Y-39332446D01*
X42688574Y-39284827D02*
X42450479Y-40284827D01*
X42450479Y-40284827D02*
X42260003Y-39570541D01*
X42260003Y-39570541D02*
X42069527Y-40284827D01*
X42069527Y-40284827D02*
X41831432Y-39284827D01*
X41545717Y-39284827D02*
X40879051Y-39284827D01*
X40879051Y-39284827D02*
X41307622Y-40284827D01*
D12*
X42686670Y-45040208D02*
X42640956Y-45055446D01*
X42640956Y-45055446D02*
X42564765Y-45055446D01*
X42564765Y-45055446D02*
X42534289Y-45040208D01*
X42534289Y-45040208D02*
X42519051Y-45024969D01*
X42519051Y-45024969D02*
X42503813Y-44994493D01*
X42503813Y-44994493D02*
X42503813Y-44964017D01*
X42503813Y-44964017D02*
X42519051Y-44933541D01*
X42519051Y-44933541D02*
X42534289Y-44918303D01*
X42534289Y-44918303D02*
X42564765Y-44903065D01*
X42564765Y-44903065D02*
X42625718Y-44887827D01*
X42625718Y-44887827D02*
X42656194Y-44872588D01*
X42656194Y-44872588D02*
X42671432Y-44857350D01*
X42671432Y-44857350D02*
X42686670Y-44826874D01*
X42686670Y-44826874D02*
X42686670Y-44796398D01*
X42686670Y-44796398D02*
X42671432Y-44765922D01*
X42671432Y-44765922D02*
X42656194Y-44750684D01*
X42656194Y-44750684D02*
X42625718Y-44735446D01*
X42625718Y-44735446D02*
X42549527Y-44735446D01*
X42549527Y-44735446D02*
X42503813Y-44750684D01*
X42397146Y-44735446D02*
X42320956Y-45055446D01*
X42320956Y-45055446D02*
X42260003Y-44826874D01*
X42260003Y-44826874D02*
X42199051Y-45055446D01*
X42199051Y-45055446D02*
X42122861Y-44735446D01*
X42031432Y-44735446D02*
X41818099Y-44735446D01*
X41818099Y-44735446D02*
X41955242Y-45055446D01*
D10*
X81593332Y-23237200D02*
X81450475Y-23284819D01*
X81450475Y-23284819D02*
X81212380Y-23284819D01*
X81212380Y-23284819D02*
X81117142Y-23237200D01*
X81117142Y-23237200D02*
X81069523Y-23189580D01*
X81069523Y-23189580D02*
X81021904Y-23094342D01*
X81021904Y-23094342D02*
X81021904Y-22999104D01*
X81021904Y-22999104D02*
X81069523Y-22903866D01*
X81069523Y-22903866D02*
X81117142Y-22856247D01*
X81117142Y-22856247D02*
X81212380Y-22808628D01*
X81212380Y-22808628D02*
X81402856Y-22761009D01*
X81402856Y-22761009D02*
X81498094Y-22713390D01*
X81498094Y-22713390D02*
X81545713Y-22665771D01*
X81545713Y-22665771D02*
X81593332Y-22570533D01*
X81593332Y-22570533D02*
X81593332Y-22475295D01*
X81593332Y-22475295D02*
X81545713Y-22380057D01*
X81545713Y-22380057D02*
X81498094Y-22332438D01*
X81498094Y-22332438D02*
X81402856Y-22284819D01*
X81402856Y-22284819D02*
X81164761Y-22284819D01*
X81164761Y-22284819D02*
X81021904Y-22332438D01*
X80688570Y-22284819D02*
X80450475Y-23284819D01*
X80450475Y-23284819D02*
X80259999Y-22570533D01*
X80259999Y-22570533D02*
X80069523Y-23284819D01*
X80069523Y-23284819D02*
X79831428Y-22284819D01*
X79021904Y-22618152D02*
X79021904Y-23284819D01*
X79259999Y-22237200D02*
X79498094Y-22951485D01*
X79498094Y-22951485D02*
X78879047Y-22951485D01*
D12*
X80686666Y-28040200D02*
X80640952Y-28055438D01*
X80640952Y-28055438D02*
X80564761Y-28055438D01*
X80564761Y-28055438D02*
X80534285Y-28040200D01*
X80534285Y-28040200D02*
X80519047Y-28024961D01*
X80519047Y-28024961D02*
X80503809Y-27994485D01*
X80503809Y-27994485D02*
X80503809Y-27964009D01*
X80503809Y-27964009D02*
X80519047Y-27933533D01*
X80519047Y-27933533D02*
X80534285Y-27918295D01*
X80534285Y-27918295D02*
X80564761Y-27903057D01*
X80564761Y-27903057D02*
X80625714Y-27887819D01*
X80625714Y-27887819D02*
X80656190Y-27872580D01*
X80656190Y-27872580D02*
X80671428Y-27857342D01*
X80671428Y-27857342D02*
X80686666Y-27826866D01*
X80686666Y-27826866D02*
X80686666Y-27796390D01*
X80686666Y-27796390D02*
X80671428Y-27765914D01*
X80671428Y-27765914D02*
X80656190Y-27750676D01*
X80656190Y-27750676D02*
X80625714Y-27735438D01*
X80625714Y-27735438D02*
X80549523Y-27735438D01*
X80549523Y-27735438D02*
X80503809Y-27750676D01*
X80397142Y-27735438D02*
X80320952Y-28055438D01*
X80320952Y-28055438D02*
X80259999Y-27826866D01*
X80259999Y-27826866D02*
X80199047Y-28055438D01*
X80199047Y-28055438D02*
X80122857Y-27735438D01*
X79863809Y-27842104D02*
X79863809Y-28055438D01*
X79940000Y-27720200D02*
X80016190Y-27948771D01*
X80016190Y-27948771D02*
X79818095Y-27948771D01*
D10*
X24593330Y-30237199D02*
X24450473Y-30284818D01*
X24450473Y-30284818D02*
X24212378Y-30284818D01*
X24212378Y-30284818D02*
X24117140Y-30237199D01*
X24117140Y-30237199D02*
X24069521Y-30189579D01*
X24069521Y-30189579D02*
X24021902Y-30094341D01*
X24021902Y-30094341D02*
X24021902Y-29999103D01*
X24021902Y-29999103D02*
X24069521Y-29903865D01*
X24069521Y-29903865D02*
X24117140Y-29856246D01*
X24117140Y-29856246D02*
X24212378Y-29808627D01*
X24212378Y-29808627D02*
X24402854Y-29761008D01*
X24402854Y-29761008D02*
X24498092Y-29713389D01*
X24498092Y-29713389D02*
X24545711Y-29665770D01*
X24545711Y-29665770D02*
X24593330Y-29570532D01*
X24593330Y-29570532D02*
X24593330Y-29475294D01*
X24593330Y-29475294D02*
X24545711Y-29380056D01*
X24545711Y-29380056D02*
X24498092Y-29332437D01*
X24498092Y-29332437D02*
X24402854Y-29284818D01*
X24402854Y-29284818D02*
X24164759Y-29284818D01*
X24164759Y-29284818D02*
X24021902Y-29332437D01*
X23688568Y-29284818D02*
X23450473Y-30284818D01*
X23450473Y-30284818D02*
X23259997Y-29570532D01*
X23259997Y-29570532D02*
X23069521Y-30284818D01*
X23069521Y-30284818D02*
X22831426Y-29284818D01*
X21926664Y-30284818D02*
X22498092Y-30284818D01*
X22212378Y-30284818D02*
X22212378Y-29284818D01*
X22212378Y-29284818D02*
X22307616Y-29427675D01*
X22307616Y-29427675D02*
X22402854Y-29522913D01*
X22402854Y-29522913D02*
X22498092Y-29570532D01*
D12*
X23686664Y-35040199D02*
X23640950Y-35055437D01*
X23640950Y-35055437D02*
X23564759Y-35055437D01*
X23564759Y-35055437D02*
X23534283Y-35040199D01*
X23534283Y-35040199D02*
X23519045Y-35024960D01*
X23519045Y-35024960D02*
X23503807Y-34994484D01*
X23503807Y-34994484D02*
X23503807Y-34964008D01*
X23503807Y-34964008D02*
X23519045Y-34933532D01*
X23519045Y-34933532D02*
X23534283Y-34918294D01*
X23534283Y-34918294D02*
X23564759Y-34903056D01*
X23564759Y-34903056D02*
X23625712Y-34887818D01*
X23625712Y-34887818D02*
X23656188Y-34872579D01*
X23656188Y-34872579D02*
X23671426Y-34857341D01*
X23671426Y-34857341D02*
X23686664Y-34826865D01*
X23686664Y-34826865D02*
X23686664Y-34796389D01*
X23686664Y-34796389D02*
X23671426Y-34765913D01*
X23671426Y-34765913D02*
X23656188Y-34750675D01*
X23656188Y-34750675D02*
X23625712Y-34735437D01*
X23625712Y-34735437D02*
X23549521Y-34735437D01*
X23549521Y-34735437D02*
X23503807Y-34750675D01*
X23397140Y-34735437D02*
X23320950Y-35055437D01*
X23320950Y-35055437D02*
X23259997Y-34826865D01*
X23259997Y-34826865D02*
X23199045Y-35055437D01*
X23199045Y-35055437D02*
X23122855Y-34735437D01*
X22833331Y-35055437D02*
X23016188Y-35055437D01*
X22924760Y-35055437D02*
X22924760Y-34735437D01*
X22924760Y-34735437D02*
X22955236Y-34781151D01*
X22955236Y-34781151D02*
X22985712Y-34811627D01*
X22985712Y-34811627D02*
X23016188Y-34826865D01*
D10*
X81593332Y-42237200D02*
X81450475Y-42284819D01*
X81450475Y-42284819D02*
X81212380Y-42284819D01*
X81212380Y-42284819D02*
X81117142Y-42237200D01*
X81117142Y-42237200D02*
X81069523Y-42189580D01*
X81069523Y-42189580D02*
X81021904Y-42094342D01*
X81021904Y-42094342D02*
X81021904Y-41999104D01*
X81021904Y-41999104D02*
X81069523Y-41903866D01*
X81069523Y-41903866D02*
X81117142Y-41856247D01*
X81117142Y-41856247D02*
X81212380Y-41808628D01*
X81212380Y-41808628D02*
X81402856Y-41761009D01*
X81402856Y-41761009D02*
X81498094Y-41713390D01*
X81498094Y-41713390D02*
X81545713Y-41665771D01*
X81545713Y-41665771D02*
X81593332Y-41570533D01*
X81593332Y-41570533D02*
X81593332Y-41475295D01*
X81593332Y-41475295D02*
X81545713Y-41380057D01*
X81545713Y-41380057D02*
X81498094Y-41332438D01*
X81498094Y-41332438D02*
X81402856Y-41284819D01*
X81402856Y-41284819D02*
X81164761Y-41284819D01*
X81164761Y-41284819D02*
X81021904Y-41332438D01*
X80688570Y-41284819D02*
X80450475Y-42284819D01*
X80450475Y-42284819D02*
X80259999Y-41570533D01*
X80259999Y-41570533D02*
X80069523Y-42284819D01*
X80069523Y-42284819D02*
X79831428Y-41284819D01*
X79402856Y-42284819D02*
X79212380Y-42284819D01*
X79212380Y-42284819D02*
X79117142Y-42237200D01*
X79117142Y-42237200D02*
X79069523Y-42189580D01*
X79069523Y-42189580D02*
X78974285Y-42046723D01*
X78974285Y-42046723D02*
X78926666Y-41856247D01*
X78926666Y-41856247D02*
X78926666Y-41475295D01*
X78926666Y-41475295D02*
X78974285Y-41380057D01*
X78974285Y-41380057D02*
X79021904Y-41332438D01*
X79021904Y-41332438D02*
X79117142Y-41284819D01*
X79117142Y-41284819D02*
X79307618Y-41284819D01*
X79307618Y-41284819D02*
X79402856Y-41332438D01*
X79402856Y-41332438D02*
X79450475Y-41380057D01*
X79450475Y-41380057D02*
X79498094Y-41475295D01*
X79498094Y-41475295D02*
X79498094Y-41713390D01*
X79498094Y-41713390D02*
X79450475Y-41808628D01*
X79450475Y-41808628D02*
X79402856Y-41856247D01*
X79402856Y-41856247D02*
X79307618Y-41903866D01*
X79307618Y-41903866D02*
X79117142Y-41903866D01*
X79117142Y-41903866D02*
X79021904Y-41856247D01*
X79021904Y-41856247D02*
X78974285Y-41808628D01*
X78974285Y-41808628D02*
X78926666Y-41713390D01*
D12*
X80686666Y-47040200D02*
X80640952Y-47055438D01*
X80640952Y-47055438D02*
X80564761Y-47055438D01*
X80564761Y-47055438D02*
X80534285Y-47040200D01*
X80534285Y-47040200D02*
X80519047Y-47024961D01*
X80519047Y-47024961D02*
X80503809Y-46994485D01*
X80503809Y-46994485D02*
X80503809Y-46964009D01*
X80503809Y-46964009D02*
X80519047Y-46933533D01*
X80519047Y-46933533D02*
X80534285Y-46918295D01*
X80534285Y-46918295D02*
X80564761Y-46903057D01*
X80564761Y-46903057D02*
X80625714Y-46887819D01*
X80625714Y-46887819D02*
X80656190Y-46872580D01*
X80656190Y-46872580D02*
X80671428Y-46857342D01*
X80671428Y-46857342D02*
X80686666Y-46826866D01*
X80686666Y-46826866D02*
X80686666Y-46796390D01*
X80686666Y-46796390D02*
X80671428Y-46765914D01*
X80671428Y-46765914D02*
X80656190Y-46750676D01*
X80656190Y-46750676D02*
X80625714Y-46735438D01*
X80625714Y-46735438D02*
X80549523Y-46735438D01*
X80549523Y-46735438D02*
X80503809Y-46750676D01*
X80397142Y-46735438D02*
X80320952Y-47055438D01*
X80320952Y-47055438D02*
X80259999Y-46826866D01*
X80259999Y-46826866D02*
X80199047Y-47055438D01*
X80199047Y-47055438D02*
X80122857Y-46735438D01*
X79985714Y-47055438D02*
X79924762Y-47055438D01*
X79924762Y-47055438D02*
X79894285Y-47040200D01*
X79894285Y-47040200D02*
X79879047Y-47024961D01*
X79879047Y-47024961D02*
X79848571Y-46979247D01*
X79848571Y-46979247D02*
X79833333Y-46918295D01*
X79833333Y-46918295D02*
X79833333Y-46796390D01*
X79833333Y-46796390D02*
X79848571Y-46765914D01*
X79848571Y-46765914D02*
X79863809Y-46750676D01*
X79863809Y-46750676D02*
X79894285Y-46735438D01*
X79894285Y-46735438D02*
X79955238Y-46735438D01*
X79955238Y-46735438D02*
X79985714Y-46750676D01*
X79985714Y-46750676D02*
X80000952Y-46765914D01*
X80000952Y-46765914D02*
X80016190Y-46796390D01*
X80016190Y-46796390D02*
X80016190Y-46872580D01*
X80016190Y-46872580D02*
X80000952Y-46903057D01*
X80000952Y-46903057D02*
X79985714Y-46918295D01*
X79985714Y-46918295D02*
X79955238Y-46933533D01*
X79955238Y-46933533D02*
X79894285Y-46933533D01*
X79894285Y-46933533D02*
X79863809Y-46918295D01*
X79863809Y-46918295D02*
X79848571Y-46903057D01*
X79848571Y-46903057D02*
X79833333Y-46872580D01*
D10*
X101069523Y-44237200D02*
X100926666Y-44284819D01*
X100926666Y-44284819D02*
X100688571Y-44284819D01*
X100688571Y-44284819D02*
X100593333Y-44237200D01*
X100593333Y-44237200D02*
X100545714Y-44189580D01*
X100545714Y-44189580D02*
X100498095Y-44094342D01*
X100498095Y-44094342D02*
X100498095Y-43999104D01*
X100498095Y-43999104D02*
X100545714Y-43903866D01*
X100545714Y-43903866D02*
X100593333Y-43856247D01*
X100593333Y-43856247D02*
X100688571Y-43808628D01*
X100688571Y-43808628D02*
X100879047Y-43761009D01*
X100879047Y-43761009D02*
X100974285Y-43713390D01*
X100974285Y-43713390D02*
X101021904Y-43665771D01*
X101021904Y-43665771D02*
X101069523Y-43570533D01*
X101069523Y-43570533D02*
X101069523Y-43475295D01*
X101069523Y-43475295D02*
X101021904Y-43380057D01*
X101021904Y-43380057D02*
X100974285Y-43332438D01*
X100974285Y-43332438D02*
X100879047Y-43284819D01*
X100879047Y-43284819D02*
X100640952Y-43284819D01*
X100640952Y-43284819D02*
X100498095Y-43332438D01*
X100164761Y-43284819D02*
X99926666Y-44284819D01*
X99926666Y-44284819D02*
X99736190Y-43570533D01*
X99736190Y-43570533D02*
X99545714Y-44284819D01*
X99545714Y-44284819D02*
X99307619Y-43284819D01*
X98402857Y-44284819D02*
X98974285Y-44284819D01*
X98688571Y-44284819D02*
X98688571Y-43284819D01*
X98688571Y-43284819D02*
X98783809Y-43427676D01*
X98783809Y-43427676D02*
X98879047Y-43522914D01*
X98879047Y-43522914D02*
X98974285Y-43570533D01*
X97783809Y-43284819D02*
X97688571Y-43284819D01*
X97688571Y-43284819D02*
X97593333Y-43332438D01*
X97593333Y-43332438D02*
X97545714Y-43380057D01*
X97545714Y-43380057D02*
X97498095Y-43475295D01*
X97498095Y-43475295D02*
X97450476Y-43665771D01*
X97450476Y-43665771D02*
X97450476Y-43903866D01*
X97450476Y-43903866D02*
X97498095Y-44094342D01*
X97498095Y-44094342D02*
X97545714Y-44189580D01*
X97545714Y-44189580D02*
X97593333Y-44237200D01*
X97593333Y-44237200D02*
X97688571Y-44284819D01*
X97688571Y-44284819D02*
X97783809Y-44284819D01*
X97783809Y-44284819D02*
X97879047Y-44237200D01*
X97879047Y-44237200D02*
X97926666Y-44189580D01*
X97926666Y-44189580D02*
X97974285Y-44094342D01*
X97974285Y-44094342D02*
X98021904Y-43903866D01*
X98021904Y-43903866D02*
X98021904Y-43665771D01*
X98021904Y-43665771D02*
X97974285Y-43475295D01*
X97974285Y-43475295D02*
X97926666Y-43380057D01*
X97926666Y-43380057D02*
X97879047Y-43332438D01*
X97879047Y-43332438D02*
X97783809Y-43284819D01*
D12*
X99839047Y-49040200D02*
X99793333Y-49055438D01*
X99793333Y-49055438D02*
X99717142Y-49055438D01*
X99717142Y-49055438D02*
X99686666Y-49040200D01*
X99686666Y-49040200D02*
X99671428Y-49024961D01*
X99671428Y-49024961D02*
X99656190Y-48994485D01*
X99656190Y-48994485D02*
X99656190Y-48964009D01*
X99656190Y-48964009D02*
X99671428Y-48933533D01*
X99671428Y-48933533D02*
X99686666Y-48918295D01*
X99686666Y-48918295D02*
X99717142Y-48903057D01*
X99717142Y-48903057D02*
X99778095Y-48887819D01*
X99778095Y-48887819D02*
X99808571Y-48872580D01*
X99808571Y-48872580D02*
X99823809Y-48857342D01*
X99823809Y-48857342D02*
X99839047Y-48826866D01*
X99839047Y-48826866D02*
X99839047Y-48796390D01*
X99839047Y-48796390D02*
X99823809Y-48765914D01*
X99823809Y-48765914D02*
X99808571Y-48750676D01*
X99808571Y-48750676D02*
X99778095Y-48735438D01*
X99778095Y-48735438D02*
X99701904Y-48735438D01*
X99701904Y-48735438D02*
X99656190Y-48750676D01*
X99549523Y-48735438D02*
X99473333Y-49055438D01*
X99473333Y-49055438D02*
X99412380Y-48826866D01*
X99412380Y-48826866D02*
X99351428Y-49055438D01*
X99351428Y-49055438D02*
X99275238Y-48735438D01*
X98985714Y-49055438D02*
X99168571Y-49055438D01*
X99077143Y-49055438D02*
X99077143Y-48735438D01*
X99077143Y-48735438D02*
X99107619Y-48781152D01*
X99107619Y-48781152D02*
X99138095Y-48811628D01*
X99138095Y-48811628D02*
X99168571Y-48826866D01*
X98787619Y-48735438D02*
X98757142Y-48735438D01*
X98757142Y-48735438D02*
X98726666Y-48750676D01*
X98726666Y-48750676D02*
X98711428Y-48765914D01*
X98711428Y-48765914D02*
X98696190Y-48796390D01*
X98696190Y-48796390D02*
X98680952Y-48857342D01*
X98680952Y-48857342D02*
X98680952Y-48933533D01*
X98680952Y-48933533D02*
X98696190Y-48994485D01*
X98696190Y-48994485D02*
X98711428Y-49024961D01*
X98711428Y-49024961D02*
X98726666Y-49040200D01*
X98726666Y-49040200D02*
X98757142Y-49055438D01*
X98757142Y-49055438D02*
X98787619Y-49055438D01*
X98787619Y-49055438D02*
X98818095Y-49040200D01*
X98818095Y-49040200D02*
X98833333Y-49024961D01*
X98833333Y-49024961D02*
X98848571Y-48994485D01*
X98848571Y-48994485D02*
X98863809Y-48933533D01*
X98863809Y-48933533D02*
X98863809Y-48857342D01*
X98863809Y-48857342D02*
X98848571Y-48796390D01*
X98848571Y-48796390D02*
X98833333Y-48765914D01*
X98833333Y-48765914D02*
X98818095Y-48750676D01*
X98818095Y-48750676D02*
X98787619Y-48735438D01*
D10*
X43593336Y-21237208D02*
X43450479Y-21284827D01*
X43450479Y-21284827D02*
X43212384Y-21284827D01*
X43212384Y-21284827D02*
X43117146Y-21237208D01*
X43117146Y-21237208D02*
X43069527Y-21189588D01*
X43069527Y-21189588D02*
X43021908Y-21094350D01*
X43021908Y-21094350D02*
X43021908Y-20999112D01*
X43021908Y-20999112D02*
X43069527Y-20903874D01*
X43069527Y-20903874D02*
X43117146Y-20856255D01*
X43117146Y-20856255D02*
X43212384Y-20808636D01*
X43212384Y-20808636D02*
X43402860Y-20761017D01*
X43402860Y-20761017D02*
X43498098Y-20713398D01*
X43498098Y-20713398D02*
X43545717Y-20665779D01*
X43545717Y-20665779D02*
X43593336Y-20570541D01*
X43593336Y-20570541D02*
X43593336Y-20475303D01*
X43593336Y-20475303D02*
X43545717Y-20380065D01*
X43545717Y-20380065D02*
X43498098Y-20332446D01*
X43498098Y-20332446D02*
X43402860Y-20284827D01*
X43402860Y-20284827D02*
X43164765Y-20284827D01*
X43164765Y-20284827D02*
X43021908Y-20332446D01*
X42688574Y-20284827D02*
X42450479Y-21284827D01*
X42450479Y-21284827D02*
X42260003Y-20570541D01*
X42260003Y-20570541D02*
X42069527Y-21284827D01*
X42069527Y-21284827D02*
X41831432Y-20284827D01*
X41498098Y-20380065D02*
X41450479Y-20332446D01*
X41450479Y-20332446D02*
X41355241Y-20284827D01*
X41355241Y-20284827D02*
X41117146Y-20284827D01*
X41117146Y-20284827D02*
X41021908Y-20332446D01*
X41021908Y-20332446D02*
X40974289Y-20380065D01*
X40974289Y-20380065D02*
X40926670Y-20475303D01*
X40926670Y-20475303D02*
X40926670Y-20570541D01*
X40926670Y-20570541D02*
X40974289Y-20713398D01*
X40974289Y-20713398D02*
X41545717Y-21284827D01*
X41545717Y-21284827D02*
X40926670Y-21284827D01*
D12*
X42686670Y-26040208D02*
X42640956Y-26055446D01*
X42640956Y-26055446D02*
X42564765Y-26055446D01*
X42564765Y-26055446D02*
X42534289Y-26040208D01*
X42534289Y-26040208D02*
X42519051Y-26024969D01*
X42519051Y-26024969D02*
X42503813Y-25994493D01*
X42503813Y-25994493D02*
X42503813Y-25964017D01*
X42503813Y-25964017D02*
X42519051Y-25933541D01*
X42519051Y-25933541D02*
X42534289Y-25918303D01*
X42534289Y-25918303D02*
X42564765Y-25903065D01*
X42564765Y-25903065D02*
X42625718Y-25887827D01*
X42625718Y-25887827D02*
X42656194Y-25872588D01*
X42656194Y-25872588D02*
X42671432Y-25857350D01*
X42671432Y-25857350D02*
X42686670Y-25826874D01*
X42686670Y-25826874D02*
X42686670Y-25796398D01*
X42686670Y-25796398D02*
X42671432Y-25765922D01*
X42671432Y-25765922D02*
X42656194Y-25750684D01*
X42656194Y-25750684D02*
X42625718Y-25735446D01*
X42625718Y-25735446D02*
X42549527Y-25735446D01*
X42549527Y-25735446D02*
X42503813Y-25750684D01*
X42397146Y-25735446D02*
X42320956Y-26055446D01*
X42320956Y-26055446D02*
X42260003Y-25826874D01*
X42260003Y-25826874D02*
X42199051Y-26055446D01*
X42199051Y-26055446D02*
X42122861Y-25735446D01*
X42016194Y-25765922D02*
X42000956Y-25750684D01*
X42000956Y-25750684D02*
X41970480Y-25735446D01*
X41970480Y-25735446D02*
X41894289Y-25735446D01*
X41894289Y-25735446D02*
X41863813Y-25750684D01*
X41863813Y-25750684D02*
X41848575Y-25765922D01*
X41848575Y-25765922D02*
X41833337Y-25796398D01*
X41833337Y-25796398D02*
X41833337Y-25826874D01*
X41833337Y-25826874D02*
X41848575Y-25872588D01*
X41848575Y-25872588D02*
X42031432Y-26055446D01*
X42031432Y-26055446D02*
X41833337Y-26055446D01*
D10*
X63069527Y-56237208D02*
X62926670Y-56284827D01*
X62926670Y-56284827D02*
X62688575Y-56284827D01*
X62688575Y-56284827D02*
X62593337Y-56237208D01*
X62593337Y-56237208D02*
X62545718Y-56189588D01*
X62545718Y-56189588D02*
X62498099Y-56094350D01*
X62498099Y-56094350D02*
X62498099Y-55999112D01*
X62498099Y-55999112D02*
X62545718Y-55903874D01*
X62545718Y-55903874D02*
X62593337Y-55856255D01*
X62593337Y-55856255D02*
X62688575Y-55808636D01*
X62688575Y-55808636D02*
X62879051Y-55761017D01*
X62879051Y-55761017D02*
X62974289Y-55713398D01*
X62974289Y-55713398D02*
X63021908Y-55665779D01*
X63021908Y-55665779D02*
X63069527Y-55570541D01*
X63069527Y-55570541D02*
X63069527Y-55475303D01*
X63069527Y-55475303D02*
X63021908Y-55380065D01*
X63021908Y-55380065D02*
X62974289Y-55332446D01*
X62974289Y-55332446D02*
X62879051Y-55284827D01*
X62879051Y-55284827D02*
X62640956Y-55284827D01*
X62640956Y-55284827D02*
X62498099Y-55332446D01*
X62164765Y-55284827D02*
X61926670Y-56284827D01*
X61926670Y-56284827D02*
X61736194Y-55570541D01*
X61736194Y-55570541D02*
X61545718Y-56284827D01*
X61545718Y-56284827D02*
X61307623Y-55284827D01*
X60402861Y-56284827D02*
X60974289Y-56284827D01*
X60688575Y-56284827D02*
X60688575Y-55284827D01*
X60688575Y-55284827D02*
X60783813Y-55427684D01*
X60783813Y-55427684D02*
X60879051Y-55522922D01*
X60879051Y-55522922D02*
X60974289Y-55570541D01*
X60069527Y-55284827D02*
X59450480Y-55284827D01*
X59450480Y-55284827D02*
X59783813Y-55665779D01*
X59783813Y-55665779D02*
X59640956Y-55665779D01*
X59640956Y-55665779D02*
X59545718Y-55713398D01*
X59545718Y-55713398D02*
X59498099Y-55761017D01*
X59498099Y-55761017D02*
X59450480Y-55856255D01*
X59450480Y-55856255D02*
X59450480Y-56094350D01*
X59450480Y-56094350D02*
X59498099Y-56189588D01*
X59498099Y-56189588D02*
X59545718Y-56237208D01*
X59545718Y-56237208D02*
X59640956Y-56284827D01*
X59640956Y-56284827D02*
X59926670Y-56284827D01*
X59926670Y-56284827D02*
X60021908Y-56237208D01*
X60021908Y-56237208D02*
X60069527Y-56189588D01*
D12*
X61839051Y-61040208D02*
X61793337Y-61055446D01*
X61793337Y-61055446D02*
X61717146Y-61055446D01*
X61717146Y-61055446D02*
X61686670Y-61040208D01*
X61686670Y-61040208D02*
X61671432Y-61024969D01*
X61671432Y-61024969D02*
X61656194Y-60994493D01*
X61656194Y-60994493D02*
X61656194Y-60964017D01*
X61656194Y-60964017D02*
X61671432Y-60933541D01*
X61671432Y-60933541D02*
X61686670Y-60918303D01*
X61686670Y-60918303D02*
X61717146Y-60903065D01*
X61717146Y-60903065D02*
X61778099Y-60887827D01*
X61778099Y-60887827D02*
X61808575Y-60872588D01*
X61808575Y-60872588D02*
X61823813Y-60857350D01*
X61823813Y-60857350D02*
X61839051Y-60826874D01*
X61839051Y-60826874D02*
X61839051Y-60796398D01*
X61839051Y-60796398D02*
X61823813Y-60765922D01*
X61823813Y-60765922D02*
X61808575Y-60750684D01*
X61808575Y-60750684D02*
X61778099Y-60735446D01*
X61778099Y-60735446D02*
X61701908Y-60735446D01*
X61701908Y-60735446D02*
X61656194Y-60750684D01*
X61549527Y-60735446D02*
X61473337Y-61055446D01*
X61473337Y-61055446D02*
X61412384Y-60826874D01*
X61412384Y-60826874D02*
X61351432Y-61055446D01*
X61351432Y-61055446D02*
X61275242Y-60735446D01*
X60985718Y-61055446D02*
X61168575Y-61055446D01*
X61077147Y-61055446D02*
X61077147Y-60735446D01*
X61077147Y-60735446D02*
X61107623Y-60781160D01*
X61107623Y-60781160D02*
X61138099Y-60811636D01*
X61138099Y-60811636D02*
X61168575Y-60826874D01*
X60879051Y-60735446D02*
X60680956Y-60735446D01*
X60680956Y-60735446D02*
X60787623Y-60857350D01*
X60787623Y-60857350D02*
X60741908Y-60857350D01*
X60741908Y-60857350D02*
X60711432Y-60872588D01*
X60711432Y-60872588D02*
X60696194Y-60887827D01*
X60696194Y-60887827D02*
X60680956Y-60918303D01*
X60680956Y-60918303D02*
X60680956Y-60994493D01*
X60680956Y-60994493D02*
X60696194Y-61024969D01*
X60696194Y-61024969D02*
X60711432Y-61040208D01*
X60711432Y-61040208D02*
X60741908Y-61055446D01*
X60741908Y-61055446D02*
X60833337Y-61055446D01*
X60833337Y-61055446D02*
X60863813Y-61040208D01*
X60863813Y-61040208D02*
X60879051Y-61024969D01*
D10*
X62593336Y-37237208D02*
X62450479Y-37284827D01*
X62450479Y-37284827D02*
X62212384Y-37284827D01*
X62212384Y-37284827D02*
X62117146Y-37237208D01*
X62117146Y-37237208D02*
X62069527Y-37189588D01*
X62069527Y-37189588D02*
X62021908Y-37094350D01*
X62021908Y-37094350D02*
X62021908Y-36999112D01*
X62021908Y-36999112D02*
X62069527Y-36903874D01*
X62069527Y-36903874D02*
X62117146Y-36856255D01*
X62117146Y-36856255D02*
X62212384Y-36808636D01*
X62212384Y-36808636D02*
X62402860Y-36761017D01*
X62402860Y-36761017D02*
X62498098Y-36713398D01*
X62498098Y-36713398D02*
X62545717Y-36665779D01*
X62545717Y-36665779D02*
X62593336Y-36570541D01*
X62593336Y-36570541D02*
X62593336Y-36475303D01*
X62593336Y-36475303D02*
X62545717Y-36380065D01*
X62545717Y-36380065D02*
X62498098Y-36332446D01*
X62498098Y-36332446D02*
X62402860Y-36284827D01*
X62402860Y-36284827D02*
X62164765Y-36284827D01*
X62164765Y-36284827D02*
X62021908Y-36332446D01*
X61688574Y-36284827D02*
X61450479Y-37284827D01*
X61450479Y-37284827D02*
X61260003Y-36570541D01*
X61260003Y-36570541D02*
X61069527Y-37284827D01*
X61069527Y-37284827D02*
X60831432Y-36284827D01*
X60307622Y-36713398D02*
X60402860Y-36665779D01*
X60402860Y-36665779D02*
X60450479Y-36618160D01*
X60450479Y-36618160D02*
X60498098Y-36522922D01*
X60498098Y-36522922D02*
X60498098Y-36475303D01*
X60498098Y-36475303D02*
X60450479Y-36380065D01*
X60450479Y-36380065D02*
X60402860Y-36332446D01*
X60402860Y-36332446D02*
X60307622Y-36284827D01*
X60307622Y-36284827D02*
X60117146Y-36284827D01*
X60117146Y-36284827D02*
X60021908Y-36332446D01*
X60021908Y-36332446D02*
X59974289Y-36380065D01*
X59974289Y-36380065D02*
X59926670Y-36475303D01*
X59926670Y-36475303D02*
X59926670Y-36522922D01*
X59926670Y-36522922D02*
X59974289Y-36618160D01*
X59974289Y-36618160D02*
X60021908Y-36665779D01*
X60021908Y-36665779D02*
X60117146Y-36713398D01*
X60117146Y-36713398D02*
X60307622Y-36713398D01*
X60307622Y-36713398D02*
X60402860Y-36761017D01*
X60402860Y-36761017D02*
X60450479Y-36808636D01*
X60450479Y-36808636D02*
X60498098Y-36903874D01*
X60498098Y-36903874D02*
X60498098Y-37094350D01*
X60498098Y-37094350D02*
X60450479Y-37189588D01*
X60450479Y-37189588D02*
X60402860Y-37237208D01*
X60402860Y-37237208D02*
X60307622Y-37284827D01*
X60307622Y-37284827D02*
X60117146Y-37284827D01*
X60117146Y-37284827D02*
X60021908Y-37237208D01*
X60021908Y-37237208D02*
X59974289Y-37189588D01*
X59974289Y-37189588D02*
X59926670Y-37094350D01*
X59926670Y-37094350D02*
X59926670Y-36903874D01*
X59926670Y-36903874D02*
X59974289Y-36808636D01*
X59974289Y-36808636D02*
X60021908Y-36761017D01*
X60021908Y-36761017D02*
X60117146Y-36713398D01*
D12*
X61686670Y-42040208D02*
X61640956Y-42055446D01*
X61640956Y-42055446D02*
X61564765Y-42055446D01*
X61564765Y-42055446D02*
X61534289Y-42040208D01*
X61534289Y-42040208D02*
X61519051Y-42024969D01*
X61519051Y-42024969D02*
X61503813Y-41994493D01*
X61503813Y-41994493D02*
X61503813Y-41964017D01*
X61503813Y-41964017D02*
X61519051Y-41933541D01*
X61519051Y-41933541D02*
X61534289Y-41918303D01*
X61534289Y-41918303D02*
X61564765Y-41903065D01*
X61564765Y-41903065D02*
X61625718Y-41887827D01*
X61625718Y-41887827D02*
X61656194Y-41872588D01*
X61656194Y-41872588D02*
X61671432Y-41857350D01*
X61671432Y-41857350D02*
X61686670Y-41826874D01*
X61686670Y-41826874D02*
X61686670Y-41796398D01*
X61686670Y-41796398D02*
X61671432Y-41765922D01*
X61671432Y-41765922D02*
X61656194Y-41750684D01*
X61656194Y-41750684D02*
X61625718Y-41735446D01*
X61625718Y-41735446D02*
X61549527Y-41735446D01*
X61549527Y-41735446D02*
X61503813Y-41750684D01*
X61397146Y-41735446D02*
X61320956Y-42055446D01*
X61320956Y-42055446D02*
X61260003Y-41826874D01*
X61260003Y-41826874D02*
X61199051Y-42055446D01*
X61199051Y-42055446D02*
X61122861Y-41735446D01*
X60955242Y-41872588D02*
X60985718Y-41857350D01*
X60985718Y-41857350D02*
X61000956Y-41842112D01*
X61000956Y-41842112D02*
X61016194Y-41811636D01*
X61016194Y-41811636D02*
X61016194Y-41796398D01*
X61016194Y-41796398D02*
X61000956Y-41765922D01*
X61000956Y-41765922D02*
X60985718Y-41750684D01*
X60985718Y-41750684D02*
X60955242Y-41735446D01*
X60955242Y-41735446D02*
X60894289Y-41735446D01*
X60894289Y-41735446D02*
X60863813Y-41750684D01*
X60863813Y-41750684D02*
X60848575Y-41765922D01*
X60848575Y-41765922D02*
X60833337Y-41796398D01*
X60833337Y-41796398D02*
X60833337Y-41811636D01*
X60833337Y-41811636D02*
X60848575Y-41842112D01*
X60848575Y-41842112D02*
X60863813Y-41857350D01*
X60863813Y-41857350D02*
X60894289Y-41872588D01*
X60894289Y-41872588D02*
X60955242Y-41872588D01*
X60955242Y-41872588D02*
X60985718Y-41887827D01*
X60985718Y-41887827D02*
X61000956Y-41903065D01*
X61000956Y-41903065D02*
X61016194Y-41933541D01*
X61016194Y-41933541D02*
X61016194Y-41994493D01*
X61016194Y-41994493D02*
X61000956Y-42024969D01*
X61000956Y-42024969D02*
X60985718Y-42040208D01*
X60985718Y-42040208D02*
X60955242Y-42055446D01*
X60955242Y-42055446D02*
X60894289Y-42055446D01*
X60894289Y-42055446D02*
X60863813Y-42040208D01*
X60863813Y-42040208D02*
X60848575Y-42024969D01*
X60848575Y-42024969D02*
X60833337Y-41994493D01*
X60833337Y-41994493D02*
X60833337Y-41933541D01*
X60833337Y-41933541D02*
X60848575Y-41903065D01*
X60848575Y-41903065D02*
X60863813Y-41887827D01*
X60863813Y-41887827D02*
X60894289Y-41872588D01*
D10*
X25069524Y-68237200D02*
X24926667Y-68284819D01*
X24926667Y-68284819D02*
X24688572Y-68284819D01*
X24688572Y-68284819D02*
X24593334Y-68237200D01*
X24593334Y-68237200D02*
X24545715Y-68189580D01*
X24545715Y-68189580D02*
X24498096Y-68094342D01*
X24498096Y-68094342D02*
X24498096Y-67999104D01*
X24498096Y-67999104D02*
X24545715Y-67903866D01*
X24545715Y-67903866D02*
X24593334Y-67856247D01*
X24593334Y-67856247D02*
X24688572Y-67808628D01*
X24688572Y-67808628D02*
X24879048Y-67761009D01*
X24879048Y-67761009D02*
X24974286Y-67713390D01*
X24974286Y-67713390D02*
X25021905Y-67665771D01*
X25021905Y-67665771D02*
X25069524Y-67570533D01*
X25069524Y-67570533D02*
X25069524Y-67475295D01*
X25069524Y-67475295D02*
X25021905Y-67380057D01*
X25021905Y-67380057D02*
X24974286Y-67332438D01*
X24974286Y-67332438D02*
X24879048Y-67284819D01*
X24879048Y-67284819D02*
X24640953Y-67284819D01*
X24640953Y-67284819D02*
X24498096Y-67332438D01*
X24164762Y-67284819D02*
X23926667Y-68284819D01*
X23926667Y-68284819D02*
X23736191Y-67570533D01*
X23736191Y-67570533D02*
X23545715Y-68284819D01*
X23545715Y-68284819D02*
X23307620Y-67284819D01*
X22402858Y-68284819D02*
X22974286Y-68284819D01*
X22688572Y-68284819D02*
X22688572Y-67284819D01*
X22688572Y-67284819D02*
X22783810Y-67427676D01*
X22783810Y-67427676D02*
X22879048Y-67522914D01*
X22879048Y-67522914D02*
X22974286Y-67570533D01*
X21450477Y-68284819D02*
X22021905Y-68284819D01*
X21736191Y-68284819D02*
X21736191Y-67284819D01*
X21736191Y-67284819D02*
X21831429Y-67427676D01*
X21831429Y-67427676D02*
X21926667Y-67522914D01*
X21926667Y-67522914D02*
X22021905Y-67570533D01*
D12*
X23839048Y-73040200D02*
X23793334Y-73055438D01*
X23793334Y-73055438D02*
X23717143Y-73055438D01*
X23717143Y-73055438D02*
X23686667Y-73040200D01*
X23686667Y-73040200D02*
X23671429Y-73024961D01*
X23671429Y-73024961D02*
X23656191Y-72994485D01*
X23656191Y-72994485D02*
X23656191Y-72964009D01*
X23656191Y-72964009D02*
X23671429Y-72933533D01*
X23671429Y-72933533D02*
X23686667Y-72918295D01*
X23686667Y-72918295D02*
X23717143Y-72903057D01*
X23717143Y-72903057D02*
X23778096Y-72887819D01*
X23778096Y-72887819D02*
X23808572Y-72872580D01*
X23808572Y-72872580D02*
X23823810Y-72857342D01*
X23823810Y-72857342D02*
X23839048Y-72826866D01*
X23839048Y-72826866D02*
X23839048Y-72796390D01*
X23839048Y-72796390D02*
X23823810Y-72765914D01*
X23823810Y-72765914D02*
X23808572Y-72750676D01*
X23808572Y-72750676D02*
X23778096Y-72735438D01*
X23778096Y-72735438D02*
X23701905Y-72735438D01*
X23701905Y-72735438D02*
X23656191Y-72750676D01*
X23549524Y-72735438D02*
X23473334Y-73055438D01*
X23473334Y-73055438D02*
X23412381Y-72826866D01*
X23412381Y-72826866D02*
X23351429Y-73055438D01*
X23351429Y-73055438D02*
X23275239Y-72735438D01*
X22985715Y-73055438D02*
X23168572Y-73055438D01*
X23077144Y-73055438D02*
X23077144Y-72735438D01*
X23077144Y-72735438D02*
X23107620Y-72781152D01*
X23107620Y-72781152D02*
X23138096Y-72811628D01*
X23138096Y-72811628D02*
X23168572Y-72826866D01*
X22680953Y-73055438D02*
X22863810Y-73055438D01*
X22772382Y-73055438D02*
X22772382Y-72735438D01*
X22772382Y-72735438D02*
X22802858Y-72781152D01*
X22802858Y-72781152D02*
X22833334Y-72811628D01*
X22833334Y-72811628D02*
X22863810Y-72826866D01*
D10*
X82069523Y-61237200D02*
X81926666Y-61284819D01*
X81926666Y-61284819D02*
X81688571Y-61284819D01*
X81688571Y-61284819D02*
X81593333Y-61237200D01*
X81593333Y-61237200D02*
X81545714Y-61189580D01*
X81545714Y-61189580D02*
X81498095Y-61094342D01*
X81498095Y-61094342D02*
X81498095Y-60999104D01*
X81498095Y-60999104D02*
X81545714Y-60903866D01*
X81545714Y-60903866D02*
X81593333Y-60856247D01*
X81593333Y-60856247D02*
X81688571Y-60808628D01*
X81688571Y-60808628D02*
X81879047Y-60761009D01*
X81879047Y-60761009D02*
X81974285Y-60713390D01*
X81974285Y-60713390D02*
X82021904Y-60665771D01*
X82021904Y-60665771D02*
X82069523Y-60570533D01*
X82069523Y-60570533D02*
X82069523Y-60475295D01*
X82069523Y-60475295D02*
X82021904Y-60380057D01*
X82021904Y-60380057D02*
X81974285Y-60332438D01*
X81974285Y-60332438D02*
X81879047Y-60284819D01*
X81879047Y-60284819D02*
X81640952Y-60284819D01*
X81640952Y-60284819D02*
X81498095Y-60332438D01*
X81164761Y-60284819D02*
X80926666Y-61284819D01*
X80926666Y-61284819D02*
X80736190Y-60570533D01*
X80736190Y-60570533D02*
X80545714Y-61284819D01*
X80545714Y-61284819D02*
X80307619Y-60284819D01*
X79402857Y-61284819D02*
X79974285Y-61284819D01*
X79688571Y-61284819D02*
X79688571Y-60284819D01*
X79688571Y-60284819D02*
X79783809Y-60427676D01*
X79783809Y-60427676D02*
X79879047Y-60522914D01*
X79879047Y-60522914D02*
X79974285Y-60570533D01*
X78545714Y-60618152D02*
X78545714Y-61284819D01*
X78783809Y-60237200D02*
X79021904Y-60951485D01*
X79021904Y-60951485D02*
X78402857Y-60951485D01*
D12*
X80839047Y-66040200D02*
X80793333Y-66055438D01*
X80793333Y-66055438D02*
X80717142Y-66055438D01*
X80717142Y-66055438D02*
X80686666Y-66040200D01*
X80686666Y-66040200D02*
X80671428Y-66024961D01*
X80671428Y-66024961D02*
X80656190Y-65994485D01*
X80656190Y-65994485D02*
X80656190Y-65964009D01*
X80656190Y-65964009D02*
X80671428Y-65933533D01*
X80671428Y-65933533D02*
X80686666Y-65918295D01*
X80686666Y-65918295D02*
X80717142Y-65903057D01*
X80717142Y-65903057D02*
X80778095Y-65887819D01*
X80778095Y-65887819D02*
X80808571Y-65872580D01*
X80808571Y-65872580D02*
X80823809Y-65857342D01*
X80823809Y-65857342D02*
X80839047Y-65826866D01*
X80839047Y-65826866D02*
X80839047Y-65796390D01*
X80839047Y-65796390D02*
X80823809Y-65765914D01*
X80823809Y-65765914D02*
X80808571Y-65750676D01*
X80808571Y-65750676D02*
X80778095Y-65735438D01*
X80778095Y-65735438D02*
X80701904Y-65735438D01*
X80701904Y-65735438D02*
X80656190Y-65750676D01*
X80549523Y-65735438D02*
X80473333Y-66055438D01*
X80473333Y-66055438D02*
X80412380Y-65826866D01*
X80412380Y-65826866D02*
X80351428Y-66055438D01*
X80351428Y-66055438D02*
X80275238Y-65735438D01*
X79985714Y-66055438D02*
X80168571Y-66055438D01*
X80077143Y-66055438D02*
X80077143Y-65735438D01*
X80077143Y-65735438D02*
X80107619Y-65781152D01*
X80107619Y-65781152D02*
X80138095Y-65811628D01*
X80138095Y-65811628D02*
X80168571Y-65826866D01*
X79711428Y-65842104D02*
X79711428Y-66055438D01*
X79787619Y-65720200D02*
X79863809Y-65948771D01*
X79863809Y-65948771D02*
X79665714Y-65948771D01*
D10*
X100593332Y-25237200D02*
X100450475Y-25284819D01*
X100450475Y-25284819D02*
X100212380Y-25284819D01*
X100212380Y-25284819D02*
X100117142Y-25237200D01*
X100117142Y-25237200D02*
X100069523Y-25189580D01*
X100069523Y-25189580D02*
X100021904Y-25094342D01*
X100021904Y-25094342D02*
X100021904Y-24999104D01*
X100021904Y-24999104D02*
X100069523Y-24903866D01*
X100069523Y-24903866D02*
X100117142Y-24856247D01*
X100117142Y-24856247D02*
X100212380Y-24808628D01*
X100212380Y-24808628D02*
X100402856Y-24761009D01*
X100402856Y-24761009D02*
X100498094Y-24713390D01*
X100498094Y-24713390D02*
X100545713Y-24665771D01*
X100545713Y-24665771D02*
X100593332Y-24570533D01*
X100593332Y-24570533D02*
X100593332Y-24475295D01*
X100593332Y-24475295D02*
X100545713Y-24380057D01*
X100545713Y-24380057D02*
X100498094Y-24332438D01*
X100498094Y-24332438D02*
X100402856Y-24284819D01*
X100402856Y-24284819D02*
X100164761Y-24284819D01*
X100164761Y-24284819D02*
X100021904Y-24332438D01*
X99688570Y-24284819D02*
X99450475Y-25284819D01*
X99450475Y-25284819D02*
X99259999Y-24570533D01*
X99259999Y-24570533D02*
X99069523Y-25284819D01*
X99069523Y-25284819D02*
X98831428Y-24284819D01*
X97974285Y-24284819D02*
X98450475Y-24284819D01*
X98450475Y-24284819D02*
X98498094Y-24761009D01*
X98498094Y-24761009D02*
X98450475Y-24713390D01*
X98450475Y-24713390D02*
X98355237Y-24665771D01*
X98355237Y-24665771D02*
X98117142Y-24665771D01*
X98117142Y-24665771D02*
X98021904Y-24713390D01*
X98021904Y-24713390D02*
X97974285Y-24761009D01*
X97974285Y-24761009D02*
X97926666Y-24856247D01*
X97926666Y-24856247D02*
X97926666Y-25094342D01*
X97926666Y-25094342D02*
X97974285Y-25189580D01*
X97974285Y-25189580D02*
X98021904Y-25237200D01*
X98021904Y-25237200D02*
X98117142Y-25284819D01*
X98117142Y-25284819D02*
X98355237Y-25284819D01*
X98355237Y-25284819D02*
X98450475Y-25237200D01*
X98450475Y-25237200D02*
X98498094Y-25189580D01*
D12*
X99686666Y-30040200D02*
X99640952Y-30055438D01*
X99640952Y-30055438D02*
X99564761Y-30055438D01*
X99564761Y-30055438D02*
X99534285Y-30040200D01*
X99534285Y-30040200D02*
X99519047Y-30024961D01*
X99519047Y-30024961D02*
X99503809Y-29994485D01*
X99503809Y-29994485D02*
X99503809Y-29964009D01*
X99503809Y-29964009D02*
X99519047Y-29933533D01*
X99519047Y-29933533D02*
X99534285Y-29918295D01*
X99534285Y-29918295D02*
X99564761Y-29903057D01*
X99564761Y-29903057D02*
X99625714Y-29887819D01*
X99625714Y-29887819D02*
X99656190Y-29872580D01*
X99656190Y-29872580D02*
X99671428Y-29857342D01*
X99671428Y-29857342D02*
X99686666Y-29826866D01*
X99686666Y-29826866D02*
X99686666Y-29796390D01*
X99686666Y-29796390D02*
X99671428Y-29765914D01*
X99671428Y-29765914D02*
X99656190Y-29750676D01*
X99656190Y-29750676D02*
X99625714Y-29735438D01*
X99625714Y-29735438D02*
X99549523Y-29735438D01*
X99549523Y-29735438D02*
X99503809Y-29750676D01*
X99397142Y-29735438D02*
X99320952Y-30055438D01*
X99320952Y-30055438D02*
X99259999Y-29826866D01*
X99259999Y-29826866D02*
X99199047Y-30055438D01*
X99199047Y-30055438D02*
X99122857Y-29735438D01*
X98848571Y-29735438D02*
X99000952Y-29735438D01*
X99000952Y-29735438D02*
X99016190Y-29887819D01*
X99016190Y-29887819D02*
X99000952Y-29872580D01*
X99000952Y-29872580D02*
X98970476Y-29857342D01*
X98970476Y-29857342D02*
X98894285Y-29857342D01*
X98894285Y-29857342D02*
X98863809Y-29872580D01*
X98863809Y-29872580D02*
X98848571Y-29887819D01*
X98848571Y-29887819D02*
X98833333Y-29918295D01*
X98833333Y-29918295D02*
X98833333Y-29994485D01*
X98833333Y-29994485D02*
X98848571Y-30024961D01*
X98848571Y-30024961D02*
X98863809Y-30040200D01*
X98863809Y-30040200D02*
X98894285Y-30055438D01*
X98894285Y-30055438D02*
X98970476Y-30055438D01*
X98970476Y-30055438D02*
X99000952Y-30040200D01*
X99000952Y-30040200D02*
X99016190Y-30024961D01*
D10*
X101069523Y-63237200D02*
X100926666Y-63284819D01*
X100926666Y-63284819D02*
X100688571Y-63284819D01*
X100688571Y-63284819D02*
X100593333Y-63237200D01*
X100593333Y-63237200D02*
X100545714Y-63189580D01*
X100545714Y-63189580D02*
X100498095Y-63094342D01*
X100498095Y-63094342D02*
X100498095Y-62999104D01*
X100498095Y-62999104D02*
X100545714Y-62903866D01*
X100545714Y-62903866D02*
X100593333Y-62856247D01*
X100593333Y-62856247D02*
X100688571Y-62808628D01*
X100688571Y-62808628D02*
X100879047Y-62761009D01*
X100879047Y-62761009D02*
X100974285Y-62713390D01*
X100974285Y-62713390D02*
X101021904Y-62665771D01*
X101021904Y-62665771D02*
X101069523Y-62570533D01*
X101069523Y-62570533D02*
X101069523Y-62475295D01*
X101069523Y-62475295D02*
X101021904Y-62380057D01*
X101021904Y-62380057D02*
X100974285Y-62332438D01*
X100974285Y-62332438D02*
X100879047Y-62284819D01*
X100879047Y-62284819D02*
X100640952Y-62284819D01*
X100640952Y-62284819D02*
X100498095Y-62332438D01*
X100164761Y-62284819D02*
X99926666Y-63284819D01*
X99926666Y-63284819D02*
X99736190Y-62570533D01*
X99736190Y-62570533D02*
X99545714Y-63284819D01*
X99545714Y-63284819D02*
X99307619Y-62284819D01*
X98402857Y-63284819D02*
X98974285Y-63284819D01*
X98688571Y-63284819D02*
X98688571Y-62284819D01*
X98688571Y-62284819D02*
X98783809Y-62427676D01*
X98783809Y-62427676D02*
X98879047Y-62522914D01*
X98879047Y-62522914D02*
X98974285Y-62570533D01*
X97498095Y-62284819D02*
X97974285Y-62284819D01*
X97974285Y-62284819D02*
X98021904Y-62761009D01*
X98021904Y-62761009D02*
X97974285Y-62713390D01*
X97974285Y-62713390D02*
X97879047Y-62665771D01*
X97879047Y-62665771D02*
X97640952Y-62665771D01*
X97640952Y-62665771D02*
X97545714Y-62713390D01*
X97545714Y-62713390D02*
X97498095Y-62761009D01*
X97498095Y-62761009D02*
X97450476Y-62856247D01*
X97450476Y-62856247D02*
X97450476Y-63094342D01*
X97450476Y-63094342D02*
X97498095Y-63189580D01*
X97498095Y-63189580D02*
X97545714Y-63237200D01*
X97545714Y-63237200D02*
X97640952Y-63284819D01*
X97640952Y-63284819D02*
X97879047Y-63284819D01*
X97879047Y-63284819D02*
X97974285Y-63237200D01*
X97974285Y-63237200D02*
X98021904Y-63189580D01*
D12*
X99839047Y-68040200D02*
X99793333Y-68055438D01*
X99793333Y-68055438D02*
X99717142Y-68055438D01*
X99717142Y-68055438D02*
X99686666Y-68040200D01*
X99686666Y-68040200D02*
X99671428Y-68024961D01*
X99671428Y-68024961D02*
X99656190Y-67994485D01*
X99656190Y-67994485D02*
X99656190Y-67964009D01*
X99656190Y-67964009D02*
X99671428Y-67933533D01*
X99671428Y-67933533D02*
X99686666Y-67918295D01*
X99686666Y-67918295D02*
X99717142Y-67903057D01*
X99717142Y-67903057D02*
X99778095Y-67887819D01*
X99778095Y-67887819D02*
X99808571Y-67872580D01*
X99808571Y-67872580D02*
X99823809Y-67857342D01*
X99823809Y-67857342D02*
X99839047Y-67826866D01*
X99839047Y-67826866D02*
X99839047Y-67796390D01*
X99839047Y-67796390D02*
X99823809Y-67765914D01*
X99823809Y-67765914D02*
X99808571Y-67750676D01*
X99808571Y-67750676D02*
X99778095Y-67735438D01*
X99778095Y-67735438D02*
X99701904Y-67735438D01*
X99701904Y-67735438D02*
X99656190Y-67750676D01*
X99549523Y-67735438D02*
X99473333Y-68055438D01*
X99473333Y-68055438D02*
X99412380Y-67826866D01*
X99412380Y-67826866D02*
X99351428Y-68055438D01*
X99351428Y-68055438D02*
X99275238Y-67735438D01*
X98985714Y-68055438D02*
X99168571Y-68055438D01*
X99077143Y-68055438D02*
X99077143Y-67735438D01*
X99077143Y-67735438D02*
X99107619Y-67781152D01*
X99107619Y-67781152D02*
X99138095Y-67811628D01*
X99138095Y-67811628D02*
X99168571Y-67826866D01*
X98696190Y-67735438D02*
X98848571Y-67735438D01*
X98848571Y-67735438D02*
X98863809Y-67887819D01*
X98863809Y-67887819D02*
X98848571Y-67872580D01*
X98848571Y-67872580D02*
X98818095Y-67857342D01*
X98818095Y-67857342D02*
X98741904Y-67857342D01*
X98741904Y-67857342D02*
X98711428Y-67872580D01*
X98711428Y-67872580D02*
X98696190Y-67887819D01*
X98696190Y-67887819D02*
X98680952Y-67918295D01*
X98680952Y-67918295D02*
X98680952Y-67994485D01*
X98680952Y-67994485D02*
X98696190Y-68024961D01*
X98696190Y-68024961D02*
X98711428Y-68040200D01*
X98711428Y-68040200D02*
X98741904Y-68055438D01*
X98741904Y-68055438D02*
X98818095Y-68055438D01*
X98818095Y-68055438D02*
X98848571Y-68040200D01*
X98848571Y-68040200D02*
X98863809Y-68024961D01*
D10*
X73069523Y-87237200D02*
X72926666Y-87284819D01*
X72926666Y-87284819D02*
X72688571Y-87284819D01*
X72688571Y-87284819D02*
X72593333Y-87237200D01*
X72593333Y-87237200D02*
X72545714Y-87189580D01*
X72545714Y-87189580D02*
X72498095Y-87094342D01*
X72498095Y-87094342D02*
X72498095Y-86999104D01*
X72498095Y-86999104D02*
X72545714Y-86903866D01*
X72545714Y-86903866D02*
X72593333Y-86856247D01*
X72593333Y-86856247D02*
X72688571Y-86808628D01*
X72688571Y-86808628D02*
X72879047Y-86761009D01*
X72879047Y-86761009D02*
X72974285Y-86713390D01*
X72974285Y-86713390D02*
X73021904Y-86665771D01*
X73021904Y-86665771D02*
X73069523Y-86570533D01*
X73069523Y-86570533D02*
X73069523Y-86475295D01*
X73069523Y-86475295D02*
X73021904Y-86380057D01*
X73021904Y-86380057D02*
X72974285Y-86332438D01*
X72974285Y-86332438D02*
X72879047Y-86284819D01*
X72879047Y-86284819D02*
X72640952Y-86284819D01*
X72640952Y-86284819D02*
X72498095Y-86332438D01*
X72164761Y-86284819D02*
X71926666Y-87284819D01*
X71926666Y-87284819D02*
X71736190Y-86570533D01*
X71736190Y-86570533D02*
X71545714Y-87284819D01*
X71545714Y-87284819D02*
X71307619Y-86284819D01*
X70402857Y-87284819D02*
X70974285Y-87284819D01*
X70688571Y-87284819D02*
X70688571Y-86284819D01*
X70688571Y-86284819D02*
X70783809Y-86427676D01*
X70783809Y-86427676D02*
X70879047Y-86522914D01*
X70879047Y-86522914D02*
X70974285Y-86570533D01*
X69545714Y-86284819D02*
X69736190Y-86284819D01*
X69736190Y-86284819D02*
X69831428Y-86332438D01*
X69831428Y-86332438D02*
X69879047Y-86380057D01*
X69879047Y-86380057D02*
X69974285Y-86522914D01*
X69974285Y-86522914D02*
X70021904Y-86713390D01*
X70021904Y-86713390D02*
X70021904Y-87094342D01*
X70021904Y-87094342D02*
X69974285Y-87189580D01*
X69974285Y-87189580D02*
X69926666Y-87237200D01*
X69926666Y-87237200D02*
X69831428Y-87284819D01*
X69831428Y-87284819D02*
X69640952Y-87284819D01*
X69640952Y-87284819D02*
X69545714Y-87237200D01*
X69545714Y-87237200D02*
X69498095Y-87189580D01*
X69498095Y-87189580D02*
X69450476Y-87094342D01*
X69450476Y-87094342D02*
X69450476Y-86856247D01*
X69450476Y-86856247D02*
X69498095Y-86761009D01*
X69498095Y-86761009D02*
X69545714Y-86713390D01*
X69545714Y-86713390D02*
X69640952Y-86665771D01*
X69640952Y-86665771D02*
X69831428Y-86665771D01*
X69831428Y-86665771D02*
X69926666Y-86713390D01*
X69926666Y-86713390D02*
X69974285Y-86761009D01*
X69974285Y-86761009D02*
X70021904Y-86856247D01*
D12*
X71839047Y-92040200D02*
X71793333Y-92055438D01*
X71793333Y-92055438D02*
X71717142Y-92055438D01*
X71717142Y-92055438D02*
X71686666Y-92040200D01*
X71686666Y-92040200D02*
X71671428Y-92024961D01*
X71671428Y-92024961D02*
X71656190Y-91994485D01*
X71656190Y-91994485D02*
X71656190Y-91964009D01*
X71656190Y-91964009D02*
X71671428Y-91933533D01*
X71671428Y-91933533D02*
X71686666Y-91918295D01*
X71686666Y-91918295D02*
X71717142Y-91903057D01*
X71717142Y-91903057D02*
X71778095Y-91887819D01*
X71778095Y-91887819D02*
X71808571Y-91872580D01*
X71808571Y-91872580D02*
X71823809Y-91857342D01*
X71823809Y-91857342D02*
X71839047Y-91826866D01*
X71839047Y-91826866D02*
X71839047Y-91796390D01*
X71839047Y-91796390D02*
X71823809Y-91765914D01*
X71823809Y-91765914D02*
X71808571Y-91750676D01*
X71808571Y-91750676D02*
X71778095Y-91735438D01*
X71778095Y-91735438D02*
X71701904Y-91735438D01*
X71701904Y-91735438D02*
X71656190Y-91750676D01*
X71549523Y-91735438D02*
X71473333Y-92055438D01*
X71473333Y-92055438D02*
X71412380Y-91826866D01*
X71412380Y-91826866D02*
X71351428Y-92055438D01*
X71351428Y-92055438D02*
X71275238Y-91735438D01*
X70985714Y-92055438D02*
X71168571Y-92055438D01*
X71077143Y-92055438D02*
X71077143Y-91735438D01*
X71077143Y-91735438D02*
X71107619Y-91781152D01*
X71107619Y-91781152D02*
X71138095Y-91811628D01*
X71138095Y-91811628D02*
X71168571Y-91826866D01*
X70711428Y-91735438D02*
X70772381Y-91735438D01*
X70772381Y-91735438D02*
X70802857Y-91750676D01*
X70802857Y-91750676D02*
X70818095Y-91765914D01*
X70818095Y-91765914D02*
X70848571Y-91811628D01*
X70848571Y-91811628D02*
X70863809Y-91872580D01*
X70863809Y-91872580D02*
X70863809Y-91994485D01*
X70863809Y-91994485D02*
X70848571Y-92024961D01*
X70848571Y-92024961D02*
X70833333Y-92040200D01*
X70833333Y-92040200D02*
X70802857Y-92055438D01*
X70802857Y-92055438D02*
X70741904Y-92055438D01*
X70741904Y-92055438D02*
X70711428Y-92040200D01*
X70711428Y-92040200D02*
X70696190Y-92024961D01*
X70696190Y-92024961D02*
X70680952Y-91994485D01*
X70680952Y-91994485D02*
X70680952Y-91918295D01*
X70680952Y-91918295D02*
X70696190Y-91887819D01*
X70696190Y-91887819D02*
X70711428Y-91872580D01*
X70711428Y-91872580D02*
X70741904Y-91857342D01*
X70741904Y-91857342D02*
X70802857Y-91857342D01*
X70802857Y-91857342D02*
X70833333Y-91872580D01*
X70833333Y-91872580D02*
X70848571Y-91887819D01*
X70848571Y-91887819D02*
X70863809Y-91918295D01*
D10*
X24593332Y-49237200D02*
X24450475Y-49284819D01*
X24450475Y-49284819D02*
X24212380Y-49284819D01*
X24212380Y-49284819D02*
X24117142Y-49237200D01*
X24117142Y-49237200D02*
X24069523Y-49189580D01*
X24069523Y-49189580D02*
X24021904Y-49094342D01*
X24021904Y-49094342D02*
X24021904Y-48999104D01*
X24021904Y-48999104D02*
X24069523Y-48903866D01*
X24069523Y-48903866D02*
X24117142Y-48856247D01*
X24117142Y-48856247D02*
X24212380Y-48808628D01*
X24212380Y-48808628D02*
X24402856Y-48761009D01*
X24402856Y-48761009D02*
X24498094Y-48713390D01*
X24498094Y-48713390D02*
X24545713Y-48665771D01*
X24545713Y-48665771D02*
X24593332Y-48570533D01*
X24593332Y-48570533D02*
X24593332Y-48475295D01*
X24593332Y-48475295D02*
X24545713Y-48380057D01*
X24545713Y-48380057D02*
X24498094Y-48332438D01*
X24498094Y-48332438D02*
X24402856Y-48284819D01*
X24402856Y-48284819D02*
X24164761Y-48284819D01*
X24164761Y-48284819D02*
X24021904Y-48332438D01*
X23688570Y-48284819D02*
X23450475Y-49284819D01*
X23450475Y-49284819D02*
X23259999Y-48570533D01*
X23259999Y-48570533D02*
X23069523Y-49284819D01*
X23069523Y-49284819D02*
X22831428Y-48284819D01*
X22021904Y-48284819D02*
X22212380Y-48284819D01*
X22212380Y-48284819D02*
X22307618Y-48332438D01*
X22307618Y-48332438D02*
X22355237Y-48380057D01*
X22355237Y-48380057D02*
X22450475Y-48522914D01*
X22450475Y-48522914D02*
X22498094Y-48713390D01*
X22498094Y-48713390D02*
X22498094Y-49094342D01*
X22498094Y-49094342D02*
X22450475Y-49189580D01*
X22450475Y-49189580D02*
X22402856Y-49237200D01*
X22402856Y-49237200D02*
X22307618Y-49284819D01*
X22307618Y-49284819D02*
X22117142Y-49284819D01*
X22117142Y-49284819D02*
X22021904Y-49237200D01*
X22021904Y-49237200D02*
X21974285Y-49189580D01*
X21974285Y-49189580D02*
X21926666Y-49094342D01*
X21926666Y-49094342D02*
X21926666Y-48856247D01*
X21926666Y-48856247D02*
X21974285Y-48761009D01*
X21974285Y-48761009D02*
X22021904Y-48713390D01*
X22021904Y-48713390D02*
X22117142Y-48665771D01*
X22117142Y-48665771D02*
X22307618Y-48665771D01*
X22307618Y-48665771D02*
X22402856Y-48713390D01*
X22402856Y-48713390D02*
X22450475Y-48761009D01*
X22450475Y-48761009D02*
X22498094Y-48856247D01*
D12*
X23686666Y-54040200D02*
X23640952Y-54055438D01*
X23640952Y-54055438D02*
X23564761Y-54055438D01*
X23564761Y-54055438D02*
X23534285Y-54040200D01*
X23534285Y-54040200D02*
X23519047Y-54024961D01*
X23519047Y-54024961D02*
X23503809Y-53994485D01*
X23503809Y-53994485D02*
X23503809Y-53964009D01*
X23503809Y-53964009D02*
X23519047Y-53933533D01*
X23519047Y-53933533D02*
X23534285Y-53918295D01*
X23534285Y-53918295D02*
X23564761Y-53903057D01*
X23564761Y-53903057D02*
X23625714Y-53887819D01*
X23625714Y-53887819D02*
X23656190Y-53872580D01*
X23656190Y-53872580D02*
X23671428Y-53857342D01*
X23671428Y-53857342D02*
X23686666Y-53826866D01*
X23686666Y-53826866D02*
X23686666Y-53796390D01*
X23686666Y-53796390D02*
X23671428Y-53765914D01*
X23671428Y-53765914D02*
X23656190Y-53750676D01*
X23656190Y-53750676D02*
X23625714Y-53735438D01*
X23625714Y-53735438D02*
X23549523Y-53735438D01*
X23549523Y-53735438D02*
X23503809Y-53750676D01*
X23397142Y-53735438D02*
X23320952Y-54055438D01*
X23320952Y-54055438D02*
X23259999Y-53826866D01*
X23259999Y-53826866D02*
X23199047Y-54055438D01*
X23199047Y-54055438D02*
X23122857Y-53735438D01*
X22863809Y-53735438D02*
X22924762Y-53735438D01*
X22924762Y-53735438D02*
X22955238Y-53750676D01*
X22955238Y-53750676D02*
X22970476Y-53765914D01*
X22970476Y-53765914D02*
X23000952Y-53811628D01*
X23000952Y-53811628D02*
X23016190Y-53872580D01*
X23016190Y-53872580D02*
X23016190Y-53994485D01*
X23016190Y-53994485D02*
X23000952Y-54024961D01*
X23000952Y-54024961D02*
X22985714Y-54040200D01*
X22985714Y-54040200D02*
X22955238Y-54055438D01*
X22955238Y-54055438D02*
X22894285Y-54055438D01*
X22894285Y-54055438D02*
X22863809Y-54040200D01*
X22863809Y-54040200D02*
X22848571Y-54024961D01*
X22848571Y-54024961D02*
X22833333Y-53994485D01*
X22833333Y-53994485D02*
X22833333Y-53918295D01*
X22833333Y-53918295D02*
X22848571Y-53887819D01*
X22848571Y-53887819D02*
X22863809Y-53872580D01*
X22863809Y-53872580D02*
X22894285Y-53857342D01*
X22894285Y-53857342D02*
X22955238Y-53857342D01*
X22955238Y-53857342D02*
X22985714Y-53872580D01*
X22985714Y-53872580D02*
X23000952Y-53887819D01*
X23000952Y-53887819D02*
X23016190Y-53918295D01*
D10*
X44069527Y-59237208D02*
X43926670Y-59284827D01*
X43926670Y-59284827D02*
X43688575Y-59284827D01*
X43688575Y-59284827D02*
X43593337Y-59237208D01*
X43593337Y-59237208D02*
X43545718Y-59189588D01*
X43545718Y-59189588D02*
X43498099Y-59094350D01*
X43498099Y-59094350D02*
X43498099Y-58999112D01*
X43498099Y-58999112D02*
X43545718Y-58903874D01*
X43545718Y-58903874D02*
X43593337Y-58856255D01*
X43593337Y-58856255D02*
X43688575Y-58808636D01*
X43688575Y-58808636D02*
X43879051Y-58761017D01*
X43879051Y-58761017D02*
X43974289Y-58713398D01*
X43974289Y-58713398D02*
X44021908Y-58665779D01*
X44021908Y-58665779D02*
X44069527Y-58570541D01*
X44069527Y-58570541D02*
X44069527Y-58475303D01*
X44069527Y-58475303D02*
X44021908Y-58380065D01*
X44021908Y-58380065D02*
X43974289Y-58332446D01*
X43974289Y-58332446D02*
X43879051Y-58284827D01*
X43879051Y-58284827D02*
X43640956Y-58284827D01*
X43640956Y-58284827D02*
X43498099Y-58332446D01*
X43164765Y-58284827D02*
X42926670Y-59284827D01*
X42926670Y-59284827D02*
X42736194Y-58570541D01*
X42736194Y-58570541D02*
X42545718Y-59284827D01*
X42545718Y-59284827D02*
X42307623Y-58284827D01*
X41402861Y-59284827D02*
X41974289Y-59284827D01*
X41688575Y-59284827D02*
X41688575Y-58284827D01*
X41688575Y-58284827D02*
X41783813Y-58427684D01*
X41783813Y-58427684D02*
X41879051Y-58522922D01*
X41879051Y-58522922D02*
X41974289Y-58570541D01*
X41021908Y-58380065D02*
X40974289Y-58332446D01*
X40974289Y-58332446D02*
X40879051Y-58284827D01*
X40879051Y-58284827D02*
X40640956Y-58284827D01*
X40640956Y-58284827D02*
X40545718Y-58332446D01*
X40545718Y-58332446D02*
X40498099Y-58380065D01*
X40498099Y-58380065D02*
X40450480Y-58475303D01*
X40450480Y-58475303D02*
X40450480Y-58570541D01*
X40450480Y-58570541D02*
X40498099Y-58713398D01*
X40498099Y-58713398D02*
X41069527Y-59284827D01*
X41069527Y-59284827D02*
X40450480Y-59284827D01*
D12*
X42839051Y-64040208D02*
X42793337Y-64055446D01*
X42793337Y-64055446D02*
X42717146Y-64055446D01*
X42717146Y-64055446D02*
X42686670Y-64040208D01*
X42686670Y-64040208D02*
X42671432Y-64024969D01*
X42671432Y-64024969D02*
X42656194Y-63994493D01*
X42656194Y-63994493D02*
X42656194Y-63964017D01*
X42656194Y-63964017D02*
X42671432Y-63933541D01*
X42671432Y-63933541D02*
X42686670Y-63918303D01*
X42686670Y-63918303D02*
X42717146Y-63903065D01*
X42717146Y-63903065D02*
X42778099Y-63887827D01*
X42778099Y-63887827D02*
X42808575Y-63872588D01*
X42808575Y-63872588D02*
X42823813Y-63857350D01*
X42823813Y-63857350D02*
X42839051Y-63826874D01*
X42839051Y-63826874D02*
X42839051Y-63796398D01*
X42839051Y-63796398D02*
X42823813Y-63765922D01*
X42823813Y-63765922D02*
X42808575Y-63750684D01*
X42808575Y-63750684D02*
X42778099Y-63735446D01*
X42778099Y-63735446D02*
X42701908Y-63735446D01*
X42701908Y-63735446D02*
X42656194Y-63750684D01*
X42549527Y-63735446D02*
X42473337Y-64055446D01*
X42473337Y-64055446D02*
X42412384Y-63826874D01*
X42412384Y-63826874D02*
X42351432Y-64055446D01*
X42351432Y-64055446D02*
X42275242Y-63735446D01*
X41985718Y-64055446D02*
X42168575Y-64055446D01*
X42077147Y-64055446D02*
X42077147Y-63735446D01*
X42077147Y-63735446D02*
X42107623Y-63781160D01*
X42107623Y-63781160D02*
X42138099Y-63811636D01*
X42138099Y-63811636D02*
X42168575Y-63826874D01*
X41863813Y-63765922D02*
X41848575Y-63750684D01*
X41848575Y-63750684D02*
X41818099Y-63735446D01*
X41818099Y-63735446D02*
X41741908Y-63735446D01*
X41741908Y-63735446D02*
X41711432Y-63750684D01*
X41711432Y-63750684D02*
X41696194Y-63765922D01*
X41696194Y-63765922D02*
X41680956Y-63796398D01*
X41680956Y-63796398D02*
X41680956Y-63826874D01*
X41680956Y-63826874D02*
X41696194Y-63872588D01*
X41696194Y-63872588D02*
X41879051Y-64055446D01*
X41879051Y-64055446D02*
X41680956Y-64055446D01*
D10*
X92069523Y-89237200D02*
X91926666Y-89284819D01*
X91926666Y-89284819D02*
X91688571Y-89284819D01*
X91688571Y-89284819D02*
X91593333Y-89237200D01*
X91593333Y-89237200D02*
X91545714Y-89189580D01*
X91545714Y-89189580D02*
X91498095Y-89094342D01*
X91498095Y-89094342D02*
X91498095Y-88999104D01*
X91498095Y-88999104D02*
X91545714Y-88903866D01*
X91545714Y-88903866D02*
X91593333Y-88856247D01*
X91593333Y-88856247D02*
X91688571Y-88808628D01*
X91688571Y-88808628D02*
X91879047Y-88761009D01*
X91879047Y-88761009D02*
X91974285Y-88713390D01*
X91974285Y-88713390D02*
X92021904Y-88665771D01*
X92021904Y-88665771D02*
X92069523Y-88570533D01*
X92069523Y-88570533D02*
X92069523Y-88475295D01*
X92069523Y-88475295D02*
X92021904Y-88380057D01*
X92021904Y-88380057D02*
X91974285Y-88332438D01*
X91974285Y-88332438D02*
X91879047Y-88284819D01*
X91879047Y-88284819D02*
X91640952Y-88284819D01*
X91640952Y-88284819D02*
X91498095Y-88332438D01*
X91164761Y-88284819D02*
X90926666Y-89284819D01*
X90926666Y-89284819D02*
X90736190Y-88570533D01*
X90736190Y-88570533D02*
X90545714Y-89284819D01*
X90545714Y-89284819D02*
X90307619Y-88284819D01*
X89402857Y-89284819D02*
X89974285Y-89284819D01*
X89688571Y-89284819D02*
X89688571Y-88284819D01*
X89688571Y-88284819D02*
X89783809Y-88427676D01*
X89783809Y-88427676D02*
X89879047Y-88522914D01*
X89879047Y-88522914D02*
X89974285Y-88570533D01*
X89069523Y-88284819D02*
X88402857Y-88284819D01*
X88402857Y-88284819D02*
X88831428Y-89284819D01*
D12*
X90839047Y-94040200D02*
X90793333Y-94055438D01*
X90793333Y-94055438D02*
X90717142Y-94055438D01*
X90717142Y-94055438D02*
X90686666Y-94040200D01*
X90686666Y-94040200D02*
X90671428Y-94024961D01*
X90671428Y-94024961D02*
X90656190Y-93994485D01*
X90656190Y-93994485D02*
X90656190Y-93964009D01*
X90656190Y-93964009D02*
X90671428Y-93933533D01*
X90671428Y-93933533D02*
X90686666Y-93918295D01*
X90686666Y-93918295D02*
X90717142Y-93903057D01*
X90717142Y-93903057D02*
X90778095Y-93887819D01*
X90778095Y-93887819D02*
X90808571Y-93872580D01*
X90808571Y-93872580D02*
X90823809Y-93857342D01*
X90823809Y-93857342D02*
X90839047Y-93826866D01*
X90839047Y-93826866D02*
X90839047Y-93796390D01*
X90839047Y-93796390D02*
X90823809Y-93765914D01*
X90823809Y-93765914D02*
X90808571Y-93750676D01*
X90808571Y-93750676D02*
X90778095Y-93735438D01*
X90778095Y-93735438D02*
X90701904Y-93735438D01*
X90701904Y-93735438D02*
X90656190Y-93750676D01*
X90549523Y-93735438D02*
X90473333Y-94055438D01*
X90473333Y-94055438D02*
X90412380Y-93826866D01*
X90412380Y-93826866D02*
X90351428Y-94055438D01*
X90351428Y-94055438D02*
X90275238Y-93735438D01*
X89985714Y-94055438D02*
X90168571Y-94055438D01*
X90077143Y-94055438D02*
X90077143Y-93735438D01*
X90077143Y-93735438D02*
X90107619Y-93781152D01*
X90107619Y-93781152D02*
X90138095Y-93811628D01*
X90138095Y-93811628D02*
X90168571Y-93826866D01*
X89879047Y-93735438D02*
X89665714Y-93735438D01*
X89665714Y-93735438D02*
X89802857Y-94055438D01*
D10*
X111059523Y-92237200D02*
X110916666Y-92284819D01*
X110916666Y-92284819D02*
X110678571Y-92284819D01*
X110678571Y-92284819D02*
X110583333Y-92237200D01*
X110583333Y-92237200D02*
X110535714Y-92189580D01*
X110535714Y-92189580D02*
X110488095Y-92094342D01*
X110488095Y-92094342D02*
X110488095Y-91999104D01*
X110488095Y-91999104D02*
X110535714Y-91903866D01*
X110535714Y-91903866D02*
X110583333Y-91856247D01*
X110583333Y-91856247D02*
X110678571Y-91808628D01*
X110678571Y-91808628D02*
X110869047Y-91761009D01*
X110869047Y-91761009D02*
X110964285Y-91713390D01*
X110964285Y-91713390D02*
X111011904Y-91665771D01*
X111011904Y-91665771D02*
X111059523Y-91570533D01*
X111059523Y-91570533D02*
X111059523Y-91475295D01*
X111059523Y-91475295D02*
X111011904Y-91380057D01*
X111011904Y-91380057D02*
X110964285Y-91332438D01*
X110964285Y-91332438D02*
X110869047Y-91284819D01*
X110869047Y-91284819D02*
X110630952Y-91284819D01*
X110630952Y-91284819D02*
X110488095Y-91332438D01*
X110154761Y-91284819D02*
X109916666Y-92284819D01*
X109916666Y-92284819D02*
X109726190Y-91570533D01*
X109726190Y-91570533D02*
X109535714Y-92284819D01*
X109535714Y-92284819D02*
X109297619Y-91284819D01*
X108392857Y-92284819D02*
X108964285Y-92284819D01*
X108678571Y-92284819D02*
X108678571Y-91284819D01*
X108678571Y-91284819D02*
X108773809Y-91427676D01*
X108773809Y-91427676D02*
X108869047Y-91522914D01*
X108869047Y-91522914D02*
X108964285Y-91570533D01*
X107821428Y-91713390D02*
X107916666Y-91665771D01*
X107916666Y-91665771D02*
X107964285Y-91618152D01*
X107964285Y-91618152D02*
X108011904Y-91522914D01*
X108011904Y-91522914D02*
X108011904Y-91475295D01*
X108011904Y-91475295D02*
X107964285Y-91380057D01*
X107964285Y-91380057D02*
X107916666Y-91332438D01*
X107916666Y-91332438D02*
X107821428Y-91284819D01*
X107821428Y-91284819D02*
X107630952Y-91284819D01*
X107630952Y-91284819D02*
X107535714Y-91332438D01*
X107535714Y-91332438D02*
X107488095Y-91380057D01*
X107488095Y-91380057D02*
X107440476Y-91475295D01*
X107440476Y-91475295D02*
X107440476Y-91522914D01*
X107440476Y-91522914D02*
X107488095Y-91618152D01*
X107488095Y-91618152D02*
X107535714Y-91665771D01*
X107535714Y-91665771D02*
X107630952Y-91713390D01*
X107630952Y-91713390D02*
X107821428Y-91713390D01*
X107821428Y-91713390D02*
X107916666Y-91761009D01*
X107916666Y-91761009D02*
X107964285Y-91808628D01*
X107964285Y-91808628D02*
X108011904Y-91903866D01*
X108011904Y-91903866D02*
X108011904Y-92094342D01*
X108011904Y-92094342D02*
X107964285Y-92189580D01*
X107964285Y-92189580D02*
X107916666Y-92237200D01*
X107916666Y-92237200D02*
X107821428Y-92284819D01*
X107821428Y-92284819D02*
X107630952Y-92284819D01*
X107630952Y-92284819D02*
X107535714Y-92237200D01*
X107535714Y-92237200D02*
X107488095Y-92189580D01*
X107488095Y-92189580D02*
X107440476Y-92094342D01*
X107440476Y-92094342D02*
X107440476Y-91903866D01*
X107440476Y-91903866D02*
X107488095Y-91808628D01*
X107488095Y-91808628D02*
X107535714Y-91761009D01*
X107535714Y-91761009D02*
X107630952Y-91713390D01*
D12*
X109829047Y-97040200D02*
X109783333Y-97055438D01*
X109783333Y-97055438D02*
X109707142Y-97055438D01*
X109707142Y-97055438D02*
X109676666Y-97040200D01*
X109676666Y-97040200D02*
X109661428Y-97024961D01*
X109661428Y-97024961D02*
X109646190Y-96994485D01*
X109646190Y-96994485D02*
X109646190Y-96964009D01*
X109646190Y-96964009D02*
X109661428Y-96933533D01*
X109661428Y-96933533D02*
X109676666Y-96918295D01*
X109676666Y-96918295D02*
X109707142Y-96903057D01*
X109707142Y-96903057D02*
X109768095Y-96887819D01*
X109768095Y-96887819D02*
X109798571Y-96872580D01*
X109798571Y-96872580D02*
X109813809Y-96857342D01*
X109813809Y-96857342D02*
X109829047Y-96826866D01*
X109829047Y-96826866D02*
X109829047Y-96796390D01*
X109829047Y-96796390D02*
X109813809Y-96765914D01*
X109813809Y-96765914D02*
X109798571Y-96750676D01*
X109798571Y-96750676D02*
X109768095Y-96735438D01*
X109768095Y-96735438D02*
X109691904Y-96735438D01*
X109691904Y-96735438D02*
X109646190Y-96750676D01*
X109539523Y-96735438D02*
X109463333Y-97055438D01*
X109463333Y-97055438D02*
X109402380Y-96826866D01*
X109402380Y-96826866D02*
X109341428Y-97055438D01*
X109341428Y-97055438D02*
X109265238Y-96735438D01*
X108975714Y-97055438D02*
X109158571Y-97055438D01*
X109067143Y-97055438D02*
X109067143Y-96735438D01*
X109067143Y-96735438D02*
X109097619Y-96781152D01*
X109097619Y-96781152D02*
X109128095Y-96811628D01*
X109128095Y-96811628D02*
X109158571Y-96826866D01*
X108792857Y-96872580D02*
X108823333Y-96857342D01*
X108823333Y-96857342D02*
X108838571Y-96842104D01*
X108838571Y-96842104D02*
X108853809Y-96811628D01*
X108853809Y-96811628D02*
X108853809Y-96796390D01*
X108853809Y-96796390D02*
X108838571Y-96765914D01*
X108838571Y-96765914D02*
X108823333Y-96750676D01*
X108823333Y-96750676D02*
X108792857Y-96735438D01*
X108792857Y-96735438D02*
X108731904Y-96735438D01*
X108731904Y-96735438D02*
X108701428Y-96750676D01*
X108701428Y-96750676D02*
X108686190Y-96765914D01*
X108686190Y-96765914D02*
X108670952Y-96796390D01*
X108670952Y-96796390D02*
X108670952Y-96811628D01*
X108670952Y-96811628D02*
X108686190Y-96842104D01*
X108686190Y-96842104D02*
X108701428Y-96857342D01*
X108701428Y-96857342D02*
X108731904Y-96872580D01*
X108731904Y-96872580D02*
X108792857Y-96872580D01*
X108792857Y-96872580D02*
X108823333Y-96887819D01*
X108823333Y-96887819D02*
X108838571Y-96903057D01*
X108838571Y-96903057D02*
X108853809Y-96933533D01*
X108853809Y-96933533D02*
X108853809Y-96994485D01*
X108853809Y-96994485D02*
X108838571Y-97024961D01*
X108838571Y-97024961D02*
X108823333Y-97040200D01*
X108823333Y-97040200D02*
X108792857Y-97055438D01*
X108792857Y-97055438D02*
X108731904Y-97055438D01*
X108731904Y-97055438D02*
X108701428Y-97040200D01*
X108701428Y-97040200D02*
X108686190Y-97024961D01*
X108686190Y-97024961D02*
X108670952Y-96994485D01*
X108670952Y-96994485D02*
X108670952Y-96933533D01*
X108670952Y-96933533D02*
X108686190Y-96903057D01*
X108686190Y-96903057D02*
X108701428Y-96887819D01*
X108701428Y-96887819D02*
X108731904Y-96872580D01*
D10*
X62593336Y-18237208D02*
X62450479Y-18284827D01*
X62450479Y-18284827D02*
X62212384Y-18284827D01*
X62212384Y-18284827D02*
X62117146Y-18237208D01*
X62117146Y-18237208D02*
X62069527Y-18189588D01*
X62069527Y-18189588D02*
X62021908Y-18094350D01*
X62021908Y-18094350D02*
X62021908Y-17999112D01*
X62021908Y-17999112D02*
X62069527Y-17903874D01*
X62069527Y-17903874D02*
X62117146Y-17856255D01*
X62117146Y-17856255D02*
X62212384Y-17808636D01*
X62212384Y-17808636D02*
X62402860Y-17761017D01*
X62402860Y-17761017D02*
X62498098Y-17713398D01*
X62498098Y-17713398D02*
X62545717Y-17665779D01*
X62545717Y-17665779D02*
X62593336Y-17570541D01*
X62593336Y-17570541D02*
X62593336Y-17475303D01*
X62593336Y-17475303D02*
X62545717Y-17380065D01*
X62545717Y-17380065D02*
X62498098Y-17332446D01*
X62498098Y-17332446D02*
X62402860Y-17284827D01*
X62402860Y-17284827D02*
X62164765Y-17284827D01*
X62164765Y-17284827D02*
X62021908Y-17332446D01*
X61688574Y-17284827D02*
X61450479Y-18284827D01*
X61450479Y-18284827D02*
X61260003Y-17570541D01*
X61260003Y-17570541D02*
X61069527Y-18284827D01*
X61069527Y-18284827D02*
X60831432Y-17284827D01*
X60545717Y-17284827D02*
X59926670Y-17284827D01*
X59926670Y-17284827D02*
X60260003Y-17665779D01*
X60260003Y-17665779D02*
X60117146Y-17665779D01*
X60117146Y-17665779D02*
X60021908Y-17713398D01*
X60021908Y-17713398D02*
X59974289Y-17761017D01*
X59974289Y-17761017D02*
X59926670Y-17856255D01*
X59926670Y-17856255D02*
X59926670Y-18094350D01*
X59926670Y-18094350D02*
X59974289Y-18189588D01*
X59974289Y-18189588D02*
X60021908Y-18237208D01*
X60021908Y-18237208D02*
X60117146Y-18284827D01*
X60117146Y-18284827D02*
X60402860Y-18284827D01*
X60402860Y-18284827D02*
X60498098Y-18237208D01*
X60498098Y-18237208D02*
X60545717Y-18189588D01*
D12*
X61686670Y-23040208D02*
X61640956Y-23055446D01*
X61640956Y-23055446D02*
X61564765Y-23055446D01*
X61564765Y-23055446D02*
X61534289Y-23040208D01*
X61534289Y-23040208D02*
X61519051Y-23024969D01*
X61519051Y-23024969D02*
X61503813Y-22994493D01*
X61503813Y-22994493D02*
X61503813Y-22964017D01*
X61503813Y-22964017D02*
X61519051Y-22933541D01*
X61519051Y-22933541D02*
X61534289Y-22918303D01*
X61534289Y-22918303D02*
X61564765Y-22903065D01*
X61564765Y-22903065D02*
X61625718Y-22887827D01*
X61625718Y-22887827D02*
X61656194Y-22872588D01*
X61656194Y-22872588D02*
X61671432Y-22857350D01*
X61671432Y-22857350D02*
X61686670Y-22826874D01*
X61686670Y-22826874D02*
X61686670Y-22796398D01*
X61686670Y-22796398D02*
X61671432Y-22765922D01*
X61671432Y-22765922D02*
X61656194Y-22750684D01*
X61656194Y-22750684D02*
X61625718Y-22735446D01*
X61625718Y-22735446D02*
X61549527Y-22735446D01*
X61549527Y-22735446D02*
X61503813Y-22750684D01*
X61397146Y-22735446D02*
X61320956Y-23055446D01*
X61320956Y-23055446D02*
X61260003Y-22826874D01*
X61260003Y-22826874D02*
X61199051Y-23055446D01*
X61199051Y-23055446D02*
X61122861Y-22735446D01*
X61031432Y-22735446D02*
X60833337Y-22735446D01*
X60833337Y-22735446D02*
X60940004Y-22857350D01*
X60940004Y-22857350D02*
X60894289Y-22857350D01*
X60894289Y-22857350D02*
X60863813Y-22872588D01*
X60863813Y-22872588D02*
X60848575Y-22887827D01*
X60848575Y-22887827D02*
X60833337Y-22918303D01*
X60833337Y-22918303D02*
X60833337Y-22994493D01*
X60833337Y-22994493D02*
X60848575Y-23024969D01*
X60848575Y-23024969D02*
X60863813Y-23040208D01*
X60863813Y-23040208D02*
X60894289Y-23055446D01*
X60894289Y-23055446D02*
X60985718Y-23055446D01*
X60985718Y-23055446D02*
X61016194Y-23040208D01*
X61016194Y-23040208D02*
X61031432Y-23024969D01*
D10*
X101567200Y-81433808D02*
X101614819Y-81576665D01*
X101614819Y-81576665D02*
X101614819Y-81814760D01*
X101614819Y-81814760D02*
X101567200Y-81909998D01*
X101567200Y-81909998D02*
X101519580Y-81957617D01*
X101519580Y-81957617D02*
X101424342Y-82005236D01*
X101424342Y-82005236D02*
X101329104Y-82005236D01*
X101329104Y-82005236D02*
X101233866Y-81957617D01*
X101233866Y-81957617D02*
X101186247Y-81909998D01*
X101186247Y-81909998D02*
X101138628Y-81814760D01*
X101138628Y-81814760D02*
X101091009Y-81624284D01*
X101091009Y-81624284D02*
X101043390Y-81529046D01*
X101043390Y-81529046D02*
X100995771Y-81481427D01*
X100995771Y-81481427D02*
X100900533Y-81433808D01*
X100900533Y-81433808D02*
X100805295Y-81433808D01*
X100805295Y-81433808D02*
X100710057Y-81481427D01*
X100710057Y-81481427D02*
X100662438Y-81529046D01*
X100662438Y-81529046D02*
X100614819Y-81624284D01*
X100614819Y-81624284D02*
X100614819Y-81862379D01*
X100614819Y-81862379D02*
X100662438Y-82005236D01*
X101614819Y-82576665D02*
X101567200Y-82481427D01*
X101567200Y-82481427D02*
X101519580Y-82433808D01*
X101519580Y-82433808D02*
X101424342Y-82386189D01*
X101424342Y-82386189D02*
X101138628Y-82386189D01*
X101138628Y-82386189D02*
X101043390Y-82433808D01*
X101043390Y-82433808D02*
X100995771Y-82481427D01*
X100995771Y-82481427D02*
X100948152Y-82576665D01*
X100948152Y-82576665D02*
X100948152Y-82719522D01*
X100948152Y-82719522D02*
X100995771Y-82814760D01*
X100995771Y-82814760D02*
X101043390Y-82862379D01*
X101043390Y-82862379D02*
X101138628Y-82909998D01*
X101138628Y-82909998D02*
X101424342Y-82909998D01*
X101424342Y-82909998D02*
X101519580Y-82862379D01*
X101519580Y-82862379D02*
X101567200Y-82814760D01*
X101567200Y-82814760D02*
X101614819Y-82719522D01*
X101614819Y-82719522D02*
X101614819Y-82576665D01*
X101614819Y-83481427D02*
X101567200Y-83386189D01*
X101567200Y-83386189D02*
X101471961Y-83338570D01*
X101471961Y-83338570D02*
X100614819Y-83338570D01*
X101614819Y-84290951D02*
X100614819Y-84290951D01*
X101567200Y-84290951D02*
X101614819Y-84195713D01*
X101614819Y-84195713D02*
X101614819Y-84005237D01*
X101614819Y-84005237D02*
X101567200Y-83909999D01*
X101567200Y-83909999D02*
X101519580Y-83862380D01*
X101519580Y-83862380D02*
X101424342Y-83814761D01*
X101424342Y-83814761D02*
X101138628Y-83814761D01*
X101138628Y-83814761D02*
X101043390Y-83862380D01*
X101043390Y-83862380D02*
X100995771Y-83909999D01*
X100995771Y-83909999D02*
X100948152Y-84005237D01*
X100948152Y-84005237D02*
X100948152Y-84195713D01*
X100948152Y-84195713D02*
X100995771Y-84290951D01*
X101567200Y-85148094D02*
X101614819Y-85052856D01*
X101614819Y-85052856D02*
X101614819Y-84862380D01*
X101614819Y-84862380D02*
X101567200Y-84767142D01*
X101567200Y-84767142D02*
X101471961Y-84719523D01*
X101471961Y-84719523D02*
X101091009Y-84719523D01*
X101091009Y-84719523D02*
X100995771Y-84767142D01*
X100995771Y-84767142D02*
X100948152Y-84862380D01*
X100948152Y-84862380D02*
X100948152Y-85052856D01*
X100948152Y-85052856D02*
X100995771Y-85148094D01*
X100995771Y-85148094D02*
X101091009Y-85195713D01*
X101091009Y-85195713D02*
X101186247Y-85195713D01*
X101186247Y-85195713D02*
X101281485Y-84719523D01*
X101614819Y-85624285D02*
X100948152Y-85624285D01*
X101138628Y-85624285D02*
X101043390Y-85671904D01*
X101043390Y-85671904D02*
X100995771Y-85719523D01*
X100995771Y-85719523D02*
X100948152Y-85814761D01*
X100948152Y-85814761D02*
X100948152Y-85909999D01*
X100614819Y-86529047D02*
X101329104Y-86529047D01*
X101329104Y-86529047D02*
X101471961Y-86481428D01*
X101471961Y-86481428D02*
X101567200Y-86386190D01*
X101567200Y-86386190D02*
X101614819Y-86243333D01*
X101614819Y-86243333D02*
X101614819Y-86148095D01*
X100948152Y-87433809D02*
X101614819Y-87433809D01*
X100948152Y-87005238D02*
X101471961Y-87005238D01*
X101471961Y-87005238D02*
X101567200Y-87052857D01*
X101567200Y-87052857D02*
X101614819Y-87148095D01*
X101614819Y-87148095D02*
X101614819Y-87290952D01*
X101614819Y-87290952D02*
X101567200Y-87386190D01*
X101567200Y-87386190D02*
X101519580Y-87433809D01*
X101614819Y-87910000D02*
X100948152Y-87910000D01*
X101043390Y-87910000D02*
X100995771Y-87957619D01*
X100995771Y-87957619D02*
X100948152Y-88052857D01*
X100948152Y-88052857D02*
X100948152Y-88195714D01*
X100948152Y-88195714D02*
X100995771Y-88290952D01*
X100995771Y-88290952D02*
X101091009Y-88338571D01*
X101091009Y-88338571D02*
X101614819Y-88338571D01*
X101091009Y-88338571D02*
X100995771Y-88386190D01*
X100995771Y-88386190D02*
X100948152Y-88481428D01*
X100948152Y-88481428D02*
X100948152Y-88624285D01*
X100948152Y-88624285D02*
X100995771Y-88719524D01*
X100995771Y-88719524D02*
X101091009Y-88767143D01*
X101091009Y-88767143D02*
X101614819Y-88767143D01*
X100948152Y-89243333D02*
X101948152Y-89243333D01*
X100995771Y-89243333D02*
X100948152Y-89338571D01*
X100948152Y-89338571D02*
X100948152Y-89529047D01*
X100948152Y-89529047D02*
X100995771Y-89624285D01*
X100995771Y-89624285D02*
X101043390Y-89671904D01*
X101043390Y-89671904D02*
X101138628Y-89719523D01*
X101138628Y-89719523D02*
X101424342Y-89719523D01*
X101424342Y-89719523D02*
X101519580Y-89671904D01*
X101519580Y-89671904D02*
X101567200Y-89624285D01*
X101567200Y-89624285D02*
X101614819Y-89529047D01*
X101614819Y-89529047D02*
X101614819Y-89338571D01*
X101614819Y-89338571D02*
X101567200Y-89243333D01*
X101567200Y-90529047D02*
X101614819Y-90433809D01*
X101614819Y-90433809D02*
X101614819Y-90243333D01*
X101614819Y-90243333D02*
X101567200Y-90148095D01*
X101567200Y-90148095D02*
X101471961Y-90100476D01*
X101471961Y-90100476D02*
X101091009Y-90100476D01*
X101091009Y-90100476D02*
X100995771Y-90148095D01*
X100995771Y-90148095D02*
X100948152Y-90243333D01*
X100948152Y-90243333D02*
X100948152Y-90433809D01*
X100948152Y-90433809D02*
X100995771Y-90529047D01*
X100995771Y-90529047D02*
X101091009Y-90576666D01*
X101091009Y-90576666D02*
X101186247Y-90576666D01*
X101186247Y-90576666D02*
X101281485Y-90100476D01*
X101614819Y-91005238D02*
X100948152Y-91005238D01*
X101138628Y-91005238D02*
X101043390Y-91052857D01*
X101043390Y-91052857D02*
X100995771Y-91100476D01*
X100995771Y-91100476D02*
X100948152Y-91195714D01*
X100948152Y-91195714D02*
X100948152Y-91290952D01*
X101710057Y-91386191D02*
X101710057Y-92148095D01*
X100710057Y-92338572D02*
X100662438Y-92386191D01*
X100662438Y-92386191D02*
X100614819Y-92481429D01*
X100614819Y-92481429D02*
X100614819Y-92719524D01*
X100614819Y-92719524D02*
X100662438Y-92814762D01*
X100662438Y-92814762D02*
X100710057Y-92862381D01*
X100710057Y-92862381D02*
X100805295Y-92910000D01*
X100805295Y-92910000D02*
X100900533Y-92910000D01*
X100900533Y-92910000D02*
X101043390Y-92862381D01*
X101043390Y-92862381D02*
X101614819Y-92290953D01*
X101614819Y-92290953D02*
X101614819Y-92910000D01*
X101710057Y-93100477D02*
X101710057Y-93862381D01*
X100614819Y-94290953D02*
X100614819Y-94481429D01*
X100614819Y-94481429D02*
X100662438Y-94576667D01*
X100662438Y-94576667D02*
X100757676Y-94671905D01*
X100757676Y-94671905D02*
X100948152Y-94719524D01*
X100948152Y-94719524D02*
X101281485Y-94719524D01*
X101281485Y-94719524D02*
X101471961Y-94671905D01*
X101471961Y-94671905D02*
X101567200Y-94576667D01*
X101567200Y-94576667D02*
X101614819Y-94481429D01*
X101614819Y-94481429D02*
X101614819Y-94290953D01*
X101614819Y-94290953D02*
X101567200Y-94195715D01*
X101567200Y-94195715D02*
X101471961Y-94100477D01*
X101471961Y-94100477D02*
X101281485Y-94052858D01*
X101281485Y-94052858D02*
X100948152Y-94052858D01*
X100948152Y-94052858D02*
X100757676Y-94100477D01*
X100757676Y-94100477D02*
X100662438Y-94195715D01*
X100662438Y-94195715D02*
X100614819Y-94290953D01*
X100948152Y-95148096D02*
X101948152Y-95148096D01*
X100995771Y-95148096D02*
X100948152Y-95243334D01*
X100948152Y-95243334D02*
X100948152Y-95433810D01*
X100948152Y-95433810D02*
X100995771Y-95529048D01*
X100995771Y-95529048D02*
X101043390Y-95576667D01*
X101043390Y-95576667D02*
X101138628Y-95624286D01*
X101138628Y-95624286D02*
X101424342Y-95624286D01*
X101424342Y-95624286D02*
X101519580Y-95576667D01*
X101519580Y-95576667D02*
X101567200Y-95529048D01*
X101567200Y-95529048D02*
X101614819Y-95433810D01*
X101614819Y-95433810D02*
X101614819Y-95243334D01*
X101614819Y-95243334D02*
X101567200Y-95148096D01*
X101567200Y-96433810D02*
X101614819Y-96338572D01*
X101614819Y-96338572D02*
X101614819Y-96148096D01*
X101614819Y-96148096D02*
X101567200Y-96052858D01*
X101567200Y-96052858D02*
X101471961Y-96005239D01*
X101471961Y-96005239D02*
X101091009Y-96005239D01*
X101091009Y-96005239D02*
X100995771Y-96052858D01*
X100995771Y-96052858D02*
X100948152Y-96148096D01*
X100948152Y-96148096D02*
X100948152Y-96338572D01*
X100948152Y-96338572D02*
X100995771Y-96433810D01*
X100995771Y-96433810D02*
X101091009Y-96481429D01*
X101091009Y-96481429D02*
X101186247Y-96481429D01*
X101186247Y-96481429D02*
X101281485Y-96005239D01*
X100948152Y-96910001D02*
X101614819Y-96910001D01*
X101043390Y-96910001D02*
X100995771Y-96957620D01*
X100995771Y-96957620D02*
X100948152Y-97052858D01*
X100948152Y-97052858D02*
X100948152Y-97195715D01*
X100948152Y-97195715D02*
X100995771Y-97290953D01*
X100995771Y-97290953D02*
X101091009Y-97338572D01*
X101091009Y-97338572D02*
X101614819Y-97338572D01*
X32317200Y-91433808D02*
X32364819Y-91576665D01*
X32364819Y-91576665D02*
X32364819Y-91814760D01*
X32364819Y-91814760D02*
X32317200Y-91909998D01*
X32317200Y-91909998D02*
X32269580Y-91957617D01*
X32269580Y-91957617D02*
X32174342Y-92005236D01*
X32174342Y-92005236D02*
X32079104Y-92005236D01*
X32079104Y-92005236D02*
X31983866Y-91957617D01*
X31983866Y-91957617D02*
X31936247Y-91909998D01*
X31936247Y-91909998D02*
X31888628Y-91814760D01*
X31888628Y-91814760D02*
X31841009Y-91624284D01*
X31841009Y-91624284D02*
X31793390Y-91529046D01*
X31793390Y-91529046D02*
X31745771Y-91481427D01*
X31745771Y-91481427D02*
X31650533Y-91433808D01*
X31650533Y-91433808D02*
X31555295Y-91433808D01*
X31555295Y-91433808D02*
X31460057Y-91481427D01*
X31460057Y-91481427D02*
X31412438Y-91529046D01*
X31412438Y-91529046D02*
X31364819Y-91624284D01*
X31364819Y-91624284D02*
X31364819Y-91862379D01*
X31364819Y-91862379D02*
X31412438Y-92005236D01*
X32364819Y-92576665D02*
X32317200Y-92481427D01*
X32317200Y-92481427D02*
X32269580Y-92433808D01*
X32269580Y-92433808D02*
X32174342Y-92386189D01*
X32174342Y-92386189D02*
X31888628Y-92386189D01*
X31888628Y-92386189D02*
X31793390Y-92433808D01*
X31793390Y-92433808D02*
X31745771Y-92481427D01*
X31745771Y-92481427D02*
X31698152Y-92576665D01*
X31698152Y-92576665D02*
X31698152Y-92719522D01*
X31698152Y-92719522D02*
X31745771Y-92814760D01*
X31745771Y-92814760D02*
X31793390Y-92862379D01*
X31793390Y-92862379D02*
X31888628Y-92909998D01*
X31888628Y-92909998D02*
X32174342Y-92909998D01*
X32174342Y-92909998D02*
X32269580Y-92862379D01*
X32269580Y-92862379D02*
X32317200Y-92814760D01*
X32317200Y-92814760D02*
X32364819Y-92719522D01*
X32364819Y-92719522D02*
X32364819Y-92576665D01*
X32364819Y-93481427D02*
X32317200Y-93386189D01*
X32317200Y-93386189D02*
X32221961Y-93338570D01*
X32221961Y-93338570D02*
X31364819Y-93338570D01*
X32364819Y-94290951D02*
X31364819Y-94290951D01*
X32317200Y-94290951D02*
X32364819Y-94195713D01*
X32364819Y-94195713D02*
X32364819Y-94005237D01*
X32364819Y-94005237D02*
X32317200Y-93909999D01*
X32317200Y-93909999D02*
X32269580Y-93862380D01*
X32269580Y-93862380D02*
X32174342Y-93814761D01*
X32174342Y-93814761D02*
X31888628Y-93814761D01*
X31888628Y-93814761D02*
X31793390Y-93862380D01*
X31793390Y-93862380D02*
X31745771Y-93909999D01*
X31745771Y-93909999D02*
X31698152Y-94005237D01*
X31698152Y-94005237D02*
X31698152Y-94195713D01*
X31698152Y-94195713D02*
X31745771Y-94290951D01*
X32317200Y-95148094D02*
X32364819Y-95052856D01*
X32364819Y-95052856D02*
X32364819Y-94862380D01*
X32364819Y-94862380D02*
X32317200Y-94767142D01*
X32317200Y-94767142D02*
X32221961Y-94719523D01*
X32221961Y-94719523D02*
X31841009Y-94719523D01*
X31841009Y-94719523D02*
X31745771Y-94767142D01*
X31745771Y-94767142D02*
X31698152Y-94862380D01*
X31698152Y-94862380D02*
X31698152Y-95052856D01*
X31698152Y-95052856D02*
X31745771Y-95148094D01*
X31745771Y-95148094D02*
X31841009Y-95195713D01*
X31841009Y-95195713D02*
X31936247Y-95195713D01*
X31936247Y-95195713D02*
X32031485Y-94719523D01*
X32364819Y-95624285D02*
X31698152Y-95624285D01*
X31888628Y-95624285D02*
X31793390Y-95671904D01*
X31793390Y-95671904D02*
X31745771Y-95719523D01*
X31745771Y-95719523D02*
X31698152Y-95814761D01*
X31698152Y-95814761D02*
X31698152Y-95909999D01*
X31364819Y-96529047D02*
X32079104Y-96529047D01*
X32079104Y-96529047D02*
X32221961Y-96481428D01*
X32221961Y-96481428D02*
X32317200Y-96386190D01*
X32317200Y-96386190D02*
X32364819Y-96243333D01*
X32364819Y-96243333D02*
X32364819Y-96148095D01*
X31698152Y-97433809D02*
X32364819Y-97433809D01*
X31698152Y-97005238D02*
X32221961Y-97005238D01*
X32221961Y-97005238D02*
X32317200Y-97052857D01*
X32317200Y-97052857D02*
X32364819Y-97148095D01*
X32364819Y-97148095D02*
X32364819Y-97290952D01*
X32364819Y-97290952D02*
X32317200Y-97386190D01*
X32317200Y-97386190D02*
X32269580Y-97433809D01*
X32364819Y-97910000D02*
X31698152Y-97910000D01*
X31793390Y-97910000D02*
X31745771Y-97957619D01*
X31745771Y-97957619D02*
X31698152Y-98052857D01*
X31698152Y-98052857D02*
X31698152Y-98195714D01*
X31698152Y-98195714D02*
X31745771Y-98290952D01*
X31745771Y-98290952D02*
X31841009Y-98338571D01*
X31841009Y-98338571D02*
X32364819Y-98338571D01*
X31841009Y-98338571D02*
X31745771Y-98386190D01*
X31745771Y-98386190D02*
X31698152Y-98481428D01*
X31698152Y-98481428D02*
X31698152Y-98624285D01*
X31698152Y-98624285D02*
X31745771Y-98719524D01*
X31745771Y-98719524D02*
X31841009Y-98767143D01*
X31841009Y-98767143D02*
X32364819Y-98767143D01*
X31698152Y-99243333D02*
X32698152Y-99243333D01*
X31745771Y-99243333D02*
X31698152Y-99338571D01*
X31698152Y-99338571D02*
X31698152Y-99529047D01*
X31698152Y-99529047D02*
X31745771Y-99624285D01*
X31745771Y-99624285D02*
X31793390Y-99671904D01*
X31793390Y-99671904D02*
X31888628Y-99719523D01*
X31888628Y-99719523D02*
X32174342Y-99719523D01*
X32174342Y-99719523D02*
X32269580Y-99671904D01*
X32269580Y-99671904D02*
X32317200Y-99624285D01*
X32317200Y-99624285D02*
X32364819Y-99529047D01*
X32364819Y-99529047D02*
X32364819Y-99338571D01*
X32364819Y-99338571D02*
X32317200Y-99243333D01*
X32317200Y-100529047D02*
X32364819Y-100433809D01*
X32364819Y-100433809D02*
X32364819Y-100243333D01*
X32364819Y-100243333D02*
X32317200Y-100148095D01*
X32317200Y-100148095D02*
X32221961Y-100100476D01*
X32221961Y-100100476D02*
X31841009Y-100100476D01*
X31841009Y-100100476D02*
X31745771Y-100148095D01*
X31745771Y-100148095D02*
X31698152Y-100243333D01*
X31698152Y-100243333D02*
X31698152Y-100433809D01*
X31698152Y-100433809D02*
X31745771Y-100529047D01*
X31745771Y-100529047D02*
X31841009Y-100576666D01*
X31841009Y-100576666D02*
X31936247Y-100576666D01*
X31936247Y-100576666D02*
X32031485Y-100100476D01*
X32364819Y-101005238D02*
X31698152Y-101005238D01*
X31888628Y-101005238D02*
X31793390Y-101052857D01*
X31793390Y-101052857D02*
X31745771Y-101100476D01*
X31745771Y-101100476D02*
X31698152Y-101195714D01*
X31698152Y-101195714D02*
X31698152Y-101290952D01*
X32460057Y-101386191D02*
X32460057Y-102148095D01*
X31460057Y-102338572D02*
X31412438Y-102386191D01*
X31412438Y-102386191D02*
X31364819Y-102481429D01*
X31364819Y-102481429D02*
X31364819Y-102719524D01*
X31364819Y-102719524D02*
X31412438Y-102814762D01*
X31412438Y-102814762D02*
X31460057Y-102862381D01*
X31460057Y-102862381D02*
X31555295Y-102910000D01*
X31555295Y-102910000D02*
X31650533Y-102910000D01*
X31650533Y-102910000D02*
X31793390Y-102862381D01*
X31793390Y-102862381D02*
X32364819Y-102290953D01*
X32364819Y-102290953D02*
X32364819Y-102910000D01*
X32460057Y-103100477D02*
X32460057Y-103862381D01*
X31364819Y-104290953D02*
X31364819Y-104481429D01*
X31364819Y-104481429D02*
X31412438Y-104576667D01*
X31412438Y-104576667D02*
X31507676Y-104671905D01*
X31507676Y-104671905D02*
X31698152Y-104719524D01*
X31698152Y-104719524D02*
X32031485Y-104719524D01*
X32031485Y-104719524D02*
X32221961Y-104671905D01*
X32221961Y-104671905D02*
X32317200Y-104576667D01*
X32317200Y-104576667D02*
X32364819Y-104481429D01*
X32364819Y-104481429D02*
X32364819Y-104290953D01*
X32364819Y-104290953D02*
X32317200Y-104195715D01*
X32317200Y-104195715D02*
X32221961Y-104100477D01*
X32221961Y-104100477D02*
X32031485Y-104052858D01*
X32031485Y-104052858D02*
X31698152Y-104052858D01*
X31698152Y-104052858D02*
X31507676Y-104100477D01*
X31507676Y-104100477D02*
X31412438Y-104195715D01*
X31412438Y-104195715D02*
X31364819Y-104290953D01*
X31698152Y-105148096D02*
X32698152Y-105148096D01*
X31745771Y-105148096D02*
X31698152Y-105243334D01*
X31698152Y-105243334D02*
X31698152Y-105433810D01*
X31698152Y-105433810D02*
X31745771Y-105529048D01*
X31745771Y-105529048D02*
X31793390Y-105576667D01*
X31793390Y-105576667D02*
X31888628Y-105624286D01*
X31888628Y-105624286D02*
X32174342Y-105624286D01*
X32174342Y-105624286D02*
X32269580Y-105576667D01*
X32269580Y-105576667D02*
X32317200Y-105529048D01*
X32317200Y-105529048D02*
X32364819Y-105433810D01*
X32364819Y-105433810D02*
X32364819Y-105243334D01*
X32364819Y-105243334D02*
X32317200Y-105148096D01*
X32317200Y-106433810D02*
X32364819Y-106338572D01*
X32364819Y-106338572D02*
X32364819Y-106148096D01*
X32364819Y-106148096D02*
X32317200Y-106052858D01*
X32317200Y-106052858D02*
X32221961Y-106005239D01*
X32221961Y-106005239D02*
X31841009Y-106005239D01*
X31841009Y-106005239D02*
X31745771Y-106052858D01*
X31745771Y-106052858D02*
X31698152Y-106148096D01*
X31698152Y-106148096D02*
X31698152Y-106338572D01*
X31698152Y-106338572D02*
X31745771Y-106433810D01*
X31745771Y-106433810D02*
X31841009Y-106481429D01*
X31841009Y-106481429D02*
X31936247Y-106481429D01*
X31936247Y-106481429D02*
X32031485Y-106005239D01*
X31698152Y-106910001D02*
X32364819Y-106910001D01*
X31793390Y-106910001D02*
X31745771Y-106957620D01*
X31745771Y-106957620D02*
X31698152Y-107052858D01*
X31698152Y-107052858D02*
X31698152Y-107195715D01*
X31698152Y-107195715D02*
X31745771Y-107290953D01*
X31745771Y-107290953D02*
X31841009Y-107338572D01*
X31841009Y-107338572D02*
X32364819Y-107338572D01*
%TO.C,SW7*%
D11*
X40610004Y-44460008D02*
X43510004Y-44460008D01*
X40610004Y-45760008D02*
X40610004Y-44460008D01*
X43185004Y-45760008D02*
X40610004Y-45760008D01*
X43510004Y-44460008D02*
X43510004Y-45435008D01*
X43510004Y-45435008D02*
X43185004Y-45760008D01*
%TO.C,SW4*%
X78610000Y-27460000D02*
X81510000Y-27460000D01*
X78610000Y-28760000D02*
X78610000Y-27460000D01*
X81185000Y-28760000D02*
X78610000Y-28760000D01*
X81510000Y-27460000D02*
X81510000Y-28435000D01*
X81510000Y-28435000D02*
X81185000Y-28760000D01*
%TO.C,SW1*%
X21609998Y-34459999D02*
X24509998Y-34459999D01*
X21609998Y-35759999D02*
X21609998Y-34459999D01*
X24184998Y-35759999D02*
X21609998Y-35759999D01*
X24509998Y-34459999D02*
X24509998Y-35434999D01*
X24509998Y-35434999D02*
X24184998Y-35759999D01*
%TO.C,SW9*%
X78610000Y-46460000D02*
X81510000Y-46460000D01*
X78610000Y-47760000D02*
X78610000Y-46460000D01*
X81185000Y-47760000D02*
X78610000Y-47760000D01*
X81510000Y-46460000D02*
X81510000Y-47435000D01*
X81510000Y-47435000D02*
X81185000Y-47760000D01*
%TO.C,SW10*%
X97610000Y-48460000D02*
X100510000Y-48460000D01*
X97610000Y-49760000D02*
X97610000Y-48460000D01*
X100185000Y-49760000D02*
X97610000Y-49760000D01*
X100510000Y-48460000D02*
X100510000Y-49435000D01*
X100510000Y-49435000D02*
X100185000Y-49760000D01*
%TO.C,SW2*%
X40610004Y-25460008D02*
X43510004Y-25460008D01*
X40610004Y-26760008D02*
X40610004Y-25460008D01*
X43185004Y-26760008D02*
X40610004Y-26760008D01*
X43510004Y-25460008D02*
X43510004Y-26435008D01*
X43510004Y-26435008D02*
X43185004Y-26760008D01*
%TO.C,SW13*%
X59610004Y-60460008D02*
X62510004Y-60460008D01*
X59610004Y-61760008D02*
X59610004Y-60460008D01*
X62185004Y-61760008D02*
X59610004Y-61760008D01*
X62510004Y-60460008D02*
X62510004Y-61435008D01*
X62510004Y-61435008D02*
X62185004Y-61760008D01*
%TO.C,SW8*%
X59610004Y-41460008D02*
X62510004Y-41460008D01*
X59610004Y-42760008D02*
X59610004Y-41460008D01*
X62185004Y-42760008D02*
X59610004Y-42760008D01*
X62510004Y-41460008D02*
X62510004Y-42435008D01*
X62510004Y-42435008D02*
X62185004Y-42760008D01*
%TO.C,SW11*%
X21610001Y-72460000D02*
X24510001Y-72460000D01*
X21610001Y-73760000D02*
X21610001Y-72460000D01*
X24185001Y-73760000D02*
X21610001Y-73760000D01*
X24510001Y-72460000D02*
X24510001Y-73435000D01*
X24510001Y-73435000D02*
X24185001Y-73760000D01*
%TO.C,SW14*%
X78610000Y-65460000D02*
X81510000Y-65460000D01*
X78610000Y-66760000D02*
X78610000Y-65460000D01*
X81185000Y-66760000D02*
X78610000Y-66760000D01*
X81510000Y-65460000D02*
X81510000Y-66435000D01*
X81510000Y-66435000D02*
X81185000Y-66760000D01*
%TO.C,SW5*%
X97610000Y-29460000D02*
X100510000Y-29460000D01*
X97610000Y-30760000D02*
X97610000Y-29460000D01*
X100185000Y-30760000D02*
X97610000Y-30760000D01*
X100510000Y-29460000D02*
X100510000Y-30435000D01*
X100510000Y-30435000D02*
X100185000Y-30760000D01*
%TO.C,SW15*%
X97610000Y-67460000D02*
X100510000Y-67460000D01*
X97610000Y-68760000D02*
X97610000Y-67460000D01*
X100185000Y-68760000D02*
X97610000Y-68760000D01*
X100510000Y-67460000D02*
X100510000Y-68435000D01*
X100510000Y-68435000D02*
X100185000Y-68760000D01*
%TO.C,SW16*%
X69610000Y-91460000D02*
X72510000Y-91460000D01*
X69610000Y-92760000D02*
X69610000Y-91460000D01*
X72185000Y-92760000D02*
X69610000Y-92760000D01*
X72510000Y-91460000D02*
X72510000Y-92435000D01*
X72510000Y-92435000D02*
X72185000Y-92760000D01*
%TO.C,SW6*%
X21610000Y-53460000D02*
X24510000Y-53460000D01*
X21610000Y-54760000D02*
X21610000Y-53460000D01*
X24185000Y-54760000D02*
X21610000Y-54760000D01*
X24510000Y-53460000D02*
X24510000Y-54435000D01*
X24510000Y-54435000D02*
X24185000Y-54760000D01*
%TO.C,SW12*%
X40610004Y-63460008D02*
X43510004Y-63460008D01*
X40610004Y-64760008D02*
X40610004Y-63460008D01*
X43185004Y-64760008D02*
X40610004Y-64760008D01*
X43510004Y-63460008D02*
X43510004Y-64435008D01*
X43510004Y-64435008D02*
X43185004Y-64760008D01*
%TO.C,SW17*%
X88610000Y-93460000D02*
X91510000Y-93460000D01*
X88610000Y-94760000D02*
X88610000Y-93460000D01*
X91185000Y-94760000D02*
X88610000Y-94760000D01*
X91510000Y-93460000D02*
X91510000Y-94435000D01*
X91510000Y-94435000D02*
X91185000Y-94760000D01*
%TO.C,SW18*%
X107600000Y-96460000D02*
X110500000Y-96460000D01*
X107600000Y-97760000D02*
X107600000Y-96460000D01*
X110175000Y-97760000D02*
X107600000Y-97760000D01*
X110500000Y-96460000D02*
X110500000Y-97435000D01*
X110500000Y-97435000D02*
X110175000Y-97760000D01*
%TO.C,SW3*%
X59610004Y-22460008D02*
X62510004Y-22460008D01*
X59610004Y-23760008D02*
X59610004Y-22460008D01*
X62185004Y-23760008D02*
X59610004Y-23760008D01*
X62510004Y-22460008D02*
X62510004Y-23435008D01*
X62510004Y-23435008D02*
X62185004Y-23760008D01*
%TD*%
M02*
