%TF.GenerationSoftware,KiCad,Pcbnew,10.0.2-rc1*%
%TF.CreationDate,2026-07-14T05:59:07+09:00*%
%TF.ProjectId,boardloaf-he,626f6172-646c-46f6-9166-2d68652e6b69,rev?*%
%TF.SameCoordinates,Original*%
%TF.FileFunction,Legend,Top*%
%TF.FilePolarity,Positive*%
%FSLAX46Y46*%
G04 Gerber Fmt 4.6, Leading zero omitted, Abs format (unit mm)*
G04 Created by KiCad (PCBNEW 10.0.2-rc1) date 2026-07-14 05:59:07*
%MOMM*%
%LPD*%
G01*
G04 APERTURE LIST*
%ADD10C,0.200000*%
%ADD11C,0.250000*%
%ADD12C,0.100000*%
%ADD13C,0.150000*%
%ADD14C,0.160000*%
%ADD15C,0.120000*%
G04 APERTURE END LIST*
D10*
X20593333Y-98057247D02*
X20593333Y-98771532D01*
X20593333Y-98771532D02*
X20545714Y-98914389D01*
X20545714Y-98914389D02*
X20450476Y-99009628D01*
X20450476Y-99009628D02*
X20307619Y-99057247D01*
X20307619Y-99057247D02*
X20212381Y-99057247D01*
X21498095Y-98390580D02*
X21498095Y-99057247D01*
X21069524Y-98390580D02*
X21069524Y-98914389D01*
X21069524Y-98914389D02*
X21117143Y-99009628D01*
X21117143Y-99009628D02*
X21212381Y-99057247D01*
X21212381Y-99057247D02*
X21355238Y-99057247D01*
X21355238Y-99057247D02*
X21450476Y-99009628D01*
X21450476Y-99009628D02*
X21498095Y-98962008D01*
X21974286Y-99057247D02*
X21974286Y-98390580D01*
X21974286Y-98485818D02*
X22021905Y-98438199D01*
X22021905Y-98438199D02*
X22117143Y-98390580D01*
X22117143Y-98390580D02*
X22260000Y-98390580D01*
X22260000Y-98390580D02*
X22355238Y-98438199D01*
X22355238Y-98438199D02*
X22402857Y-98533437D01*
X22402857Y-98533437D02*
X22402857Y-99057247D01*
X22402857Y-98533437D02*
X22450476Y-98438199D01*
X22450476Y-98438199D02*
X22545714Y-98390580D01*
X22545714Y-98390580D02*
X22688571Y-98390580D01*
X22688571Y-98390580D02*
X22783810Y-98438199D01*
X22783810Y-98438199D02*
X22831429Y-98533437D01*
X22831429Y-98533437D02*
X22831429Y-99057247D01*
X23307619Y-98390580D02*
X23307619Y-99390580D01*
X23307619Y-98438199D02*
X23402857Y-98390580D01*
X23402857Y-98390580D02*
X23593333Y-98390580D01*
X23593333Y-98390580D02*
X23688571Y-98438199D01*
X23688571Y-98438199D02*
X23736190Y-98485818D01*
X23736190Y-98485818D02*
X23783809Y-98581056D01*
X23783809Y-98581056D02*
X23783809Y-98866770D01*
X23783809Y-98866770D02*
X23736190Y-98962008D01*
X23736190Y-98962008D02*
X23688571Y-99009628D01*
X23688571Y-99009628D02*
X23593333Y-99057247D01*
X23593333Y-99057247D02*
X23402857Y-99057247D01*
X23402857Y-99057247D02*
X23307619Y-99009628D01*
X24879048Y-98390580D02*
X25069524Y-99057247D01*
X25069524Y-99057247D02*
X25260000Y-98581056D01*
X25260000Y-98581056D02*
X25450476Y-99057247D01*
X25450476Y-99057247D02*
X25640952Y-98390580D01*
X26021905Y-99057247D02*
X26021905Y-98057247D01*
X26450476Y-99057247D02*
X26450476Y-98533437D01*
X26450476Y-98533437D02*
X26402857Y-98438199D01*
X26402857Y-98438199D02*
X26307619Y-98390580D01*
X26307619Y-98390580D02*
X26164762Y-98390580D01*
X26164762Y-98390580D02*
X26069524Y-98438199D01*
X26069524Y-98438199D02*
X26021905Y-98485818D01*
X27307619Y-99009628D02*
X27212381Y-99057247D01*
X27212381Y-99057247D02*
X27021905Y-99057247D01*
X27021905Y-99057247D02*
X26926667Y-99009628D01*
X26926667Y-99009628D02*
X26879048Y-98914389D01*
X26879048Y-98914389D02*
X26879048Y-98533437D01*
X26879048Y-98533437D02*
X26926667Y-98438199D01*
X26926667Y-98438199D02*
X27021905Y-98390580D01*
X27021905Y-98390580D02*
X27212381Y-98390580D01*
X27212381Y-98390580D02*
X27307619Y-98438199D01*
X27307619Y-98438199D02*
X27355238Y-98533437D01*
X27355238Y-98533437D02*
X27355238Y-98628675D01*
X27355238Y-98628675D02*
X26879048Y-98723913D01*
X27783810Y-98390580D02*
X27783810Y-99057247D01*
X27783810Y-98485818D02*
X27831429Y-98438199D01*
X27831429Y-98438199D02*
X27926667Y-98390580D01*
X27926667Y-98390580D02*
X28069524Y-98390580D01*
X28069524Y-98390580D02*
X28164762Y-98438199D01*
X28164762Y-98438199D02*
X28212381Y-98533437D01*
X28212381Y-98533437D02*
X28212381Y-99057247D01*
X20855238Y-100143381D02*
X20998095Y-100191000D01*
X20998095Y-100191000D02*
X21045714Y-100238619D01*
X21045714Y-100238619D02*
X21093333Y-100333857D01*
X21093333Y-100333857D02*
X21093333Y-100476714D01*
X21093333Y-100476714D02*
X21045714Y-100571952D01*
X21045714Y-100571952D02*
X20998095Y-100619572D01*
X20998095Y-100619572D02*
X20902857Y-100667191D01*
X20902857Y-100667191D02*
X20521905Y-100667191D01*
X20521905Y-100667191D02*
X20521905Y-99667191D01*
X20521905Y-99667191D02*
X20855238Y-99667191D01*
X20855238Y-99667191D02*
X20950476Y-99714810D01*
X20950476Y-99714810D02*
X20998095Y-99762429D01*
X20998095Y-99762429D02*
X21045714Y-99857667D01*
X21045714Y-99857667D02*
X21045714Y-99952905D01*
X21045714Y-99952905D02*
X20998095Y-100048143D01*
X20998095Y-100048143D02*
X20950476Y-100095762D01*
X20950476Y-100095762D02*
X20855238Y-100143381D01*
X20855238Y-100143381D02*
X20521905Y-100143381D01*
X21474286Y-100381476D02*
X21950476Y-100381476D01*
X21379048Y-100667191D02*
X21712381Y-99667191D01*
X21712381Y-99667191D02*
X22045714Y-100667191D01*
X22950476Y-100571952D02*
X22902857Y-100619572D01*
X22902857Y-100619572D02*
X22760000Y-100667191D01*
X22760000Y-100667191D02*
X22664762Y-100667191D01*
X22664762Y-100667191D02*
X22521905Y-100619572D01*
X22521905Y-100619572D02*
X22426667Y-100524333D01*
X22426667Y-100524333D02*
X22379048Y-100429095D01*
X22379048Y-100429095D02*
X22331429Y-100238619D01*
X22331429Y-100238619D02*
X22331429Y-100095762D01*
X22331429Y-100095762D02*
X22379048Y-99905286D01*
X22379048Y-99905286D02*
X22426667Y-99810048D01*
X22426667Y-99810048D02*
X22521905Y-99714810D01*
X22521905Y-99714810D02*
X22664762Y-99667191D01*
X22664762Y-99667191D02*
X22760000Y-99667191D01*
X22760000Y-99667191D02*
X22902857Y-99714810D01*
X22902857Y-99714810D02*
X22950476Y-99762429D01*
X23379048Y-100667191D02*
X23379048Y-99667191D01*
X23950476Y-100667191D02*
X23521905Y-100095762D01*
X23950476Y-99667191D02*
X23379048Y-100238619D01*
X25093334Y-100619572D02*
X25236191Y-100667191D01*
X25236191Y-100667191D02*
X25474286Y-100667191D01*
X25474286Y-100667191D02*
X25569524Y-100619572D01*
X25569524Y-100619572D02*
X25617143Y-100571952D01*
X25617143Y-100571952D02*
X25664762Y-100476714D01*
X25664762Y-100476714D02*
X25664762Y-100381476D01*
X25664762Y-100381476D02*
X25617143Y-100286238D01*
X25617143Y-100286238D02*
X25569524Y-100238619D01*
X25569524Y-100238619D02*
X25474286Y-100191000D01*
X25474286Y-100191000D02*
X25283810Y-100143381D01*
X25283810Y-100143381D02*
X25188572Y-100095762D01*
X25188572Y-100095762D02*
X25140953Y-100048143D01*
X25140953Y-100048143D02*
X25093334Y-99952905D01*
X25093334Y-99952905D02*
X25093334Y-99857667D01*
X25093334Y-99857667D02*
X25140953Y-99762429D01*
X25140953Y-99762429D02*
X25188572Y-99714810D01*
X25188572Y-99714810D02*
X25283810Y-99667191D01*
X25283810Y-99667191D02*
X25521905Y-99667191D01*
X25521905Y-99667191D02*
X25664762Y-99714810D01*
X26093334Y-100667191D02*
X26093334Y-99667191D01*
X26569524Y-100667191D02*
X26569524Y-99667191D01*
X26569524Y-99667191D02*
X26807619Y-99667191D01*
X26807619Y-99667191D02*
X26950476Y-99714810D01*
X26950476Y-99714810D02*
X27045714Y-99810048D01*
X27045714Y-99810048D02*
X27093333Y-99905286D01*
X27093333Y-99905286D02*
X27140952Y-100095762D01*
X27140952Y-100095762D02*
X27140952Y-100238619D01*
X27140952Y-100238619D02*
X27093333Y-100429095D01*
X27093333Y-100429095D02*
X27045714Y-100524333D01*
X27045714Y-100524333D02*
X26950476Y-100619572D01*
X26950476Y-100619572D02*
X26807619Y-100667191D01*
X26807619Y-100667191D02*
X26569524Y-100667191D01*
X27569524Y-100143381D02*
X27902857Y-100143381D01*
X28045714Y-100667191D02*
X27569524Y-100667191D01*
X27569524Y-100667191D02*
X27569524Y-99667191D01*
X27569524Y-99667191D02*
X28045714Y-99667191D01*
X99093333Y-84557247D02*
X99093333Y-85271532D01*
X99093333Y-85271532D02*
X99045714Y-85414389D01*
X99045714Y-85414389D02*
X98950476Y-85509628D01*
X98950476Y-85509628D02*
X98807619Y-85557247D01*
X98807619Y-85557247D02*
X98712381Y-85557247D01*
X99998095Y-84890580D02*
X99998095Y-85557247D01*
X99569524Y-84890580D02*
X99569524Y-85414389D01*
X99569524Y-85414389D02*
X99617143Y-85509628D01*
X99617143Y-85509628D02*
X99712381Y-85557247D01*
X99712381Y-85557247D02*
X99855238Y-85557247D01*
X99855238Y-85557247D02*
X99950476Y-85509628D01*
X99950476Y-85509628D02*
X99998095Y-85462008D01*
X100474286Y-85557247D02*
X100474286Y-84890580D01*
X100474286Y-84985818D02*
X100521905Y-84938199D01*
X100521905Y-84938199D02*
X100617143Y-84890580D01*
X100617143Y-84890580D02*
X100760000Y-84890580D01*
X100760000Y-84890580D02*
X100855238Y-84938199D01*
X100855238Y-84938199D02*
X100902857Y-85033437D01*
X100902857Y-85033437D02*
X100902857Y-85557247D01*
X100902857Y-85033437D02*
X100950476Y-84938199D01*
X100950476Y-84938199D02*
X101045714Y-84890580D01*
X101045714Y-84890580D02*
X101188571Y-84890580D01*
X101188571Y-84890580D02*
X101283810Y-84938199D01*
X101283810Y-84938199D02*
X101331429Y-85033437D01*
X101331429Y-85033437D02*
X101331429Y-85557247D01*
X101807619Y-84890580D02*
X101807619Y-85890580D01*
X101807619Y-84938199D02*
X101902857Y-84890580D01*
X101902857Y-84890580D02*
X102093333Y-84890580D01*
X102093333Y-84890580D02*
X102188571Y-84938199D01*
X102188571Y-84938199D02*
X102236190Y-84985818D01*
X102236190Y-84985818D02*
X102283809Y-85081056D01*
X102283809Y-85081056D02*
X102283809Y-85366770D01*
X102283809Y-85366770D02*
X102236190Y-85462008D01*
X102236190Y-85462008D02*
X102188571Y-85509628D01*
X102188571Y-85509628D02*
X102093333Y-85557247D01*
X102093333Y-85557247D02*
X101902857Y-85557247D01*
X101902857Y-85557247D02*
X101807619Y-85509628D01*
X103379048Y-84890580D02*
X103569524Y-85557247D01*
X103569524Y-85557247D02*
X103760000Y-85081056D01*
X103760000Y-85081056D02*
X103950476Y-85557247D01*
X103950476Y-85557247D02*
X104140952Y-84890580D01*
X104521905Y-85557247D02*
X104521905Y-84557247D01*
X104950476Y-85557247D02*
X104950476Y-85033437D01*
X104950476Y-85033437D02*
X104902857Y-84938199D01*
X104902857Y-84938199D02*
X104807619Y-84890580D01*
X104807619Y-84890580D02*
X104664762Y-84890580D01*
X104664762Y-84890580D02*
X104569524Y-84938199D01*
X104569524Y-84938199D02*
X104521905Y-84985818D01*
X105807619Y-85509628D02*
X105712381Y-85557247D01*
X105712381Y-85557247D02*
X105521905Y-85557247D01*
X105521905Y-85557247D02*
X105426667Y-85509628D01*
X105426667Y-85509628D02*
X105379048Y-85414389D01*
X105379048Y-85414389D02*
X105379048Y-85033437D01*
X105379048Y-85033437D02*
X105426667Y-84938199D01*
X105426667Y-84938199D02*
X105521905Y-84890580D01*
X105521905Y-84890580D02*
X105712381Y-84890580D01*
X105712381Y-84890580D02*
X105807619Y-84938199D01*
X105807619Y-84938199D02*
X105855238Y-85033437D01*
X105855238Y-85033437D02*
X105855238Y-85128675D01*
X105855238Y-85128675D02*
X105379048Y-85223913D01*
X106283810Y-84890580D02*
X106283810Y-85557247D01*
X106283810Y-84985818D02*
X106331429Y-84938199D01*
X106331429Y-84938199D02*
X106426667Y-84890580D01*
X106426667Y-84890580D02*
X106569524Y-84890580D01*
X106569524Y-84890580D02*
X106664762Y-84938199D01*
X106664762Y-84938199D02*
X106712381Y-85033437D01*
X106712381Y-85033437D02*
X106712381Y-85557247D01*
X99355238Y-86643381D02*
X99498095Y-86691000D01*
X99498095Y-86691000D02*
X99545714Y-86738619D01*
X99545714Y-86738619D02*
X99593333Y-86833857D01*
X99593333Y-86833857D02*
X99593333Y-86976714D01*
X99593333Y-86976714D02*
X99545714Y-87071952D01*
X99545714Y-87071952D02*
X99498095Y-87119572D01*
X99498095Y-87119572D02*
X99402857Y-87167191D01*
X99402857Y-87167191D02*
X99021905Y-87167191D01*
X99021905Y-87167191D02*
X99021905Y-86167191D01*
X99021905Y-86167191D02*
X99355238Y-86167191D01*
X99355238Y-86167191D02*
X99450476Y-86214810D01*
X99450476Y-86214810D02*
X99498095Y-86262429D01*
X99498095Y-86262429D02*
X99545714Y-86357667D01*
X99545714Y-86357667D02*
X99545714Y-86452905D01*
X99545714Y-86452905D02*
X99498095Y-86548143D01*
X99498095Y-86548143D02*
X99450476Y-86595762D01*
X99450476Y-86595762D02*
X99355238Y-86643381D01*
X99355238Y-86643381D02*
X99021905Y-86643381D01*
X99974286Y-86881476D02*
X100450476Y-86881476D01*
X99879048Y-87167191D02*
X100212381Y-86167191D01*
X100212381Y-86167191D02*
X100545714Y-87167191D01*
X101450476Y-87071952D02*
X101402857Y-87119572D01*
X101402857Y-87119572D02*
X101260000Y-87167191D01*
X101260000Y-87167191D02*
X101164762Y-87167191D01*
X101164762Y-87167191D02*
X101021905Y-87119572D01*
X101021905Y-87119572D02*
X100926667Y-87024333D01*
X100926667Y-87024333D02*
X100879048Y-86929095D01*
X100879048Y-86929095D02*
X100831429Y-86738619D01*
X100831429Y-86738619D02*
X100831429Y-86595762D01*
X100831429Y-86595762D02*
X100879048Y-86405286D01*
X100879048Y-86405286D02*
X100926667Y-86310048D01*
X100926667Y-86310048D02*
X101021905Y-86214810D01*
X101021905Y-86214810D02*
X101164762Y-86167191D01*
X101164762Y-86167191D02*
X101260000Y-86167191D01*
X101260000Y-86167191D02*
X101402857Y-86214810D01*
X101402857Y-86214810D02*
X101450476Y-86262429D01*
X101879048Y-87167191D02*
X101879048Y-86167191D01*
X102450476Y-87167191D02*
X102021905Y-86595762D01*
X102450476Y-86167191D02*
X101879048Y-86738619D01*
X103593334Y-87119572D02*
X103736191Y-87167191D01*
X103736191Y-87167191D02*
X103974286Y-87167191D01*
X103974286Y-87167191D02*
X104069524Y-87119572D01*
X104069524Y-87119572D02*
X104117143Y-87071952D01*
X104117143Y-87071952D02*
X104164762Y-86976714D01*
X104164762Y-86976714D02*
X104164762Y-86881476D01*
X104164762Y-86881476D02*
X104117143Y-86786238D01*
X104117143Y-86786238D02*
X104069524Y-86738619D01*
X104069524Y-86738619D02*
X103974286Y-86691000D01*
X103974286Y-86691000D02*
X103783810Y-86643381D01*
X103783810Y-86643381D02*
X103688572Y-86595762D01*
X103688572Y-86595762D02*
X103640953Y-86548143D01*
X103640953Y-86548143D02*
X103593334Y-86452905D01*
X103593334Y-86452905D02*
X103593334Y-86357667D01*
X103593334Y-86357667D02*
X103640953Y-86262429D01*
X103640953Y-86262429D02*
X103688572Y-86214810D01*
X103688572Y-86214810D02*
X103783810Y-86167191D01*
X103783810Y-86167191D02*
X104021905Y-86167191D01*
X104021905Y-86167191D02*
X104164762Y-86214810D01*
X104593334Y-87167191D02*
X104593334Y-86167191D01*
X105069524Y-87167191D02*
X105069524Y-86167191D01*
X105069524Y-86167191D02*
X105307619Y-86167191D01*
X105307619Y-86167191D02*
X105450476Y-86214810D01*
X105450476Y-86214810D02*
X105545714Y-86310048D01*
X105545714Y-86310048D02*
X105593333Y-86405286D01*
X105593333Y-86405286D02*
X105640952Y-86595762D01*
X105640952Y-86595762D02*
X105640952Y-86738619D01*
X105640952Y-86738619D02*
X105593333Y-86929095D01*
X105593333Y-86929095D02*
X105545714Y-87024333D01*
X105545714Y-87024333D02*
X105450476Y-87119572D01*
X105450476Y-87119572D02*
X105307619Y-87167191D01*
X105307619Y-87167191D02*
X105069524Y-87167191D01*
X106069524Y-86643381D02*
X106402857Y-86643381D01*
X106545714Y-87167191D02*
X106069524Y-87167191D01*
X106069524Y-87167191D02*
X106069524Y-86167191D01*
X106069524Y-86167191D02*
X106545714Y-86167191D01*
X16935087Y-21352219D02*
X17506515Y-21352219D01*
X17220801Y-22352219D02*
X17220801Y-21352219D01*
X17839849Y-22352219D02*
X17839849Y-21352219D01*
X18268420Y-22352219D02*
X18268420Y-21828409D01*
X18268420Y-21828409D02*
X18220801Y-21733171D01*
X18220801Y-21733171D02*
X18125563Y-21685552D01*
X18125563Y-21685552D02*
X17982706Y-21685552D01*
X17982706Y-21685552D02*
X17887468Y-21733171D01*
X17887468Y-21733171D02*
X17839849Y-21780790D01*
X18744611Y-22352219D02*
X18744611Y-21685552D01*
X18744611Y-21352219D02*
X18696992Y-21399838D01*
X18696992Y-21399838D02*
X18744611Y-21447457D01*
X18744611Y-21447457D02*
X18792230Y-21399838D01*
X18792230Y-21399838D02*
X18744611Y-21352219D01*
X18744611Y-21352219D02*
X18744611Y-21447457D01*
X19173182Y-22304600D02*
X19268420Y-22352219D01*
X19268420Y-22352219D02*
X19458896Y-22352219D01*
X19458896Y-22352219D02*
X19554134Y-22304600D01*
X19554134Y-22304600D02*
X19601753Y-22209361D01*
X19601753Y-22209361D02*
X19601753Y-22161742D01*
X19601753Y-22161742D02*
X19554134Y-22066504D01*
X19554134Y-22066504D02*
X19458896Y-22018885D01*
X19458896Y-22018885D02*
X19316039Y-22018885D01*
X19316039Y-22018885D02*
X19220801Y-21971266D01*
X19220801Y-21971266D02*
X19173182Y-21876028D01*
X19173182Y-21876028D02*
X19173182Y-21828409D01*
X19173182Y-21828409D02*
X19220801Y-21733171D01*
X19220801Y-21733171D02*
X19316039Y-21685552D01*
X19316039Y-21685552D02*
X19458896Y-21685552D01*
X19458896Y-21685552D02*
X19554134Y-21733171D01*
X20792230Y-22352219D02*
X20792230Y-21685552D01*
X20792230Y-21352219D02*
X20744611Y-21399838D01*
X20744611Y-21399838D02*
X20792230Y-21447457D01*
X20792230Y-21447457D02*
X20839849Y-21399838D01*
X20839849Y-21399838D02*
X20792230Y-21352219D01*
X20792230Y-21352219D02*
X20792230Y-21447457D01*
X21220801Y-22304600D02*
X21316039Y-22352219D01*
X21316039Y-22352219D02*
X21506515Y-22352219D01*
X21506515Y-22352219D02*
X21601753Y-22304600D01*
X21601753Y-22304600D02*
X21649372Y-22209361D01*
X21649372Y-22209361D02*
X21649372Y-22161742D01*
X21649372Y-22161742D02*
X21601753Y-22066504D01*
X21601753Y-22066504D02*
X21506515Y-22018885D01*
X21506515Y-22018885D02*
X21363658Y-22018885D01*
X21363658Y-22018885D02*
X21268420Y-21971266D01*
X21268420Y-21971266D02*
X21220801Y-21876028D01*
X21220801Y-21876028D02*
X21220801Y-21828409D01*
X21220801Y-21828409D02*
X21268420Y-21733171D01*
X21268420Y-21733171D02*
X21363658Y-21685552D01*
X21363658Y-21685552D02*
X21506515Y-21685552D01*
X21506515Y-21685552D02*
X21601753Y-21733171D01*
X22839849Y-21685552D02*
X22839849Y-22352219D01*
X22839849Y-21780790D02*
X22887468Y-21733171D01*
X22887468Y-21733171D02*
X22982706Y-21685552D01*
X22982706Y-21685552D02*
X23125563Y-21685552D01*
X23125563Y-21685552D02*
X23220801Y-21733171D01*
X23220801Y-21733171D02*
X23268420Y-21828409D01*
X23268420Y-21828409D02*
X23268420Y-22352219D01*
X23887468Y-22352219D02*
X23792230Y-22304600D01*
X23792230Y-22304600D02*
X23744611Y-22256980D01*
X23744611Y-22256980D02*
X23696992Y-22161742D01*
X23696992Y-22161742D02*
X23696992Y-21876028D01*
X23696992Y-21876028D02*
X23744611Y-21780790D01*
X23744611Y-21780790D02*
X23792230Y-21733171D01*
X23792230Y-21733171D02*
X23887468Y-21685552D01*
X23887468Y-21685552D02*
X24030325Y-21685552D01*
X24030325Y-21685552D02*
X24125563Y-21733171D01*
X24125563Y-21733171D02*
X24173182Y-21780790D01*
X24173182Y-21780790D02*
X24220801Y-21876028D01*
X24220801Y-21876028D02*
X24220801Y-22161742D01*
X24220801Y-22161742D02*
X24173182Y-22256980D01*
X24173182Y-22256980D02*
X24125563Y-22304600D01*
X24125563Y-22304600D02*
X24030325Y-22352219D01*
X24030325Y-22352219D02*
X23887468Y-22352219D01*
X24506516Y-21685552D02*
X24887468Y-21685552D01*
X24649373Y-21352219D02*
X24649373Y-22209361D01*
X24649373Y-22209361D02*
X24696992Y-22304600D01*
X24696992Y-22304600D02*
X24792230Y-22352219D01*
X24792230Y-22352219D02*
X24887468Y-22352219D01*
X25982707Y-22352219D02*
X25982707Y-21685552D01*
X25982707Y-21780790D02*
X26030326Y-21733171D01*
X26030326Y-21733171D02*
X26125564Y-21685552D01*
X26125564Y-21685552D02*
X26268421Y-21685552D01*
X26268421Y-21685552D02*
X26363659Y-21733171D01*
X26363659Y-21733171D02*
X26411278Y-21828409D01*
X26411278Y-21828409D02*
X26411278Y-22352219D01*
X26411278Y-21828409D02*
X26458897Y-21733171D01*
X26458897Y-21733171D02*
X26554135Y-21685552D01*
X26554135Y-21685552D02*
X26696992Y-21685552D01*
X26696992Y-21685552D02*
X26792231Y-21733171D01*
X26792231Y-21733171D02*
X26839850Y-21828409D01*
X26839850Y-21828409D02*
X26839850Y-22352219D01*
X27696992Y-22304600D02*
X27601754Y-22352219D01*
X27601754Y-22352219D02*
X27411278Y-22352219D01*
X27411278Y-22352219D02*
X27316040Y-22304600D01*
X27316040Y-22304600D02*
X27268421Y-22209361D01*
X27268421Y-22209361D02*
X27268421Y-21828409D01*
X27268421Y-21828409D02*
X27316040Y-21733171D01*
X27316040Y-21733171D02*
X27411278Y-21685552D01*
X27411278Y-21685552D02*
X27601754Y-21685552D01*
X27601754Y-21685552D02*
X27696992Y-21733171D01*
X27696992Y-21733171D02*
X27744611Y-21828409D01*
X27744611Y-21828409D02*
X27744611Y-21923647D01*
X27744611Y-21923647D02*
X27268421Y-22018885D01*
X28601754Y-22304600D02*
X28506516Y-22352219D01*
X28506516Y-22352219D02*
X28316040Y-22352219D01*
X28316040Y-22352219D02*
X28220802Y-22304600D01*
X28220802Y-22304600D02*
X28173183Y-22256980D01*
X28173183Y-22256980D02*
X28125564Y-22161742D01*
X28125564Y-22161742D02*
X28125564Y-21876028D01*
X28125564Y-21876028D02*
X28173183Y-21780790D01*
X28173183Y-21780790D02*
X28220802Y-21733171D01*
X28220802Y-21733171D02*
X28316040Y-21685552D01*
X28316040Y-21685552D02*
X28506516Y-21685552D01*
X28506516Y-21685552D02*
X28601754Y-21733171D01*
X29030326Y-22352219D02*
X29030326Y-21352219D01*
X29458897Y-22352219D02*
X29458897Y-21828409D01*
X29458897Y-21828409D02*
X29411278Y-21733171D01*
X29411278Y-21733171D02*
X29316040Y-21685552D01*
X29316040Y-21685552D02*
X29173183Y-21685552D01*
X29173183Y-21685552D02*
X29077945Y-21733171D01*
X29077945Y-21733171D02*
X29030326Y-21780790D01*
X30363659Y-22352219D02*
X30363659Y-21828409D01*
X30363659Y-21828409D02*
X30316040Y-21733171D01*
X30316040Y-21733171D02*
X30220802Y-21685552D01*
X30220802Y-21685552D02*
X30030326Y-21685552D01*
X30030326Y-21685552D02*
X29935088Y-21733171D01*
X30363659Y-22304600D02*
X30268421Y-22352219D01*
X30268421Y-22352219D02*
X30030326Y-22352219D01*
X30030326Y-22352219D02*
X29935088Y-22304600D01*
X29935088Y-22304600D02*
X29887469Y-22209361D01*
X29887469Y-22209361D02*
X29887469Y-22114123D01*
X29887469Y-22114123D02*
X29935088Y-22018885D01*
X29935088Y-22018885D02*
X30030326Y-21971266D01*
X30030326Y-21971266D02*
X30268421Y-21971266D01*
X30268421Y-21971266D02*
X30363659Y-21923647D01*
X30839850Y-21685552D02*
X30839850Y-22352219D01*
X30839850Y-21780790D02*
X30887469Y-21733171D01*
X30887469Y-21733171D02*
X30982707Y-21685552D01*
X30982707Y-21685552D02*
X31125564Y-21685552D01*
X31125564Y-21685552D02*
X31220802Y-21733171D01*
X31220802Y-21733171D02*
X31268421Y-21828409D01*
X31268421Y-21828409D02*
X31268421Y-22352219D01*
X31744612Y-22352219D02*
X31744612Y-21685552D01*
X31744612Y-21352219D02*
X31696993Y-21399838D01*
X31696993Y-21399838D02*
X31744612Y-21447457D01*
X31744612Y-21447457D02*
X31792231Y-21399838D01*
X31792231Y-21399838D02*
X31744612Y-21352219D01*
X31744612Y-21352219D02*
X31744612Y-21447457D01*
X32649373Y-22304600D02*
X32554135Y-22352219D01*
X32554135Y-22352219D02*
X32363659Y-22352219D01*
X32363659Y-22352219D02*
X32268421Y-22304600D01*
X32268421Y-22304600D02*
X32220802Y-22256980D01*
X32220802Y-22256980D02*
X32173183Y-22161742D01*
X32173183Y-22161742D02*
X32173183Y-21876028D01*
X32173183Y-21876028D02*
X32220802Y-21780790D01*
X32220802Y-21780790D02*
X32268421Y-21733171D01*
X32268421Y-21733171D02*
X32363659Y-21685552D01*
X32363659Y-21685552D02*
X32554135Y-21685552D01*
X32554135Y-21685552D02*
X32649373Y-21733171D01*
X33506516Y-22352219D02*
X33506516Y-21828409D01*
X33506516Y-21828409D02*
X33458897Y-21733171D01*
X33458897Y-21733171D02*
X33363659Y-21685552D01*
X33363659Y-21685552D02*
X33173183Y-21685552D01*
X33173183Y-21685552D02*
X33077945Y-21733171D01*
X33506516Y-22304600D02*
X33411278Y-22352219D01*
X33411278Y-22352219D02*
X33173183Y-22352219D01*
X33173183Y-22352219D02*
X33077945Y-22304600D01*
X33077945Y-22304600D02*
X33030326Y-22209361D01*
X33030326Y-22209361D02*
X33030326Y-22114123D01*
X33030326Y-22114123D02*
X33077945Y-22018885D01*
X33077945Y-22018885D02*
X33173183Y-21971266D01*
X33173183Y-21971266D02*
X33411278Y-21971266D01*
X33411278Y-21971266D02*
X33506516Y-21923647D01*
X34125564Y-22352219D02*
X34030326Y-22304600D01*
X34030326Y-22304600D02*
X33982707Y-22209361D01*
X33982707Y-22209361D02*
X33982707Y-21352219D01*
D11*
X39724098Y-76090928D02*
X39009812Y-76090928D01*
X39009812Y-76090928D02*
X39009812Y-74590928D01*
X40224098Y-75305214D02*
X40724098Y-75305214D01*
X40938384Y-76090928D02*
X40224098Y-76090928D01*
X40224098Y-76090928D02*
X40224098Y-74590928D01*
X40224098Y-74590928D02*
X40938384Y-74590928D01*
X42081241Y-75305214D02*
X41581241Y-75305214D01*
X41581241Y-76090928D02*
X41581241Y-74590928D01*
X41581241Y-74590928D02*
X42295527Y-74590928D01*
X42652670Y-74590928D02*
X43509813Y-74590928D01*
X43081241Y-76090928D02*
X43081241Y-74590928D01*
X45081241Y-76019500D02*
X45295527Y-76090928D01*
X45295527Y-76090928D02*
X45652669Y-76090928D01*
X45652669Y-76090928D02*
X45795527Y-76019500D01*
X45795527Y-76019500D02*
X45866955Y-75948071D01*
X45866955Y-75948071D02*
X45938384Y-75805214D01*
X45938384Y-75805214D02*
X45938384Y-75662357D01*
X45938384Y-75662357D02*
X45866955Y-75519500D01*
X45866955Y-75519500D02*
X45795527Y-75448071D01*
X45795527Y-75448071D02*
X45652669Y-75376642D01*
X45652669Y-75376642D02*
X45366955Y-75305214D01*
X45366955Y-75305214D02*
X45224098Y-75233785D01*
X45224098Y-75233785D02*
X45152669Y-75162357D01*
X45152669Y-75162357D02*
X45081241Y-75019500D01*
X45081241Y-75019500D02*
X45081241Y-74876642D01*
X45081241Y-74876642D02*
X45152669Y-74733785D01*
X45152669Y-74733785D02*
X45224098Y-74662357D01*
X45224098Y-74662357D02*
X45366955Y-74590928D01*
X45366955Y-74590928D02*
X45724098Y-74590928D01*
X45724098Y-74590928D02*
X45938384Y-74662357D01*
X46581240Y-76090928D02*
X46581240Y-74590928D01*
X47295526Y-76090928D02*
X47295526Y-74590928D01*
X47295526Y-74590928D02*
X47652669Y-74590928D01*
X47652669Y-74590928D02*
X47866955Y-74662357D01*
X47866955Y-74662357D02*
X48009812Y-74805214D01*
X48009812Y-74805214D02*
X48081241Y-74948071D01*
X48081241Y-74948071D02*
X48152669Y-75233785D01*
X48152669Y-75233785D02*
X48152669Y-75448071D01*
X48152669Y-75448071D02*
X48081241Y-75733785D01*
X48081241Y-75733785D02*
X48009812Y-75876642D01*
X48009812Y-75876642D02*
X47866955Y-76019500D01*
X47866955Y-76019500D02*
X47652669Y-76090928D01*
X47652669Y-76090928D02*
X47295526Y-76090928D01*
X48795526Y-75305214D02*
X49295526Y-75305214D01*
X49509812Y-76090928D02*
X48795526Y-76090928D01*
X48795526Y-76090928D02*
X48795526Y-74590928D01*
X48795526Y-74590928D02*
X49509812Y-74590928D01*
D12*
G36*
X18254377Y-23212749D02*
G01*
X18379124Y-23224385D01*
X18487173Y-23249596D01*
X18590882Y-23292773D01*
X18660780Y-23337339D01*
X18714195Y-23387679D01*
X18753426Y-23444082D01*
X18790698Y-23542809D01*
X18803984Y-23665244D01*
X18795331Y-23759653D01*
X18770533Y-23841260D01*
X18730223Y-23912540D01*
X18645293Y-24003847D01*
X18533485Y-24077648D01*
X18533485Y-24088517D01*
X18664638Y-24128673D01*
X18771655Y-24188750D01*
X18858572Y-24268646D01*
X18923591Y-24366558D01*
X18963513Y-24481284D01*
X18977519Y-24617302D01*
X18970780Y-24716597D01*
X18951394Y-24804906D01*
X18920122Y-24883893D01*
X18852339Y-24989831D01*
X18765760Y-25074159D01*
X18645002Y-25151179D01*
X18513702Y-25202020D01*
X18366933Y-25229480D01*
X18164678Y-25240000D01*
X17443307Y-25240000D01*
X17443307Y-25005526D01*
X17713806Y-25005526D01*
X18071744Y-25005526D01*
X18241320Y-25000489D01*
X18362637Y-24987452D01*
X18469142Y-24960642D01*
X18548506Y-24921140D01*
X18616126Y-24863678D01*
X18660491Y-24801828D01*
X18686358Y-24728800D01*
X18696029Y-24628904D01*
X18685782Y-24515519D01*
X18659148Y-24437295D01*
X18609889Y-24374006D01*
X18525303Y-24316639D01*
X18455216Y-24289734D01*
X18366057Y-24273164D01*
X18138667Y-24263028D01*
X17713806Y-24263028D01*
X17713806Y-25005526D01*
X17443307Y-25005526D01*
X17443307Y-24028555D01*
X17713806Y-24028555D01*
X18063562Y-24028555D01*
X18184092Y-24024885D01*
X18265673Y-24015610D01*
X18338171Y-23995666D01*
X18405136Y-23961755D01*
X18460448Y-23914331D01*
X18495994Y-23856120D01*
X18515553Y-23787723D01*
X18522616Y-23702735D01*
X18516012Y-23632744D01*
X18497948Y-23578660D01*
X18466458Y-23533605D01*
X18418813Y-23496960D01*
X18349875Y-23467735D01*
X18262986Y-23451287D01*
X18036207Y-23442372D01*
X17713806Y-23442372D01*
X17713806Y-24028555D01*
X17443307Y-24028555D01*
X17443307Y-23207899D01*
X18045732Y-23207899D01*
X18254377Y-23212749D01*
G37*
G36*
X20095708Y-23691198D02*
G01*
X20230851Y-23732242D01*
X20348275Y-23798814D01*
X20450914Y-23892267D01*
X20531656Y-24004565D01*
X20591151Y-24136990D01*
X20628790Y-24293405D01*
X20642156Y-24478695D01*
X20628779Y-24664004D01*
X20591125Y-24820280D01*
X20531631Y-24952445D01*
X20450914Y-25064389D01*
X20348321Y-25157492D01*
X20230913Y-25223843D01*
X20095753Y-25264766D01*
X19938614Y-25279078D01*
X19779956Y-25264709D01*
X19644002Y-25223697D01*
X19526400Y-25157335D01*
X19424117Y-25064389D01*
X19343736Y-24952491D01*
X19284464Y-24820343D01*
X19246940Y-24664051D01*
X19233607Y-24478695D01*
X19498611Y-24478695D01*
X19507221Y-24622215D01*
X19530910Y-24738329D01*
X19567204Y-24831800D01*
X19614748Y-24906608D01*
X19677956Y-24969940D01*
X19751463Y-25014913D01*
X19837315Y-25042673D01*
X19938614Y-25052421D01*
X20038485Y-25042804D01*
X20123579Y-25015358D01*
X20196858Y-24970797D01*
X20260282Y-24907951D01*
X20308015Y-24833768D01*
X20344540Y-24740418D01*
X20368442Y-24623729D01*
X20377152Y-24478695D01*
X20368370Y-24329634D01*
X20344421Y-24211288D01*
X20308106Y-24118062D01*
X20261015Y-24045286D01*
X20198056Y-23983827D01*
X20124860Y-23940065D01*
X20039389Y-23913009D01*
X19938614Y-23903503D01*
X19836318Y-23913068D01*
X19750060Y-23940216D01*
X19676672Y-23983988D01*
X19614016Y-24045286D01*
X19567247Y-24118011D01*
X19531157Y-24211215D01*
X19507345Y-24329578D01*
X19498611Y-24478695D01*
X19233607Y-24478695D01*
X19246929Y-24293358D01*
X19284438Y-24136927D01*
X19343711Y-24004518D01*
X19424117Y-23892267D01*
X19526446Y-23798971D01*
X19644065Y-23732389D01*
X19780003Y-23691255D01*
X19938614Y-23676845D01*
X20095708Y-23691198D01*
G37*
G36*
X21717240Y-23683993D02*
G01*
X21842121Y-23703468D01*
X21955195Y-23740176D01*
X22049117Y-23794326D01*
X22124741Y-23866174D01*
X22180275Y-23956992D01*
X22213180Y-24063854D01*
X22225338Y-24204288D01*
X22225338Y-25240000D01*
X21969860Y-25240000D01*
X21969860Y-25074769D01*
X21877658Y-25139494D01*
X21764940Y-25205561D01*
X21697711Y-25233660D01*
X21617418Y-25257951D01*
X21530337Y-25273420D01*
X21422023Y-25279078D01*
X21321195Y-25270276D01*
X21230515Y-25244671D01*
X21148017Y-25202537D01*
X21072267Y-25142913D01*
X21009668Y-25070324D01*
X20965353Y-24989481D01*
X20938276Y-24898704D01*
X20928897Y-24795600D01*
X20930013Y-24781800D01*
X21193900Y-24781800D01*
X21203596Y-24865372D01*
X21230352Y-24929432D01*
X21273157Y-24978660D01*
X21329903Y-25013036D01*
X21408259Y-25035976D01*
X21514958Y-25044605D01*
X21645700Y-25031219D01*
X21762131Y-24992215D01*
X21870428Y-24934324D01*
X21969860Y-24866186D01*
X21969860Y-24442791D01*
X21693133Y-24463307D01*
X21542509Y-24481235D01*
X21441196Y-24502752D01*
X21338985Y-24543884D01*
X21262166Y-24600083D01*
X21225108Y-24648025D01*
X21202114Y-24707479D01*
X21193900Y-24781800D01*
X20930013Y-24781800D01*
X20938047Y-24682419D01*
X20963460Y-24590534D01*
X21003269Y-24515819D01*
X21058604Y-24450908D01*
X21128701Y-24394875D01*
X21215760Y-24347536D01*
X21363549Y-24297511D01*
X21550373Y-24264494D01*
X21969860Y-24231765D01*
X21969860Y-24192076D01*
X21961568Y-24109300D01*
X21939085Y-24047117D01*
X21901835Y-23995948D01*
X21851036Y-23956870D01*
X21792542Y-23931069D01*
X21719755Y-23914494D01*
X21560020Y-23903503D01*
X21456484Y-23909649D01*
X21334584Y-23929637D01*
X21209980Y-23960994D01*
X21077763Y-24005108D01*
X21064085Y-24005108D01*
X21064085Y-23745966D01*
X21281217Y-23701270D01*
X21423076Y-23682886D01*
X21561364Y-23676845D01*
X21717240Y-23683993D01*
G37*
G36*
X23672110Y-23997292D02*
G01*
X23658433Y-23997292D01*
X23547058Y-23979462D01*
X23419319Y-23973845D01*
X23302957Y-23986847D01*
X23189853Y-24026235D01*
X23082216Y-24085649D01*
X22976751Y-24161545D01*
X22976751Y-25240000D01*
X22719930Y-25240000D01*
X22719930Y-23715924D01*
X22976751Y-23715924D01*
X22976751Y-23941116D01*
X23128362Y-23831281D01*
X23246517Y-23767093D01*
X23365255Y-23728565D01*
X23484898Y-23715924D01*
X23581985Y-23719344D01*
X23672110Y-23732411D01*
X23672110Y-23997292D01*
G37*
G36*
X25151612Y-25240000D02*
G01*
X24894668Y-25240000D01*
X24894668Y-25077944D01*
X24780132Y-25163493D01*
X24663736Y-25226078D01*
X24539534Y-25265605D01*
X24402885Y-25279078D01*
X24270769Y-25265463D01*
X24156728Y-25226282D01*
X24056930Y-25161907D01*
X23968988Y-25069884D01*
X23902396Y-24962508D01*
X23852291Y-24832992D01*
X23820078Y-24677057D01*
X23808520Y-24489563D01*
X23808758Y-24484923D01*
X24073646Y-24484923D01*
X24085828Y-24663884D01*
X24118264Y-24797617D01*
X24166458Y-24896106D01*
X24218510Y-24956413D01*
X24283457Y-24999727D01*
X24363986Y-25026998D01*
X24464312Y-25036789D01*
X24572794Y-25025052D01*
X24685596Y-24988551D01*
X24793787Y-24933400D01*
X24894668Y-24864110D01*
X24894668Y-23992896D01*
X24792577Y-23952515D01*
X24708799Y-23929026D01*
X24624757Y-23915911D01*
X24529891Y-23911318D01*
X24424535Y-23921350D01*
X24335378Y-23949887D01*
X24259187Y-23996045D01*
X24193813Y-24060917D01*
X24144090Y-24137845D01*
X24106580Y-24231756D01*
X24082369Y-24346070D01*
X24073646Y-24484923D01*
X23808758Y-24484923D01*
X23815068Y-24361719D01*
X23833843Y-24247651D01*
X23863841Y-24145669D01*
X23930052Y-24004086D01*
X24013440Y-23888848D01*
X24114418Y-23797499D01*
X24229961Y-23731189D01*
X24356173Y-23690367D01*
X24486172Y-23676845D01*
X24602589Y-23683501D01*
X24699274Y-23702002D01*
X24792303Y-23733209D01*
X24894668Y-23780160D01*
X24894668Y-23114110D01*
X25151612Y-23114110D01*
X25151612Y-25240000D01*
G37*
G36*
X25916214Y-25240000D02*
G01*
X25659392Y-25240000D01*
X25659392Y-23114110D01*
X25916214Y-23114110D01*
X25916214Y-25240000D01*
G37*
G36*
X27178750Y-23691198D02*
G01*
X27313893Y-23732242D01*
X27431318Y-23798814D01*
X27533956Y-23892267D01*
X27614698Y-24004565D01*
X27674193Y-24136990D01*
X27711832Y-24293405D01*
X27725198Y-24478695D01*
X27711822Y-24664004D01*
X27674167Y-24820280D01*
X27614673Y-24952445D01*
X27533956Y-25064389D01*
X27431364Y-25157492D01*
X27313956Y-25223843D01*
X27178796Y-25264766D01*
X27021657Y-25279078D01*
X26862999Y-25264709D01*
X26727045Y-25223697D01*
X26609442Y-25157335D01*
X26507159Y-25064389D01*
X26426778Y-24952491D01*
X26367507Y-24820343D01*
X26329983Y-24664051D01*
X26316650Y-24478695D01*
X26581653Y-24478695D01*
X26590264Y-24622215D01*
X26613952Y-24738329D01*
X26650247Y-24831800D01*
X26697791Y-24906608D01*
X26760998Y-24969940D01*
X26834506Y-25014913D01*
X26920358Y-25042673D01*
X27021657Y-25052421D01*
X27121528Y-25042804D01*
X27206621Y-25015358D01*
X27279900Y-24970797D01*
X27343325Y-24907951D01*
X27391057Y-24833768D01*
X27427582Y-24740418D01*
X27451485Y-24623729D01*
X27460195Y-24478695D01*
X27451412Y-24329634D01*
X27427463Y-24211288D01*
X27391149Y-24118062D01*
X27344057Y-24045286D01*
X27281099Y-23983827D01*
X27207902Y-23940065D01*
X27122432Y-23913009D01*
X27021657Y-23903503D01*
X26919361Y-23913068D01*
X26833103Y-23940216D01*
X26759715Y-23983988D01*
X26697058Y-24045286D01*
X26650290Y-24118011D01*
X26614199Y-24211215D01*
X26590388Y-24329578D01*
X26581653Y-24478695D01*
X26316650Y-24478695D01*
X26329972Y-24293358D01*
X26367481Y-24136927D01*
X26426753Y-24004518D01*
X26507159Y-23892267D01*
X26609489Y-23798971D01*
X26727108Y-23732389D01*
X26863045Y-23691255D01*
X27021657Y-23676845D01*
X27178750Y-23691198D01*
G37*
G36*
X28800282Y-23683993D02*
G01*
X28925163Y-23703468D01*
X29038238Y-23740176D01*
X29132159Y-23794326D01*
X29207783Y-23866174D01*
X29263318Y-23956992D01*
X29296222Y-24063854D01*
X29308381Y-24204288D01*
X29308381Y-25240000D01*
X29052903Y-25240000D01*
X29052903Y-25074769D01*
X28960701Y-25139494D01*
X28847983Y-25205561D01*
X28780753Y-25233660D01*
X28700460Y-25257951D01*
X28613380Y-25273420D01*
X28505066Y-25279078D01*
X28404238Y-25270276D01*
X28313557Y-25244671D01*
X28231060Y-25202537D01*
X28155310Y-25142913D01*
X28092710Y-25070324D01*
X28048396Y-24989481D01*
X28021318Y-24898704D01*
X28011939Y-24795600D01*
X28013055Y-24781800D01*
X28276943Y-24781800D01*
X28286638Y-24865372D01*
X28313395Y-24929432D01*
X28356200Y-24978660D01*
X28412945Y-25013036D01*
X28491302Y-25035976D01*
X28598000Y-25044605D01*
X28728742Y-25031219D01*
X28845174Y-24992215D01*
X28953471Y-24934324D01*
X29052903Y-24866186D01*
X29052903Y-24442791D01*
X28776175Y-24463307D01*
X28625552Y-24481235D01*
X28524239Y-24502752D01*
X28422028Y-24543884D01*
X28345209Y-24600083D01*
X28308151Y-24648025D01*
X28285157Y-24707479D01*
X28276943Y-24781800D01*
X28013055Y-24781800D01*
X28021090Y-24682419D01*
X28046503Y-24590534D01*
X28086311Y-24515819D01*
X28141646Y-24450908D01*
X28211744Y-24394875D01*
X28298803Y-24347536D01*
X28446591Y-24297511D01*
X28633415Y-24264494D01*
X29052903Y-24231765D01*
X29052903Y-24192076D01*
X29044610Y-24109300D01*
X29022128Y-24047117D01*
X28984878Y-23995948D01*
X28934078Y-23956870D01*
X28875585Y-23931069D01*
X28802798Y-23914494D01*
X28643063Y-23903503D01*
X28539527Y-23909649D01*
X28417627Y-23929637D01*
X28293022Y-23960994D01*
X28160806Y-24005108D01*
X28147128Y-24005108D01*
X28147128Y-23745966D01*
X28364260Y-23701270D01*
X28506118Y-23682886D01*
X28644406Y-23676845D01*
X28800282Y-23683993D01*
G37*
G36*
X30623995Y-23364214D02*
G01*
X30610317Y-23364214D01*
X30499675Y-23338447D01*
X30379508Y-23325136D01*
X30271566Y-23334780D01*
X30194198Y-23360267D01*
X30139661Y-23398531D01*
X30101855Y-23452920D01*
X30075581Y-23537377D01*
X30065289Y-23663778D01*
X30065289Y-23715924D01*
X30528374Y-23715924D01*
X30528374Y-23934766D01*
X30073471Y-23934766D01*
X30073471Y-25240000D01*
X29816650Y-25240000D01*
X29816650Y-23934766D01*
X29643115Y-23934766D01*
X29643115Y-23715924D01*
X29816650Y-23715924D01*
X29816650Y-23665000D01*
X29826342Y-23527625D01*
X29853316Y-23414552D01*
X29895400Y-23321488D01*
X29951838Y-23245024D01*
X30023906Y-23182989D01*
X30110844Y-23137546D01*
X30215712Y-23108761D01*
X30342627Y-23098478D01*
X30497599Y-23106782D01*
X30623995Y-23126200D01*
X30623995Y-23364214D01*
G37*
G36*
X32061852Y-25240000D02*
G01*
X31805031Y-25240000D01*
X31805031Y-24373060D01*
X31792697Y-24176078D01*
X31774083Y-24090249D01*
X31747634Y-24032219D01*
X31706241Y-23982632D01*
X31649204Y-23947100D01*
X31579665Y-23926846D01*
X31482630Y-23919134D01*
X31377451Y-23931504D01*
X31262568Y-23970914D01*
X31150851Y-24029468D01*
X31042627Y-24103171D01*
X31042627Y-25240000D01*
X30785806Y-25240000D01*
X30785806Y-23114110D01*
X31042627Y-23114110D01*
X31042627Y-23887871D01*
X31166600Y-23798324D01*
X31291266Y-23732655D01*
X31421985Y-23690678D01*
X31554926Y-23676845D01*
X31677333Y-23687199D01*
X31778467Y-23716225D01*
X31862390Y-23762213D01*
X31932037Y-23825345D01*
X31985902Y-23902335D01*
X32026368Y-23996701D01*
X32052450Y-24112034D01*
X32061852Y-24252770D01*
X32061852Y-25240000D01*
G37*
G36*
X33343120Y-23689359D02*
G01*
X33470523Y-23724505D01*
X33576987Y-23780200D01*
X33666039Y-23856486D01*
X33736188Y-23950387D01*
X33788281Y-24063878D01*
X33821548Y-24200932D01*
X33833468Y-24366587D01*
X33833468Y-24505317D01*
X32709096Y-24505317D01*
X32720286Y-24638259D01*
X32751472Y-24746751D01*
X32802535Y-24841574D01*
X32867609Y-24915523D01*
X32944518Y-24971554D01*
X33036259Y-25012365D01*
X33137132Y-25036278D01*
X33251437Y-25044605D01*
X33406199Y-25029761D01*
X33565045Y-24984033D01*
X33709423Y-24918928D01*
X33789748Y-24864842D01*
X33803426Y-24864842D01*
X33803426Y-25143524D01*
X33672179Y-25193491D01*
X33538300Y-25234626D01*
X33400740Y-25261968D01*
X33254246Y-25271263D01*
X33064929Y-25256960D01*
X32906393Y-25216773D01*
X32773221Y-25153287D01*
X32661224Y-25066953D01*
X32587043Y-24981834D01*
X32528439Y-24883486D01*
X32485107Y-24769942D01*
X32457768Y-24638584D01*
X32448122Y-24486266D01*
X32461567Y-24309923D01*
X32709096Y-24309923D01*
X33583485Y-24309923D01*
X33570218Y-24179209D01*
X33535480Y-24077406D01*
X33481636Y-23998147D01*
X33428156Y-23952053D01*
X33361523Y-23917820D01*
X33278853Y-23895824D01*
X33176332Y-23887871D01*
X33074319Y-23896134D01*
X32987199Y-23919596D01*
X32912322Y-23957168D01*
X32847704Y-24009016D01*
X32778178Y-24095960D01*
X32732204Y-24195255D01*
X32709096Y-24309923D01*
X32461567Y-24309923D01*
X32462226Y-24301280D01*
X32502104Y-24144198D01*
X32565536Y-24010199D01*
X32652309Y-23895565D01*
X32761314Y-23800721D01*
X32885116Y-23733073D01*
X33026639Y-23691392D01*
X33190010Y-23676845D01*
X33343120Y-23689359D01*
G37*
D13*
X93894642Y-97859580D02*
X93847023Y-97907200D01*
X93847023Y-97907200D02*
X93704166Y-97954819D01*
X93704166Y-97954819D02*
X93608928Y-97954819D01*
X93608928Y-97954819D02*
X93466071Y-97907200D01*
X93466071Y-97907200D02*
X93370833Y-97811961D01*
X93370833Y-97811961D02*
X93323214Y-97716723D01*
X93323214Y-97716723D02*
X93275595Y-97526247D01*
X93275595Y-97526247D02*
X93275595Y-97383390D01*
X93275595Y-97383390D02*
X93323214Y-97192914D01*
X93323214Y-97192914D02*
X93370833Y-97097676D01*
X93370833Y-97097676D02*
X93466071Y-97002438D01*
X93466071Y-97002438D02*
X93608928Y-96954819D01*
X93608928Y-96954819D02*
X93704166Y-96954819D01*
X93704166Y-96954819D02*
X93847023Y-97002438D01*
X93847023Y-97002438D02*
X93894642Y-97050057D01*
X94847023Y-97954819D02*
X94275595Y-97954819D01*
X94561309Y-97954819D02*
X94561309Y-96954819D01*
X94561309Y-96954819D02*
X94466071Y-97097676D01*
X94466071Y-97097676D02*
X94370833Y-97192914D01*
X94370833Y-97192914D02*
X94275595Y-97240533D01*
X95180357Y-96954819D02*
X95847023Y-96954819D01*
X95847023Y-96954819D02*
X95418452Y-97954819D01*
X64959580Y-70142857D02*
X65007200Y-70190476D01*
X65007200Y-70190476D02*
X65054819Y-70333333D01*
X65054819Y-70333333D02*
X65054819Y-70428571D01*
X65054819Y-70428571D02*
X65007200Y-70571428D01*
X65007200Y-70571428D02*
X64911961Y-70666666D01*
X64911961Y-70666666D02*
X64816723Y-70714285D01*
X64816723Y-70714285D02*
X64626247Y-70761904D01*
X64626247Y-70761904D02*
X64483390Y-70761904D01*
X64483390Y-70761904D02*
X64292914Y-70714285D01*
X64292914Y-70714285D02*
X64197676Y-70666666D01*
X64197676Y-70666666D02*
X64102438Y-70571428D01*
X64102438Y-70571428D02*
X64054819Y-70428571D01*
X64054819Y-70428571D02*
X64054819Y-70333333D01*
X64054819Y-70333333D02*
X64102438Y-70190476D01*
X64102438Y-70190476D02*
X64150057Y-70142857D01*
X64150057Y-69761904D02*
X64102438Y-69714285D01*
X64102438Y-69714285D02*
X64054819Y-69619047D01*
X64054819Y-69619047D02*
X64054819Y-69380952D01*
X64054819Y-69380952D02*
X64102438Y-69285714D01*
X64102438Y-69285714D02*
X64150057Y-69238095D01*
X64150057Y-69238095D02*
X64245295Y-69190476D01*
X64245295Y-69190476D02*
X64340533Y-69190476D01*
X64340533Y-69190476D02*
X64483390Y-69238095D01*
X64483390Y-69238095D02*
X65054819Y-69809523D01*
X65054819Y-69809523D02*
X65054819Y-69190476D01*
X64054819Y-68571428D02*
X64054819Y-68476190D01*
X64054819Y-68476190D02*
X64102438Y-68380952D01*
X64102438Y-68380952D02*
X64150057Y-68333333D01*
X64150057Y-68333333D02*
X64245295Y-68285714D01*
X64245295Y-68285714D02*
X64435771Y-68238095D01*
X64435771Y-68238095D02*
X64673866Y-68238095D01*
X64673866Y-68238095D02*
X64864342Y-68285714D01*
X64864342Y-68285714D02*
X64959580Y-68333333D01*
X64959580Y-68333333D02*
X65007200Y-68380952D01*
X65007200Y-68380952D02*
X65054819Y-68476190D01*
X65054819Y-68476190D02*
X65054819Y-68571428D01*
X65054819Y-68571428D02*
X65007200Y-68666666D01*
X65007200Y-68666666D02*
X64959580Y-68714285D01*
X64959580Y-68714285D02*
X64864342Y-68761904D01*
X64864342Y-68761904D02*
X64673866Y-68809523D01*
X64673866Y-68809523D02*
X64435771Y-68809523D01*
X64435771Y-68809523D02*
X64245295Y-68761904D01*
X64245295Y-68761904D02*
X64150057Y-68714285D01*
X64150057Y-68714285D02*
X64102438Y-68666666D01*
X64102438Y-68666666D02*
X64054819Y-68571428D01*
X65333333Y-45859580D02*
X65285714Y-45907200D01*
X65285714Y-45907200D02*
X65142857Y-45954819D01*
X65142857Y-45954819D02*
X65047619Y-45954819D01*
X65047619Y-45954819D02*
X64904762Y-45907200D01*
X64904762Y-45907200D02*
X64809524Y-45811961D01*
X64809524Y-45811961D02*
X64761905Y-45716723D01*
X64761905Y-45716723D02*
X64714286Y-45526247D01*
X64714286Y-45526247D02*
X64714286Y-45383390D01*
X64714286Y-45383390D02*
X64761905Y-45192914D01*
X64761905Y-45192914D02*
X64809524Y-45097676D01*
X64809524Y-45097676D02*
X64904762Y-45002438D01*
X64904762Y-45002438D02*
X65047619Y-44954819D01*
X65047619Y-44954819D02*
X65142857Y-44954819D01*
X65142857Y-44954819D02*
X65285714Y-45002438D01*
X65285714Y-45002438D02*
X65333333Y-45050057D01*
X65904762Y-45383390D02*
X65809524Y-45335771D01*
X65809524Y-45335771D02*
X65761905Y-45288152D01*
X65761905Y-45288152D02*
X65714286Y-45192914D01*
X65714286Y-45192914D02*
X65714286Y-45145295D01*
X65714286Y-45145295D02*
X65761905Y-45050057D01*
X65761905Y-45050057D02*
X65809524Y-45002438D01*
X65809524Y-45002438D02*
X65904762Y-44954819D01*
X65904762Y-44954819D02*
X66095238Y-44954819D01*
X66095238Y-44954819D02*
X66190476Y-45002438D01*
X66190476Y-45002438D02*
X66238095Y-45050057D01*
X66238095Y-45050057D02*
X66285714Y-45145295D01*
X66285714Y-45145295D02*
X66285714Y-45192914D01*
X66285714Y-45192914D02*
X66238095Y-45288152D01*
X66238095Y-45288152D02*
X66190476Y-45335771D01*
X66190476Y-45335771D02*
X66095238Y-45383390D01*
X66095238Y-45383390D02*
X65904762Y-45383390D01*
X65904762Y-45383390D02*
X65809524Y-45431009D01*
X65809524Y-45431009D02*
X65761905Y-45478628D01*
X65761905Y-45478628D02*
X65714286Y-45573866D01*
X65714286Y-45573866D02*
X65714286Y-45764342D01*
X65714286Y-45764342D02*
X65761905Y-45859580D01*
X65761905Y-45859580D02*
X65809524Y-45907200D01*
X65809524Y-45907200D02*
X65904762Y-45954819D01*
X65904762Y-45954819D02*
X66095238Y-45954819D01*
X66095238Y-45954819D02*
X66190476Y-45907200D01*
X66190476Y-45907200D02*
X66238095Y-45859580D01*
X66238095Y-45859580D02*
X66285714Y-45764342D01*
X66285714Y-45764342D02*
X66285714Y-45573866D01*
X66285714Y-45573866D02*
X66238095Y-45478628D01*
X66238095Y-45478628D02*
X66190476Y-45431009D01*
X66190476Y-45431009D02*
X66095238Y-45383390D01*
X103333333Y-33859580D02*
X103285714Y-33907200D01*
X103285714Y-33907200D02*
X103142857Y-33954819D01*
X103142857Y-33954819D02*
X103047619Y-33954819D01*
X103047619Y-33954819D02*
X102904762Y-33907200D01*
X102904762Y-33907200D02*
X102809524Y-33811961D01*
X102809524Y-33811961D02*
X102761905Y-33716723D01*
X102761905Y-33716723D02*
X102714286Y-33526247D01*
X102714286Y-33526247D02*
X102714286Y-33383390D01*
X102714286Y-33383390D02*
X102761905Y-33192914D01*
X102761905Y-33192914D02*
X102809524Y-33097676D01*
X102809524Y-33097676D02*
X102904762Y-33002438D01*
X102904762Y-33002438D02*
X103047619Y-32954819D01*
X103047619Y-32954819D02*
X103142857Y-32954819D01*
X103142857Y-32954819D02*
X103285714Y-33002438D01*
X103285714Y-33002438D02*
X103333333Y-33050057D01*
X104238095Y-32954819D02*
X103761905Y-32954819D01*
X103761905Y-32954819D02*
X103714286Y-33431009D01*
X103714286Y-33431009D02*
X103761905Y-33383390D01*
X103761905Y-33383390D02*
X103857143Y-33335771D01*
X103857143Y-33335771D02*
X104095238Y-33335771D01*
X104095238Y-33335771D02*
X104190476Y-33383390D01*
X104190476Y-33383390D02*
X104238095Y-33431009D01*
X104238095Y-33431009D02*
X104285714Y-33526247D01*
X104285714Y-33526247D02*
X104285714Y-33764342D01*
X104285714Y-33764342D02*
X104238095Y-33859580D01*
X104238095Y-33859580D02*
X104190476Y-33907200D01*
X104190476Y-33907200D02*
X104095238Y-33954819D01*
X104095238Y-33954819D02*
X103857143Y-33954819D01*
X103857143Y-33954819D02*
X103761905Y-33907200D01*
X103761905Y-33907200D02*
X103714286Y-33859580D01*
X27333333Y-38859580D02*
X27285714Y-38907200D01*
X27285714Y-38907200D02*
X27142857Y-38954819D01*
X27142857Y-38954819D02*
X27047619Y-38954819D01*
X27047619Y-38954819D02*
X26904762Y-38907200D01*
X26904762Y-38907200D02*
X26809524Y-38811961D01*
X26809524Y-38811961D02*
X26761905Y-38716723D01*
X26761905Y-38716723D02*
X26714286Y-38526247D01*
X26714286Y-38526247D02*
X26714286Y-38383390D01*
X26714286Y-38383390D02*
X26761905Y-38192914D01*
X26761905Y-38192914D02*
X26809524Y-38097676D01*
X26809524Y-38097676D02*
X26904762Y-38002438D01*
X26904762Y-38002438D02*
X27047619Y-37954819D01*
X27047619Y-37954819D02*
X27142857Y-37954819D01*
X27142857Y-37954819D02*
X27285714Y-38002438D01*
X27285714Y-38002438D02*
X27333333Y-38050057D01*
X28285714Y-38954819D02*
X27714286Y-38954819D01*
X28000000Y-38954819D02*
X28000000Y-37954819D01*
X28000000Y-37954819D02*
X27904762Y-38097676D01*
X27904762Y-38097676D02*
X27809524Y-38192914D01*
X27809524Y-38192914D02*
X27714286Y-38240533D01*
X26894642Y-76859580D02*
X26847023Y-76907200D01*
X26847023Y-76907200D02*
X26704166Y-76954819D01*
X26704166Y-76954819D02*
X26608928Y-76954819D01*
X26608928Y-76954819D02*
X26466071Y-76907200D01*
X26466071Y-76907200D02*
X26370833Y-76811961D01*
X26370833Y-76811961D02*
X26323214Y-76716723D01*
X26323214Y-76716723D02*
X26275595Y-76526247D01*
X26275595Y-76526247D02*
X26275595Y-76383390D01*
X26275595Y-76383390D02*
X26323214Y-76192914D01*
X26323214Y-76192914D02*
X26370833Y-76097676D01*
X26370833Y-76097676D02*
X26466071Y-76002438D01*
X26466071Y-76002438D02*
X26608928Y-75954819D01*
X26608928Y-75954819D02*
X26704166Y-75954819D01*
X26704166Y-75954819D02*
X26847023Y-76002438D01*
X26847023Y-76002438D02*
X26894642Y-76050057D01*
X27847023Y-76954819D02*
X27275595Y-76954819D01*
X27561309Y-76954819D02*
X27561309Y-75954819D01*
X27561309Y-75954819D02*
X27466071Y-76097676D01*
X27466071Y-76097676D02*
X27370833Y-76192914D01*
X27370833Y-76192914D02*
X27275595Y-76240533D01*
X28799404Y-76954819D02*
X28227976Y-76954819D01*
X28513690Y-76954819D02*
X28513690Y-75954819D01*
X28513690Y-75954819D02*
X28418452Y-76097676D01*
X28418452Y-76097676D02*
X28323214Y-76192914D01*
X28323214Y-76192914D02*
X28227976Y-76240533D01*
X102857142Y-52859580D02*
X102809523Y-52907200D01*
X102809523Y-52907200D02*
X102666666Y-52954819D01*
X102666666Y-52954819D02*
X102571428Y-52954819D01*
X102571428Y-52954819D02*
X102428571Y-52907200D01*
X102428571Y-52907200D02*
X102333333Y-52811961D01*
X102333333Y-52811961D02*
X102285714Y-52716723D01*
X102285714Y-52716723D02*
X102238095Y-52526247D01*
X102238095Y-52526247D02*
X102238095Y-52383390D01*
X102238095Y-52383390D02*
X102285714Y-52192914D01*
X102285714Y-52192914D02*
X102333333Y-52097676D01*
X102333333Y-52097676D02*
X102428571Y-52002438D01*
X102428571Y-52002438D02*
X102571428Y-51954819D01*
X102571428Y-51954819D02*
X102666666Y-51954819D01*
X102666666Y-51954819D02*
X102809523Y-52002438D01*
X102809523Y-52002438D02*
X102857142Y-52050057D01*
X103809523Y-52954819D02*
X103238095Y-52954819D01*
X103523809Y-52954819D02*
X103523809Y-51954819D01*
X103523809Y-51954819D02*
X103428571Y-52097676D01*
X103428571Y-52097676D02*
X103333333Y-52192914D01*
X103333333Y-52192914D02*
X103238095Y-52240533D01*
X104428571Y-51954819D02*
X104523809Y-51954819D01*
X104523809Y-51954819D02*
X104619047Y-52002438D01*
X104619047Y-52002438D02*
X104666666Y-52050057D01*
X104666666Y-52050057D02*
X104714285Y-52145295D01*
X104714285Y-52145295D02*
X104761904Y-52335771D01*
X104761904Y-52335771D02*
X104761904Y-52573866D01*
X104761904Y-52573866D02*
X104714285Y-52764342D01*
X104714285Y-52764342D02*
X104666666Y-52859580D01*
X104666666Y-52859580D02*
X104619047Y-52907200D01*
X104619047Y-52907200D02*
X104523809Y-52954819D01*
X104523809Y-52954819D02*
X104428571Y-52954819D01*
X104428571Y-52954819D02*
X104333333Y-52907200D01*
X104333333Y-52907200D02*
X104285714Y-52859580D01*
X104285714Y-52859580D02*
X104238095Y-52764342D01*
X104238095Y-52764342D02*
X104190476Y-52573866D01*
X104190476Y-52573866D02*
X104190476Y-52335771D01*
X104190476Y-52335771D02*
X104238095Y-52145295D01*
X104238095Y-52145295D02*
X104285714Y-52050057D01*
X104285714Y-52050057D02*
X104333333Y-52002438D01*
X104333333Y-52002438D02*
X104428571Y-51954819D01*
X27333333Y-57859580D02*
X27285714Y-57907200D01*
X27285714Y-57907200D02*
X27142857Y-57954819D01*
X27142857Y-57954819D02*
X27047619Y-57954819D01*
X27047619Y-57954819D02*
X26904762Y-57907200D01*
X26904762Y-57907200D02*
X26809524Y-57811961D01*
X26809524Y-57811961D02*
X26761905Y-57716723D01*
X26761905Y-57716723D02*
X26714286Y-57526247D01*
X26714286Y-57526247D02*
X26714286Y-57383390D01*
X26714286Y-57383390D02*
X26761905Y-57192914D01*
X26761905Y-57192914D02*
X26809524Y-57097676D01*
X26809524Y-57097676D02*
X26904762Y-57002438D01*
X26904762Y-57002438D02*
X27047619Y-56954819D01*
X27047619Y-56954819D02*
X27142857Y-56954819D01*
X27142857Y-56954819D02*
X27285714Y-57002438D01*
X27285714Y-57002438D02*
X27333333Y-57050057D01*
X28190476Y-56954819D02*
X28000000Y-56954819D01*
X28000000Y-56954819D02*
X27904762Y-57002438D01*
X27904762Y-57002438D02*
X27857143Y-57050057D01*
X27857143Y-57050057D02*
X27761905Y-57192914D01*
X27761905Y-57192914D02*
X27714286Y-57383390D01*
X27714286Y-57383390D02*
X27714286Y-57764342D01*
X27714286Y-57764342D02*
X27761905Y-57859580D01*
X27761905Y-57859580D02*
X27809524Y-57907200D01*
X27809524Y-57907200D02*
X27904762Y-57954819D01*
X27904762Y-57954819D02*
X28095238Y-57954819D01*
X28095238Y-57954819D02*
X28190476Y-57907200D01*
X28190476Y-57907200D02*
X28238095Y-57859580D01*
X28238095Y-57859580D02*
X28285714Y-57764342D01*
X28285714Y-57764342D02*
X28285714Y-57526247D01*
X28285714Y-57526247D02*
X28238095Y-57431009D01*
X28238095Y-57431009D02*
X28190476Y-57383390D01*
X28190476Y-57383390D02*
X28095238Y-57335771D01*
X28095238Y-57335771D02*
X27904762Y-57335771D01*
X27904762Y-57335771D02*
X27809524Y-57383390D01*
X27809524Y-57383390D02*
X27761905Y-57431009D01*
X27761905Y-57431009D02*
X27714286Y-57526247D01*
X65333333Y-26859580D02*
X65285714Y-26907200D01*
X65285714Y-26907200D02*
X65142857Y-26954819D01*
X65142857Y-26954819D02*
X65047619Y-26954819D01*
X65047619Y-26954819D02*
X64904762Y-26907200D01*
X64904762Y-26907200D02*
X64809524Y-26811961D01*
X64809524Y-26811961D02*
X64761905Y-26716723D01*
X64761905Y-26716723D02*
X64714286Y-26526247D01*
X64714286Y-26526247D02*
X64714286Y-26383390D01*
X64714286Y-26383390D02*
X64761905Y-26192914D01*
X64761905Y-26192914D02*
X64809524Y-26097676D01*
X64809524Y-26097676D02*
X64904762Y-26002438D01*
X64904762Y-26002438D02*
X65047619Y-25954819D01*
X65047619Y-25954819D02*
X65142857Y-25954819D01*
X65142857Y-25954819D02*
X65285714Y-26002438D01*
X65285714Y-26002438D02*
X65333333Y-26050057D01*
X65666667Y-25954819D02*
X66285714Y-25954819D01*
X66285714Y-25954819D02*
X65952381Y-26335771D01*
X65952381Y-26335771D02*
X66095238Y-26335771D01*
X66095238Y-26335771D02*
X66190476Y-26383390D01*
X66190476Y-26383390D02*
X66238095Y-26431009D01*
X66238095Y-26431009D02*
X66285714Y-26526247D01*
X66285714Y-26526247D02*
X66285714Y-26764342D01*
X66285714Y-26764342D02*
X66238095Y-26859580D01*
X66238095Y-26859580D02*
X66190476Y-26907200D01*
X66190476Y-26907200D02*
X66095238Y-26954819D01*
X66095238Y-26954819D02*
X65809524Y-26954819D01*
X65809524Y-26954819D02*
X65714286Y-26907200D01*
X65714286Y-26907200D02*
X65666667Y-26859580D01*
X74894642Y-95859580D02*
X74847023Y-95907200D01*
X74847023Y-95907200D02*
X74704166Y-95954819D01*
X74704166Y-95954819D02*
X74608928Y-95954819D01*
X74608928Y-95954819D02*
X74466071Y-95907200D01*
X74466071Y-95907200D02*
X74370833Y-95811961D01*
X74370833Y-95811961D02*
X74323214Y-95716723D01*
X74323214Y-95716723D02*
X74275595Y-95526247D01*
X74275595Y-95526247D02*
X74275595Y-95383390D01*
X74275595Y-95383390D02*
X74323214Y-95192914D01*
X74323214Y-95192914D02*
X74370833Y-95097676D01*
X74370833Y-95097676D02*
X74466071Y-95002438D01*
X74466071Y-95002438D02*
X74608928Y-94954819D01*
X74608928Y-94954819D02*
X74704166Y-94954819D01*
X74704166Y-94954819D02*
X74847023Y-95002438D01*
X74847023Y-95002438D02*
X74894642Y-95050057D01*
X75847023Y-95954819D02*
X75275595Y-95954819D01*
X75561309Y-95954819D02*
X75561309Y-94954819D01*
X75561309Y-94954819D02*
X75466071Y-95097676D01*
X75466071Y-95097676D02*
X75370833Y-95192914D01*
X75370833Y-95192914D02*
X75275595Y-95240533D01*
X76704166Y-94954819D02*
X76513690Y-94954819D01*
X76513690Y-94954819D02*
X76418452Y-95002438D01*
X76418452Y-95002438D02*
X76370833Y-95050057D01*
X76370833Y-95050057D02*
X76275595Y-95192914D01*
X76275595Y-95192914D02*
X76227976Y-95383390D01*
X76227976Y-95383390D02*
X76227976Y-95764342D01*
X76227976Y-95764342D02*
X76275595Y-95859580D01*
X76275595Y-95859580D02*
X76323214Y-95907200D01*
X76323214Y-95907200D02*
X76418452Y-95954819D01*
X76418452Y-95954819D02*
X76608928Y-95954819D01*
X76608928Y-95954819D02*
X76704166Y-95907200D01*
X76704166Y-95907200D02*
X76751785Y-95859580D01*
X76751785Y-95859580D02*
X76799404Y-95764342D01*
X76799404Y-95764342D02*
X76799404Y-95526247D01*
X76799404Y-95526247D02*
X76751785Y-95431009D01*
X76751785Y-95431009D02*
X76704166Y-95383390D01*
X76704166Y-95383390D02*
X76608928Y-95335771D01*
X76608928Y-95335771D02*
X76418452Y-95335771D01*
X76418452Y-95335771D02*
X76323214Y-95383390D01*
X76323214Y-95383390D02*
X76275595Y-95431009D01*
X76275595Y-95431009D02*
X76227976Y-95526247D01*
X46333333Y-48859580D02*
X46285714Y-48907200D01*
X46285714Y-48907200D02*
X46142857Y-48954819D01*
X46142857Y-48954819D02*
X46047619Y-48954819D01*
X46047619Y-48954819D02*
X45904762Y-48907200D01*
X45904762Y-48907200D02*
X45809524Y-48811961D01*
X45809524Y-48811961D02*
X45761905Y-48716723D01*
X45761905Y-48716723D02*
X45714286Y-48526247D01*
X45714286Y-48526247D02*
X45714286Y-48383390D01*
X45714286Y-48383390D02*
X45761905Y-48192914D01*
X45761905Y-48192914D02*
X45809524Y-48097676D01*
X45809524Y-48097676D02*
X45904762Y-48002438D01*
X45904762Y-48002438D02*
X46047619Y-47954819D01*
X46047619Y-47954819D02*
X46142857Y-47954819D01*
X46142857Y-47954819D02*
X46285714Y-48002438D01*
X46285714Y-48002438D02*
X46333333Y-48050057D01*
X46666667Y-47954819D02*
X47333333Y-47954819D01*
X47333333Y-47954819D02*
X46904762Y-48954819D01*
X46333333Y-29859580D02*
X46285714Y-29907200D01*
X46285714Y-29907200D02*
X46142857Y-29954819D01*
X46142857Y-29954819D02*
X46047619Y-29954819D01*
X46047619Y-29954819D02*
X45904762Y-29907200D01*
X45904762Y-29907200D02*
X45809524Y-29811961D01*
X45809524Y-29811961D02*
X45761905Y-29716723D01*
X45761905Y-29716723D02*
X45714286Y-29526247D01*
X45714286Y-29526247D02*
X45714286Y-29383390D01*
X45714286Y-29383390D02*
X45761905Y-29192914D01*
X45761905Y-29192914D02*
X45809524Y-29097676D01*
X45809524Y-29097676D02*
X45904762Y-29002438D01*
X45904762Y-29002438D02*
X46047619Y-28954819D01*
X46047619Y-28954819D02*
X46142857Y-28954819D01*
X46142857Y-28954819D02*
X46285714Y-29002438D01*
X46285714Y-29002438D02*
X46333333Y-29050057D01*
X46714286Y-29050057D02*
X46761905Y-29002438D01*
X46761905Y-29002438D02*
X46857143Y-28954819D01*
X46857143Y-28954819D02*
X47095238Y-28954819D01*
X47095238Y-28954819D02*
X47190476Y-29002438D01*
X47190476Y-29002438D02*
X47238095Y-29050057D01*
X47238095Y-29050057D02*
X47285714Y-29145295D01*
X47285714Y-29145295D02*
X47285714Y-29240533D01*
X47285714Y-29240533D02*
X47238095Y-29383390D01*
X47238095Y-29383390D02*
X46666667Y-29954819D01*
X46666667Y-29954819D02*
X47285714Y-29954819D01*
X51859580Y-68380357D02*
X51907200Y-68427976D01*
X51907200Y-68427976D02*
X51954819Y-68570833D01*
X51954819Y-68570833D02*
X51954819Y-68666071D01*
X51954819Y-68666071D02*
X51907200Y-68808928D01*
X51907200Y-68808928D02*
X51811961Y-68904166D01*
X51811961Y-68904166D02*
X51716723Y-68951785D01*
X51716723Y-68951785D02*
X51526247Y-68999404D01*
X51526247Y-68999404D02*
X51383390Y-68999404D01*
X51383390Y-68999404D02*
X51192914Y-68951785D01*
X51192914Y-68951785D02*
X51097676Y-68904166D01*
X51097676Y-68904166D02*
X51002438Y-68808928D01*
X51002438Y-68808928D02*
X50954819Y-68666071D01*
X50954819Y-68666071D02*
X50954819Y-68570833D01*
X50954819Y-68570833D02*
X51002438Y-68427976D01*
X51002438Y-68427976D02*
X51050057Y-68380357D01*
X51954819Y-67427976D02*
X51954819Y-67999404D01*
X51954819Y-67713690D02*
X50954819Y-67713690D01*
X50954819Y-67713690D02*
X51097676Y-67808928D01*
X51097676Y-67808928D02*
X51192914Y-67904166D01*
X51192914Y-67904166D02*
X51240533Y-67999404D01*
X51954819Y-66951785D02*
X51954819Y-66761309D01*
X51954819Y-66761309D02*
X51907200Y-66666071D01*
X51907200Y-66666071D02*
X51859580Y-66618452D01*
X51859580Y-66618452D02*
X51716723Y-66523214D01*
X51716723Y-66523214D02*
X51526247Y-66475595D01*
X51526247Y-66475595D02*
X51145295Y-66475595D01*
X51145295Y-66475595D02*
X51050057Y-66523214D01*
X51050057Y-66523214D02*
X51002438Y-66570833D01*
X51002438Y-66570833D02*
X50954819Y-66666071D01*
X50954819Y-66666071D02*
X50954819Y-66856547D01*
X50954819Y-66856547D02*
X51002438Y-66951785D01*
X51002438Y-66951785D02*
X51050057Y-66999404D01*
X51050057Y-66999404D02*
X51145295Y-67047023D01*
X51145295Y-67047023D02*
X51383390Y-67047023D01*
X51383390Y-67047023D02*
X51478628Y-66999404D01*
X51478628Y-66999404D02*
X51526247Y-66951785D01*
X51526247Y-66951785D02*
X51573866Y-66856547D01*
X51573866Y-66856547D02*
X51573866Y-66666071D01*
X51573866Y-66666071D02*
X51526247Y-66570833D01*
X51526247Y-66570833D02*
X51478628Y-66523214D01*
X51478628Y-66523214D02*
X51383390Y-66475595D01*
X45894642Y-67859580D02*
X45847023Y-67907200D01*
X45847023Y-67907200D02*
X45704166Y-67954819D01*
X45704166Y-67954819D02*
X45608928Y-67954819D01*
X45608928Y-67954819D02*
X45466071Y-67907200D01*
X45466071Y-67907200D02*
X45370833Y-67811961D01*
X45370833Y-67811961D02*
X45323214Y-67716723D01*
X45323214Y-67716723D02*
X45275595Y-67526247D01*
X45275595Y-67526247D02*
X45275595Y-67383390D01*
X45275595Y-67383390D02*
X45323214Y-67192914D01*
X45323214Y-67192914D02*
X45370833Y-67097676D01*
X45370833Y-67097676D02*
X45466071Y-67002438D01*
X45466071Y-67002438D02*
X45608928Y-66954819D01*
X45608928Y-66954819D02*
X45704166Y-66954819D01*
X45704166Y-66954819D02*
X45847023Y-67002438D01*
X45847023Y-67002438D02*
X45894642Y-67050057D01*
X46847023Y-67954819D02*
X46275595Y-67954819D01*
X46561309Y-67954819D02*
X46561309Y-66954819D01*
X46561309Y-66954819D02*
X46466071Y-67097676D01*
X46466071Y-67097676D02*
X46370833Y-67192914D01*
X46370833Y-67192914D02*
X46275595Y-67240533D01*
X47227976Y-67050057D02*
X47275595Y-67002438D01*
X47275595Y-67002438D02*
X47370833Y-66954819D01*
X47370833Y-66954819D02*
X47608928Y-66954819D01*
X47608928Y-66954819D02*
X47704166Y-67002438D01*
X47704166Y-67002438D02*
X47751785Y-67050057D01*
X47751785Y-67050057D02*
X47799404Y-67145295D01*
X47799404Y-67145295D02*
X47799404Y-67240533D01*
X47799404Y-67240533D02*
X47751785Y-67383390D01*
X47751785Y-67383390D02*
X47180357Y-67954819D01*
X47180357Y-67954819D02*
X47799404Y-67954819D01*
X83894642Y-69859580D02*
X83847023Y-69907200D01*
X83847023Y-69907200D02*
X83704166Y-69954819D01*
X83704166Y-69954819D02*
X83608928Y-69954819D01*
X83608928Y-69954819D02*
X83466071Y-69907200D01*
X83466071Y-69907200D02*
X83370833Y-69811961D01*
X83370833Y-69811961D02*
X83323214Y-69716723D01*
X83323214Y-69716723D02*
X83275595Y-69526247D01*
X83275595Y-69526247D02*
X83275595Y-69383390D01*
X83275595Y-69383390D02*
X83323214Y-69192914D01*
X83323214Y-69192914D02*
X83370833Y-69097676D01*
X83370833Y-69097676D02*
X83466071Y-69002438D01*
X83466071Y-69002438D02*
X83608928Y-68954819D01*
X83608928Y-68954819D02*
X83704166Y-68954819D01*
X83704166Y-68954819D02*
X83847023Y-69002438D01*
X83847023Y-69002438D02*
X83894642Y-69050057D01*
X84847023Y-69954819D02*
X84275595Y-69954819D01*
X84561309Y-69954819D02*
X84561309Y-68954819D01*
X84561309Y-68954819D02*
X84466071Y-69097676D01*
X84466071Y-69097676D02*
X84370833Y-69192914D01*
X84370833Y-69192914D02*
X84275595Y-69240533D01*
X85704166Y-69288152D02*
X85704166Y-69954819D01*
X85466071Y-68907200D02*
X85227976Y-69621485D01*
X85227976Y-69621485D02*
X85847023Y-69621485D01*
X102894642Y-71859580D02*
X102847023Y-71907200D01*
X102847023Y-71907200D02*
X102704166Y-71954819D01*
X102704166Y-71954819D02*
X102608928Y-71954819D01*
X102608928Y-71954819D02*
X102466071Y-71907200D01*
X102466071Y-71907200D02*
X102370833Y-71811961D01*
X102370833Y-71811961D02*
X102323214Y-71716723D01*
X102323214Y-71716723D02*
X102275595Y-71526247D01*
X102275595Y-71526247D02*
X102275595Y-71383390D01*
X102275595Y-71383390D02*
X102323214Y-71192914D01*
X102323214Y-71192914D02*
X102370833Y-71097676D01*
X102370833Y-71097676D02*
X102466071Y-71002438D01*
X102466071Y-71002438D02*
X102608928Y-70954819D01*
X102608928Y-70954819D02*
X102704166Y-70954819D01*
X102704166Y-70954819D02*
X102847023Y-71002438D01*
X102847023Y-71002438D02*
X102894642Y-71050057D01*
X103847023Y-71954819D02*
X103275595Y-71954819D01*
X103561309Y-71954819D02*
X103561309Y-70954819D01*
X103561309Y-70954819D02*
X103466071Y-71097676D01*
X103466071Y-71097676D02*
X103370833Y-71192914D01*
X103370833Y-71192914D02*
X103275595Y-71240533D01*
X104751785Y-70954819D02*
X104275595Y-70954819D01*
X104275595Y-70954819D02*
X104227976Y-71431009D01*
X104227976Y-71431009D02*
X104275595Y-71383390D01*
X104275595Y-71383390D02*
X104370833Y-71335771D01*
X104370833Y-71335771D02*
X104608928Y-71335771D01*
X104608928Y-71335771D02*
X104704166Y-71383390D01*
X104704166Y-71383390D02*
X104751785Y-71431009D01*
X104751785Y-71431009D02*
X104799404Y-71526247D01*
X104799404Y-71526247D02*
X104799404Y-71764342D01*
X104799404Y-71764342D02*
X104751785Y-71859580D01*
X104751785Y-71859580D02*
X104704166Y-71907200D01*
X104704166Y-71907200D02*
X104608928Y-71954819D01*
X104608928Y-71954819D02*
X104370833Y-71954819D01*
X104370833Y-71954819D02*
X104275595Y-71907200D01*
X104275595Y-71907200D02*
X104227976Y-71859580D01*
X64894642Y-64859580D02*
X64847023Y-64907200D01*
X64847023Y-64907200D02*
X64704166Y-64954819D01*
X64704166Y-64954819D02*
X64608928Y-64954819D01*
X64608928Y-64954819D02*
X64466071Y-64907200D01*
X64466071Y-64907200D02*
X64370833Y-64811961D01*
X64370833Y-64811961D02*
X64323214Y-64716723D01*
X64323214Y-64716723D02*
X64275595Y-64526247D01*
X64275595Y-64526247D02*
X64275595Y-64383390D01*
X64275595Y-64383390D02*
X64323214Y-64192914D01*
X64323214Y-64192914D02*
X64370833Y-64097676D01*
X64370833Y-64097676D02*
X64466071Y-64002438D01*
X64466071Y-64002438D02*
X64608928Y-63954819D01*
X64608928Y-63954819D02*
X64704166Y-63954819D01*
X64704166Y-63954819D02*
X64847023Y-64002438D01*
X64847023Y-64002438D02*
X64894642Y-64050057D01*
X65847023Y-64954819D02*
X65275595Y-64954819D01*
X65561309Y-64954819D02*
X65561309Y-63954819D01*
X65561309Y-63954819D02*
X65466071Y-64097676D01*
X65466071Y-64097676D02*
X65370833Y-64192914D01*
X65370833Y-64192914D02*
X65275595Y-64240533D01*
X66180357Y-63954819D02*
X66799404Y-63954819D01*
X66799404Y-63954819D02*
X66466071Y-64335771D01*
X66466071Y-64335771D02*
X66608928Y-64335771D01*
X66608928Y-64335771D02*
X66704166Y-64383390D01*
X66704166Y-64383390D02*
X66751785Y-64431009D01*
X66751785Y-64431009D02*
X66799404Y-64526247D01*
X66799404Y-64526247D02*
X66799404Y-64764342D01*
X66799404Y-64764342D02*
X66751785Y-64859580D01*
X66751785Y-64859580D02*
X66704166Y-64907200D01*
X66704166Y-64907200D02*
X66608928Y-64954819D01*
X66608928Y-64954819D02*
X66323214Y-64954819D01*
X66323214Y-64954819D02*
X66227976Y-64907200D01*
X66227976Y-64907200D02*
X66180357Y-64859580D01*
X80859580Y-72442857D02*
X80907200Y-72490476D01*
X80907200Y-72490476D02*
X80954819Y-72633333D01*
X80954819Y-72633333D02*
X80954819Y-72728571D01*
X80954819Y-72728571D02*
X80907200Y-72871428D01*
X80907200Y-72871428D02*
X80811961Y-72966666D01*
X80811961Y-72966666D02*
X80716723Y-73014285D01*
X80716723Y-73014285D02*
X80526247Y-73061904D01*
X80526247Y-73061904D02*
X80383390Y-73061904D01*
X80383390Y-73061904D02*
X80192914Y-73014285D01*
X80192914Y-73014285D02*
X80097676Y-72966666D01*
X80097676Y-72966666D02*
X80002438Y-72871428D01*
X80002438Y-72871428D02*
X79954819Y-72728571D01*
X79954819Y-72728571D02*
X79954819Y-72633333D01*
X79954819Y-72633333D02*
X80002438Y-72490476D01*
X80002438Y-72490476D02*
X80050057Y-72442857D01*
X80050057Y-72061904D02*
X80002438Y-72014285D01*
X80002438Y-72014285D02*
X79954819Y-71919047D01*
X79954819Y-71919047D02*
X79954819Y-71680952D01*
X79954819Y-71680952D02*
X80002438Y-71585714D01*
X80002438Y-71585714D02*
X80050057Y-71538095D01*
X80050057Y-71538095D02*
X80145295Y-71490476D01*
X80145295Y-71490476D02*
X80240533Y-71490476D01*
X80240533Y-71490476D02*
X80383390Y-71538095D01*
X80383390Y-71538095D02*
X80954819Y-72109523D01*
X80954819Y-72109523D02*
X80954819Y-71490476D01*
X80954819Y-70538095D02*
X80954819Y-71109523D01*
X80954819Y-70823809D02*
X79954819Y-70823809D01*
X79954819Y-70823809D02*
X80097676Y-70919047D01*
X80097676Y-70919047D02*
X80192914Y-71014285D01*
X80192914Y-71014285D02*
X80240533Y-71109523D01*
X84333333Y-31859580D02*
X84285714Y-31907200D01*
X84285714Y-31907200D02*
X84142857Y-31954819D01*
X84142857Y-31954819D02*
X84047619Y-31954819D01*
X84047619Y-31954819D02*
X83904762Y-31907200D01*
X83904762Y-31907200D02*
X83809524Y-31811961D01*
X83809524Y-31811961D02*
X83761905Y-31716723D01*
X83761905Y-31716723D02*
X83714286Y-31526247D01*
X83714286Y-31526247D02*
X83714286Y-31383390D01*
X83714286Y-31383390D02*
X83761905Y-31192914D01*
X83761905Y-31192914D02*
X83809524Y-31097676D01*
X83809524Y-31097676D02*
X83904762Y-31002438D01*
X83904762Y-31002438D02*
X84047619Y-30954819D01*
X84047619Y-30954819D02*
X84142857Y-30954819D01*
X84142857Y-30954819D02*
X84285714Y-31002438D01*
X84285714Y-31002438D02*
X84333333Y-31050057D01*
X85190476Y-31288152D02*
X85190476Y-31954819D01*
X84952381Y-30907200D02*
X84714286Y-31621485D01*
X84714286Y-31621485D02*
X85333333Y-31621485D01*
X84333333Y-50859580D02*
X84285714Y-50907200D01*
X84285714Y-50907200D02*
X84142857Y-50954819D01*
X84142857Y-50954819D02*
X84047619Y-50954819D01*
X84047619Y-50954819D02*
X83904762Y-50907200D01*
X83904762Y-50907200D02*
X83809524Y-50811961D01*
X83809524Y-50811961D02*
X83761905Y-50716723D01*
X83761905Y-50716723D02*
X83714286Y-50526247D01*
X83714286Y-50526247D02*
X83714286Y-50383390D01*
X83714286Y-50383390D02*
X83761905Y-50192914D01*
X83761905Y-50192914D02*
X83809524Y-50097676D01*
X83809524Y-50097676D02*
X83904762Y-50002438D01*
X83904762Y-50002438D02*
X84047619Y-49954819D01*
X84047619Y-49954819D02*
X84142857Y-49954819D01*
X84142857Y-49954819D02*
X84285714Y-50002438D01*
X84285714Y-50002438D02*
X84333333Y-50050057D01*
X84809524Y-50954819D02*
X85000000Y-50954819D01*
X85000000Y-50954819D02*
X85095238Y-50907200D01*
X85095238Y-50907200D02*
X85142857Y-50859580D01*
X85142857Y-50859580D02*
X85238095Y-50716723D01*
X85238095Y-50716723D02*
X85285714Y-50526247D01*
X85285714Y-50526247D02*
X85285714Y-50145295D01*
X85285714Y-50145295D02*
X85238095Y-50050057D01*
X85238095Y-50050057D02*
X85190476Y-50002438D01*
X85190476Y-50002438D02*
X85095238Y-49954819D01*
X85095238Y-49954819D02*
X84904762Y-49954819D01*
X84904762Y-49954819D02*
X84809524Y-50002438D01*
X84809524Y-50002438D02*
X84761905Y-50050057D01*
X84761905Y-50050057D02*
X84714286Y-50145295D01*
X84714286Y-50145295D02*
X84714286Y-50383390D01*
X84714286Y-50383390D02*
X84761905Y-50478628D01*
X84761905Y-50478628D02*
X84809524Y-50526247D01*
X84809524Y-50526247D02*
X84904762Y-50573866D01*
X84904762Y-50573866D02*
X85095238Y-50573866D01*
X85095238Y-50573866D02*
X85190476Y-50526247D01*
X85190476Y-50526247D02*
X85238095Y-50478628D01*
X85238095Y-50478628D02*
X85285714Y-50383390D01*
X112894642Y-100859580D02*
X112847023Y-100907200D01*
X112847023Y-100907200D02*
X112704166Y-100954819D01*
X112704166Y-100954819D02*
X112608928Y-100954819D01*
X112608928Y-100954819D02*
X112466071Y-100907200D01*
X112466071Y-100907200D02*
X112370833Y-100811961D01*
X112370833Y-100811961D02*
X112323214Y-100716723D01*
X112323214Y-100716723D02*
X112275595Y-100526247D01*
X112275595Y-100526247D02*
X112275595Y-100383390D01*
X112275595Y-100383390D02*
X112323214Y-100192914D01*
X112323214Y-100192914D02*
X112370833Y-100097676D01*
X112370833Y-100097676D02*
X112466071Y-100002438D01*
X112466071Y-100002438D02*
X112608928Y-99954819D01*
X112608928Y-99954819D02*
X112704166Y-99954819D01*
X112704166Y-99954819D02*
X112847023Y-100002438D01*
X112847023Y-100002438D02*
X112894642Y-100050057D01*
X113847023Y-100954819D02*
X113275595Y-100954819D01*
X113561309Y-100954819D02*
X113561309Y-99954819D01*
X113561309Y-99954819D02*
X113466071Y-100097676D01*
X113466071Y-100097676D02*
X113370833Y-100192914D01*
X113370833Y-100192914D02*
X113275595Y-100240533D01*
X114418452Y-100383390D02*
X114323214Y-100335771D01*
X114323214Y-100335771D02*
X114275595Y-100288152D01*
X114275595Y-100288152D02*
X114227976Y-100192914D01*
X114227976Y-100192914D02*
X114227976Y-100145295D01*
X114227976Y-100145295D02*
X114275595Y-100050057D01*
X114275595Y-100050057D02*
X114323214Y-100002438D01*
X114323214Y-100002438D02*
X114418452Y-99954819D01*
X114418452Y-99954819D02*
X114608928Y-99954819D01*
X114608928Y-99954819D02*
X114704166Y-100002438D01*
X114704166Y-100002438D02*
X114751785Y-100050057D01*
X114751785Y-100050057D02*
X114799404Y-100145295D01*
X114799404Y-100145295D02*
X114799404Y-100192914D01*
X114799404Y-100192914D02*
X114751785Y-100288152D01*
X114751785Y-100288152D02*
X114704166Y-100335771D01*
X114704166Y-100335771D02*
X114608928Y-100383390D01*
X114608928Y-100383390D02*
X114418452Y-100383390D01*
X114418452Y-100383390D02*
X114323214Y-100431009D01*
X114323214Y-100431009D02*
X114275595Y-100478628D01*
X114275595Y-100478628D02*
X114227976Y-100573866D01*
X114227976Y-100573866D02*
X114227976Y-100764342D01*
X114227976Y-100764342D02*
X114275595Y-100859580D01*
X114275595Y-100859580D02*
X114323214Y-100907200D01*
X114323214Y-100907200D02*
X114418452Y-100954819D01*
X114418452Y-100954819D02*
X114608928Y-100954819D01*
X114608928Y-100954819D02*
X114704166Y-100907200D01*
X114704166Y-100907200D02*
X114751785Y-100859580D01*
X114751785Y-100859580D02*
X114799404Y-100764342D01*
X114799404Y-100764342D02*
X114799404Y-100573866D01*
X114799404Y-100573866D02*
X114751785Y-100478628D01*
X114751785Y-100478628D02*
X114704166Y-100431009D01*
X114704166Y-100431009D02*
X114608928Y-100383390D01*
D14*
X36105743Y-51036688D02*
X36248600Y-51084307D01*
X36248600Y-51084307D02*
X36486695Y-51084307D01*
X36486695Y-51084307D02*
X36581933Y-51036688D01*
X36581933Y-51036688D02*
X36629552Y-50989068D01*
X36629552Y-50989068D02*
X36677171Y-50893830D01*
X36677171Y-50893830D02*
X36677171Y-50798592D01*
X36677171Y-50798592D02*
X36629552Y-50703354D01*
X36629552Y-50703354D02*
X36581933Y-50655735D01*
X36581933Y-50655735D02*
X36486695Y-50608116D01*
X36486695Y-50608116D02*
X36296219Y-50560497D01*
X36296219Y-50560497D02*
X36200981Y-50512878D01*
X36200981Y-50512878D02*
X36153362Y-50465259D01*
X36153362Y-50465259D02*
X36105743Y-50370021D01*
X36105743Y-50370021D02*
X36105743Y-50274783D01*
X36105743Y-50274783D02*
X36153362Y-50179545D01*
X36153362Y-50179545D02*
X36200981Y-50131926D01*
X36200981Y-50131926D02*
X36296219Y-50084307D01*
X36296219Y-50084307D02*
X36534314Y-50084307D01*
X36534314Y-50084307D02*
X36677171Y-50131926D01*
X37010505Y-50084307D02*
X37248600Y-51084307D01*
X37248600Y-51084307D02*
X37439076Y-50370021D01*
X37439076Y-50370021D02*
X37629552Y-51084307D01*
X37629552Y-51084307D02*
X37867648Y-50084307D01*
X38153362Y-50084307D02*
X38820028Y-50084307D01*
X38820028Y-50084307D02*
X38391457Y-51084307D01*
X74105739Y-34036680D02*
X74248596Y-34084299D01*
X74248596Y-34084299D02*
X74486691Y-34084299D01*
X74486691Y-34084299D02*
X74581929Y-34036680D01*
X74581929Y-34036680D02*
X74629548Y-33989060D01*
X74629548Y-33989060D02*
X74677167Y-33893822D01*
X74677167Y-33893822D02*
X74677167Y-33798584D01*
X74677167Y-33798584D02*
X74629548Y-33703346D01*
X74629548Y-33703346D02*
X74581929Y-33655727D01*
X74581929Y-33655727D02*
X74486691Y-33608108D01*
X74486691Y-33608108D02*
X74296215Y-33560489D01*
X74296215Y-33560489D02*
X74200977Y-33512870D01*
X74200977Y-33512870D02*
X74153358Y-33465251D01*
X74153358Y-33465251D02*
X74105739Y-33370013D01*
X74105739Y-33370013D02*
X74105739Y-33274775D01*
X74105739Y-33274775D02*
X74153358Y-33179537D01*
X74153358Y-33179537D02*
X74200977Y-33131918D01*
X74200977Y-33131918D02*
X74296215Y-33084299D01*
X74296215Y-33084299D02*
X74534310Y-33084299D01*
X74534310Y-33084299D02*
X74677167Y-33131918D01*
X75010501Y-33084299D02*
X75248596Y-34084299D01*
X75248596Y-34084299D02*
X75439072Y-33370013D01*
X75439072Y-33370013D02*
X75629548Y-34084299D01*
X75629548Y-34084299D02*
X75867644Y-33084299D01*
X76677167Y-33417632D02*
X76677167Y-34084299D01*
X76439072Y-33036680D02*
X76200977Y-33750965D01*
X76200977Y-33750965D02*
X76820024Y-33750965D01*
X17105737Y-41036679D02*
X17248594Y-41084298D01*
X17248594Y-41084298D02*
X17486689Y-41084298D01*
X17486689Y-41084298D02*
X17581927Y-41036679D01*
X17581927Y-41036679D02*
X17629546Y-40989059D01*
X17629546Y-40989059D02*
X17677165Y-40893821D01*
X17677165Y-40893821D02*
X17677165Y-40798583D01*
X17677165Y-40798583D02*
X17629546Y-40703345D01*
X17629546Y-40703345D02*
X17581927Y-40655726D01*
X17581927Y-40655726D02*
X17486689Y-40608107D01*
X17486689Y-40608107D02*
X17296213Y-40560488D01*
X17296213Y-40560488D02*
X17200975Y-40512869D01*
X17200975Y-40512869D02*
X17153356Y-40465250D01*
X17153356Y-40465250D02*
X17105737Y-40370012D01*
X17105737Y-40370012D02*
X17105737Y-40274774D01*
X17105737Y-40274774D02*
X17153356Y-40179536D01*
X17153356Y-40179536D02*
X17200975Y-40131917D01*
X17200975Y-40131917D02*
X17296213Y-40084298D01*
X17296213Y-40084298D02*
X17534308Y-40084298D01*
X17534308Y-40084298D02*
X17677165Y-40131917D01*
X18010499Y-40084298D02*
X18248594Y-41084298D01*
X18248594Y-41084298D02*
X18439070Y-40370012D01*
X18439070Y-40370012D02*
X18629546Y-41084298D01*
X18629546Y-41084298D02*
X18867642Y-40084298D01*
X19772403Y-41084298D02*
X19200975Y-41084298D01*
X19486689Y-41084298D02*
X19486689Y-40084298D01*
X19486689Y-40084298D02*
X19391451Y-40227155D01*
X19391451Y-40227155D02*
X19296213Y-40322393D01*
X19296213Y-40322393D02*
X19200975Y-40370012D01*
X74105739Y-53036680D02*
X74248596Y-53084299D01*
X74248596Y-53084299D02*
X74486691Y-53084299D01*
X74486691Y-53084299D02*
X74581929Y-53036680D01*
X74581929Y-53036680D02*
X74629548Y-52989060D01*
X74629548Y-52989060D02*
X74677167Y-52893822D01*
X74677167Y-52893822D02*
X74677167Y-52798584D01*
X74677167Y-52798584D02*
X74629548Y-52703346D01*
X74629548Y-52703346D02*
X74581929Y-52655727D01*
X74581929Y-52655727D02*
X74486691Y-52608108D01*
X74486691Y-52608108D02*
X74296215Y-52560489D01*
X74296215Y-52560489D02*
X74200977Y-52512870D01*
X74200977Y-52512870D02*
X74153358Y-52465251D01*
X74153358Y-52465251D02*
X74105739Y-52370013D01*
X74105739Y-52370013D02*
X74105739Y-52274775D01*
X74105739Y-52274775D02*
X74153358Y-52179537D01*
X74153358Y-52179537D02*
X74200977Y-52131918D01*
X74200977Y-52131918D02*
X74296215Y-52084299D01*
X74296215Y-52084299D02*
X74534310Y-52084299D01*
X74534310Y-52084299D02*
X74677167Y-52131918D01*
X75010501Y-52084299D02*
X75248596Y-53084299D01*
X75248596Y-53084299D02*
X75439072Y-52370013D01*
X75439072Y-52370013D02*
X75629548Y-53084299D01*
X75629548Y-53084299D02*
X75867644Y-52084299D01*
X76296215Y-53084299D02*
X76486691Y-53084299D01*
X76486691Y-53084299D02*
X76581929Y-53036680D01*
X76581929Y-53036680D02*
X76629548Y-52989060D01*
X76629548Y-52989060D02*
X76724786Y-52846203D01*
X76724786Y-52846203D02*
X76772405Y-52655727D01*
X76772405Y-52655727D02*
X76772405Y-52274775D01*
X76772405Y-52274775D02*
X76724786Y-52179537D01*
X76724786Y-52179537D02*
X76677167Y-52131918D01*
X76677167Y-52131918D02*
X76581929Y-52084299D01*
X76581929Y-52084299D02*
X76391453Y-52084299D01*
X76391453Y-52084299D02*
X76296215Y-52131918D01*
X76296215Y-52131918D02*
X76248596Y-52179537D01*
X76248596Y-52179537D02*
X76200977Y-52274775D01*
X76200977Y-52274775D02*
X76200977Y-52512870D01*
X76200977Y-52512870D02*
X76248596Y-52608108D01*
X76248596Y-52608108D02*
X76296215Y-52655727D01*
X76296215Y-52655727D02*
X76391453Y-52703346D01*
X76391453Y-52703346D02*
X76581929Y-52703346D01*
X76581929Y-52703346D02*
X76677167Y-52655727D01*
X76677167Y-52655727D02*
X76724786Y-52608108D01*
X76724786Y-52608108D02*
X76772405Y-52512870D01*
X93105739Y-55036680D02*
X93248596Y-55084299D01*
X93248596Y-55084299D02*
X93486691Y-55084299D01*
X93486691Y-55084299D02*
X93581929Y-55036680D01*
X93581929Y-55036680D02*
X93629548Y-54989060D01*
X93629548Y-54989060D02*
X93677167Y-54893822D01*
X93677167Y-54893822D02*
X93677167Y-54798584D01*
X93677167Y-54798584D02*
X93629548Y-54703346D01*
X93629548Y-54703346D02*
X93581929Y-54655727D01*
X93581929Y-54655727D02*
X93486691Y-54608108D01*
X93486691Y-54608108D02*
X93296215Y-54560489D01*
X93296215Y-54560489D02*
X93200977Y-54512870D01*
X93200977Y-54512870D02*
X93153358Y-54465251D01*
X93153358Y-54465251D02*
X93105739Y-54370013D01*
X93105739Y-54370013D02*
X93105739Y-54274775D01*
X93105739Y-54274775D02*
X93153358Y-54179537D01*
X93153358Y-54179537D02*
X93200977Y-54131918D01*
X93200977Y-54131918D02*
X93296215Y-54084299D01*
X93296215Y-54084299D02*
X93534310Y-54084299D01*
X93534310Y-54084299D02*
X93677167Y-54131918D01*
X94010501Y-54084299D02*
X94248596Y-55084299D01*
X94248596Y-55084299D02*
X94439072Y-54370013D01*
X94439072Y-54370013D02*
X94629548Y-55084299D01*
X94629548Y-55084299D02*
X94867644Y-54084299D01*
X95772405Y-55084299D02*
X95200977Y-55084299D01*
X95486691Y-55084299D02*
X95486691Y-54084299D01*
X95486691Y-54084299D02*
X95391453Y-54227156D01*
X95391453Y-54227156D02*
X95296215Y-54322394D01*
X95296215Y-54322394D02*
X95200977Y-54370013D01*
X96391453Y-54084299D02*
X96486691Y-54084299D01*
X96486691Y-54084299D02*
X96581929Y-54131918D01*
X96581929Y-54131918D02*
X96629548Y-54179537D01*
X96629548Y-54179537D02*
X96677167Y-54274775D01*
X96677167Y-54274775D02*
X96724786Y-54465251D01*
X96724786Y-54465251D02*
X96724786Y-54703346D01*
X96724786Y-54703346D02*
X96677167Y-54893822D01*
X96677167Y-54893822D02*
X96629548Y-54989060D01*
X96629548Y-54989060D02*
X96581929Y-55036680D01*
X96581929Y-55036680D02*
X96486691Y-55084299D01*
X96486691Y-55084299D02*
X96391453Y-55084299D01*
X96391453Y-55084299D02*
X96296215Y-55036680D01*
X96296215Y-55036680D02*
X96248596Y-54989060D01*
X96248596Y-54989060D02*
X96200977Y-54893822D01*
X96200977Y-54893822D02*
X96153358Y-54703346D01*
X96153358Y-54703346D02*
X96153358Y-54465251D01*
X96153358Y-54465251D02*
X96200977Y-54274775D01*
X96200977Y-54274775D02*
X96248596Y-54179537D01*
X96248596Y-54179537D02*
X96296215Y-54131918D01*
X96296215Y-54131918D02*
X96391453Y-54084299D01*
X36105743Y-32036688D02*
X36248600Y-32084307D01*
X36248600Y-32084307D02*
X36486695Y-32084307D01*
X36486695Y-32084307D02*
X36581933Y-32036688D01*
X36581933Y-32036688D02*
X36629552Y-31989068D01*
X36629552Y-31989068D02*
X36677171Y-31893830D01*
X36677171Y-31893830D02*
X36677171Y-31798592D01*
X36677171Y-31798592D02*
X36629552Y-31703354D01*
X36629552Y-31703354D02*
X36581933Y-31655735D01*
X36581933Y-31655735D02*
X36486695Y-31608116D01*
X36486695Y-31608116D02*
X36296219Y-31560497D01*
X36296219Y-31560497D02*
X36200981Y-31512878D01*
X36200981Y-31512878D02*
X36153362Y-31465259D01*
X36153362Y-31465259D02*
X36105743Y-31370021D01*
X36105743Y-31370021D02*
X36105743Y-31274783D01*
X36105743Y-31274783D02*
X36153362Y-31179545D01*
X36153362Y-31179545D02*
X36200981Y-31131926D01*
X36200981Y-31131926D02*
X36296219Y-31084307D01*
X36296219Y-31084307D02*
X36534314Y-31084307D01*
X36534314Y-31084307D02*
X36677171Y-31131926D01*
X37010505Y-31084307D02*
X37248600Y-32084307D01*
X37248600Y-32084307D02*
X37439076Y-31370021D01*
X37439076Y-31370021D02*
X37629552Y-32084307D01*
X37629552Y-32084307D02*
X37867648Y-31084307D01*
X38200981Y-31179545D02*
X38248600Y-31131926D01*
X38248600Y-31131926D02*
X38343838Y-31084307D01*
X38343838Y-31084307D02*
X38581933Y-31084307D01*
X38581933Y-31084307D02*
X38677171Y-31131926D01*
X38677171Y-31131926D02*
X38724790Y-31179545D01*
X38724790Y-31179545D02*
X38772409Y-31274783D01*
X38772409Y-31274783D02*
X38772409Y-31370021D01*
X38772409Y-31370021D02*
X38724790Y-31512878D01*
X38724790Y-31512878D02*
X38153362Y-32084307D01*
X38153362Y-32084307D02*
X38772409Y-32084307D01*
X55105743Y-67036688D02*
X55248600Y-67084307D01*
X55248600Y-67084307D02*
X55486695Y-67084307D01*
X55486695Y-67084307D02*
X55581933Y-67036688D01*
X55581933Y-67036688D02*
X55629552Y-66989068D01*
X55629552Y-66989068D02*
X55677171Y-66893830D01*
X55677171Y-66893830D02*
X55677171Y-66798592D01*
X55677171Y-66798592D02*
X55629552Y-66703354D01*
X55629552Y-66703354D02*
X55581933Y-66655735D01*
X55581933Y-66655735D02*
X55486695Y-66608116D01*
X55486695Y-66608116D02*
X55296219Y-66560497D01*
X55296219Y-66560497D02*
X55200981Y-66512878D01*
X55200981Y-66512878D02*
X55153362Y-66465259D01*
X55153362Y-66465259D02*
X55105743Y-66370021D01*
X55105743Y-66370021D02*
X55105743Y-66274783D01*
X55105743Y-66274783D02*
X55153362Y-66179545D01*
X55153362Y-66179545D02*
X55200981Y-66131926D01*
X55200981Y-66131926D02*
X55296219Y-66084307D01*
X55296219Y-66084307D02*
X55534314Y-66084307D01*
X55534314Y-66084307D02*
X55677171Y-66131926D01*
X56010505Y-66084307D02*
X56248600Y-67084307D01*
X56248600Y-67084307D02*
X56439076Y-66370021D01*
X56439076Y-66370021D02*
X56629552Y-67084307D01*
X56629552Y-67084307D02*
X56867648Y-66084307D01*
X57772409Y-67084307D02*
X57200981Y-67084307D01*
X57486695Y-67084307D02*
X57486695Y-66084307D01*
X57486695Y-66084307D02*
X57391457Y-66227164D01*
X57391457Y-66227164D02*
X57296219Y-66322402D01*
X57296219Y-66322402D02*
X57200981Y-66370021D01*
X58105743Y-66084307D02*
X58724790Y-66084307D01*
X58724790Y-66084307D02*
X58391457Y-66465259D01*
X58391457Y-66465259D02*
X58534314Y-66465259D01*
X58534314Y-66465259D02*
X58629552Y-66512878D01*
X58629552Y-66512878D02*
X58677171Y-66560497D01*
X58677171Y-66560497D02*
X58724790Y-66655735D01*
X58724790Y-66655735D02*
X58724790Y-66893830D01*
X58724790Y-66893830D02*
X58677171Y-66989068D01*
X58677171Y-66989068D02*
X58629552Y-67036688D01*
X58629552Y-67036688D02*
X58534314Y-67084307D01*
X58534314Y-67084307D02*
X58248600Y-67084307D01*
X58248600Y-67084307D02*
X58153362Y-67036688D01*
X58153362Y-67036688D02*
X58105743Y-66989068D01*
X55105743Y-48036688D02*
X55248600Y-48084307D01*
X55248600Y-48084307D02*
X55486695Y-48084307D01*
X55486695Y-48084307D02*
X55581933Y-48036688D01*
X55581933Y-48036688D02*
X55629552Y-47989068D01*
X55629552Y-47989068D02*
X55677171Y-47893830D01*
X55677171Y-47893830D02*
X55677171Y-47798592D01*
X55677171Y-47798592D02*
X55629552Y-47703354D01*
X55629552Y-47703354D02*
X55581933Y-47655735D01*
X55581933Y-47655735D02*
X55486695Y-47608116D01*
X55486695Y-47608116D02*
X55296219Y-47560497D01*
X55296219Y-47560497D02*
X55200981Y-47512878D01*
X55200981Y-47512878D02*
X55153362Y-47465259D01*
X55153362Y-47465259D02*
X55105743Y-47370021D01*
X55105743Y-47370021D02*
X55105743Y-47274783D01*
X55105743Y-47274783D02*
X55153362Y-47179545D01*
X55153362Y-47179545D02*
X55200981Y-47131926D01*
X55200981Y-47131926D02*
X55296219Y-47084307D01*
X55296219Y-47084307D02*
X55534314Y-47084307D01*
X55534314Y-47084307D02*
X55677171Y-47131926D01*
X56010505Y-47084307D02*
X56248600Y-48084307D01*
X56248600Y-48084307D02*
X56439076Y-47370021D01*
X56439076Y-47370021D02*
X56629552Y-48084307D01*
X56629552Y-48084307D02*
X56867648Y-47084307D01*
X57391457Y-47512878D02*
X57296219Y-47465259D01*
X57296219Y-47465259D02*
X57248600Y-47417640D01*
X57248600Y-47417640D02*
X57200981Y-47322402D01*
X57200981Y-47322402D02*
X57200981Y-47274783D01*
X57200981Y-47274783D02*
X57248600Y-47179545D01*
X57248600Y-47179545D02*
X57296219Y-47131926D01*
X57296219Y-47131926D02*
X57391457Y-47084307D01*
X57391457Y-47084307D02*
X57581933Y-47084307D01*
X57581933Y-47084307D02*
X57677171Y-47131926D01*
X57677171Y-47131926D02*
X57724790Y-47179545D01*
X57724790Y-47179545D02*
X57772409Y-47274783D01*
X57772409Y-47274783D02*
X57772409Y-47322402D01*
X57772409Y-47322402D02*
X57724790Y-47417640D01*
X57724790Y-47417640D02*
X57677171Y-47465259D01*
X57677171Y-47465259D02*
X57581933Y-47512878D01*
X57581933Y-47512878D02*
X57391457Y-47512878D01*
X57391457Y-47512878D02*
X57296219Y-47560497D01*
X57296219Y-47560497D02*
X57248600Y-47608116D01*
X57248600Y-47608116D02*
X57200981Y-47703354D01*
X57200981Y-47703354D02*
X57200981Y-47893830D01*
X57200981Y-47893830D02*
X57248600Y-47989068D01*
X57248600Y-47989068D02*
X57296219Y-48036688D01*
X57296219Y-48036688D02*
X57391457Y-48084307D01*
X57391457Y-48084307D02*
X57581933Y-48084307D01*
X57581933Y-48084307D02*
X57677171Y-48036688D01*
X57677171Y-48036688D02*
X57724790Y-47989068D01*
X57724790Y-47989068D02*
X57772409Y-47893830D01*
X57772409Y-47893830D02*
X57772409Y-47703354D01*
X57772409Y-47703354D02*
X57724790Y-47608116D01*
X57724790Y-47608116D02*
X57677171Y-47560497D01*
X57677171Y-47560497D02*
X57581933Y-47512878D01*
X17105740Y-79036680D02*
X17248597Y-79084299D01*
X17248597Y-79084299D02*
X17486692Y-79084299D01*
X17486692Y-79084299D02*
X17581930Y-79036680D01*
X17581930Y-79036680D02*
X17629549Y-78989060D01*
X17629549Y-78989060D02*
X17677168Y-78893822D01*
X17677168Y-78893822D02*
X17677168Y-78798584D01*
X17677168Y-78798584D02*
X17629549Y-78703346D01*
X17629549Y-78703346D02*
X17581930Y-78655727D01*
X17581930Y-78655727D02*
X17486692Y-78608108D01*
X17486692Y-78608108D02*
X17296216Y-78560489D01*
X17296216Y-78560489D02*
X17200978Y-78512870D01*
X17200978Y-78512870D02*
X17153359Y-78465251D01*
X17153359Y-78465251D02*
X17105740Y-78370013D01*
X17105740Y-78370013D02*
X17105740Y-78274775D01*
X17105740Y-78274775D02*
X17153359Y-78179537D01*
X17153359Y-78179537D02*
X17200978Y-78131918D01*
X17200978Y-78131918D02*
X17296216Y-78084299D01*
X17296216Y-78084299D02*
X17534311Y-78084299D01*
X17534311Y-78084299D02*
X17677168Y-78131918D01*
X18010502Y-78084299D02*
X18248597Y-79084299D01*
X18248597Y-79084299D02*
X18439073Y-78370013D01*
X18439073Y-78370013D02*
X18629549Y-79084299D01*
X18629549Y-79084299D02*
X18867645Y-78084299D01*
X19772406Y-79084299D02*
X19200978Y-79084299D01*
X19486692Y-79084299D02*
X19486692Y-78084299D01*
X19486692Y-78084299D02*
X19391454Y-78227156D01*
X19391454Y-78227156D02*
X19296216Y-78322394D01*
X19296216Y-78322394D02*
X19200978Y-78370013D01*
X20724787Y-79084299D02*
X20153359Y-79084299D01*
X20439073Y-79084299D02*
X20439073Y-78084299D01*
X20439073Y-78084299D02*
X20343835Y-78227156D01*
X20343835Y-78227156D02*
X20248597Y-78322394D01*
X20248597Y-78322394D02*
X20153359Y-78370013D01*
X74105739Y-72036680D02*
X74248596Y-72084299D01*
X74248596Y-72084299D02*
X74486691Y-72084299D01*
X74486691Y-72084299D02*
X74581929Y-72036680D01*
X74581929Y-72036680D02*
X74629548Y-71989060D01*
X74629548Y-71989060D02*
X74677167Y-71893822D01*
X74677167Y-71893822D02*
X74677167Y-71798584D01*
X74677167Y-71798584D02*
X74629548Y-71703346D01*
X74629548Y-71703346D02*
X74581929Y-71655727D01*
X74581929Y-71655727D02*
X74486691Y-71608108D01*
X74486691Y-71608108D02*
X74296215Y-71560489D01*
X74296215Y-71560489D02*
X74200977Y-71512870D01*
X74200977Y-71512870D02*
X74153358Y-71465251D01*
X74153358Y-71465251D02*
X74105739Y-71370013D01*
X74105739Y-71370013D02*
X74105739Y-71274775D01*
X74105739Y-71274775D02*
X74153358Y-71179537D01*
X74153358Y-71179537D02*
X74200977Y-71131918D01*
X74200977Y-71131918D02*
X74296215Y-71084299D01*
X74296215Y-71084299D02*
X74534310Y-71084299D01*
X74534310Y-71084299D02*
X74677167Y-71131918D01*
X75010501Y-71084299D02*
X75248596Y-72084299D01*
X75248596Y-72084299D02*
X75439072Y-71370013D01*
X75439072Y-71370013D02*
X75629548Y-72084299D01*
X75629548Y-72084299D02*
X75867644Y-71084299D01*
X76772405Y-72084299D02*
X76200977Y-72084299D01*
X76486691Y-72084299D02*
X76486691Y-71084299D01*
X76486691Y-71084299D02*
X76391453Y-71227156D01*
X76391453Y-71227156D02*
X76296215Y-71322394D01*
X76296215Y-71322394D02*
X76200977Y-71370013D01*
X77629548Y-71417632D02*
X77629548Y-72084299D01*
X77391453Y-71036680D02*
X77153358Y-71750965D01*
X77153358Y-71750965D02*
X77772405Y-71750965D01*
X93105739Y-36036680D02*
X93248596Y-36084299D01*
X93248596Y-36084299D02*
X93486691Y-36084299D01*
X93486691Y-36084299D02*
X93581929Y-36036680D01*
X93581929Y-36036680D02*
X93629548Y-35989060D01*
X93629548Y-35989060D02*
X93677167Y-35893822D01*
X93677167Y-35893822D02*
X93677167Y-35798584D01*
X93677167Y-35798584D02*
X93629548Y-35703346D01*
X93629548Y-35703346D02*
X93581929Y-35655727D01*
X93581929Y-35655727D02*
X93486691Y-35608108D01*
X93486691Y-35608108D02*
X93296215Y-35560489D01*
X93296215Y-35560489D02*
X93200977Y-35512870D01*
X93200977Y-35512870D02*
X93153358Y-35465251D01*
X93153358Y-35465251D02*
X93105739Y-35370013D01*
X93105739Y-35370013D02*
X93105739Y-35274775D01*
X93105739Y-35274775D02*
X93153358Y-35179537D01*
X93153358Y-35179537D02*
X93200977Y-35131918D01*
X93200977Y-35131918D02*
X93296215Y-35084299D01*
X93296215Y-35084299D02*
X93534310Y-35084299D01*
X93534310Y-35084299D02*
X93677167Y-35131918D01*
X94010501Y-35084299D02*
X94248596Y-36084299D01*
X94248596Y-36084299D02*
X94439072Y-35370013D01*
X94439072Y-35370013D02*
X94629548Y-36084299D01*
X94629548Y-36084299D02*
X94867644Y-35084299D01*
X95724786Y-35084299D02*
X95248596Y-35084299D01*
X95248596Y-35084299D02*
X95200977Y-35560489D01*
X95200977Y-35560489D02*
X95248596Y-35512870D01*
X95248596Y-35512870D02*
X95343834Y-35465251D01*
X95343834Y-35465251D02*
X95581929Y-35465251D01*
X95581929Y-35465251D02*
X95677167Y-35512870D01*
X95677167Y-35512870D02*
X95724786Y-35560489D01*
X95724786Y-35560489D02*
X95772405Y-35655727D01*
X95772405Y-35655727D02*
X95772405Y-35893822D01*
X95772405Y-35893822D02*
X95724786Y-35989060D01*
X95724786Y-35989060D02*
X95677167Y-36036680D01*
X95677167Y-36036680D02*
X95581929Y-36084299D01*
X95581929Y-36084299D02*
X95343834Y-36084299D01*
X95343834Y-36084299D02*
X95248596Y-36036680D01*
X95248596Y-36036680D02*
X95200977Y-35989060D01*
X93105739Y-74036680D02*
X93248596Y-74084299D01*
X93248596Y-74084299D02*
X93486691Y-74084299D01*
X93486691Y-74084299D02*
X93581929Y-74036680D01*
X93581929Y-74036680D02*
X93629548Y-73989060D01*
X93629548Y-73989060D02*
X93677167Y-73893822D01*
X93677167Y-73893822D02*
X93677167Y-73798584D01*
X93677167Y-73798584D02*
X93629548Y-73703346D01*
X93629548Y-73703346D02*
X93581929Y-73655727D01*
X93581929Y-73655727D02*
X93486691Y-73608108D01*
X93486691Y-73608108D02*
X93296215Y-73560489D01*
X93296215Y-73560489D02*
X93200977Y-73512870D01*
X93200977Y-73512870D02*
X93153358Y-73465251D01*
X93153358Y-73465251D02*
X93105739Y-73370013D01*
X93105739Y-73370013D02*
X93105739Y-73274775D01*
X93105739Y-73274775D02*
X93153358Y-73179537D01*
X93153358Y-73179537D02*
X93200977Y-73131918D01*
X93200977Y-73131918D02*
X93296215Y-73084299D01*
X93296215Y-73084299D02*
X93534310Y-73084299D01*
X93534310Y-73084299D02*
X93677167Y-73131918D01*
X94010501Y-73084299D02*
X94248596Y-74084299D01*
X94248596Y-74084299D02*
X94439072Y-73370013D01*
X94439072Y-73370013D02*
X94629548Y-74084299D01*
X94629548Y-74084299D02*
X94867644Y-73084299D01*
X95772405Y-74084299D02*
X95200977Y-74084299D01*
X95486691Y-74084299D02*
X95486691Y-73084299D01*
X95486691Y-73084299D02*
X95391453Y-73227156D01*
X95391453Y-73227156D02*
X95296215Y-73322394D01*
X95296215Y-73322394D02*
X95200977Y-73370013D01*
X96677167Y-73084299D02*
X96200977Y-73084299D01*
X96200977Y-73084299D02*
X96153358Y-73560489D01*
X96153358Y-73560489D02*
X96200977Y-73512870D01*
X96200977Y-73512870D02*
X96296215Y-73465251D01*
X96296215Y-73465251D02*
X96534310Y-73465251D01*
X96534310Y-73465251D02*
X96629548Y-73512870D01*
X96629548Y-73512870D02*
X96677167Y-73560489D01*
X96677167Y-73560489D02*
X96724786Y-73655727D01*
X96724786Y-73655727D02*
X96724786Y-73893822D01*
X96724786Y-73893822D02*
X96677167Y-73989060D01*
X96677167Y-73989060D02*
X96629548Y-74036680D01*
X96629548Y-74036680D02*
X96534310Y-74084299D01*
X96534310Y-74084299D02*
X96296215Y-74084299D01*
X96296215Y-74084299D02*
X96200977Y-74036680D01*
X96200977Y-74036680D02*
X96153358Y-73989060D01*
X65105739Y-98036680D02*
X65248596Y-98084299D01*
X65248596Y-98084299D02*
X65486691Y-98084299D01*
X65486691Y-98084299D02*
X65581929Y-98036680D01*
X65581929Y-98036680D02*
X65629548Y-97989060D01*
X65629548Y-97989060D02*
X65677167Y-97893822D01*
X65677167Y-97893822D02*
X65677167Y-97798584D01*
X65677167Y-97798584D02*
X65629548Y-97703346D01*
X65629548Y-97703346D02*
X65581929Y-97655727D01*
X65581929Y-97655727D02*
X65486691Y-97608108D01*
X65486691Y-97608108D02*
X65296215Y-97560489D01*
X65296215Y-97560489D02*
X65200977Y-97512870D01*
X65200977Y-97512870D02*
X65153358Y-97465251D01*
X65153358Y-97465251D02*
X65105739Y-97370013D01*
X65105739Y-97370013D02*
X65105739Y-97274775D01*
X65105739Y-97274775D02*
X65153358Y-97179537D01*
X65153358Y-97179537D02*
X65200977Y-97131918D01*
X65200977Y-97131918D02*
X65296215Y-97084299D01*
X65296215Y-97084299D02*
X65534310Y-97084299D01*
X65534310Y-97084299D02*
X65677167Y-97131918D01*
X66010501Y-97084299D02*
X66248596Y-98084299D01*
X66248596Y-98084299D02*
X66439072Y-97370013D01*
X66439072Y-97370013D02*
X66629548Y-98084299D01*
X66629548Y-98084299D02*
X66867644Y-97084299D01*
X67772405Y-98084299D02*
X67200977Y-98084299D01*
X67486691Y-98084299D02*
X67486691Y-97084299D01*
X67486691Y-97084299D02*
X67391453Y-97227156D01*
X67391453Y-97227156D02*
X67296215Y-97322394D01*
X67296215Y-97322394D02*
X67200977Y-97370013D01*
X68629548Y-97084299D02*
X68439072Y-97084299D01*
X68439072Y-97084299D02*
X68343834Y-97131918D01*
X68343834Y-97131918D02*
X68296215Y-97179537D01*
X68296215Y-97179537D02*
X68200977Y-97322394D01*
X68200977Y-97322394D02*
X68153358Y-97512870D01*
X68153358Y-97512870D02*
X68153358Y-97893822D01*
X68153358Y-97893822D02*
X68200977Y-97989060D01*
X68200977Y-97989060D02*
X68248596Y-98036680D01*
X68248596Y-98036680D02*
X68343834Y-98084299D01*
X68343834Y-98084299D02*
X68534310Y-98084299D01*
X68534310Y-98084299D02*
X68629548Y-98036680D01*
X68629548Y-98036680D02*
X68677167Y-97989060D01*
X68677167Y-97989060D02*
X68724786Y-97893822D01*
X68724786Y-97893822D02*
X68724786Y-97655727D01*
X68724786Y-97655727D02*
X68677167Y-97560489D01*
X68677167Y-97560489D02*
X68629548Y-97512870D01*
X68629548Y-97512870D02*
X68534310Y-97465251D01*
X68534310Y-97465251D02*
X68343834Y-97465251D01*
X68343834Y-97465251D02*
X68248596Y-97512870D01*
X68248596Y-97512870D02*
X68200977Y-97560489D01*
X68200977Y-97560489D02*
X68153358Y-97655727D01*
X17105739Y-60036680D02*
X17248596Y-60084299D01*
X17248596Y-60084299D02*
X17486691Y-60084299D01*
X17486691Y-60084299D02*
X17581929Y-60036680D01*
X17581929Y-60036680D02*
X17629548Y-59989060D01*
X17629548Y-59989060D02*
X17677167Y-59893822D01*
X17677167Y-59893822D02*
X17677167Y-59798584D01*
X17677167Y-59798584D02*
X17629548Y-59703346D01*
X17629548Y-59703346D02*
X17581929Y-59655727D01*
X17581929Y-59655727D02*
X17486691Y-59608108D01*
X17486691Y-59608108D02*
X17296215Y-59560489D01*
X17296215Y-59560489D02*
X17200977Y-59512870D01*
X17200977Y-59512870D02*
X17153358Y-59465251D01*
X17153358Y-59465251D02*
X17105739Y-59370013D01*
X17105739Y-59370013D02*
X17105739Y-59274775D01*
X17105739Y-59274775D02*
X17153358Y-59179537D01*
X17153358Y-59179537D02*
X17200977Y-59131918D01*
X17200977Y-59131918D02*
X17296215Y-59084299D01*
X17296215Y-59084299D02*
X17534310Y-59084299D01*
X17534310Y-59084299D02*
X17677167Y-59131918D01*
X18010501Y-59084299D02*
X18248596Y-60084299D01*
X18248596Y-60084299D02*
X18439072Y-59370013D01*
X18439072Y-59370013D02*
X18629548Y-60084299D01*
X18629548Y-60084299D02*
X18867644Y-59084299D01*
X19677167Y-59084299D02*
X19486691Y-59084299D01*
X19486691Y-59084299D02*
X19391453Y-59131918D01*
X19391453Y-59131918D02*
X19343834Y-59179537D01*
X19343834Y-59179537D02*
X19248596Y-59322394D01*
X19248596Y-59322394D02*
X19200977Y-59512870D01*
X19200977Y-59512870D02*
X19200977Y-59893822D01*
X19200977Y-59893822D02*
X19248596Y-59989060D01*
X19248596Y-59989060D02*
X19296215Y-60036680D01*
X19296215Y-60036680D02*
X19391453Y-60084299D01*
X19391453Y-60084299D02*
X19581929Y-60084299D01*
X19581929Y-60084299D02*
X19677167Y-60036680D01*
X19677167Y-60036680D02*
X19724786Y-59989060D01*
X19724786Y-59989060D02*
X19772405Y-59893822D01*
X19772405Y-59893822D02*
X19772405Y-59655727D01*
X19772405Y-59655727D02*
X19724786Y-59560489D01*
X19724786Y-59560489D02*
X19677167Y-59512870D01*
X19677167Y-59512870D02*
X19581929Y-59465251D01*
X19581929Y-59465251D02*
X19391453Y-59465251D01*
X19391453Y-59465251D02*
X19296215Y-59512870D01*
X19296215Y-59512870D02*
X19248596Y-59560489D01*
X19248596Y-59560489D02*
X19200977Y-59655727D01*
X36105743Y-70036688D02*
X36248600Y-70084307D01*
X36248600Y-70084307D02*
X36486695Y-70084307D01*
X36486695Y-70084307D02*
X36581933Y-70036688D01*
X36581933Y-70036688D02*
X36629552Y-69989068D01*
X36629552Y-69989068D02*
X36677171Y-69893830D01*
X36677171Y-69893830D02*
X36677171Y-69798592D01*
X36677171Y-69798592D02*
X36629552Y-69703354D01*
X36629552Y-69703354D02*
X36581933Y-69655735D01*
X36581933Y-69655735D02*
X36486695Y-69608116D01*
X36486695Y-69608116D02*
X36296219Y-69560497D01*
X36296219Y-69560497D02*
X36200981Y-69512878D01*
X36200981Y-69512878D02*
X36153362Y-69465259D01*
X36153362Y-69465259D02*
X36105743Y-69370021D01*
X36105743Y-69370021D02*
X36105743Y-69274783D01*
X36105743Y-69274783D02*
X36153362Y-69179545D01*
X36153362Y-69179545D02*
X36200981Y-69131926D01*
X36200981Y-69131926D02*
X36296219Y-69084307D01*
X36296219Y-69084307D02*
X36534314Y-69084307D01*
X36534314Y-69084307D02*
X36677171Y-69131926D01*
X37010505Y-69084307D02*
X37248600Y-70084307D01*
X37248600Y-70084307D02*
X37439076Y-69370021D01*
X37439076Y-69370021D02*
X37629552Y-70084307D01*
X37629552Y-70084307D02*
X37867648Y-69084307D01*
X38772409Y-70084307D02*
X38200981Y-70084307D01*
X38486695Y-70084307D02*
X38486695Y-69084307D01*
X38486695Y-69084307D02*
X38391457Y-69227164D01*
X38391457Y-69227164D02*
X38296219Y-69322402D01*
X38296219Y-69322402D02*
X38200981Y-69370021D01*
X39153362Y-69179545D02*
X39200981Y-69131926D01*
X39200981Y-69131926D02*
X39296219Y-69084307D01*
X39296219Y-69084307D02*
X39534314Y-69084307D01*
X39534314Y-69084307D02*
X39629552Y-69131926D01*
X39629552Y-69131926D02*
X39677171Y-69179545D01*
X39677171Y-69179545D02*
X39724790Y-69274783D01*
X39724790Y-69274783D02*
X39724790Y-69370021D01*
X39724790Y-69370021D02*
X39677171Y-69512878D01*
X39677171Y-69512878D02*
X39105743Y-70084307D01*
X39105743Y-70084307D02*
X39724790Y-70084307D01*
X84105739Y-100036680D02*
X84248596Y-100084299D01*
X84248596Y-100084299D02*
X84486691Y-100084299D01*
X84486691Y-100084299D02*
X84581929Y-100036680D01*
X84581929Y-100036680D02*
X84629548Y-99989060D01*
X84629548Y-99989060D02*
X84677167Y-99893822D01*
X84677167Y-99893822D02*
X84677167Y-99798584D01*
X84677167Y-99798584D02*
X84629548Y-99703346D01*
X84629548Y-99703346D02*
X84581929Y-99655727D01*
X84581929Y-99655727D02*
X84486691Y-99608108D01*
X84486691Y-99608108D02*
X84296215Y-99560489D01*
X84296215Y-99560489D02*
X84200977Y-99512870D01*
X84200977Y-99512870D02*
X84153358Y-99465251D01*
X84153358Y-99465251D02*
X84105739Y-99370013D01*
X84105739Y-99370013D02*
X84105739Y-99274775D01*
X84105739Y-99274775D02*
X84153358Y-99179537D01*
X84153358Y-99179537D02*
X84200977Y-99131918D01*
X84200977Y-99131918D02*
X84296215Y-99084299D01*
X84296215Y-99084299D02*
X84534310Y-99084299D01*
X84534310Y-99084299D02*
X84677167Y-99131918D01*
X85010501Y-99084299D02*
X85248596Y-100084299D01*
X85248596Y-100084299D02*
X85439072Y-99370013D01*
X85439072Y-99370013D02*
X85629548Y-100084299D01*
X85629548Y-100084299D02*
X85867644Y-99084299D01*
X86772405Y-100084299D02*
X86200977Y-100084299D01*
X86486691Y-100084299D02*
X86486691Y-99084299D01*
X86486691Y-99084299D02*
X86391453Y-99227156D01*
X86391453Y-99227156D02*
X86296215Y-99322394D01*
X86296215Y-99322394D02*
X86200977Y-99370013D01*
X87105739Y-99084299D02*
X87772405Y-99084299D01*
X87772405Y-99084299D02*
X87343834Y-100084299D01*
X103095739Y-103036680D02*
X103238596Y-103084299D01*
X103238596Y-103084299D02*
X103476691Y-103084299D01*
X103476691Y-103084299D02*
X103571929Y-103036680D01*
X103571929Y-103036680D02*
X103619548Y-102989060D01*
X103619548Y-102989060D02*
X103667167Y-102893822D01*
X103667167Y-102893822D02*
X103667167Y-102798584D01*
X103667167Y-102798584D02*
X103619548Y-102703346D01*
X103619548Y-102703346D02*
X103571929Y-102655727D01*
X103571929Y-102655727D02*
X103476691Y-102608108D01*
X103476691Y-102608108D02*
X103286215Y-102560489D01*
X103286215Y-102560489D02*
X103190977Y-102512870D01*
X103190977Y-102512870D02*
X103143358Y-102465251D01*
X103143358Y-102465251D02*
X103095739Y-102370013D01*
X103095739Y-102370013D02*
X103095739Y-102274775D01*
X103095739Y-102274775D02*
X103143358Y-102179537D01*
X103143358Y-102179537D02*
X103190977Y-102131918D01*
X103190977Y-102131918D02*
X103286215Y-102084299D01*
X103286215Y-102084299D02*
X103524310Y-102084299D01*
X103524310Y-102084299D02*
X103667167Y-102131918D01*
X104000501Y-102084299D02*
X104238596Y-103084299D01*
X104238596Y-103084299D02*
X104429072Y-102370013D01*
X104429072Y-102370013D02*
X104619548Y-103084299D01*
X104619548Y-103084299D02*
X104857644Y-102084299D01*
X105762405Y-103084299D02*
X105190977Y-103084299D01*
X105476691Y-103084299D02*
X105476691Y-102084299D01*
X105476691Y-102084299D02*
X105381453Y-102227156D01*
X105381453Y-102227156D02*
X105286215Y-102322394D01*
X105286215Y-102322394D02*
X105190977Y-102370013D01*
X106333834Y-102512870D02*
X106238596Y-102465251D01*
X106238596Y-102465251D02*
X106190977Y-102417632D01*
X106190977Y-102417632D02*
X106143358Y-102322394D01*
X106143358Y-102322394D02*
X106143358Y-102274775D01*
X106143358Y-102274775D02*
X106190977Y-102179537D01*
X106190977Y-102179537D02*
X106238596Y-102131918D01*
X106238596Y-102131918D02*
X106333834Y-102084299D01*
X106333834Y-102084299D02*
X106524310Y-102084299D01*
X106524310Y-102084299D02*
X106619548Y-102131918D01*
X106619548Y-102131918D02*
X106667167Y-102179537D01*
X106667167Y-102179537D02*
X106714786Y-102274775D01*
X106714786Y-102274775D02*
X106714786Y-102322394D01*
X106714786Y-102322394D02*
X106667167Y-102417632D01*
X106667167Y-102417632D02*
X106619548Y-102465251D01*
X106619548Y-102465251D02*
X106524310Y-102512870D01*
X106524310Y-102512870D02*
X106333834Y-102512870D01*
X106333834Y-102512870D02*
X106238596Y-102560489D01*
X106238596Y-102560489D02*
X106190977Y-102608108D01*
X106190977Y-102608108D02*
X106143358Y-102703346D01*
X106143358Y-102703346D02*
X106143358Y-102893822D01*
X106143358Y-102893822D02*
X106190977Y-102989060D01*
X106190977Y-102989060D02*
X106238596Y-103036680D01*
X106238596Y-103036680D02*
X106333834Y-103084299D01*
X106333834Y-103084299D02*
X106524310Y-103084299D01*
X106524310Y-103084299D02*
X106619548Y-103036680D01*
X106619548Y-103036680D02*
X106667167Y-102989060D01*
X106667167Y-102989060D02*
X106714786Y-102893822D01*
X106714786Y-102893822D02*
X106714786Y-102703346D01*
X106714786Y-102703346D02*
X106667167Y-102608108D01*
X106667167Y-102608108D02*
X106619548Y-102560489D01*
X106619548Y-102560489D02*
X106524310Y-102512870D01*
X55105743Y-29036688D02*
X55248600Y-29084307D01*
X55248600Y-29084307D02*
X55486695Y-29084307D01*
X55486695Y-29084307D02*
X55581933Y-29036688D01*
X55581933Y-29036688D02*
X55629552Y-28989068D01*
X55629552Y-28989068D02*
X55677171Y-28893830D01*
X55677171Y-28893830D02*
X55677171Y-28798592D01*
X55677171Y-28798592D02*
X55629552Y-28703354D01*
X55629552Y-28703354D02*
X55581933Y-28655735D01*
X55581933Y-28655735D02*
X55486695Y-28608116D01*
X55486695Y-28608116D02*
X55296219Y-28560497D01*
X55296219Y-28560497D02*
X55200981Y-28512878D01*
X55200981Y-28512878D02*
X55153362Y-28465259D01*
X55153362Y-28465259D02*
X55105743Y-28370021D01*
X55105743Y-28370021D02*
X55105743Y-28274783D01*
X55105743Y-28274783D02*
X55153362Y-28179545D01*
X55153362Y-28179545D02*
X55200981Y-28131926D01*
X55200981Y-28131926D02*
X55296219Y-28084307D01*
X55296219Y-28084307D02*
X55534314Y-28084307D01*
X55534314Y-28084307D02*
X55677171Y-28131926D01*
X56010505Y-28084307D02*
X56248600Y-29084307D01*
X56248600Y-29084307D02*
X56439076Y-28370021D01*
X56439076Y-28370021D02*
X56629552Y-29084307D01*
X56629552Y-29084307D02*
X56867648Y-28084307D01*
X57153362Y-28084307D02*
X57772409Y-28084307D01*
X57772409Y-28084307D02*
X57439076Y-28465259D01*
X57439076Y-28465259D02*
X57581933Y-28465259D01*
X57581933Y-28465259D02*
X57677171Y-28512878D01*
X57677171Y-28512878D02*
X57724790Y-28560497D01*
X57724790Y-28560497D02*
X57772409Y-28655735D01*
X57772409Y-28655735D02*
X57772409Y-28893830D01*
X57772409Y-28893830D02*
X57724790Y-28989068D01*
X57724790Y-28989068D02*
X57677171Y-29036688D01*
X57677171Y-29036688D02*
X57581933Y-29084307D01*
X57581933Y-29084307D02*
X57296219Y-29084307D01*
X57296219Y-29084307D02*
X57200981Y-29036688D01*
X57200981Y-29036688D02*
X57153362Y-28989068D01*
D13*
X42996807Y-79650840D02*
X42949188Y-79612744D01*
X42949188Y-79612744D02*
X42901569Y-79536554D01*
X42901569Y-79536554D02*
X42901569Y-79346078D01*
X42901569Y-79346078D02*
X42949188Y-79269887D01*
X42949188Y-79269887D02*
X42996807Y-79231792D01*
X42996807Y-79231792D02*
X43092045Y-79193697D01*
X43092045Y-79193697D02*
X43187283Y-79193697D01*
X43187283Y-79193697D02*
X43330140Y-79231792D01*
X43330140Y-79231792D02*
X43901569Y-79688935D01*
X43901569Y-79688935D02*
X43901569Y-79193697D01*
X45441569Y-79688935D02*
X45441569Y-79193697D01*
X45441569Y-79193697D02*
X45822521Y-79460363D01*
X45822521Y-79460363D02*
X45822521Y-79346078D01*
X45822521Y-79346078D02*
X45870140Y-79269887D01*
X45870140Y-79269887D02*
X45917759Y-79231792D01*
X45917759Y-79231792D02*
X46012997Y-79193697D01*
X46012997Y-79193697D02*
X46251092Y-79193697D01*
X46251092Y-79193697D02*
X46346330Y-79231792D01*
X46346330Y-79231792D02*
X46393950Y-79269887D01*
X46393950Y-79269887D02*
X46441569Y-79346078D01*
X46441569Y-79346078D02*
X46441569Y-79574649D01*
X46441569Y-79574649D02*
X46393950Y-79650840D01*
X46393950Y-79650840D02*
X46346330Y-79688935D01*
X62095819Y-87581792D02*
X62095819Y-88038935D01*
X62095819Y-87810363D02*
X61095819Y-87810363D01*
X61095819Y-87810363D02*
X61238676Y-87886554D01*
X61238676Y-87886554D02*
X61333914Y-87962744D01*
X61333914Y-87962744D02*
X61381533Y-88038935D01*
X61095819Y-87086553D02*
X61095819Y-87010363D01*
X61095819Y-87010363D02*
X61143438Y-86934172D01*
X61143438Y-86934172D02*
X61191057Y-86896077D01*
X61191057Y-86896077D02*
X61286295Y-86857982D01*
X61286295Y-86857982D02*
X61476771Y-86819887D01*
X61476771Y-86819887D02*
X61714866Y-86819887D01*
X61714866Y-86819887D02*
X61905342Y-86857982D01*
X61905342Y-86857982D02*
X62000580Y-86896077D01*
X62000580Y-86896077D02*
X62048200Y-86934172D01*
X62048200Y-86934172D02*
X62095819Y-87010363D01*
X62095819Y-87010363D02*
X62095819Y-87086553D01*
X62095819Y-87086553D02*
X62048200Y-87162744D01*
X62048200Y-87162744D02*
X62000580Y-87200839D01*
X62000580Y-87200839D02*
X61905342Y-87238934D01*
X61905342Y-87238934D02*
X61714866Y-87277030D01*
X61714866Y-87277030D02*
X61476771Y-87277030D01*
X61476771Y-87277030D02*
X61286295Y-87238934D01*
X61286295Y-87238934D02*
X61191057Y-87200839D01*
X61191057Y-87200839D02*
X61143438Y-87162744D01*
X61143438Y-87162744D02*
X61095819Y-87086553D01*
X62095819Y-92661792D02*
X62095819Y-93118935D01*
X62095819Y-92890363D02*
X61095819Y-92890363D01*
X61095819Y-92890363D02*
X61238676Y-92966554D01*
X61238676Y-92966554D02*
X61333914Y-93042744D01*
X61333914Y-93042744D02*
X61381533Y-93118935D01*
X61191057Y-92357030D02*
X61143438Y-92318934D01*
X61143438Y-92318934D02*
X61095819Y-92242744D01*
X61095819Y-92242744D02*
X61095819Y-92052268D01*
X61095819Y-92052268D02*
X61143438Y-91976077D01*
X61143438Y-91976077D02*
X61191057Y-91937982D01*
X61191057Y-91937982D02*
X61286295Y-91899887D01*
X61286295Y-91899887D02*
X61381533Y-91899887D01*
X61381533Y-91899887D02*
X61524390Y-91937982D01*
X61524390Y-91937982D02*
X62095819Y-92395125D01*
X62095819Y-92395125D02*
X62095819Y-91899887D01*
X48076807Y-101312018D02*
X48029188Y-101273922D01*
X48029188Y-101273922D02*
X47981569Y-101197732D01*
X47981569Y-101197732D02*
X47981569Y-101007256D01*
X47981569Y-101007256D02*
X48029188Y-100931065D01*
X48029188Y-100931065D02*
X48076807Y-100892970D01*
X48076807Y-100892970D02*
X48172045Y-100854875D01*
X48172045Y-100854875D02*
X48267283Y-100854875D01*
X48267283Y-100854875D02*
X48410140Y-100892970D01*
X48410140Y-100892970D02*
X48981569Y-101350113D01*
X48981569Y-101350113D02*
X48981569Y-100854875D01*
X48410140Y-100397732D02*
X48362521Y-100473922D01*
X48362521Y-100473922D02*
X48314902Y-100512017D01*
X48314902Y-100512017D02*
X48219664Y-100550113D01*
X48219664Y-100550113D02*
X48172045Y-100550113D01*
X48172045Y-100550113D02*
X48076807Y-100512017D01*
X48076807Y-100512017D02*
X48029188Y-100473922D01*
X48029188Y-100473922D02*
X47981569Y-100397732D01*
X47981569Y-100397732D02*
X47981569Y-100245351D01*
X47981569Y-100245351D02*
X48029188Y-100169160D01*
X48029188Y-100169160D02*
X48076807Y-100131065D01*
X48076807Y-100131065D02*
X48172045Y-100092970D01*
X48172045Y-100092970D02*
X48219664Y-100092970D01*
X48219664Y-100092970D02*
X48314902Y-100131065D01*
X48314902Y-100131065D02*
X48362521Y-100169160D01*
X48362521Y-100169160D02*
X48410140Y-100245351D01*
X48410140Y-100245351D02*
X48410140Y-100397732D01*
X48410140Y-100397732D02*
X48457759Y-100473922D01*
X48457759Y-100473922D02*
X48505378Y-100512017D01*
X48505378Y-100512017D02*
X48600616Y-100550113D01*
X48600616Y-100550113D02*
X48791092Y-100550113D01*
X48791092Y-100550113D02*
X48886330Y-100512017D01*
X48886330Y-100512017D02*
X48933950Y-100473922D01*
X48933950Y-100473922D02*
X48981569Y-100397732D01*
X48981569Y-100397732D02*
X48981569Y-100245351D01*
X48981569Y-100245351D02*
X48933950Y-100169160D01*
X48933950Y-100169160D02*
X48886330Y-100131065D01*
X48886330Y-100131065D02*
X48791092Y-100092970D01*
X48791092Y-100092970D02*
X48600616Y-100092970D01*
X48600616Y-100092970D02*
X48505378Y-100131065D01*
X48505378Y-100131065D02*
X48457759Y-100169160D01*
X48457759Y-100169160D02*
X48410140Y-100245351D01*
X41361569Y-79193697D02*
X41361569Y-79650840D01*
X41361569Y-79422268D02*
X40361569Y-79422268D01*
X40361569Y-79422268D02*
X40504426Y-79498459D01*
X40504426Y-79498459D02*
X40599664Y-79574649D01*
X40599664Y-79574649D02*
X40647283Y-79650840D01*
X50616807Y-101312018D02*
X50569188Y-101273922D01*
X50569188Y-101273922D02*
X50521569Y-101197732D01*
X50521569Y-101197732D02*
X50521569Y-101007256D01*
X50521569Y-101007256D02*
X50569188Y-100931065D01*
X50569188Y-100931065D02*
X50616807Y-100892970D01*
X50616807Y-100892970D02*
X50712045Y-100854875D01*
X50712045Y-100854875D02*
X50807283Y-100854875D01*
X50807283Y-100854875D02*
X50950140Y-100892970D01*
X50950140Y-100892970D02*
X51521569Y-101350113D01*
X51521569Y-101350113D02*
X51521569Y-100854875D01*
X50521569Y-100588208D02*
X50521569Y-100054874D01*
X50521569Y-100054874D02*
X51521569Y-100397732D01*
X48314902Y-79269887D02*
X48981569Y-79269887D01*
X47933950Y-79460363D02*
X48648235Y-79650840D01*
X48648235Y-79650840D02*
X48648235Y-79155601D01*
X40409188Y-101769160D02*
X40361569Y-101845350D01*
X40361569Y-101845350D02*
X40361569Y-101959636D01*
X40361569Y-101959636D02*
X40409188Y-102073922D01*
X40409188Y-102073922D02*
X40504426Y-102150112D01*
X40504426Y-102150112D02*
X40599664Y-102188207D01*
X40599664Y-102188207D02*
X40790140Y-102226303D01*
X40790140Y-102226303D02*
X40932997Y-102226303D01*
X40932997Y-102226303D02*
X41123473Y-102188207D01*
X41123473Y-102188207D02*
X41218711Y-102150112D01*
X41218711Y-102150112D02*
X41313950Y-102073922D01*
X41313950Y-102073922D02*
X41361569Y-101959636D01*
X41361569Y-101959636D02*
X41361569Y-101883445D01*
X41361569Y-101883445D02*
X41313950Y-101769160D01*
X41313950Y-101769160D02*
X41266330Y-101731064D01*
X41266330Y-101731064D02*
X40932997Y-101731064D01*
X40932997Y-101731064D02*
X40932997Y-101883445D01*
X41361569Y-101388207D02*
X40361569Y-101388207D01*
X40361569Y-101388207D02*
X41361569Y-100931064D01*
X41361569Y-100931064D02*
X40361569Y-100931064D01*
X41361569Y-100550112D02*
X40361569Y-100550112D01*
X40361569Y-100550112D02*
X40361569Y-100359636D01*
X40361569Y-100359636D02*
X40409188Y-100245350D01*
X40409188Y-100245350D02*
X40504426Y-100169160D01*
X40504426Y-100169160D02*
X40599664Y-100131065D01*
X40599664Y-100131065D02*
X40790140Y-100092969D01*
X40790140Y-100092969D02*
X40932997Y-100092969D01*
X40932997Y-100092969D02*
X41123473Y-100131065D01*
X41123473Y-100131065D02*
X41218711Y-100169160D01*
X41218711Y-100169160D02*
X41313950Y-100245350D01*
X41313950Y-100245350D02*
X41361569Y-100359636D01*
X41361569Y-100359636D02*
X41361569Y-100550112D01*
X55601569Y-79688935D02*
X55601569Y-79155601D01*
X55601569Y-79155601D02*
X56601569Y-79498459D01*
X53061569Y-79269887D02*
X53061569Y-79422268D01*
X53061569Y-79422268D02*
X53109188Y-79498459D01*
X53109188Y-79498459D02*
X53156807Y-79536554D01*
X53156807Y-79536554D02*
X53299664Y-79612744D01*
X53299664Y-79612744D02*
X53490140Y-79650840D01*
X53490140Y-79650840D02*
X53871092Y-79650840D01*
X53871092Y-79650840D02*
X53966330Y-79612744D01*
X53966330Y-79612744D02*
X54013950Y-79574649D01*
X54013950Y-79574649D02*
X54061569Y-79498459D01*
X54061569Y-79498459D02*
X54061569Y-79346078D01*
X54061569Y-79346078D02*
X54013950Y-79269887D01*
X54013950Y-79269887D02*
X53966330Y-79231792D01*
X53966330Y-79231792D02*
X53871092Y-79193697D01*
X53871092Y-79193697D02*
X53632997Y-79193697D01*
X53632997Y-79193697D02*
X53537759Y-79231792D01*
X53537759Y-79231792D02*
X53490140Y-79269887D01*
X53490140Y-79269887D02*
X53442521Y-79346078D01*
X53442521Y-79346078D02*
X53442521Y-79498459D01*
X53442521Y-79498459D02*
X53490140Y-79574649D01*
X53490140Y-79574649D02*
X53537759Y-79612744D01*
X53537759Y-79612744D02*
X53632997Y-79650840D01*
X62095819Y-85041791D02*
X62095819Y-84889410D01*
X62095819Y-84889410D02*
X62048200Y-84813220D01*
X62048200Y-84813220D02*
X62000580Y-84775124D01*
X62000580Y-84775124D02*
X61857723Y-84698934D01*
X61857723Y-84698934D02*
X61667247Y-84660839D01*
X61667247Y-84660839D02*
X61286295Y-84660839D01*
X61286295Y-84660839D02*
X61191057Y-84698934D01*
X61191057Y-84698934D02*
X61143438Y-84737029D01*
X61143438Y-84737029D02*
X61095819Y-84813220D01*
X61095819Y-84813220D02*
X61095819Y-84965601D01*
X61095819Y-84965601D02*
X61143438Y-85041791D01*
X61143438Y-85041791D02*
X61191057Y-85079886D01*
X61191057Y-85079886D02*
X61286295Y-85117982D01*
X61286295Y-85117982D02*
X61524390Y-85117982D01*
X61524390Y-85117982D02*
X61619628Y-85079886D01*
X61619628Y-85079886D02*
X61667247Y-85041791D01*
X61667247Y-85041791D02*
X61714866Y-84965601D01*
X61714866Y-84965601D02*
X61714866Y-84813220D01*
X61714866Y-84813220D02*
X61667247Y-84737029D01*
X61667247Y-84737029D02*
X61619628Y-84698934D01*
X61619628Y-84698934D02*
X61524390Y-84660839D01*
X59141569Y-100854875D02*
X59141569Y-101312018D01*
X59141569Y-101083446D02*
X58141569Y-101083446D01*
X58141569Y-101083446D02*
X58284426Y-101159637D01*
X58284426Y-101159637D02*
X58379664Y-101235827D01*
X58379664Y-101235827D02*
X58427283Y-101312018D01*
X58474902Y-100169160D02*
X59141569Y-100169160D01*
X58093950Y-100359636D02*
X58808235Y-100550113D01*
X58808235Y-100550113D02*
X58808235Y-100054874D01*
X50521569Y-79231792D02*
X50521569Y-79612744D01*
X50521569Y-79612744D02*
X50997759Y-79650840D01*
X50997759Y-79650840D02*
X50950140Y-79612744D01*
X50950140Y-79612744D02*
X50902521Y-79536554D01*
X50902521Y-79536554D02*
X50902521Y-79346078D01*
X50902521Y-79346078D02*
X50950140Y-79269887D01*
X50950140Y-79269887D02*
X50997759Y-79231792D01*
X50997759Y-79231792D02*
X51092997Y-79193697D01*
X51092997Y-79193697D02*
X51331092Y-79193697D01*
X51331092Y-79193697D02*
X51426330Y-79231792D01*
X51426330Y-79231792D02*
X51473950Y-79269887D01*
X51473950Y-79269887D02*
X51521569Y-79346078D01*
X51521569Y-79346078D02*
X51521569Y-79536554D01*
X51521569Y-79536554D02*
X51473950Y-79612744D01*
X51473950Y-79612744D02*
X51426330Y-79650840D01*
X53156807Y-101312018D02*
X53109188Y-101273922D01*
X53109188Y-101273922D02*
X53061569Y-101197732D01*
X53061569Y-101197732D02*
X53061569Y-101007256D01*
X53061569Y-101007256D02*
X53109188Y-100931065D01*
X53109188Y-100931065D02*
X53156807Y-100892970D01*
X53156807Y-100892970D02*
X53252045Y-100854875D01*
X53252045Y-100854875D02*
X53347283Y-100854875D01*
X53347283Y-100854875D02*
X53490140Y-100892970D01*
X53490140Y-100892970D02*
X54061569Y-101350113D01*
X54061569Y-101350113D02*
X54061569Y-100854875D01*
X53061569Y-100169160D02*
X53061569Y-100321541D01*
X53061569Y-100321541D02*
X53109188Y-100397732D01*
X53109188Y-100397732D02*
X53156807Y-100435827D01*
X53156807Y-100435827D02*
X53299664Y-100512017D01*
X53299664Y-100512017D02*
X53490140Y-100550113D01*
X53490140Y-100550113D02*
X53871092Y-100550113D01*
X53871092Y-100550113D02*
X53966330Y-100512017D01*
X53966330Y-100512017D02*
X54013950Y-100473922D01*
X54013950Y-100473922D02*
X54061569Y-100397732D01*
X54061569Y-100397732D02*
X54061569Y-100245351D01*
X54061569Y-100245351D02*
X54013950Y-100169160D01*
X54013950Y-100169160D02*
X53966330Y-100131065D01*
X53966330Y-100131065D02*
X53871092Y-100092970D01*
X53871092Y-100092970D02*
X53632997Y-100092970D01*
X53632997Y-100092970D02*
X53537759Y-100131065D01*
X53537759Y-100131065D02*
X53490140Y-100169160D01*
X53490140Y-100169160D02*
X53442521Y-100245351D01*
X53442521Y-100245351D02*
X53442521Y-100397732D01*
X53442521Y-100397732D02*
X53490140Y-100473922D01*
X53490140Y-100473922D02*
X53537759Y-100512017D01*
X53537759Y-100512017D02*
X53632997Y-100550113D01*
X45536807Y-101312018D02*
X45489188Y-101273922D01*
X45489188Y-101273922D02*
X45441569Y-101197732D01*
X45441569Y-101197732D02*
X45441569Y-101007256D01*
X45441569Y-101007256D02*
X45489188Y-100931065D01*
X45489188Y-100931065D02*
X45536807Y-100892970D01*
X45536807Y-100892970D02*
X45632045Y-100854875D01*
X45632045Y-100854875D02*
X45727283Y-100854875D01*
X45727283Y-100854875D02*
X45870140Y-100892970D01*
X45870140Y-100892970D02*
X46441569Y-101350113D01*
X46441569Y-101350113D02*
X46441569Y-100854875D01*
X46441569Y-100473922D02*
X46441569Y-100321541D01*
X46441569Y-100321541D02*
X46393950Y-100245351D01*
X46393950Y-100245351D02*
X46346330Y-100207255D01*
X46346330Y-100207255D02*
X46203473Y-100131065D01*
X46203473Y-100131065D02*
X46012997Y-100092970D01*
X46012997Y-100092970D02*
X45632045Y-100092970D01*
X45632045Y-100092970D02*
X45536807Y-100131065D01*
X45536807Y-100131065D02*
X45489188Y-100169160D01*
X45489188Y-100169160D02*
X45441569Y-100245351D01*
X45441569Y-100245351D02*
X45441569Y-100397732D01*
X45441569Y-100397732D02*
X45489188Y-100473922D01*
X45489188Y-100473922D02*
X45536807Y-100512017D01*
X45536807Y-100512017D02*
X45632045Y-100550113D01*
X45632045Y-100550113D02*
X45870140Y-100550113D01*
X45870140Y-100550113D02*
X45965378Y-100512017D01*
X45965378Y-100512017D02*
X46012997Y-100473922D01*
X46012997Y-100473922D02*
X46060616Y-100397732D01*
X46060616Y-100397732D02*
X46060616Y-100245351D01*
X46060616Y-100245351D02*
X46012997Y-100169160D01*
X46012997Y-100169160D02*
X45965378Y-100131065D01*
X45965378Y-100131065D02*
X45870140Y-100092970D01*
X62095819Y-90121792D02*
X62095819Y-90578935D01*
X62095819Y-90350363D02*
X61095819Y-90350363D01*
X61095819Y-90350363D02*
X61238676Y-90426554D01*
X61238676Y-90426554D02*
X61333914Y-90502744D01*
X61333914Y-90502744D02*
X61381533Y-90578935D01*
X62095819Y-89359887D02*
X62095819Y-89817030D01*
X62095819Y-89588458D02*
X61095819Y-89588458D01*
X61095819Y-89588458D02*
X61238676Y-89664649D01*
X61238676Y-89664649D02*
X61333914Y-89740839D01*
X61333914Y-89740839D02*
X61381533Y-89817030D01*
X62095819Y-95201792D02*
X62095819Y-95658935D01*
X62095819Y-95430363D02*
X61095819Y-95430363D01*
X61095819Y-95430363D02*
X61238676Y-95506554D01*
X61238676Y-95506554D02*
X61333914Y-95582744D01*
X61333914Y-95582744D02*
X61381533Y-95658935D01*
X61095819Y-94935125D02*
X61095819Y-94439887D01*
X61095819Y-94439887D02*
X61476771Y-94706553D01*
X61476771Y-94706553D02*
X61476771Y-94592268D01*
X61476771Y-94592268D02*
X61524390Y-94516077D01*
X61524390Y-94516077D02*
X61572009Y-94477982D01*
X61572009Y-94477982D02*
X61667247Y-94439887D01*
X61667247Y-94439887D02*
X61905342Y-94439887D01*
X61905342Y-94439887D02*
X62000580Y-94477982D01*
X62000580Y-94477982D02*
X62048200Y-94516077D01*
X62048200Y-94516077D02*
X62095819Y-94592268D01*
X62095819Y-94592268D02*
X62095819Y-94820839D01*
X62095819Y-94820839D02*
X62048200Y-94897030D01*
X62048200Y-94897030D02*
X62000580Y-94935125D01*
X58570140Y-79498459D02*
X58522521Y-79574649D01*
X58522521Y-79574649D02*
X58474902Y-79612744D01*
X58474902Y-79612744D02*
X58379664Y-79650840D01*
X58379664Y-79650840D02*
X58332045Y-79650840D01*
X58332045Y-79650840D02*
X58236807Y-79612744D01*
X58236807Y-79612744D02*
X58189188Y-79574649D01*
X58189188Y-79574649D02*
X58141569Y-79498459D01*
X58141569Y-79498459D02*
X58141569Y-79346078D01*
X58141569Y-79346078D02*
X58189188Y-79269887D01*
X58189188Y-79269887D02*
X58236807Y-79231792D01*
X58236807Y-79231792D02*
X58332045Y-79193697D01*
X58332045Y-79193697D02*
X58379664Y-79193697D01*
X58379664Y-79193697D02*
X58474902Y-79231792D01*
X58474902Y-79231792D02*
X58522521Y-79269887D01*
X58522521Y-79269887D02*
X58570140Y-79346078D01*
X58570140Y-79346078D02*
X58570140Y-79498459D01*
X58570140Y-79498459D02*
X58617759Y-79574649D01*
X58617759Y-79574649D02*
X58665378Y-79612744D01*
X58665378Y-79612744D02*
X58760616Y-79650840D01*
X58760616Y-79650840D02*
X58951092Y-79650840D01*
X58951092Y-79650840D02*
X59046330Y-79612744D01*
X59046330Y-79612744D02*
X59093950Y-79574649D01*
X59093950Y-79574649D02*
X59141569Y-79498459D01*
X59141569Y-79498459D02*
X59141569Y-79346078D01*
X59141569Y-79346078D02*
X59093950Y-79269887D01*
X59093950Y-79269887D02*
X59046330Y-79231792D01*
X59046330Y-79231792D02*
X58951092Y-79193697D01*
X58951092Y-79193697D02*
X58760616Y-79193697D01*
X58760616Y-79193697D02*
X58665378Y-79231792D01*
X58665378Y-79231792D02*
X58617759Y-79269887D01*
X58617759Y-79269887D02*
X58570140Y-79346078D01*
X37821569Y-100816779D02*
X37821569Y-101197731D01*
X37821569Y-101197731D02*
X38297759Y-101235827D01*
X38297759Y-101235827D02*
X38250140Y-101197731D01*
X38250140Y-101197731D02*
X38202521Y-101121541D01*
X38202521Y-101121541D02*
X38202521Y-100931065D01*
X38202521Y-100931065D02*
X38250140Y-100854874D01*
X38250140Y-100854874D02*
X38297759Y-100816779D01*
X38297759Y-100816779D02*
X38392997Y-100778684D01*
X38392997Y-100778684D02*
X38631092Y-100778684D01*
X38631092Y-100778684D02*
X38726330Y-100816779D01*
X38726330Y-100816779D02*
X38773950Y-100854874D01*
X38773950Y-100854874D02*
X38821569Y-100931065D01*
X38821569Y-100931065D02*
X38821569Y-101121541D01*
X38821569Y-101121541D02*
X38773950Y-101197731D01*
X38773950Y-101197731D02*
X38726330Y-101235827D01*
X37821569Y-100550112D02*
X38821569Y-100283445D01*
X38821569Y-100283445D02*
X37821569Y-100016779D01*
X56601569Y-100854875D02*
X56601569Y-101312018D01*
X56601569Y-101083446D02*
X55601569Y-101083446D01*
X55601569Y-101083446D02*
X55744426Y-101159637D01*
X55744426Y-101159637D02*
X55839664Y-101235827D01*
X55839664Y-101235827D02*
X55887283Y-101312018D01*
X55601569Y-100131065D02*
X55601569Y-100512017D01*
X55601569Y-100512017D02*
X56077759Y-100550113D01*
X56077759Y-100550113D02*
X56030140Y-100512017D01*
X56030140Y-100512017D02*
X55982521Y-100435827D01*
X55982521Y-100435827D02*
X55982521Y-100245351D01*
X55982521Y-100245351D02*
X56030140Y-100169160D01*
X56030140Y-100169160D02*
X56077759Y-100131065D01*
X56077759Y-100131065D02*
X56172997Y-100092970D01*
X56172997Y-100092970D02*
X56411092Y-100092970D01*
X56411092Y-100092970D02*
X56506330Y-100131065D01*
X56506330Y-100131065D02*
X56553950Y-100169160D01*
X56553950Y-100169160D02*
X56601569Y-100245351D01*
X56601569Y-100245351D02*
X56601569Y-100435827D01*
X56601569Y-100435827D02*
X56553950Y-100512017D01*
X56553950Y-100512017D02*
X56506330Y-100550113D01*
X42901569Y-102035827D02*
X42901569Y-101540589D01*
X42901569Y-101540589D02*
X43282521Y-101807255D01*
X43282521Y-101807255D02*
X43282521Y-101692970D01*
X43282521Y-101692970D02*
X43330140Y-101616779D01*
X43330140Y-101616779D02*
X43377759Y-101578684D01*
X43377759Y-101578684D02*
X43472997Y-101540589D01*
X43472997Y-101540589D02*
X43711092Y-101540589D01*
X43711092Y-101540589D02*
X43806330Y-101578684D01*
X43806330Y-101578684D02*
X43853950Y-101616779D01*
X43853950Y-101616779D02*
X43901569Y-101692970D01*
X43901569Y-101692970D02*
X43901569Y-101921541D01*
X43901569Y-101921541D02*
X43853950Y-101997732D01*
X43853950Y-101997732D02*
X43806330Y-102035827D01*
X42901569Y-101312017D02*
X43901569Y-101045350D01*
X43901569Y-101045350D02*
X42901569Y-100778684D01*
X42901569Y-100588208D02*
X42901569Y-100092970D01*
X42901569Y-100092970D02*
X43282521Y-100359636D01*
X43282521Y-100359636D02*
X43282521Y-100245351D01*
X43282521Y-100245351D02*
X43330140Y-100169160D01*
X43330140Y-100169160D02*
X43377759Y-100131065D01*
X43377759Y-100131065D02*
X43472997Y-100092970D01*
X43472997Y-100092970D02*
X43711092Y-100092970D01*
X43711092Y-100092970D02*
X43806330Y-100131065D01*
X43806330Y-100131065D02*
X43853950Y-100169160D01*
X43853950Y-100169160D02*
X43901569Y-100245351D01*
X43901569Y-100245351D02*
X43901569Y-100473922D01*
X43901569Y-100473922D02*
X43853950Y-100550113D01*
X43853950Y-100550113D02*
X43806330Y-100588208D01*
X37821569Y-79460363D02*
X37821569Y-79384173D01*
X37821569Y-79384173D02*
X37869188Y-79307982D01*
X37869188Y-79307982D02*
X37916807Y-79269887D01*
X37916807Y-79269887D02*
X38012045Y-79231792D01*
X38012045Y-79231792D02*
X38202521Y-79193697D01*
X38202521Y-79193697D02*
X38440616Y-79193697D01*
X38440616Y-79193697D02*
X38631092Y-79231792D01*
X38631092Y-79231792D02*
X38726330Y-79269887D01*
X38726330Y-79269887D02*
X38773950Y-79307982D01*
X38773950Y-79307982D02*
X38821569Y-79384173D01*
X38821569Y-79384173D02*
X38821569Y-79460363D01*
X38821569Y-79460363D02*
X38773950Y-79536554D01*
X38773950Y-79536554D02*
X38726330Y-79574649D01*
X38726330Y-79574649D02*
X38631092Y-79612744D01*
X38631092Y-79612744D02*
X38440616Y-79650840D01*
X38440616Y-79650840D02*
X38202521Y-79650840D01*
X38202521Y-79650840D02*
X38012045Y-79612744D01*
X38012045Y-79612744D02*
X37916807Y-79574649D01*
X37916807Y-79574649D02*
X37869188Y-79536554D01*
X37869188Y-79536554D02*
X37821569Y-79460363D01*
X51349822Y-75116904D02*
X52159345Y-75116904D01*
X52159345Y-75116904D02*
X52254583Y-75069285D01*
X52254583Y-75069285D02*
X52302203Y-75021666D01*
X52302203Y-75021666D02*
X52349822Y-74926428D01*
X52349822Y-74926428D02*
X52349822Y-74735952D01*
X52349822Y-74735952D02*
X52302203Y-74640714D01*
X52302203Y-74640714D02*
X52254583Y-74593095D01*
X52254583Y-74593095D02*
X52159345Y-74545476D01*
X52159345Y-74545476D02*
X51349822Y-74545476D01*
X52349822Y-73545476D02*
X52349822Y-74116904D01*
X52349822Y-73831190D02*
X51349822Y-73831190D01*
X51349822Y-73831190D02*
X51492679Y-73926428D01*
X51492679Y-73926428D02*
X51587917Y-74021666D01*
X51587917Y-74021666D02*
X51635536Y-74116904D01*
X80379817Y-79536905D02*
X81189340Y-79536905D01*
X81189340Y-79536905D02*
X81284578Y-79489286D01*
X81284578Y-79489286D02*
X81332198Y-79441667D01*
X81332198Y-79441667D02*
X81379817Y-79346429D01*
X81379817Y-79346429D02*
X81379817Y-79155953D01*
X81379817Y-79155953D02*
X81332198Y-79060715D01*
X81332198Y-79060715D02*
X81284578Y-79013096D01*
X81284578Y-79013096D02*
X81189340Y-78965477D01*
X81189340Y-78965477D02*
X80379817Y-78965477D01*
X80379817Y-78584524D02*
X80379817Y-77965477D01*
X80379817Y-77965477D02*
X80760769Y-78298810D01*
X80760769Y-78298810D02*
X80760769Y-78155953D01*
X80760769Y-78155953D02*
X80808388Y-78060715D01*
X80808388Y-78060715D02*
X80856007Y-78013096D01*
X80856007Y-78013096D02*
X80951245Y-77965477D01*
X80951245Y-77965477D02*
X81189340Y-77965477D01*
X81189340Y-77965477D02*
X81284578Y-78013096D01*
X81284578Y-78013096D02*
X81332198Y-78060715D01*
X81332198Y-78060715D02*
X81379817Y-78155953D01*
X81379817Y-78155953D02*
X81379817Y-78441667D01*
X81379817Y-78441667D02*
X81332198Y-78536905D01*
X81332198Y-78536905D02*
X81284578Y-78584524D01*
X63769822Y-79686904D02*
X64579345Y-79686904D01*
X64579345Y-79686904D02*
X64674583Y-79639285D01*
X64674583Y-79639285D02*
X64722203Y-79591666D01*
X64722203Y-79591666D02*
X64769822Y-79496428D01*
X64769822Y-79496428D02*
X64769822Y-79305952D01*
X64769822Y-79305952D02*
X64722203Y-79210714D01*
X64722203Y-79210714D02*
X64674583Y-79163095D01*
X64674583Y-79163095D02*
X64579345Y-79115476D01*
X64579345Y-79115476D02*
X63769822Y-79115476D01*
X63865060Y-78686904D02*
X63817441Y-78639285D01*
X63817441Y-78639285D02*
X63769822Y-78544047D01*
X63769822Y-78544047D02*
X63769822Y-78305952D01*
X63769822Y-78305952D02*
X63817441Y-78210714D01*
X63817441Y-78210714D02*
X63865060Y-78163095D01*
X63865060Y-78163095D02*
X63960298Y-78115476D01*
X63960298Y-78115476D02*
X64055536Y-78115476D01*
X64055536Y-78115476D02*
X64198393Y-78163095D01*
X64198393Y-78163095D02*
X64769822Y-78734523D01*
X64769822Y-78734523D02*
X64769822Y-78115476D01*
X31926666Y-98864819D02*
X31926666Y-99579104D01*
X31926666Y-99579104D02*
X31879047Y-99721961D01*
X31879047Y-99721961D02*
X31783809Y-99817200D01*
X31783809Y-99817200D02*
X31640952Y-99864819D01*
X31640952Y-99864819D02*
X31545714Y-99864819D01*
X32402857Y-99864819D02*
X32402857Y-98864819D01*
X32402857Y-98864819D02*
X32783809Y-98864819D01*
X32783809Y-98864819D02*
X32879047Y-98912438D01*
X32879047Y-98912438D02*
X32926666Y-98960057D01*
X32926666Y-98960057D02*
X32974285Y-99055295D01*
X32974285Y-99055295D02*
X32974285Y-99198152D01*
X32974285Y-99198152D02*
X32926666Y-99293390D01*
X32926666Y-99293390D02*
X32879047Y-99341009D01*
X32879047Y-99341009D02*
X32783809Y-99388628D01*
X32783809Y-99388628D02*
X32402857Y-99388628D01*
X33831428Y-99198152D02*
X33831428Y-99864819D01*
X33593333Y-98817200D02*
X33355238Y-99531485D01*
X33355238Y-99531485D02*
X33974285Y-99531485D01*
X98426666Y-91114819D02*
X98426666Y-91829104D01*
X98426666Y-91829104D02*
X98379047Y-91971961D01*
X98379047Y-91971961D02*
X98283809Y-92067200D01*
X98283809Y-92067200D02*
X98140952Y-92114819D01*
X98140952Y-92114819D02*
X98045714Y-92114819D01*
X98902857Y-92114819D02*
X98902857Y-91114819D01*
X98902857Y-91114819D02*
X99283809Y-91114819D01*
X99283809Y-91114819D02*
X99379047Y-91162438D01*
X99379047Y-91162438D02*
X99426666Y-91210057D01*
X99426666Y-91210057D02*
X99474285Y-91305295D01*
X99474285Y-91305295D02*
X99474285Y-91448152D01*
X99474285Y-91448152D02*
X99426666Y-91543390D01*
X99426666Y-91543390D02*
X99379047Y-91591009D01*
X99379047Y-91591009D02*
X99283809Y-91638628D01*
X99283809Y-91638628D02*
X98902857Y-91638628D01*
X99855238Y-91210057D02*
X99902857Y-91162438D01*
X99902857Y-91162438D02*
X99998095Y-91114819D01*
X99998095Y-91114819D02*
X100236190Y-91114819D01*
X100236190Y-91114819D02*
X100331428Y-91162438D01*
X100331428Y-91162438D02*
X100379047Y-91210057D01*
X100379047Y-91210057D02*
X100426666Y-91305295D01*
X100426666Y-91305295D02*
X100426666Y-91400533D01*
X100426666Y-91400533D02*
X100379047Y-91543390D01*
X100379047Y-91543390D02*
X99807619Y-92114819D01*
X99807619Y-92114819D02*
X100426666Y-92114819D01*
%TO.C,C17*%
D15*
X90776248Y-96765000D02*
X91298752Y-96765000D01*
X90776248Y-98235000D02*
X91298752Y-98235000D01*
%TO.C,C20*%
X63865000Y-73261252D02*
X63865000Y-72738748D01*
X65335000Y-73261252D02*
X65335000Y-72738748D01*
%TO.C,C8*%
X61738748Y-44765000D02*
X62261252Y-44765000D01*
X61738748Y-46235000D02*
X62261252Y-46235000D01*
%TO.C,C5*%
X99738748Y-32765000D02*
X100261252Y-32765000D01*
X99738748Y-34235000D02*
X100261252Y-34235000D01*
%TO.C,C1*%
X23738748Y-37765000D02*
X24261252Y-37765000D01*
X23738748Y-39235000D02*
X24261252Y-39235000D01*
%TO.C,C11*%
X23776248Y-75765000D02*
X24298752Y-75765000D01*
X23776248Y-77235000D02*
X24298752Y-77235000D01*
%TO.C,C10*%
X99738748Y-51765000D02*
X100261252Y-51765000D01*
X99738748Y-53235000D02*
X100261252Y-53235000D01*
%TO.C,C6*%
X23738748Y-56765000D02*
X24261252Y-56765000D01*
X23738748Y-58235000D02*
X24261252Y-58235000D01*
%TO.C,C3*%
X61738748Y-25765000D02*
X62261252Y-25765000D01*
X61738748Y-27235000D02*
X62261252Y-27235000D01*
%TO.C,C16*%
X71776248Y-94765000D02*
X72298752Y-94765000D01*
X71776248Y-96235000D02*
X72298752Y-96235000D01*
%TO.C,C7*%
X42738748Y-47765000D02*
X43261252Y-47765000D01*
X42738748Y-49235000D02*
X43261252Y-49235000D01*
%TO.C,C2*%
X42738748Y-28765000D02*
X43261252Y-28765000D01*
X42738748Y-30235000D02*
X43261252Y-30235000D01*
%TO.C,C19*%
X50765000Y-71498752D02*
X50765000Y-70976248D01*
X52235000Y-71498752D02*
X52235000Y-70976248D01*
%TO.C,C12*%
X42776248Y-66765000D02*
X43298752Y-66765000D01*
X42776248Y-68235000D02*
X43298752Y-68235000D01*
%TO.C,C14*%
X80776248Y-68765000D02*
X81298752Y-68765000D01*
X80776248Y-70235000D02*
X81298752Y-70235000D01*
%TO.C,C15*%
X99776248Y-70765000D02*
X100298752Y-70765000D01*
X99776248Y-72235000D02*
X100298752Y-72235000D01*
%TO.C,C13*%
X61776248Y-63765000D02*
X62298752Y-63765000D01*
X61776248Y-65235000D02*
X62298752Y-65235000D01*
%TO.C,C21*%
X79765000Y-75561252D02*
X79765000Y-75038748D01*
X81235000Y-75561252D02*
X81235000Y-75038748D01*
%TO.C,C4*%
X80738748Y-30765000D02*
X81261252Y-30765000D01*
X80738748Y-32235000D02*
X81261252Y-32235000D01*
%TO.C,C9*%
X80738748Y-49765000D02*
X81261252Y-49765000D01*
X80738748Y-51235000D02*
X81261252Y-51235000D01*
%TO.C,C18*%
X109776248Y-99765000D02*
X110298752Y-99765000D01*
X109776248Y-101235000D02*
X110298752Y-101235000D01*
%TO.C,J1*%
D13*
X108760000Y-77860000D02*
X96660000Y-77860000D01*
X108760000Y-78110000D02*
X110760000Y-78110000D01*
X110760000Y-83710000D02*
X110760000Y-78110000D01*
X108760000Y-83710000D02*
X110760000Y-83710000D01*
X108760000Y-83960000D02*
X108760000Y-77860000D01*
X108760000Y-83960000D02*
X96660000Y-83960000D01*
X96660000Y-83960000D02*
X96660000Y-77860000D01*
%TO.C,SW7*%
X35260004Y-37910008D02*
X35260004Y-39910008D01*
X35260004Y-49910008D02*
X35260004Y-51910008D01*
X35260004Y-51910008D02*
X37260004Y-51910008D01*
X37260004Y-37910008D02*
X35260004Y-37910008D01*
X47260004Y-37910008D02*
X49260004Y-37910008D01*
X47260004Y-51910008D02*
X49260004Y-51910008D01*
X49260004Y-37910008D02*
X49260004Y-39910008D01*
X49260004Y-51910008D02*
X49260004Y-49910008D01*
%TO.C,SW4*%
X73260000Y-20910000D02*
X73260000Y-22910000D01*
X73260000Y-32910000D02*
X73260000Y-34910000D01*
X73260000Y-34910000D02*
X75260000Y-34910000D01*
X75260000Y-20910000D02*
X73260000Y-20910000D01*
X85260000Y-20910000D02*
X87260000Y-20910000D01*
X85260000Y-34910000D02*
X87260000Y-34910000D01*
X87260000Y-20910000D02*
X87260000Y-22910000D01*
X87260000Y-34910000D02*
X87260000Y-32910000D01*
%TO.C,SW1*%
X16259998Y-27909999D02*
X16259998Y-29909999D01*
X16259998Y-39909999D02*
X16259998Y-41909999D01*
X16259998Y-41909999D02*
X18259998Y-41909999D01*
X18259998Y-27909999D02*
X16259998Y-27909999D01*
X28259998Y-27909999D02*
X30259998Y-27909999D01*
X28259998Y-41909999D02*
X30259998Y-41909999D01*
X30259998Y-27909999D02*
X30259998Y-29909999D01*
X30259998Y-41909999D02*
X30259998Y-39909999D01*
%TO.C,SW9*%
X73260000Y-39910000D02*
X73260000Y-41910000D01*
X73260000Y-51910000D02*
X73260000Y-53910000D01*
X73260000Y-53910000D02*
X75260000Y-53910000D01*
X75260000Y-39910000D02*
X73260000Y-39910000D01*
X85260000Y-39910000D02*
X87260000Y-39910000D01*
X85260000Y-53910000D02*
X87260000Y-53910000D01*
X87260000Y-39910000D02*
X87260000Y-41910000D01*
X87260000Y-53910000D02*
X87260000Y-51910000D01*
%TO.C,SW10*%
X92260000Y-41910000D02*
X92260000Y-43910000D01*
X92260000Y-53910000D02*
X92260000Y-55910000D01*
X92260000Y-55910000D02*
X94260000Y-55910000D01*
X94260000Y-41910000D02*
X92260000Y-41910000D01*
X104260000Y-41910000D02*
X106260000Y-41910000D01*
X104260000Y-55910000D02*
X106260000Y-55910000D01*
X106260000Y-41910000D02*
X106260000Y-43910000D01*
X106260000Y-55910000D02*
X106260000Y-53910000D01*
%TO.C,SW2*%
X35260004Y-18910008D02*
X35260004Y-20910008D01*
X35260004Y-30910008D02*
X35260004Y-32910008D01*
X35260004Y-32910008D02*
X37260004Y-32910008D01*
X37260004Y-18910008D02*
X35260004Y-18910008D01*
X47260004Y-18910008D02*
X49260004Y-18910008D01*
X47260004Y-32910008D02*
X49260004Y-32910008D01*
X49260004Y-18910008D02*
X49260004Y-20910008D01*
X49260004Y-32910008D02*
X49260004Y-30910008D01*
%TO.C,SW13*%
X54260004Y-53910008D02*
X54260004Y-55910008D01*
X54260004Y-65910008D02*
X54260004Y-67910008D01*
X54260004Y-67910008D02*
X56260004Y-67910008D01*
X56260004Y-53910008D02*
X54260004Y-53910008D01*
X66260004Y-53910008D02*
X68260004Y-53910008D01*
X66260004Y-67910008D02*
X68260004Y-67910008D01*
X68260004Y-53910008D02*
X68260004Y-55910008D01*
X68260004Y-67910008D02*
X68260004Y-65910008D01*
%TO.C,SW8*%
X54260004Y-34910008D02*
X54260004Y-36910008D01*
X54260004Y-46910008D02*
X54260004Y-48910008D01*
X54260004Y-48910008D02*
X56260004Y-48910008D01*
X56260004Y-34910008D02*
X54260004Y-34910008D01*
X66260004Y-34910008D02*
X68260004Y-34910008D01*
X66260004Y-48910008D02*
X68260004Y-48910008D01*
X68260004Y-34910008D02*
X68260004Y-36910008D01*
X68260004Y-48910008D02*
X68260004Y-46910008D01*
%TO.C,SW11*%
X16260001Y-65910000D02*
X16260001Y-67910000D01*
X16260001Y-77910000D02*
X16260001Y-79910000D01*
X16260001Y-79910000D02*
X18260001Y-79910000D01*
X18260001Y-65910000D02*
X16260001Y-65910000D01*
X28260001Y-65910000D02*
X30260001Y-65910000D01*
X28260001Y-79910000D02*
X30260001Y-79910000D01*
X30260001Y-65910000D02*
X30260001Y-67910000D01*
X30260001Y-79910000D02*
X30260001Y-77910000D01*
%TO.C,SW14*%
X73260000Y-58910000D02*
X73260000Y-60910000D01*
X73260000Y-70910000D02*
X73260000Y-72910000D01*
X73260000Y-72910000D02*
X75260000Y-72910000D01*
X75260000Y-58910000D02*
X73260000Y-58910000D01*
X85260000Y-58910000D02*
X87260000Y-58910000D01*
X85260000Y-72910000D02*
X87260000Y-72910000D01*
X87260000Y-58910000D02*
X87260000Y-60910000D01*
X87260000Y-72910000D02*
X87260000Y-70910000D01*
%TO.C,SW5*%
X92260000Y-22910000D02*
X92260000Y-24910000D01*
X92260000Y-34910000D02*
X92260000Y-36910000D01*
X92260000Y-36910000D02*
X94260000Y-36910000D01*
X94260000Y-22910000D02*
X92260000Y-22910000D01*
X104260000Y-22910000D02*
X106260000Y-22910000D01*
X104260000Y-36910000D02*
X106260000Y-36910000D01*
X106260000Y-22910000D02*
X106260000Y-24910000D01*
X106260000Y-36910000D02*
X106260000Y-34910000D01*
%TO.C,SW15*%
X92260000Y-60910000D02*
X92260000Y-62910000D01*
X92260000Y-72910000D02*
X92260000Y-74910000D01*
X92260000Y-74910000D02*
X94260000Y-74910000D01*
X94260000Y-60910000D02*
X92260000Y-60910000D01*
X104260000Y-60910000D02*
X106260000Y-60910000D01*
X104260000Y-74910000D02*
X106260000Y-74910000D01*
X106260000Y-60910000D02*
X106260000Y-62910000D01*
X106260000Y-74910000D02*
X106260000Y-72910000D01*
%TO.C,SW16*%
X64260000Y-84910000D02*
X64260000Y-86910000D01*
X64260000Y-96910000D02*
X64260000Y-98910000D01*
X64260000Y-98910000D02*
X66260000Y-98910000D01*
X66260000Y-84910000D02*
X64260000Y-84910000D01*
X76260000Y-84910000D02*
X78260000Y-84910000D01*
X76260000Y-98910000D02*
X78260000Y-98910000D01*
X78260000Y-84910000D02*
X78260000Y-86910000D01*
X78260000Y-98910000D02*
X78260000Y-96910000D01*
%TO.C,SW6*%
X16260000Y-46910000D02*
X16260000Y-48910000D01*
X16260000Y-58910000D02*
X16260000Y-60910000D01*
X16260000Y-60910000D02*
X18260000Y-60910000D01*
X18260000Y-46910000D02*
X16260000Y-46910000D01*
X28260000Y-46910000D02*
X30260000Y-46910000D01*
X28260000Y-60910000D02*
X30260000Y-60910000D01*
X30260000Y-46910000D02*
X30260000Y-48910000D01*
X30260000Y-60910000D02*
X30260000Y-58910000D01*
%TO.C,SW12*%
X35260004Y-56910008D02*
X35260004Y-58910008D01*
X35260004Y-68910008D02*
X35260004Y-70910008D01*
X35260004Y-70910008D02*
X37260004Y-70910008D01*
X37260004Y-56910008D02*
X35260004Y-56910008D01*
X47260004Y-56910008D02*
X49260004Y-56910008D01*
X47260004Y-70910008D02*
X49260004Y-70910008D01*
X49260004Y-56910008D02*
X49260004Y-58910008D01*
X49260004Y-70910008D02*
X49260004Y-68910008D01*
%TO.C,SW17*%
X83260000Y-86910000D02*
X83260000Y-88910000D01*
X83260000Y-98910000D02*
X83260000Y-100910000D01*
X83260000Y-100910000D02*
X85260000Y-100910000D01*
X85260000Y-86910000D02*
X83260000Y-86910000D01*
X95260000Y-86910000D02*
X97260000Y-86910000D01*
X95260000Y-100910000D02*
X97260000Y-100910000D01*
X97260000Y-86910000D02*
X97260000Y-88910000D01*
X97260000Y-100910000D02*
X97260000Y-98910000D01*
%TO.C,SW18*%
X102250000Y-89910000D02*
X102250000Y-91910000D01*
X102250000Y-101910000D02*
X102250000Y-103910000D01*
X102250000Y-103910000D02*
X104250000Y-103910000D01*
X104250000Y-89910000D02*
X102250000Y-89910000D01*
X114250000Y-89910000D02*
X116250000Y-89910000D01*
X114250000Y-103910000D02*
X116250000Y-103910000D01*
X116250000Y-89910000D02*
X116250000Y-91910000D01*
X116250000Y-103910000D02*
X116250000Y-101910000D01*
%TO.C,SW3*%
X54260004Y-15910008D02*
X54260004Y-17910008D01*
X54260004Y-27910008D02*
X54260004Y-29910008D01*
X54260004Y-29910008D02*
X56260004Y-29910008D01*
X56260004Y-15910008D02*
X54260004Y-15910008D01*
X66260004Y-15910008D02*
X68260004Y-15910008D01*
X66260004Y-29910008D02*
X68260004Y-29910008D01*
X68260004Y-15910008D02*
X68260004Y-17910008D01*
X68260004Y-29910008D02*
X68260004Y-27910008D01*
%TO.C,U1*%
D15*
X52735004Y-76304999D02*
X52734999Y-74355001D01*
X62855005Y-76304999D02*
X62855009Y-74354997D01*
X52735003Y-72404999D02*
X52734999Y-74355001D01*
X62855004Y-72404999D02*
X62855009Y-74354997D01*
X52790004Y-77055000D02*
X52460007Y-77294997D01*
X52460004Y-76814996D01*
X52790004Y-77055000D01*
G36*
X52790004Y-77055000D02*
G01*
X52460007Y-77294997D01*
X52460004Y-76814996D01*
X52790004Y-77055000D01*
G37*
%TO.C,U3*%
X81764999Y-80725000D02*
X81764994Y-78775002D01*
X91885000Y-80725000D02*
X91885004Y-78774998D01*
X81764998Y-76825000D02*
X81764994Y-78775002D01*
X91884999Y-76825000D02*
X91885004Y-78774998D01*
X81819999Y-81475001D02*
X81490002Y-81714998D01*
X81489999Y-81234997D01*
X81819999Y-81475001D01*
G36*
X81819999Y-81475001D02*
G01*
X81490002Y-81714998D01*
X81489999Y-81234997D01*
X81819999Y-81475001D01*
G37*
%TO.C,U2*%
X65155004Y-80874999D02*
X65154999Y-78925001D01*
X75275005Y-80874999D02*
X75275009Y-78924997D01*
X65155003Y-76974999D02*
X65154999Y-78925001D01*
X75275004Y-76974999D02*
X75275009Y-78924997D01*
X65210004Y-81625000D02*
X64880007Y-81864997D01*
X64880004Y-81384996D01*
X65210004Y-81625000D01*
G36*
X65210004Y-81625000D02*
G01*
X64880007Y-81864997D01*
X64880004Y-81384996D01*
X65210004Y-81625000D01*
G37*
%TO.C,JP4*%
X29010000Y-98010000D02*
X31010000Y-98010000D01*
X29010000Y-100810000D02*
X29010000Y-98010000D01*
X31010000Y-98010000D02*
X31010000Y-100810000D01*
X31010000Y-100810000D02*
X29010000Y-100810000D01*
%TO.C,JP2*%
X98260000Y-88010000D02*
X100260000Y-88010000D01*
X98260000Y-90810000D02*
X98260000Y-88010000D01*
X100260000Y-88010000D02*
X100260000Y-90810000D01*
X100260000Y-90810000D02*
X98260000Y-90810000D01*
%TD*%
M02*
