%TF.GenerationSoftware,KiCad,Pcbnew,10.0.2-rc1*%
%TF.CreationDate,2026-07-14T05:59:07+09:00*%
%TF.ProjectId,boardloaf-he,626f6172-646c-46f6-9166-2d68652e6b69,rev?*%
%TF.SameCoordinates,Original*%
%TF.FileFunction,Soldermask,Bot*%
%TF.FilePolarity,Negative*%
%FSLAX46Y46*%
G04 Gerber Fmt 4.6, Leading zero omitted, Abs format (unit mm)*
G04 Created by KiCad (PCBNEW 10.0.2-rc1) date 2026-07-14 05:59:07*
%MOMM*%
%LPD*%
G01*
G04 APERTURE LIST*
G04 Aperture macros list*
%AMRoundRect*
0 Rectangle with rounded corners*
0 $1 Rounding radius*
0 $2 $3 $4 $5 $6 $7 $8 $9 X,Y pos of 4 corners*
0 Add a 4 corners polygon primitive as box body*
4,1,4,$2,$3,$4,$5,$6,$7,$8,$9,$2,$3,0*
0 Add four circle primitives for the rounded corners*
1,1,$1+$1,$2,$3*
1,1,$1+$1,$4,$5*
1,1,$1+$1,$6,$7*
1,1,$1+$1,$8,$9*
0 Add four rect primitives between the rounded corners*
20,1,$1+$1,$2,$3,$4,$5,0*
20,1,$1+$1,$4,$5,$6,$7,0*
20,1,$1+$1,$6,$7,$8,$9,0*
20,1,$1+$1,$8,$9,$2,$3,0*%
%AMHorizOval*
0 Thick line with rounded ends*
0 $1 width*
0 $2 $3 position (X,Y) of the first rounded end (center of the circle)*
0 $4 $5 position (X,Y) of the second rounded end (center of the circle)*
0 Add line between two ends*
20,1,$1,$2,$3,$4,$5,0*
0 Add two circle primitives to create the rounded ends*
1,1,$1,$2,$3*
1,1,$1,$4,$5*%
%AMOutline5P*
0 Free polygon, 5 corners , with rotation*
0 The origin of the aperture is its center*
0 number of corners: always 5*
0 $1 to $10 corner X, Y*
0 $11 Rotation angle, in degrees counterclockwise*
0 create outline with 5 corners*
4,1,5,$1,$2,$3,$4,$5,$6,$7,$8,$9,$10,$1,$2,$11*%
%AMOutline6P*
0 Free polygon, 6 corners , with rotation*
0 The origin of the aperture is its center*
0 number of corners: always 6*
0 $1 to $12 corner X, Y*
0 $13 Rotation angle, in degrees counterclockwise*
0 create outline with 6 corners*
4,1,6,$1,$2,$3,$4,$5,$6,$7,$8,$9,$10,$11,$12,$1,$2,$13*%
%AMOutline7P*
0 Free polygon, 7 corners , with rotation*
0 The origin of the aperture is its center*
0 number of corners: always 7*
0 $1 to $14 corner X, Y*
0 $15 Rotation angle, in degrees counterclockwise*
0 create outline with 7 corners*
4,1,7,$1,$2,$3,$4,$5,$6,$7,$8,$9,$10,$11,$12,$13,$14,$1,$2,$15*%
%AMOutline8P*
0 Free polygon, 8 corners , with rotation*
0 The origin of the aperture is its center*
0 number of corners: always 8*
0 $1 to $16 corner X, Y*
0 $17 Rotation angle, in degrees counterclockwise*
0 create outline with 8 corners*
4,1,8,$1,$2,$3,$4,$5,$6,$7,$8,$9,$10,$11,$12,$13,$14,$15,$16,$1,$2,$17*%
%AMFreePoly0*
4,1,6,1.000000,0.000000,0.500000,-0.750000,-0.500000,-0.750000,-0.500000,0.750000,0.500000,0.750000,1.000000,0.000000,1.000000,0.000000,$1*%
%AMFreePoly1*
4,1,6,0.500000,-0.750000,-0.650000,-0.750000,-0.150000,0.000000,-0.650000,0.750000,0.500000,0.750000,0.500000,-0.750000,0.500000,-0.750000,$1*%
G04 Aperture macros list end*
%ADD10C,0.800000*%
%ADD11O,2.000000X1.600000*%
%ADD12C,1.701800*%
%ADD13HorizOval,0.600000X0.000000X0.000000X0.000000X0.000000X0*%
%ADD14RoundRect,0.150000X-0.150000X0.587500X-0.150000X-0.587500X0.150000X-0.587500X0.150000X0.587500X0*%
%ADD15O,1.500000X3.000000*%
%ADD16O,3.000000X1.500000*%
%ADD17Outline8P,-1.500000X0.450000X-1.200000X0.750000X1.200000X0.750000X1.500000X0.450000X1.500000X-0.450000X1.200000X-0.750000X-1.200000X-0.750000X-1.500000X-0.450000X90.000000*%
%ADD18R,1.500000X3.000000*%
%ADD19FreePoly0,270.000000*%
%ADD20FreePoly1,270.000000*%
G04 APERTURE END LIST*
%TO.C,JP1*%
G36*
X98510000Y-88185000D02*
G01*
X100010000Y-88185000D01*
X100010000Y-90635000D01*
X98510000Y-90635000D01*
X98510000Y-88185000D01*
G37*
%TO.C,JP3*%
G36*
X29260000Y-98185000D02*
G01*
X30760000Y-98185000D01*
X30760000Y-100635000D01*
X29260000Y-100635000D01*
X29260000Y-98185000D01*
G37*
%TD*%
D10*
%TO.C,J1*%
X107160000Y-80910000D03*
X100160000Y-80910000D03*
D11*
X102560000Y-83210000D03*
X105560000Y-83210000D03*
X97460000Y-78610000D03*
X98560000Y-83210000D03*
%TD*%
D10*
%TO.C,J2*%
X107160000Y-80910000D03*
X100160000Y-80910000D03*
D11*
X102560000Y-78610000D03*
X105560000Y-78610000D03*
X97460000Y-83210000D03*
X98560000Y-78610000D03*
%TD*%
D12*
%TO.C,SW7*%
X37180004Y-44910008D03*
X47340004Y-44910008D03*
D13*
X43010004Y-45110008D03*
D14*
X43010004Y-46047508D03*
D13*
X41110004Y-45110008D03*
D14*
X41110004Y-46047508D03*
X42060004Y-44172508D03*
D13*
X42061657Y-45109872D03*
%TD*%
D12*
%TO.C,SW4*%
X75180000Y-27910000D03*
X85340000Y-27910000D03*
D13*
X81010000Y-28110000D03*
D14*
X81010000Y-29047500D03*
D13*
X79110000Y-28110000D03*
D14*
X79110000Y-29047500D03*
X80060000Y-27172500D03*
D13*
X80061653Y-28109864D03*
%TD*%
D12*
%TO.C,SW1*%
X18179998Y-34909999D03*
X28339998Y-34909999D03*
D13*
X24009998Y-35109999D03*
D14*
X24009998Y-36047499D03*
D13*
X22109998Y-35109999D03*
D14*
X22109998Y-36047499D03*
X23059998Y-34172499D03*
D13*
X23061651Y-35109863D03*
%TD*%
D12*
%TO.C,SW9*%
X75180000Y-46910000D03*
X85340000Y-46910000D03*
D13*
X81010000Y-47110000D03*
D14*
X81010000Y-48047500D03*
D13*
X79110000Y-47110000D03*
D14*
X79110000Y-48047500D03*
X80060000Y-46172500D03*
D13*
X80061653Y-47109864D03*
%TD*%
D12*
%TO.C,SW10*%
X94180000Y-48910000D03*
X104340000Y-48910000D03*
D13*
X100010000Y-49110000D03*
D14*
X100010000Y-50047500D03*
D13*
X98110000Y-49110000D03*
D14*
X98110000Y-50047500D03*
X99060000Y-48172500D03*
D13*
X99061653Y-49109864D03*
%TD*%
D12*
%TO.C,SW2*%
X37180004Y-25910008D03*
X47340004Y-25910008D03*
D13*
X43010004Y-26110008D03*
D14*
X43010004Y-27047508D03*
D13*
X41110004Y-26110008D03*
D14*
X41110004Y-27047508D03*
X42060004Y-25172508D03*
D13*
X42061657Y-26109872D03*
%TD*%
D12*
%TO.C,SW13*%
X56180004Y-60910008D03*
X66340004Y-60910008D03*
D13*
X62010004Y-61110008D03*
D14*
X62010004Y-62047508D03*
D13*
X60110004Y-61110008D03*
D14*
X60110004Y-62047508D03*
X61060004Y-60172508D03*
D13*
X61061657Y-61109872D03*
%TD*%
D12*
%TO.C,SW8*%
X56180004Y-41910008D03*
X66340004Y-41910008D03*
D13*
X62010004Y-42110008D03*
D14*
X62010004Y-43047508D03*
D13*
X60110004Y-42110008D03*
D14*
X60110004Y-43047508D03*
X61060004Y-41172508D03*
D13*
X61061657Y-42109872D03*
%TD*%
D12*
%TO.C,SW11*%
X18180001Y-72910000D03*
X28340001Y-72910000D03*
D13*
X24010001Y-73110000D03*
D14*
X24010001Y-74047500D03*
D13*
X22110001Y-73110000D03*
D14*
X22110001Y-74047500D03*
X23060001Y-72172500D03*
D13*
X23061654Y-73109864D03*
%TD*%
D12*
%TO.C,SW14*%
X75180000Y-65910000D03*
X85340000Y-65910000D03*
D13*
X81010000Y-66110000D03*
D14*
X81010000Y-67047500D03*
D13*
X79110000Y-66110000D03*
D14*
X79110000Y-67047500D03*
X80060000Y-65172500D03*
D13*
X80061653Y-66109864D03*
%TD*%
D12*
%TO.C,SW5*%
X94180000Y-29910000D03*
X104340000Y-29910000D03*
D13*
X100010000Y-30110000D03*
D14*
X100010000Y-31047500D03*
D13*
X98110000Y-30110000D03*
D14*
X98110000Y-31047500D03*
X99060000Y-29172500D03*
D13*
X99061653Y-30109864D03*
%TD*%
D12*
%TO.C,SW15*%
X94180000Y-67910000D03*
X104340000Y-67910000D03*
D13*
X100010000Y-68110000D03*
D14*
X100010000Y-69047500D03*
D13*
X98110000Y-68110000D03*
D14*
X98110000Y-69047500D03*
X99060000Y-67172500D03*
D13*
X99061653Y-68109864D03*
%TD*%
D12*
%TO.C,SW16*%
X66180000Y-91910000D03*
X76340000Y-91910000D03*
D13*
X72010000Y-92110000D03*
D14*
X72010000Y-93047500D03*
D13*
X70110000Y-92110000D03*
D14*
X70110000Y-93047500D03*
X71060000Y-91172500D03*
D13*
X71061653Y-92109864D03*
%TD*%
D12*
%TO.C,SW6*%
X18180000Y-53910000D03*
X28340000Y-53910000D03*
D13*
X24010000Y-54110000D03*
D14*
X24010000Y-55047500D03*
D13*
X22110000Y-54110000D03*
D14*
X22110000Y-55047500D03*
X23060000Y-53172500D03*
D13*
X23061653Y-54109864D03*
%TD*%
D12*
%TO.C,SW12*%
X37180004Y-63910008D03*
X47340004Y-63910008D03*
D13*
X43010004Y-64110008D03*
D14*
X43010004Y-65047508D03*
D13*
X41110004Y-64110008D03*
D14*
X41110004Y-65047508D03*
X42060004Y-63172508D03*
D13*
X42061657Y-64109872D03*
%TD*%
D12*
%TO.C,SW17*%
X85180000Y-93910000D03*
X95340000Y-93910000D03*
D13*
X91010000Y-94110000D03*
D14*
X91010000Y-95047500D03*
D13*
X89110000Y-94110000D03*
D14*
X89110000Y-95047500D03*
X90060000Y-93172500D03*
D13*
X90061653Y-94109864D03*
%TD*%
D12*
%TO.C,SW18*%
X104170000Y-96910000D03*
X114330000Y-96910000D03*
D13*
X110000000Y-97110000D03*
D14*
X110000000Y-98047500D03*
D13*
X108100000Y-97110000D03*
D14*
X108100000Y-98047500D03*
X109050000Y-96172500D03*
D13*
X109051653Y-97109864D03*
%TD*%
D12*
%TO.C,SW3*%
X56180004Y-22910008D03*
X66340004Y-22910008D03*
D13*
X62010004Y-23110008D03*
D14*
X62010004Y-24047508D03*
D13*
X60110004Y-23110008D03*
D14*
X60110004Y-24047508D03*
X61060004Y-22172508D03*
D13*
X61061657Y-23109872D03*
%TD*%
D15*
%TO.C,MCU*%
X38350000Y-81540000D03*
X40890000Y-81540000D03*
X43430000Y-81540000D03*
X45970000Y-81540000D03*
X48510000Y-81540000D03*
X51050000Y-81540000D03*
X53590000Y-81540000D03*
X56130000Y-81540000D03*
X58670000Y-81540000D03*
D16*
X59420000Y-84830000D03*
X59420000Y-87370000D03*
X59420000Y-89910000D03*
X59420000Y-92450000D03*
X59420000Y-94990000D03*
D15*
X58670000Y-98280000D03*
X56130000Y-98280000D03*
X53590000Y-98280000D03*
X51050000Y-98280000D03*
X48510000Y-98280000D03*
X45970000Y-98280000D03*
D17*
X43430000Y-98280000D03*
D18*
X40890000Y-98280000D03*
D17*
X38350000Y-98280000D03*
%TD*%
D19*
%TO.C,JP1*%
X99260000Y-88685000D03*
D20*
X99260000Y-90135000D03*
%TD*%
D19*
%TO.C,JP3*%
X30010000Y-98685000D03*
D20*
X30010000Y-100135000D03*
%TD*%
M02*
