M48
; DRILL file KiCad 10.0.2-rc1 date 2026-07-14T05:59:01
; FORMAT={-:-/ absolute / metric / decimal}
; #@! TF.CreationDate,2026-07-14T05:59:01+09:00
; #@! TF.GenerationSoftware,Kicad,Pcbnew,10.0.2-rc1
; #@! TF.FileFunction,NonPlated,1,2,NPTH
FMAT,2
METRIC
; #@! TA.AperFunction,NonPlated,NPTH,ComponentDrill
T1C0.800
; #@! TA.AperFunction,NonPlated,NPTH,ComponentDrill
T2C1.702
%
G90
G05
T1
X100.16Y-80.91
X100.16Y-80.91
X107.16Y-80.91
X107.16Y-80.91
T2
X18.18Y-34.91
X18.18Y-53.91
X18.18Y-72.91
X28.34Y-34.91
X28.34Y-53.91
X28.34Y-72.91
X37.18Y-25.91
X37.18Y-44.91
X37.18Y-63.91
X47.34Y-25.91
X47.34Y-44.91
X47.34Y-63.91
X56.18Y-22.91
X56.18Y-41.91
X56.18Y-60.91
X66.18Y-91.91
X66.34Y-22.91
X66.34Y-41.91
X66.34Y-60.91
X75.18Y-27.91
X75.18Y-46.91
X75.18Y-65.91
X76.34Y-91.91
X85.18Y-93.91
X85.34Y-27.91
X85.34Y-46.91
X85.34Y-65.91
X94.18Y-29.91
X94.18Y-48.91
X94.18Y-67.91
X95.34Y-93.91
X104.17Y-96.91
X104.34Y-29.91
X104.34Y-48.91
X104.34Y-67.91
X114.33Y-96.91
M30
